<svg xmlns="http://www.w3.org/2000/svg" viewBox="0 0 142.876 14.071">
  <defs>
    <style>
      .cls-1 {
        fill: #fff;
      }
    </style>
  </defs>
  <g id="Group_34648" data-name="Group 34648" transform="translate(-36 -17)">
    <g id="Group_34647" data-name="Group 34647" transform="translate(36 17)">
      <path id="Path_123974" data-name="Path 123974" class="cls-1" d="M49.521,7.968V4.9H51V7.968H54.07V9.449H51V12.57H49.521V9.449H46.4V7.968Z" transform="translate(-21.856 -2.308)"/>
      <path id="Path_123975" data-name="Path 123975" class="cls-1" d="M68.472,1.3H66.938L62.6,11.3h2.01l3.068-7.882,2.7,6.93.423.952h2.01Z" transform="translate(-29.486 -0.612)"/>
      <path id="Path_123976" data-name="Path 123976" class="cls-1" d="M88.813,9.68h0a2.056,2.056,0,0,1-1.005.9,2.824,2.824,0,0,1-1.322.264,4.039,4.039,0,0,1-1.428-.264A2.951,2.951,0,0,1,84,9.839a3.021,3.021,0,0,1-.688-1.111A3.944,3.944,0,0,1,83.1,7.353a3.043,3.043,0,0,1,.264-1.375,3.021,3.021,0,0,1,.688-1.111,2.555,2.555,0,0,1,1.058-.741,3.683,3.683,0,0,1,1.322-.264,4.111,4.111,0,0,1,.846.106,1.765,1.765,0,0,1,.635.264,1.846,1.846,0,0,1,.476.317c.106.106.264.212.317.37h.053V0h1.693V10.685H88.866V9.68ZM84.793,7.3a1.69,1.69,0,0,0,.159.741,1.829,1.829,0,0,0,.37.635,2,2,0,0,0,.635.476,2.336,2.336,0,0,0,1.693,0,1.444,1.444,0,0,0,.635-.476,1.981,1.981,0,0,0,.37-.635,1.867,1.867,0,0,0,.159-.741,1.69,1.69,0,0,0-.159-.741,1.829,1.829,0,0,0-.37-.635,2,2,0,0,0-.635-.476,2.336,2.336,0,0,0-1.693,0,1.444,1.444,0,0,0-.635.476,1.981,1.981,0,0,0-.37.635,1.69,1.69,0,0,0-.159.741" transform="translate(-39.142)"/>
      <path id="Path_123977" data-name="Path 123977" class="cls-1" d="M98.8,7.4h1.851l1.851,4.761h0L104.354,7.4h1.693L103.4,14.171h-1.8Z" transform="translate(-46.537 -3.486)"/>
      <path id="Path_123978" data-name="Path 123978" class="cls-1" d="M118.308,13.125h0a2.408,2.408,0,0,1-.952.846,3.2,3.2,0,0,1-1.27.264,4.659,4.659,0,0,1-.9-.106,2.764,2.764,0,0,1-.793-.37,2.255,2.255,0,0,1-.582-.635,1.621,1.621,0,0,1-.212-.9,1.812,1.812,0,0,1,.212-.952,2.117,2.117,0,0,1,.529-.635,2.8,2.8,0,0,1,.793-.423,5.534,5.534,0,0,1,.9-.212,5.829,5.829,0,0,1,.952-.106h1.322V9.739a1.162,1.162,0,0,0-.423-.952,1.956,1.956,0,0,0-1.111-.317,2.147,2.147,0,0,0-1.005.212,2.093,2.093,0,0,0-.793.529l-.9-.9a3.165,3.165,0,0,1,1.322-.846,5.252,5.252,0,0,1,1.587-.264,3.994,3.994,0,0,1,1.217.159,4.218,4.218,0,0,1,.846.423,1.653,1.653,0,0,1,.476.582,2.658,2.658,0,0,1,.264.688,2.656,2.656,0,0,1,.106.635v4.5h-1.534V13.125Zm-.106-2.063h-.37a4.568,4.568,0,0,0-.793.053,2.193,2.193,0,0,0-.846.159,1.207,1.207,0,0,0-.635.317.758.758,0,0,0-.264.582,1,1,0,0,0,.106.423.637.637,0,0,0,.264.264c.106.053.264.106.37.159a1.165,1.165,0,0,0,.423.053,1.742,1.742,0,0,0,1.27-.423,1.559,1.559,0,0,0,.423-1.164v-.423Z" transform="translate(-53.508 -3.391)"/>
      <path id="Path_123979" data-name="Path 123979" class="cls-1" d="M128.753,7.259h1.587V8.37h.053a2.922,2.922,0,0,1,.741-.9,2.065,2.065,0,0,1,1.322-.37,2.546,2.546,0,0,1,1.164.212,3.081,3.081,0,0,1,.793.582,2.545,2.545,0,0,1,.423.846,3.092,3.092,0,0,1,.106,1.005V14.03h-1.693V10.591a2.575,2.575,0,0,0-.053-.635,1.409,1.409,0,0,0-.159-.635,1.9,1.9,0,0,0-.37-.529.975.975,0,0,0-.688-.212,1.69,1.69,0,0,0-.741.159,1.152,1.152,0,0,0-.476.37,1.655,1.655,0,0,0-.264.529,2.655,2.655,0,0,0-.106.635v3.7H128.7V7.259Z" transform="translate(-60.621 -3.344)"/>
      <path id="Path_123980" data-name="Path 123980" class="cls-1" d="M142.7,7.085V5.657h1.375V3.7h1.693V5.657h1.851V7.085h-1.851v2.962a1.275,1.275,0,0,0,.212.793c.106.212.37.317.741.317a1.464,1.464,0,0,0,.476-.053,3.644,3.644,0,0,0,.423-.159v1.428a1.257,1.257,0,0,1-.635.159,3.254,3.254,0,0,1-.688.053,3.091,3.091,0,0,1-1.111-.159,1.611,1.611,0,0,1-.688-.476,1.855,1.855,0,0,1-.317-.741,5.948,5.948,0,0,1-.106-1.058V7.033H142.7Z" transform="translate(-67.215 -1.743)"/>
      <path id="Path_123981" data-name="Path 123981" class="cls-1" d="M158.408,13.125h0a2.408,2.408,0,0,1-.952.846,3.2,3.2,0,0,1-1.27.264,4.658,4.658,0,0,1-.9-.106,2.764,2.764,0,0,1-.793-.37,2.255,2.255,0,0,1-.582-.635,1.621,1.621,0,0,1-.212-.9,1.812,1.812,0,0,1,.212-.952,2.117,2.117,0,0,1,.529-.635,2.8,2.8,0,0,1,.793-.423,5.534,5.534,0,0,1,.9-.212,5.829,5.829,0,0,1,.952-.106h1.322V9.739a1.162,1.162,0,0,0-.423-.952,1.956,1.956,0,0,0-1.111-.317,2.147,2.147,0,0,0-1.005.212,2.093,2.093,0,0,0-.793.529l-.9-.9a3.165,3.165,0,0,1,1.322-.846,5.252,5.252,0,0,1,1.587-.264,3.994,3.994,0,0,1,1.217.159,4.218,4.218,0,0,1,.846.423,1.654,1.654,0,0,1,.476.582,2.658,2.658,0,0,1,.264.688,2.655,2.655,0,0,1,.106.635v4.5h-1.534V13.125Zm-.106-2.063h-.37a4.568,4.568,0,0,0-.793.053,2.193,2.193,0,0,0-.846.159,1.207,1.207,0,0,0-.635.317.758.758,0,0,0-.264.582,1,1,0,0,0,.106.423.637.637,0,0,0,.264.264c.106.053.264.106.37.159a1.165,1.165,0,0,0,.423.053,1.742,1.742,0,0,0,1.27-.423,1.559,1.559,0,0,0,.423-1.164v-.423Z" transform="translate(-72.396 -3.391)"/>
      <path id="Path_123982" data-name="Path 123982" class="cls-1" d="M175.553,7.259v6.189a5.142,5.142,0,0,1-.212,1.64,3.694,3.694,0,0,1-.688,1.27,3.242,3.242,0,0,1-1.217.793,4.221,4.221,0,0,1-1.693.264,6.718,6.718,0,0,1-1.8-.264,3.981,3.981,0,0,1-1.587-.9l1.005-1.375a4.773,4.773,0,0,0,1.058.741,3.2,3.2,0,0,0,1.27.264,2.666,2.666,0,0,0,1.005-.159,2.013,2.013,0,0,0,.688-.476,2.423,2.423,0,0,0,.37-.741,4.744,4.744,0,0,0,.106-.952v-.476h-.053a2.585,2.585,0,0,1-.952.741,3.636,3.636,0,0,1-1.27.264,3.746,3.746,0,0,1-1.375-.264,2.555,2.555,0,0,1-1.058-.741,3.021,3.021,0,0,1-.688-1.111,4.094,4.094,0,0,1-.053-2.751,3.02,3.02,0,0,1,.688-1.111,2.951,2.951,0,0,1,1.058-.741,4.039,4.039,0,0,1,1.428-.264,3.465,3.465,0,0,1,1.322.264,2.35,2.35,0,0,1,1.005.9h.053V7.259Zm-3.6,1.322a2.193,2.193,0,0,0-.846.159,1.349,1.349,0,0,0-.635.423,1.9,1.9,0,0,0-.423.635,2.193,2.193,0,0,0-.159.846,1.69,1.69,0,0,0,.159.741,2.214,2.214,0,0,0,.423.635,1.9,1.9,0,0,0,.635.423,2.123,2.123,0,0,0,.793.159,2.193,2.193,0,0,0,.846-.159,1.945,1.945,0,0,0,1.058-1.058,2.122,2.122,0,0,0,.159-.793,1.915,1.915,0,0,0-.529-1.428,2.078,2.078,0,0,0-1.481-.582" transform="translate(-79.226 -3.344)"/>
      <path id="Path_123983" data-name="Path 123983" class="cls-1" d="M186.793,11.132a1.65,1.65,0,0,0,.582,1.164,1.886,1.886,0,0,0,1.217.423,2.083,2.083,0,0,0,1.058-.264,2.784,2.784,0,0,0,.741-.635l1.217.9a3.553,3.553,0,0,1-1.322,1.058,3.794,3.794,0,0,1-1.534.317,4.039,4.039,0,0,1-1.428-.264,2.934,2.934,0,0,1-1.164-.741,4.236,4.236,0,0,1-.793-1.111A3.365,3.365,0,0,1,185.1,10.5a4.589,4.589,0,0,1,.264-1.481,4.236,4.236,0,0,1,.793-1.111,4.368,4.368,0,0,1,1.164-.741A4.535,4.535,0,0,1,188.75,6.9a3.2,3.2,0,0,1,1.27.264,2.763,2.763,0,0,1,1.005.741,3.492,3.492,0,0,1,.635,1.164,5.013,5.013,0,0,1,.212,1.587v.476h-5.078Zm3.491-1.27a1.477,1.477,0,0,0-.476-1.164,1.93,1.93,0,0,0-1.27-.423,1.785,1.785,0,0,0-1.217.423,1.834,1.834,0,0,0-.529,1.164Z" transform="translate(-87.187 -3.25)"/>
      <path id="Path_123984" data-name="Path 123984" class="cls-1" d="M7.829,2.411H4.5V11.3H3.333V2.411H0V1.3H7.829Z" transform="translate(0 -0.612)"/>
      <path id="Path_123985" data-name="Path 123985" class="cls-1" d="M17,0h1.111V4.972h.053a.991.991,0,0,1,.317-.37,1.859,1.859,0,0,1,.476-.37,1.765,1.765,0,0,1,.635-.264,3.122,3.122,0,0,1,.741-.106,2.453,2.453,0,0,1,1.111.212,2.093,2.093,0,0,1,.793.529,2.207,2.207,0,0,1,.476.846,3.517,3.517,0,0,1,.159,1.111v4.073H21.761V6.665a1.971,1.971,0,0,0-.37-1.322,1.785,1.785,0,0,0-1.217-.423,2.563,2.563,0,0,0-.952.159,1.555,1.555,0,0,0-.635.529,2.764,2.764,0,0,0-.37.793,3.261,3.261,0,0,0-.106,1.058v3.227H17Z" transform="translate(-8.007)"/>
      <path id="Path_123986" data-name="Path 123986" class="cls-1" d="M37.495,12.86a3.1,3.1,0,0,1-1.322,1.058,3.943,3.943,0,0,1-1.64.317,3.538,3.538,0,0,1-1.375-.264A2.951,2.951,0,0,1,32.1,13.23a3.933,3.933,0,0,1-.688-1.111,3.944,3.944,0,0,1-.212-1.375,4.275,4.275,0,0,1,.264-1.428,3.933,3.933,0,0,1,.688-1.111,3.8,3.8,0,0,1,1.058-.741A3.746,3.746,0,0,1,34.585,7.2a3.2,3.2,0,0,1,1.27.212A2.628,2.628,0,0,1,36.86,8.1a3.223,3.223,0,0,1,.635,1.111,4.171,4.171,0,0,1,.212,1.481v.37H32.364a2.217,2.217,0,0,0,.212.793,2.338,2.338,0,0,0,1.164,1.164,2.193,2.193,0,0,0,.846.159,2.758,2.758,0,0,0,1.217-.264,2.922,2.922,0,0,0,.9-.741Zm-.952-2.7a2.011,2.011,0,0,0-.529-1.375,2.149,2.149,0,0,0-1.428-.529,1.96,1.96,0,0,0-1.481.529,2.281,2.281,0,0,0-.688,1.375h4.126Z" transform="translate(-14.696 -3.391)"/>
      <path id="Path_123987" data-name="Path 123987" class="cls-1" d="M205.748,2.9a1.977,1.977,0,0,0-.793-.688,2.368,2.368,0,0,0-1.058-.212,4.083,4.083,0,0,0-.793.106,1.64,1.64,0,0,0-.688.317,1.158,1.158,0,0,0-.476.529,1.69,1.69,0,0,0-.159.741,1.9,1.9,0,0,0,.106.582.978.978,0,0,0,.37.476,1.829,1.829,0,0,0,.635.37,6.906,6.906,0,0,0,1.005.37c.37.106.741.264,1.111.37a4.061,4.061,0,0,1,.952.529,3.381,3.381,0,0,1,.688.793,2.758,2.758,0,0,1,.264,1.217,2.716,2.716,0,0,1-.317,1.322,2.633,2.633,0,0,1-.793.9,2.708,2.708,0,0,1-1.111.529,5.329,5.329,0,0,1-1.322.159,5.132,5.132,0,0,1-.9-.053,2.266,2.266,0,0,1-.846-.264,3.372,3.372,0,0,1-.741-.423,2.255,2.255,0,0,1-.582-.635l1.005-.846a2.308,2.308,0,0,0,.9.846,2.411,2.411,0,0,0,1.217.264,4.083,4.083,0,0,0,.793-.106,2.735,2.735,0,0,0,.688-.317,2.508,2.508,0,0,0,.529-.529,1.214,1.214,0,0,0,.212-.741,1.4,1.4,0,0,0-.159-.741,1.038,1.038,0,0,0-.476-.476,2.534,2.534,0,0,0-.846-.37c-.317-.106-.741-.264-1.164-.37-.37-.106-.688-.264-1.005-.37a2.965,2.965,0,0,1-.793-.529,3.755,3.755,0,0,1-.529-.741,3.13,3.13,0,0,1-.212-1.058,3.2,3.2,0,0,1,.264-1.27,3.065,3.065,0,0,1,.741-.9,2.708,2.708,0,0,1,1.111-.529A5.217,5.217,0,0,1,203.844,1a4.659,4.659,0,0,1,1.534.264,2.962,2.962,0,0,1,1.27.9Z" transform="translate(-94.346 -0.471)"/>
      <path id="Path_123988" data-name="Path 123988" class="cls-1" d="M221.695,12.86a3.1,3.1,0,0,1-1.322,1.058,3.943,3.943,0,0,1-1.64.317,3.538,3.538,0,0,1-1.375-.264,2.951,2.951,0,0,1-1.058-.741,3.932,3.932,0,0,1-.688-1.111,3.944,3.944,0,0,1-.212-1.375,4.275,4.275,0,0,1,.264-1.428,3.933,3.933,0,0,1,.688-1.111,3.8,3.8,0,0,1,1.058-.741,3.746,3.746,0,0,1,1.375-.264,3.2,3.2,0,0,1,1.27.212,2.628,2.628,0,0,1,1.005.688,3.223,3.223,0,0,1,.635,1.111,4.171,4.171,0,0,1,.212,1.481v.37h-5.343a2.217,2.217,0,0,0,.212.793,2.338,2.338,0,0,0,1.164,1.164,2.193,2.193,0,0,0,.846.159A2.758,2.758,0,0,0,220,12.913a2.923,2.923,0,0,0,.9-.741Zm-.952-2.7a2.011,2.011,0,0,0-.529-1.375,2.149,2.149,0,0,0-1.428-.529,1.96,1.96,0,0,0-1.481.529,2.281,2.281,0,0,0-.688,1.375h4.126Z" transform="translate(-101.459 -3.391)"/>
      <path id="Path_123989" data-name="Path 123989" class="cls-1" d="M230.906,9.1a4.275,4.275,0,0,0-.053-.846c0-.264-.053-.529-.053-.741h1.058V8.57h.053a1.249,1.249,0,0,1,.317-.476c.159-.159.317-.264.476-.423a3.236,3.236,0,0,1,.635-.264,3.122,3.122,0,0,1,.741-.106h.212c.053,0,.159.053.212.053l-.053,1.111a2.25,2.25,0,0,0-.582-.106,1.709,1.709,0,0,0-1.481.635,3.023,3.023,0,0,0-.476,1.8v3.227h-1.005Z" transform="translate(-108.712 -3.438)"/>
      <path id="Path_123990" data-name="Path 123990" class="cls-1" d="M240.1,2.046a.8.8,0,0,1,.212-.582.772.772,0,0,1,1.164,0,.8.8,0,0,1,.212.582.8.8,0,0,1-.212.582.906.906,0,0,1-1.164,0,.963.963,0,0,1-.212-.582m.264,2.592h1.111v6.612h-1.111Z" transform="translate(-113.093 -0.565)"/>
      <path id="Path_123991" data-name="Path 123991" class="cls-1" d="M252.395,12.86a3.1,3.1,0,0,1-1.322,1.058,3.943,3.943,0,0,1-1.64.317,3.538,3.538,0,0,1-1.375-.264A2.951,2.951,0,0,1,247,13.23a3.932,3.932,0,0,1-.688-1.111,3.944,3.944,0,0,1-.212-1.375,4.275,4.275,0,0,1,.264-1.428,3.932,3.932,0,0,1,.688-1.111,3.8,3.8,0,0,1,1.058-.741,3.746,3.746,0,0,1,1.375-.264,3.2,3.2,0,0,1,1.27.212,2.628,2.628,0,0,1,1.005.688,3.223,3.223,0,0,1,.635,1.111,4.171,4.171,0,0,1,.212,1.481v.37h-5.343a2.217,2.217,0,0,0,.212.793,2.338,2.338,0,0,0,1.164,1.164,2.193,2.193,0,0,0,.846.159,2.758,2.758,0,0,0,1.217-.264,2.922,2.922,0,0,0,.9-.741Zm-.952-2.7a2.011,2.011,0,0,0-.529-1.375,2.149,2.149,0,0,0-1.428-.529A2.04,2.04,0,0,0,248,8.787a2.281,2.281,0,0,0-.688,1.375h4.126Z" transform="translate(-115.919 -3.391)"/>
      <path id="Path_123992" data-name="Path 123992" class="cls-1" d="M261.2,12.519a3.758,3.758,0,0,0,.688.635,1.882,1.882,0,0,0,1.005.264,1.985,1.985,0,0,0,.529-.053l.476-.159a.9.9,0,0,0,.317-.317c.106-.106.106-.264.106-.476a1,1,0,0,0-.106-.423,1.4,1.4,0,0,0-.317-.264,1,1,0,0,0-.476-.212,1.88,1.88,0,0,0-.529-.106c-.317-.053-.635-.159-.9-.212-.264-.106-.529-.212-.741-.317a2.508,2.508,0,0,1-.529-.529,1.8,1.8,0,0,1-.212-.846,1.552,1.552,0,0,1,.212-.846,1.537,1.537,0,0,1,.582-.582,2.764,2.764,0,0,1,.793-.37A2.62,2.62,0,0,1,263,7.6a3.683,3.683,0,0,1,1.322.264,2.225,2.225,0,0,1,.952.9l-.9.582a2.03,2.03,0,0,0-.582-.582,1.442,1.442,0,0,0-.846-.212,1.464,1.464,0,0,0-.476.053,3.643,3.643,0,0,0-.423.159,1.4,1.4,0,0,0-.317.264.57.57,0,0,0-.106.423.48.48,0,0,0,.159.37.949.949,0,0,0,.37.264,5.487,5.487,0,0,0,.529.212l.635.159a3.963,3.963,0,0,1,.846.212,2.85,2.85,0,0,1,.688.37,1.293,1.293,0,0,1,.476.582,2.014,2.014,0,0,1,.159.846,1.812,1.812,0,0,1-.212.952,2.254,2.254,0,0,1-.582.635,4.094,4.094,0,0,1-.846.37,5.829,5.829,0,0,1-.952.106,4.116,4.116,0,0,1-1.481-.264,2.352,2.352,0,0,1-1.111-.952Z" transform="translate(-122.608 -3.58)"/>
    </g>
  </g>
</svg>
