<svg xmlns="http://www.w3.org/2000/svg" viewBox="0 0 203 228.424">
  <defs>
    <style>
      .cls-1 {
        fill: rgba(255,255,255,0);
      }

      .cls-2 {
        fill: #566539;
      }

      .cls-3 {
        fill: #a2be6c;
      }

      .cls-4 {
        fill: #fff;
      }

      .cls-5 {
        fill: #707070;
      }
    </style>
  </defs>
  <g id="Group_40392" data-name="Group 40392" transform="translate(-4369 1475.797)">
    <rect id="Rectangle_1223" data-name="Rectangle 1223" class="cls-1" width="203" height="228.424" transform="translate(4369 -1475.797)"/>
    <g id="Group_39190" data-name="Group 39190" transform="translate(-600.647 -806)">
      <path id="Path_136034" data-name="Path 136034" class="cls-2" d="M68.988,608.666l-.033,8.122v.3a2.509,2.509,0,0,1-.033.5c0,.133-.033.232-.033.365a.42.42,0,0,1-.033.2.3.3,0,0,1-.033.166c0,.133-.033.232-.033.332a.122.122,0,0,1-.033.1.968.968,0,0,1-.066.3c0,.033,0,.066-.033.066v.033c-.066.3-.133.6-.232.928l-.3.9a15.905,15.905,0,0,1-.862,1.89c0,.033-.033.033-.033.066-.033.066-.1.166-.133.232l-.1.2a1.442,1.442,0,0,0-.133.232,2.914,2.914,0,0,0-.2.332c-.033.033-.066.1-.1.133a3.466,3.466,0,0,1-.265.365c-.033.033-.033.066-.066.1a2.5,2.5,0,0,1-.365.464c-.066.066-.133.166-.2.232a5.1,5.1,0,0,1-.564.63c-.1.1-.166.2-.265.3-.3.331-.6.63-.928.961l-.2.2c-.3.3-.63.564-.961.862-.332.265-.7.564-1.061.829a4.744,4.744,0,0,1-.5.365c-.53.365-1.094.763-1.691,1.127a.172.172,0,0,1-.133.066c-.133.066-.265.166-.431.265-.265.166-.564.331-.829.464a.1.1,0,0,1-.066.033c-.265.166-.564.3-.829.431h0c-.265.133-.564.265-.829.4-.1.033-.166.1-.265.133-.2.1-.4.166-.564.265-.1.033-.2.1-.3.133-.2.1-.431.166-.63.265-.1.033-.2.1-.3.133-.033,0-.033.033-.066.033l-.8.3c-.332.133-.63.232-.961.365-.033,0-.033.033-.066.033-.332.1-.63.232-.961.332-.5.166-.995.332-1.525.464-.232.066-.464.133-.663.2-.133.033-.265.066-.365.1-.2.066-.431.1-.63.166-.265.066-.53.133-.829.2a6.272,6.272,0,0,1-.762.166c-.066,0-.1.033-.166.033a5.624,5.624,0,0,1-.729.133c-.265.066-.564.1-.829.166-.365.066-.7.133-1.061.166-.066,0-.133.033-.2.033a8.955,8.955,0,0,1-.928.133c-.4.066-.8.1-1.227.166-.332.033-.63.066-.961.1h-.133c-.6.066-1.193.1-1.823.133a6.39,6.39,0,0,1-.8.033c-.166,0-.3.033-.464.033-.232,0-.464.033-.663.033h-.066a8.081,8.081,0,0,0-.9.033H33.218a2.853,2.853,0,0,1-.53-.033c-.431,0-.862-.033-1.293-.066l-1.591-.1c-.3-.033-.564-.033-.829-.066h-.033c-.5-.066-.995-.1-1.525-.166a.648.648,0,0,1-.232-.033c-.232-.033-.5-.066-.729-.1a6.628,6.628,0,0,1-.8-.133h-.066c-.564-.1-1.094-.166-1.624-.265-.3-.066-.6-.133-.928-.2-.2-.033-.4-.1-.6-.133a3.1,3.1,0,0,1-.53-.133,6.465,6.465,0,0,1-.663-.166h-.033l-.8-.2c-.166-.033-.365-.1-.53-.133a2.443,2.443,0,0,1-.464-.133h-.033c-.3-.066-.564-.166-.829-.232a1.186,1.186,0,0,1-.365-.133,5.148,5.148,0,0,1-.762-.265c-.332-.1-.663-.232-.995-.331a4.437,4.437,0,0,1-.6-.232.479.479,0,0,0-.232-.066c-.133-.033-.232-.1-.365-.133-.1-.033-.166-.066-.265-.1-.2-.066-.4-.166-.6-.232-.3-.1-.564-.232-.862-.365-.232-.1-.431-.2-.663-.3a4.126,4.126,0,0,1-.663-.331,3.044,3.044,0,0,1-.464-.232,3.08,3.08,0,0,0-.332-.166c-.4-.2-.8-.431-1.193-.663C3.381,626.866,0,621.694,0,616.556L.033,608.5c0,5.138,3.381,10.277,10.178,14.189.4.232.8.431,1.193.663a3.092,3.092,0,0,0,.332.166c.133.066.3.166.464.232.232.1.464.232.663.332s.431.2.663.3c.033,0,.033.033.066.033a5.1,5.1,0,0,0,.63.265l.7.3.3.1c.033,0,.066.033.133.033.265.1.564.232.862.332a.1.1,0,0,1,.066.033c.3.1.564.2.862.3a1.62,1.62,0,0,1,.365.133c.265.1.5.166.762.265.033,0,.066.033.133.033l.995.3h.033c.3.066.6.166.9.232s.6.166.9.232h.033c.2.066.431.1.663.166a3.1,3.1,0,0,1,.53.133c.2.033.4.1.6.133,1.127.232,2.254.431,3.415.6h.033c.53.066,1.094.133,1.624.2.564.066,1.127.133,1.691.166.3.033.564.033.829.066q1.193.1,2.387.1c.53.033,1.094.033,1.624.033h.829a6.944,6.944,0,0,0,.829-.033c.265-.033.564,0,.829-.033.265,0,.53-.033.8-.033h.1c.265,0,.5-.033.762-.033.6-.033,1.16-.1,1.724-.133h.033c.332-.033.63-.066.928-.1.4-.033.829-.1,1.227-.166.365-.033.7-.1,1.061-.166.066,0,.133-.033.2-.033.265-.033.53-.1.8-.133a.2.2,0,0,0,.133-.033.251.251,0,0,0,.133-.033l.6-.1c.166-.033.365-.066.53-.1a5.282,5.282,0,0,0,.7-.166c1.028-.232,2.022-.464,3.017-.762.2-.066.431-.133.63-.2.332-.1.63-.2.961-.3.066-.033.133-.033.2-.066a6.932,6.932,0,0,0,.762-.265c.033,0,.033-.033.066-.033.332-.1.63-.232.961-.365l.8-.3c.033,0,.033-.033.066-.033l.5-.2a1.176,1.176,0,0,0,.3-.133c.166-.066.332-.133.464-.2.232-.1.5-.232.729-.332a.116.116,0,0,0,.066-.033c.265-.133.564-.265.829-.4h0c.3-.133.564-.3.829-.431a.116.116,0,0,0,.066-.033c.3-.166.564-.3.829-.464a3.028,3.028,0,0,0,.431-.265,16.483,16.483,0,0,0,1.492-.961c.133-.1.3-.2.431-.3.166-.133.365-.265.53-.4.332-.232.63-.5.928-.729a5.753,5.753,0,0,0,.5-.431,2.866,2.866,0,0,0,.464-.431c.1-.066.166-.166.265-.232.3-.3.6-.6.862-.9.1-.1.166-.2.265-.3a6.968,6.968,0,0,0,.464-.564c0-.033.033-.033.033-.066.066-.1.133-.166.2-.265.133-.166.232-.3.365-.464.033-.033.066-.066.066-.1l.2-.3.2-.3c.033-.033.066-.1.1-.133.066-.133.166-.232.232-.365s.166-.265.232-.4a15.039,15.039,0,0,0,.928-1.956l.3-.9c.033-.1.066-.232.1-.331a1.178,1.178,0,0,0,.066-.332,1.41,1.41,0,0,0,.066-.365h0a1.665,1.665,0,0,0,.066-.4,1.128,1.128,0,0,0,.033-.332.2.2,0,0,1,.033-.133c0-.066.033-.166.033-.232,0-.1.033-.232.033-.332,0-.166.033-.332.033-.464v-.033A.492.492,0,0,0,68.988,608.666Z" transform="translate(5036.647 -1174.5)"/>
      <path id="Path_136035" data-name="Path 136035" class="cls-3" d="M59.018,582.563c-13.426,7.791-35.24,7.791-48.766,0s-13.592-20.454-.166-28.245,35.24-7.791,48.766,0C72.345,562.109,72.411,574.739,59.018,582.563Z" transform="translate(5036.938 -1133.475)"/>
      <g id="Group_40327" data-name="Group 40327" transform="translate(5047 -580)">
        <path id="Path_136036" data-name="Path 136036" class="cls-2" d="M56.6,565.744a5.983,5.983,0,0,0-2.884.7l-2.553,1.492v-3.846a1.015,1.015,0,0,0-.6-.829L47.68,561.6,31.9,570.783v4.84l2.884,1.658a3.161,3.161,0,0,0,2.884,0l3.415-1.989v4.475a2.383,2.383,0,0,0,1.392,1.956l11.736,6.763a6.247,6.247,0,0,0,3.879.63L70.754,586.2a5.3,5.3,0,0,0,1.392-.53l1.558-.9a2.037,2.037,0,0,0,1.16-1.591v-5.006a2.037,2.037,0,0,0-1.193-1.591l-2.95-1.691,3.017-1.16a1.4,1.4,0,0,0,.829-.63,3.115,3.115,0,0,0,.464-1.757v-5.6H56.6Z" transform="translate(-31.9 -561.6)"/>
        <g id="Group_40326" data-name="Group 40326" transform="translate(0 0)">
          <path id="Path_136037" data-name="Path 136037" class="cls-4" d="M51.161,564.086a1.015,1.015,0,0,1-.6.829l-2.718,1.591-10.178,5.934a3.061,3.061,0,0,1-.829.3,3.094,3.094,0,0,1-2.055-.3L31.9,570.783,47.68,561.6l2.884,1.658A1.015,1.015,0,0,1,51.161,564.086Z" transform="translate(-31.9 -561.6)"/>
          <path id="Path_136038" data-name="Path 136038" class="cls-4" d="M88.011,578.873l-3.68,1.426,5.006,2.884,2.95,1.691a2.086,2.086,0,0,1,1.193,1.591v.166a2.036,2.036,0,0,1-1.16,1.591l-1.293.763-.265.133a5.787,5.787,0,0,1-1.392.53l-12.664,2.917a6.247,6.247,0,0,1-3.879-.63L61.888,585.6l-.8-.464a2.5,2.5,0,0,1-1.359-1.624,1.128,1.128,0,0,1-.033-.332,2.362,2.362,0,0,1,1.359-1.923l8.255-4.807.431-.265L72.3,574.7a5.983,5.983,0,0,1,2.884-.7H93.647v.762a3.762,3.762,0,0,1-.464,1.757,1.536,1.536,0,0,1-.829.63Z" transform="translate(-50.484 -569.889)"/>
        </g>
      </g>
    </g>
    <path id="Path_136044" data-name="Path 136044" class="cls-5" d="M-54.128-10.652l-1.723,1.644a5.338,5.338,0,0,0-3.955-1.854A4.254,4.254,0,0,0-62.931-9.6a4.232,4.232,0,0,0-1.27,3.12,4.605,4.605,0,0,0,.563,2.294A4.028,4.028,0,0,0-62.047-2.61a4.625,4.625,0,0,0,2.285.571,4.717,4.717,0,0,0,1.96-.4,7.022,7.022,0,0,0,1.951-1.455l1.67,1.74A9.16,9.16,0,0,1-56.888-.215,7.391,7.391,0,0,1-59.8.325a6.7,6.7,0,0,1-4.935-1.912,6.618,6.618,0,0,1-1.92-4.9,6.706,6.706,0,0,1,.875-3.437,6.5,6.5,0,0,1,2.5-2.417,7.064,7.064,0,0,1,3.511-.914,7.332,7.332,0,0,1,3.081.677A7.368,7.368,0,0,1-54.128-10.652Zm10.062-2.6a6.414,6.414,0,0,1,4.715,1.986,6.612,6.612,0,0,1,1.973,4.843,6.538,6.538,0,0,1-1.947,4.79A6.411,6.411,0,0,1-44.049.325a6.409,6.409,0,0,1-4.834-2.013,6.682,6.682,0,0,1-1.925-4.781,6.71,6.71,0,0,1,.9-3.41,6.636,6.636,0,0,1,2.465-2.465A6.624,6.624,0,0,1-44.067-13.254Zm-.026,2.408A4.052,4.052,0,0,0-47.108-9.6a4.348,4.348,0,0,0-1.222,3.173,4.137,4.137,0,0,0,1.538,3.393,4.214,4.214,0,0,0,2.742.976A4,4,0,0,0-41.07-3.322a4.3,4.3,0,0,0,1.23-3.12,4.321,4.321,0,0,0-1.239-3.125A4.04,4.04,0,0,0-44.093-10.846Zm10.844-2.083h2.355l5.546,8.508v-8.508h2.461V0h-2.364l-5.537-8.481V0h-2.461ZM-6.26-10.652-7.982-9.009a5.338,5.338,0,0,0-3.955-1.854A4.254,4.254,0,0,0-15.062-9.6a4.232,4.232,0,0,0-1.27,3.12,4.605,4.605,0,0,0,.563,2.294A4.028,4.028,0,0,0-14.179-2.61a4.625,4.625,0,0,0,2.285.571,4.717,4.717,0,0,0,1.96-.4A7.022,7.022,0,0,0-7.982-3.894l1.67,1.74A9.16,9.16,0,0,1-9.019-.215a7.391,7.391,0,0,1-2.909.541,6.7,6.7,0,0,1-4.935-1.912,6.618,6.618,0,0,1-1.92-4.9,6.706,6.706,0,0,1,.875-3.437,6.5,6.5,0,0,1,2.5-2.417,7.064,7.064,0,0,1,3.511-.914,7.332,7.332,0,0,1,3.081.677A7.368,7.368,0,0,1-6.26-10.652Zm3.953-2.276H.155V-2.347H3.741V0H-2.306Zm9.631,0h2.47v8.367a4.341,4.341,0,0,0,.189,1.529,1.523,1.523,0,0,0,.624.716,1.964,1.964,0,0,0,1.05.268,2.045,2.045,0,0,0,1.121-.3,1.574,1.574,0,0,0,.65-.76,5.651,5.651,0,0,0,.18-1.762v-8.06h2.47v7.708a11.18,11.18,0,0,1-.22,2.707,3.837,3.837,0,0,1-.839,1.459A3.9,3.9,0,0,1,13.591-.013a4.844,4.844,0,0,1-1.881.338A4.549,4.549,0,0,1,9.263-.321a3.758,3.758,0,0,1-1.49-1.617,8.538,8.538,0,0,1-.448-3.283Zm20.187,1.758L25.692-9.562A2.579,2.579,0,0,0,23.741-10.9a1.185,1.185,0,0,0-.791.259.755.755,0,0,0-.308.584,1,1,0,0,0,.22.615,16.7,16.7,0,0,0,1.8,1.661Q26.07-6.6,26.369-6.293a5.148,5.148,0,0,1,1.059,1.446A3.615,3.615,0,0,1,27.74-3.34a3.458,3.458,0,0,1-1.1,2.628A4,4,0,0,1,23.776.325a4.259,4.259,0,0,1-2.4-.677,5.344,5.344,0,0,1-1.753-2.127l2.065-1.248q.932,1.714,2.145,1.714a1.577,1.577,0,0,0,1.063-.369,1.1,1.1,0,0,0,.431-.853A1.473,1.473,0,0,0,25-4.113a9.386,9.386,0,0,0-1.433-1.345,14.464,14.464,0,0,1-2.725-2.659,3.381,3.381,0,0,1-.615-1.868,3.056,3.056,0,0,1,1.024-2.307,3.549,3.549,0,0,1,2.527-.962,3.983,3.983,0,0,1,1.841.448A6.709,6.709,0,0,1,27.512-11.171Zm4.208-1.758h2.443V0H31.72Zm13.12-.325a6.414,6.414,0,0,1,4.715,1.986,6.612,6.612,0,0,1,1.973,4.843,6.538,6.538,0,0,1-1.947,4.79A6.411,6.411,0,0,1,44.858.325a6.409,6.409,0,0,1-4.834-2.013A6.682,6.682,0,0,1,38.1-6.469a6.71,6.71,0,0,1,.9-3.41,6.636,6.636,0,0,1,2.465-2.465A6.624,6.624,0,0,1,44.84-13.254Zm-.026,2.408A4.052,4.052,0,0,0,41.8-9.6a4.348,4.348,0,0,0-1.222,3.173,4.137,4.137,0,0,0,1.538,3.393,4.214,4.214,0,0,0,2.742.976,4,4,0,0,0,2.979-1.266,4.3,4.3,0,0,0,1.23-3.12,4.321,4.321,0,0,0-1.239-3.125A4.04,4.04,0,0,0,44.814-10.846Zm10.844-2.083h2.355l5.546,8.508v-8.508H66.02V0H63.656L58.119-8.481V0H55.658Z" transform="translate(4470.485 -1262)"/>
  </g>
</svg>
