<svg xmlns="http://www.w3.org/2000/svg" viewBox="0 0 92.064 64.071">
  <defs>
    <style>
      .cls-1 {
        fill: #3892fb;
      }

      .cls-2 {
        fill: #8ec2ff;
      }

      .cls-3 {
        fill: #fff;
      }
    </style>
  </defs>
  <g id="Group_34498" data-name="Group 34498" transform="translate(0 0.025)">
    <path id="Path_123953" data-name="Path 123953" class="cls-1" d="M92.064,60.277,92.02,71.116v.4a3.348,3.348,0,0,1-.044.664c0,.177-.044.31-.044.487a.561.561,0,0,1-.044.265.4.4,0,0,1-.044.221c0,.177-.044.31-.044.442a.163.163,0,0,1-.044.133,1.292,1.292,0,0,1-.088.4c0,.044,0,.088-.044.088v.044c-.088.4-.177.8-.31,1.239l-.4,1.194a21.225,21.225,0,0,1-1.15,2.522c0,.044-.044.044-.044.088-.044.088-.133.221-.177.31l-.133.265a1.923,1.923,0,0,0-.177.31,3.893,3.893,0,0,0-.265.442c-.044.044-.088.133-.133.177a4.635,4.635,0,0,1-.354.487c-.044.044-.044.088-.088.133a3.341,3.341,0,0,1-.487.619c-.088.088-.177.221-.265.31a6.8,6.8,0,0,1-.752.841c-.133.133-.221.265-.354.4-.4.442-.8.841-1.239,1.283l-.265.265c-.4.4-.841.752-1.283,1.15-.442.354-.929.752-1.416,1.106a6.327,6.327,0,0,1-.664.487c-.708.487-1.46,1.018-2.256,1.5a.23.23,0,0,1-.177.088c-.177.088-.354.221-.575.354-.354.221-.752.442-1.106.619a.137.137,0,0,1-.088.044c-.354.221-.752.4-1.106.575h0c-.354.177-.752.354-1.106.531-.133.044-.221.133-.354.177-.265.133-.531.221-.752.354-.133.044-.265.133-.4.177-.265.133-.575.221-.841.354-.133.044-.265.133-.4.177-.044,0-.044.044-.088.044l-1.062.4c-.442.177-.841.31-1.283.487-.044,0-.044.044-.088.044-.442.133-.841.31-1.283.442-.664.221-1.327.442-2.035.619-.31.088-.619.177-.885.265-.177.044-.354.088-.487.133-.265.088-.575.133-.841.221-.354.088-.708.177-1.106.265a8.367,8.367,0,0,1-1.018.221c-.088,0-.133.044-.221.044a7.5,7.5,0,0,1-.973.177c-.354.088-.752.133-1.106.221-.487.088-.929.177-1.416.221-.088,0-.177.044-.265.044a11.926,11.926,0,0,1-1.239.177c-.531.088-1.062.133-1.637.221-.442.044-.841.088-1.283.133h-.177c-.8.088-1.593.133-2.433.177a8.523,8.523,0,0,1-1.062.044c-.221,0-.4.044-.619.044-.31,0-.619.044-.885.044H48.93a10.78,10.78,0,0,0-1.194.044H44.329a3.805,3.805,0,0,1-.708-.044c-.575,0-1.15-.044-1.725-.088l-2.124-.133c-.4-.044-.752-.044-1.106-.088h-.044c-.664-.088-1.327-.133-2.035-.221a.864.864,0,0,1-.31-.044c-.31-.044-.664-.088-.973-.133a8.861,8.861,0,0,1-1.062-.177h-.088c-.752-.133-1.46-.221-2.168-.354-.4-.088-.8-.177-1.239-.265-.265-.044-.531-.133-.8-.177a4.142,4.142,0,0,1-.708-.177,8.6,8.6,0,0,1-.885-.221h-.044l-1.062-.265c-.221-.044-.487-.133-.708-.177a3.259,3.259,0,0,1-.619-.177h-.044c-.4-.088-.752-.221-1.106-.31a1.585,1.585,0,0,1-.487-.177,6.876,6.876,0,0,1-1.018-.354c-.442-.133-.885-.31-1.327-.442a5.909,5.909,0,0,1-.8-.31.639.639,0,0,0-.31-.088c-.177-.044-.31-.133-.487-.177-.133-.044-.221-.088-.354-.133-.265-.088-.531-.221-.8-.31-.4-.133-.752-.31-1.15-.487-.31-.133-.575-.265-.885-.4a5.5,5.5,0,0,1-.885-.442,4.044,4.044,0,0,1-.619-.31,4.114,4.114,0,0,0-.442-.221c-.531-.265-1.062-.575-1.593-.885C4.513,84.609,0,77.708,0,70.85L.044,60.1c0,6.857,4.513,13.714,13.582,18.935.531.31,1.062.575,1.593.885a4.111,4.111,0,0,0,.442.221c.177.088.4.221.619.31.31.133.619.31.885.442s.575.265.885.4c.044,0,.044.044.088.044a6.806,6.806,0,0,0,.841.354l.929.4.4.133c.044,0,.088.044.177.044.354.133.752.31,1.15.442a.137.137,0,0,1,.088.044c.4.133.752.265,1.15.4a2.156,2.156,0,0,1,.487.177c.354.133.664.221,1.018.354.044,0,.088.044.177.044l1.327.4h.044c.4.088.8.221,1.194.31s.8.221,1.194.31h.044c.265.088.575.133.885.221a4.143,4.143,0,0,1,.708.177c.265.044.531.133.8.177,1.5.31,3.008.575,4.557.8h.044c.708.088,1.46.177,2.168.265.752.088,1.5.177,2.256.221.4.044.752.044,1.106.088q1.593.133,3.185.133c.708.044,1.46.044,2.168.044h1.106a9.248,9.248,0,0,0,1.106-.044c.354-.044.752,0,1.106-.044.354,0,.708-.044,1.062-.044h.133c.354,0,.664-.044,1.018-.044.8-.044,1.548-.133,2.3-.177h.044c.442-.044.841-.088,1.239-.133.531-.044,1.106-.133,1.637-.221.487-.044.929-.133,1.416-.221.088,0,.177-.044.265-.044.354-.044.708-.133,1.062-.177a.266.266,0,0,0,.177-.044.334.334,0,0,0,.177-.044l.8-.133c.221-.044.487-.088.708-.133a7.07,7.07,0,0,0,.929-.221c1.371-.31,2.7-.619,4.026-1.018.265-.088.575-.177.841-.265.442-.133.841-.265,1.283-.4.088-.044.177-.044.265-.088a9.264,9.264,0,0,0,1.018-.354c.044,0,.044-.044.088-.044.442-.133.841-.31,1.283-.487l1.062-.4c.044,0,.044-.044.088-.044l.664-.265a1.571,1.571,0,0,0,.4-.177c.221-.088.442-.177.619-.265.31-.133.664-.31.973-.442a.154.154,0,0,0,.088-.044c.354-.177.752-.354,1.106-.531h0c.4-.177.752-.4,1.106-.575a.154.154,0,0,0,.088-.044c.4-.221.752-.4,1.106-.619a4.04,4.04,0,0,0,.575-.354,21.979,21.979,0,0,0,1.991-1.283c.177-.133.4-.265.575-.4.221-.177.487-.354.708-.531.442-.31.841-.664,1.239-.973a7.7,7.7,0,0,0,.664-.575,3.82,3.82,0,0,0,.619-.575c.133-.088.221-.221.354-.31.4-.4.8-.8,1.15-1.194.133-.133.221-.265.354-.4a9.267,9.267,0,0,0,.619-.752c0-.044.044-.044.044-.088.088-.133.177-.221.265-.354.177-.221.31-.4.487-.619.044-.044.088-.088.088-.133l.265-.4.265-.4c.044-.044.088-.133.133-.177.088-.177.221-.31.31-.487s.221-.354.31-.531a20.06,20.06,0,0,0,1.239-2.61l.4-1.194c.044-.133.088-.31.133-.442a1.572,1.572,0,0,0,.088-.442,1.881,1.881,0,0,0,.088-.487h0a2.22,2.22,0,0,0,.088-.531,1.5,1.5,0,0,0,.044-.442.266.266,0,0,1,.044-.177c0-.088.044-.221.044-.31,0-.133.044-.31.044-.442,0-.221.044-.442.044-.619v-.044A.806.806,0,0,0,92.064,60.277Z" transform="translate(0 -33.526)"/>
    <path id="Path_123954" data-name="Path 123954" class="cls-2" d="M78.738,45.465c-17.917,10.4-47.027,10.4-65.077,0s-18.138-27.3-.221-37.693,47.027-10.4,65.077,0C96.523,18.213,96.611,35.069,78.738,45.465Z" transform="translate(-0.035 0)"/>
    <g id="Group_34497" data-name="Group 34497" transform="translate(14.106 3.652)">
      <g id="Group_34495" data-name="Group 34495" transform="translate(0.007 3.102)">
        <g id="Group_34494" data-name="Group 34494">
          <path id="Path_123955" data-name="Path 123955" class="cls-1" d="M173.154,49.1a2.468,2.468,0,0,1-.354.221C172.933,49.233,173.021,49.188,173.154,49.1Z" transform="translate(-110.465 -34.147)"/>
          <path id="Path_123956" data-name="Path 123956" class="cls-1" d="M173.2,62.165c.133-.088.221-.177.354-.265C173.421,61.988,173.333,62.077,173.2,62.165Z" transform="translate(-110.689 -41.284)"/>
          <path id="Path_123957" data-name="Path 123957" class="cls-1" d="M174.988,60.688c0-.044.044-.044.044-.088l-.133.133C174.944,60.733,174.944,60.733,174.988,60.688Z" transform="translate(-111.636 -40.559)"/>
          <path id="Path_123958" data-name="Path 123958" class="cls-1" d="M175.575,46.844h0a.043.043,0,0,1,.044-.044A.043.043,0,0,0,175.575,46.844Z" transform="translate(-112.002 -32.864)"/>
          <path id="Path_123959" data-name="Path 123959" class="cls-1" d="M175.9,46.144h0v0Z" transform="translate(-112.194 -32.474)"/>
          <path id="Path_123960" data-name="Path 123960" class="cls-1" d="M176.1,45.444h0v0Z" transform="translate(-112.306 -32.084)"/>
          <path id="Path_123961" data-name="Path 123961" class="cls-1" d="M176.2,44.7v0Z" transform="translate(-112.361 -31.693)"/>
          <g id="Group_34491" data-name="Group 34491" transform="translate(63.839 13.007)">
            <path id="Path_123962" data-name="Path 123962" class="cls-1" d="M176.2,44.788V44.7" transform="translate(-176.2 -44.7)"/>
          </g>
          <g id="Group_34492" data-name="Group 34492">
            <path id="Path_123963" data-name="Path 123963" class="cls-1" d="M95.739,44.9v5.928h0v.133a.163.163,0,0,1-.044.133h0a.163.163,0,0,1-.044.133v.044h0a.154.154,0,0,1-.044.088V51.4c0,.044-.044.088-.088.133,0,.044-.044.044-.044.088s-.044.044-.044.088-.044.044-.044.088-.044.044-.044.088a.154.154,0,0,0-.044.088l-.133.133c0,.044-.044.044-.088.088l-.088.088-.133.133a2.454,2.454,0,0,1-.354.265c-.044.044-.133.088-.177.133h0L64.461,70.692a.925.925,0,0,0-.265.177h0L63.93,71h-.044l-.265.133c-.088.044-.221.088-.31.133a2.817,2.817,0,0,1-.31.088c-.044,0-.133.044-.177.044H62.78c-.088,0-.177.044-.265.044s-.177.044-.265.044-.221.044-.31.044h-.133c-.088,0-.177.044-.265.044-.177,0-.4.044-.575.044h-.575a2.154,2.154,0,0,1-.531-.044c-.177,0-.354-.044-.531-.044-.177-.044-.354-.044-.531-.088s-.4-.088-.575-.133c-.133-.044-.221-.088-.354-.133-.088-.044-.177-.044-.221-.088h-.221c-.088-.044-.133-.044-.221-.088s-.133-.044-.221-.088-.133-.088-.177-.088l-23.27-13.1A2.684,2.684,0,0,1,31.9,55.473v-5.8a2.83,2.83,0,0,0,1.637,2.256L56.719,64.985c.044.044.088.044.133.088.044,0,.088.044.133.088a1.849,1.849,0,0,0,.442.177.629.629,0,0,0,.265.088c.044,0,.044,0,.088.044a2.823,2.823,0,0,0,.31.088c.088.044.177.044.265.088a1.916,1.916,0,0,1,.221.044h.044a2.221,2.221,0,0,0,.531.088c.088,0,.177.044.265.044h.265c.177,0,.354.044.531.044H61.1a.864.864,0,0,0,.31-.044h.177a.266.266,0,0,0,.177-.044c.133,0,.221-.044.354-.044.088,0,.221-.044.31-.044h0c.088,0,.133-.044.177-.044a.629.629,0,0,0,.265-.088c.088-.044.177-.044.265-.088h.044a.23.23,0,0,0,.177-.088c.044,0,.088-.044.133-.044.088-.044.221-.088.31-.133s.133-.044.221-.088c.044,0,.044-.044.088-.044l.265-.133L94.235,47.068h0c.133-.088.221-.133.354-.221a.611.611,0,0,1,.177-.133c.044-.044.088-.044.088-.088.044,0,.044-.044.088-.044l.088-.088.133-.133c.044-.044.088-.088.088-.133a1.872,1.872,0,0,0,.221-.31h0a.043.043,0,0,1,.044-.044.163.163,0,0,0,.044-.133c0-.044.044-.044.044-.088v-.088c0-.044.044-.044.044-.088h0c0-.044,0-.088.044-.088v-.265h0A1.241,1.241,0,0,0,95.739,44.9Z" transform="translate(-31.9 -31.805)"/>
            <path id="Path_123964" data-name="Path 123964" class="cls-1" d="M68.6,35.474,44,38.969v-5.8l24.642-3.539L73.906,15.3l3.849,2.168v5.8L73.862,21.1Z" transform="translate(-38.647 -15.3)"/>
          </g>
          <g id="Group_34493" data-name="Group 34493" transform="translate(25.538 39.285)">
            <path id="Path_123965" data-name="Path 123965" class="cls-1" d="M89.7,104.1Z" transform="translate(-89.667 -104.1)"/>
            <path id="Path_123966" data-name="Path 123966" class="cls-1" d="M89.658,104.1Z" transform="translate(-89.625 -104.1)"/>
          </g>
        </g>
      </g>
      <g id="Group_34496" data-name="Group 34496">
        <path id="Path_123967" data-name="Path 123967" class="cls-3" d="M63.258,9.222a8.387,8.387,0,0,1,7.609-.044L94.093,22.184c2.124,1.194,2.168,3.185.133,4.424L64.32,44.437a8.387,8.387,0,0,1-7.609.044L33.529,31.475c-2.124-1.194-2.212-3.185-.133-4.38ZM71,13.558,67.151,11.39,61.887,25.724,37.245,29.263l3.849,2.168,24.6-3.495L71,13.558Z" transform="translate(-31.885 -8.287)"/>
      </g>
    </g>
  </g>
</svg>
