<svg xmlns="http://www.w3.org/2000/svg" viewBox="0 0 306 306">
  <defs>
    <style>
      .cls-1 {
        fill: none;
      }

      .cls-2 {
        fill: #2b0b04;
      }

      .cls-3 {
        fill: #304a95;
      }

      .cls-4 {
        fill: #0e2b4a;
      }

      .cls-5 {
        fill: #f9cfb3;
      }

      .cls-6 {
        fill: #dba783;
      }

      .cls-7 {
        fill: #f7f9fd;
      }

      .cls-8 {
        fill: #e8b795;
      }

      .cls-9 {
        fill: #181d1f;
      }

      .cls-10 {
        fill: #31393d;
      }

      .cls-11 {
        fill: #a02b61;
      }

      .cls-12 {
        fill: #c9457b;
      }
    </style>
  </defs>
  <g id="Group_34617" data-name="Group 34617" transform="translate(-8821 -3912)">
    <rect id="Rectangle_1199" data-name="Rectangle 1199" class="cls-1" width="306" height="306" transform="translate(8821 3912)"/>
    <g id="Group_34612" data-name="Group 34612" transform="translate(8926 3935.17)">
      <g id="Group_10853" data-name="Group 10853">
        <g id="Group_10836" data-name="Group 10836" transform="translate(31.752 57.4)">
          <g id="Group_10815" data-name="Group 10815" transform="translate(7.048 79.924)">
            <g id="Group_10813" data-name="Group 10813">
              <path id="Path_37345" data-name="Path 37345" class="cls-2" d="M28.88,100.313A6.027,6.027,0,0,1,34.692,94.5h.145a5.956,5.956,0,0,1,5.813,5.958l-2.18,103.175a.686.686,0,0,1-.727.727H27.427a1.1,1.1,0,0,1-.581-.291c-.145-.145-.145-.291-.145-.581Z" transform="translate(-26.7 -94.5)"/>
            </g>
            <g id="Group_10814" data-name="Group 10814" transform="translate(1.308 110.005)">
              <path id="Path_37346" data-name="Path 37346" class="cls-3" d="M36.464,174.7a4.372,4.372,0,0,1-4.36,4.36H31.96a4.4,4.4,0,0,1-4.36-4.5l.145-4.36H36.61Z" transform="translate(-27.6 -170.2)"/>
            </g>
          </g>
          <g id="Group_10816" data-name="Group 10816" transform="translate(0 191.383)">
            <path id="Path_37347" data-name="Path 37347" class="cls-4" d="M22.068,180.5a2.156,2.156,0,0,1,0-1.889,13.3,13.3,0,0,1,8.138-7.411c3.778,0,3.924,4.65,6.539,4.65a2.783,2.783,0,0,0,2.18-.872c.145-.145.291-.291.436-.145.145,0,.291.145.436.291a19.359,19.359,0,0,1,.727,2.761,3.507,3.507,0,0,1-.581,2.47,2.722,2.722,0,0,1-2.034,1.163H23.521A2.1,2.1,0,0,1,22.068,180.5Z" transform="translate(-21.85 -171.2)"/>
          </g>
          <g id="Group_10819" data-name="Group 10819" transform="translate(33.641 79.924)">
            <g id="Group_10817" data-name="Group 10817">
              <path id="Path_37348" data-name="Path 37348" class="cls-2" d="M50.813,94.5h0a5.862,5.862,0,0,1,5.958,5.813l2.18,103.466a.874.874,0,0,1-.145.581.755.755,0,0,1-.581.291H47.906a.686.686,0,0,1-.727-.727L45,100.749A6.122,6.122,0,0,1,50.813,94.5Z" transform="translate(-45 -94.5)"/>
            </g>
            <g id="Group_10818" data-name="Group 10818" transform="translate(3.633 110.005)">
              <path id="Path_37349" data-name="Path 37349" class="cls-3" d="M56.51,174.56a4.4,4.4,0,0,1-4.36,4.5H52a4.372,4.372,0,0,1-4.36-4.36l-.145-4.5h8.864Z" transform="translate(-47.5 -170.2)"/>
            </g>
          </g>
          <g id="Group_10820" data-name="Group 10820" transform="translate(35.928 191.383)">
            <path id="Path_37350" data-name="Path 37350" class="cls-4" d="M65.067,180.5a2.156,2.156,0,0,0,0-1.889,13.3,13.3,0,0,0-8.138-7.411c-3.778,0-3.924,4.65-6.539,4.65a2.783,2.783,0,0,1-2.18-.872c-.145-.145-.291-.291-.436-.145-.145,0-.291.145-.436.291a19.36,19.36,0,0,0-.727,2.761,3.507,3.507,0,0,0,.581,2.47,2.722,2.722,0,0,0,2.034,1.163H63.469A2.1,2.1,0,0,0,65.067,180.5Z" transform="translate(-46.574 -171.2)"/>
          </g>
          <g id="Group_10823" data-name="Group 10823" transform="translate(21.58)">
            <g id="Group_10821" data-name="Group 10821">
              <path id="Path_37351" data-name="Path 37351" class="cls-5" d="M42.513,63.913A5.83,5.83,0,0,0,48.325,58.1V45.313a5.813,5.813,0,1,0-11.625,0V58.1A5.83,5.83,0,0,0,42.513,63.913Z" transform="translate(-36.7 -39.5)"/>
            </g>
            <g id="Group_10822" data-name="Group 10822">
              <path id="Path_37352" data-name="Path 37352" class="cls-6" d="M42.513,39.5a5.83,5.83,0,0,1,5.813,5.813v3.342a15.113,15.113,0,0,1-11.625,0V45.313A5.83,5.83,0,0,1,42.513,39.5Z" transform="translate(-36.7 -39.5)"/>
            </g>
          </g>
          <g id="Group_10835" data-name="Group 10835" transform="translate(0.962 10.899)">
            <g id="Group_10824" data-name="Group 10824" transform="translate(11.026 70.624)">
              <path id="Path_37353" data-name="Path 37353" class="cls-2" d="M45.5,95.6c0,4.941,2.18,9.01,8.864,9.01H61.2c-.145.145-.145.145-.145.291-2.616,2.761-7.556,4.069-15.4,4.069s-12.643-1.308-15.4-4.069c-.145-.145-.145-.145-.145-.291h6.83C43.179,104.61,45.5,100.541,45.5,95.6Z" transform="translate(-30.1 -95.6)"/>
            </g>
            <g id="Group_10825" data-name="Group 10825" transform="translate(7.532 60.161)">
              <path id="Path_37354" data-name="Path 37354" class="cls-3" d="M34.823,88.4a1.123,1.123,0,0,1,1.163,1.017v1.744a4.158,4.158,0,0,1-4.069,4.069H27.7a19.07,19.07,0,0,1,.872-6.83h6.249Z" transform="translate(-27.695 -88.4)"/>
            </g>
            <g id="Group_10826" data-name="Group 10826" transform="translate(36.893 60.161)">
              <path id="Path_37355" data-name="Path 37355" class="cls-3" d="M47.9,91.161V89.417A.993.993,0,0,1,48.917,88.4h6.1a19.07,19.07,0,0,1,.872,6.83H51.678A4.013,4.013,0,0,1,47.9,91.161Z" transform="translate(-47.9 -88.4)"/>
            </g>
            <g id="Group_10827" data-name="Group 10827" transform="translate(26.285 0.436)">
              <path id="Path_37356" data-name="Path 37356" class="cls-7" d="M46.413,53.549l-1.453,1.6a1.11,1.11,0,0,1-.727.291.755.755,0,0,1-.581-.291L43.07,54.13,40.6,49.916c3.052,0,5.667-1.163,5.813-2.616v5.231C46.413,52.822,46.413,53.258,46.413,53.549Z" transform="translate(-40.6 -47.3)"/>
            </g>
            <g id="Group_10828" data-name="Group 10828" transform="translate(20.472 0.145)">
              <path id="Path_37357" data-name="Path 37357" class="cls-7" d="M39.361,55.092a.755.755,0,0,1-.581.291c-.291,0-.436-.145-.727-.291l-1.453-1.6V47.1c0,1.453,2.616,2.761,5.813,2.761l-2.47,4.214Z" transform="translate(-36.6 -47.1)"/>
            </g>
            <g id="Group_10829" data-name="Group 10829" transform="translate(27.738 6.539)">
              <path id="Path_37358" data-name="Path 37358" class="cls-7" d="M41.6,54.552a2.8,2.8,0,0,1,.436-1.453l.727-1.017.581,1.017a.755.755,0,0,0,.581.291c.291,0,.436-.145.727-.291L46.1,51.5v4.65A68.3,68.3,0,0,1,43.2,73.3L41.891,56.15Z" transform="translate(-41.6 -51.5)"/>
            </g>
            <g id="Group_10830" data-name="Group 10830" transform="translate(20.617 6.685)">
              <path id="Path_37359" data-name="Path 37359" class="cls-7" d="M36.7,53.489V51.6l1.453,1.6a1.11,1.11,0,0,0,.727.291.755.755,0,0,0,.581-.291l.581-1.017.727,1.017a2.455,2.455,0,0,1,.436,1.453L41.06,56.4l-1.308,17a67.012,67.012,0,0,1-2.906-17A20.467,20.467,0,0,1,36.7,53.489Z" transform="translate(-36.7 -51.6)"/>
            </g>
            <g id="Group_10831" data-name="Group 10831" transform="translate(0 0.291)">
              <path id="Path_37360" data-name="Path 37360" class="cls-4" d="M24.093,51.414a12.025,12.025,0,0,1,7.992-3.633l5.958-.581h0l-1.163,3.342a1.068,1.068,0,0,0,.581,1.163l2.906,1.453-2.47.727a1.334,1.334,0,0,0-.872.581.926.926,0,0,0,0,.872l1.163,2.906L45.6,75.973a49.671,49.671,0,0,0,3.052,6.249l.145.291h0l.145-.291a49.67,49.67,0,0,0,3.052-6.249L59.4,58.244l1.163-2.906a.926.926,0,0,0,0-.872.981.981,0,0,0-.872-.581l-2.47-.727L60.132,51.7a.915.915,0,0,0,.581-1.163L59.55,47.2h0l5.958.581A11.132,11.132,0,0,1,73.5,51.414a5.528,5.528,0,0,1-.145,7.847h0A8.8,8.8,0,0,0,71.03,63.33c0,.145-.145.436-.145.581-1.453,6.249-2.906,11.916-4.214,16.857-.291,1.308-.727,2.616-1.017,3.924a38.207,38.207,0,0,0,.872,22.088c0,.145,0,.145.145.291h-6.1a.993.993,0,0,0-1.017,1.017v1.744a4.158,4.158,0,0,0,4.069,4.069h4.214c0,.872-.145-.727,1.453,10.9,0,1.017-1.017,1.744-2.325,1.744H57.516c-6.539,0-8.864-4.069-8.864-9.01,0,4.941-2.18,9.01-8.864,9.01H30.632c-1.308,0-2.325-.727-2.325-1.744,1.6-11.625,1.453-10.027,1.453-10.9h4.214a4.158,4.158,0,0,0,4.069-4.069v-1.744a1.036,1.036,0,0,0-1.163-1.017h-6.1c0-.145,0-.145.145-.291a38.16,38.16,0,0,0,.872-22.088s-.727-2.47-1.017-3.924c-1.308-4.941-2.761-10.608-4.214-16.857,0-.145-.145-.436-.145-.581a7.2,7.2,0,0,0-2.325-4.069A5.66,5.66,0,0,1,24.093,51.414Z" transform="translate(-22.512 -47.2)"/>
            </g>
            <g id="Group_10832" data-name="Group 10832" transform="translate(14.316)">
              <path id="Path_37361" data-name="Path 37361" class="cls-3" d="M38.665,53.685v4.65a67.012,67.012,0,0,0,2.906,17A46.953,46.953,0,0,0,44.332,82.6l-.145-.291a49.67,49.67,0,0,1-3.052-6.249L33.724,58.335l-1.163-2.906a.926.926,0,0,1,0-.872.981.981,0,0,1,.872-.581l2.47-.727L33,51.8a.915.915,0,0,1-.581-1.163l1.163-3.342a14.1,14.1,0,0,1,2.47-.145c.872,0,1.6-.145,2.47-.145v.145h0v5.377A3.612,3.612,0,0,1,38.665,53.685Z" transform="translate(-32.364 -47)"/>
            </g>
            <g id="Group_10833" data-name="Group 10833" transform="translate(26.43 0.145)">
              <path id="Path_37362" data-name="Path 37362" class="cls-3" d="M52.035,51.9l-2.906,1.453,2.47.727a1.334,1.334,0,0,1,.872.581.926.926,0,0,1,0,.872l-1.163,2.906L43.9,76.163a49.671,49.671,0,0,1-3.052,6.249L40.7,82.7a46.953,46.953,0,0,0,2.761-7.266,67.1,67.1,0,0,0,2.906-17.147V47.245h0V47.1h0c.872,0,1.744.145,2.47.145.872,0,1.6.145,2.47.145l1.163,3.342A.8.8,0,0,1,52.035,51.9Z" transform="translate(-40.7 -47.1)"/>
            </g>
            <g id="Group_10834" data-name="Group 10834" transform="translate(23.524 3.197)">
              <path id="Path_37363" data-name="Path 37363" class="cls-3" d="M43.2,54.286h0a2.455,2.455,0,0,0-.436,1.453h0l.145,1.744L44.222,74.63A46.955,46.955,0,0,1,41.461,81.9h0A46.956,46.956,0,0,1,38.7,74.63l1.308-17,.145-1.744h0a2.8,2.8,0,0,0-.436-1.453h0l-.727-1.017,2.47-4.214h0l2.47,4.214Z" transform="translate(-38.7 -49.2)"/>
            </g>
          </g>
        </g>
        <g id="Group_10847" data-name="Group 10847" transform="translate(40.707 20.344)">
          <g id="Group_10840" data-name="Group 10840" transform="translate(0 4.214)">
            <g id="Group_10837" data-name="Group 10837" transform="translate(0 18.575)">
              <path id="Path_37364" data-name="Path 37364" class="cls-8" d="M29.738,29.708c1.308-.291,2.906,1.889,3.342,4.8.581,2.906-.145,5.377-1.6,5.667-1.308.291-2.906-1.889-3.342-4.8C27.7,32.614,28.43,30,29.738,29.708Z" transform="translate(-28.013 -29.682)"/>
            </g>
            <g id="Group_10838" data-name="Group 10838" transform="translate(31.46 18.575)">
              <path id="Path_37365" data-name="Path 37365" class="cls-8" d="M53.2,29.708C51.9,29.417,50.3,31.6,49.863,34.5c-.581,2.906.145,5.377,1.6,5.667,1.308.291,2.906-1.889,3.342-4.8C55.239,32.614,54.513,30,53.2,29.708Z" transform="translate(-49.662 -29.682)"/>
            </g>
            <g id="Group_10839" data-name="Group 10839" transform="translate(2.161)">
              <path id="Path_37366" data-name="Path 37366" class="cls-5" d="M45.776,16.9c13.079,0,16.276,9.155,16.276,20.49s-7.266,20.49-16.276,20.49S29.5,48.724,29.5,37.39,32.7,16.9,45.776,16.9Z" transform="translate(-29.5 -16.9)"/>
            </g>
          </g>
          <g id="Group_10846" data-name="Group 10846" transform="translate(0.563)">
            <g id="Group_10841" data-name="Group 10841" transform="translate(24.935 5.936)">
              <path id="Path_37367" data-name="Path 37367" class="cls-9" d="M49.251,18.107c3.052-.291,7.556,2.325,7.556,8.719s-2.18,5.813-2.034,7.556c0,1.6.581,6.249-.727,9.446a.7.7,0,0,1-.872.291h0c-.291-.145-.291-.436-.291-.727A14.613,14.613,0,0,0,53.9,38.161c0-3.488-2.325-5.958-2.325-6.975S52.3,29.3,52.3,28.86s-1.163-1.017-1.744-1.744-.436-4.8-3.924-5.231S49.251,18.107,49.251,18.107Z" transform="translate(-45.559 -18.085)"/>
            </g>
            <g id="Group_10842" data-name="Group 10842">
              <path id="Path_37368" data-name="Path 37368" class="cls-9" d="M33.922,18.214C38.136,16.18,39.3,14,44.676,14c8.864,0,13.805,3.488,13.514,6.249-.291,2.47-4.069,3.342-11.48,3.342-9.3,0-12.061,2.47-13.079,4.8-.727,1.6,0,1.889-.145,3.778-.145,2.18-1.744,2.18-2.325,4.36a13.084,13.084,0,0,0-.436,3.633,12.5,12.5,0,0,0,1.017,5.231.531.531,0,0,1-.291.727h0a.583.583,0,0,1-.872-.291c-1.163-2.761-.727-6.685-1.163-9.446A71.6,71.6,0,0,1,28.4,26.788,9.867,9.867,0,0,1,33.922,18.214Z" transform="translate(-28.4 -14)"/>
            </g>
            <g id="Group_10843" data-name="Group 10843" transform="translate(30.953 16.711)">
              <path id="Path_37369" data-name="Path 37369" class="cls-10" d="M49.7,27.97c0-1.017.727-1.889.727-2.325V25.5c.291.436,2.906,3.924,2.616,5.231v.436c0,1.6.581,6.249-.727,9.446a.7.7,0,0,1-.872.291h0c-.291-.145-.291-.436-.291-.727a14.613,14.613,0,0,0,1.017-5.231C52.025,31.458,49.7,28.988,49.7,27.97Z" transform="translate(-49.7 -25.5)"/>
            </g>
            <g id="Group_10844" data-name="Group 10844" transform="translate(0.581 15.549)">
              <path id="Path_37370" data-name="Path 37370" class="cls-10" d="M31.27,41.266h0a.583.583,0,0,1-.872-.291c-1.163-2.761-.727-6.685-1.163-9.446Q29.018,30,28.8,28.042c1.163-1.017,4.214-1.308,4.36-3.342a9.678,9.678,0,0,1,.145,2.325c-.145,2.18-1.744,2.18-2.325,4.36a17.087,17.087,0,0,0-.436,3.924,12.5,12.5,0,0,0,1.017,5.231C31.561,40.83,31.561,41.121,31.27,41.266Z" transform="translate(-28.8 -24.7)"/>
            </g>
            <g id="Group_10845" data-name="Group 10845" transform="translate(2.47 6.249)">
              <path id="Path_37371" data-name="Path 37371" class="cls-10" d="M57.42,18.3c0,2.18-4.8,6.539-11.189,6.539S35.041,19.463,30.1,21.933a6.751,6.751,0,0,1,4.36-2.18,14.354,14.354,0,0,0-2.761-.291s5.813-2.034,14.386,1.744c0,0-2.325-1.889-4.069-2.034a13.57,13.57,0,0,1,6.1.436C51.316,20.48,56.257,20.334,57.42,18.3Z" transform="translate(-30.1 -18.3)"/>
            </g>
          </g>
        </g>
        <g id="Group_10852" data-name="Group 10852">
          <g id="Group_10848" data-name="Group 10848" transform="translate(0.007)">
            <path id="Path_37372" data-name="Path 37372" class="cls-5" d="M6.973,9.3a1.068,1.068,0,0,0,.872-.291.879.879,0,0,0,.436-.872l.436-7.121C8.572.436,9.153,0,9.879,0a1.187,1.187,0,0,1,1.163,1.308L10.9,4.36a53.87,53.87,0,0,0,.291,8.428c.145,1.017,0,2.325.145,3.633,0,4.069-2.325,7.411-5.522,7.556C2.759,24.123.143,20.926.143,17,0,14.532-1.165,8.283,6.973,9.3Z" transform="translate(-0.005)"/>
          </g>
          <g id="Group_10849" data-name="Group 10849" transform="translate(2.18 15.404)">
            <path id="Path_37373" data-name="Path 37373" class="cls-5" d="M8.185,13.942A3.288,3.288,0,0,0,4.842,10.6,3.288,3.288,0,0,0,1.5,13.942v4.5H8.185Z" transform="translate(-1.5 -10.6)"/>
          </g>
          <g id="Group_10850" data-name="Group 10850" transform="translate(0 25.721)">
            <path id="Path_37374" data-name="Path 37374" class="cls-4" d="M9.01,58.389l28.046,16.13a6.011,6.011,0,0,0,2.761.727,5.434,5.434,0,0,0,4.8-2.761,5.654,5.654,0,0,0-2.034-7.556L14.532,48.8a6.835,6.835,0,0,1-3.342-5.813V18.427a.686.686,0,0,0-.727-.727H.727A.686.686,0,0,0,0,18.427V42.985A17.832,17.832,0,0,0,9.01,58.389Z" transform="translate(0 -17.7)"/>
          </g>
          <g id="Group_10851" data-name="Group 10851" transform="translate(1.163 23.251)">
            <path id="Path_37375" data-name="Path 37375" class="cls-7" d="M8.5,18.47H9.664V16.727A.686.686,0,0,0,8.938,16H1.527a.686.686,0,0,0-.727.727V18.47H8.5Z" transform="translate(-0.8 -16)"/>
          </g>
        </g>
      </g>
      <g id="Group_10858" data-name="Group 10858" transform="translate(17.293 128.46)">
        <g id="Group_10856" data-name="Group 10856" transform="translate(3.633 1.598)">
          <g id="Group_10854" data-name="Group 10854" transform="translate(0 2.034)">
            <rect id="Rectangle_107" data-name="Rectangle 107" class="cls-3" width="71.932" height="126.862"/>
          </g>
          <g id="Group_10855" data-name="Group 10855">
            <rect id="Rectangle_108" data-name="Rectangle 108" class="cls-11" width="71.932" height="12.207"/>
          </g>
        </g>
        <g id="Group_10857" data-name="Group 10857">
          <path id="Path_37376" data-name="Path 37376" class="cls-12" d="M13.934,88.4H89.063A2.293,2.293,0,0,1,91.1,90.87v1.163a2.293,2.293,0,0,1-2.034,2.47H13.934a2.293,2.293,0,0,1-2.034-2.47V90.87A2.206,2.206,0,0,1,13.934,88.4Z" transform="translate(-11.9 -88.4)"/>
        </g>
      </g>
      <g id="Group_10865" data-name="Group 10865" transform="translate(42.498 71.258)">
        <g id="Group_10861" data-name="Group 10861" transform="translate(0 47.036)">
          <g id="Group_10859" data-name="Group 10859" transform="translate(8.489 3.626)">
            <path id="Path_37377" data-name="Path 37377" class="cls-5" d="M37.431,85.208A3.355,3.355,0,0,0,39.465,91.6l4.36-1.453L41.79,83.9Z" transform="translate(-35.087 -83.9)"/>
          </g>
          <g id="Group_10860" data-name="Group 10860">
            <path id="Path_37378" data-name="Path 37378" class="cls-5" d="M29.761,85.467a1.413,1.413,0,0,0-.145,2.034,1.846,1.846,0,0,0,1.017.581c.145,0,.145,0,.291.145,0,.145.145.145.145.291a1.566,1.566,0,0,0,.291,1.163,1.846,1.846,0,0,0,1.017.581c.145,0,.145,0,.291.145,0,.145.145.145.145.291a1.566,1.566,0,0,0,.291,1.163,1.172,1.172,0,0,0,1.308.436c.145,0,.145,0,.291.145.145,0,.145.145.145.291a1.11,1.11,0,0,0,.291.727,1.413,1.413,0,0,0,2.034.145l.872-.727a.9.9,0,0,1,1.017-.145c2.034.581,3.778.436,4.8-.581,1.6-1.744.291-5.086-2.906-7.556C34.847,79.8,35.428,80.671,29.761,85.467Z" transform="translate(-29.245 -81.405)"/>
          </g>
        </g>
        <g id="Group_10864" data-name="Group 10864" transform="translate(15.138)">
          <g id="Group_10862" data-name="Group 10862" transform="translate(1.744)">
            <path id="Path_37379" data-name="Path 37379" class="cls-4" d="M76.52,83.714,66.638,52.907A5.561,5.561,0,1,0,56.03,56.249l9.882,30.807a1.475,1.475,0,0,1-1.017,1.889L41.353,96.5a.648.648,0,0,0-.436.872l.145.436.291,1.017,2.034,6.249.291,1.017.145.436a.648.648,0,0,0,.872.436l23.541-7.556A12.311,12.311,0,0,0,76.52,83.714Z" transform="translate(-40.862 -49.036)"/>
          </g>
          <g id="Group_10863" data-name="Group 10863" transform="translate(0 48.774)">
            <path id="Path_37380" data-name="Path 37380" class="cls-7" d="M42.042,83.617,41.751,82.6l-1.6.436a.648.648,0,0,0-.436.872l.145.436L41.9,90.592l.145.436a.648.648,0,0,0,.872.436l1.6-.581-.291-1.017Z" transform="translate(-39.663 -82.6)"/>
          </g>
        </g>
      </g>
    </g>
  </g>
</svg>
