<svg xmlns="http://www.w3.org/2000/svg" viewBox="0 0 505 432">
  <defs>
    <style>
      .cls-1 {
        fill: none;
      }

      .cls-2 {
        fill: #2b0b04;
      }

      .cls-3 {
        fill: #304a95;
      }

      .cls-4 {
        fill: #f9cfb3;
      }

      .cls-5 {
        fill: #dba783;
      }

      .cls-6 {
        fill: #f7f9fd;
      }

      .cls-7 {
        fill: #2b3572;
      }

      .cls-8 {
        fill: #e4eaf2;
      }

      .cls-9 {
        fill: #c9457b;
      }

      .cls-10 {
        fill: #2a336e;
      }

      .cls-11 {
        fill: #0e2b4a;
      }

      .cls-12 {
        fill: #e8b795;
      }

      .cls-13 {
        fill: #181d1f;
      }

      .cls-14 {
        fill: #a02b61;
      }

      .cls-15 {
        fill: #365eb3;
      }
    </style>
  </defs>
  <g id="Group_34645" data-name="Group 34645" transform="translate(-8284 -4728)">
    <g id="Group_34633" data-name="Group 34633">
      <rect id="Rectangle_1213" data-name="Rectangle 1213" class="cls-1" width="505" height="432" transform="translate(8284 4728)"/>
      <g id="Group_34627" data-name="Group 34627" transform="translate(8341.951 4807)">
        <g id="Group_10990" data-name="Group 10990" transform="translate(0.049)">
          <g id="Group_10906" data-name="Group 10906">
            <g id="Group_10869" data-name="Group 10869" transform="translate(21.882 165.165)">
              <g id="Group_10867" data-name="Group 10867" transform="translate(0.496)">
                <path id="Path_37381" data-name="Path 37381" class="cls-2" d="M18.141,224.334a.972.972,0,0,1-.513-.256.771.771,0,0,1-.128-.513c10.9-34.238,14.49-60.4,12.439-89.25a4.915,4.915,0,0,1,1.282-3.719,5.4,5.4,0,0,1,3.591-1.8h1.026a5.074,5.074,0,0,1,4.488,4.745c2.18,29.75-1.411,56.679-12.31,91.559-.128.256-.385.513-.641.385l-.769-.128-7.822-1.026Z" transform="translate(-17.5 -128.8)"/>
              </g>
              <g id="Group_10868" data-name="Group 10868" transform="translate(0 95.79)">
                <path id="Path_37382" data-name="Path 37382" class="cls-3" d="M24.79,209.4a4.062,4.062,0,0,1-4.232,2.693c-.256,0-.513-.128-.769-.128a3.728,3.728,0,0,1-2.436-4.873c.513-1.539.9-2.052,1.411-3.591l7.822,1.026C25.944,206.321,25.431,207.347,24.79,209.4Z" transform="translate(-17.113 -203.5)"/>
              </g>
            </g>
            <g id="Group_10872" data-name="Group 10872" transform="translate(53.23 165.157)">
              <g id="Group_10870" data-name="Group 10870">
                <path id="Path_37383" data-name="Path 37383" class="cls-2" d="M47.126,226a.512.512,0,0,1-.513-.256c-.128-.128-.256-.385-.128-.513,4.232-35.777,2.821-62.065-4.745-89.892a5.451,5.451,0,0,1,.513-3.975,5.212,5.212,0,0,1,3.206-2.436,2.823,2.823,0,0,1,1.026-.128,5.251,5.251,0,0,1,5.386,3.847c7.822,28.853,9.361,55.91,5.129,92.2a.587.587,0,0,1-.641.513h-.769l-7.95.513Z" transform="translate(-41.559 -128.794)"/>
              </g>
              <g id="Group_10871" data-name="Group 10871" transform="translate(5.408 96.567)">
                <path id="Path_37384" data-name="Path 37384" class="cls-3" d="M53.5,209.486a3.83,3.83,0,0,1-3.591,3.334h-.769a3.817,3.817,0,0,1-3.334-4.36c.256-1.667.513-2.18.641-3.847l7.95-.513C54.142,206.28,53.757,207.306,53.5,209.486Z" transform="translate(-45.777 -204.1)"/>
              </g>
            </g>
            <g id="Group_10875" data-name="Group 10875" transform="translate(39.043 87.065)">
              <g id="Group_10873" data-name="Group 10873" transform="translate(0 0)">
                <path id="Path_37385" data-name="Path 37385" class="cls-4" d="M36.785,96.882a5.2,5.2,0,0,0,3.975-4.745l1.026-18.85a5.136,5.136,0,1,0-10.259-.513L30.5,91.624a5.152,5.152,0,0,0,4.873,5.386C35.759,97.01,36.272,96.882,36.785,96.882Z" transform="translate(-30.496 -67.896)"/>
              </g>
              <g id="Group_10874" data-name="Group 10874" transform="translate(0.518)">
                <path id="Path_37386" data-name="Path 37386" class="cls-5" d="M30.9,80.853l.385-8.079a5.136,5.136,0,0,1,10.259.513l-.513,10.9a21.8,21.8,0,0,1-5.9-1.411A25.189,25.189,0,0,1,30.9,80.853Z" transform="translate(-30.9 -67.896)"/>
              </g>
            </g>
            <g id="Group_10886" data-name="Group 10886" transform="translate(21.918 103.356)">
              <g id="Group_10876" data-name="Group 10876" transform="translate(16.361 62.963)">
                <path id="Path_37387" data-name="Path 37387" class="cls-2" d="M44.519,129.7c.256,4.36,2.052,7.822,6.668,7.566l2.18-.128c-2.18,2.693-6.155,4.1-12.31,4.488q-7.309.385-11.156-3.078l7.566-.385C43.108,137.779,44.775,134.06,44.519,129.7Z" transform="translate(-29.9 -129.7)"/>
              </g>
              <g id="Group_10877" data-name="Group 10877" transform="translate(11.744 54.371)">
                <path id="Path_37388" data-name="Path 37388" class="cls-2" d="M28.48,123.385h.256c.641,0,2.308-.128,6.412-.385a.991.991,0,0,1,1.026.9l.128,1.539a3.484,3.484,0,0,1-3.334,3.719l-6.668.385a24.868,24.868,0,0,1,1.154-6.155H28.48Z" transform="translate(-26.3 -123)"/>
              </g>
              <g id="Group_10878" data-name="Group 10878" transform="translate(17.643 0.513)">
                <path id="Path_37389" data-name="Path 37389" class="cls-6" d="M37.953,87.925v.256a.666.666,0,0,1-.256.513.39.39,0,0,1-.513,0L35,87.925c-.256-.385-.385-.9-.641-1.282a46.7,46.7,0,0,0-2.949-5A2.251,2.251,0,0,0,30.9,81a1.962,1.962,0,0,1,1.282.513c1.924.769,4.745,1.667,6.668,1.539Z" transform="translate(-30.9 -81)"/>
              </g>
              <g id="Group_10879" data-name="Group 10879" transform="translate(25.209 0)">
                <path id="Path_37390" data-name="Path 37390" class="cls-6" d="M41.288,86.627c0,.128.128.385.128.513h0l-1.026,1.026a.979.979,0,0,1-.641.256c-.256,0-.385-.128-.513-.385l-.128-.128L36.8,83.293c1.411-.128,2.052-.641,2.308-1.282l.128-1.411h.385l.385,1.154A30.2,30.2,0,0,1,41.288,86.627Z" transform="translate(-36.8 -80.6)"/>
              </g>
              <g id="Group_10880" data-name="Group 10880" transform="translate(27.292 6.283)">
                <path id="Path_37391" data-name="Path 37391" class="cls-6" d="M38.778,88.962c0-.128,0-.128-.128-.256h0v-.256c0-.128,0-.128-.128-.256h0a1.4,1.4,0,0,1,0-1.026l.128-.256h0l.128-.641.128.128c.128.256.256.385.513.385a.706.706,0,0,0,.641-.256L41.086,85.5h0a29.951,29.951,0,0,1,.513,3.334,59.759,59.759,0,0,1,.256,13.465C40.573,96.272,39.291,91.142,38.778,88.962Z" transform="translate(-38.425 -85.5)"/>
              </g>
              <g id="Group_10881" data-name="Group 10881" transform="translate(21.49 7.438)">
                <path id="Path_37392" data-name="Path 37392" class="cls-6" d="M35.054,88.965c-.385-.9-.769-1.8-1.154-2.565l2.18.769c.128.128.385,0,.513,0a.666.666,0,0,0,.256-.513V86.4l.513.641h0l.256.256A1.456,1.456,0,0,1,38,88.324h0v.513c.256,2.436.9,8.207,1.282,12.952A74.724,74.724,0,0,0,35.054,88.965Z" transform="translate(-33.9 -86.4)"/>
              </g>
              <g id="Group_10882" data-name="Group 10882">
                <path id="Path_37393" data-name="Path 37393" class="cls-3" d="M17.345,88.038a5.165,5.165,0,0,1,2.18-2.949,30.913,30.913,0,0,1,12.054-3.719l.128,1.154.513,4.1a.813.813,0,0,0,.641.769l2.052.769-.513.256a.957.957,0,0,0-.256,1.539c.256.256.513.641.9,1.026,3.334,4.488,10,16.029,11.413,22.7v-.513c2.565-6.54,4.232-17.183,4.488-22.313a11.109,11.109,0,0,0-.128-2.308,1.125,1.125,0,0,0-.769-.9L49.4,87.4l.641-.641a1,1,0,0,0,.256-1.026,26.135,26.135,0,0,0-1.667-3.462A11.709,11.709,0,0,0,47.608,80.6a27.323,27.323,0,0,1,10.259,2.308A5.255,5.255,0,0,1,60.431,85.6,4.694,4.694,0,0,1,60.3,89.32l-.385.769a6.641,6.641,0,0,0-1.154,4.873,74.316,74.316,0,0,1-.256,19.876,49.054,49.054,0,0,0,.769,20.261s.769,5.514,2.436,14.106a1.673,1.673,0,0,1-1.539,1.667L57.867,151h-.9l-2.18.128c-4.616.256-6.412-3.206-6.668-7.566.256,4.36-1.539,8.079-7.309,8.335l-7.566.385h-.9l-2.308.128A1.842,1.842,0,0,1,27.86,151l.769-9.1h0v-.513L35.3,141a3.561,3.561,0,0,0,3.334-3.719L38.5,135.74a.991.991,0,0,0-1.026-.9c-4.232.256-5.9.385-6.412.385H29.655c2.18-6.155,2.693-11.926-.641-18.337-.9-1.539-1.539-3.206-2.308-4.616-.513-1.154-1.154-2.308-1.667-3.334a38.022,38.022,0,0,1-3.975-11.413A7.289,7.289,0,0,0,18.5,92.91a11.561,11.561,0,0,1-1.154-1.282A8.451,8.451,0,0,1,17.345,88.038Z" transform="translate(-17.142 -80.6)"/>
              </g>
              <g id="Group_10883" data-name="Group 10883" transform="translate(14.565 0.385)">
                <path id="Path_37394" data-name="Path 37394" class="cls-2" d="M34.783,86.671c.256.385.385.9.641,1.282.385.9.769,1.667,1.154,2.565a89.268,89.268,0,0,1,4.36,12.823h0c1.411,5.386,2.18,9.361,2.18,9.361v.256h0v.513c-1.282-6.668-8.079-18.209-11.413-22.7a7.33,7.33,0,0,0-.9-1.026,1.082,1.082,0,0,1-.256-.9,1.28,1.28,0,0,1,.513-.641l.513-.256-2.052-.769c-.385-.128-.513-.385-.641-.769l-.256-4.1L28.5,81.156c.385,0,.769-.128,1.154-.128l1.8-.128a2.251,2.251,0,0,0,.513.641C32.988,83.208,33.886,84.875,34.783,86.671Z" transform="translate(-28.5 -80.9)"/>
              </g>
              <g id="Group_10884" data-name="Group 10884" transform="translate(28.03 0)">
                <path id="Path_37395" data-name="Path 37395" class="cls-2" d="M44,85.729a.8.8,0,0,1-.256,1.026L43.1,87.4l.641.256a1.356,1.356,0,0,1,.769.9,11.109,11.109,0,0,1,.128,2.308,81.906,81.906,0,0,1-4.488,22.313h0a63.527,63.527,0,0,0,1.411-9.233,59.644,59.644,0,0,0-.256-13.465c-.128-1.026-.385-2.18-.513-3.334,0-.128-.128-.385-.128-.513-.385-1.667-.769-3.206-1.282-4.873L39,80.6h2.18a11.707,11.707,0,0,1,1.026,1.667A18.044,18.044,0,0,1,44,85.729Z" transform="translate(-39 -80.6)"/>
              </g>
              <g id="Group_10885" data-name="Group 10885" transform="translate(24.696 2.949)">
                <path id="Path_37396" data-name="Path 37396" class="cls-3" d="M39.349,87.132l-.128.641h0l-.128.256a1.4,1.4,0,0,0,0,1.026h0c0,.128,0,.128.128.256v.256h0c0,.128,0,.128.128.256.513,2.18,1.924,7.309,3.078,13.593a87.79,87.79,0,0,1-1.411,9.233v-.256a90.008,90.008,0,0,0-2.18-9.361h0c-.385-4.873-.9-10.643-1.282-12.952v-.513h0a1.456,1.456,0,0,0-.385-1.026l-.256-.256h0l-.513-.641.769-4.745Z" transform="translate(-36.4 -82.9)"/>
              </g>
            </g>
            <g id="Group_10891" data-name="Group 10891" transform="translate(0 107.105)">
              <g id="Group_10887" data-name="Group 10887" transform="translate(27.27 42.68)">
                <path id="Path_37397" data-name="Path 37397" class="cls-4" d="M33.222,125.005c-2.308,5.129-4.616,3.206-7.822,1.539-3.206-1.539-4.873-4.873-3.719-7.309S26.3,116.029,29.5,117.7C32.709,119.235,35.53,119.876,33.222,125.005Z" transform="translate(-21.315 -116.807)"/>
              </g>
              <g id="Group_10888" data-name="Group 10888" transform="translate(26.994 42.415)">
                <path id="Path_37398" data-name="Path 37398" class="cls-4" d="M27.512,118.652a2.9,2.9,0,0,1-2.949,5L21.1,121.6l2.949-5Z" transform="translate(-21.1 -116.6)"/>
              </g>
              <g id="Group_10889" data-name="Group 10889">
                <path id="Path_37399" data-name="Path 37399" class="cls-3" d="M.114,112.987A9.924,9.924,0,0,1,1.4,106.96a5.678,5.678,0,0,1,1.539-1.924L23.453,84.9a4.878,4.878,0,0,1,6.925.128,5.035,5.035,0,0,1,.769,5.9,7.113,7.113,0,0,1-.769,1.026L9.86,111.833l18.594,11.028a.736.736,0,0,1,.256.9l-.128.256-.513.9-2.949,5-.513.9-.128.256a.736.736,0,0,1-.9.256L4.6,120.04A9.239,9.239,0,0,1,.114,112.987Z" transform="translate(-0.049 -83.524)"/>
              </g>
              <g id="Group_10890" data-name="Group 10890" transform="translate(24.686 40.363)">
                <path id="Path_37400" data-name="Path 37400" class="cls-6" d="M22.634,115.9l.513-.9,1.282.769a.736.736,0,0,1,.256.9l-.128.256-2.949,5-.128.256a.736.736,0,0,1-.9.256l-1.282-.769.513-.9Z" transform="translate(-19.3 -115)"/>
              </g>
            </g>
            <g id="Group_10892" data-name="Group 10892" transform="translate(56.774 263.085)">
              <path id="Path_37401" data-name="Path 37401" class="cls-7" d="M45.7,208.16a.483.483,0,0,1,.769-.128,3.4,3.4,0,0,1,.769.641c.9.769,1.154.769,2.821.769,1.411,0,2.18-2.949,3.975-3.975a1.781,1.781,0,0,1,1.411-.256,14.8,14.8,0,0,1,10.259,6.668,1.577,1.577,0,0,1-.128,1.667,2.192,2.192,0,0,1-1.667.9H47.5a3.5,3.5,0,0,1-2.436-1.026,2.083,2.083,0,0,1-.641-2.18A12.132,12.132,0,0,1,45.7,208.16Z" transform="translate(-44.323 -205.161)"/>
            </g>
            <g id="Group_10893" data-name="Group 10893" transform="translate(20.921 263.52)">
              <path id="Path_37402" data-name="Path 37402" class="cls-7" d="M17.18,208.193l.128-.128a.126.126,0,0,1,.128.128,1.36,1.36,0,0,0,1.539,1.154c1.8,0,1.154-3.847,6.925-3.847a12.119,12.119,0,0,1,6.668,6.412,1.9,1.9,0,0,1,0,1.667,1.544,1.544,0,0,1-1.282.9H18.718a2.046,2.046,0,0,1-1.8-1.026,2.681,2.681,0,0,1-.513-2.18A6.444,6.444,0,0,1,17.18,208.193Z" transform="translate(-16.364 -205.5)"/>
            </g>
            <g id="Group_10894" data-name="Group 10894" transform="translate(92.522 81.685)">
              <path id="Path_37403" data-name="Path 37403" class="cls-4" d="M72.2,66.649a2.949,2.949,0,0,1,5.9,0v4.1H72.2v-4.1Z" transform="translate(-72.2 -63.7)"/>
            </g>
            <g id="Group_10897" data-name="Group 10897" transform="translate(56.856 88.609)">
              <g id="Group_10895" data-name="Group 10895" transform="translate(0 2.052)">
                <path id="Path_37404" data-name="Path 37404" class="cls-3" d="M84.028,100.963a9.467,9.467,0,0,1-5.771,1.924,8.052,8.052,0,0,1-2.436-.385L47.994,95.064a4.948,4.948,0,0,1-3.462-6.027,4.815,4.815,0,0,1,4.745-3.591,4.363,4.363,0,0,1,1.282.128L78,93.013V71.341a.606.606,0,0,1,.641-.641h8.72a.606.606,0,0,1,.641.641V93.269A10.817,10.817,0,0,1,84.028,100.963Z" transform="translate(-44.387 -70.7)"/>
              </g>
              <g id="Group_10896" data-name="Group 10896" transform="translate(34.64)">
                <path id="Path_37405" data-name="Path 37405" class="cls-6" d="M72.426,71.28H71.4V69.741a.606.606,0,0,1,.641-.641h6.668a.606.606,0,0,1,.641.641V71.28H72.426Z" transform="translate(-71.4 -69.1)"/>
              </g>
            </g>
            <g id="Group_10898" data-name="Group 10898" transform="translate(88.418)">
              <path id="Path_37406" data-name="Path 37406" class="cls-2" d="M71.052,215.176a1.972,1.972,0,0,0,1.924-1.924V1.924A1.972,1.972,0,0,0,71.052,0,2,2,0,0,0,69,1.924v211.2A2.025,2.025,0,0,0,71.052,215.176Z" transform="translate(-69)"/>
            </g>
            <g id="Group_10899" data-name="Group 10899" transform="translate(41.228 6.283)">
              <path id="Path_37407" data-name="Path 37407" class="cls-8" d="M35.149,4.9h92.328a2.9,2.9,0,0,1,2.949,2.949V64.272a2.9,2.9,0,0,1-2.949,2.949H35.149A2.9,2.9,0,0,1,32.2,64.272V7.849A2.9,2.9,0,0,1,35.149,4.9Z" transform="translate(-32.2 -4.9)"/>
            </g>
            <g id="Group_10900" data-name="Group 10900" transform="translate(52.457 23.723)">
              <path id="Path_37408" data-name="Path 37408" class="cls-3" d="M48.963,34.016l3.719-14.49A1.732,1.732,0,0,1,54.22,18.5H55.5a1.45,1.45,0,0,1,1.539,1.667L51.015,42.993a1.546,1.546,0,0,1-1.539,1.026h-.9a1.732,1.732,0,0,1-1.539-1.026L41.012,20.167c-.256-.9.385-1.667,1.539-1.667h1.154a1.9,1.9,0,0,1,1.539,1.026Z" transform="translate(-40.956 -18.5)"/>
              <path id="Path_37409" data-name="Path 37409" class="cls-3" d="M56.9,25.938c0-4.745,2.308-7.438,6.925-7.438s6.925,2.565,6.925,7.438V36.709c0,2.949-.9,4.745-2.18,5.9a7.5,7.5,0,0,1-4.745,1.539,6.811,6.811,0,0,1-4.745-1.539c-1.282-1.154-2.18-2.949-2.18-5.9V25.938Zm4.232,10.772c0,2.565.9,3.719,2.693,3.719s2.693-1.154,2.693-3.719V25.938c0-2.565-.9-3.591-2.693-3.591s-2.693,1.154-2.693,3.591Z" transform="translate(-36.455 -18.5)"/>
              <path id="Path_37410" data-name="Path 37410" class="cls-3" d="M71.528,19.911A1.455,1.455,0,0,1,73.067,18.5H84.1a1.455,1.455,0,0,1,1.539,1.411v1.026A1.455,1.455,0,0,1,84.1,22.347H80.633V42.736a1.455,1.455,0,0,1-1.539,1.411H77.94A1.455,1.455,0,0,1,76.4,42.736V22.347H72.939A1.455,1.455,0,0,1,71.4,20.936V19.911Z" transform="translate(-32.361 -18.5)"/>
              <path id="Path_37411" data-name="Path 37411" class="cls-3" d="M97.243,18.5a1.455,1.455,0,0,1,1.539,1.411v1.026a1.455,1.455,0,0,1-1.539,1.411H90.832V29.4h5.258a1.455,1.455,0,0,1,1.539,1.411v1.026a1.455,1.455,0,0,1-1.539,1.411H90.832v7.181h6.412a1.455,1.455,0,0,1,1.539,1.411v1.026a1.455,1.455,0,0,1-1.539,1.411h-9.1A1.455,1.455,0,0,1,86.6,42.864V19.911A1.455,1.455,0,0,1,88.139,18.5Z" transform="translate(-28.069 -18.5)"/>
            </g>
            <g id="Group_10901" data-name="Group 10901" transform="translate(86.238 75.994)">
              <path id="Path_37412" data-name="Path 37412" class="cls-4" d="M68.582,59.7A1.374,1.374,0,0,0,67.3,60.978,1.456,1.456,0,0,0,67.685,62c.128,0,.128.128.128.256s0,.128-.128.256a1.56,1.56,0,0,0,0,2.052c.128,0,.128.128.128.256s0,.128-.128.256a1.385,1.385,0,0,0-.385.9,1.347,1.347,0,0,0,.641,1.154c.128,0,.128.128.128.256v.256a1.823,1.823,0,0,0-.256.769A1.285,1.285,0,0,0,69.1,69.7l3.591-.385a.775.775,0,0,1,.769.385c1.026,1.539,2.308,2.436,3.591,2.308,2.052-.256,3.078-3.206,2.308-6.8C77.943,58.413,75.379,58.926,68.582,59.7Z" transform="translate(-67.3 -59.262)"/>
            </g>
            <g id="Group_10905" data-name="Group 10905" transform="translate(28.507 63.988)">
              <g id="Group_10902" data-name="Group 10902" transform="translate(0.769 0.847)">
                <path id="Path_37413" data-name="Path 37413" class="cls-4" d="M22.906,66c-.513-7.95,6.412-14.875,15.388-15.388a13.85,13.85,0,0,1,3.975.256,16.061,16.061,0,0,1,10,5.642,12.776,12.776,0,0,1,2.565,4.873c.769,2.18.641,4.488.9,6.925a55.926,55.926,0,0,1,.385,6.54,14.02,14.02,0,0,1-5.386,10c-3.719,2.693-8.848,1.924-12.823.385a25.371,25.371,0,0,1-10.259-7.053,20.868,20.868,0,0,1-4.745-11.669C22.906,66.384,22.906,66.256,22.906,66Z" transform="translate(-22.879 -50.561)"/>
              </g>
              <g id="Group_10903" data-name="Group 10903">
                <path id="Path_37414" data-name="Path 37414" class="cls-2" d="M22.306,66.314V66.7a19.416,19.416,0,0,0,.9,4.745h0c1.8,4.488,3.334,5,3.334,5s-2.18-3.334-1.8-6.283c.385-2.436,1.667-3.078,2.949-3.206h0c.128,0,1.667.128,2.565,2.436s1.154,5.642,1.411,8.72c0,0-.385,5.258,3.847,7.694h0c.385.128.641.385,1.026.513h0c.385.128.769.385,1.154.513,4.232,1.539,9.489,2.436,13.465-.385A14.5,14.5,0,0,0,56.8,75.8a64.987,64.987,0,0,0-.385-7.053c-.128-1.539-.128-2.949-.256-4.36-.641-5-2.052-9.1-5.386-11.669-.513-.385-1.026-.641-1.539-1.026h0a17.761,17.761,0,0,0-7.566-1.8H37.95l-6.668.385c-.128,0-.128,0-.256.128v.256a1.77,1.77,0,0,1,.385.513c0,.128.128.128,0,.256a.126.126,0,0,1-.128.128C25.768,54.388,21.921,60.03,22.306,66.314Zm9.618,1.026a3.261,3.261,0,0,1,.513-2.18,6.5,6.5,0,0,0,.9-1.924c.256-1.539,0-3.206.256-4.745a4.769,4.769,0,0,1,1.282-2.821.986.986,0,0,1,1.282-.128,10.384,10.384,0,0,0,6.027,1.667,12.058,12.058,0,0,0,6.925-2.565.957.957,0,0,1,1.154,0,9.861,9.861,0,0,1,2.308,2.308,13.358,13.358,0,0,1,1.282,2.308,18.582,18.582,0,0,1,1.539,4.488,18.939,18.939,0,0,1,.128,2.693c.128,2.052.385,4.1.385,6.027a13.321,13.321,0,0,1-.9,4.488,10.224,10.224,0,0,1-1.026,2.052,9.1,9.1,0,0,1-7.053,4.232c-4.36.256-7.566-.769-10-3.078a11.563,11.563,0,0,1-1.154-1.282C33.719,76.188,32.436,72.469,31.923,67.34Z" transform="translate(-22.279 -49.9)"/>
              </g>
              <g id="Group_10904" data-name="Group 10904" transform="translate(13.601 24.25)">
                <path id="Path_37415" data-name="Path 37415" class="cls-2" d="M36.623,70.208a31.472,31.472,0,0,1,3.719-1.026c.769-.128,2.436-.513,3.078,0,.513-.513,1.924-.385,2.436-.256a20.154,20.154,0,0,1,2.949.513,5.188,5.188,0,0,1,3.206,2.052,1.853,1.853,0,0,1,.256.9V73.67c0,.128-.128.128-.128.256h-.256c-.128-.128-.385-.128-.769-.256a11.109,11.109,0,0,0-2.308-.128,5.8,5.8,0,0,1-5.129-2.821c-.9,2.052-3.847,3.334-6.027,3.462a11.866,11.866,0,0,0-3.591.641c-.128,0-.256.128-.385.128s-.256.128-.385,0a.276.276,0,0,1-.256-.256,3.217,3.217,0,0,1-.128-1.282h0C32.647,71.746,35.212,70.721,36.623,70.208Z" transform="translate(-32.886 -68.811)"/>
              </g>
            </g>
          </g>
          <g id="Group_10989" data-name="Group 10989" transform="translate(101.256 74.504)">
            <g id="Group_10907" data-name="Group 10907" transform="translate(40.744 38.873)">
              <path id="Path_37416" data-name="Path 37416" class="cls-4" d="M125.936,118.4a6,6,0,0,0,2.18.256,5.38,5.38,0,0,0,4.745-3.719l7.566-23.21a2.555,2.555,0,1,0-4.873-1.539l-7.566,23.21c0,.128-.128.256-.385.256-.128,0-.256-.128-.385-.256L115.677,90.961a2.581,2.581,0,1,0-4.616,2.308L122.6,115.71A6.676,6.676,0,0,0,125.936,118.4Z" transform="translate(-110.785 -88.414)"/>
            </g>
            <g id="Group_10909" data-name="Group 10909" transform="translate(39.595 38.943)">
              <g id="Group_10908" data-name="Group 10908">
                <path id="Path_37417" data-name="Path 37417" class="cls-9" d="M128.369,120.054a5.669,5.669,0,0,1-2.565-.256,6.764,6.764,0,0,1-3.975-3.334L110.288,94.023a3.83,3.83,0,0,1,1.667-5.129,3.9,3.9,0,0,1,2.949-.256,3.282,3.282,0,0,1,2.18,1.923L127.6,111.206l5-15.644c.128-.256.256-.385.513-.256.128,0,.128,0,.256.128,3.975,1.282,2.052.641,6.027,1.924.128,0,.128,0,.256.128.256.128.385.256.256.513l-5.642,17.7A7.107,7.107,0,0,1,128.369,120.054Z" transform="translate(-109.889 -88.469)"/>
              </g>
            </g>
            <g id="Group_10920" data-name="Group 10920" transform="translate(64.3 24.186)">
              <g id="Group_10910" data-name="Group 10910" transform="translate(0 11.239)">
                <path id="Path_37418" data-name="Path 37418" class="cls-4" d="M134.471,85.821a6.213,6.213,0,0,1,2.18,0l2.565.385a.975.975,0,0,1,.769,1.026v.641c.128.128.256.256.385.256h0a.975.975,0,0,1,.769,1.026.96.96,0,0,1-.9.769h-.128c-.128,0-.128,0-.128.128v.128a.771.771,0,0,1,.128.513.975.975,0,0,1-1.026.769c-.128,0-.128,0-.128.128v.256c0,.128.128.256,0,.385a.964.964,0,0,1-.9.641l-1.8-.385a1.156,1.156,0,0,0-.641.128c-.256.128-.256.385-.385.513-.256,2.18-1.411,3.847-2.693,3.975-1.667.256-3.206-2.052-3.334-5C128.956,86.462,129.341,86.847,134.471,85.821Z" transform="translate(-129.154 -85.725)"/>
              </g>
              <g id="Group_10918" data-name="Group 10918" transform="translate(2.319)">
                <g id="Group_10911" data-name="Group 10911" transform="translate(5.69 19.67)">
                  <path id="Path_37419" data-name="Path 37419" class="cls-10" d="M135.785,93.2h0c-.128.128-.128.128-.128,0l-.256-.769.385-.128Z" transform="translate(-135.4 -92.3)"/>
                </g>
                <g id="Group_10912" data-name="Group 10912" transform="translate(2.228 7.873)">
                  <path id="Path_37420" data-name="Path 37420" class="cls-11" d="M135.136,85.023c.128.641.256,1.154.385,1.8a8.658,8.658,0,0,1,.256,1.8c.128.513.128,1.154.256,1.667s.128,1.026.256,1.411a19.142,19.142,0,0,1,.256,2.18v.513l-.9.256c0-.128-.128-.256-.128-.513-.128-.513-.385-1.282-.641-2.18-.128-.385-.256-.9-.385-1.411L134.111,89a8.293,8.293,0,0,0-.513-1.667c-.128-.641-.256-1.154-.385-1.8a10.684,10.684,0,0,0-.513-1.924l2.052-.513Q134.944,83.869,135.136,85.023Z" transform="translate(-132.7 -83.1)"/>
                </g>
                <g id="Group_10913" data-name="Group 10913" transform="translate(2.1 6.975)">
                  <path id="Path_37421" data-name="Path 37421" class="cls-3" d="M134.78,83.169l-2.052.513c0-.256-.128-.513-.128-.769l2.052-.513A1.626,1.626,0,0,0,134.78,83.169Z" transform="translate(-132.6 -82.4)"/>
                </g>
                <g id="Group_10914" data-name="Group 10914" transform="translate(0.946)">
                  <path id="Path_37422" data-name="Path 37422" class="cls-3" d="M131.7,77.524c0-.256.128-.513.385-.513a.617.617,0,0,1,.769.256l.128.128-1.154.256Z" transform="translate(-131.7 -76.961)"/>
                </g>
                <g id="Group_10915" data-name="Group 10915" transform="translate(0 0.82)">
                  <path id="Path_37423" data-name="Path 37423" class="cls-3" d="M131.78,83.883a.276.276,0,0,0,.256-.256v-.513l-1.026-3.975a1.034,1.034,0,0,1,.385-1.154l.385-.256.128-.128h.256v.256l-.385.256-.256.128a.617.617,0,0,0-.256.769l1.026,3.975v.641a1,1,0,0,1-.513.513c-.128,0-.256,0-.256-.128A.448.448,0,0,0,131.78,83.883Z" transform="translate(-130.962 -77.6)"/>
                </g>
                <g id="Group_10916" data-name="Group 10916" transform="translate(1.074 0.435)">
                  <path id="Path_37424" data-name="Path 37424" class="cls-6" d="M132.185,77.685c0-.128-.128-.128-.256,0l-.128.128v-.256l1.154-.256a2.167,2.167,0,0,0,.256.641c.128.513.385,1.282.641,2.18.128.385.256.9.385,1.411s.256,1.026.385,1.667c0,.256.128.513.128.769l-2.052.513c0-.256-.128-.513-.128-.769a7.5,7.5,0,0,1-.256-1.667c-.128-.513-.128-1.026-.256-1.411a19.147,19.147,0,0,1-.256-2.18l.385-.256Z" transform="translate(-131.8 -77.3)"/>
                </g>
                <g id="Group_10917" data-name="Group 10917" transform="translate(5.306 19.157)">
                  <path id="Path_37425" data-name="Path 37425" class="cls-6" d="M135.869,92.541h0l-.385.128h0a.276.276,0,0,1-.256-.256.4.4,0,0,0-.128-.256l.9-.256v.256C136,92.285,135.869,92.413,135.869,92.541Z" transform="translate(-135.1 -91.9)"/>
                </g>
              </g>
              <g id="Group_10919" data-name="Group 10919" transform="translate(0.572 11.72)">
                <path id="Path_37426" data-name="Path 37426" class="cls-4" d="M137.807,87.9a.705.705,0,0,0,.385-.641,1.088,1.088,0,0,0-.9-1.026l-1.282-.128a7.1,7.1,0,0,0-2.308.256l-1.539.513a3.3,3.3,0,0,0-2.308,2.821l-.256,2.18c0,.513.256,1.026.769,1.026s1.026-.256,1.026-.769l.256-2.18a1.763,1.763,0,0,1,1.026-1.282l1.539-.513a6.437,6.437,0,0,1,1.539-.256l1.282.128A.719.719,0,0,0,137.807,87.9Z" transform="translate(-129.6 -86.1)"/>
              </g>
            </g>
            <g id="Group_10926" data-name="Group 10926" transform="translate(14.57 90.661)">
              <g id="Group_10921" data-name="Group 10921" transform="translate(2.746)">
                <path id="Path_37427" data-name="Path 37427" class="cls-12" d="M118.527,129.185a3.351,3.351,0,0,1,1.8,2.949l.641,37.957a51.613,51.613,0,0,1-6.412,25.775l-15.644,28.34a3.388,3.388,0,1,1-5.9-3.334l15.644-28.34a45.319,45.319,0,0,0,5.514-22.313l-.641-37.957a3.341,3.341,0,0,1,3.334-3.462A3.948,3.948,0,0,1,118.527,129.185Z" transform="translate(-92.515 -128.8)"/>
              </g>
              <g id="Group_10925" data-name="Group 10925" transform="translate(0 89.33)">
                <g id="Group_10922" data-name="Group 10922" transform="translate(0.034 7.487)">
                  <path id="Path_37428" data-name="Path 37428" class="cls-11" d="M92.2,208.788c-.128.128-.256.256-.513.128l-1.026-.513c-.256-.128-.256-.256-.256-.513.128-.513.385-1.667.769-3.591a15.871,15.871,0,0,0,2.308,1.8Z" transform="translate(-90.4 -204.3)"/>
                </g>
                <g id="Group_10923" data-name="Group 10923" transform="translate(0 1.844)">
                  <path id="Path_37429" data-name="Path 37429" class="cls-11" d="M92.331,199.9h0c1.411.769.769,2.436,1.667,3.334a12.092,12.092,0,0,0,1.282,1.282,70.266,70.266,0,0,1,5.129,5.642,3.3,3.3,0,0,0,2.18,1.282,7.351,7.351,0,0,1,1.8.513,2.8,2.8,0,0,0,.641.385,1.053,1.053,0,0,1,.641.641,2.1,2.1,0,0,1-2.565,2.949l-2.821-1.411c-1.539-.769-2.693-2.693-3.847-3.975-.769-.9-1.411-1.667-2.18-2.436a3.4,3.4,0,0,0-.769-.641,10.188,10.188,0,0,1-2.308-1.8A2.9,2.9,0,0,1,90.408,204a4.629,4.629,0,0,1,.385-2.18A5.678,5.678,0,0,1,92.331,199.9Z" transform="translate(-90.373 -199.9)"/>
                </g>
                <g id="Group_10924" data-name="Group 10924" transform="translate(1.958)">
                  <path id="Path_37430" data-name="Path 37430" class="cls-12" d="M102.159,211.847a3.3,3.3,0,0,1-2.18-1.282,70.263,70.263,0,0,0-5.129-5.642,12.089,12.089,0,0,0-1.282-1.282c-.9-1.026-.385-2.565-1.667-3.334a4.415,4.415,0,0,1,4.36-1.8,5.961,5.961,0,0,1,2.949,1.154,12.18,12.18,0,0,1,3.975,4.873,14.908,14.908,0,0,1,1.411,8.207h0a2.8,2.8,0,0,1-.641-.385A7.352,7.352,0,0,0,102.159,211.847Z" transform="translate(-91.9 -198.462)"/>
                </g>
              </g>
            </g>
            <g id="Group_10932" data-name="Group 10932" transform="translate(21.242 90.5)">
              <g id="Group_10927" data-name="Group 10927">
                <path id="Path_37431" data-name="Path 37431" class="cls-4" d="M98.556,128.707a3.369,3.369,0,0,1,3.847,2.949l12.182,95.277a3.428,3.428,0,1,1-6.8.9L95.607,132.554A3.459,3.459,0,0,1,98.556,128.707Z" transform="translate(-95.576 -128.675)"/>
              </g>
              <g id="Group_10931" data-name="Group 10931" transform="translate(10.529 93.899)">
                <g id="Group_10928" data-name="Group 10928" transform="translate(1.555 9.489)">
                  <path id="Path_37432" data-name="Path 37432" class="cls-11" d="M105.641,209.556h0c-.256-.128-.385-.128-.641-.256.641,2.052,1.026,3.206,1.154,3.719a.409.409,0,0,0,.385.385h1.667a.34.34,0,0,0,.385-.385v-.769A5.918,5.918,0,0,0,105.641,209.556Z" transform="translate(-105 -209.3)"/>
                </g>
                <g id="Group_10929" data-name="Group 10929" transform="translate(0 4.873)">
                  <path id="Path_37433" data-name="Path 37433" class="cls-11" d="M116.883,210.573c-.128,0-.128-.128-.256-.128a6.556,6.556,0,0,0-3.847,0,5.3,5.3,0,0,1-2.436.641,3.8,3.8,0,0,1-1.411-.513c-.128,0-.256-.128-.385-.256a11.275,11.275,0,0,1-1.282-.769c-.513-.385-1.154-.9-1.667-1.282s-1.411-1.026-1.539-1.8v-.128a5.554,5.554,0,0,0-.128-.641c0,.256-.128,1.282-.128,1.667a3.406,3.406,0,0,0,1.411,3.078.972.972,0,0,0,.513.256h0c1.411.513,1.924,1.154,2.949,2.565.128.128.128.256.256.385a1.828,1.828,0,0,0,1.539.769h5.258a2,2,0,0,0,1.924-2.052A1.429,1.429,0,0,0,116.883,210.573Z" transform="translate(-103.787 -205.7)"/>
                </g>
                <g id="Group_10930" data-name="Group 10930" transform="translate(0.369)">
                  <path id="Path_37434" data-name="Path 37434" class="cls-4" d="M105.646,209.209c.513.385,1.154.9,1.667,1.282a11.28,11.28,0,0,0,1.282.769c.128.128.256.128.385.256a3.8,3.8,0,0,0,1.411.513c.9.128,1.539-.385,2.436-.641a6.556,6.556,0,0,1,3.847,0v-.128c0-.128,0-.256-.128-.256-1.026-3.591-3.847-9.1-8.335-9.1-3.078,0-4.36,3.847-4.1,5.386v.128A4.264,4.264,0,0,0,105.646,209.209Z" transform="translate(-104.075 -201.9)"/>
                </g>
              </g>
            </g>
            <g id="Group_10933" data-name="Group 10933" transform="translate(16.472 38.019)">
              <path id="Path_37435" data-name="Path 37435" class="cls-4" d="M97.426,108.588q-.769-1.731-1.539-3.847a22.839,22.839,0,0,1-1.411-7.053,3.524,3.524,0,0,0-1.539-2.821,2.475,2.475,0,0,1-.641-3.462,5.84,5.84,0,0,1,4.488-2.693c10.772-1.411,11.8-1.154,20.133,0a5.84,5.84,0,0,1,4.488,2.693,2.475,2.475,0,0,1-.641,3.462,4.235,4.235,0,0,0-1.667,4.1,17.093,17.093,0,0,1,.385,3.591,22.422,22.422,0,0,1-.641,7.181l-1.282,7.566a14.778,14.778,0,0,0,.641,7.438l1.539,4.36a26.1,26.1,0,0,1,1.924,10.515c0,9.874-6.412,12.31-16.927,12.31,0,0-14.234.641-11.926-12.31a35.932,35.932,0,0,1,2.565-7.95,18.144,18.144,0,0,1,2.308-3.719,1.77,1.77,0,0,0-.385.513c3.206-4.1,5.258-8.335,2.693-13.977C100.119,114.615,97.426,108.588,97.426,108.588Z" transform="translate(-91.857 -87.748)"/>
            </g>
            <g id="Group_10934" data-name="Group 10934" transform="translate(27.171 22.184)">
              <path id="Path_37436" data-name="Path 37436" class="cls-4" d="M104.945,97.584a3.907,3.907,0,0,0,3.334-3.975l-.256-14.362a3.912,3.912,0,1,0-7.822.128l.256,14.362a3.887,3.887,0,0,0,3.975,3.847A.39.39,0,0,0,104.945,97.584Z" transform="translate(-100.2 -75.4)"/>
            </g>
            <g id="Group_10935" data-name="Group 10935" transform="translate(27.171 22.313)">
              <path id="Path_37437" data-name="Path 37437" class="cls-5" d="M100.328,86.015l-.128-6.54a3.912,3.912,0,1,1,7.822-.128l.128,9.489a33.411,33.411,0,0,1-4.232-1.026C102.765,87.3,101.611,86.656,100.328,86.015Z" transform="translate(-100.2 -75.5)"/>
            </g>
            <g id="Group_10936" data-name="Group 10936" transform="translate(16.095 73.991)">
              <path id="Path_37438" data-name="Path 37438" class="cls-2" d="M100.074,115.8H118.54l2.308,4.1h0a27.108,27.108,0,0,1,2.308,11.926,58.636,58.636,0,0,0,.385,12.952,216.807,216.807,0,0,1,1.923,41.163.587.587,0,0,1-.641.513H99.3c-.128,0-.256-.128-.385-.128a.471.471,0,0,1-.128-.385,209.046,209.046,0,0,0-1.026-33.725,26.027,26.027,0,0,0-4.488-11.8c-1.411-1.924-2.18-4.745-1.411-8.72C93.406,122.6,97.253,119.134,100.074,115.8Z" transform="translate(-91.563 -115.8)"/>
            </g>
            <g id="Group_10945" data-name="Group 10945" transform="translate(13.706)">
              <g id="Group_10937" data-name="Group 10937" transform="translate(5.001 1.282)">
                <path id="Path_37439" data-name="Path 37439" class="cls-4" d="M93.6,72.18c0-7.309,6.54-13.08,14.49-13.08a17.093,17.093,0,0,1,3.591.385,14.914,14.914,0,0,1,8.72,5.642,12.457,12.457,0,0,1,2.052,4.616,25.507,25.507,0,0,1,.385,6.283c0,1.924.128,3.975,0,5.9a11.876,11.876,0,0,1-5.386,8.72c-3.462,2.308-7.95,1.282-11.541-.256a22.31,22.31,0,0,1-8.72-6.925A18.708,18.708,0,0,1,93.6,72.693C93.6,72.436,93.6,72.308,93.6,72.18Z" transform="translate(-93.6 -59.1)"/>
              </g>
              <g id="Group_10938" data-name="Group 10938" transform="translate(6.456 17.312)">
                <path id="Path_37440" data-name="Path 37440" class="cls-13" d="M94.819,74.678h0a1.278,1.278,0,0,1,.128-.513,8.175,8.175,0,0,0,.256-1.154c.128-.256.128-.385.256-.641,0-.128.128-.128.128-.256s.128-.128.128-.256c.128-.128.128-.128.256-.128s.128,0,.256-.128h5.9v1.539h-.641c-.769,0-1.667-1.154-2.693-1.154H96.229l-.128.128a3.064,3.064,0,0,0-.385.9,3.55,3.55,0,0,0-.128,1.154,1.326,1.326,0,0,1-.128.513h0c0,.256-.256.385-.513.256S94.69,74.934,94.819,74.678Z" transform="translate(-94.734 -71.6)"/>
              </g>
              <g id="Group_10939" data-name="Group 10939" transform="translate(7.08 23.723)">
                <path id="Path_37441" data-name="Path 37441" class="cls-13" d="M99.682,82.114a9.585,9.585,0,0,0-2.821.769,2.092,2.092,0,0,0-1.026,1.154,14.542,14.542,0,0,1-.256-7.438h0c0,.128.128.128.128.256s.128.256.256.385l.769,1.154c.256.385.513.641.769,1.026.128.128.256.385.513.513a12.52,12.52,0,0,0,2.308,2.18Z" transform="translate(-95.221 -76.6)"/>
              </g>
              <g id="Group_10940" data-name="Group 10940" transform="translate(29.878 26.16)">
                <path id="Path_37442" data-name="Path 37442" class="cls-11" d="M114.026,83.373c.128-.128.128-.128.128-.256.128-.128.256-.256.256-.385l.256-.256c.128-.128.128-.256.256-.385,0-.128.128-.128.128-.256.128-.128.128-.256.256-.385,0-.128.128-.128.128-.256.128-.128.128-.256.256-.385,0-.128.128-.128.128-.256.128-.256.256-.385.256-.641h0a6.252,6.252,0,0,0,.513-1.411h.128v.128c-.128.256-.128.385-.256.641,0,.128,0,.128-.128.256a5.554,5.554,0,0,1-.128.641V80.3c0,.256-.128.513-.128.769v.128a.961.961,0,0,1-.128.641v2.308a.961.961,0,0,0,.128.641v.256a1.823,1.823,0,0,0,.256.769v.128h0l-.128-.128-.128-.128A11.614,11.614,0,0,0,113,83.758c.128-.128.256-.256.385-.256C113.641,83.758,113.9,83.5,114.026,83.373Z" transform="translate(-113 -78.5)"/>
              </g>
              <g id="Group_10941" data-name="Group 10941">
                <path id="Path_37443" data-name="Path 37443" class="cls-2" d="M123.3,84.516a14.91,14.91,0,0,0,.513-2.308,45.274,45.274,0,0,0,0-5.9V75.027h0V74.9h0a8.97,8.97,0,0,0-.385-4.873,11.2,11.2,0,0,0-5.642-5.771c-5.771-3.078-8.976-1.924-9.233.128a3.006,3.006,0,0,0,.256,1.411,16.409,16.409,0,0,1-5.642,6.283,16.243,16.243,0,0,0-6.027,9.874c-.769,3.719-.385,7.566,1.539,10.259h0S89.7,89.517,89.7,78.489c0-11.156,7.694-20.389,19.62-20.389,6.412,0,12.7,3.078,15.644,10.387,2.821,7.053,0,11.541-1.539,16.157Z" transform="translate(-89.7 -58.1)"/>
              </g>
              <g id="Group_10942" data-name="Group 10942" transform="translate(30.391 26.416)">
                <path id="Path_37444" data-name="Path 37444" class="cls-13" d="M116.478,86.266a22.017,22.017,0,0,0-3.078-2.436,10.894,10.894,0,0,0,3.206-5.129h.128A11.716,11.716,0,0,0,116.478,86.266Z" transform="translate(-113.4 -78.7)"/>
              </g>
              <g id="Group_10943" data-name="Group 10943" transform="translate(13.721 16.224)">
                <path id="Path_37445" data-name="Path 37445" class="cls-2" d="M100.4,71.968v1.667a3.544,3.544,0,0,1,.769.769c0,.385.128.641.128,1.026a2.178,2.178,0,0,0,2.052,1.924l3.847.128a3.232,3.232,0,0,0,2.821-2.436,6.254,6.254,0,0,0,.385-.9,1.314,1.314,0,0,1,1.282-.769h.385a1.147,1.147,0,0,1,1.282.769,6.253,6.253,0,0,1,.385.9,3.1,3.1,0,0,0,2.821,2.436h.128l3.847-.128a2.287,2.287,0,0,0,2.052-1.924,2.823,2.823,0,0,0,.128-1.026,3.545,3.545,0,0,1,.769-.769V71.968s-1.667-1.539-5.642-1.154c-3.847.385-5.129,1.539-5.9,1.539s-2.052-1.154-5.9-1.539S100.4,71.968,100.4,71.968Zm13.721,2.18a1.917,1.917,0,0,1,.385-1.8c.641-.641,1.8-1.026,3.847-1.026h.385c2.693,0,3.462,1.026,3.462,1.539a11.177,11.177,0,0,1-.256,2.565c-.256.9-.769,1.539-1.539,1.539l-3.847.128C115.4,77.1,114.249,75.815,114.121,74.148Zm-12.567-1.282c0-.641.769-1.539,3.462-1.539h.385c2.18.128,3.334.385,3.847,1.026a2.019,2.019,0,0,1,.385,1.8,2.942,2.942,0,0,1-2.565,2.949h-.128l-3.847-.128c-.769,0-1.282-.641-1.539-1.539C101.554,74.276,101.554,73.378,101.554,72.865Z" transform="translate(-100.4 -70.752)"/>
              </g>
              <g id="Group_10944" data-name="Group 10944" transform="translate(18.85 4.096)">
                <path id="Path_37446" data-name="Path 37446" class="cls-2" d="M104.4,63.353c.256-2.18,3.462-3.206,9.233-.128A11.684,11.684,0,0,1,119.275,69a7.827,7.827,0,0,1,.385,4.873h0a7.122,7.122,0,0,0-5-2.949c-3.462-.128-8.72-3.462-10-6.027A3.519,3.519,0,0,1,104.4,63.353Z" transform="translate(-104.4 -61.294)"/>
              </g>
            </g>
            <g id="Group_10962" data-name="Group 10962" transform="translate(14.811 37.444)">
              <g id="Group_10947" data-name="Group 10947" transform="translate(0 0.256)">
                <g id="Group_10946" data-name="Group 10946">
                  <path id="Path_37447" data-name="Path 37447" class="cls-9" d="M96.51,87.885q1.731-.192,3.078-.385a35.785,35.785,0,0,1,0,5.258,1.015,1.015,0,0,0,.641,1.026l.769.385a16.39,16.39,0,0,1-.769,2.949l1.539-.769a23.084,23.084,0,0,1,2.052,1.924c.641.641,1.411,1.411,2.308,2.436a66.972,66.972,0,0,1,5.9,7.95h-7.181a4.28,4.28,0,0,1-3.206-1.539,5.923,5.923,0,0,1-1.282-3.719c0,4.36,2.565,7.822,5.9,7.822h11.8a4.259,4.259,0,0,0,2.693-.9.471.471,0,0,1-.128.385l-1.282,7.566c-.9,4.873,1.154,7.822,2.18,11.156h0a27.953,27.953,0,0,1,2.052,11.156,13.936,13.936,0,0,1-.128,2.308c0,.256-.256.385-.513.385h-2.052c-2.436,0-4.873-4.488-5.258-7.309v0a6.585,6.585,0,0,1-1.924,4.745,7.371,7.371,0,0,1-5.514,2.436H91.637a.453.453,0,0,1-.513-.513,17.523,17.523,0,0,1,.256-2.436,27.881,27.881,0,0,1,4.873-11.8v-.128c3.334-4.232,4.873-7.95,2.693-12.823-.256-.641-2.436-5.386-2.693-6.155h0a41.05,41.05,0,0,1-2.693-8.207,18.19,18.19,0,0,0-2.436-6.155,3.684,3.684,0,0,1,.128-4.1A7.135,7.135,0,0,1,96.51,87.885Z" transform="translate(-90.562 -87.5)"/>
                </g>
              </g>
              <g id="Group_10948" data-name="Group 10948" transform="translate(9.282 0.256)">
                <path id="Path_37448" data-name="Path 37448" class="cls-14" d="M99.211,94.168l-.769-.385a1.142,1.142,0,0,1-.641-1.026c0-1.154.128-3.462,0-5.258h.385A12.126,12.126,0,0,1,99.211,94.168Z" transform="translate(-97.8 -87.5)"/>
              </g>
              <g id="Group_10949" data-name="Group 10949" transform="translate(9.538 0.256)">
                <path id="Path_37449" data-name="Path 37449" class="cls-6" d="M104.925,92.116a7.113,7.113,0,0,1-.769,1.026,11.942,11.942,0,0,1-4.232,3.206l-1.539.769a16.391,16.391,0,0,0,.769-2.949A11.416,11.416,0,0,0,98,87.5h.256a2.761,2.761,0,0,1,1.411.256c5.514,2.565,7.95,4.1,9.874,6.155l-3.334-1.924A.843.843,0,0,0,104.925,92.116Z" transform="translate(-98 -87.5)"/>
              </g>
              <g id="Group_10950" data-name="Group 10950" transform="translate(9.795 16.157)">
                <path id="Path_37450" data-name="Path 37450" class="cls-14" d="M104.1,107.722c-3.206,0-5.9-3.462-5.9-7.822a5.923,5.923,0,0,0,1.282,3.719,4.28,4.28,0,0,0,3.206,1.539h7.181c.9,1.539,1.539,2.565,1.539,2.565Z" transform="translate(-98.2 -99.9)"/>
              </g>
              <g id="Group_10951" data-name="Group 10951" transform="translate(11.334 5.899)">
                <path id="Path_37451" data-name="Path 37451" class="cls-14" d="M103.632,91.9a41.822,41.822,0,0,1,1.924,4.1,1.823,1.823,0,0,1,.256.769c1.924,5.129,3.462,8.463,4.36,10.515a10.677,10.677,0,0,1,1.026,2.565s-.641-1.026-1.539-2.565a66.972,66.972,0,0,0-5.9-7.95c-.9-1.026-1.667-1.8-2.308-2.436A23.081,23.081,0,0,0,99.4,94.978,10.353,10.353,0,0,0,103.632,91.9Z" transform="translate(-99.4 -91.9)"/>
              </g>
              <g id="Group_10952" data-name="Group 10952" transform="translate(15.565 4.36)">
                <path id="Path_37452" data-name="Path 37452" class="cls-6" d="M111.42,90.7a25.616,25.616,0,0,1,1.667,5.514c0,.385.128.641.128,1.026a18.711,18.711,0,0,1-1.411,10.515,11.965,11.965,0,0,1-1.539,2.565,10.677,10.677,0,0,0-1.026-2.565c-.9-2.052-2.436-5.386-4.36-10.515a1.823,1.823,0,0,1-.256-.769,17.357,17.357,0,0,0-1.924-4.1,7.112,7.112,0,0,0,.769-1.026.994.994,0,0,1,1.282-.256l3.334,1.924,2.821-2.052C111.163,90.828,111.292,90.7,111.42,90.7Z" transform="translate(-102.7 -90.7)"/>
              </g>
              <g id="Group_10953" data-name="Group 10953" transform="translate(15.565 4.36)">
                <path id="Path_37453" data-name="Path 37453" class="cls-6" d="M103.6,91.213a.994.994,0,0,1,1.282-.256l3.334,1.924,2.821-2.052a.471.471,0,0,1,.385-.128c.256.641.513,1.282.769,2.052a3.4,3.4,0,0,0-.641-.769l-2.693,1.924h0c-.128,0-.128.128-.256.128h-1.026a.126.126,0,0,1-.128-.128l-3.078-1.8c-.256.385-.513.641-.641.9l-.385.385c-.256-.385-.385-.769-.641-1.154C102.956,91.982,103.213,91.6,103.6,91.213Z" transform="translate(-102.7 -90.7)"/>
              </g>
              <g id="Group_10954" data-name="Group 10954" transform="translate(21.079 0.203)">
                <path id="Path_37454" data-name="Path 37454" class="cls-6" d="M113.283,93.667a10.8,10.8,0,0,1,1.154,3.462.448.448,0,0,0-.128-.256,7.614,7.614,0,0,0-.513-1.026c-.256-.513-.641-1.026-.9-1.539a14.762,14.762,0,0,0-1.8-2.18.85.85,0,0,0-.9-.256c-.128,0-.256.128-.385.128L107,94.052a9.319,9.319,0,0,0,.128-5.9.771.771,0,0,1,.128-.513c.128-.128.256-.256.513-.128h0C107.9,87.127,111.616,90.2,113.283,93.667Z" transform="translate(-107 -87.459)"/>
              </g>
              <g id="Group_10955" data-name="Group 10955" transform="translate(21.72)">
                <path id="Path_37455" data-name="Path 37455" class="cls-2" d="M113.142,92.429a.975.975,0,0,1,0,1.282A17.455,17.455,0,0,0,107.5,87.3h0C109.552,88.2,111.988,91.019,113.142,92.429Z" transform="translate(-107.5 -87.3)"/>
              </g>
              <g id="Group_10956" data-name="Group 10956" transform="translate(23.131 16.799)">
                <path id="Path_37456" data-name="Path 37456" class="cls-14" d="M108.6,107.581a15.166,15.166,0,0,0,1.924-2.565h5.258c1.411-.128,2.693-2.18,2.821-4.616a9.6,9.6,0,0,1-1.667,4.873,7.349,7.349,0,0,1-1.411,1.411,4.835,4.835,0,0,1-2.693.9Z" transform="translate(-108.6 -100.4)"/>
              </g>
              <g id="Group_10957" data-name="Group 10957" transform="translate(23.131 4.31)">
                <path id="Path_37457" data-name="Path 37457" class="cls-14" d="M111.549,97.251c0-.385-.128-.641-.128-1.026a19.993,19.993,0,0,0-1.667-5.514.793.793,0,0,1,.9.256,26.862,26.862,0,0,1,1.8,2.18l-.769.9,1.411.513a.448.448,0,0,1,.256.128c.128.385.385.641.513,1.026v1.411a10.54,10.54,0,0,1-.256,2.693,20.294,20.294,0,0,1-3.078,7.822A15.165,15.165,0,0,1,108.6,110.2a11.965,11.965,0,0,0,1.539-2.565A18.028,18.028,0,0,0,111.549,97.251Z" transform="translate(-108.6 -90.661)"/>
              </g>
              <g id="Group_10958" data-name="Group 10958" transform="translate(26.209 6.925)">
                <path id="Path_37458" data-name="Path 37458" class="cls-14" d="M111,93.6l.769-.9a9.563,9.563,0,0,1,.9,1.539c-.128,0-.128-.128-.256-.128Z" transform="translate(-111 -92.7)"/>
              </g>
              <g id="Group_10960" data-name="Group 10960" transform="translate(21.977)">
                <g id="Group_10959" data-name="Group 10959">
                  <path id="Path_37459" data-name="Path 37459" class="cls-9" d="M116.163,108.715h-5.258a20.294,20.294,0,0,0,3.078-7.822,23.492,23.492,0,0,0,.256-2.693V96.789a.448.448,0,0,0,.128.256,10.8,10.8,0,0,0-1.154-3.462,1.165,1.165,0,0,0,0-1.282c-1.026-1.282-3.591-4.232-5.514-5,1.026.128,2.18.256,3.591.513l1.411.128c2.821.128,5.771,2.308,5.9,5.386a4.732,4.732,0,0,1-1.282,3.078,2.345,2.345,0,0,0,.128,3.078c.128.128.256.256.256.385a5.923,5.923,0,0,1,1.282,3.719v.641C118.728,106.535,117.574,108.587,116.163,108.715Z" transform="translate(-107.7 -87.3)"/>
                </g>
              </g>
              <g id="Group_10961" data-name="Group 10961" transform="translate(22.105 21.415)">
                <path id="Path_37460" data-name="Path 37460" class="cls-6" d="M107.8,104h2.565a11.966,11.966,0,0,1-1.539,2.565A6.845,6.845,0,0,0,107.8,104Z" transform="translate(-107.8 -104)"/>
              </g>
            </g>
            <g id="Group_10963" data-name="Group 10963" transform="translate(1.25 40.121)">
              <path id="Path_37461" data-name="Path 37461" class="cls-4" d="M80.26,114.794a7.236,7.236,0,0,0,.128,4.36,6.932,6.932,0,0,0,4.36,4.1l24.749,7.694a2.555,2.555,0,1,0,1.539-4.873l-24.749-7.694a1.82,1.82,0,0,1-1.154-1.026,2.145,2.145,0,0,1,.128-1.539L99.5,93.25a2.508,2.508,0,1,0-4.232-2.693l-14.234,22.7Z" transform="translate(-79.986 -89.388)"/>
            </g>
            <g id="Group_10964" data-name="Group 10964" transform="translate(25.376 75.017)">
              <path id="Path_37462" data-name="Path 37462" class="cls-6" d="M102.134,117.113c.128,0,.256.256.256.385-1.026,3.462-.641,1.924-1.667,5.386,0,.128-.256.256-.385.256l-1.539-.513c1.282-3.975.641-2.052,1.924-6.027Z" transform="translate(-98.8 -116.6)"/>
            </g>
            <g id="Group_10966" data-name="Group 10966" transform="translate(0 39.264)">
              <g id="Group_10965" data-name="Group 10965">
                <path id="Path_37463" data-name="Path 37463" class="cls-9" d="M79.51,120.24a8.185,8.185,0,0,1-.128-5.258,12.941,12.941,0,0,1,.9-1.924L94.513,90.49a3.766,3.766,0,0,1,5.258-1.154,4.087,4.087,0,0,1,1.667,4.36,6.249,6.249,0,0,1-.385.9L86.691,117.162v.385a.276.276,0,0,0,.256.256l19.107,5.9c.256.128.385.256.256.513v.256c-1.282,3.975-.641,2.052-1.924,6.027v.256c-.128.256-.256.385-.513.256l-19.107-5.9A8.284,8.284,0,0,1,79.51,120.24Z" transform="translate(-79.011 -88.719)"/>
              </g>
            </g>
            <g id="Group_10986" data-name="Group 10986" transform="translate(33.293 59.885)">
              <g id="Group_10967" data-name="Group 10967" transform="translate(0 0.641)">
                <path id="Path_37464" data-name="Path 37464" class="cls-6" d="M110.649,105.941l-5.642,21.8a.842.842,0,0,0,.641,1.026l14.362,3.719a.842.842,0,0,0,1.026-.641l5.642-21.8a.842.842,0,0,0-.641-1.026l-.769-.256-.128.641a.471.471,0,0,1,.128.385.529.529,0,0,1-1.026-.256.276.276,0,0,1,.256-.256l.128-.641-.9-.256-.128.641a.471.471,0,0,1,.128.385.529.529,0,1,1-1.026-.256.276.276,0,0,1,.256-.256l.128-.641-.9-.256-.128.641a.471.471,0,0,1,.128.385.529.529,0,1,1-1.026-.256.276.276,0,0,1,.256-.256l.128-.641-.9-.256-.128.641a.471.471,0,0,1,.128.385.529.529,0,0,1-1.026-.256.276.276,0,0,1,.256-.256l.128-.641-.9-.256-.128.641a.471.471,0,0,1,.128.385.529.529,0,0,1-1.026-.256.276.276,0,0,1,.256-.256l.128-.641-.9-.256-.128.641a.471.471,0,0,1,.128.385.529.529,0,0,1-1.026-.256.276.276,0,0,1,.256-.256l.128-.641-.9-.256-.128.641a.471.471,0,0,1,.128.385.529.529,0,0,1-1.026-.256.276.276,0,0,1,.256-.256l.128-.641-.9-.256-.128.641a.471.471,0,0,1,.128.385.529.529,0,0,1-1.026-.256.276.276,0,0,1,.256-.256l.128-.641-.9-.256-.128.641a.471.471,0,0,1,.128.385.529.529,0,1,1-1.026-.256.276.276,0,0,1,.256-.256l.128-.641-.9-.256A1.151,1.151,0,0,0,110.649,105.941Z" transform="translate(-104.975 -105.3)"/>
              </g>
              <g id="Group_10968" data-name="Group 10968" transform="translate(19.268 4.745)">
                <path id="Path_37465" data-name="Path 37465" class="cls-6" d="M120.385,109.269c.128,0,.385,0,.385-.256l.128-.385a.471.471,0,0,1,.128.385.529.529,0,0,1-1.026-.256.276.276,0,0,1,.256-.256l-.128.385C120.128,109.013,120.128,109.269,120.385,109.269Z" transform="translate(-120 -108.5)"/>
              </g>
              <g id="Group_10969" data-name="Group 10969" transform="translate(17.729 4.36)">
                <path id="Path_37466" data-name="Path 37466" class="cls-6" d="M119.185,108.969c.128,0,.385,0,.385-.256l.128-.385a.471.471,0,0,1,.128.385.529.529,0,1,1-1.026-.256.276.276,0,0,1,.256-.256l-.128.385C118.928,108.713,119.056,108.969,119.185,108.969Z" transform="translate(-118.8 -108.2)"/>
              </g>
              <g id="Group_10970" data-name="Group 10970" transform="translate(16.19 3.975)">
                <path id="Path_37467" data-name="Path 37467" class="cls-6" d="M117.985,108.669c.128,0,.385,0,.385-.256l.128-.385a.471.471,0,0,1,.128.385.529.529,0,0,1-1.026-.256.276.276,0,0,1,.256-.256l-.128.385C117.728,108.413,117.856,108.669,117.985,108.669Z" transform="translate(-117.6 -107.9)"/>
              </g>
              <g id="Group_10971" data-name="Group 10971" transform="translate(14.78 3.591)">
                <path id="Path_37468" data-name="Path 37468" class="cls-6" d="M116.885,108.369c.128,0,.385,0,.385-.256l.128-.385a.471.471,0,0,1,.128.385.529.529,0,0,1-1.026-.256.276.276,0,0,1,.256-.256l-.128.385C116.5,108.113,116.628,108.369,116.885,108.369Z" transform="translate(-116.5 -107.6)"/>
              </g>
              <g id="Group_10972" data-name="Group 10972" transform="translate(13.241 3.206)">
                <path id="Path_37469" data-name="Path 37469" class="cls-6" d="M115.685,108.069c.128,0,.385,0,.385-.256l.128-.385a.471.471,0,0,1,.128.385.529.529,0,1,1-1.026-.256.276.276,0,0,1,.256-.256l-.128.385C115.428,107.813,115.556,108.069,115.685,108.069Z" transform="translate(-115.3 -107.3)"/>
              </g>
              <g id="Group_10973" data-name="Group 10973" transform="translate(11.702 2.821)">
                <path id="Path_37470" data-name="Path 37470" class="cls-6" d="M114.485,107.769c.128,0,.385,0,.385-.256l.128-.385a.471.471,0,0,1,.128.385.529.529,0,0,1-1.026-.256.276.276,0,0,1,.256-.256l-.128.385C114.228,107.513,114.356,107.641,114.485,107.769Z" transform="translate(-114.1 -107)"/>
              </g>
              <g id="Group_10974" data-name="Group 10974" transform="translate(10.163 2.436)">
                <path id="Path_37471" data-name="Path 37471" class="cls-6" d="M113.285,107.469c.128,0,.385,0,.385-.256l.128-.385a.471.471,0,0,1,.128.385.529.529,0,1,1-1.026-.256.276.276,0,0,1,.256-.256l-.128.385C113.028,107.213,113.156,107.341,113.285,107.469Z" transform="translate(-112.9 -106.7)"/>
              </g>
              <g id="Group_10975" data-name="Group 10975" transform="translate(8.753 2.052)">
                <path id="Path_37472" data-name="Path 37472" class="cls-6" d="M112.185,107.169c.128,0,.385,0,.385-.256l.128-.385a.471.471,0,0,1,.128.385.529.529,0,1,1-1.026-.256.276.276,0,0,1,.256-.256l-.128.385C111.928,106.913,111.928,107.041,112.185,107.169Z" transform="translate(-111.8 -106.4)"/>
              </g>
              <g id="Group_10976" data-name="Group 10976" transform="translate(7.214 1.667)">
                <path id="Path_37473" data-name="Path 37473" class="cls-6" d="M110.985,106.869c.128,0,.385,0,.385-.256l.128-.385a.471.471,0,0,1,.128.385.529.529,0,1,1-1.026-.256.276.276,0,0,1,.256-.256l-.128.385C110.728,106.613,110.856,106.741,110.985,106.869Z" transform="translate(-110.6 -106.1)"/>
              </g>
              <g id="Group_10977" data-name="Group 10977" transform="translate(19.396 3.078)">
                <path id="Path_37474" data-name="Path 37474" class="cls-15" d="M120.741,109.38c0,.128-.256.256-.385.256s-.256-.256-.256-.385l.128-.385.128-.641.256-.769c0-.128.256-.256.385-.256s.256.256.256.385l-.256.769-.128.641Z" transform="translate(-120.1 -107.2)"/>
              </g>
              <g id="Group_10978" data-name="Group 10978" transform="translate(7.342)">
                <path id="Path_37475" data-name="Path 37475" class="cls-15" d="M111.341,106.98c0,.128-.256.256-.385.256s-.256-.256-.256-.385l.128-.385.128-.641.256-.769c0-.128.256-.256.385-.256s.256.256.256.385l-.256.769-.128.641Z" transform="translate(-110.7 -104.8)"/>
              </g>
              <g id="Group_10979" data-name="Group 10979" transform="translate(13.369 1.539)">
                <path id="Path_37476" data-name="Path 37476" class="cls-15" d="M116.041,108.18c0,.128-.256.256-.385.256s-.256-.256-.256-.385l.128-.385.128-.641.256-.769c0-.128.256-.256.385-.256s.256.256.256.385l-.256.769-.128.641Z" transform="translate(-115.4 -106)"/>
              </g>
              <g id="Group_10980" data-name="Group 10980" transform="translate(10.291 0.769)">
                <path id="Path_37477" data-name="Path 37477" class="cls-15" d="M113.641,107.58c0,.128-.256.256-.385.256s-.256-.256-.256-.385l.128-.385.128-.641.256-.769c0-.128.256-.256.385-.256s.256.256.256.385l-.256.769-.128.641Z" transform="translate(-113 -105.4)"/>
              </g>
              <g id="Group_10981" data-name="Group 10981" transform="translate(16.318 2.308)">
                <path id="Path_37478" data-name="Path 37478" class="cls-15" d="M118.341,108.78c0,.128-.256.256-.385.256s-.256-.256-.256-.385l.128-.385.128-.641.256-.769c0-.128.256-.256.385-.256s.256.256.256.385l-.256.769-.128.641Z" transform="translate(-117.7 -106.6)"/>
              </g>
              <g id="Group_10982" data-name="Group 10982" transform="translate(17.857 2.693)">
                <path id="Path_37479" data-name="Path 37479" class="cls-15" d="M119.541,109.08c0,.128-.256.256-.385.256s-.256-.256-.256-.385l.128-.385.128-.641.256-.769c0-.128.256-.256.385-.256s.256.256.256.385l-.256.769-.128.641Z" transform="translate(-118.9 -106.9)"/>
              </g>
              <g id="Group_10983" data-name="Group 10983" transform="translate(14.78 1.924)">
                <path id="Path_37480" data-name="Path 37480" class="cls-15" d="M117.141,108.48c0,.128-.256.256-.385.256s-.256-.256-.256-.385l.128-.385.128-.641.256-.769c0-.128.256-.256.385-.256s.256.256.256.385l-.256.769-.128.641Z" transform="translate(-116.5 -106.3)"/>
              </g>
              <g id="Group_10984" data-name="Group 10984" transform="translate(11.83 1.154)">
                <path id="Path_37481" data-name="Path 37481" class="cls-15" d="M114.841,107.88c0,.128-.256.256-.385.256s-.256-.256-.256-.385l.128-.385.128-.641.256-.769c0-.128.256-.256.385-.256s.256.256.256.385l-.256.769-.128.641Z" transform="translate(-114.2 -105.7)"/>
              </g>
              <g id="Group_10985" data-name="Group 10985" transform="translate(8.881 0.385)">
                <path id="Path_37482" data-name="Path 37482" class="cls-15" d="M112.541,107.28c0,.128-.256.256-.385.256s-.256-.256-.256-.385l.128-.385.128-.641.256-.769c0-.128.256-.256.385-.256s.256.256.256.385l-.256.769-.128.641Z" transform="translate(-111.9 -105.1)"/>
              </g>
            </g>
            <g id="Group_10987" data-name="Group 10987" transform="translate(29.335 71.156)">
              <path id="Path_37483" data-name="Path 37483" class="cls-4" d="M108.572,113.731a6.041,6.041,0,0,1,2.18.513l2.436,1.026a.948.948,0,0,1,.513,1.154.126.126,0,0,1-.128.128.771.771,0,0,0-.128.513q0,.192.385.385h0a.949.949,0,0,1,.513,1.154.872.872,0,0,1-1.026.513h-.256s-.128.128,0,.128v.513a.949.949,0,0,1-1.154.513h-.256l-.128.128v.385a.808.808,0,0,1-1.026.385l-1.667-.769a.582.582,0,0,0-.641,0,1,1,0,0,0-.513.513c-.769,2.052-2.308,3.334-3.591,3.206-1.667-.256-2.565-2.693-2.052-5.642C103.058,112.962,103.314,113.475,108.572,113.731Z" transform="translate(-101.888 -113.589)"/>
            </g>
            <g id="Group_10988" data-name="Group 10988" transform="translate(63.076 43.984)">
              <path id="Path_37484" data-name="Path 37484" class="cls-6" d="M128.713,92.656c0-.128.256-.256.385-.256l5.386,1.8c.128,0,.256.256.256.385l-.513,1.539c-3.975-1.282-2.052-.641-6.027-1.924Z" transform="translate(-128.2 -92.4)"/>
            </g>
          </g>
        </g>
        <g id="Group_11082" data-name="Group 11082" transform="translate(168.706 33.583)">
          <g id="Group_11032" data-name="Group 11032">
            <g id="Group_10994" data-name="Group 10994" transform="translate(59.431 72.94)">
              <g id="Group_10991" data-name="Group 10991" transform="translate(0 15.322)">
                <path id="Path_37485" data-name="Path 37485" class="cls-4" d="M182.511,95.508a2.952,2.952,0,1,0-3.334,4.873l3.334,2.308,3.334-4.873Z" transform="translate(-177.919 -95.019)"/>
              </g>
              <g id="Group_10992" data-name="Group 10992" transform="translate(5.479)">
                <path id="Path_37486" data-name="Path 37486" class="cls-3" d="M209.132,122.6A9.307,9.307,0,0,0,214,118.886a7.129,7.129,0,0,0,1.154-2.18L224.52,89.52a4.829,4.829,0,0,0-3.078-6.155,4.758,4.758,0,0,0-5.642,1.924,4.555,4.555,0,0,0-.513,1.154l-9.233,26.929L188.1,101.318a.634.634,0,0,0-.9.128l-.256.256-.513.769-3.334,4.873-.513.769-.256.256a.634.634,0,0,0,.128.9l18.209,12.31A10.349,10.349,0,0,0,209.132,122.6Z" transform="translate(-182.191 -83.07)"/>
              </g>
              <g id="Group_10993" data-name="Group 10993" transform="translate(4.068 17.595)">
                <path id="Path_37487" data-name="Path 37487" class="cls-6" d="M186.745,98.47l.513-.769-1.282-.769a.634.634,0,0,0-.9.128l-.256.256-3.334,4.873-.256.256a.634.634,0,0,0,.128.9l1.282.769.513-.769Z" transform="translate(-181.091 -96.791)"/>
              </g>
            </g>
            <g id="Group_10995" data-name="Group 10995" transform="translate(52.483 82.757)">
              <path id="Path_37488" data-name="Path 37488" class="cls-4" d="M173.654,91.975a1.5,1.5,0,0,0-1.154,1.411,1.3,1.3,0,0,0,.513.9c.128,0,.128.128.128.256s0,.128-.128.256a1,1,0,0,0-.256,1.026,1.3,1.3,0,0,0,.513.9c.128,0,.128.128.128.256s0,.128-.128.256a1,1,0,0,0-.256,1.026,1.33,1.33,0,0,0,.769,1.026.126.126,0,0,1,.128.128v.256a1.626,1.626,0,0,0-.128.769,1.374,1.374,0,0,0,1.411,1.154l3.462-.9a1.164,1.164,0,0,1,.9.385c1.154,1.411,2.693,2.18,3.847,1.8,1.924-.513,2.565-3.719,1.282-7.053C182.63,89.282,180.322,90.308,173.654,91.975Z" transform="translate(-172.5 -90.725)"/>
            </g>
            <g id="Group_10996" data-name="Group 10996" transform="translate(45.929)">
              <path id="Path_37489" data-name="Path 37489" class="cls-2" d="M199.718,265.1a1.991,1.991,0,0,1-2.18-1.667L167.4,28.383a1.941,1.941,0,0,1,3.847-.513l30.263,235.052A2,2,0,0,1,199.718,265.1Z" transform="translate(-167.389 -26.189)"/>
            </g>
            <g id="Group_10997" data-name="Group 10997" transform="translate(53.489 84.42)">
              <path id="Path_37490" data-name="Path 37490" class="cls-4" d="M183.563,94.174a1.1,1.1,0,0,0-.769-.9,19.625,19.625,0,0,0-8.463-1.154,1.161,1.161,0,0,0,.256,2.308,20.72,20.72,0,0,1,7.566,1.154,1.106,1.106,0,0,0,1.411-.769C183.563,94.558,183.691,94.3,183.563,94.174Z" transform="translate(-173.285 -92.022)"/>
            </g>
            <g id="Group_11000" data-name="Group 11000" transform="translate(86.344 132.929)">
              <g id="Group_10998" data-name="Group 10998">
                <path id="Path_37491" data-name="Path 37491" class="cls-2" d="M209.414,226.6a.666.666,0,0,0,.256-.513c-1.539-35.905,1.923-62.065,11.669-89.25a4.808,4.808,0,0,0-.256-3.975,5.5,5.5,0,0,0-2.949-2.693,3.018,3.018,0,0,0-1.026-.256,5.152,5.152,0,0,0-5.642,3.462c-10,28.211-13.593,55.012-12.31,91.559a.852.852,0,0,0,.513.641l.769.128,7.822,1.154.513.128C209.157,226.73,209.285,226.73,209.414,226.6Z" transform="translate(-198.905 -129.851)"/>
              </g>
              <g id="Group_10999" data-name="Group 10999" transform="translate(1.66 95.468)">
                <path id="Path_37492" data-name="Path 37492" class="cls-3" d="M200.585,209.814a3.838,3.838,0,0,0,3.334,3.591h.769a3.889,3.889,0,0,0,3.719-4.1c-.128-1.667-.256-2.308-.385-3.847L200.2,204.3C200.328,206.608,200.456,207.634,200.585,209.814Z" transform="translate(-200.2 -204.3)"/>
              </g>
            </g>
            <g id="Group_11003" data-name="Group 11003" transform="translate(117.033 132.992)">
              <g id="Group_11001" data-name="Group 11001">
                <path id="Path_37493" data-name="Path 37493" class="cls-2" d="M249.334,224.536a.972.972,0,0,0,.513-.256.39.39,0,0,0,0-.513c-12.567-33.725-17.312-59.629-16.542-88.481a5.259,5.259,0,0,0-5-5.386,2.824,2.824,0,0,0-1.026.128,5.331,5.331,0,0,0-4.36,5c-.769,29.878,3.975,56.551,16.542,90.789a.623.623,0,0,0,.769.385l.769-.128,7.822-1.411Z" transform="translate(-222.838 -129.9)"/>
              </g>
              <g id="Group_11002" data-name="Group 11002" transform="translate(18.161 94.764)">
                <path id="Path_37494" data-name="Path 37494" class="cls-3" d="M239.052,210.212a3.893,3.893,0,0,0,4.36,2.436,1.823,1.823,0,0,0,.769-.256,3.827,3.827,0,0,0,2.18-5c-.641-1.539-1.026-2.052-1.539-3.591L237,205.211C237.641,207.134,238.282,208.16,239.052,210.212Z" transform="translate(-237 -203.8)"/>
              </g>
            </g>
            <g id="Group_11004" data-name="Group 11004" transform="translate(129.231 229.808)">
              <path id="Path_37495" data-name="Path 37495" class="cls-7" d="M232.542,213.607a1.9,1.9,0,0,1,0-1.667,11.739,11.739,0,0,1,7.181-6.54c3.334,0,3.462,4.1,5.771,4.1a2.456,2.456,0,0,0,1.923-.769c.128-.128.256-.256.385-.128.128,0,.256.128.385.256a17.084,17.084,0,0,1,.641,2.436,3.1,3.1,0,0,1-.513,2.18,2.4,2.4,0,0,1-1.8,1.026H233.953A1.739,1.739,0,0,1,232.542,213.607Z" transform="translate(-232.35 -205.4)"/>
            </g>
            <g id="Group_11007" data-name="Group 11007" transform="translate(113.132 55.021)">
              <g id="Group_11005" data-name="Group 11005" transform="translate(0 0)">
                <path id="Path_37496" data-name="Path 37496" class="cls-4" d="M224.418,97.954a5.075,5.075,0,0,1-3.847-4.745l-.769-18.85a5.069,5.069,0,0,1,10.13-.385l.769,18.85a5.038,5.038,0,0,1-4.873,5.258A5.26,5.26,0,0,1,224.418,97.954Z" transform="translate(-219.796 -69.096)"/>
              </g>
              <g id="Group_11006" data-name="Group 11006" transform="translate(0.128)">
                <path id="Path_37497" data-name="Path 37497" class="cls-5" d="M230.288,82.053l-.256-8.079a5.069,5.069,0,0,0-10.13.385l.385,10.9a27.219,27.219,0,0,0,5.9-1.282A23.936,23.936,0,0,0,230.288,82.053Z" transform="translate(-219.896 -69.096)"/>
              </g>
            </g>
            <g id="Group_11018" data-name="Group 11018" transform="translate(95.698 70.927)">
              <g id="Group_11008" data-name="Group 11008" transform="translate(4.873 63.091)">
                <path id="Path_37498" data-name="Path 37498" class="cls-2" d="M218.848,130.7c-.256,4.36-2.18,7.822-6.668,7.438l-2.18-.128c2.18,2.693,6.155,4.232,12.31,4.616,4.873.385,8.592-.641,11.285-2.949l-7.566-.513C220.13,138.779,218.463,135.188,218.848,130.7Z" transform="translate(-210 -130.7)"/>
              </g>
              <g id="Group_11009" data-name="Group 11009" transform="translate(23.074 54.627)">
                <path id="Path_37499" data-name="Path 37499" class="cls-2" d="M232.024,124.613h-.257c-.641,0-2.308-.128-6.412-.513a.991.991,0,0,0-1.026.9l-.128,1.539a3.589,3.589,0,0,0,3.334,3.847l6.668.513a19.42,19.42,0,0,0-1.154-6.155h-.128A2.889,2.889,0,0,0,232.024,124.613Z" transform="translate(-224.194 -124.1)"/>
              </g>
              <g id="Group_11010" data-name="Group 11010" transform="translate(20.133 0.898)">
                <path id="Path_37500" data-name="Path 37500" class="cls-6" d="M222.669,89v.256a.666.666,0,0,0,.256.513.39.39,0,0,0,.513,0l2.18-.769c.256-.385.385-.9.641-1.282a26.286,26.286,0,0,1,3.078-4.873,2.251,2.251,0,0,1,.513-.641,1.962,1.962,0,0,0-1.282.513,17.79,17.79,0,0,1-6.668,1.411Z" transform="translate(-221.9 -82.2)"/>
              </g>
              <g id="Group_11011" data-name="Group 11011" transform="translate(15.644 0.128)">
                <path id="Path_37501" data-name="Path 37501" class="cls-6" d="M218.528,87.627c0,.128-.128.385-.128.513h0l1.026,1.026a.98.98,0,0,0,.641.256c.256,0,.385-.128.513-.385l.128-.128,2.308-4.616c-1.411-.128-2.052-.641-2.308-1.282V81.6h-.385l-.385,1.154C219.426,84.421,218.913,86.088,218.528,87.627Z" transform="translate(-218.4 -81.6)"/>
              </g>
              <g id="Group_11012" data-name="Group 11012" transform="translate(14.337 6.54)">
                <path id="Path_37502" data-name="Path 37502" class="cls-6" d="M221,90.062c0-.128,0-.128.128-.256h0v-.256c0-.128,0-.128.128-.256h0a1.4,1.4,0,0,0,0-1.026l-.128-.256h0L221,87.369l-.128.128c-.128.256-.256.385-.513.385a.706.706,0,0,1-.641-.256L218.688,86.6h0c-.256,1.154-.385,2.18-.641,3.334a60.577,60.577,0,0,0-.513,13.465C218.944,97.243,220.355,92.114,221,90.062Z" transform="translate(-217.38 -86.6)"/>
              </g>
              <g id="Group_11013" data-name="Group 11013" transform="translate(18.466 7.694)">
                <path id="Path_37503" data-name="Path 37503" class="cls-6" d="M224.96,90.065c.385-.9.769-1.667,1.154-2.565l-2.18.769h-.513a.666.666,0,0,1-.256-.513V87.5l-.513.641h0l-.256.256a1.456,1.456,0,0,0-.385,1.026h0v.513c-.256,2.436-1.026,8.079-1.411,12.952A75.852,75.852,0,0,1,224.96,90.065Z" transform="translate(-220.6 -87.5)"/>
              </g>
              <g id="Group_11014" data-name="Group 11014" transform="translate(0 0.256)">
                <path id="Path_37504" data-name="Path 37504" class="cls-3" d="M251.595,89.522a4.8,4.8,0,0,0-2.18-3.078A32.357,32.357,0,0,0,237.361,82.6l-.128,1.154-.513,3.975a.813.813,0,0,1-.641.769l-2.18.769.513.256a.852.852,0,0,1,.513.641,1.221,1.221,0,0,1-.256.9c-.256.256-.513.641-.9,1.026-3.334,4.488-10.259,15.9-11.669,22.569v-.513c-2.436-6.54-3.975-17.183-4.1-22.313a11.108,11.108,0,0,1,.128-2.308,1.125,1.125,0,0,1,.769-.9l.641-.128-.641-.641a1,1,0,0,1-.256-1.026,18.044,18.044,0,0,1,1.8-3.462c.256-.513.641-1.026,1.026-1.667a37.657,37.657,0,0,0-10.387,2.052,4.442,4.442,0,0,0-2.565,2.693,4.686,4.686,0,0,0,0,3.719l.385.769a8.285,8.285,0,0,1,1.154,5,68.513,68.513,0,0,0,0,19.876,49.143,49.143,0,0,1-1.154,20.261s-.769,5.514-2.693,13.977a1.59,1.59,0,0,0,1.539,1.667l2.308.128h.9l2.18.128c4.616.385,6.412-3.078,6.668-7.438-.256,4.36,1.411,8.079,7.181,8.463l7.566.513h.9l2.308.128a1.841,1.841,0,0,0,2.18-1.411l-.641-9.1h0v-.513l-6.668-.513a3.68,3.68,0,0,1-3.334-3.847l.128-1.539a.991.991,0,0,1,1.026-.9c4.232.256,5.771.385,6.412.513h.385a3.384,3.384,0,0,1,.9.128h.128c-2.18-6.155-2.565-12.054.9-18.337a38.737,38.737,0,0,0,2.308-4.616c.641-1.154,1.154-2.308,1.667-3.334a33.39,33.39,0,0,0,4.1-11.413,6.387,6.387,0,0,1,2.693-4.488,11.564,11.564,0,0,0,1.154-1.282A5.133,5.133,0,0,0,251.595,89.522Z" transform="translate(-206.2 -81.7)"/>
              </g>
              <g id="Group_11015" data-name="Group 11015" transform="translate(15.901 0.898)">
                <path id="Path_37505" data-name="Path 37505" class="cls-2" d="M227.32,87.714c-.256.385-.385.9-.641,1.282-.385.9-.769,1.667-1.154,2.565a112.458,112.458,0,0,0-4.616,12.823h0c-1.539,5.386-2.308,9.361-2.308,9.361V114h0v.513c1.411-6.668,8.335-18.081,11.669-22.569.385-.385.641-.769.9-1.026a1.082,1.082,0,0,0,.256-.9.852.852,0,0,0-.513-.641l-.513-.256,2.18-.769c.385-.128.513-.385.641-.769l.513-3.975.128-1.154c-.385,0-.769-.128-1.154-.128l-1.8-.128c-.128.256-.385.385-.513.641A38.856,38.856,0,0,0,227.32,87.714Z" transform="translate(-218.6 -82.2)"/>
              </g>
              <g id="Group_11016" data-name="Group 11016" transform="translate(11.926)">
                <path id="Path_37506" data-name="Path 37506" class="cls-2" d="M216.141,86.758a.8.8,0,0,0,.256,1.026l.641.641-.641.128a1.125,1.125,0,0,0-.769.9,11.108,11.108,0,0,0-.128,2.308c.128,5.129,1.667,15.773,4.1,22.313h0a89.16,89.16,0,0,1-1.282-9.233,53.542,53.542,0,0,1,.513-13.465c.128-1.026.385-2.18.641-3.334,0-.128.128-.385.128-.513a34.856,34.856,0,0,1,1.411-4.873L221.4,81.5h-2.18a7.269,7.269,0,0,0-1.026,1.667A13.832,13.832,0,0,0,216.141,86.758Z" transform="translate(-215.5 -81.5)"/>
              </g>
              <g id="Group_11017" data-name="Group 11017" transform="translate(14.49 3.078)">
                <path id="Path_37507" data-name="Path 37507" class="cls-9" d="M220.834,88.26l.128.641h0l.128.256a1.4,1.4,0,0,1,0,1.026h0c0,.128,0,.128-.128.256V90.7h0c0,.128,0,.128-.128.256-.641,2.18-1.924,7.309-3.334,13.465a89.168,89.168,0,0,0,1.282,9.233v-.256s.769-3.975,2.308-9.361h0c.385-4.873,1.154-10.643,1.411-12.952v-.513h0a2.448,2.448,0,0,1,.385-1.026l.256-.256h0l.513-.641-.641-4.745Z" transform="translate(-217.5 -83.9)"/>
              </g>
            </g>
            <g id="Group_11019" data-name="Group 11019" transform="translate(76.412 229.501)">
              <path id="Path_37508" data-name="Path 37508" class="cls-7" d="M211.344,208.16a.483.483,0,0,0-.769-.128,3.4,3.4,0,0,0-.769.641c-.9.769-1.154.769-2.821.769-1.411,0-2.18-2.949-3.975-3.975a1.879,1.879,0,0,0-1.411-.256,14.8,14.8,0,0,0-10.259,6.668,1.577,1.577,0,0,0,.128,1.667,2.192,2.192,0,0,0,1.667.9h16.414a3.5,3.5,0,0,0,2.436-1.026,2.083,2.083,0,0,0,.641-2.18A12.13,12.13,0,0,0,211.344,208.16Z" transform="translate(-191.161 -205.161)"/>
            </g>
            <g id="Group_11024" data-name="Group 11024" transform="translate(131.524 9.143)">
              <g id="Group_11020" data-name="Group 11020" transform="translate(14.629)">
                <path id="Path_37509" data-name="Path 37509" class="cls-4" d="M249.59,33.679c5.386-1.411,5.386,1.539,6.155,5s-.769,6.8-3.334,7.438c-2.693.641-5.386-1.539-6.155-5C245.487,37.783,244.2,35.09,249.59,33.679Z" transform="translate(-245.546 -33.319)"/>
              </g>
              <g id="Group_11021" data-name="Group 11021" transform="translate(17.483 5.582)">
                <path id="Path_37510" data-name="Path 37510" class="cls-4" d="M247.808,41.042a2.92,2.92,0,1,1,5.771-.9l.641,4.1-5.771.9Z" transform="translate(-247.772 -37.672)"/>
              </g>
              <g id="Group_11022" data-name="Group 11022" transform="translate(0 14.082)">
                <path id="Path_37511" data-name="Path 37511" class="cls-3" d="M242.937,104.057a4.7,4.7,0,0,1-3.206,1.924,4.516,4.516,0,0,1-3.591-.9,5.217,5.217,0,0,1-1.924-3.206,4.516,4.516,0,0,1,.9-3.591l16.157-21.928a13.147,13.147,0,0,0,2.436-10l-3.078-20.133a.7.7,0,0,1,.513-.769h.385l1.026-.128,5.771-.9,1.026-.128h.385a.7.7,0,0,1,.769.513l3.078,20.133a23.4,23.4,0,0,1-4.232,17.183Z" transform="translate(-234.138 -44.3)"/>
              </g>
              <g id="Group_11023" data-name="Group 11023" transform="translate(17.134 12.158)">
                <path id="Path_37512" data-name="Path 37512" class="cls-6" d="M248.782,45.749l-1.026.128-.256-1.411a.7.7,0,0,1,.513-.769h.385l5.77-.9h.385a.7.7,0,0,1,.769.513l.256,1.411-1.026.128Z" transform="translate(-247.5 -42.8)"/>
              </g>
            </g>
            <g id="Group_11028" data-name="Group 11028" transform="translate(0 0.363)">
              <g id="Group_11025" data-name="Group 11025">
                <path id="Path_37513" data-name="Path 37513" class="cls-8" d="M225.731,26.508l-91.559,11.8a2.92,2.92,0,0,0-2.565,3.334l7.181,56.038a2.92,2.92,0,0,0,3.334,2.565l91.559-11.8a2.92,2.92,0,0,0,2.565-3.334l-7.181-56.038A2.92,2.92,0,0,0,225.731,26.508Z" transform="translate(-131.572 -26.472)"/>
              </g>
              <g id="Group_11027" data-name="Group 11027" transform="translate(15.054 21.687)">
                <g id="Group_11026" data-name="Group 11026">
                  <path id="Path_37514" data-name="Path 37514" class="cls-9" d="M153.042,65.089l1.923-14.875a1.5,1.5,0,0,1,1.282-1.282L157.4,48.8c1.026-.128,1.8.513,1.667,1.411l-3.078,23.467a1.647,1.647,0,0,1-1.282,1.282l-.9.128a1.319,1.319,0,0,1-1.539-.9l-8.848-21.928c-.385-.9.256-1.667,1.282-1.8l1.154-.128a1.452,1.452,0,0,1,1.539.9Z" transform="translate(-143.312 -41.859)"/>
                  <path id="Path_37515" data-name="Path 37515" class="cls-9" d="M159.725,55.83c-.641-4.745,1.411-7.694,5.9-8.207,4.616-.641,7.181,1.667,7.822,6.412l1.411,10.643c.385,2.949-.256,4.873-1.411,6.155a6.6,6.6,0,0,1-4.488,2.052,6.718,6.718,0,0,1-4.873-.9c-1.411-1.026-2.565-2.565-2.949-5.642Zm5.642,10.13c.256,2.436,1.411,3.591,3.206,3.334s2.565-1.411,2.18-3.975l-1.411-10.643c-.385-2.565-1.282-3.462-3.206-3.334-1.8.256-2.565,1.539-2.18,3.975Z" transform="translate(-138.71 -42.218)"/>
                  <path id="Path_37516" data-name="Path 37516" class="cls-9" d="M173.6,48.054a1.421,1.421,0,0,1,1.282-1.539L185.914,45.1a1.384,1.384,0,0,1,1.667,1.154l.128,1.026a1.421,1.421,0,0,1-1.282,1.539l-3.462.385,2.565,20.261a1.421,1.421,0,0,1-1.282,1.539l-1.154.128a1.384,1.384,0,0,1-1.667-1.154l-2.565-20.261-3.334.385a1.384,1.384,0,0,1-1.667-1.154Z" transform="translate(-134.764 -42.905)"/>
                  <path id="Path_37517" data-name="Path 37517" class="cls-9" d="M198.891,43.4a1.384,1.384,0,0,1,1.667,1.154l.128,1.026a1.421,1.421,0,0,1-1.282,1.539l-6.412.769.9,7.053,5.258-.641a1.384,1.384,0,0,1,1.667,1.154l.128,1.026a1.421,1.421,0,0,1-1.282,1.539l-5.258.641.9,7.181,6.412-.769a1.384,1.384,0,0,1,1.667,1.154l.128,1.026a1.421,1.421,0,0,1-1.282,1.539l-9.1,1.154a1.384,1.384,0,0,1-1.667-1.154L188.5,46.1a1.421,1.421,0,0,1,1.282-1.539Z" transform="translate(-130.558 -43.385)"/>
                </g>
              </g>
            </g>
            <g id="Group_11031" data-name="Group 11031" transform="translate(100.693 31.048)">
              <g id="Group_11029" data-name="Group 11029" transform="translate(0.109 2.382)">
                <path id="Path_37518" data-name="Path 37518" class="cls-4" d="M243.546,68.341v-.385c.641-7.95-6.283-15-15.26-15.644a20.619,20.619,0,0,0-3.975.128,16.563,16.563,0,0,0-10.13,5.514,13.967,13.967,0,0,0-2.693,4.873,24.131,24.131,0,0,0-.9,6.8,55.925,55.925,0,0,0-.385,6.54,13.435,13.435,0,0,0,5.258,10c3.719,2.821,8.848,2.052,12.823.641a25.56,25.56,0,0,0,10.387-6.925A21.037,21.037,0,0,0,243.546,68.341Z" transform="translate(-210.18 -52.259)"/>
              </g>
              <g id="Group_11030" data-name="Group 11030">
                <path id="Path_37519" data-name="Path 37519" class="cls-11" d="M244.981,63.351c-.128-4.873-3.975-7.822-8.976-10.643a12.553,12.553,0,0,0-7.309-1.282c-1.282.128-1.539-.641-2.565-.9-2.052-.513-3.206.641-5.77,1.411s-3.462-.128-5.9,1.282a5.379,5.379,0,0,0-1.8,2.308,5.3,5.3,0,0,1-.9,1.411c-1.539,2.052-2.308,5-1.026,9.233,0,.128,0,.128.128.256a13.166,13.166,0,0,1,.641-3.078c.256-.641.513-1.282.769-1.8a1,1,0,0,1,.513-.513.848.848,0,0,1,.769.128,5.8,5.8,0,0,0,3.334,1.154c3.078.256,3.462-2.308,6.8-2.052,3.206.256,3.078,2.693,7.438,3.591a11.735,11.735,0,0,0,2.052.128.98.98,0,0,1,.641.256.848.848,0,0,1,.128.769,4.71,4.71,0,0,0-.128,2.308,13.785,13.785,0,0,1,.128,3.975c-.128.641-.256,1.154-.385,1.8a3.3,3.3,0,0,0-.128,1.924c.256.641.9.256,1.154-.256a4.594,4.594,0,0,0,.513-1.411,7.156,7.156,0,0,1,1.154-2.693.98.98,0,0,1,.641-.256.705.705,0,0,1,.641.385,8.665,8.665,0,0,0,3.334,3.206.914.914,0,0,1,.385.769,3.745,3.745,0,0,1-.256,1.154,8.969,8.969,0,0,1-2.18,3.975,26.078,26.078,0,0,1-6.027,5.386h0c4.616.385,5-.769,5.514-1.8.513-1.154.9-2.565,1.667-3.206h0C249.341,72.328,245.109,68.224,244.981,63.351ZM233.825,84.638a5.573,5.573,0,0,1-.9.513C233.183,85.023,233.568,84.766,233.825,84.638Z" transform="translate(-210.095 -50.401)"/>
              </g>
            </g>
          </g>
          <g id="Group_11081" data-name="Group 11081" transform="translate(131.455 42.859)">
            <g id="Group_11037" data-name="Group 11037" transform="translate(0 20.145)">
              <g id="Group_11033" data-name="Group 11033">
                <path id="Path_37520" data-name="Path 37520" class="cls-4" d="M240.26,79.782a.817.817,0,0,0,.769,0,.705.705,0,0,0,.385-.641,11.033,11.033,0,0,1,.9-3.206,1.061,1.061,0,0,1,1.924.9,10.662,10.662,0,0,0-.769,2.436c-.385,4.1,1.924,4.616.641,7.181-1.026,2.052-3.847,2.693-6.412,1.411s-4.873-1.8-2.821-6.027C236.669,78.243,238.208,78.756,240.26,79.782Z" transform="translate(-234.085 -75.322)"/>
              </g>
              <g id="Group_11034" data-name="Group 11034" transform="translate(3.932 6.834)">
                <path id="Path_37521" data-name="Path 37521" class="cls-4" d="M289.277,98.923a.98.98,0,0,1-.641.256l-24.493,9.233a10.17,10.17,0,0,1-11.669-3.462L237.6,84.561a2.475,2.475,0,1,1,3.975-2.949L256.449,102a5.176,5.176,0,0,0,5.9,1.8l24.493-9.233a2.46,2.46,0,0,1,3.206,1.411A2.351,2.351,0,0,1,289.277,98.923Z" transform="translate(-237.151 -80.651)"/>
              </g>
              <g id="Group_11035" data-name="Group 11035" transform="translate(6.175 10.359)">
                <path id="Path_37522" data-name="Path 37522" class="cls-6" d="M244.029,85.452c.256-.128.513-.385.9-.641l-.9-1.282a.771.771,0,0,0-.513-.128c-2.949,2.052-1.667,1.154-4.488,3.206-.128.128-.128.256-.128.513l.9,1.282c2.949-2.18,2.052-1.411,4.232-2.949Z" transform="translate(-238.9 -83.4)"/>
              </g>
              <g id="Group_11036" data-name="Group 11036" transform="translate(6.891 11.46)">
                <path id="Path_37523" data-name="Path 37523" class="cls-3" d="M263.876,108.548l24.493-9.233a3.214,3.214,0,0,0,.9-.513,3.654,3.654,0,0,0,1.282-4.36,3.772,3.772,0,0,0-1.924-2.052,4.27,4.27,0,0,0-2.821-.128l-24.493,9.233a3.832,3.832,0,0,1-4.36-1.282L245.539,84.44a.564.564,0,0,0-.641-.128l-.128.128c-.385.256-.641.513-.9.641h0c-2.18,1.539-1.154.769-4.1,2.949l-.128.128c-.128.128-.256.385-.128.513l11.413,15.773A10.912,10.912,0,0,0,263.876,108.548Z" transform="translate(-239.459 -84.259)"/>
              </g>
            </g>
            <g id="Group_11043" data-name="Group 11043" transform="translate(51.57 2.591)">
              <g id="Group_11038" data-name="Group 11038" transform="translate(0.256 24.707)">
                <path id="Path_37524" data-name="Path 37524" class="cls-13" d="M292.581,92.056c.257-2.693.385-4.616.641-6.155a13.961,13.961,0,0,1-3.206,1.282c-3.591,1.154-8.207,1.8-11.413-.769a11.717,11.717,0,0,1-3.847-5.514c-.128.769-.128,1.411-.256,2.18,0,0,.256,16.029,15,17.44,4.36.385,7.694.769,10.515,1.026C292.453,100.776,292.581,92.056,292.581,92.056Z" transform="translate(-274.5 -80.9)"/>
              </g>
              <g id="Group_11039" data-name="Group 11039" transform="translate(11.926 20.725)">
                <path id="Path_37525" data-name="Path 37525" class="cls-4" d="M287.447,99.858h-.513a4,4,0,0,1-3.334-3.975l.641-14.362a3.889,3.889,0,0,1,4.1-3.719,4.084,4.084,0,0,1,3.847,4.1l-.641,14.362A3.873,3.873,0,0,1,287.447,99.858Z" transform="translate(-283.6 -77.795)"/>
              </g>
              <g id="Group_11040" data-name="Group 11040" transform="translate(12.054 20.597)">
                <path id="Path_37526" data-name="Path 37526" class="cls-5" d="M291.779,88.345l.256-6.54a3.98,3.98,0,0,0-7.95-.385L283.7,90.91a16.969,16.969,0,0,0,4.232-1.026A17.216,17.216,0,0,0,291.779,88.345Z" transform="translate(-283.7 -77.695)"/>
              </g>
              <g id="Group_11041" data-name="Group 11041" transform="translate(0 0.259)">
                <path id="Path_37527" data-name="Path 37527" class="cls-4" d="M304.05,76.024c.641-7.053-5.258-13.465-13.08-14.106a11.388,11.388,0,0,0-3.591.128,15.016,15.016,0,0,0-9.1,4.745,11.752,11.752,0,0,0-2.436,4.232c-.769,1.924-.769,3.975-1.026,6.155-.128,1.924-.513,3.847-.513,5.771a11.613,11.613,0,0,0,4.488,8.976c3.206,2.565,7.694,1.924,11.413.769a20.737,20.737,0,0,0,9.233-6.027,19.7,19.7,0,0,0,4.616-10.259A.24.24,0,0,1,304.05,76.024Z" transform="translate(-274.3 -61.834)"/>
              </g>
              <g id="Group_11042" data-name="Group 11042" transform="translate(5.642)">
                <path id="Path_37528" data-name="Path 37528" class="cls-13" d="M292.165,72.619A14.931,14.931,0,0,1,287.676,68c-.9-1.411-1.539-2.949-2.436-4.1a7.348,7.348,0,0,0-1.411-1.411,3.215,3.215,0,0,0-.9-.513,5.9,5.9,0,0,0-4.232.128,9.469,9.469,0,0,0,.256,1.539c.128.385.128.769.257,1.154a14.582,14.582,0,0,0,3.719,6.412A14.732,14.732,0,0,0,293.19,75.44a14.417,14.417,0,0,0,3.847-.385A21.488,21.488,0,0,1,292.165,72.619Z" transform="translate(-278.7 -61.633)"/>
              </g>
            </g>
            <g id="Group_11044" data-name="Group 11044" transform="translate(62.476 91.109)">
              <path id="Path_37529" data-name="Path 37529" class="cls-4" d="M288.825,130.968a3.662,3.662,0,0,0-2.052,2.821l-3.719,37.957a51.451,51.451,0,0,0,4.36,26.288l13.593,29.622a3.536,3.536,0,0,0,4.616,1.667,3.225,3.225,0,0,0,1.667-4.488L293.7,195.212a45.111,45.111,0,0,1-3.847-22.826l3.719-37.957a3.361,3.361,0,0,0-3.078-3.719A2.445,2.445,0,0,0,288.825,130.968Z" transform="translate(-282.805 -130.661)"/>
            </g>
            <g id="Group_11045" data-name="Group 11045" transform="translate(44.173 91.09)">
              <path id="Path_37530" data-name="Path 37530" class="cls-4" d="M278.108,233.43a3.328,3.328,0,0,1-3.334-2.693c-7.566-37.316-8.207-68.092-2.18-97.329a3.511,3.511,0,0,1,4.1-2.693,3.35,3.35,0,0,1,2.693,3.975c-5.771,28.34-5.129,58.346,2.18,94.636a3.381,3.381,0,0,1-2.693,3.975A1.626,1.626,0,0,1,278.108,233.43Z" transform="translate(-268.532 -130.647)"/>
            </g>
            <g id="Group_11046" data-name="Group 11046" transform="translate(47.508 39.024)">
              <path id="Path_37531" data-name="Path 37531" class="cls-4" d="M300.2,143.2A36.111,36.111,0,0,0,298.4,135a20.259,20.259,0,0,0-2.565-4.616c.256.385.513.9.769,1.282-2.821-4.488-4.488-8.848-1.411-14.234l3.334-5.771a32.964,32.964,0,0,0,1.923-3.719c5.514-12.182-.128-17.055-9.1-17.824-10.13-.9-13.465,6.8-14.49,13.593a19.318,19.318,0,0,0,0,7.181l.641,7.694a13.153,13.153,0,0,1-1.411,7.309l-2.052,4.232a26.17,26.17,0,0,0-2.821,10.387c-.9,9.874,5.258,12.823,15.9,13.849C286.992,154.361,301.354,156.284,300.2,143.2Z" transform="translate(-271.133 -90.044)"/>
            </g>
            <g id="Group_11047" data-name="Group 11047" transform="translate(43.363 79.874)">
              <path id="Path_37532" data-name="Path 37532" class="cls-2" d="M299.189,124.593a20.512,20.512,0,0,0-1.411-2.436.666.666,0,0,0-.513-.256H273.542c-.256,0-.385.128-.513.385-.513,1.154-1.8,4.232-1.8,10.515v1.282a44.514,44.514,0,0,1-.641,10.9,188.265,188.265,0,0,0-2.693,31.545.552.552,0,0,0,.513.513h28.6a.552.552,0,0,0,.513-.513V159.6a104.836,104.836,0,0,1,.385-11.926,15.953,15.953,0,0,1,2.308-6.668c1.026-1.411,2.18-3.847,1.411-8.335A24.331,24.331,0,0,0,299.189,124.593Z" transform="translate(-267.9 -121.9)"/>
            </g>
            <g id="Group_11062" data-name="Group 11062" transform="translate(45.799 38.198)">
              <g id="Group_11048" data-name="Group 11048" transform="translate(0 1.667)">
                <path id="Path_37533" data-name="Path 37533" class="cls-3" d="M301.474,91.341c-1.154-.256-2.18-.513-3.078-.641a26.592,26.592,0,0,0-.513,5.129,1.117,1.117,0,0,1-.769,1.026l-.769.256a17.523,17.523,0,0,0,.513,2.949,5.3,5.3,0,0,1-1.411-.9c-.513.385-1.154.9-2.18,1.667a29.462,29.462,0,0,0-2.565,2.18,70.138,70.138,0,0,0-6.54,7.309l7.053.641a4.441,4.441,0,0,0,3.334-1.154,5.543,5.543,0,0,0,1.667-3.462c-.385,4.232-3.334,7.438-6.54,7.053l-7.438-.641-4.1-.385a6.358,6.358,0,0,1-2.565-1.026v.385l.641,7.566c.385,4.873-1.924,7.566-3.206,10.772h0a29.011,29.011,0,0,0-3.078,10.772,13.188,13.188,0,0,0-.128,2.18.552.552,0,0,0,.513.513l2.052.128c2.308.256,5.258-3.975,5.9-6.668,0-.256.128-.641.128-.9a2.5,2.5,0,0,1-.128.9,7.49,7.49,0,0,0,1.411,4.873,7.566,7.566,0,0,0,5.129,2.949c.385,0,16.67,1.539,16.286,1.539a.453.453,0,0,0,.513-.513v-2.308a28.79,28.79,0,0,0-3.719-11.926v-.128c-2.821-4.488-4.1-8.207-1.411-12.823a61.419,61.419,0,0,0,3.206-5.771h0a36.157,36.157,0,0,0,3.462-7.822,20.485,20.485,0,0,1,2.949-5.771,3.477,3.477,0,0,0,.256-3.975A5.775,5.775,0,0,0,301.474,91.341Z" transform="translate(-269.8 -90.7)"/>
              </g>
              <g id="Group_11049" data-name="Group 11049" transform="translate(26.521 1.411)">
                <path id="Path_37534" data-name="Path 37534" class="cls-2" d="M290.505,97.04l.769-.256a1.117,1.117,0,0,0,.769-1.026,27.562,27.562,0,0,1,.513-5.129.471.471,0,0,1-.385-.128A11.977,11.977,0,0,0,290.505,97.04Z" transform="translate(-290.482 -90.5)"/>
              </g>
              <g id="Group_11050" data-name="Group 11050" transform="translate(16.286 1.486)">
                <path id="Path_37535" data-name="Path 37535" class="cls-6" d="M287.245,94.587a7.158,7.158,0,0,0,.641,1.026,11.169,11.169,0,0,0,3.847,3.462c.385.256.9.513,1.411.9a10.1,10.1,0,0,1-.513-2.949,10.869,10.869,0,0,1,1.8-6.412h-.256a2.666,2.666,0,0,0-1.411.128c-5.771,1.924-8.207,3.206-10.259,5.129l3.462-1.667A.889.889,0,0,1,287.245,94.587Z" transform="translate(-282.5 -90.559)"/>
              </g>
              <g id="Group_11051" data-name="Group 11051" transform="translate(12.695 17.055)">
                <path id="Path_37536" data-name="Path 37536" class="cls-2" d="M287.009,109.753c3.206.256,6.027-2.821,6.54-7.053a5.239,5.239,0,0,1-1.667,3.462,3.994,3.994,0,0,1-3.334,1.154l-7.053-.641c-1.026,1.411-1.8,2.308-1.8,2.308Z" transform="translate(-279.7 -102.7)"/>
              </g>
              <g id="Group_11052" data-name="Group 11052" transform="translate(12.695 6.54)">
                <path id="Path_37537" data-name="Path 37537" class="cls-2" d="M288.8,94.5a21.647,21.647,0,0,0-2.18,3.847l-.385.769a108.516,108.516,0,0,1-5.258,9.874,15.457,15.457,0,0,0-1.282,2.436s.769-1.026,1.8-2.308a58.051,58.051,0,0,1,6.54-7.309c1.026-.9,1.8-1.539,2.565-2.18,1.026-.769,1.667-1.282,2.18-1.667A10.539,10.539,0,0,1,288.8,94.5Z" transform="translate(-279.7 -94.5)"/>
              </g>
              <g id="Group_11053" data-name="Group 11053" transform="translate(10.496 4.232)">
                <path id="Path_37538" data-name="Path 37538" class="cls-6" d="M280.825,92.7a21.353,21.353,0,0,0-2.052,5.129c-.128.385-.128.641-.257,1.026a18.929,18.929,0,0,0,.385,10.387,12.536,12.536,0,0,0,1.282,2.565,11.011,11.011,0,0,1,1.282-2.436,108.539,108.539,0,0,0,5.258-9.874l.385-.769a27.413,27.413,0,0,1,2.18-3.847,4.5,4.5,0,0,1-.641-1.026,1,1,0,0,0-1.282-.385L283.9,95.136l-2.693-2.308C281.082,92.828,280.954,92.7,280.825,92.7Z" transform="translate(-277.985 -92.7)"/>
              </g>
              <g id="Group_11054" data-name="Group 11054" transform="translate(12.31 4.36)">
                <path id="Path_37539" data-name="Path 37539" class="cls-6" d="M288.12,93.954a1,1,0,0,0-1.282-.385l-3.462,1.667-2.693-2.308a.471.471,0,0,0-.385-.128,12.948,12.948,0,0,0-.9,1.924l.641-.641,2.436,2.18h0c.128,0,.128.128.257.128h.128c.128,0,.257.128.385.128h.641l3.206-1.539a5.428,5.428,0,0,0,.641.9c.128.128.257.256.257.385l.769-1.154A5.2,5.2,0,0,0,288.12,93.954Z" transform="translate(-279.4 -92.8)"/>
              </g>
              <g id="Group_11055" data-name="Group 11055" transform="translate(8.72 0.124)">
                <path id="Path_37540" data-name="Path 37540" class="cls-6" d="M278.011,95.271a11.077,11.077,0,0,0-1.411,3.334.448.448,0,0,1,.128-.256,4.5,4.5,0,0,1,.641-1.026,13.427,13.427,0,0,1,1.026-1.411c.641-.769,1.282-1.411,1.923-2.052a1.221,1.221,0,0,1,.9-.256c.128,0,.257.128.385.128l2.693,2.308a8.709,8.709,0,0,1,.385-5.771c.128-.128,0-.385,0-.513a.666.666,0,0,0-.513-.256h0C283.909,89.373,279.934,92.066,278.011,95.271Z" transform="translate(-276.6 -89.497)"/>
              </g>
              <g id="Group_11056" data-name="Group 11056" transform="translate(9.952 0.256)">
                <path id="Path_37541" data-name="Path 37541" class="cls-2" d="M277.868,93.96a.987.987,0,0,0-.128,1.282,16.739,16.739,0,0,1,6.155-5.642h0C281.843,90.241,279.022,92.806,277.868,93.96Z" transform="translate(-277.561 -89.6)"/>
              </g>
              <g id="Group_11057" data-name="Group 11057" transform="translate(3.571 15.516)">
                <path id="Path_37542" data-name="Path 37542" class="cls-2" d="M281.709,109.45a23.436,23.436,0,0,1-1.667-2.693l-3.462-.385-1.539-.128h-.128c-1.411-.256-2.436-2.308-2.308-4.745a9.039,9.039,0,0,0,1.154,5,5.131,5.131,0,0,0,1.282,1.539,3.813,3.813,0,0,0,2.565,1.026Z" transform="translate(-272.585 -101.5)"/>
              </g>
              <g id="Group_11058" data-name="Group 11058" transform="translate(8.624 4.181)">
                <path id="Path_37543" data-name="Path 37543" class="cls-2" d="M278.929,98.866c.128-.385.128-.641.256-1.026a19.383,19.383,0,0,1,2.052-5.129.793.793,0,0,0-.9.256,9.639,9.639,0,0,0-1.923,2.052l.641,1.026-1.411.256c-.128,0-.257,0-.257.128a7.158,7.158,0,0,0-.641,1.026,3.954,3.954,0,0,0-.128,1.282,9.426,9.426,0,0,0,0,2.693,18.816,18.816,0,0,0,2.308,7.95,23.444,23.444,0,0,0,1.667,2.693,12.537,12.537,0,0,1-1.282-2.565A20.109,20.109,0,0,1,278.929,98.866Z" transform="translate(-276.525 -92.661)"/>
              </g>
              <g id="Group_11059" data-name="Group 11059" transform="translate(9.489 6.412)">
                <path id="Path_37544" data-name="Path 37544" class="cls-3" d="M278.867,95.426l-.641-1.026a5.693,5.693,0,0,0-1.026,1.411c.128,0,.128-.128.257-.128Z" transform="translate(-277.2 -94.4)"/>
              </g>
              <g id="Group_11060" data-name="Group 11060" transform="translate(3.206)">
                <path id="Path_37545" data-name="Path 37545" class="cls-3" d="M274.865,109.661h.128l1.539.128,3.462.385a18.257,18.257,0,0,1-2.308-7.95V99.53c0-.513.128-1.026.128-1.282,0,.128-.128.128-.128.256a11.078,11.078,0,0,1,1.411-3.334,1.18,1.18,0,0,1,.128-1.282c1.154-1.154,3.847-3.847,5.9-4.488-1.026,0-2.18.128-3.591.128h-1.411c-2.821-.128-5.9,1.667-6.283,4.745a4.567,4.567,0,0,0,.9,3.078,2.2,2.2,0,0,1-.385,2.949c-.128.128-.256.128-.385.256a5.543,5.543,0,0,0-1.667,3.462v.641C272.428,107.353,273.454,109.4,274.865,109.661Z" transform="translate(-272.3 -89.4)"/>
              </g>
              <g id="Group_11061" data-name="Group 11061" transform="translate(11.413 20.774)">
                <path id="Path_37546" data-name="Path 37546" class="cls-6" d="M281.136,105.856,278.7,105.6h0a12.535,12.535,0,0,0,1.282,2.565,10.882,10.882,0,0,1,1.154-2.308Z" transform="translate(-278.7 -105.6)"/>
              </g>
            </g>
            <g id="Group_11067" data-name="Group 11067" transform="translate(24.749 22.453)">
              <g id="Group_11063" data-name="Group 11063">
                <path id="Path_37547" data-name="Path 37547" class="cls-4" d="M259.56,81.582a.818.818,0,0,0,.769,0,.705.705,0,0,0,.385-.641,11.034,11.034,0,0,1,.9-3.206,1.061,1.061,0,1,1,1.923.9,10.663,10.663,0,0,0-.769,2.436c-.385,4.1,1.923,4.616.641,7.181-1.026,2.052-3.847,2.693-6.412,1.411s-4.873-1.8-2.821-6.027C255.969,80.043,257.508,80.428,259.56,81.582Z" transform="translate(-253.385 -77.122)"/>
              </g>
              <g id="Group_11064" data-name="Group 11064" transform="translate(3.932 6.834)">
                <path id="Path_37548" data-name="Path 37548" class="cls-4" d="M308.577,100.723a.979.979,0,0,1-.641.256l-24.493,9.233a10.17,10.17,0,0,1-11.669-3.462L256.9,86.361a2.475,2.475,0,1,1,3.975-2.949L275.749,103.8a5.176,5.176,0,0,0,5.9,1.8l24.493-9.233a2.46,2.46,0,0,1,3.206,1.411A2.392,2.392,0,0,1,308.577,100.723Z" transform="translate(-256.451 -82.451)"/>
              </g>
              <g id="Group_11065" data-name="Group 11065" transform="translate(6.175 10.359)">
                <path id="Path_37549" data-name="Path 37549" class="cls-6" d="M263.329,87.252c.256-.128.513-.385.9-.641l-.9-1.282a.771.771,0,0,0-.513-.128c-2.949,2.052-1.667,1.154-4.488,3.206-.128.128-.128.256-.128.513l.9,1.282c2.949-2.18,2.052-1.411,4.232-2.949Z" transform="translate(-258.2 -85.2)"/>
              </g>
              <g id="Group_11066" data-name="Group 11066" transform="translate(6.891 11.46)">
                <path id="Path_37550" data-name="Path 37550" class="cls-3" d="M283.176,110.348l24.493-9.233a3.214,3.214,0,0,0,.9-.513,3.654,3.654,0,0,0,1.282-4.36,3.772,3.772,0,0,0-1.923-2.052,4.27,4.27,0,0,0-2.821-.128l-24.493,9.233a3.832,3.832,0,0,1-4.36-1.282L264.839,86.24a.564.564,0,0,0-.641-.128l-.128.128c-.385.256-.641.513-.9.641h0c-2.18,1.539-1.154.769-4.1,2.949l-.128.128c-.128.128-.256.385-.128.513l11.413,15.773A10.912,10.912,0,0,0,283.176,110.348Z" transform="translate(-258.759 -86.059)"/>
              </g>
            </g>
            <g id="Group_11068" data-name="Group 11068" transform="translate(53.493)">
              <path id="Path_37551" data-name="Path 37551" class="cls-13" d="M276.185,69.727a10.28,10.28,0,0,1,1.667-2.436c.641-.641,1.282-1.282,2.052-1.924a3.744,3.744,0,0,1-.256-1.154,9.466,9.466,0,0,1-.256-1.539,5.9,5.9,0,0,1,4.232-.128,2.067,2.067,0,0,1,.9.513,7.351,7.351,0,0,1,1.411,1.411c.513.256,1.026.641,1.667,1.026,2.052,1.411,4.1,4.488,5.258,7.694a23.257,23.257,0,0,0,4.745,2.436,14.418,14.418,0,0,1-3.847.385,8.807,8.807,0,0,1,.257,3.078c-.641,7.181-.769,8.72-1.154,12.823-.128,1.539-.385,3.462-.641,6.155,0,0-.256,8.592,7.438,9.361,6.668.641,8.976.769,8.976.769s-5.642-.769-4.873-9.1,2.052-22.056,2.052-22.056,1.8-15.644-15.388-17.312c-5.77-.513-9.361.769-11.541,2.821a11.039,11.039,0,0,0-3.078,7.438C276.056,69.984,276.056,69.855,276.185,69.727Z" transform="translate(-275.8 -59.612)"/>
            </g>
            <g id="Group_11074" data-name="Group 11074" transform="translate(78.274 183.11)">
              <g id="Group_11069" data-name="Group 11069" transform="translate(9.201 1.659)">
                <path id="Path_37552" data-name="Path 37552" class="cls-11" d="M302.813,207.034l1.411-1.026h0A10.83,10.83,0,0,0,302.3,203.7,4.379,4.379,0,0,1,302.813,207.034Z" transform="translate(-302.3 -203.7)"/>
              </g>
              <g id="Group_11070" data-name="Group 11070" transform="translate(0 6.064)">
                <path id="Path_37553" data-name="Path 37553" class="cls-11" d="M298.555,210.552l2.308-1.667a4.3,4.3,0,0,0-5.642-1.154,11.342,11.342,0,0,0,0,2.949c.128-.128.385-.256.513-.385A2.04,2.04,0,0,1,298.555,210.552Z" transform="translate(-295.125 -207.135)"/>
              </g>
              <g id="Group_11071" data-name="Group 11071" transform="translate(0.481 4.095)">
                <path id="Path_37554" data-name="Path 37554" class="cls-11" d="M300.886,209.319l-2.308,1.667-3.078,2.18h0a1.631,1.631,0,0,0,.9,1.154,1.376,1.376,0,0,0,1.411-.128l7.694-5.514a2.271,2.271,0,0,0,.641-3.078l-1.411,1.026Z" transform="translate(-295.5 -205.6)"/>
              </g>
              <g id="Group_11072" data-name="Group 11072" transform="translate(0.096 0)">
                <path id="Path_37555" data-name="Path 37555" class="cls-4" d="M300.971,210.22l3.847-2.693a3.614,3.614,0,0,0-.641-3.334h0c-1.667-1.539-3.719-2.565-6.027-1.026a8,8,0,0,0-2.949,5.9A4.472,4.472,0,0,1,300.971,210.22Z" transform="translate(-295.2 -202.406)"/>
              </g>
              <g id="Group_11073" data-name="Group 11073" transform="translate(0.096 8.759)">
                <path id="Path_37556" data-name="Path 37556" class="cls-4" d="M295.713,209.574c-.128.128-.385.256-.513.385a12.633,12.633,0,0,0,.256,2.18l3.078-2.18A2.23,2.23,0,0,0,295.713,209.574Z" transform="translate(-295.2 -209.237)"/>
              </g>
            </g>
            <g id="Group_11080" data-name="Group 11080" transform="translate(44.966 186.564)">
              <g id="Group_11075" data-name="Group 11075" transform="translate(11.605 4.232)">
                <path id="Path_37557" data-name="Path 37557" class="cls-11" d="M278.2,211.478h1.667a25.754,25.754,0,0,0-.128-3.078A4.154,4.154,0,0,1,278.2,211.478Z" transform="translate(-278.2 -208.4)"/>
              </g>
              <g id="Group_11076" data-name="Group 11076" transform="translate(1.09 3.078)">
                <path id="Path_37558" data-name="Path 37558" class="cls-11" d="M272.821,211.732h2.821A4.388,4.388,0,0,0,271.8,207.5a28.159,28.159,0,0,0-1.8,2.308h.641A2.248,2.248,0,0,1,272.821,211.732Z" transform="translate(-270 -207.5)"/>
              </g>
              <g id="Group_11077" data-name="Group 11077" transform="translate(0 7.181)">
                <path id="Path_37559" data-name="Path 37559" class="cls-11" d="M276.01,210.828h-6.668a1.384,1.384,0,0,0,0,1.411,1.578,1.578,0,0,0,1.282.641h9.489a2.275,2.275,0,0,0,2.308-2.18H276.01Z" transform="translate(-269.15 -210.7)"/>
              </g>
              <g id="Group_11078" data-name="Group 11078" transform="translate(3.014 0)">
                <path id="Path_37560" data-name="Path 37560" class="cls-4" d="M275.347,212.409h4.745a4.154,4.154,0,0,0,1.539-3.078h0c-.385-2.18-1.539-4.232-4.232-4.232-2.308,0-4.232,1.282-5.9,3.078A4.5,4.5,0,0,1,275.347,212.409Z" transform="translate(-271.5 -205.1)"/>
              </g>
              <g id="Group_11079" data-name="Group 11079" transform="translate(0.192 5.386)">
                <path id="Path_37561" data-name="Path 37561" class="cls-4" d="M270.967,209.3h-.641a14.012,14.012,0,0,0-1.026,1.924h3.847A2.457,2.457,0,0,0,270.967,209.3Z" transform="translate(-269.3 -209.3)"/>
              </g>
            </g>
          </g>
        </g>
      </g>
    </g>
  </g>
</svg>
