<svg xmlns="http://www.w3.org/2000/svg" viewBox="0 0 408 306">
  <defs>
    <style>
      .cls-1 {
        fill: none;
      }

      .cls-2 {
        fill: #2b0b04;
      }

      .cls-3 {
        fill: #304a95;
      }

      .cls-4 {
        fill: #f9cfb3;
      }

      .cls-5 {
        fill: #dba783;
      }

      .cls-6 {
        fill: #f7f9fd;
      }

      .cls-7 {
        fill: #2b3572;
      }

      .cls-8 {
        fill: #e4eaf2;
      }

      .cls-9 {
        fill: #c9457b;
      }

      .cls-10 {
        fill: #2a336e;
      }

      .cls-11 {
        fill: #0e2b4a;
      }

      .cls-12 {
        fill: #e8b795;
      }

      .cls-13 {
        fill: #181d1f;
      }

      .cls-14 {
        fill: #a02b61;
      }

      .cls-15 {
        fill: #365eb3;
      }
    </style>
  </defs>
  <g id="Group_34616" data-name="Group 34616" transform="translate(-9320 -3912)">
    <rect id="Rectangle_1201" data-name="Rectangle 1201" class="cls-1" width="408" height="306" transform="translate(9320 3912)"/>
    <g id="Group_34613" data-name="Group 34613" transform="translate(9337.951 3935.17)">
      <g id="Group_10990" data-name="Group 10990" transform="translate(0.049)">
        <g id="Group_10906" data-name="Group 10906">
          <g id="Group_10869" data-name="Group 10869" transform="translate(20.838 157.286)">
            <g id="Group_10867" data-name="Group 10867" transform="translate(0.473)">
              <path id="Path_37381" data-name="Path 37381" class="cls-2" d="M18.111,219.777a.926.926,0,0,1-.488-.244.734.734,0,0,1-.122-.488c10.38-32.605,13.8-57.517,11.845-84.993a4.68,4.68,0,0,1,1.221-3.541,5.139,5.139,0,0,1,3.419-1.71h.977a4.832,4.832,0,0,1,4.274,4.518c2.076,28.331-1.343,53.975-11.723,87.191-.122.244-.366.488-.611.366l-.733-.122-7.449-.977Z" transform="translate(-17.5 -128.8)"/>
            </g>
            <g id="Group_10868" data-name="Group 10868" transform="translate(0 91.221)">
              <path id="Path_37382" data-name="Path 37382" class="cls-3" d="M24.424,209.117a3.868,3.868,0,0,1-4.03,2.564c-.244,0-.488-.122-.733-.122a3.55,3.55,0,0,1-2.32-4.64c.488-1.465.855-1.954,1.343-3.419l7.449.977C25.523,206.187,25.035,207.163,24.424,209.117Z" transform="translate(-17.113 -203.5)"/>
            </g>
          </g>
          <g id="Group_10872" data-name="Group 10872" transform="translate(50.69 157.279)">
            <g id="Group_10870" data-name="Group 10870">
              <path id="Path_37383" data-name="Path 37383" class="cls-2" d="M46.86,221.365a.488.488,0,0,1-.488-.244c-.122-.122-.244-.366-.122-.488,4.03-34.07,2.687-59.1-4.518-85.6a5.191,5.191,0,0,1,.488-3.786,4.963,4.963,0,0,1,3.053-2.32,2.689,2.689,0,0,1,.977-.122,5,5,0,0,1,5.129,3.663c7.449,27.476,8.914,53.243,4.885,87.8a.559.559,0,0,1-.611.488H54.92l-7.571.488Z" transform="translate(-41.559 -128.794)"/>
            </g>
            <g id="Group_10871" data-name="Group 10871" transform="translate(5.15 91.961)">
              <path id="Path_37384" data-name="Path 37384" class="cls-3" d="M53.132,209.229a3.647,3.647,0,0,1-3.419,3.175H48.98a3.635,3.635,0,0,1-3.175-4.152c.244-1.588.488-2.076.611-3.663l7.571-.488C53.743,206.176,53.376,207.153,53.132,209.229Z" transform="translate(-45.777 -204.1)"/>
            </g>
          </g>
          <g id="Group_10875" data-name="Group 10875" transform="translate(37.18 82.912)">
            <g id="Group_10873" data-name="Group 10873" transform="translate(0 0)">
              <path id="Path_37385" data-name="Path 37385" class="cls-4" d="M36.485,95.5a4.949,4.949,0,0,0,3.786-4.518l.977-17.951a4.891,4.891,0,1,0-9.769-.488L30.5,90.492a4.906,4.906,0,0,0,4.64,5.129C35.508,95.621,36,95.5,36.485,95.5Z" transform="translate(-30.496 -67.896)"/>
            </g>
            <g id="Group_10874" data-name="Group 10874" transform="translate(0.494)">
              <path id="Path_37386" data-name="Path 37386" class="cls-5" d="M30.9,80.235l.366-7.693a4.891,4.891,0,1,1,9.769.488l-.488,10.38a20.756,20.756,0,0,1-5.617-1.343A23.987,23.987,0,0,1,30.9,80.235Z" transform="translate(-30.9 -67.896)"/>
            </g>
          </g>
          <g id="Group_10886" data-name="Group 10886" transform="translate(20.873 98.426)">
            <g id="Group_10876" data-name="Group 10876" transform="translate(15.58 59.959)">
              <path id="Path_37387" data-name="Path 37387" class="cls-2" d="M43.821,129.7c.244,4.152,1.954,7.449,6.35,7.2l2.076-.122c-2.076,2.564-5.862,3.908-11.723,4.274q-6.961.366-10.624-2.931l7.2-.366C42.478,137.393,44.065,133.852,43.821,129.7Z" transform="translate(-29.9 -129.7)"/>
            </g>
            <g id="Group_10877" data-name="Group 10877" transform="translate(11.184 51.777)">
              <path id="Path_37388" data-name="Path 37388" class="cls-2" d="M28.376,123.366h.244c.611,0,2.2-.122,6.106-.366a.944.944,0,0,1,.977.855l.122,1.465a3.318,3.318,0,0,1-3.175,3.541l-6.35.366a23.682,23.682,0,0,1,1.1-5.862h.977Z" transform="translate(-26.3 -123)"/>
            </g>
            <g id="Group_10878" data-name="Group 10878" transform="translate(16.801 0.488)">
              <path id="Path_37389" data-name="Path 37389" class="cls-6" d="M37.616,87.594v.244a.634.634,0,0,1-.244.488.371.371,0,0,1-.488,0l-2.076-.733c-.244-.366-.366-.855-.611-1.221a44.475,44.475,0,0,0-2.809-4.763A2.144,2.144,0,0,0,30.9,81a1.869,1.869,0,0,1,1.221.488,17.145,17.145,0,0,0,6.35,1.465Z" transform="translate(-30.9 -81)"/>
            </g>
            <g id="Group_10879" data-name="Group 10879" transform="translate(24.006 0)">
              <path id="Path_37390" data-name="Path 37390" class="cls-6" d="M41.074,86.339c0,.122.122.366.122.488h0l-.977.977a.933.933,0,0,1-.611.244c-.244,0-.366-.122-.488-.366L39,87.561l-2.2-4.4c1.343-.122,1.954-.611,2.2-1.221L39.12,80.6h.366l.366,1.1A28.763,28.763,0,0,1,41.074,86.339Z" transform="translate(-36.8 -80.6)"/>
            </g>
            <g id="Group_10880" data-name="Group 10880" transform="translate(25.991 5.984)">
              <path id="Path_37391" data-name="Path 37391" class="cls-6" d="M38.761,88.8c0-.122,0-.122-.122-.244h0v-.244c0-.122,0-.122-.122-.244h0a1.338,1.338,0,0,1,0-.977l.122-.244h0l.122-.611.122.122c.122.244.244.366.488.366a.672.672,0,0,0,.611-.244l.977-.977h0a28.521,28.521,0,0,1,.488,3.175,56.908,56.908,0,0,1,.244,12.822C40.47,95.758,39.249,90.873,38.761,88.8Z" transform="translate(-38.425 -85.5)"/>
            </g>
            <g id="Group_10881" data-name="Group 10881" transform="translate(20.465 7.083)">
              <path id="Path_37392" data-name="Path 37392" class="cls-6" d="M35,88.842c-.366-.855-.733-1.71-1.1-2.442l2.076.733c.122.122.366,0,.488,0a.634.634,0,0,0,.244-.488V86.4l.488.611h0l.244.244a1.387,1.387,0,0,1,.366.977h0v.488c.244,2.32.855,7.815,1.221,12.334A71.159,71.159,0,0,0,35,88.842Z" transform="translate(-33.9 -86.4)"/>
            </g>
            <g id="Group_10882" data-name="Group 10882">
              <path id="Path_37393" data-name="Path 37393" class="cls-3" d="M17.335,87.683a4.918,4.918,0,0,1,2.076-2.809A29.438,29.438,0,0,1,30.89,81.333l.122,1.1.488,3.908a.774.774,0,0,0,.611.733l1.954.733-.488.244a.911.911,0,0,0-.244,1.465c.244.244.488.611.855.977,3.175,4.274,9.525,15.265,10.868,21.615v-.488c2.442-6.228,4.03-16.364,4.274-21.248a10.579,10.579,0,0,0-.122-2.2,1.071,1.071,0,0,0-.733-.855l-.611-.244.611-.611a.95.95,0,0,0,.244-.977,24.888,24.888,0,0,0-1.588-3.3,11.15,11.15,0,0,0-.977-1.588,26.02,26.02,0,0,1,9.769,2.2,5,5,0,0,1,2.442,2.564,4.47,4.47,0,0,1-.122,3.541l-.366.733a6.324,6.324,0,0,0-1.1,4.64,70.77,70.77,0,0,1-.244,18.928,46.714,46.714,0,0,0,.733,19.294s.733,5.251,2.32,13.433a1.594,1.594,0,0,1-1.465,1.588l-2.2.122h-.855l-2.076.122c-4.4.244-6.106-3.053-6.35-7.2.244,4.152-1.465,7.693-6.961,7.938l-7.2.366h-.855l-2.2.122a1.754,1.754,0,0,1-2.076-1.343l.733-8.67h0v-.488l6.35-.366a3.391,3.391,0,0,0,3.175-3.541l-.122-1.465a.944.944,0,0,0-.977-.855c-4.03.244-5.617.366-6.106.366H29.058c2.076-5.862,2.564-11.357-.611-17.463-.855-1.465-1.465-3.053-2.2-4.4-.488-1.1-1.1-2.2-1.588-3.175a36.208,36.208,0,0,1-3.786-10.868,6.941,6.941,0,0,0-2.442-4.4,11.009,11.009,0,0,1-1.1-1.221A8.048,8.048,0,0,1,17.335,87.683Z" transform="translate(-17.142 -80.6)"/>
            </g>
            <g id="Group_10883" data-name="Group 10883" transform="translate(13.871 0.366)">
              <path id="Path_37394" data-name="Path 37394" class="cls-2" d="M34.484,86.4c.244.366.366.855.611,1.221.366.855.733,1.588,1.1,2.442a85.01,85.01,0,0,1,4.152,12.212h0c1.343,5.129,2.076,8.914,2.076,8.914v.244h0v.488c-1.221-6.35-7.693-17.34-10.868-21.615a6.981,6.981,0,0,0-.855-.977,1.03,1.03,0,0,1-.244-.855,1.219,1.219,0,0,1,.488-.611l.488-.244-1.954-.733c-.366-.122-.488-.366-.611-.733l-.244-3.908-.122-1.1c.366,0,.733-.122,1.1-.122l1.71-.122a2.144,2.144,0,0,0,.488.611C32.774,83.1,33.629,84.686,34.484,86.4Z" transform="translate(-28.5 -80.9)"/>
            </g>
            <g id="Group_10884" data-name="Group 10884" transform="translate(26.693 0)">
              <path id="Path_37395" data-name="Path 37395" class="cls-2" d="M43.763,85.485a.766.766,0,0,1-.244.977l-.611.611.611.244a1.291,1.291,0,0,1,.733.855,10.579,10.579,0,0,1,.122,2.2A78,78,0,0,1,40.1,111.618h0a60.5,60.5,0,0,0,1.343-8.792A56.8,56.8,0,0,0,41.2,90c-.122-.977-.366-2.076-.488-3.175,0-.122-.122-.366-.122-.488-.366-1.588-.733-3.053-1.221-4.64L39,80.6h2.076a11.148,11.148,0,0,1,.977,1.588A17.183,17.183,0,0,1,43.763,85.485Z" transform="translate(-39 -80.6)"/>
            </g>
            <g id="Group_10885" data-name="Group 10885" transform="translate(23.518 2.809)">
              <path id="Path_37396" data-name="Path 37396" class="cls-3" d="M39.209,86.93l-.122.611h0l-.122.244a1.338,1.338,0,0,0,0,.977h0c0,.122,0,.122.122.244v.244h0c0,.122,0,.122.122.244.488,2.076,1.832,6.961,2.931,12.944a83.6,83.6,0,0,1-1.343,8.792v-.244a85.715,85.715,0,0,0-2.076-8.914h0c-.366-4.64-.855-10.136-1.221-12.334V89.25h0a1.387,1.387,0,0,0-.366-.977l-.244-.244h0l-.488-.611.733-4.518Z" transform="translate(-36.4 -82.9)"/>
            </g>
          </g>
          <g id="Group_10891" data-name="Group 10891" transform="translate(0 101.996)">
            <g id="Group_10887" data-name="Group 10887" transform="translate(25.969 40.644)">
              <path id="Path_37397" data-name="Path 37397" class="cls-4" d="M32.654,124.614c-2.2,4.885-4.4,3.053-7.449,1.465-3.053-1.465-4.64-4.64-3.541-6.961s4.4-3.053,7.449-1.465C32.165,119.119,34.852,119.729,32.654,124.614Z" transform="translate(-21.315 -116.807)"/>
            </g>
            <g id="Group_10888" data-name="Group 10888" transform="translate(25.707 40.391)">
              <path id="Path_37398" data-name="Path 37398" class="cls-4" d="M27.206,118.554a2.765,2.765,0,0,1-2.809,4.763l-3.3-1.954,2.809-4.763Z" transform="translate(-21.1 -116.6)"/>
            </g>
            <g id="Group_10889" data-name="Group 10889">
              <path id="Path_37399" data-name="Path 37399" class="cls-3" d="M.111,111.581a9.45,9.45,0,0,1,1.221-5.739A5.407,5.407,0,0,1,2.8,104.01L22.336,84.838a4.645,4.645,0,0,1,6.594.122,4.8,4.8,0,0,1,.733,5.617,6.774,6.774,0,0,1-.733.977L9.392,110.482l17.707,10.5a.7.7,0,0,1,.244.855l-.122.244-.488.855L23.924,127.7l-.488.855-.122.244a.7.7,0,0,1-.855.244L4.385,118.3A8.8,8.8,0,0,1,.111,111.581Z" transform="translate(-0.049 -83.524)"/>
            </g>
            <g id="Group_10890" data-name="Group 10890" transform="translate(23.509 38.438)">
              <path id="Path_37400" data-name="Path 37400" class="cls-6" d="M22.475,115.855l.488-.855,1.221.733a.7.7,0,0,1,.244.855l-.122.244L21.5,121.594l-.122.244a.7.7,0,0,1-.855.244L19.3,121.35l.488-.855Z" transform="translate(-19.3 -115)"/>
            </g>
          </g>
          <g id="Group_10892" data-name="Group 10892" transform="translate(54.066 250.534)">
            <path id="Path_37401" data-name="Path 37401" class="cls-7" d="M45.638,208.017a.46.46,0,0,1,.733-.122,3.238,3.238,0,0,1,.733.611c.855.733,1.1.733,2.687.733,1.343,0,2.076-2.809,3.786-3.786a1.7,1.7,0,0,1,1.343-.244,14.094,14.094,0,0,1,9.769,6.35,1.5,1.5,0,0,1-.122,1.587,2.087,2.087,0,0,1-1.588.855H47.348a3.336,3.336,0,0,1-2.32-.977,1.984,1.984,0,0,1-.611-2.076A11.553,11.553,0,0,1,45.638,208.017Z" transform="translate(-44.323 -205.161)"/>
          </g>
          <g id="Group_10893" data-name="Group 10893" transform="translate(19.923 250.949)">
            <path id="Path_37402" data-name="Path 37402" class="cls-7" d="M17.141,208.064l.122-.122a.12.12,0,0,1,.122.122,1.3,1.3,0,0,0,1.465,1.1c1.71,0,1.1-3.663,6.594-3.663a11.541,11.541,0,0,1,6.35,6.106,1.811,1.811,0,0,1,0,1.588,1.47,1.47,0,0,1-1.221.855H18.606a1.949,1.949,0,0,1-1.71-.977A2.553,2.553,0,0,1,16.408,211,6.136,6.136,0,0,1,17.141,208.064Z" transform="translate(-16.364 -205.5)"/>
          </g>
          <g id="Group_10894" data-name="Group 10894" transform="translate(88.108 77.788)">
            <path id="Path_37403" data-name="Path 37403" class="cls-4" d="M72.2,66.509a2.809,2.809,0,0,1,5.617,0v3.908H72.2V66.509Z" transform="translate(-72.2 -63.7)"/>
          </g>
          <g id="Group_10897" data-name="Group 10897" transform="translate(54.143 84.382)">
            <g id="Group_10895" data-name="Group 10895" transform="translate(0 1.954)">
              <path id="Path_37404" data-name="Path 37404" class="cls-3" d="M82.137,99.519a9.015,9.015,0,0,1-5.5,1.832,7.668,7.668,0,0,1-2.32-.366L47.822,93.9a4.712,4.712,0,0,1-3.3-5.739,4.585,4.585,0,0,1,4.518-3.419,4.155,4.155,0,0,1,1.221.122L76.4,91.948V71.311a.577.577,0,0,1,.611-.611h8.3a.577.577,0,0,1,.611.611V92.192A10.3,10.3,0,0,1,82.137,99.519Z" transform="translate(-44.387 -70.7)"/>
            </g>
            <g id="Group_10896" data-name="Group 10896" transform="translate(32.988)">
              <path id="Path_37405" data-name="Path 37405" class="cls-6" d="M72.377,71.176H71.4V69.711a.577.577,0,0,1,.611-.611h6.35a.577.577,0,0,1,.611.611v1.465H72.377Z" transform="translate(-71.4 -69.1)"/>
            </g>
          </g>
          <g id="Group_10898" data-name="Group 10898" transform="translate(84.2)">
            <path id="Path_37406" data-name="Path 37406" class="cls-2" d="M70.954,204.911a1.878,1.878,0,0,0,1.832-1.832V1.832A1.878,1.878,0,0,0,70.954,0,1.906,1.906,0,0,0,69,1.832V202.957A1.929,1.929,0,0,0,70.954,204.911Z" transform="translate(-69)"/>
          </g>
          <g id="Group_10899" data-name="Group 10899" transform="translate(39.262 5.984)">
            <path id="Path_37407" data-name="Path 37407" class="cls-8" d="M35.009,4.9h87.924a2.763,2.763,0,0,1,2.809,2.809V61.44a2.763,2.763,0,0,1-2.809,2.809H35.009A2.763,2.763,0,0,1,32.2,61.44V7.709A2.763,2.763,0,0,1,35.009,4.9Z" transform="translate(-32.2 -4.9)"/>
          </g>
          <g id="Group_10900" data-name="Group 10900" transform="translate(49.954 22.591)">
            <path id="Path_37408" data-name="Path 37408" class="cls-3" d="M48.581,33.276l3.541-13.8a1.649,1.649,0,0,1,1.465-.977h1.221a1.38,1.38,0,0,1,1.465,1.588L50.535,41.824a1.472,1.472,0,0,1-1.465.977h-.855a1.649,1.649,0,0,1-1.465-.977L41.01,20.088c-.244-.855.366-1.588,1.465-1.588h1.1a1.81,1.81,0,0,1,1.465.977Z" transform="translate(-40.956 -18.5)"/>
            <path id="Path_37409" data-name="Path 37409" class="cls-3" d="M56.9,25.583c0-4.518,2.2-7.083,6.594-7.083s6.594,2.442,6.594,7.083V35.84c0,2.809-.855,4.518-2.076,5.617a7.139,7.139,0,0,1-4.518,1.465,6.486,6.486,0,0,1-4.518-1.465c-1.221-1.1-2.076-2.809-2.076-5.617V25.583ZM60.93,35.84c0,2.442.855,3.541,2.564,3.541s2.564-1.1,2.564-3.541V25.583c0-2.442-.855-3.419-2.564-3.419s-2.564,1.1-2.564,3.419Z" transform="translate(-37.43 -18.5)"/>
            <path id="Path_37410" data-name="Path 37410" class="cls-3" d="M71.522,19.843A1.386,1.386,0,0,1,72.987,18.5h10.5a1.386,1.386,0,0,1,1.465,1.343v.977a1.386,1.386,0,0,1-1.465,1.343h-3.3V41.58a1.386,1.386,0,0,1-1.465,1.343h-1.1a1.386,1.386,0,0,1-1.465-1.343V22.163h-3.3A1.386,1.386,0,0,1,71.4,20.82v-.977Z" transform="translate(-34.223 -18.5)"/>
            <path id="Path_37411" data-name="Path 37411" class="cls-3" d="M96.736,18.5A1.386,1.386,0,0,1,98.2,19.843v.977a1.386,1.386,0,0,1-1.465,1.343H90.63V28.88h5.007A1.386,1.386,0,0,1,97.1,30.223V31.2a1.386,1.386,0,0,1-1.465,1.343H90.63v6.839h6.106A1.386,1.386,0,0,1,98.2,40.725V41.7a1.386,1.386,0,0,1-1.465,1.343h-8.67A1.386,1.386,0,0,1,86.6,41.7V19.843A1.386,1.386,0,0,1,88.065,18.5Z" transform="translate(-30.862 -18.5)"/>
          </g>
          <g id="Group_10901" data-name="Group 10901" transform="translate(82.124 72.369)">
            <path id="Path_37412" data-name="Path 37412" class="cls-4" d="M68.521,59.675A1.308,1.308,0,0,0,67.3,60.9a1.387,1.387,0,0,0,.366.977c.122,0,.122.122.122.244s0,.122-.122.244a1.486,1.486,0,0,0,0,1.954c.122,0,.122.122.122.244s0,.122-.122.244a1.319,1.319,0,0,0-.366.855,1.282,1.282,0,0,0,.611,1.1c.122,0,.122.122.122.244v.244a1.736,1.736,0,0,0-.244.733A1.224,1.224,0,0,0,69.01,69.2l3.419-.366a.738.738,0,0,1,.733.366c.977,1.465,2.2,2.32,3.419,2.2,1.954-.244,2.931-3.053,2.2-6.472C77.436,58.453,74.993,58.942,68.521,59.675Z" transform="translate(-67.3 -59.262)"/>
          </g>
          <g id="Group_10905" data-name="Group 10905" transform="translate(27.147 60.936)">
            <g id="Group_10902" data-name="Group 10902" transform="translate(0.732 0.807)">
              <path id="Path_37413" data-name="Path 37413" class="cls-4" d="M22.9,65.263C22.416,57.691,29.01,51.1,37.559,50.609a13.189,13.189,0,0,1,3.786.244,15.3,15.3,0,0,1,9.525,5.373,12.166,12.166,0,0,1,2.442,4.64c.733,2.076.611,4.274.855,6.594a53.258,53.258,0,0,1,.366,6.228A13.351,13.351,0,0,1,49.4,83.214c-3.541,2.564-8.426,1.832-12.212.366a24.161,24.161,0,0,1-9.769-6.716A19.873,19.873,0,0,1,22.9,65.751C22.9,65.629,22.9,65.507,22.9,65.263Z" transform="translate(-22.879 -50.561)"/>
            </g>
            <g id="Group_10903" data-name="Group 10903">
              <path id="Path_37414" data-name="Path 37414" class="cls-2" d="M22.3,65.531V65.9a18.49,18.49,0,0,0,.855,4.518h0c1.71,4.274,3.175,4.763,3.175,4.763S24.258,72,24.625,69.194c.366-2.32,1.588-2.931,2.809-3.053h0c.122,0,1.588.122,2.442,2.32s1.1,5.373,1.343,8.3c0,0-.366,5.007,3.663,7.327h0c.366.122.611.366.977.488h0c.366.122.733.366,1.1.488,4.03,1.465,9.037,2.32,12.822-.366a13.808,13.808,0,0,0,5.373-10.136,61.888,61.888,0,0,0-.366-6.716c-.122-1.465-.122-2.809-.244-4.152-.611-4.763-1.954-8.67-5.129-11.113-.488-.366-.977-.611-1.465-.977h0a16.914,16.914,0,0,0-7.2-1.71H37.2l-6.35.366c-.122,0-.122,0-.244.122v.244a1.686,1.686,0,0,1,.366.488c0,.122.122.122,0,.244a.12.12,0,0,1-.122.122C25.6,54.174,21.938,59.547,22.3,65.531Zm9.159.977a3.106,3.106,0,0,1,.488-2.076,6.187,6.187,0,0,0,.855-1.832c.244-1.465,0-3.053.244-4.518A4.542,4.542,0,0,1,34.272,55.4a.939.939,0,0,1,1.221-.122,9.889,9.889,0,0,0,5.739,1.588,11.483,11.483,0,0,0,6.594-2.442.911.911,0,0,1,1.1,0,9.39,9.39,0,0,1,2.2,2.2,12.721,12.721,0,0,1,1.221,2.2,17.7,17.7,0,0,1,1.465,4.274,18.035,18.035,0,0,1,.122,2.564c.122,1.954.366,3.908.366,5.739a12.686,12.686,0,0,1-.855,4.274,9.736,9.736,0,0,1-.977,1.954,8.664,8.664,0,0,1-6.716,4.03c-4.152.244-7.2-.733-9.525-2.931a11.011,11.011,0,0,1-1.1-1.221C33.173,74.934,31.952,71.392,31.463,66.508Z" transform="translate(-22.279 -49.9)"/>
            </g>
            <g id="Group_10904" data-name="Group 10904" transform="translate(12.953 23.093)">
              <path id="Path_37415" data-name="Path 37415" class="cls-2" d="M36.444,70.141a29.971,29.971,0,0,1,3.541-.977c.733-.122,2.32-.488,2.931,0,.488-.488,1.832-.366,2.32-.244a19.194,19.194,0,0,1,2.809.488A4.941,4.941,0,0,1,51.1,71.362a1.765,1.765,0,0,1,.244.855v1.221c0,.122-.122.122-.122.244h-.244c-.122-.122-.366-.122-.733-.244a10.579,10.579,0,0,0-2.2-.122,5.526,5.526,0,0,1-4.885-2.687c-.855,1.954-3.663,3.175-5.739,3.3A11.3,11.3,0,0,0,34,74.537c-.122,0-.244.122-.366.122s-.244.122-.366,0a.263.263,0,0,1-.244-.244,3.063,3.063,0,0,1-.122-1.221h0C32.659,71.606,35.1,70.629,36.444,70.141Z" transform="translate(-32.886 -68.811)"/>
            </g>
          </g>
        </g>
        <g id="Group_10989" data-name="Group 10989" transform="translate(96.426 70.949)">
          <g id="Group_10907" data-name="Group 10907" transform="translate(38.8 37.019)">
            <path id="Path_37416" data-name="Path 37416" class="cls-4" d="M125.213,116.972a5.713,5.713,0,0,0,2.076.244,5.123,5.123,0,0,0,4.518-3.541l7.2-22.1a2.433,2.433,0,0,0-4.64-1.465l-7.2,22.1c0,.122-.122.244-.366.244-.122,0-.244-.122-.366-.244l-10.99-21.37a2.458,2.458,0,1,0-4.4,2.2l10.99,21.37A6.358,6.358,0,0,0,125.213,116.972Z" transform="translate(-110.785 -88.414)"/>
          </g>
          <g id="Group_10909" data-name="Group 10909" transform="translate(37.706 37.085)">
            <g id="Group_10908" data-name="Group 10908">
              <path id="Path_37417" data-name="Path 37417" class="cls-9" d="M127.487,118.548a5.4,5.4,0,0,1-2.442-.244,6.441,6.441,0,0,1-3.786-3.175l-10.99-21.37a3.648,3.648,0,0,1,1.588-4.885,3.716,3.716,0,0,1,2.809-.244,3.126,3.126,0,0,1,2.076,1.832l10.014,19.661,4.763-14.9c.122-.244.244-.366.488-.244.122,0,.122,0,.244.122,3.786,1.221,1.954.611,5.739,1.832.122,0,.122,0,.244.122.244.122.366.244.244.488L133.1,114.4A6.768,6.768,0,0,1,127.487,118.548Z" transform="translate(-109.889 -88.469)"/>
            </g>
          </g>
          <g id="Group_10920" data-name="Group 10920" transform="translate(61.232 23.032)">
            <g id="Group_10910" data-name="Group 10910" transform="translate(0 10.703)">
              <path id="Path_37418" data-name="Path 37418" class="cls-4" d="M134.217,85.817a5.916,5.916,0,0,1,2.076,0l2.442.366a.929.929,0,0,1,.733.977v.611c.122.122.244.244.366.244h0a.929.929,0,0,1,.733.977.914.914,0,0,1-.855.733h-.122c-.122,0-.122,0-.122.122v.122a.734.734,0,0,1,.122.488.929.929,0,0,1-.977.733c-.122,0-.122,0-.122.122v.244c0,.122.122.244,0,.366a.918.918,0,0,1-.855.611l-1.71-.366a1.1,1.1,0,0,0-.611.122c-.244.122-.244.366-.366.488-.244,2.076-1.343,3.663-2.564,3.786-1.588.244-3.053-1.954-3.175-4.763C128.966,86.427,129.332,86.794,134.217,85.817Z" transform="translate(-129.154 -85.725)"/>
            </g>
            <g id="Group_10918" data-name="Group 10918" transform="translate(2.208)">
              <g id="Group_10911" data-name="Group 10911" transform="translate(5.419 18.732)">
                <path id="Path_37419" data-name="Path 37419" class="cls-10" d="M135.766,93.155h0c-.122.122-.122.122-.122,0l-.244-.733.366-.122Z" transform="translate(-135.4 -92.3)"/>
              </g>
              <g id="Group_10912" data-name="Group 10912" transform="translate(2.122 7.497)">
                <path id="Path_37420" data-name="Path 37420" class="cls-11" d="M135.02,84.932c.122.611.244,1.1.366,1.71a8.245,8.245,0,0,1,.244,1.71c.122.488.122,1.1.244,1.588s.122.977.244,1.343a18.229,18.229,0,0,1,.244,2.076v.488l-.855.244c0-.122-.122-.244-.122-.488-.122-.488-.366-1.221-.611-2.076-.122-.366-.244-.855-.366-1.343l-.366-1.465a7.9,7.9,0,0,0-.488-1.588c-.122-.611-.244-1.1-.366-1.71a10.175,10.175,0,0,0-.488-1.832l1.954-.488Q134.837,83.833,135.02,84.932Z" transform="translate(-132.7 -83.1)"/>
              </g>
              <g id="Group_10913" data-name="Group 10913" transform="translate(2 6.642)">
                <path id="Path_37421" data-name="Path 37421" class="cls-3" d="M134.676,83.133l-1.954.488c0-.244-.122-.488-.122-.733l1.954-.488A1.549,1.549,0,0,0,134.676,83.133Z" transform="translate(-132.6 -82.4)"/>
              </g>
              <g id="Group_10914" data-name="Group 10914" transform="translate(0.901)">
                <path id="Path_37422" data-name="Path 37422" class="cls-3" d="M131.7,77.5c0-.244.122-.488.366-.488a.587.587,0,0,1,.733.244l.122.122-1.1.244Z" transform="translate(-131.7 -76.961)"/>
              </g>
              <g id="Group_10915" data-name="Group 10915" transform="translate(0 0.781)">
                <path id="Path_37423" data-name="Path 37423" class="cls-3" d="M131.741,83.584a.263.263,0,0,0,.244-.244v-.488l-.977-3.786a.985.985,0,0,1,.366-1.1l.366-.244.122-.122h.244v.244l-.366.244-.244.122a.587.587,0,0,0-.244.733l.977,3.786v.611a.953.953,0,0,1-.488.488c-.122,0-.244,0-.244-.122A.426.426,0,0,0,131.741,83.584Z" transform="translate(-130.962 -77.6)"/>
              </g>
              <g id="Group_10916" data-name="Group 10916" transform="translate(1.023 0.414)">
                <path id="Path_37424" data-name="Path 37424" class="cls-6" d="M132.166,77.666c0-.122-.122-.122-.244,0l-.122.122v-.244l1.1-.244a2.064,2.064,0,0,0,.244.611c.122.488.366,1.221.611,2.076.122.366.244.855.366,1.343s.244.977.366,1.588c0,.244.122.488.122.733l-1.954.488c0-.244-.122-.488-.122-.733a7.146,7.146,0,0,1-.244-1.588c-.122-.488-.122-.977-.244-1.343A18.233,18.233,0,0,1,131.8,78.4l.366-.244Z" transform="translate(-131.8 -77.3)"/>
              </g>
              <g id="Group_10917" data-name="Group 10917" transform="translate(5.053 18.243)">
                <path id="Path_37425" data-name="Path 37425" class="cls-6" d="M135.833,92.511h0l-.366.122h0a.263.263,0,0,1-.244-.244.378.378,0,0,0-.122-.244l.855-.244v.244C135.955,92.266,135.833,92.388,135.833,92.511Z" transform="translate(-135.1 -91.9)"/>
              </g>
            </g>
            <g id="Group_10919" data-name="Group 10919" transform="translate(0.544 11.16)">
              <path id="Path_37426" data-name="Path 37426" class="cls-4" d="M137.415,87.81a.672.672,0,0,0,.366-.611,1.036,1.036,0,0,0-.855-.977l-1.221-.122a6.762,6.762,0,0,0-2.2.244l-1.465.488a3.146,3.146,0,0,0-2.2,2.687L129.6,91.6c0,.488.244.977.733.977s.977-.244.977-.733l.244-2.076a1.679,1.679,0,0,1,.977-1.221L134,88.054a6.13,6.13,0,0,1,1.465-.244l1.221.122A.684.684,0,0,0,137.415,87.81Z" transform="translate(-129.6 -86.1)"/>
            </g>
          </g>
          <g id="Group_10926" data-name="Group 10926" transform="translate(13.875 86.336)">
            <g id="Group_10921" data-name="Group 10921" transform="translate(2.615)">
              <path id="Path_37427" data-name="Path 37427" class="cls-12" d="M117.286,129.166a3.191,3.191,0,0,1,1.71,2.809l.611,36.146a49.151,49.151,0,0,1-6.106,24.545L98.6,219.654a3.226,3.226,0,1,1-5.617-3.175l14.9-26.988a43.157,43.157,0,0,0,5.251-21.248l-.611-36.146a3.182,3.182,0,0,1,3.175-3.3A3.76,3.76,0,0,1,117.286,129.166Z" transform="translate(-92.515 -128.8)"/>
            </g>
            <g id="Group_10925" data-name="Group 10925" transform="translate(0 85.068)">
              <g id="Group_10922" data-name="Group 10922" transform="translate(0.032 7.13)">
                <path id="Path_37428" data-name="Path 37428" class="cls-11" d="M92.11,208.574c-.122.122-.244.244-.488.122l-.977-.488c-.244-.122-.244-.244-.244-.488.122-.488.366-1.588.733-3.419a15.114,15.114,0,0,0,2.2,1.71Z" transform="translate(-90.4 -204.3)"/>
              </g>
              <g id="Group_10923" data-name="Group 10923" transform="translate(0 1.756)">
                <path id="Path_37429" data-name="Path 37429" class="cls-11" d="M92.238,199.9h0c1.343.733.733,2.32,1.588,3.175a11.513,11.513,0,0,0,1.221,1.221,66.915,66.915,0,0,1,4.885,5.373,3.142,3.142,0,0,0,2.076,1.221,7,7,0,0,1,1.71.488,2.669,2.669,0,0,0,.611.366,1,1,0,0,1,.611.611,2,2,0,0,1-2.442,2.809l-2.687-1.343c-1.465-.733-2.564-2.564-3.663-3.786-.733-.855-1.343-1.588-2.076-2.32a3.239,3.239,0,0,0-.733-.611,9.7,9.7,0,0,1-2.2-1.71,2.761,2.761,0,0,1-.733-1.588,4.408,4.408,0,0,1,.366-2.076A5.407,5.407,0,0,1,92.238,199.9Z" transform="translate(-90.373 -199.9)"/>
              </g>
              <g id="Group_10924" data-name="Group 10924" transform="translate(1.864)">
                <path id="Path_37430" data-name="Path 37430" class="cls-12" d="M101.669,211.209a3.142,3.142,0,0,1-2.076-1.221,66.91,66.91,0,0,0-4.885-5.373,11.513,11.513,0,0,0-1.221-1.221c-.855-.977-.366-2.442-1.588-3.175a4.2,4.2,0,0,1,4.152-1.71,5.676,5.676,0,0,1,2.809,1.1,11.6,11.6,0,0,1,3.786,4.64,14.2,14.2,0,0,1,1.343,7.815h0a2.669,2.669,0,0,1-.611-.366A7,7,0,0,0,101.669,211.209Z" transform="translate(-91.9 -198.462)"/>
              </g>
            </g>
          </g>
          <g id="Group_10932" data-name="Group 10932" transform="translate(20.229 86.183)">
            <g id="Group_10927" data-name="Group 10927">
              <path id="Path_37431" data-name="Path 37431" class="cls-4" d="M98.414,128.706a3.208,3.208,0,0,1,3.663,2.809l11.6,90.732a3.264,3.264,0,1,1-6.472.855l-11.6-90.732A3.294,3.294,0,0,1,98.414,128.706Z" transform="translate(-95.576 -128.675)"/>
            </g>
            <g id="Group_10931" data-name="Group 10931" transform="translate(10.027 89.42)">
              <g id="Group_10928" data-name="Group 10928" transform="translate(1.481 9.037)">
                <path id="Path_37432" data-name="Path 37432" class="cls-11" d="M105.611,209.544h0c-.244-.122-.366-.122-.611-.244.611,1.954.977,3.053,1.1,3.541a.39.39,0,0,0,.366.366h1.588a.324.324,0,0,0,.366-.366v-.733A5.636,5.636,0,0,0,105.611,209.544Z" transform="translate(-105 -209.3)"/>
              </g>
              <g id="Group_10929" data-name="Group 10929" transform="translate(0 4.64)">
                <path id="Path_37433" data-name="Path 37433" class="cls-11" d="M116.259,210.34c-.122,0-.122-.122-.244-.122a6.243,6.243,0,0,0-3.663,0,5.051,5.051,0,0,1-2.32.611,3.623,3.623,0,0,1-1.343-.488c-.122,0-.244-.122-.366-.244a10.737,10.737,0,0,1-1.221-.733c-.488-.366-1.1-.855-1.588-1.221s-1.343-.977-1.465-1.71v-.122a5.289,5.289,0,0,0-.122-.611c0,.244-.122,1.221-.122,1.588a3.244,3.244,0,0,0,1.343,2.931.926.926,0,0,0,.488.244h0a5.365,5.365,0,0,1,2.809,2.442c.122.122.122.244.244.366a1.741,1.741,0,0,0,1.465.733h5.007a1.906,1.906,0,0,0,1.832-1.954A1.361,1.361,0,0,0,116.259,210.34Z" transform="translate(-103.787 -205.7)"/>
              </g>
              <g id="Group_10930" data-name="Group 10930" transform="translate(0.352)">
                <path id="Path_37434" data-name="Path 37434" class="cls-4" d="M105.571,208.861c.488.366,1.1.855,1.588,1.221a10.743,10.743,0,0,0,1.221.733c.122.122.244.122.366.244a3.623,3.623,0,0,0,1.343.488c.855.122,1.465-.366,2.32-.611a6.243,6.243,0,0,1,3.663,0v-.122c0-.122,0-.244-.122-.244-.977-3.419-3.663-8.67-7.938-8.67-2.931,0-4.152,3.663-3.908,5.129v.122A4.061,4.061,0,0,0,105.571,208.861Z" transform="translate(-104.075 -201.9)"/>
              </g>
            </g>
          </g>
          <g id="Group_10933" data-name="Group 10933" transform="translate(15.687 36.205)">
            <path id="Path_37435" data-name="Path 37435" class="cls-4" d="M97.16,107.594q-.733-1.649-1.465-3.663a21.749,21.749,0,0,1-1.343-6.716,3.356,3.356,0,0,0-1.465-2.687,2.357,2.357,0,0,1-.611-3.3,5.561,5.561,0,0,1,4.274-2.564c10.258-1.343,11.235-1.1,19.172,0A5.561,5.561,0,0,1,120,91.231a2.357,2.357,0,0,1-.611,3.3,4.033,4.033,0,0,0-1.588,3.908,16.277,16.277,0,0,1,.366,3.419,21.353,21.353,0,0,1-.611,6.839l-1.221,7.2a14.073,14.073,0,0,0,.611,7.083l1.465,4.152a24.856,24.856,0,0,1,1.832,10.014c0,9.4-6.106,11.723-16.119,11.723,0,0-13.555.611-11.357-11.723a34.218,34.218,0,0,1,2.442-7.571,17.278,17.278,0,0,1,2.2-3.541,1.685,1.685,0,0,0-.366.488c3.053-3.908,5.007-7.938,2.564-13.311C99.725,113.334,97.16,107.594,97.16,107.594Z" transform="translate(-91.857 -87.748)"/>
          </g>
          <g id="Group_10934" data-name="Group 10934" transform="translate(25.875 21.126)">
            <path id="Path_37436" data-name="Path 37436" class="cls-4" d="M104.718,96.526a3.72,3.72,0,0,0,3.175-3.786l-.244-13.677a3.725,3.725,0,1,0-7.449.122l.244,13.677a3.7,3.7,0,0,0,3.786,3.663A.371.371,0,0,0,104.718,96.526Z" transform="translate(-100.2 -75.4)"/>
          </g>
          <g id="Group_10935" data-name="Group 10935" transform="translate(25.875 21.248)">
            <path id="Path_37437" data-name="Path 37437" class="cls-5" d="M100.322,85.514l-.122-6.228a3.725,3.725,0,1,1,7.449-.122l.122,9.037a31.817,31.817,0,0,1-4.03-.977C102.642,86.735,101.543,86.124,100.322,85.514Z" transform="translate(-100.2 -75.5)"/>
          </g>
          <g id="Group_10936" data-name="Group 10936" transform="translate(15.327 70.461)">
            <path id="Path_37438" data-name="Path 37438" class="cls-2" d="M99.668,115.8h17.585l2.2,3.908h0a25.814,25.814,0,0,1,2.2,11.357,55.839,55.839,0,0,0,.366,12.334,206.465,206.465,0,0,1,1.832,39.2.559.559,0,0,1-.611.488h-24.3c-.122,0-.244-.122-.366-.122a.449.449,0,0,1-.122-.366,199.073,199.073,0,0,0-.977-32.117A24.786,24.786,0,0,0,93.2,139.246c-1.343-1.832-2.076-4.518-1.343-8.3C93.318,122.272,96.981,118.975,99.668,115.8Z" transform="translate(-91.563 -115.8)"/>
          </g>
          <g id="Group_10945" data-name="Group 10945" transform="translate(13.052)">
            <g id="Group_10937" data-name="Group 10937" transform="translate(4.763 1.221)">
              <path id="Path_37439" data-name="Path 37439" class="cls-4" d="M93.6,71.556C93.6,64.6,99.828,59.1,107.4,59.1a16.277,16.277,0,0,1,3.419.366,14.2,14.2,0,0,1,8.3,5.373,11.863,11.863,0,0,1,1.954,4.4,24.29,24.29,0,0,1,.366,5.984c0,1.832.122,3.786,0,5.617a11.31,11.31,0,0,1-5.129,8.3c-3.3,2.2-7.571,1.221-10.99-.244a21.246,21.246,0,0,1-8.3-6.594A17.815,17.815,0,0,1,93.6,72.044C93.6,71.8,93.6,71.678,93.6,71.556Z" transform="translate(-93.6 -59.1)"/>
            </g>
            <g id="Group_10938" data-name="Group 10938" transform="translate(6.148 16.486)">
              <path id="Path_37440" data-name="Path 37440" class="cls-13" d="M94.815,74.531h0a1.217,1.217,0,0,1,.122-.488,7.785,7.785,0,0,0,.244-1.1c.122-.244.122-.366.244-.611,0-.122.122-.122.122-.244s.122-.122.122-.244c.122-.122.122-.122.244-.122s.122,0,.244-.122h5.617v1.465h-.611c-.733,0-1.588-1.1-2.564-1.1H96.158l-.122.122a2.918,2.918,0,0,0-.366.855,3.381,3.381,0,0,0-.122,1.1,1.263,1.263,0,0,1-.122.488h0c0,.244-.244.366-.488.244S94.692,74.775,94.815,74.531Z" transform="translate(-94.734 -71.6)"/>
            </g>
            <g id="Group_10939" data-name="Group 10939" transform="translate(6.742 22.592)">
              <path id="Path_37441" data-name="Path 37441" class="cls-13" d="M99.469,81.851a9.128,9.128,0,0,0-2.687.733,1.992,1.992,0,0,0-.977,1.1,13.848,13.848,0,0,1-.244-7.083h0c0,.122.122.122.122.244s.122.244.244.366l.733,1.1c.244.366.488.611.733.977.122.122.244.366.488.488a11.922,11.922,0,0,0,2.2,2.076Z" transform="translate(-95.221 -76.6)"/>
            </g>
            <g id="Group_10940" data-name="Group 10940" transform="translate(28.453 24.912)">
              <path id="Path_37442" data-name="Path 37442" class="cls-11" d="M113.977,83.14c.122-.122.122-.122.122-.244.122-.122.244-.244.244-.366l.244-.244c.122-.122.122-.244.244-.366,0-.122.122-.122.122-.244.122-.122.122-.244.244-.366,0-.122.122-.122.122-.244.122-.122.122-.244.244-.366,0-.122.122-.122.122-.244.122-.244.244-.366.244-.611h0a5.953,5.953,0,0,0,.488-1.343h.122v.122c-.122.244-.122.366-.244.611,0,.122,0,.122-.122.244a5.289,5.289,0,0,1-.122.611v.122c0,.244-.122.488-.122.733v.122a.915.915,0,0,1-.122.611v2.2a.915.915,0,0,0,.122.611v.244a1.736,1.736,0,0,0,.244.733v.122h0l-.122-.122-.122-.122A11.06,11.06,0,0,0,113,83.507c.122-.122.244-.244.366-.244C113.611,83.507,113.855,83.263,113.977,83.14Z" transform="translate(-113 -78.5)"/>
            </g>
            <g id="Group_10941" data-name="Group 10941">
              <path id="Path_37443" data-name="Path 37443" class="cls-2" d="M121.694,83.256a14.2,14.2,0,0,0,.488-2.2,43.115,43.115,0,0,0,0-5.617V74.219h0V74.1h0a8.542,8.542,0,0,0-.366-4.64,10.668,10.668,0,0,0-5.373-5.5c-5.5-2.931-8.548-1.832-8.792.122a2.863,2.863,0,0,0,.244,1.343,15.626,15.626,0,0,1-5.373,5.984,15.468,15.468,0,0,0-5.739,9.4c-.733,3.541-.366,7.2,1.465,9.769h0S89.7,88.018,89.7,77.516c0-10.624,7.327-19.416,18.684-19.416,6.106,0,12.089,2.931,14.9,9.891,2.687,6.716,0,10.99-1.465,15.387Z" transform="translate(-89.7 -58.1)"/>
            </g>
            <g id="Group_10942" data-name="Group 10942" transform="translate(28.942 25.156)">
              <path id="Path_37444" data-name="Path 37444" class="cls-13" d="M116.331,85.9a20.967,20.967,0,0,0-2.931-2.32,10.374,10.374,0,0,0,3.053-4.885h.122A11.157,11.157,0,0,0,116.331,85.9Z" transform="translate(-113.4 -78.7)"/>
            </g>
            <g id="Group_10943" data-name="Group 10943" transform="translate(13.066 15.45)">
              <path id="Path_37445" data-name="Path 37445" class="cls-2" d="M100.4,71.91V73.5a3.375,3.375,0,0,1,.733.733c0,.366.122.611.122.977a2.074,2.074,0,0,0,1.954,1.832l3.663.122a3.078,3.078,0,0,0,2.687-2.32,5.955,5.955,0,0,0,.366-.855,1.251,1.251,0,0,1,1.221-.733h.366a1.092,1.092,0,0,1,1.221.733,5.954,5.954,0,0,1,.366.855,2.957,2.957,0,0,0,2.687,2.32h.122l3.663-.122a2.178,2.178,0,0,0,1.954-1.832,2.689,2.689,0,0,0,.122-.977,3.375,3.375,0,0,1,.733-.733V71.91s-1.588-1.465-5.373-1.1c-3.663.366-4.885,1.465-5.617,1.465s-1.954-1.1-5.617-1.465S100.4,71.91,100.4,71.91Zm13.066,2.076a1.826,1.826,0,0,1,.366-1.71c.611-.611,1.71-.977,3.663-.977h.366c2.564,0,3.3.977,3.3,1.465a10.644,10.644,0,0,1-.244,2.442c-.244.855-.733,1.465-1.465,1.465l-3.663.122C114.688,76.794,113.589,75.573,113.466,73.986ZM101.5,72.765c0-.611.733-1.465,3.3-1.465h.366c2.076.122,3.175.366,3.663.977a1.922,1.922,0,0,1,.366,1.71,2.8,2.8,0,0,1-2.442,2.809h-.122l-3.663-.122c-.733,0-1.221-.611-1.465-1.465C101.5,74.108,101.5,73.253,101.5,72.765Z" transform="translate(-100.4 -70.752)"/>
            </g>
            <g id="Group_10944" data-name="Group 10944" transform="translate(17.951 3.901)">
              <path id="Path_37446" data-name="Path 37446" class="cls-2" d="M104.4,63.255c.244-2.076,3.3-3.053,8.792-.122a11.127,11.127,0,0,1,5.373,5.5,7.454,7.454,0,0,1,.366,4.64h0a6.782,6.782,0,0,0-4.763-2.809c-3.3-.122-8.3-3.3-9.525-5.739A3.351,3.351,0,0,1,104.4,63.255Z" transform="translate(-104.4 -61.294)"/>
            </g>
          </g>
          <g id="Group_10962" data-name="Group 10962" transform="translate(14.105 35.658)">
            <g id="Group_10947" data-name="Group 10947" transform="translate(0 0.244)">
              <g id="Group_10946" data-name="Group 10946">
                <path id="Path_37447" data-name="Path 37447" class="cls-9" d="M96.226,87.866q1.649-.183,2.931-.366a34.076,34.076,0,0,1,0,5.007.967.967,0,0,0,.611.977l.733.366a15.609,15.609,0,0,1-.733,2.809l1.465-.733a21.98,21.98,0,0,1,1.954,1.832c.611.611,1.343,1.343,2.2,2.32A63.777,63.777,0,0,1,111,107.649h-6.839a4.076,4.076,0,0,1-3.053-1.465,5.64,5.64,0,0,1-1.221-3.541c0,4.152,2.442,7.449,5.617,7.449h11.235a4.056,4.056,0,0,0,2.564-.855.449.449,0,0,1-.122.366l-1.221,7.2c-.855,4.64,1.1,7.449,2.076,10.624h0a26.619,26.619,0,0,1,1.954,10.624,13.272,13.272,0,0,1-.122,2.2c0,.244-.244.366-.488.366h-1.954c-2.32,0-4.64-4.274-5.007-6.961v0a6.271,6.271,0,0,1-1.832,4.518,7.019,7.019,0,0,1-5.251,2.32H91.585a.432.432,0,0,1-.488-.488,16.686,16.686,0,0,1,.244-2.32,26.551,26.551,0,0,1,4.64-11.235v-.122c3.175-4.03,4.64-7.571,2.564-12.212-.244-.611-2.32-5.129-2.564-5.862h0a39.092,39.092,0,0,1-2.564-7.815,17.322,17.322,0,0,0-2.32-5.862,3.508,3.508,0,0,1,.122-3.908A6.794,6.794,0,0,1,96.226,87.866Z" transform="translate(-90.562 -87.5)"/>
              </g>
            </g>
            <g id="Group_10948" data-name="Group 10948" transform="translate(8.839 0.244)">
              <path id="Path_37448" data-name="Path 37448" class="cls-14" d="M99.143,93.85l-.733-.366a1.088,1.088,0,0,1-.611-.977c0-1.1.122-3.3,0-5.007h.366A11.547,11.547,0,0,1,99.143,93.85Z" transform="translate(-97.8 -87.5)"/>
            </g>
            <g id="Group_10949" data-name="Group 10949" transform="translate(9.083 0.244)">
              <path id="Path_37449" data-name="Path 37449" class="cls-6" d="M104.594,91.9a6.774,6.774,0,0,1-.733.977,11.372,11.372,0,0,1-4.03,3.053l-1.465.733A15.609,15.609,0,0,0,99.1,93.85,10.871,10.871,0,0,0,98,87.5h.244a2.629,2.629,0,0,1,1.343.244c5.251,2.442,7.571,3.908,9.4,5.862l-3.175-1.832A.8.8,0,0,0,104.594,91.9Z" transform="translate(-98 -87.5)"/>
            </g>
            <g id="Group_10950" data-name="Group 10950" transform="translate(9.328 15.387)">
              <path id="Path_37450" data-name="Path 37450" class="cls-14" d="M103.817,107.349c-3.053,0-5.617-3.3-5.617-7.449a5.64,5.64,0,0,0,1.221,3.541,4.076,4.076,0,0,0,3.053,1.465h6.839c.855,1.465,1.465,2.442,1.465,2.442Z" transform="translate(-98.2 -99.9)"/>
            </g>
            <g id="Group_10951" data-name="Group 10951" transform="translate(10.793 5.617)">
              <path id="Path_37451" data-name="Path 37451" class="cls-14" d="M103.43,91.9a39.827,39.827,0,0,1,1.832,3.908,1.736,1.736,0,0,1,.244.733c1.832,4.885,3.3,8.06,4.152,10.014a10.167,10.167,0,0,1,.977,2.442s-.611-.977-1.465-2.442a63.777,63.777,0,0,0-5.617-7.571c-.855-.977-1.588-1.71-2.2-2.32A21.98,21.98,0,0,0,99.4,94.831,9.859,9.859,0,0,0,103.43,91.9Z" transform="translate(-99.4 -91.9)"/>
            </g>
            <g id="Group_10952" data-name="Group 10952" transform="translate(14.823 4.152)">
              <path id="Path_37452" data-name="Path 37452" class="cls-6" d="M111,90.7a24.4,24.4,0,0,1,1.588,5.251c0,.366.122.611.122.977a17.818,17.818,0,0,1-1.343,10.014,11.4,11.4,0,0,1-1.465,2.442,10.167,10.167,0,0,0-.977-2.442c-.855-1.954-2.32-5.129-4.152-10.014a1.736,1.736,0,0,1-.244-.733,16.529,16.529,0,0,0-1.832-3.908,6.774,6.774,0,0,0,.733-.977.947.947,0,0,1,1.221-.244l3.175,1.832,2.687-1.954C110.76,90.822,110.882,90.7,111,90.7Z" transform="translate(-102.7 -90.7)"/>
            </g>
            <g id="Group_10953" data-name="Group 10953" transform="translate(14.823 4.152)">
              <path id="Path_37453" data-name="Path 37453" class="cls-6" d="M103.555,91.188a.947.947,0,0,1,1.221-.244l3.175,1.832,2.687-1.954A.449.449,0,0,1,111,90.7c.244.611.488,1.221.733,1.954a3.238,3.238,0,0,0-.611-.733l-2.564,1.832h0c-.122,0-.122.122-.244.122h-.977a.12.12,0,0,1-.122-.122l-2.931-1.71c-.244.366-.488.611-.611.855l-.366.366c-.244-.366-.366-.733-.611-1.1C102.944,91.921,103.188,91.555,103.555,91.188Z" transform="translate(-102.7 -90.7)"/>
            </g>
            <g id="Group_10954" data-name="Group 10954" transform="translate(20.074 0.194)">
              <path id="Path_37454" data-name="Path 37454" class="cls-6" d="M112.984,93.371a10.284,10.284,0,0,1,1.1,3.3.426.426,0,0,0-.122-.244,7.251,7.251,0,0,0-.488-.977c-.244-.488-.611-.977-.855-1.465a14.058,14.058,0,0,0-1.71-2.076.809.809,0,0,0-.855-.244c-.122,0-.244.122-.366.122L107,93.737a8.874,8.874,0,0,0,.122-5.617.734.734,0,0,1,.122-.488c.122-.122.244-.244.488-.122h0C107.855,87.143,111.4,90.074,112.984,93.371Z" transform="translate(-107 -87.459)"/>
            </g>
            <g id="Group_10955" data-name="Group 10955" transform="translate(20.684)">
              <path id="Path_37455" data-name="Path 37455" class="cls-2" d="M112.873,92.185a.929.929,0,0,1,0,1.221A16.622,16.622,0,0,0,107.5,87.3h0C109.454,88.155,111.774,90.841,112.873,92.185Z" transform="translate(-107.5 -87.3)"/>
            </g>
            <g id="Group_10956" data-name="Group 10956" transform="translate(22.028 15.997)">
              <path id="Path_37456" data-name="Path 37456" class="cls-14" d="M108.6,107.239a14.442,14.442,0,0,0,1.832-2.442h5.007c1.343-.122,2.564-2.076,2.687-4.4a9.143,9.143,0,0,1-1.588,4.64,7,7,0,0,1-1.343,1.343,4.6,4.6,0,0,1-2.564.855Z" transform="translate(-108.6 -100.4)"/>
            </g>
            <g id="Group_10957" data-name="Group 10957" transform="translate(22.028 4.104)">
              <path id="Path_37457" data-name="Path 37457" class="cls-14" d="M111.409,96.937c0-.366-.122-.611-.122-.977a19.039,19.039,0,0,0-1.588-5.251.755.755,0,0,1,.855.244,25.581,25.581,0,0,1,1.71,2.076l-.733.855,1.343.488a.426.426,0,0,1,.244.122c.122.366.366.611.488.977v1.343a10.037,10.037,0,0,1-.244,2.564,19.326,19.326,0,0,1-2.931,7.449,14.442,14.442,0,0,1-1.832,2.442,11.4,11.4,0,0,0,1.465-2.442A17.168,17.168,0,0,0,111.409,96.937Z" transform="translate(-108.6 -90.661)"/>
            </g>
            <g id="Group_10958" data-name="Group 10958" transform="translate(24.958 6.594)">
              <path id="Path_37458" data-name="Path 37458" class="cls-14" d="M111,93.555l.733-.855a9.108,9.108,0,0,1,.855,1.465c-.122,0-.122-.122-.244-.122Z" transform="translate(-111 -92.7)"/>
            </g>
            <g id="Group_10960" data-name="Group 10960" transform="translate(20.929)">
              <g id="Group_10959" data-name="Group 10959">
                <path id="Path_37459" data-name="Path 37459" class="cls-9" d="M115.76,107.693h-5.007a19.326,19.326,0,0,0,2.931-7.449,22.372,22.372,0,0,0,.244-2.564V96.337a.426.426,0,0,0,.122.244,10.285,10.285,0,0,0-1.1-3.3,1.109,1.109,0,0,0,0-1.221c-.977-1.221-3.419-4.03-5.251-4.763.977.122,2.076.244,3.419.488l1.343.122c2.687.122,5.5,2.2,5.617,5.129a4.506,4.506,0,0,1-1.221,2.931,2.233,2.233,0,0,0,.122,2.931c.122.122.244.244.244.366a5.64,5.64,0,0,1,1.221,3.541v.611C118.2,105.617,117.1,107.571,115.76,107.693Z" transform="translate(-107.7 -87.3)"/>
              </g>
            </g>
            <g id="Group_10961" data-name="Group 10961" transform="translate(21.051 20.393)">
              <path id="Path_37460" data-name="Path 37460" class="cls-6" d="M107.8,104h2.442a11.4,11.4,0,0,1-1.465,2.442A6.518,6.518,0,0,0,107.8,104Z" transform="translate(-107.8 -104)"/>
            </g>
          </g>
          <g id="Group_10963" data-name="Group 10963" transform="translate(1.19 38.208)">
            <path id="Path_37461" data-name="Path 37461" class="cls-4" d="M80.247,113.582a6.891,6.891,0,0,0,.122,4.152,6.6,6.6,0,0,0,4.152,3.908l23.568,7.327a2.433,2.433,0,1,0,1.465-4.64L85.987,117a1.733,1.733,0,0,1-1.1-.977,2.042,2.042,0,0,1,.122-1.465L98.565,93.066a2.388,2.388,0,1,0-4.03-2.564L80.98,112.116Z" transform="translate(-79.986 -89.388)"/>
          </g>
          <g id="Group_10964" data-name="Group 10964" transform="translate(24.165 71.438)">
            <path id="Path_37462" data-name="Path 37462" class="cls-6" d="M101.975,117.088c.122,0,.244.244.244.366-.977,3.3-.611,1.832-1.588,5.129,0,.122-.244.244-.366.244l-1.465-.488c1.221-3.786.611-1.954,1.832-5.739Z" transform="translate(-98.8 -116.6)"/>
          </g>
          <g id="Group_10966" data-name="Group 10966" transform="translate(0 37.391)">
            <g id="Group_10965" data-name="Group 10965">
              <path id="Path_37463" data-name="Path 37463" class="cls-9" d="M79.486,118.736a7.794,7.794,0,0,1-.122-5.007,12.324,12.324,0,0,1,.855-1.832L93.774,90.405a3.586,3.586,0,0,1,5.007-1.1,3.892,3.892,0,0,1,1.588,4.152,5.951,5.951,0,0,1-.366.855L86.324,115.805v.366a.263.263,0,0,0,.244.244l18.2,5.617c.244.122.366.244.244.488v.244c-1.221,3.786-.611,1.954-1.832,5.739v.244c-.122.244-.244.366-.488.244l-18.2-5.617A7.889,7.889,0,0,1,79.486,118.736Z" transform="translate(-79.011 -88.719)"/>
            </g>
          </g>
          <g id="Group_10986" data-name="Group 10986" transform="translate(31.705 57.028)">
            <g id="Group_10967" data-name="Group 10967" transform="translate(0 0.611)">
              <path id="Path_37464" data-name="Path 37464" class="cls-6" d="M110.379,105.911l-5.373,20.76a.8.8,0,0,0,.611.977l13.677,3.541a.8.8,0,0,0,.977-.611l5.373-20.76a.8.8,0,0,0-.611-.977l-.733-.244-.122.611a.449.449,0,0,1,.122.366.5.5,0,1,1-.977-.244.263.263,0,0,1,.244-.244l.122-.611-.855-.244-.122.611a.449.449,0,0,1,.122.366.5.5,0,1,1-.977-.244.263.263,0,0,1,.244-.244l.122-.611-.855-.244-.122.611a.449.449,0,0,1,.122.366.5.5,0,0,1-.977-.244.263.263,0,0,1,.244-.244l.122-.611-.855-.244-.122.611a.449.449,0,0,1,.122.366.5.5,0,0,1-.977-.244.263.263,0,0,1,.244-.244l.122-.611-.855-.244-.122.611a.449.449,0,0,1,.122.366.5.5,0,1,1-.977-.244.263.263,0,0,1,.244-.244l.122-.611-.855-.244-.122.611a.449.449,0,0,1,.122.366A.5.5,0,0,1,116,107.5a.263.263,0,0,1,.244-.244l.122-.611-.855-.244-.122.611a.449.449,0,0,1,.122.366.5.5,0,0,1-.977-.244.263.263,0,0,1,.244-.244l.122-.611-.855-.244-.122.611a.449.449,0,0,1,.122.366.5.5,0,1,1-.977-.244.263.263,0,0,1,.244-.244l.122-.611-.855-.244-.122.611a.449.449,0,0,1,.122.366.5.5,0,1,1-.977-.244.263.263,0,0,1,.244-.244l.122-.611-.855-.244A1.1,1.1,0,0,0,110.379,105.911Z" transform="translate(-104.975 -105.3)"/>
            </g>
            <g id="Group_10968" data-name="Group 10968" transform="translate(18.349 4.518)">
              <path id="Path_37465" data-name="Path 37465" class="cls-6" d="M120.366,109.233c.122,0,.366,0,.366-.244l.122-.366a.449.449,0,0,1,.122.366.5.5,0,0,1-.977-.244.263.263,0,0,1,.244-.244l-.122.366C120.122,108.988,120.122,109.233,120.366,109.233Z" transform="translate(-120 -108.5)"/>
            </g>
            <g id="Group_10969" data-name="Group 10969" transform="translate(16.883 4.152)">
              <path id="Path_37466" data-name="Path 37466" class="cls-6" d="M119.166,108.933c.122,0,.366,0,.366-.244l.122-.366a.449.449,0,0,1,.122.366.5.5,0,1,1-.977-.244.263.263,0,0,1,.244-.244l-.122.366C118.922,108.688,119.044,108.933,119.166,108.933Z" transform="translate(-118.8 -108.2)"/>
            </g>
            <g id="Group_10970" data-name="Group 10970" transform="translate(15.418 3.786)">
              <path id="Path_37467" data-name="Path 37467" class="cls-6" d="M117.966,108.633c.122,0,.366,0,.366-.244l.122-.366a.449.449,0,0,1,.122.366.5.5,0,0,1-.977-.244.263.263,0,0,1,.244-.244l-.122.366C117.722,108.388,117.844,108.633,117.966,108.633Z" transform="translate(-117.6 -107.9)"/>
            </g>
            <g id="Group_10971" data-name="Group 10971" transform="translate(14.074 3.419)">
              <path id="Path_37468" data-name="Path 37468" class="cls-6" d="M116.866,108.333c.122,0,.366,0,.366-.244l.122-.366a.449.449,0,0,1,.122.366.5.5,0,0,1-.977-.244.263.263,0,0,1,.244-.244l-.122.366C116.5,108.088,116.622,108.333,116.866,108.333Z" transform="translate(-116.5 -107.6)"/>
            </g>
            <g id="Group_10972" data-name="Group 10972" transform="translate(12.609 3.053)">
              <path id="Path_37469" data-name="Path 37469" class="cls-6" d="M115.666,108.033c.122,0,.366,0,.366-.244l.122-.366a.449.449,0,0,1,.122.366.5.5,0,1,1-.977-.244.263.263,0,0,1,.244-.244l-.122.366C115.422,107.788,115.544,108.033,115.666,108.033Z" transform="translate(-115.3 -107.3)"/>
            </g>
            <g id="Group_10973" data-name="Group 10973" transform="translate(11.144 2.687)">
              <path id="Path_37470" data-name="Path 37470" class="cls-6" d="M114.466,107.733c.122,0,.366,0,.366-.244l.122-.366a.449.449,0,0,1,.122.366.5.5,0,1,1-.977-.244.263.263,0,0,1,.244-.244l-.122.366C114.222,107.488,114.344,107.611,114.466,107.733Z" transform="translate(-114.1 -107)"/>
            </g>
            <g id="Group_10974" data-name="Group 10974" transform="translate(9.678 2.32)">
              <path id="Path_37471" data-name="Path 37471" class="cls-6" d="M113.266,107.433c.122,0,.366,0,.366-.244l.122-.366a.449.449,0,0,1,.122.366.5.5,0,1,1-.977-.244.263.263,0,0,1,.244-.244l-.122.366C113.022,107.188,113.144,107.311,113.266,107.433Z" transform="translate(-112.9 -106.7)"/>
            </g>
            <g id="Group_10975" data-name="Group 10975" transform="translate(8.335 1.954)">
              <path id="Path_37472" data-name="Path 37472" class="cls-6" d="M112.166,107.133c.122,0,.366,0,.366-.244l.122-.366a.449.449,0,0,1,.122.366.5.5,0,1,1-.977-.244.263.263,0,0,1,.244-.244l-.122.366C111.922,106.888,111.922,107.011,112.166,107.133Z" transform="translate(-111.8 -106.4)"/>
            </g>
            <g id="Group_10976" data-name="Group 10976" transform="translate(6.87 1.588)">
              <path id="Path_37473" data-name="Path 37473" class="cls-6" d="M110.966,106.833c.122,0,.366,0,.366-.244l.122-.366a.449.449,0,0,1,.122.366.5.5,0,0,1-.977-.244.263.263,0,0,1,.244-.244l-.122.366C110.722,106.588,110.844,106.711,110.966,106.833Z" transform="translate(-110.6 -106.1)"/>
            </g>
            <g id="Group_10977" data-name="Group 10977" transform="translate(18.471 2.931)">
              <path id="Path_37474" data-name="Path 37474" class="cls-15" d="M120.711,109.276c0,.122-.244.244-.366.244s-.244-.244-.244-.366l.122-.366.122-.611.244-.733c0-.122.244-.244.366-.244s.244.244.244.366l-.244.733-.122.611Z" transform="translate(-120.1 -107.2)"/>
            </g>
            <g id="Group_10978" data-name="Group 10978" transform="translate(6.992)">
              <path id="Path_37475" data-name="Path 37475" class="cls-15" d="M111.311,106.876c0,.122-.244.244-.366.244s-.244-.244-.244-.366l.122-.366.122-.611.244-.733c0-.122.244-.244.366-.244s.244.244.244.366l-.244.733-.122.611Z" transform="translate(-110.7 -104.8)"/>
            </g>
            <g id="Group_10979" data-name="Group 10979" transform="translate(12.731 1.465)">
              <path id="Path_37476" data-name="Path 37476" class="cls-15" d="M116.011,108.076c0,.122-.244.244-.366.244s-.244-.244-.244-.366l.122-.366.122-.611.244-.733c0-.122.244-.244.366-.244s.244.244.244.366l-.244.733-.122.611Z" transform="translate(-115.4 -106)"/>
            </g>
            <g id="Group_10980" data-name="Group 10980" transform="translate(9.8 0.733)">
              <path id="Path_37477" data-name="Path 37477" class="cls-15" d="M113.611,107.476c0,.122-.244.244-.366.244s-.244-.244-.244-.366l.122-.366.122-.611.244-.733c0-.122.244-.244.366-.244s.244.244.244.366l-.244.733-.122.611Z" transform="translate(-113 -105.4)"/>
            </g>
            <g id="Group_10981" data-name="Group 10981" transform="translate(15.54 2.198)">
              <path id="Path_37478" data-name="Path 37478" class="cls-15" d="M118.311,108.676c0,.122-.244.244-.366.244s-.244-.244-.244-.366l.122-.366.122-.611.244-.733c0-.122.244-.244.366-.244s.244.244.244.366l-.244.733-.122.611Z" transform="translate(-117.7 -106.6)"/>
            </g>
            <g id="Group_10982" data-name="Group 10982" transform="translate(17.005 2.564)">
              <path id="Path_37479" data-name="Path 37479" class="cls-15" d="M119.511,108.976c0,.122-.244.244-.366.244s-.244-.244-.244-.366l.122-.366.122-.611.244-.733c0-.122.244-.244.366-.244s.244.244.244.366l-.244.733-.122.611Z" transform="translate(-118.9 -106.9)"/>
            </g>
            <g id="Group_10983" data-name="Group 10983" transform="translate(14.074 1.832)">
              <path id="Path_37480" data-name="Path 37480" class="cls-15" d="M117.111,108.376c0,.122-.244.244-.366.244s-.244-.244-.244-.366l.122-.366.122-.611.244-.733c0-.122.244-.244.366-.244s.244.244.244.366l-.244.733-.122.611Z" transform="translate(-116.5 -106.3)"/>
            </g>
            <g id="Group_10984" data-name="Group 10984" transform="translate(11.266 1.099)">
              <path id="Path_37481" data-name="Path 37481" class="cls-15" d="M114.811,107.776c0,.122-.244.244-.366.244s-.244-.244-.244-.366l.122-.366.122-.611.244-.733c0-.122.244-.244.366-.244s.244.244.244.366l-.244.733-.122.611Z" transform="translate(-114.2 -105.7)"/>
            </g>
            <g id="Group_10985" data-name="Group 10985" transform="translate(8.457 0.366)">
              <path id="Path_37482" data-name="Path 37482" class="cls-15" d="M112.511,107.176c0,.122-.244.244-.366.244s-.244-.244-.244-.366l.122-.366.122-.611.244-.733c0-.122.244-.244.366-.244s.244.244.244.366l-.244.733-.122.611Z" transform="translate(-111.9 -105.1)"/>
            </g>
          </g>
          <g id="Group_10987" data-name="Group 10987" transform="translate(27.936 67.761)">
            <path id="Path_37483" data-name="Path 37483" class="cls-4" d="M108.253,113.725a5.753,5.753,0,0,1,2.076.488l2.32.977a.9.9,0,0,1,.488,1.1.12.12,0,0,1-.122.122.734.734,0,0,0-.122.488q0,.183.366.366h0a.9.9,0,0,1,.488,1.1.831.831,0,0,1-.977.488h-.244s-.122.122,0,.122v.488a.9.9,0,0,1-1.1.488h-.244l-.122.122v.366a.769.769,0,0,1-.977.366l-1.588-.733a.555.555,0,0,0-.611,0,.953.953,0,0,0-.488.488c-.733,1.954-2.2,3.175-3.419,3.053-1.588-.244-2.442-2.564-1.954-5.373C103,112.992,103.246,113.48,108.253,113.725Z" transform="translate(-101.888 -113.589)"/>
          </g>
          <g id="Group_10988" data-name="Group 10988" transform="translate(60.067 41.886)">
            <path id="Path_37484" data-name="Path 37484" class="cls-6" d="M128.688,92.644c0-.122.244-.244.366-.244l5.129,1.71c.122,0,.244.244.244.366l-.488,1.465c-3.786-1.221-1.954-.611-5.739-1.832Z" transform="translate(-128.2 -92.4)"/>
          </g>
        </g>
      </g>
      <g id="Group_11082" data-name="Group 11082" transform="translate(160.66 31.981)">
        <g id="Group_11032" data-name="Group 11032">
          <g id="Group_10994" data-name="Group 10994" transform="translate(56.596 69.461)">
            <g id="Group_10991" data-name="Group 10991" transform="translate(0 14.591)">
              <path id="Path_37485" data-name="Path 37485" class="cls-4" d="M182.292,95.484a2.811,2.811,0,1,0-3.175,4.64l3.175,2.2,3.175-4.64Z" transform="translate(-177.919 -95.018)"/>
            </g>
            <g id="Group_10992" data-name="Group 10992" transform="translate(5.217)">
              <path id="Path_37486" data-name="Path 37486" class="cls-3" d="M207.846,120.718a8.863,8.863,0,0,0,4.64-3.541,6.788,6.788,0,0,0,1.1-2.076L222.5,89.212a4.6,4.6,0,0,0-2.931-5.862,4.531,4.531,0,0,0-5.373,1.832,4.337,4.337,0,0,0-.488,1.1l-8.792,25.644-17.1-11.479a.6.6,0,0,0-.855.122l-.244.244-.488.733-3.175,4.64-.488.733-.244.244a.6.6,0,0,0,.122.855l17.34,11.723A9.856,9.856,0,0,0,207.846,120.718Z" transform="translate(-182.191 -83.07)"/>
            </g>
            <g id="Group_10993" data-name="Group 10993" transform="translate(3.874 16.755)">
              <path id="Path_37487" data-name="Path 37487" class="cls-6" d="M186.475,98.389l.488-.733-1.221-.733a.6.6,0,0,0-.855.122l-.244.244-3.175,4.64-.244.244a.6.6,0,0,0,.122.855l1.221.733.488-.733Z" transform="translate(-181.091 -96.791)"/>
            </g>
          </g>
          <g id="Group_10995" data-name="Group 10995" transform="translate(49.979 78.809)">
            <path id="Path_37488" data-name="Path 37488" class="cls-4" d="M173.6,91.916a1.431,1.431,0,0,0-1.1,1.343,1.236,1.236,0,0,0,.488.855c.122,0,.122.122.122.244s0,.122-.122.244a.95.95,0,0,0-.244.977,1.236,1.236,0,0,0,.488.855c.122,0,.122.122.122.244s0,.122-.122.244a.95.95,0,0,0-.244.977,1.267,1.267,0,0,0,.733.977.12.12,0,0,1,.122.122v.244a1.549,1.549,0,0,0-.122.733,1.309,1.309,0,0,0,1.343,1.1l3.3-.855a1.109,1.109,0,0,1,.855.366c1.1,1.343,2.564,2.076,3.663,1.71,1.832-.488,2.442-3.541,1.221-6.716C182.147,89.351,179.949,90.328,173.6,91.916Z" transform="translate(-172.5 -90.725)"/>
          </g>
          <g id="Group_10996" data-name="Group 10996" transform="translate(43.738)">
            <path id="Path_37489" data-name="Path 37489" class="cls-2" d="M198.176,253.7a1.9,1.9,0,0,1-2.076-1.587L167.4,28.278a1.848,1.848,0,0,1,3.663-.488l28.819,223.839A1.9,1.9,0,0,1,198.176,253.7Z" transform="translate(-167.389 -26.189)"/>
          </g>
          <g id="Group_10997" data-name="Group 10997" transform="translate(50.938 80.393)">
            <path id="Path_37490" data-name="Path 37490" class="cls-4" d="M183.073,94.071a1.048,1.048,0,0,0-.733-.855,18.688,18.688,0,0,0-8.06-1.1,1.106,1.106,0,0,0,.244,2.2,19.731,19.731,0,0,1,7.2,1.1,1.053,1.053,0,0,0,1.343-.733C183.073,94.437,183.195,94.193,183.073,94.071Z" transform="translate(-173.285 -92.022)"/>
          </g>
          <g id="Group_11000" data-name="Group 11000" transform="translate(82.225 126.588)">
            <g id="Group_10998" data-name="Group 10998">
              <path id="Path_37491" data-name="Path 37491" class="cls-2" d="M208.912,221.986a.634.634,0,0,0,.244-.488c-1.465-34.193,1.832-59.1,11.113-84.993a4.578,4.578,0,0,0-.244-3.786,5.239,5.239,0,0,0-2.809-2.564,2.874,2.874,0,0,0-.977-.244,4.906,4.906,0,0,0-5.373,3.3c-9.525,26.866-12.944,52.388-11.723,87.191a.811.811,0,0,0,.488.611l.733.122,7.449,1.1.488.122C208.668,222.109,208.79,222.109,208.912,221.986Z" transform="translate(-198.905 -129.851)"/>
            </g>
            <g id="Group_10999" data-name="Group 10999" transform="translate(1.581 90.914)">
              <path id="Path_37492" data-name="Path 37492" class="cls-3" d="M200.566,209.551a3.655,3.655,0,0,0,3.175,3.419h.733a3.7,3.7,0,0,0,3.541-3.908c-.122-1.588-.244-2.2-.366-3.663l-7.449-1.1C200.322,206.5,200.444,207.475,200.566,209.551Z" transform="translate(-200.2 -204.3)"/>
            </g>
          </g>
          <g id="Group_11003" data-name="Group 11003" transform="translate(111.45 126.648)">
            <g id="Group_11001" data-name="Group 11001">
              <path id="Path_37493" data-name="Path 37493" class="cls-2" d="M248.07,220.022a.926.926,0,0,0,.488-.244.371.371,0,0,0,0-.488c-11.967-32.117-16.486-56.784-15.753-84.26a5.009,5.009,0,0,0-4.763-5.129,2.689,2.689,0,0,0-.977.122,5.076,5.076,0,0,0-4.152,4.763c-.733,28.453,3.786,53.853,15.753,86.458a.593.593,0,0,0,.733.366l.733-.122,7.449-1.343Z" transform="translate(-222.838 -129.9)"/>
            </g>
            <g id="Group_11002" data-name="Group 11002" transform="translate(17.294 90.244)">
              <path id="Path_37494" data-name="Path 37494" class="cls-3" d="M238.954,209.906a3.707,3.707,0,0,0,4.152,2.32,1.736,1.736,0,0,0,.733-.244,3.644,3.644,0,0,0,2.076-4.763c-.611-1.465-.977-1.954-1.465-3.419L237,205.143C237.611,206.975,238.221,207.952,238.954,209.906Z" transform="translate(-237 -203.8)"/>
            </g>
          </g>
          <g id="Group_11004" data-name="Group 11004" transform="translate(123.066 218.846)">
            <path id="Path_37495" data-name="Path 37495" class="cls-7" d="M232.533,213.215a1.811,1.811,0,0,1,0-1.588,11.179,11.179,0,0,1,6.839-6.228c3.175,0,3.3,3.908,5.5,3.908a2.339,2.339,0,0,0,1.832-.733c.122-.122.244-.244.366-.122.122,0,.244.122.366.244a16.271,16.271,0,0,1,.611,2.32,2.947,2.947,0,0,1-.488,2.076,2.287,2.287,0,0,1-1.71.977H233.876A1.656,1.656,0,0,1,232.533,213.215Z" transform="translate(-232.35 -205.4)"/>
          </g>
          <g id="Group_11007" data-name="Group 11007" transform="translate(107.735 52.396)">
            <g id="Group_11005" data-name="Group 11005" transform="translate(0 0)">
              <path id="Path_37496" data-name="Path 37496" class="cls-4" d="M224.2,96.577a4.833,4.833,0,0,1-3.663-4.518L219.8,74.108a4.827,4.827,0,0,1,9.647-.366l.733,17.951a4.8,4.8,0,0,1-4.64,5.007A5.01,5.01,0,0,1,224.2,96.577Z" transform="translate(-219.796 -69.096)"/>
            </g>
            <g id="Group_11006" data-name="Group 11006" transform="translate(0.122)">
              <path id="Path_37497" data-name="Path 37497" class="cls-5" d="M229.792,81.435l-.244-7.693a4.827,4.827,0,0,0-9.647.366l.366,10.38a25.92,25.92,0,0,0,5.617-1.221A22.794,22.794,0,0,0,229.792,81.435Z" transform="translate(-219.896 -69.096)"/>
            </g>
          </g>
          <g id="Group_11018" data-name="Group 11018" transform="translate(91.133 67.544)">
            <g id="Group_11008" data-name="Group 11008" transform="translate(4.64 60.081)">
              <path id="Path_37498" data-name="Path 37498" class="cls-2" d="M218.426,130.7c-.244,4.152-2.076,7.449-6.35,7.083L210,137.661c2.076,2.564,5.862,4.03,11.723,4.4,4.64.366,8.182-.611,10.746-2.809l-7.2-.488C219.647,138.393,218.06,134.974,218.426,130.7Z" transform="translate(-210 -130.7)"/>
            </g>
            <g id="Group_11009" data-name="Group 11009" transform="translate(21.973 52.021)">
              <path id="Path_37499" data-name="Path 37499" class="cls-2" d="M231.65,124.588h-.244c-.611,0-2.2-.122-6.106-.488a.944.944,0,0,0-.977.855l-.122,1.465a3.418,3.418,0,0,0,3.175,3.663l6.35.488a18.493,18.493,0,0,0-1.1-5.862h-.122A2.751,2.751,0,0,0,231.65,124.588Z" transform="translate(-224.194 -124.1)"/>
            </g>
            <g id="Group_11010" data-name="Group 11010" transform="translate(19.172 0.855)">
              <path id="Path_37500" data-name="Path 37500" class="cls-6" d="M222.633,88.672v.244a.634.634,0,0,0,.244.488.371.371,0,0,0,.488,0l2.076-.733c.244-.366.366-.855.611-1.221a25.032,25.032,0,0,1,2.931-4.64,2.144,2.144,0,0,1,.488-.611,1.869,1.869,0,0,0-1.221.488,16.941,16.941,0,0,1-6.35,1.343Z" transform="translate(-221.9 -82.2)"/>
            </g>
            <g id="Group_11011" data-name="Group 11011" transform="translate(14.898 0.122)">
              <path id="Path_37501" data-name="Path 37501" class="cls-6" d="M218.522,87.339c0,.122-.122.366-.122.488h0l.977.977a.933.933,0,0,0,.611.244c.244,0,.366-.122.488-.366l.122-.122,2.2-4.4c-1.343-.122-1.954-.611-2.2-1.221V81.6h-.366l-.366,1.1C219.377,84.287,218.888,85.874,218.522,87.339Z" transform="translate(-218.4 -81.6)"/>
            </g>
            <g id="Group_11012" data-name="Group 11012" transform="translate(13.653 6.228)">
              <path id="Path_37502" data-name="Path 37502" class="cls-6" d="M220.824,89.9c0-.122,0-.122.122-.244h0v-.244c0-.122,0-.122.122-.244h0a1.338,1.338,0,0,0,0-.977l-.122-.244h0l-.122-.611-.122.122c-.122.244-.244.366-.488.366a.672.672,0,0,1-.611-.244l-.977-.977h0c-.244,1.1-.366,2.076-.611,3.175a57.687,57.687,0,0,0-.488,12.822C218.87,96.736,220.213,91.851,220.824,89.9Z" transform="translate(-217.38 -86.6)"/>
            </g>
            <g id="Group_11013" data-name="Group 11013" transform="translate(17.585 7.327)">
              <path id="Path_37503" data-name="Path 37503" class="cls-6" d="M224.752,89.942c.366-.855.733-1.588,1.1-2.442l-2.076.733h-.488a.634.634,0,0,1-.244-.488V87.5l-.488.611h0l-.244.244a1.387,1.387,0,0,0-.366.977h0v.488c-.244,2.32-.977,7.693-1.343,12.334A72.235,72.235,0,0,1,224.752,89.942Z" transform="translate(-220.6 -87.5)"/>
            </g>
            <g id="Group_11014" data-name="Group 11014" transform="translate(0 0.244)">
              <path id="Path_37504" data-name="Path 37504" class="cls-3" d="M249.429,89.149a4.57,4.57,0,0,0-2.076-2.931,30.813,30.813,0,0,0-11.479-3.663l-.122,1.1-.488,3.786a.774.774,0,0,1-.611.733l-2.076.733.488.244a.811.811,0,0,1,.488.611,1.163,1.163,0,0,1-.244.855c-.244.244-.488.611-.855.977-3.175,4.274-9.769,15.142-11.113,21.492V112.6c-2.32-6.228-3.786-16.364-3.908-21.248a10.578,10.578,0,0,1,.122-2.2,1.071,1.071,0,0,1,.733-.855l.611-.122-.611-.611a.95.95,0,0,1-.244-.977,17.184,17.184,0,0,1,1.71-3.3c.244-.488.611-.977.977-1.588a35.861,35.861,0,0,0-9.891,1.954,4.23,4.23,0,0,0-2.442,2.564,4.462,4.462,0,0,0,0,3.541l.366.733a7.89,7.89,0,0,1,1.1,4.763,65.244,65.244,0,0,0,0,18.928,46.8,46.8,0,0,1-1.1,19.294s-.733,5.251-2.564,13.311a1.514,1.514,0,0,0,1.465,1.588l2.2.122h.855l2.076.122c4.4.366,6.106-2.931,6.35-7.083-.244,4.152,1.343,7.693,6.839,8.06l7.2.488h.855l2.2.122a1.754,1.754,0,0,0,2.076-1.343l-.611-8.67h0v-.488l-6.35-.488a3.5,3.5,0,0,1-3.175-3.663l.122-1.465a.944.944,0,0,1,.977-.855c4.03.244,5.5.366,6.106.488h.366a3.222,3.222,0,0,1,.855.122h.122c-2.076-5.862-2.442-11.479.855-17.463a36.889,36.889,0,0,0,2.2-4.4c.611-1.1,1.1-2.2,1.588-3.175a31.8,31.8,0,0,0,3.908-10.868,6.082,6.082,0,0,1,2.564-4.274,11.01,11.01,0,0,0,1.1-1.221A4.888,4.888,0,0,0,249.429,89.149Z" transform="translate(-206.2 -81.7)"/>
            </g>
            <g id="Group_11015" data-name="Group 11015" transform="translate(15.142 0.855)">
              <path id="Path_37505" data-name="Path 37505" class="cls-2" d="M226.9,87.451c-.244.366-.366.855-.611,1.221-.366.855-.733,1.588-1.1,2.442a107.1,107.1,0,0,0-4.4,12.212h0c-1.465,5.129-2.2,8.914-2.2,8.914v.244h0v.488c1.343-6.35,7.938-17.218,11.113-21.492.366-.366.611-.733.855-.977a1.03,1.03,0,0,0,.244-.855.811.811,0,0,0-.488-.611l-.488-.244,2.076-.733c.366-.122.488-.366.611-.733l.488-3.786.122-1.1c-.366,0-.733-.122-1.1-.122l-1.71-.122c-.122.244-.366.366-.488.611A37,37,0,0,0,226.9,87.451Z" transform="translate(-218.6 -82.2)"/>
            </g>
            <g id="Group_11016" data-name="Group 11016" transform="translate(11.357)">
              <path id="Path_37506" data-name="Path 37506" class="cls-2" d="M216.111,86.507a.766.766,0,0,0,.244.977l.611.611-.611.122a1.071,1.071,0,0,0-.733.855,10.578,10.578,0,0,0-.122,2.2c.122,4.885,1.587,15.02,3.908,21.248h0a84.908,84.908,0,0,1-1.221-8.792,50.988,50.988,0,0,1,.488-12.822c.122-.977.366-2.076.611-3.175,0-.122.122-.366.122-.488a33.2,33.2,0,0,1,1.343-4.64l.366-1.1h-2.076a6.922,6.922,0,0,0-.977,1.588A13.172,13.172,0,0,0,216.111,86.507Z" transform="translate(-215.5 -81.5)"/>
            </g>
            <g id="Group_11017" data-name="Group 11017" transform="translate(13.799 2.931)">
              <path id="Path_37507" data-name="Path 37507" class="cls-9" d="M220.675,88.052l.122.611h0l.122.244a1.338,1.338,0,0,1,0,.977h0c0,.122,0,.122-.122.244v.244h0c0,.122,0,.122-.122.244-.611,2.076-1.832,6.961-3.175,12.822a84.916,84.916,0,0,0,1.221,8.792v-.244s.733-3.786,2.2-8.914h0c.366-4.64,1.1-10.136,1.343-12.334V90.25h0a2.331,2.331,0,0,1,.366-.977l.244-.244h0l.488-.611-.611-4.518Z" transform="translate(-217.5 -83.9)"/>
            </g>
          </g>
          <g id="Group_11019" data-name="Group 11019" transform="translate(72.767 218.553)">
            <path id="Path_37508" data-name="Path 37508" class="cls-7" d="M210.381,208.017a.46.46,0,0,0-.733-.122,3.238,3.238,0,0,0-.733.611c-.855.733-1.1.733-2.687.733-1.343,0-2.076-2.809-3.786-3.786a1.789,1.789,0,0,0-1.343-.244,14.094,14.094,0,0,0-9.769,6.35,1.5,1.5,0,0,0,.122,1.587,2.087,2.087,0,0,0,1.588.855h15.631a3.336,3.336,0,0,0,2.32-.977,1.984,1.984,0,0,0,.611-2.076A11.552,11.552,0,0,0,210.381,208.017Z" transform="translate(-191.161 -205.161)"/>
          </g>
          <g id="Group_11024" data-name="Group 11024" transform="translate(125.25 8.707)">
            <g id="Group_11020" data-name="Group 11020" transform="translate(13.931)">
              <path id="Path_37509" data-name="Path 37509" class="cls-4" d="M249.4,33.662c5.129-1.343,5.129,1.465,5.862,4.763s-.733,6.472-3.175,7.083c-2.564.611-5.129-1.465-5.862-4.763C245.49,37.57,244.269,35.005,249.4,33.662Z" transform="translate(-245.546 -33.319)"/>
            </g>
            <g id="Group_11021" data-name="Group 11021" transform="translate(16.649 5.316)">
              <path id="Path_37510" data-name="Path 37510" class="cls-4" d="M247.806,40.881a2.781,2.781,0,0,1,5.5-.855l.611,3.908-5.5.855Z" transform="translate(-247.772 -37.672)"/>
            </g>
            <g id="Group_11022" data-name="Group 11022" transform="translate(0 13.41)">
              <path id="Path_37511" data-name="Path 37511" class="cls-3" d="M242.518,101.206a4.477,4.477,0,0,1-3.053,1.832,4.3,4.3,0,0,1-3.419-.855,4.968,4.968,0,0,1-1.832-3.053,4.3,4.3,0,0,1,.855-3.419l15.387-20.882a12.52,12.52,0,0,0,2.32-9.525l-2.931-19.172a.67.67,0,0,1,.488-.733h.366l.977-.122,5.5-.855.977-.122h.366a.67.67,0,0,1,.733.488l2.931,19.172a22.28,22.28,0,0,1-4.03,16.364Z" transform="translate(-234.138 -44.3)"/>
            </g>
            <g id="Group_11023" data-name="Group 11023" transform="translate(16.317 11.578)">
              <path id="Path_37512" data-name="Path 37512" class="cls-6" d="M248.721,45.609l-.977.122-.244-1.343a.67.67,0,0,1,.488-.733h.366l5.5-.855h.366a.67.67,0,0,1,.733.488l.244,1.343-.977.122Z" transform="translate(-247.5 -42.8)"/>
            </g>
          </g>
          <g id="Group_11028" data-name="Group 11028" transform="translate(0 0.346)">
            <g id="Group_11025" data-name="Group 11025">
              <path id="Path_37513" data-name="Path 37513" class="cls-8" d="M221.239,26.506,134.048,37.741a2.781,2.781,0,0,0-2.442,3.175l6.839,53.365a2.781,2.781,0,0,0,3.175,2.442l87.191-11.235a2.781,2.781,0,0,0,2.442-3.175l-6.839-53.365A2.781,2.781,0,0,0,221.239,26.506Z" transform="translate(-131.572 -26.472)"/>
            </g>
            <g id="Group_11027" data-name="Group 11027" transform="translate(14.336 20.653)">
              <g id="Group_11026" data-name="Group 11026">
                <path id="Path_37514" data-name="Path 37514" class="cls-9" d="M152.578,64.312l1.832-14.165a1.424,1.424,0,0,1,1.221-1.221l1.1-.122c.977-.122,1.71.488,1.588,1.343l-2.931,22.347a1.569,1.569,0,0,1-1.221,1.221l-.855.122a1.256,1.256,0,0,1-1.465-.855L143.419,52.1c-.366-.855.244-1.588,1.221-1.71l1.1-.122a1.383,1.383,0,0,1,1.465.855Z" transform="translate(-143.312 -42.19)"/>
                <path id="Path_37515" data-name="Path 37515" class="cls-9" d="M159.72,55.434c-.611-4.518,1.343-7.327,5.617-7.815,4.4-.611,6.839,1.588,7.449,6.106L174.13,63.86c.366,2.809-.244,4.64-1.343,5.862a6.289,6.289,0,0,1-4.274,1.954,6.4,6.4,0,0,1-4.64-.855c-1.343-.977-2.442-2.442-2.809-5.373Zm5.373,9.647c.244,2.32,1.343,3.419,3.053,3.175s2.442-1.343,2.076-3.786l-1.343-10.136c-.366-2.442-1.221-3.3-3.053-3.175-1.71.244-2.442,1.465-2.076,3.786Z" transform="translate(-139.707 -42.471)"/>
                <path id="Path_37516" data-name="Path 37516" class="cls-9" d="M173.6,47.912a1.353,1.353,0,0,1,1.221-1.465l10.5-1.343a1.318,1.318,0,0,1,1.588,1.1l.122.977a1.353,1.353,0,0,1-1.221,1.465l-3.3.366,2.442,19.294a1.353,1.353,0,0,1-1.221,1.465l-1.1.122a1.318,1.318,0,0,1-1.588-1.1L178.61,49.5l-3.175.366a1.318,1.318,0,0,1-1.588-1.1Z" transform="translate(-136.616 -43.009)"/>
                <path id="Path_37517" data-name="Path 37517" class="cls-9" d="M198.394,43.4a1.318,1.318,0,0,1,1.588,1.1l.122.977a1.353,1.353,0,0,1-1.221,1.465l-6.106.733.855,6.716,5.007-.611a1.318,1.318,0,0,1,1.588,1.1l.122.977a1.353,1.353,0,0,1-1.221,1.465l-5.007.611.855,6.838,6.106-.733a1.318,1.318,0,0,1,1.588,1.1l.122.977a1.353,1.353,0,0,1-1.221,1.465l-8.67,1.1a1.318,1.318,0,0,1-1.588-1.1L188.5,45.968a1.353,1.353,0,0,1,1.221-1.465Z" transform="translate(-133.321 -43.385)"/>
              </g>
            </g>
          </g>
          <g id="Group_11031" data-name="Group 11031" transform="translate(95.889 29.566)">
            <g id="Group_11029" data-name="Group 11029" transform="translate(0.103 2.269)">
              <path id="Path_37518" data-name="Path 37518" class="cls-4" d="M241.955,67.574v-.366c.611-7.571-5.984-14.288-14.532-14.9a19.635,19.635,0,0,0-3.786.122,15.773,15.773,0,0,0-9.647,5.251,13.3,13.3,0,0,0-2.564,4.64,22.98,22.98,0,0,0-.855,6.472,53.258,53.258,0,0,0-.366,6.228,12.794,12.794,0,0,0,5.007,9.525c3.541,2.687,8.426,1.954,12.212.611a24.341,24.341,0,0,0,9.891-6.594A20.034,20.034,0,0,0,241.955,67.574Z" transform="translate(-210.18 -52.259)"/>
            </g>
            <g id="Group_11030" data-name="Group 11030">
              <path id="Path_37519" data-name="Path 37519" class="cls-11" d="M243.317,62.734c-.122-4.64-3.786-7.449-8.548-10.136a11.954,11.954,0,0,0-6.961-1.221c-1.221.122-1.465-.611-2.442-.855-1.954-.488-3.053.611-5.5,1.343s-3.3-.122-5.617,1.221a5.123,5.123,0,0,0-1.71,2.2,5.042,5.042,0,0,1-.855,1.343c-1.465,1.954-2.2,4.763-.977,8.792,0,.122,0,.122.122.244a12.538,12.538,0,0,1,.611-2.931c.244-.611.488-1.221.733-1.71a.953.953,0,0,1,.488-.488.808.808,0,0,1,.733.122,5.525,5.525,0,0,0,3.175,1.1c2.931.244,3.3-2.2,6.472-1.954,3.053.244,2.931,2.564,7.083,3.419a11.175,11.175,0,0,0,1.954.122.933.933,0,0,1,.611.244.807.807,0,0,1,.122.733,4.485,4.485,0,0,0-.122,2.2,13.128,13.128,0,0,1,.122,3.786c-.122.611-.244,1.1-.366,1.71a3.141,3.141,0,0,0-.122,1.832c.244.611.855.244,1.1-.244a4.374,4.374,0,0,0,.488-1.343,6.814,6.814,0,0,1,1.1-2.564.933.933,0,0,1,.611-.244.672.672,0,0,1,.611.366,8.251,8.251,0,0,0,3.175,3.053.87.87,0,0,1,.366.733,3.566,3.566,0,0,1-.244,1.1,8.541,8.541,0,0,1-2.076,3.786,24.835,24.835,0,0,1-5.739,5.129h0c4.4.366,4.763-.733,5.251-1.71.488-1.1.855-2.442,1.588-3.053h0C247.469,71.282,243.439,67.374,243.317,62.734ZM232.693,83a5.307,5.307,0,0,1-.855.488C232.082,83.371,232.448,83.127,232.693,83Z" transform="translate(-210.095 -50.401)"/>
            </g>
          </g>
        </g>
        <g id="Group_11081" data-name="Group 11081" transform="translate(125.184 40.815)">
          <g id="Group_11037" data-name="Group 11037" transform="translate(0 19.184)">
            <g id="Group_11033" data-name="Group 11033">
              <path id="Path_37520" data-name="Path 37520" class="cls-4" d="M239.965,79.569a.778.778,0,0,0,.733,0,.672.672,0,0,0,.366-.611,10.507,10.507,0,0,1,.855-3.053,1.011,1.011,0,1,1,1.832.855,10.154,10.154,0,0,0-.733,2.32c-.366,3.908,1.832,4.4.611,6.839-.977,1.954-3.663,2.564-6.106,1.343s-4.64-1.71-2.687-5.739C236.546,78.1,238.011,78.592,239.965,79.569Z" transform="translate(-234.085 -75.322)"/>
            </g>
            <g id="Group_11034" data-name="Group 11034" transform="translate(3.745 6.508)">
              <path id="Path_37521" data-name="Path 37521" class="cls-4" d="M286.79,98.051a.933.933,0,0,1-.611.244l-23.324,8.792a9.685,9.685,0,0,1-11.113-3.3L237.577,84.374a2.357,2.357,0,1,1,3.786-2.809l14.165,19.416a4.929,4.929,0,0,0,5.617,1.71L284.47,93.9a2.342,2.342,0,0,1,3.053,1.343A2.239,2.239,0,0,1,286.79,98.051Z" transform="translate(-237.151 -80.651)"/>
            </g>
            <g id="Group_11035" data-name="Group 11035" transform="translate(5.88 9.865)">
              <path id="Path_37522" data-name="Path 37522" class="cls-6" d="M243.785,85.354c.244-.122.488-.366.855-.611l-.855-1.221a.734.734,0,0,0-.488-.122c-2.809,1.954-1.588,1.1-4.274,3.053-.122.122-.122.244-.122.488l.855,1.221c2.809-2.076,1.954-1.343,4.03-2.809Z" transform="translate(-238.9 -83.4)"/>
            </g>
            <g id="Group_11036" data-name="Group 11036" transform="translate(6.563 10.914)">
              <path id="Path_37523" data-name="Path 37523" class="cls-3" d="M262.711,107.389,286.035,98.6a3.061,3.061,0,0,0,.855-.488,3.479,3.479,0,0,0,1.221-4.152A3.592,3.592,0,0,0,286.28,92a4.067,4.067,0,0,0-2.687-.122l-23.324,8.792a3.65,3.65,0,0,1-4.152-1.221l-10.868-15.02a.537.537,0,0,0-.611-.122l-.122.122c-.366.244-.611.488-.855.611h0c-2.076,1.465-1.1.733-3.908,2.809l-.122.122c-.122.122-.244.366-.122.488l10.868,15.02A10.391,10.391,0,0,0,262.711,107.389Z" transform="translate(-239.459 -84.259)"/>
            </g>
          </g>
          <g id="Group_11043" data-name="Group 11043" transform="translate(49.11 2.468)">
            <g id="Group_11038" data-name="Group 11038" transform="translate(0.244 23.529)">
              <path id="Path_37524" data-name="Path 37524" class="cls-13" d="M291.718,91.524c.244-2.564.366-4.4.611-5.862a13.3,13.3,0,0,1-3.053,1.221c-3.419,1.1-7.815,1.71-10.868-.733a11.158,11.158,0,0,1-3.664-5.251c-.122.733-.122,1.343-.244,2.076,0,0,.244,15.265,14.288,16.608,4.152.366,7.327.733,10.014.977C291.6,99.828,291.718,91.524,291.718,91.524Z" transform="translate(-274.5 -80.9)"/>
            </g>
            <g id="Group_11039" data-name="Group 11039" transform="translate(11.357 19.736)">
              <path id="Path_37525" data-name="Path 37525" class="cls-4" d="M287.263,98.805h-.488A3.812,3.812,0,0,1,283.6,95.02l.611-13.677a3.7,3.7,0,0,1,3.908-3.541,3.889,3.889,0,0,1,3.664,3.908l-.611,13.677A3.688,3.688,0,0,1,287.263,98.805Z" transform="translate(-283.6 -77.795)"/>
            </g>
            <g id="Group_11040" data-name="Group 11040" transform="translate(11.479 19.614)">
              <path id="Path_37526" data-name="Path 37526" class="cls-5" d="M291.393,87.837l.244-6.228a3.791,3.791,0,0,0-7.571-.366l-.366,9.037a16.16,16.16,0,0,0,4.03-.977A16.4,16.4,0,0,0,291.393,87.837Z" transform="translate(-283.7 -77.695)"/>
            </g>
            <g id="Group_11041" data-name="Group 11041" transform="translate(0 0.246)">
              <path id="Path_37527" data-name="Path 37527" class="cls-4" d="M302.631,75.347c.611-6.716-5.007-12.822-12.456-13.433a10.845,10.845,0,0,0-3.419.122,14.3,14.3,0,0,0-8.67,4.518,11.191,11.191,0,0,0-2.32,4.03,22.639,22.639,0,0,0-.977,5.862c-.122,1.832-.488,3.663-.488,5.5a11.059,11.059,0,0,0,4.274,8.548c3.053,2.442,7.327,1.832,10.868.733a19.748,19.748,0,0,0,8.792-5.739,18.759,18.759,0,0,0,4.4-9.769A.229.229,0,0,1,302.631,75.347Z" transform="translate(-274.3 -61.834)"/>
            </g>
            <g id="Group_11042" data-name="Group 11042" transform="translate(5.373)">
              <path id="Path_37528" data-name="Path 37528" class="cls-13" d="M291.522,72.095a14.219,14.219,0,0,1-4.274-4.4c-.855-1.343-1.465-2.809-2.32-3.908a7,7,0,0,0-1.343-1.343,3.062,3.062,0,0,0-.855-.488,5.614,5.614,0,0,0-4.03.122,9.016,9.016,0,0,0,.244,1.465c.122.366.122.733.244,1.1a13.886,13.886,0,0,0,3.541,6.106,14.029,14.029,0,0,0,9.769,4.03,13.729,13.729,0,0,0,3.663-.366A20.464,20.464,0,0,1,291.522,72.095Z" transform="translate(-278.7 -61.633)"/>
            </g>
          </g>
          <g id="Group_11044" data-name="Group 11044" transform="translate(59.496 86.762)">
            <path id="Path_37529" data-name="Path 37529" class="cls-4" d="M288.538,130.953a3.487,3.487,0,0,0-1.954,2.687l-3.541,36.146A49,49,0,0,0,287.2,194.82l12.944,28.209a3.367,3.367,0,0,0,4.4,1.588,3.071,3.071,0,0,0,1.588-4.274l-12.944-28.209a42.959,42.959,0,0,1-3.663-21.737l3.541-36.146a3.2,3.2,0,0,0-2.931-3.541A2.329,2.329,0,0,0,288.538,130.953Z" transform="translate(-282.805 -130.661)"/>
          </g>
          <g id="Group_11045" data-name="Group 11045" transform="translate(42.066 86.745)">
            <path id="Path_37530" data-name="Path 37530" class="cls-4" d="M277.652,228.527a3.169,3.169,0,0,1-3.175-2.564c-7.2-35.536-7.815-64.844-2.076-92.686a3.343,3.343,0,0,1,3.908-2.564,3.19,3.19,0,0,1,2.564,3.786c-5.5,26.988-4.885,55.563,2.076,90.122a3.219,3.219,0,0,1-2.564,3.786A1.549,1.549,0,0,1,277.652,228.527Z" transform="translate(-268.532 -130.647)"/>
          </g>
          <g id="Group_11046" data-name="Group 11046" transform="translate(45.242 37.163)">
            <path id="Path_37531" data-name="Path 37531" class="cls-4" d="M298.813,140.668a34.388,34.388,0,0,0-1.71-7.815,19.293,19.293,0,0,0-2.442-4.4c.244.366.488.855.733,1.221-2.687-4.274-4.274-8.426-1.343-13.555l3.175-5.5a31.391,31.391,0,0,0,1.832-3.541c5.251-11.6-.122-16.241-8.67-16.974-9.647-.855-12.822,6.472-13.8,12.944a18.4,18.4,0,0,0,0,6.838l.611,7.327a12.526,12.526,0,0,1-1.343,6.961l-1.954,4.03a24.922,24.922,0,0,0-2.687,9.891c-.855,9.4,5.007,12.212,15.142,13.189C286.235,151.293,299.912,153.124,298.813,140.668Z" transform="translate(-271.133 -90.044)"/>
          </g>
          <g id="Group_11047" data-name="Group 11047" transform="translate(41.294 76.064)">
            <path id="Path_37532" data-name="Path 37532" class="cls-2" d="M297.7,124.464a19.534,19.534,0,0,0-1.343-2.32.634.634,0,0,0-.488-.244H273.273c-.244,0-.366.122-.488.366-.488,1.1-1.71,4.03-1.71,10.014V133.5a42.391,42.391,0,0,1-.611,10.38,179.283,179.283,0,0,0-2.564,30.041.525.525,0,0,0,.488.488H295.62a.525.525,0,0,0,.488-.488V157.8a99.84,99.84,0,0,1,.366-11.357,15.192,15.192,0,0,1,2.2-6.35c.977-1.343,2.076-3.663,1.343-7.938A23.17,23.17,0,0,0,297.7,124.464Z" transform="translate(-267.9 -121.9)"/>
          </g>
          <g id="Group_11062" data-name="Group 11062" transform="translate(43.614 36.376)">
            <g id="Group_11048" data-name="Group 11048" transform="translate(0 1.588)">
              <path id="Path_37533" data-name="Path 37533" class="cls-3" d="M299.963,91.311c-1.1-.244-2.076-.488-2.931-.611a25.325,25.325,0,0,0-.488,4.885,1.064,1.064,0,0,1-.733.977l-.733.244a16.686,16.686,0,0,0,.488,2.809,5.044,5.044,0,0,1-1.343-.855c-.488.366-1.1.855-2.076,1.588a28.061,28.061,0,0,0-2.442,2.076,66.794,66.794,0,0,0-6.228,6.961l6.716.611a4.23,4.23,0,0,0,3.175-1.1,5.279,5.279,0,0,0,1.587-3.3c-.366,4.03-3.175,7.083-6.228,6.716l-7.083-.611-3.908-.366a6.055,6.055,0,0,1-2.442-.977v.366l.611,7.2c.366,4.64-1.832,7.2-3.053,10.258h0a27.627,27.627,0,0,0-2.931,10.258,12.56,12.56,0,0,0-.122,2.076.525.525,0,0,0,.488.488l1.954.122c2.2.244,5.007-3.786,5.617-6.35,0-.244.122-.611.122-.855a2.384,2.384,0,0,1-.122.855,6.994,6.994,0,0,0,6.228,7.449c.366,0,15.875,1.465,15.509,1.465a.432.432,0,0,0,.488-.488v-2.2a27.416,27.416,0,0,0-3.541-11.357v-.122c-2.687-4.274-3.908-7.815-1.343-12.212a58.487,58.487,0,0,0,3.053-5.5h0a34.432,34.432,0,0,0,3.3-7.449,19.508,19.508,0,0,1,2.809-5.5A3.311,3.311,0,0,0,304.6,95.1,5.5,5.5,0,0,0,299.963,91.311Z" transform="translate(-269.8 -90.7)"/>
            </g>
            <g id="Group_11049" data-name="Group 11049" transform="translate(25.256 1.343)">
              <path id="Path_37534" data-name="Path 37534" class="cls-2" d="M290.5,96.728l.733-.244a1.064,1.064,0,0,0,.733-.977,26.247,26.247,0,0,1,.488-4.885.449.449,0,0,1-.366-.122A11.406,11.406,0,0,0,290.5,96.728Z" transform="translate(-290.482 -90.5)"/>
            </g>
            <g id="Group_11050" data-name="Group 11050" transform="translate(15.509 1.415)">
              <path id="Path_37535" data-name="Path 37535" class="cls-6" d="M287.018,94.395a6.817,6.817,0,0,0,.611.977,10.636,10.636,0,0,0,3.663,3.3c.366.244.855.488,1.343.855a9.617,9.617,0,0,1-.488-2.809,10.351,10.351,0,0,1,1.71-6.106h-.244a2.539,2.539,0,0,0-1.343.122c-5.5,1.832-7.815,3.053-9.769,4.885l3.3-1.588A.847.847,0,0,1,287.018,94.395Z" transform="translate(-282.5 -90.559)"/>
            </g>
            <g id="Group_11051" data-name="Group 11051" transform="translate(12.09 16.241)">
              <path id="Path_37536" data-name="Path 37536" class="cls-2" d="M286.661,109.416c3.053.244,5.739-2.687,6.228-6.716A4.989,4.989,0,0,1,291.3,106a3.8,3.8,0,0,1-3.175,1.1l-6.716-.611c-.977,1.343-1.71,2.2-1.71,2.2Z" transform="translate(-279.7 -102.7)"/>
            </g>
            <g id="Group_11052" data-name="Group 11052" transform="translate(12.09 6.228)">
              <path id="Path_37537" data-name="Path 37537" class="cls-2" d="M288.37,94.5a20.615,20.615,0,0,0-2.076,3.663l-.366.733a103.339,103.339,0,0,1-5.007,9.4,14.72,14.72,0,0,0-1.221,2.32s.733-.977,1.71-2.2a55.282,55.282,0,0,1,6.228-6.961c.977-.855,1.71-1.465,2.442-2.076.977-.733,1.587-1.221,2.076-1.588A10.036,10.036,0,0,1,288.37,94.5Z" transform="translate(-279.7 -94.5)"/>
            </g>
            <g id="Group_11053" data-name="Group 11053" transform="translate(9.995 4.03)">
              <path id="Path_37538" data-name="Path 37538" class="cls-6" d="M280.69,92.7a20.334,20.334,0,0,0-1.954,4.885c-.122.366-.122.611-.244.977a18.026,18.026,0,0,0,.366,9.891,11.938,11.938,0,0,0,1.221,2.442,10.486,10.486,0,0,1,1.221-2.32,103.352,103.352,0,0,0,5.007-9.4l.366-.733a26.1,26.1,0,0,1,2.076-3.663,4.285,4.285,0,0,1-.611-.977.949.949,0,0,0-1.221-.366l-3.3,1.588-2.564-2.2C280.934,92.822,280.812,92.7,280.69,92.7Z" transform="translate(-277.985 -92.7)"/>
            </g>
            <g id="Group_11054" data-name="Group 11054" transform="translate(11.723 4.152)">
              <path id="Path_37539" data-name="Path 37539" class="cls-6" d="M287.7,93.9a.949.949,0,0,0-1.221-.366l-3.3,1.588-2.564-2.2a.449.449,0,0,0-.366-.122,12.329,12.329,0,0,0-.855,1.832l.611-.611,2.32,2.076h0c.122,0,.122.122.244.122h.122c.122,0,.244.122.366.122h.611l3.053-1.465a5.169,5.169,0,0,0,.611.855c.122.122.244.244.244.366l.733-1.1A4.951,4.951,0,0,0,287.7,93.9Z" transform="translate(-279.4 -92.8)"/>
            </g>
            <g id="Group_11055" data-name="Group 11055" transform="translate(8.304 0.118)">
              <path id="Path_37540" data-name="Path 37540" class="cls-6" d="M277.943,95a10.549,10.549,0,0,0-1.343,3.175.426.426,0,0,1,.122-.244,4.283,4.283,0,0,1,.611-.977,12.791,12.791,0,0,1,.977-1.343c.611-.733,1.221-1.343,1.832-1.954a1.163,1.163,0,0,1,.855-.244c.122,0,.244.122.366.122l2.564,2.2a8.293,8.293,0,0,1,.366-5.5c.122-.122,0-.366,0-.488a.635.635,0,0,0-.488-.244h0C283.561,89.379,279.775,91.943,277.943,95Z" transform="translate(-276.6 -89.497)"/>
            </g>
            <g id="Group_11056" data-name="Group 11056" transform="translate(9.477 0.244)">
              <path id="Path_37541" data-name="Path 37541" class="cls-2" d="M277.853,93.752a.939.939,0,0,0-.122,1.221,15.941,15.941,0,0,1,5.862-5.373h0C281.639,90.211,278.952,92.653,277.853,93.752Z" transform="translate(-277.561 -89.6)"/>
            </g>
            <g id="Group_11057" data-name="Group 11057" transform="translate(3.401 14.776)">
              <path id="Path_37542" data-name="Path 37542" class="cls-2" d="M281.274,109.071a22.318,22.318,0,0,1-1.587-2.564l-3.3-.366-1.465-.122H274.8c-1.343-.244-2.32-2.2-2.2-4.518a8.608,8.608,0,0,0,1.1,4.763,4.886,4.886,0,0,0,1.221,1.465,3.631,3.631,0,0,0,2.442.977Z" transform="translate(-272.585 -101.5)"/>
            </g>
            <g id="Group_11058" data-name="Group 11058" transform="translate(8.212 3.982)">
              <path id="Path_37543" data-name="Path 37543" class="cls-2" d="M278.815,98.57c.122-.366.122-.611.244-.977a18.458,18.458,0,0,1,1.954-4.885.755.755,0,0,0-.855.244,9.179,9.179,0,0,0-1.832,1.954l.611.977-1.343.244c-.122,0-.244,0-.244.122a6.816,6.816,0,0,0-.611.977,3.766,3.766,0,0,0-.122,1.221,8.975,8.975,0,0,0,0,2.564,17.919,17.919,0,0,0,2.2,7.571,22.325,22.325,0,0,0,1.587,2.564,11.94,11.94,0,0,1-1.221-2.442A19.15,19.15,0,0,1,278.815,98.57Z" transform="translate(-276.525 -92.661)"/>
            </g>
            <g id="Group_11059" data-name="Group 11059" transform="translate(9.037 6.106)">
              <path id="Path_37544" data-name="Path 37544" class="cls-3" d="M278.787,95.377l-.611-.977a5.422,5.422,0,0,0-.977,1.343c.122,0,.122-.122.244-.122Z" transform="translate(-277.2 -94.4)"/>
            </g>
            <g id="Group_11060" data-name="Group 11060" transform="translate(3.053)">
              <path id="Path_37545" data-name="Path 37545" class="cls-3" d="M274.742,108.694h.122l1.465.122,3.3.366a17.386,17.386,0,0,1-2.2-7.571V99.047c0-.488.122-.977.122-1.221,0,.122-.122.122-.122.244a10.55,10.55,0,0,1,1.343-3.175,1.123,1.123,0,0,1,.122-1.221c1.1-1.1,3.663-3.663,5.617-4.274-.977,0-2.076.122-3.419.122h-1.343c-2.687-.122-5.617,1.588-5.984,4.518a4.349,4.349,0,0,0,.855,2.931,2.1,2.1,0,0,1-.366,2.809c-.122.122-.244.122-.366.244a5.279,5.279,0,0,0-1.587,3.3v.611C272.422,106.5,273.4,108.45,274.742,108.694Z" transform="translate(-272.3 -89.4)"/>
            </g>
            <g id="Group_11061" data-name="Group 11061" transform="translate(10.868 19.783)">
              <path id="Path_37546" data-name="Path 37546" class="cls-6" d="M281.02,105.844l-2.32-.244h0a11.936,11.936,0,0,0,1.221,2.442,10.364,10.364,0,0,1,1.1-2.2Z" transform="translate(-278.7 -105.6)"/>
            </g>
          </g>
          <g id="Group_11067" data-name="Group 11067" transform="translate(23.568 21.382)">
            <g id="Group_11063" data-name="Group 11063">
              <path id="Path_37547" data-name="Path 37547" class="cls-4" d="M259.265,81.369a.779.779,0,0,0,.733,0,.672.672,0,0,0,.366-.611,10.507,10.507,0,0,1,.855-3.053,1.011,1.011,0,1,1,1.832.855,10.154,10.154,0,0,0-.733,2.32c-.366,3.908,1.832,4.4.611,6.839-.977,1.954-3.663,2.564-6.106,1.343s-4.64-1.71-2.687-5.739C255.846,79.9,257.311,80.27,259.265,81.369Z" transform="translate(-253.385 -77.122)"/>
            </g>
            <g id="Group_11064" data-name="Group 11064" transform="translate(3.745 6.508)">
              <path id="Path_37548" data-name="Path 37548" class="cls-4" d="M306.09,99.851a.933.933,0,0,1-.611.244l-23.324,8.792a9.685,9.685,0,0,1-11.113-3.3L256.877,86.174a2.357,2.357,0,1,1,3.786-2.809l14.165,19.416a4.929,4.929,0,0,0,5.617,1.71L303.77,95.7a2.342,2.342,0,0,1,3.053,1.343A2.278,2.278,0,0,1,306.09,99.851Z" transform="translate(-256.451 -82.451)"/>
            </g>
            <g id="Group_11065" data-name="Group 11065" transform="translate(5.88 9.865)">
              <path id="Path_37549" data-name="Path 37549" class="cls-6" d="M263.085,87.154c.244-.122.488-.366.855-.611l-.855-1.221a.734.734,0,0,0-.488-.122c-2.809,1.954-1.587,1.1-4.274,3.053-.122.122-.122.244-.122.488l.855,1.221c2.809-2.076,1.954-1.343,4.03-2.809Z" transform="translate(-258.2 -85.2)"/>
            </g>
            <g id="Group_11066" data-name="Group 11066" transform="translate(6.562 10.914)">
              <path id="Path_37550" data-name="Path 37550" class="cls-3" d="M282.011,109.189l23.324-8.792a3.06,3.06,0,0,0,.855-.488,3.479,3.479,0,0,0,1.221-4.152A3.592,3.592,0,0,0,305.58,93.8a4.067,4.067,0,0,0-2.687-.122l-23.324,8.792a3.65,3.65,0,0,1-4.152-1.221l-10.868-15.02a.537.537,0,0,0-.611-.122l-.122.122c-.366.244-.611.488-.855.611h0c-2.076,1.465-1.1.733-3.908,2.809l-.122.122c-.122.122-.244.366-.122.488l10.868,15.02A10.391,10.391,0,0,0,282.011,109.189Z" transform="translate(-258.759 -86.059)"/>
            </g>
          </g>
          <g id="Group_11068" data-name="Group 11068" transform="translate(50.941)">
            <path id="Path_37551" data-name="Path 37551" class="cls-13" d="M276.166,69.245a9.788,9.788,0,0,1,1.587-2.32c.611-.611,1.221-1.221,1.954-1.832a3.565,3.565,0,0,1-.244-1.1,9.016,9.016,0,0,1-.244-1.465,5.614,5.614,0,0,1,4.03-.122,1.969,1.969,0,0,1,.855.488,7,7,0,0,1,1.343,1.343c.488.244.977.611,1.587.977,1.954,1.343,3.908,4.274,5.007,7.327a22.148,22.148,0,0,0,4.518,2.32,13.73,13.73,0,0,1-3.664.366,8.387,8.387,0,0,1,.244,2.931c-.611,6.839-.733,8.3-1.1,12.212-.122,1.465-.366,3.3-.611,5.862,0,0-.244,8.182,7.083,8.914,6.35.611,8.548.733,8.548.733s-5.373-.733-4.64-8.67,1.954-21,1.954-21,1.71-14.9-14.654-16.486c-5.5-.488-8.914.733-10.99,2.687a10.512,10.512,0,0,0-2.931,7.083C276.044,69.489,276.044,69.367,276.166,69.245Z" transform="translate(-275.8 -59.612)"/>
          </g>
          <g id="Group_11074" data-name="Group 11074" transform="translate(74.54 174.375)">
            <g id="Group_11069" data-name="Group 11069" transform="translate(8.762 1.58)">
              <path id="Path_37552" data-name="Path 37552" class="cls-11" d="M302.788,206.875l1.343-.977h0a10.313,10.313,0,0,0-1.832-2.2A4.17,4.17,0,0,1,302.788,206.875Z" transform="translate(-302.3 -203.7)"/>
            </g>
            <g id="Group_11070" data-name="Group 11070" transform="translate(0 5.775)">
              <path id="Path_37553" data-name="Path 37553" class="cls-11" d="M298.392,210.389l2.2-1.588a4.091,4.091,0,0,0-5.373-1.1,10.8,10.8,0,0,0,0,2.809c.122-.122.366-.244.488-.366A1.943,1.943,0,0,1,298.392,210.389Z" transform="translate(-295.125 -207.135)"/>
            </g>
            <g id="Group_11071" data-name="Group 11071" transform="translate(0.458 3.9)">
              <path id="Path_37554" data-name="Path 37554" class="cls-11" d="M300.629,209.141l-2.2,1.588L295.5,212.8h0a1.554,1.554,0,0,0,.855,1.1,1.31,1.31,0,0,0,1.343-.122l7.327-5.251a2.163,2.163,0,0,0,.611-2.931l-1.343.977Z" transform="translate(-295.5 -205.6)"/>
            </g>
            <g id="Group_11072" data-name="Group 11072" transform="translate(0.092 0)">
              <path id="Path_37555" data-name="Path 37555" class="cls-4" d="M300.7,209.848l3.663-2.564a3.441,3.441,0,0,0-.611-3.175h0c-1.587-1.465-3.541-2.442-5.739-.977a7.623,7.623,0,0,0-2.809,5.617A4.259,4.259,0,0,1,300.7,209.848Z" transform="translate(-295.2 -202.406)"/>
            </g>
            <g id="Group_11073" data-name="Group 11073" transform="translate(0.092 8.341)">
              <path id="Path_37556" data-name="Path 37556" class="cls-4" d="M295.688,209.558c-.122.122-.366.244-.488.366a12.029,12.029,0,0,0,.244,2.076l2.931-2.076A2.124,2.124,0,0,0,295.688,209.558Z" transform="translate(-295.2 -209.237)"/>
            </g>
          </g>
          <g id="Group_11080" data-name="Group 11080" transform="translate(42.821 177.665)">
            <g id="Group_11075" data-name="Group 11075" transform="translate(11.052 4.03)">
              <path id="Path_37557" data-name="Path 37557" class="cls-11" d="M278.2,211.331h1.587a24.522,24.522,0,0,0-.122-2.931A3.956,3.956,0,0,1,278.2,211.331Z" transform="translate(-278.2 -208.4)"/>
            </g>
            <g id="Group_11076" data-name="Group 11076" transform="translate(1.038 2.931)">
              <path id="Path_37558" data-name="Path 37558" class="cls-11" d="M272.687,211.53h2.687a4.179,4.179,0,0,0-3.663-4.03,26.819,26.819,0,0,0-1.71,2.2h.611A2.14,2.14,0,0,1,272.687,211.53Z" transform="translate(-270 -207.5)"/>
            </g>
            <g id="Group_11077" data-name="Group 11077" transform="translate(0 6.839)">
              <path id="Path_37559" data-name="Path 37559" class="cls-11" d="M275.683,210.822h-6.35a1.318,1.318,0,0,0,0,1.343,1.5,1.5,0,0,0,1.221.611h9.037a2.166,2.166,0,0,0,2.2-2.076h-6.106Z" transform="translate(-269.15 -210.7)"/>
            </g>
            <g id="Group_11078" data-name="Group 11078" transform="translate(2.87 0)">
              <path id="Path_37560" data-name="Path 37560" class="cls-4" d="M275.163,212.061h4.518a3.956,3.956,0,0,0,1.465-2.931h0c-.366-2.076-1.465-4.03-4.03-4.03-2.2,0-4.03,1.221-5.617,2.931A4.28,4.28,0,0,1,275.163,212.061Z" transform="translate(-271.5 -205.1)"/>
            </g>
            <g id="Group_11079" data-name="Group 11079" transform="translate(0.183 5.129)">
              <path id="Path_37561" data-name="Path 37561" class="cls-4" d="M270.888,209.3h-.611a13.345,13.345,0,0,0-.977,1.832h3.663A2.34,2.34,0,0,0,270.888,209.3Z" transform="translate(-269.3 -209.3)"/>
            </g>
          </g>
        </g>
      </g>
    </g>
  </g>
</svg>
