<svg xmlns="http://www.w3.org/2000/svg" viewBox="0 0 354 432">
  <defs>
    <style>
      .cls-1 {
        fill: none;
      }

      .cls-2 {
        fill: #2b0b04;
      }

      .cls-3 {
        fill: #304a95;
      }

      .cls-4 {
        fill: #f9cfb3;
      }

      .cls-5 {
        fill: #dba783;
      }

      .cls-6 {
        fill: #f7f9fd;
      }

      .cls-7 {
        fill: #2b3572;
      }

      .cls-8 {
        fill: #e4eaf2;
      }

      .cls-9 {
        fill: #c9457b;
      }

      .cls-10 {
        fill: #2a336e;
      }

      .cls-11 {
        fill: #0e2b4a;
      }

      .cls-12 {
        fill: #e8b795;
      }

      .cls-13 {
        fill: #181d1f;
      }

      .cls-14 {
        fill: #a02b61;
      }

      .cls-15 {
        fill: #365eb3;
      }
    </style>
  </defs>
  <g id="Group_34865" data-name="Group 34865" transform="translate(-8399 -4728)">
    <rect id="Rectangle_1216" data-name="Rectangle 1216" class="cls-1" width="354" height="432" transform="translate(8399 4728)"/>
    <g id="Group_34627" data-name="Group 34627" transform="translate(8398.951 4832.164)">
      <g id="Group_10990" data-name="Group 10990" transform="translate(0.049)">
        <g id="Group_10906" data-name="Group 10906">
          <g id="Group_10869" data-name="Group 10869" transform="translate(19.861 149.913)">
            <g id="Group_10867" data-name="Group 10867" transform="translate(0.45)">
              <path id="Path_37381" data-name="Path 37381" class="cls-2" d="M18.082,215.512a.882.882,0,0,1-.466-.233.7.7,0,0,1-.116-.466c9.893-31.077,13.152-54.821,11.29-81.009a4.461,4.461,0,0,1,1.164-3.375,4.9,4.9,0,0,1,3.259-1.629h.931a4.605,4.605,0,0,1,4.074,4.307c1.979,27-1.28,51.445-11.174,83.1-.116.233-.349.466-.582.349l-.7-.116-7.1-.931Z" transform="translate(-17.5 -128.8)"/>
            </g>
            <g id="Group_10868" data-name="Group 10868" transform="translate(0 86.945)">
              <path id="Path_37382" data-name="Path 37382" class="cls-3" d="M24.081,208.854A3.687,3.687,0,0,1,20.24,211.3c-.233,0-.466-.116-.7-.116a3.384,3.384,0,0,1-2.211-4.423c.466-1.4.815-1.862,1.28-3.259l7.1.931C25.129,206.061,24.663,206.992,24.081,208.854Z" transform="translate(-17.113 -203.5)"/>
            </g>
          </g>
          <g id="Group_10872" data-name="Group 10872" transform="translate(48.314 149.907)">
            <g id="Group_10870" data-name="Group 10870">
              <path id="Path_37383" data-name="Path 37383" class="cls-2" d="M46.612,217.026a.465.465,0,0,1-.466-.233c-.116-.116-.233-.349-.116-.466,3.841-32.473,2.561-56.334-4.307-81.591a4.948,4.948,0,0,1,.466-3.608,4.73,4.73,0,0,1,2.91-2.211,2.563,2.563,0,0,1,.931-.116,4.767,4.767,0,0,1,4.888,3.492c7.1,26.188,8.5,50.747,4.656,83.686a.533.533,0,0,1-.582.466h-.7l-7.216.466Z" transform="translate(-41.559 -128.794)"/>
            </g>
            <g id="Group_10871" data-name="Group 10871" transform="translate(4.909 87.65)">
              <path id="Path_37384" data-name="Path 37384" class="cls-3" d="M52.787,208.988a3.476,3.476,0,0,1-3.259,3.026h-.7a3.465,3.465,0,0,1-3.026-3.957c.233-1.513.466-1.979.582-3.492L53.6,204.1C53.369,206.079,53.02,207.01,52.787,208.988Z" transform="translate(-45.777 -204.1)"/>
            </g>
          </g>
          <g id="Group_10875" data-name="Group 10875" transform="translate(35.438 79.025)">
            <g id="Group_10873" data-name="Group 10873" transform="translate(0 0)">
              <path id="Path_37385" data-name="Path 37385" class="cls-4" d="M36.2,94.205A4.717,4.717,0,0,0,39.812,89.9l.931-17.11a4.662,4.662,0,0,0-9.311-.466L30.5,89.433a4.676,4.676,0,0,0,4.423,4.888C35.273,94.322,35.738,94.205,36.2,94.205Z" transform="translate(-30.496 -67.896)"/>
            </g>
            <g id="Group_10874" data-name="Group 10874" transform="translate(0.47)">
              <path id="Path_37386" data-name="Path 37386" class="cls-5" d="M30.9,79.656l.349-7.333a4.662,4.662,0,1,1,9.311.466l-.466,9.893a19.783,19.783,0,0,1-5.354-1.28A22.863,22.863,0,0,1,30.9,79.656Z" transform="translate(-30.9 -67.896)"/>
            </g>
          </g>
          <g id="Group_10886" data-name="Group 10886" transform="translate(19.894 93.812)">
            <g id="Group_10876" data-name="Group 10876" transform="translate(14.85 57.149)">
              <path id="Path_37387" data-name="Path 37387" class="cls-2" d="M43.169,129.7c.233,3.957,1.862,7.1,6.052,6.867l1.979-.116c-1.979,2.444-5.587,3.725-11.174,4.074q-6.634.349-10.126-2.793l6.867-.349C41.888,137.033,43.4,133.657,43.169,129.7Z" transform="translate(-29.9 -129.7)"/>
            </g>
            <g id="Group_10877" data-name="Group 10877" transform="translate(10.66 49.35)">
              <path id="Path_37388" data-name="Path 37388" class="cls-2" d="M28.279,123.349h.233c.582,0,2.1-.116,5.82-.349a.9.9,0,0,1,.931.815l.116,1.4a3.163,3.163,0,0,1-3.026,3.375l-6.052.349a22.572,22.572,0,0,1,1.048-5.587h.931Z" transform="translate(-26.3 -123)"/>
            </g>
            <g id="Group_10878" data-name="Group 10878" transform="translate(16.014 0.466)">
              <path id="Path_37389" data-name="Path 37389" class="cls-6" d="M37.3,87.285v.233a.6.6,0,0,1-.233.466.354.354,0,0,1-.466,0l-1.979-.7c-.233-.349-.349-.815-.582-1.164a42.391,42.391,0,0,0-2.677-4.539A2.043,2.043,0,0,0,30.9,81a1.781,1.781,0,0,1,1.164.466,16.341,16.341,0,0,0,6.052,1.4Z" transform="translate(-30.9 -81)"/>
            </g>
            <g id="Group_10879" data-name="Group 10879" transform="translate(22.881 0)">
              <path id="Path_37390" data-name="Path 37390" class="cls-6" d="M40.874,86.07c0,.116.116.349.116.466h0l-.931.931a.889.889,0,0,1-.582.233c-.233,0-.349-.116-.466-.349l-.116-.116-2.1-4.19c1.28-.116,1.862-.582,2.1-1.164l.116-1.28h.349l.349,1.048A27.414,27.414,0,0,1,40.874,86.07Z" transform="translate(-36.8 -80.6)"/>
            </g>
            <g id="Group_10880" data-name="Group 10880" transform="translate(24.772 5.703)">
              <path id="Path_37391" data-name="Path 37391" class="cls-6" d="M38.745,88.643c0-.116,0-.116-.116-.233h0v-.233c0-.116,0-.116-.116-.233h0a1.275,1.275,0,0,1,0-.931l.116-.233h0l.116-.582.116.116c.116.233.233.349.466.349a.641.641,0,0,0,.582-.233l.931-.931h0a27.185,27.185,0,0,1,.466,3.026,54.241,54.241,0,0,1,.233,12.221C40.375,95.277,39.211,90.621,38.745,88.643Z" transform="translate(-38.425 -85.5)"/>
            </g>
            <g id="Group_10881" data-name="Group 10881" transform="translate(19.506 6.751)">
              <path id="Path_37392" data-name="Path 37392" class="cls-6" d="M34.948,88.728c-.349-.815-.7-1.63-1.048-2.328l1.979.7c.116.116.349,0,.466,0a.6.6,0,0,0,.233-.466V86.4l.466.582h0l.233.233a1.322,1.322,0,0,1,.349.931h0v.466c.233,2.211.815,7.449,1.164,11.756A67.823,67.823,0,0,0,34.948,88.728Z" transform="translate(-33.9 -86.4)"/>
            </g>
            <g id="Group_10882" data-name="Group 10882">
              <path id="Path_37393" data-name="Path 37393" class="cls-3" d="M17.326,87.351A4.688,4.688,0,0,1,19.3,84.674,28.059,28.059,0,0,1,30.246,81.3l.116,1.048.466,3.725a.738.738,0,0,0,.582.7l1.862.7-.466.233a.868.868,0,0,0-.233,1.4c.233.233.466.582.815.931,3.026,4.074,9.079,14.549,10.359,20.6v-.466c2.328-5.936,3.841-15.6,4.074-20.252a10.084,10.084,0,0,0-.116-2.1,1.021,1.021,0,0,0-.7-.815l-.582-.233.582-.582a.905.905,0,0,0,.233-.931,23.721,23.721,0,0,0-1.513-3.143,10.627,10.627,0,0,0-.931-1.513,24.8,24.8,0,0,1,9.311,2.1,4.77,4.77,0,0,1,2.328,2.444,4.26,4.26,0,0,1-.116,3.375l-.349.7a6.027,6.027,0,0,0-1.048,4.423,67.454,67.454,0,0,1-.233,18.041,44.524,44.524,0,0,0,.7,18.39s.7,5,2.211,12.8a1.519,1.519,0,0,1-1.4,1.513l-2.1.116h-.815l-1.979.116c-4.19.233-5.82-2.91-6.052-6.867.233,3.957-1.4,7.333-6.634,7.565l-6.867.349h-.815l-2.1.116a1.671,1.671,0,0,1-1.979-1.28l.7-8.264h0v-.466l6.052-.349a3.232,3.232,0,0,0,3.026-3.375l-.116-1.4a.9.9,0,0,0-.931-.815c-3.841.233-5.354.349-5.82.349H28.5c1.979-5.587,2.444-10.824-.582-16.644-.815-1.4-1.4-2.91-2.1-4.19-.466-1.048-1.048-2.1-1.513-3.026A34.511,34.511,0,0,1,20.7,95.964a6.616,6.616,0,0,0-2.328-4.19,10.494,10.494,0,0,1-1.048-1.164A7.67,7.67,0,0,1,17.326,87.351Z" transform="translate(-17.142 -80.6)"/>
            </g>
            <g id="Group_10883" data-name="Group 10883" transform="translate(13.22 0.349)">
              <path id="Path_37394" data-name="Path 37394" class="cls-2" d="M34.2,86.138c.233.349.349.815.582,1.164.349.815.7,1.513,1.048,2.328a81.025,81.025,0,0,1,3.957,11.639h0c1.28,4.888,1.979,8.5,1.979,8.5V110h0v.466c-1.164-6.052-7.333-16.528-10.359-20.6a6.654,6.654,0,0,0-.815-.931.982.982,0,0,1-.233-.815,1.162,1.162,0,0,1,.466-.582l.466-.233-1.862-.7c-.349-.116-.466-.349-.582-.7l-.233-3.725L28.5,81.133c.349,0,.7-.116,1.048-.116l1.629-.116a2.043,2.043,0,0,0,.466.582C32.574,83,33.388,84.508,34.2,86.138Z" transform="translate(-28.5 -80.9)"/>
            </g>
            <g id="Group_10884" data-name="Group 10884" transform="translate(25.442 0)">
              <path id="Path_37395" data-name="Path 37395" class="cls-2" d="M43.539,85.256a.73.73,0,0,1-.233.931l-.582.582.582.233a1.231,1.231,0,0,1,.7.815,10.083,10.083,0,0,1,.116,2.1,74.343,74.343,0,0,1-4.074,20.252h0a57.66,57.66,0,0,0,1.28-8.38A54.137,54.137,0,0,0,41.1,89.562c-.116-.931-.349-1.979-.466-3.026,0-.116-.116-.349-.116-.466-.349-1.513-.7-2.91-1.164-4.423L39,80.6h1.979a10.626,10.626,0,0,1,.931,1.513A16.378,16.378,0,0,1,43.539,85.256Z" transform="translate(-39 -80.6)"/>
            </g>
            <g id="Group_10885" data-name="Group 10885" transform="translate(22.415 2.677)">
              <path id="Path_37396" data-name="Path 37396" class="cls-3" d="M39.077,86.741l-.116.582h0l-.116.233a1.275,1.275,0,0,0,0,.931h0c0,.116,0,.116.116.233v.233h0c0,.116,0,.116.116.233.466,1.979,1.746,6.634,2.793,12.338a79.684,79.684,0,0,1-1.28,8.38v-.233a81.7,81.7,0,0,0-1.979-8.5h0c-.349-4.423-.815-9.661-1.164-11.756v-.466h0a1.322,1.322,0,0,0-.349-.931l-.233-.233h0l-.466-.582.7-4.307Z" transform="translate(-36.4 -82.9)"/>
            </g>
          </g>
          <g id="Group_10891" data-name="Group 10891" transform="translate(0 97.215)">
            <g id="Group_10887" data-name="Group 10887" transform="translate(24.752 38.739)">
              <path id="Path_37397" data-name="Path 37397" class="cls-4" d="M32.122,124.248c-2.1,4.656-4.19,2.91-7.1,1.4-2.91-1.4-4.423-4.423-3.375-6.634s4.19-2.91,7.1-1.4C31.657,119.01,34.217,119.592,32.122,124.248Z" transform="translate(-21.315 -116.807)"/>
            </g>
            <g id="Group_10888" data-name="Group 10888" transform="translate(24.502 38.498)">
              <path id="Path_37398" data-name="Path 37398" class="cls-4" d="M26.92,118.462A2.635,2.635,0,0,1,24.243,123L21.1,121.139l2.677-4.539Z" transform="translate(-21.1 -116.6)"/>
            </g>
            <g id="Group_10889" data-name="Group 10889">
              <path id="Path_37399" data-name="Path 37399" class="cls-3" d="M.108,110.266a9.008,9.008,0,0,1,1.164-5.47,5.154,5.154,0,0,1,1.4-1.746L21.292,84.776a4.427,4.427,0,0,1,6.285.116,4.57,4.57,0,0,1,.7,5.354,6.455,6.455,0,0,1-.7.931L8.954,109.219l16.877,10.01a.668.668,0,0,1,.233.815l-.116.233-.466.815L22.8,125.63l-.466.815-.116.233a.668.668,0,0,1-.815.233L4.182,116.668A8.386,8.386,0,0,1,.108,110.266Z" transform="translate(-0.049 -83.524)"/>
            </g>
            <g id="Group_10890" data-name="Group 10890" transform="translate(22.407 36.636)">
              <path id="Path_37400" data-name="Path 37400" class="cls-6" d="M22.326,115.815l.466-.815,1.164.7a.668.668,0,0,1,.233.815l-.116.233L21.4,121.285l-.116.233a.668.668,0,0,1-.815.233l-1.164-.7.466-.815Z" transform="translate(-19.3 -115)"/>
            </g>
          </g>
          <g id="Group_10892" data-name="Group 10892" transform="translate(51.532 238.791)">
            <path id="Path_37401" data-name="Path 37401" class="cls-7" d="M45.576,207.883a.439.439,0,0,1,.7-.116,3.086,3.086,0,0,1,.7.582c.815.7,1.048.7,2.561.7,1.28,0,1.979-2.677,3.608-3.608a1.616,1.616,0,0,1,1.28-.233,13.433,13.433,0,0,1,9.311,6.052,1.431,1.431,0,0,1-.116,1.513,1.99,1.99,0,0,1-1.513.815h-14.9a3.18,3.18,0,0,1-2.211-.931,1.891,1.891,0,0,1-.582-1.979A11.012,11.012,0,0,1,45.576,207.883Z" transform="translate(-44.323 -205.161)"/>
          </g>
          <g id="Group_10893" data-name="Group 10893" transform="translate(18.989 239.186)">
            <path id="Path_37402" data-name="Path 37402" class="cls-7" d="M17.1,207.944l.116-.116a.114.114,0,0,1,.116.116,1.235,1.235,0,0,0,1.4,1.048c1.629,0,1.048-3.492,6.285-3.492a11,11,0,0,1,6.052,5.82,1.726,1.726,0,0,1,0,1.513,1.4,1.4,0,0,1-1.164.815H18.5a1.858,1.858,0,0,1-1.629-.931,2.433,2.433,0,0,1-.466-1.979A5.849,5.849,0,0,1,17.1,207.944Z" transform="translate(-16.364 -205.5)"/>
          </g>
          <g id="Group_10894" data-name="Group 10894" transform="translate(83.978 74.142)">
            <path id="Path_37403" data-name="Path 37403" class="cls-4" d="M72.2,66.377a2.677,2.677,0,0,1,5.354,0V70.1H72.2V66.377Z" transform="translate(-72.2 -63.7)"/>
          </g>
          <g id="Group_10897" data-name="Group 10897" transform="translate(51.606 80.427)">
            <g id="Group_10895" data-name="Group 10895" transform="translate(0 1.862)">
              <path id="Path_37404" data-name="Path 37404" class="cls-3" d="M80.367,98.169a8.593,8.593,0,0,1-5.238,1.746,7.308,7.308,0,0,1-2.211-.349L47.661,92.815a4.491,4.491,0,0,1-3.143-5.47,4.37,4.37,0,0,1,4.307-3.259,3.96,3.96,0,0,1,1.164.116L74.9,90.952V71.282a.55.55,0,0,1,.582-.582h7.915a.55.55,0,0,1,.582.582v19.9A9.818,9.818,0,0,1,80.367,98.169Z" transform="translate(-44.387 -70.7)"/>
            </g>
            <g id="Group_10896" data-name="Group 10896" transform="translate(31.441)">
              <path id="Path_37405" data-name="Path 37405" class="cls-6" d="M72.331,71.079H71.4v-1.4a.55.55,0,0,1,.582-.582h6.052a.55.55,0,0,1,.582.582v1.4H72.331Z" transform="translate(-71.4 -69.1)"/>
            </g>
          </g>
          <g id="Group_10898" data-name="Group 10898" transform="translate(80.254)">
            <path id="Path_37406" data-name="Path 37406" class="cls-2" d="M70.862,195.306a1.79,1.79,0,0,0,1.746-1.746V1.746A1.79,1.79,0,0,0,70.862,0,1.816,1.816,0,0,0,69,1.746v191.7A1.838,1.838,0,0,0,70.862,195.306Z" transform="translate(-69)"/>
          </g>
          <g id="Group_10899" data-name="Group 10899" transform="translate(37.421 5.703)">
            <path id="Path_37407" data-name="Path 37407" class="cls-8" d="M34.877,4.9h83.8a2.634,2.634,0,0,1,2.677,2.677V58.79a2.634,2.634,0,0,1-2.677,2.677h-83.8A2.634,2.634,0,0,1,32.2,58.79V7.577A2.634,2.634,0,0,1,34.877,4.9Z" transform="translate(-32.2 -4.9)"/>
          </g>
          <g id="Group_10900" data-name="Group 10900" transform="translate(47.613 21.533)">
            <path id="Path_37408" data-name="Path 37408" class="cls-3" d="M48.224,32.583,51.6,19.431A1.572,1.572,0,0,1,53,18.5H54.16a1.316,1.316,0,0,1,1.4,1.513l-5.47,20.718a1.4,1.4,0,0,1-1.4.931h-.815a1.572,1.572,0,0,1-1.4-.931l-5.47-20.718c-.233-.815.349-1.513,1.4-1.513h1.048a1.725,1.725,0,0,1,1.4.931Z" transform="translate(-40.956 -18.5)"/>
            <path id="Path_37409" data-name="Path 37409" class="cls-3" d="M56.9,25.251c0-4.307,2.1-6.751,6.285-6.751s6.285,2.328,6.285,6.751v9.777c0,2.677-.815,4.307-1.979,5.354a6.8,6.8,0,0,1-4.307,1.4,6.182,6.182,0,0,1-4.307-1.4C57.715,39.334,56.9,37.7,56.9,35.028V25.251Zm3.841,9.777c0,2.328.815,3.375,2.444,3.375s2.444-1.048,2.444-3.375V25.251c0-2.328-.815-3.259-2.444-3.259s-2.444,1.048-2.444,3.259Z" transform="translate(-38.343 -18.5)"/>
            <path id="Path_37410" data-name="Path 37410" class="cls-3" d="M71.516,19.78a1.321,1.321,0,0,1,1.4-1.28h10.01a1.321,1.321,0,0,1,1.4,1.28v.931a1.321,1.321,0,0,1-1.4,1.28H79.78V40.5a1.321,1.321,0,0,1-1.4,1.28H77.336a1.321,1.321,0,0,1-1.4-1.28V21.992H72.8a1.321,1.321,0,0,1-1.4-1.28V19.78Z" transform="translate(-35.966 -18.5)"/>
            <path id="Path_37411" data-name="Path 37411" class="cls-3" d="M96.261,18.5a1.321,1.321,0,0,1,1.4,1.28v.931a1.321,1.321,0,0,1-1.4,1.28h-5.82v6.4h4.772a1.321,1.321,0,0,1,1.4,1.28V30.6a1.321,1.321,0,0,1-1.4,1.28H90.441V38.4h5.82a1.321,1.321,0,0,1,1.4,1.28v.931a1.321,1.321,0,0,1-1.4,1.28H88a1.321,1.321,0,0,1-1.4-1.28V19.78A1.321,1.321,0,0,1,88,18.5Z" transform="translate(-33.474 -18.5)"/>
          </g>
          <g id="Group_10901" data-name="Group 10901" transform="translate(78.275 68.977)">
            <path id="Path_37412" data-name="Path 37412" class="cls-4" d="M68.464,59.655A1.247,1.247,0,0,0,67.3,60.819a1.322,1.322,0,0,0,.349.931c.116,0,.116.116.116.233s0,.116-.116.233a1.416,1.416,0,0,0,0,1.862c.116,0,.116.116.116.233s0,.116-.116.233a1.257,1.257,0,0,0-.349.815,1.222,1.222,0,0,0,.582,1.048c.116,0,.116.116.116.233v.233a1.654,1.654,0,0,0-.233.7,1.166,1.166,0,0,0,1.164,1.164l3.259-.349a.7.7,0,0,1,.7.349c.931,1.4,2.1,2.211,3.259,2.1,1.862-.233,2.793-2.91,2.1-6.169C76.961,58.491,74.633,58.957,68.464,59.655Z" transform="translate(-67.3 -59.262)"/>
          </g>
          <g id="Group_10905" data-name="Group 10905" transform="translate(25.874 58.08)">
            <g id="Group_10902" data-name="Group 10902" transform="translate(0.698 0.769)">
              <path id="Path_37413" data-name="Path 37413" class="cls-4" d="M22.9,64.574c-.466-7.216,5.82-13.5,13.967-13.967a12.571,12.571,0,0,1,3.608.233,14.578,14.578,0,0,1,9.079,5.121,11.6,11.6,0,0,1,2.328,4.423c.7,1.979.582,4.074.815,6.285a50.761,50.761,0,0,1,.349,5.936,12.725,12.725,0,0,1-4.888,9.079c-3.375,2.444-8.031,1.746-11.639.349a23.029,23.029,0,0,1-9.311-6.4A18.941,18.941,0,0,1,22.9,65.039C22.9,64.923,22.9,64.806,22.9,64.574Z" transform="translate(-22.879 -50.561)"/>
            </g>
            <g id="Group_10903" data-name="Group 10903">
              <path id="Path_37414" data-name="Path 37414" class="cls-2" d="M22.3,64.8v.349a17.623,17.623,0,0,0,.815,4.307h0c1.629,4.074,3.026,4.539,3.026,4.539s-1.979-3.026-1.629-5.7c.349-2.211,1.513-2.793,2.677-2.91h0c.116,0,1.513.116,2.328,2.211s1.048,5.121,1.28,7.915c0,0-.349,4.772,3.492,6.984h0c.349.116.582.349.931.466h0c.349.116.7.349,1.048.466,3.841,1.4,8.613,2.211,12.221-.349a13.161,13.161,0,0,0,5.121-9.661,58.986,58.986,0,0,0-.349-6.4c-.116-1.4-.116-2.677-.233-3.957-.582-4.539-1.862-8.264-4.888-10.592-.466-.349-.931-.582-1.4-.931h0A16.121,16.121,0,0,0,39.879,49.9H36.5l-6.052.349c-.116,0-.116,0-.233.116V50.6a1.607,1.607,0,0,1,.349.466c0,.116.116.116,0,.233a.114.114,0,0,1-.116.116C25.446,53.974,21.954,59.095,22.3,64.8Zm8.729.931a2.96,2.96,0,0,1,.466-1.979A5.9,5.9,0,0,0,32.313,62c.233-1.4,0-2.91.233-4.307a4.329,4.329,0,0,1,1.164-2.561.9.9,0,0,1,1.164-.116,9.426,9.426,0,0,0,5.47,1.513,10.945,10.945,0,0,0,6.285-2.328.869.869,0,0,1,1.048,0,8.95,8.95,0,0,1,2.1,2.1,12.124,12.124,0,0,1,1.164,2.1,16.866,16.866,0,0,1,1.4,4.074,17.19,17.19,0,0,1,.116,2.444c.116,1.862.349,3.725.349,5.47a12.091,12.091,0,0,1-.815,4.074,9.28,9.28,0,0,1-.931,1.862,8.258,8.258,0,0,1-6.4,3.841c-3.957.233-6.867-.7-9.079-2.793A10.5,10.5,0,0,1,34.525,76.2C32.662,73.76,31.5,70.385,31.033,65.729Z" transform="translate(-22.279 -49.9)"/>
            </g>
            <g id="Group_10904" data-name="Group 10904" transform="translate(12.345 22.01)">
              <path id="Path_37415" data-name="Path 37415" class="cls-2" d="M36.278,70.079a28.567,28.567,0,0,1,3.375-.931c.7-.116,2.211-.466,2.793,0,.466-.466,1.746-.349,2.211-.233a18.293,18.293,0,0,1,2.677.466,4.709,4.709,0,0,1,2.91,1.862,1.682,1.682,0,0,1,.233.815v1.164c0,.116-.116.116-.116.233h-.233c-.116-.116-.349-.116-.7-.233a10.083,10.083,0,0,0-2.1-.116,5.267,5.267,0,0,1-4.656-2.561c-.815,1.862-3.492,3.026-5.47,3.143a10.77,10.77,0,0,0-3.259.582c-.116,0-.233.116-.349.116s-.233.116-.349,0a.25.25,0,0,1-.233-.233,2.92,2.92,0,0,1-.116-1.164h0C32.67,71.475,35,70.544,36.278,70.079Z" transform="translate(-32.886 -68.811)"/>
            </g>
          </g>
        </g>
        <g id="Group_10989" data-name="Group 10989" transform="translate(91.906 67.624)">
          <g id="Group_10907" data-name="Group 10907" transform="translate(36.982 35.283)">
            <path id="Path_37416" data-name="Path 37416" class="cls-4" d="M124.537,115.633a5.445,5.445,0,0,0,1.979.233,4.883,4.883,0,0,0,4.307-3.375l6.867-21.067a2.319,2.319,0,1,0-4.423-1.4L126.4,111.094c0,.116-.116.233-.349.233-.116,0-.233-.116-.349-.233L115.225,90.726a2.342,2.342,0,1,0-4.19,2.1l10.475,20.369A6.06,6.06,0,0,0,124.537,115.633Z" transform="translate(-110.785 -88.414)"/>
          </g>
          <g id="Group_10909" data-name="Group 10909" transform="translate(35.939 35.347)">
            <g id="Group_10908" data-name="Group 10908">
              <path id="Path_37417" data-name="Path 37417" class="cls-9" d="M126.662,117.138a5.145,5.145,0,0,1-2.328-.233,6.139,6.139,0,0,1-3.608-3.026L110.251,93.51a3.477,3.477,0,0,1,1.513-4.656,3.542,3.542,0,0,1,2.677-.233,2.979,2.979,0,0,1,1.979,1.746l9.544,18.739,4.539-14.2c.116-.233.233-.349.466-.233.116,0,.116,0,.233.116,3.608,1.164,1.862.582,5.47,1.746.116,0,.116,0,.233.116.233.116.349.233.233.466l-5.121,16.062A6.451,6.451,0,0,1,126.662,117.138Z" transform="translate(-109.889 -88.469)"/>
            </g>
          </g>
          <g id="Group_10920" data-name="Group 10920" transform="translate(58.362 21.952)">
            <g id="Group_10910" data-name="Group 10910" transform="translate(0 10.201)">
              <path id="Path_37418" data-name="Path 37418" class="cls-4" d="M133.98,85.812a5.639,5.639,0,0,1,1.979,0l2.328.349a.885.885,0,0,1,.7.931v.582c.116.116.233.233.349.233h0a.885.885,0,0,1,.7.931.871.871,0,0,1-.815.7H139.1c-.116,0-.116,0-.116.116v.116a.7.7,0,0,1,.116.466.885.885,0,0,1-.931.7c-.116,0-.116,0-.116.116v.233c0,.116.116.233,0,.349a.875.875,0,0,1-.815.582l-1.63-.349a1.049,1.049,0,0,0-.582.116c-.233.116-.233.349-.349.466-.233,1.979-1.28,3.492-2.444,3.608-1.513.233-2.91-1.862-3.026-4.539C128.975,86.394,129.324,86.743,133.98,85.812Z" transform="translate(-129.154 -85.725)"/>
            </g>
            <g id="Group_10918" data-name="Group 10918" transform="translate(2.105)">
              <g id="Group_10911" data-name="Group 10911" transform="translate(5.165 17.854)">
                <path id="Path_37419" data-name="Path 37419" class="cls-10" d="M135.749,93.115h0c-.116.116-.116.116-.116,0l-.233-.7.349-.116Z" transform="translate(-135.4 -92.3)"/>
              </g>
              <g id="Group_10912" data-name="Group 10912" transform="translate(2.022 7.146)">
                <path id="Path_37420" data-name="Path 37420" class="cls-11" d="M134.911,84.846c.116.582.233,1.048.349,1.629a7.86,7.86,0,0,1,.233,1.63c.116.466.116,1.048.233,1.513s.116.931.233,1.28a17.374,17.374,0,0,1,.233,1.979v.466l-.815.233c0-.116-.116-.233-.116-.466-.116-.466-.349-1.164-.582-1.979-.116-.349-.233-.815-.349-1.28l-.349-1.4a7.527,7.527,0,0,0-.466-1.513c-.116-.582-.233-1.048-.349-1.63a9.7,9.7,0,0,0-.466-1.746l1.862-.466Q134.737,83.8,134.911,84.846Z" transform="translate(-132.7 -83.1)"/>
              </g>
              <g id="Group_10913" data-name="Group 10913" transform="translate(1.906 6.331)">
                <path id="Path_37421" data-name="Path 37421" class="cls-3" d="M134.579,83.1l-1.862.466c0-.233-.116-.466-.116-.7l1.862-.466A1.476,1.476,0,0,0,134.579,83.1Z" transform="translate(-132.6 -82.4)"/>
              </g>
              <g id="Group_10914" data-name="Group 10914" transform="translate(0.858)">
                <path id="Path_37422" data-name="Path 37422" class="cls-3" d="M131.7,77.472c0-.233.116-.466.349-.466a.56.56,0,0,1,.7.233l.116.116-1.048.233Z" transform="translate(-131.7 -76.961)"/>
              </g>
              <g id="Group_10915" data-name="Group 10915" transform="translate(0 0.744)">
                <path id="Path_37423" data-name="Path 37423" class="cls-3" d="M131.7,83.3a.25.25,0,0,0,.233-.233V82.6L131.006,79a.939.939,0,0,1,.349-1.048l.349-.233.116-.116h.233v.233l-.349.233-.233.116a.56.56,0,0,0-.233.7l.931,3.608v.582a.909.909,0,0,1-.466.466c-.116,0-.233,0-.233-.116A.406.406,0,0,0,131.7,83.3Z" transform="translate(-130.962 -77.6)"/>
              </g>
              <g id="Group_10916" data-name="Group 10916" transform="translate(0.975 0.395)">
                <path id="Path_37424" data-name="Path 37424" class="cls-6" d="M132.149,77.649c0-.116-.116-.116-.233,0l-.116.116v-.233l1.048-.233a1.967,1.967,0,0,0,.233.582c.116.466.349,1.164.582,1.979.116.349.233.815.349,1.28s.233.931.349,1.513c0,.233.116.466.116.7l-1.862.466c0-.233-.116-.466-.116-.7a6.811,6.811,0,0,1-.233-1.513c-.116-.466-.116-.931-.233-1.28a17.379,17.379,0,0,1-.233-1.979l.349-.233Z" transform="translate(-131.8 -77.3)"/>
              </g>
              <g id="Group_10917" data-name="Group 10917" transform="translate(4.816 17.388)">
                <path id="Path_37425" data-name="Path 37425" class="cls-6" d="M135.8,92.482h0l-.349.116h0a.25.25,0,0,1-.233-.233.36.36,0,0,0-.116-.233l.815-.233v.233C135.915,92.249,135.8,92.366,135.8,92.482Z" transform="translate(-135.1 -91.9)"/>
              </g>
            </g>
            <g id="Group_10919" data-name="Group 10919" transform="translate(0.519 10.637)">
              <path id="Path_37426" data-name="Path 37426" class="cls-4" d="M137.049,87.729a.64.64,0,0,0,.349-.582.988.988,0,0,0-.815-.931L135.42,86.1a6.445,6.445,0,0,0-2.1.233l-1.4.466a3,3,0,0,0-2.1,2.561l-.233,1.979c0,.466.233.931.7.931s.931-.233.931-.7l.233-1.979a1.6,1.6,0,0,1,.931-1.164l1.4-.466a5.842,5.842,0,0,1,1.4-.233l1.164.116A.652.652,0,0,0,137.049,87.729Z" transform="translate(-129.6 -86.1)"/>
            </g>
          </g>
          <g id="Group_10926" data-name="Group 10926" transform="translate(13.224 82.289)">
            <g id="Group_10921" data-name="Group 10921" transform="translate(2.492)">
              <path id="Path_37427" data-name="Path 37427" class="cls-12" d="M116.125,129.149a3.041,3.041,0,0,1,1.63,2.677l.582,34.452a46.847,46.847,0,0,1-5.82,23.395L98.317,215.4a3.075,3.075,0,1,1-5.354-3.026l14.2-25.723a41.134,41.134,0,0,0,5-20.252l-.582-34.452a3.033,3.033,0,0,1,3.026-3.143A3.583,3.583,0,0,1,116.125,129.149Z" transform="translate(-92.515 -128.8)"/>
            </g>
            <g id="Group_10925" data-name="Group 10925" transform="translate(0 81.081)">
              <g id="Group_10922" data-name="Group 10922" transform="translate(0.031 6.795)">
                <path id="Path_37428" data-name="Path 37428" class="cls-11" d="M92.029,208.374c-.116.116-.233.233-.466.116l-.931-.466c-.233-.116-.233-.233-.233-.466.116-.466.349-1.513.7-3.259a14.4,14.4,0,0,0,2.1,1.629Z" transform="translate(-90.4 -204.3)"/>
              </g>
              <g id="Group_10923" data-name="Group 10923" transform="translate(0 1.674)">
                <path id="Path_37429" data-name="Path 37429" class="cls-11" d="M92.15,199.9h0c1.28.7.7,2.211,1.513,3.026a10.975,10.975,0,0,0,1.164,1.164,63.777,63.777,0,0,1,4.656,5.121,3,3,0,0,0,1.979,1.164,6.673,6.673,0,0,1,1.629.466,2.544,2.544,0,0,0,.582.349.956.956,0,0,1,.582.582,1.91,1.91,0,0,1-2.328,2.677l-2.561-1.28c-1.4-.7-2.444-2.444-3.492-3.608-.7-.815-1.28-1.513-1.979-2.211a3.087,3.087,0,0,0-.7-.582,9.247,9.247,0,0,1-2.1-1.629,2.631,2.631,0,0,1-.7-1.513,4.2,4.2,0,0,1,.349-1.979A5.153,5.153,0,0,1,92.15,199.9Z" transform="translate(-90.373 -199.9)"/>
              </g>
              <g id="Group_10924" data-name="Group 10924" transform="translate(1.777)">
                <path id="Path_37430" data-name="Path 37430" class="cls-12" d="M101.211,210.611a3,3,0,0,1-1.979-1.164,63.772,63.772,0,0,0-4.656-5.121,10.973,10.973,0,0,0-1.164-1.164c-.815-.931-.349-2.328-1.513-3.026a4.007,4.007,0,0,1,3.957-1.629,5.41,5.41,0,0,1,2.677,1.048,11.056,11.056,0,0,1,3.608,4.423,13.532,13.532,0,0,1,1.28,7.449h0a2.544,2.544,0,0,1-.582-.349A6.673,6.673,0,0,0,101.211,210.611Z" transform="translate(-91.9 -198.462)"/>
              </g>
            </g>
          </g>
          <g id="Group_10932" data-name="Group 10932" transform="translate(19.28 82.143)">
            <g id="Group_10927" data-name="Group 10927">
              <path id="Path_37431" data-name="Path 37431" class="cls-4" d="M98.281,128.7a3.058,3.058,0,0,1,3.492,2.677l11.057,86.479a3.111,3.111,0,1,1-6.169.815L95.6,132.2A3.14,3.14,0,0,1,98.281,128.7Z" transform="translate(-95.576 -128.675)"/>
            </g>
            <g id="Group_10931" data-name="Group 10931" transform="translate(9.557 85.229)">
              <g id="Group_10928" data-name="Group 10928" transform="translate(1.412 8.613)">
                <path id="Path_37432" data-name="Path 37432" class="cls-11" d="M105.582,209.533h0c-.233-.116-.349-.116-.582-.233.582,1.862.931,2.91,1.048,3.375a.372.372,0,0,0,.349.349h1.513a.309.309,0,0,0,.349-.349v-.7A5.372,5.372,0,0,0,105.582,209.533Z" transform="translate(-105 -209.3)"/>
              </g>
              <g id="Group_10929" data-name="Group 10929" transform="translate(0 4.423)">
                <path id="Path_37433" data-name="Path 37433" class="cls-11" d="M115.674,210.123c-.116,0-.116-.116-.233-.116a5.951,5.951,0,0,0-3.492,0,4.814,4.814,0,0,1-2.211.582,3.453,3.453,0,0,1-1.28-.466c-.116,0-.233-.116-.349-.233a10.233,10.233,0,0,1-1.164-.7c-.466-.349-1.048-.815-1.513-1.164s-1.28-.931-1.4-1.629v-.116a5.041,5.041,0,0,0-.116-.582c0,.233-.116,1.164-.116,1.513a3.092,3.092,0,0,0,1.28,2.793.882.882,0,0,0,.466.233h0a5.114,5.114,0,0,1,2.677,2.328c.116.116.116.233.233.349a1.659,1.659,0,0,0,1.4.7h4.772a1.816,1.816,0,0,0,1.746-1.862A1.3,1.3,0,0,0,115.674,210.123Z" transform="translate(-103.787 -205.7)"/>
              </g>
              <g id="Group_10930" data-name="Group 10930" transform="translate(0.335)">
                <path id="Path_37434" data-name="Path 37434" class="cls-4" d="M105.5,208.534c.466.349,1.048.815,1.513,1.164a10.236,10.236,0,0,0,1.164.7c.116.116.233.116.349.233a3.453,3.453,0,0,0,1.28.466c.815.116,1.4-.349,2.211-.582a5.95,5.95,0,0,1,3.492,0V210.4c0-.116,0-.233-.116-.233-.931-3.259-3.492-8.264-7.565-8.264-2.793,0-3.957,3.492-3.725,4.888v.116A3.87,3.87,0,0,0,105.5,208.534Z" transform="translate(-104.075 -201.9)"/>
              </g>
            </g>
          </g>
          <g id="Group_10933" data-name="Group 10933" transform="translate(14.951 34.508)">
            <path id="Path_37435" data-name="Path 37435" class="cls-4" d="M96.912,106.664q-.7-1.571-1.4-3.492a20.73,20.73,0,0,1-1.28-6.4,3.2,3.2,0,0,0-1.4-2.561,2.246,2.246,0,0,1-.582-3.143,5.3,5.3,0,0,1,4.074-2.444c9.777-1.28,10.708-1.048,18.274,0a5.3,5.3,0,0,1,4.074,2.444,2.246,2.246,0,0,1-.582,3.143,3.844,3.844,0,0,0-1.513,3.725,15.514,15.514,0,0,1,.349,3.259,20.352,20.352,0,0,1-.582,6.518l-1.164,6.867a13.413,13.413,0,0,0,.582,6.751l1.4,3.957a23.691,23.691,0,0,1,1.746,9.544c0,8.962-5.82,11.174-15.364,11.174,0,0-12.92.582-10.824-11.174a32.614,32.614,0,0,1,2.328-7.216,16.469,16.469,0,0,1,2.1-3.375,1.607,1.607,0,0,0-.349.466c2.91-3.725,4.772-7.566,2.444-12.687C99.356,112.134,96.912,106.664,96.912,106.664Z" transform="translate(-91.857 -87.748)"/>
          </g>
          <g id="Group_10934" data-name="Group 10934" transform="translate(24.662 20.136)">
            <path id="Path_37436" data-name="Path 37436" class="cls-4" d="M104.507,95.536a3.546,3.546,0,0,0,3.026-3.608L107.3,78.892a3.55,3.55,0,1,0-7.1.116l.233,13.036a3.528,3.528,0,0,0,3.608,3.492A.354.354,0,0,0,104.507,95.536Z" transform="translate(-100.2 -75.4)"/>
          </g>
          <g id="Group_10935" data-name="Group 10935" transform="translate(24.662 20.252)">
            <path id="Path_37437" data-name="Path 37437" class="cls-5" d="M100.316,85.044l-.116-5.936a3.55,3.55,0,1,1,7.1-.116l.116,8.613a30.326,30.326,0,0,1-3.841-.931C102.528,86.208,101.48,85.626,100.316,85.044Z" transform="translate(-100.2 -75.5)"/>
          </g>
          <g id="Group_10936" data-name="Group 10936" transform="translate(14.609 67.158)">
            <path id="Path_37438" data-name="Path 37438" class="cls-2" d="M99.288,115.8h16.76l2.1,3.725h0a24.6,24.6,0,0,1,2.1,10.824,53.222,53.222,0,0,0,.349,11.756,196.787,196.787,0,0,1,1.746,37.362.533.533,0,0,1-.582.466H98.59c-.116,0-.233-.116-.349-.116a.428.428,0,0,1-.116-.349,189.742,189.742,0,0,0-.931-30.611,23.624,23.624,0,0,0-4.074-10.708c-1.28-1.746-1.979-4.307-1.28-7.915C93.236,121.969,96.727,118.826,99.288,115.8Z" transform="translate(-91.563 -115.8)"/>
          </g>
          <g id="Group_10945" data-name="Group 10945" transform="translate(12.441)">
            <g id="Group_10937" data-name="Group 10937" transform="translate(4.539 1.164)">
              <path id="Path_37439" data-name="Path 37439" class="cls-4" d="M93.6,70.972c0-6.634,5.936-11.872,13.152-11.872a15.515,15.515,0,0,1,3.259.349,13.536,13.536,0,0,1,7.915,5.121,11.307,11.307,0,0,1,1.862,4.19,23.152,23.152,0,0,1,.349,5.7c0,1.746.116,3.608,0,5.354a10.78,10.78,0,0,1-4.888,7.915c-3.143,2.1-7.216,1.164-10.475-.233a20.25,20.25,0,0,1-7.915-6.285A16.98,16.98,0,0,1,93.6,71.438C93.6,71.2,93.6,71.088,93.6,70.972Z" transform="translate(-93.6 -59.1)"/>
            </g>
            <g id="Group_10938" data-name="Group 10938" transform="translate(5.86 15.713)">
              <path id="Path_37440" data-name="Path 37440" class="cls-13" d="M94.811,74.393h0a1.16,1.16,0,0,1,.116-.466,7.42,7.42,0,0,0,.233-1.048c.116-.233.116-.349.233-.582,0-.116.116-.116.116-.233s.116-.116.116-.233c.116-.116.116-.116.233-.116s.116,0,.233-.116h5.354V73h-.582c-.7,0-1.513-1.048-2.444-1.048H96.091l-.116.116a2.781,2.781,0,0,0-.349.815,3.223,3.223,0,0,0-.116,1.048,1.2,1.2,0,0,1-.116.466h0c0,.233-.233.349-.466.233S94.694,74.626,94.811,74.393Z" transform="translate(-94.734 -71.6)"/>
            </g>
            <g id="Group_10939" data-name="Group 10939" transform="translate(6.426 21.533)">
              <path id="Path_37441" data-name="Path 37441" class="cls-13" d="M99.27,81.6a8.7,8.7,0,0,0-2.561.7,1.9,1.9,0,0,0-.931,1.048,13.2,13.2,0,0,1-.233-6.751h0c0,.116.116.116.116.233s.116.233.233.349l.7,1.048c.233.349.466.582.7.931.116.116.233.349.466.466a11.364,11.364,0,0,0,2.1,1.979Z" transform="translate(-95.221 -76.6)"/>
            </g>
            <g id="Group_10940" data-name="Group 10940" transform="translate(27.119 23.744)">
              <path id="Path_37442" data-name="Path 37442" class="cls-11" d="M113.931,82.923c.116-.116.116-.116.116-.233.116-.116.233-.233.233-.349l.233-.233c.116-.116.116-.233.233-.349,0-.116.116-.116.116-.233.116-.116.116-.233.233-.349,0-.116.116-.116.116-.233.116-.116.116-.233.233-.349,0-.116.116-.116.116-.233.116-.233.233-.349.233-.582h0a5.675,5.675,0,0,0,.466-1.28h.116v.116c-.116.233-.116.349-.233.582,0,.116,0,.116-.116.233a5.042,5.042,0,0,1-.116.582v.116c0,.233-.116.466-.116.7v.116a.872.872,0,0,1-.116.582v2.1a.872.872,0,0,0,.116.582v.233a1.654,1.654,0,0,0,.233.7v.116h0l-.116-.116-.116-.116A10.542,10.542,0,0,0,113,83.272c.116-.116.233-.233.349-.233C113.582,83.272,113.815,83.039,113.931,82.923Z" transform="translate(-113 -78.5)"/>
            </g>
            <g id="Group_10941" data-name="Group 10941">
              <path id="Path_37443" data-name="Path 37443" class="cls-2" d="M120.195,82.077a13.533,13.533,0,0,0,.466-2.1,41.093,41.093,0,0,0,0-5.354V73.464h0v-.116h0a8.142,8.142,0,0,0-.349-4.423,10.168,10.168,0,0,0-5.121-5.238c-5.238-2.793-8.147-1.746-8.38.116a2.729,2.729,0,0,0,.233,1.28,14.894,14.894,0,0,1-5.121,5.7,14.743,14.743,0,0,0-5.47,8.962c-.7,3.375-.349,6.867,1.4,9.311h0S89.7,86.616,89.7,76.606C89.7,66.48,96.684,58.1,107.508,58.1a14.668,14.668,0,0,1,14.2,9.428c2.561,6.4,0,10.475-1.4,14.665Z" transform="translate(-89.7 -58.1)"/>
            </g>
            <g id="Group_10942" data-name="Group 10942" transform="translate(27.585 23.977)">
              <path id="Path_37444" data-name="Path 37444" class="cls-13" d="M116.193,85.567a19.984,19.984,0,0,0-2.793-2.211,9.888,9.888,0,0,0,2.91-4.656h.116A10.634,10.634,0,0,0,116.193,85.567Z" transform="translate(-113.4 -78.7)"/>
            </g>
            <g id="Group_10943" data-name="Group 10943" transform="translate(12.454 14.726)">
              <path id="Path_37445" data-name="Path 37445" class="cls-2" d="M100.4,71.855v1.513a3.217,3.217,0,0,1,.7.7c0,.349.116.582.116.931a1.977,1.977,0,0,0,1.862,1.746l3.492.116a2.934,2.934,0,0,0,2.561-2.211,5.676,5.676,0,0,0,.349-.815,1.193,1.193,0,0,1,1.164-.7h.349a1.041,1.041,0,0,1,1.164.7,5.676,5.676,0,0,1,.349.815,2.818,2.818,0,0,0,2.561,2.211h.116l3.492-.116A2.076,2.076,0,0,0,120.536,75a2.563,2.563,0,0,0,.116-.931,3.217,3.217,0,0,1,.7-.7V71.855s-1.513-1.4-5.121-1.048c-3.492.349-4.656,1.4-5.354,1.4s-1.862-1.048-5.354-1.4S100.4,71.855,100.4,71.855Zm12.454,1.979A1.74,1.74,0,0,1,113.2,72.2c.582-.582,1.629-.931,3.492-.931h.349c2.444,0,3.143.931,3.143,1.4A10.145,10.145,0,0,1,119.954,75c-.233.815-.7,1.4-1.4,1.4l-3.492.116C114.018,76.511,112.97,75.347,112.854,73.834ZM101.448,72.67c0-.582.7-1.4,3.143-1.4h.349c1.979.116,3.026.349,3.492.931a1.832,1.832,0,0,1,.349,1.629,2.67,2.67,0,0,1-2.328,2.677h-.116l-3.492-.116c-.7,0-1.164-.582-1.4-1.4C101.448,73.95,101.448,73.136,101.448,72.67Z" transform="translate(-100.4 -70.752)"/>
            </g>
            <g id="Group_10944" data-name="Group 10944" transform="translate(17.11 3.718)">
              <path id="Path_37446" data-name="Path 37446" class="cls-2" d="M104.4,63.163c.233-1.979,3.143-2.91,8.38-.116a10.6,10.6,0,0,1,5.121,5.238,7.1,7.1,0,0,1,.349,4.423h0a6.465,6.465,0,0,0-4.539-2.677c-3.143-.116-7.915-3.143-9.079-5.47A3.194,3.194,0,0,1,104.4,63.163Z" transform="translate(-104.4 -61.294)"/>
            </g>
          </g>
          <g id="Group_10962" data-name="Group 10962" transform="translate(13.444 33.987)">
            <g id="Group_10947" data-name="Group 10947" transform="translate(0 0.233)">
              <g id="Group_10946" data-name="Group 10946">
                <path id="Path_37447" data-name="Path 37447" class="cls-9" d="M95.96,87.849q1.571-.175,2.793-.349a32.48,32.48,0,0,1,0,4.772.922.922,0,0,0,.582.931l.7.349a14.877,14.877,0,0,1-.7,2.677l1.4-.7a20.951,20.951,0,0,1,1.862,1.746c.582.582,1.28,1.28,2.1,2.211a60.789,60.789,0,0,1,5.354,7.216h-6.518a3.885,3.885,0,0,1-2.91-1.4,5.376,5.376,0,0,1-1.164-3.375c0,3.957,2.328,7.1,5.354,7.1h10.708a3.866,3.866,0,0,0,2.444-.815.428.428,0,0,1-.116.349l-1.164,6.867c-.815,4.423,1.048,7.1,1.979,10.126h0a25.372,25.372,0,0,1,1.862,10.126,12.65,12.65,0,0,1-.116,2.1c0,.233-.233.349-.466.349h-1.862c-2.211,0-4.423-4.074-4.772-6.634v0a5.977,5.977,0,0,1-1.746,4.307,6.69,6.69,0,0,1-5,2.211H91.537a.412.412,0,0,1-.466-.466,15.9,15.9,0,0,1,.233-2.211,25.306,25.306,0,0,1,4.423-10.708v-.116c3.026-3.841,4.423-7.216,2.444-11.639-.233-.582-2.211-4.888-2.444-5.587h0a37.258,37.258,0,0,1-2.444-7.449,16.51,16.51,0,0,0-2.211-5.587,3.344,3.344,0,0,1,.116-3.725A6.476,6.476,0,0,1,95.96,87.849Z" transform="translate(-90.562 -87.5)"/>
              </g>
            </g>
            <g id="Group_10948" data-name="Group 10948" transform="translate(8.425 0.233)">
              <path id="Path_37448" data-name="Path 37448" class="cls-14" d="M99.08,93.552l-.7-.349a1.037,1.037,0,0,1-.582-.931c0-1.048.116-3.143,0-4.772h.349A11.006,11.006,0,0,1,99.08,93.552Z" transform="translate(-97.8 -87.5)"/>
            </g>
            <g id="Group_10949" data-name="Group 10949" transform="translate(8.658 0.233)">
              <path id="Path_37449" data-name="Path 37449" class="cls-6" d="M104.285,91.69a6.456,6.456,0,0,1-.7.931,10.839,10.839,0,0,1-3.841,2.91l-1.4.7a14.877,14.877,0,0,0,.7-2.677A10.362,10.362,0,0,0,98,87.5h.233a2.506,2.506,0,0,1,1.28.233c5,2.328,7.216,3.725,8.962,5.587l-3.026-1.746A.765.765,0,0,0,104.285,91.69Z" transform="translate(-98 -87.5)"/>
            </g>
            <g id="Group_10950" data-name="Group 10950" transform="translate(8.89 14.665)">
              <path id="Path_37450" data-name="Path 37450" class="cls-14" d="M103.554,107c-2.91,0-5.354-3.143-5.354-7.1a5.376,5.376,0,0,0,1.164,3.375,3.885,3.885,0,0,0,2.91,1.4h6.518c.815,1.4,1.4,2.328,1.4,2.328Z" transform="translate(-98.2 -99.9)"/>
            </g>
            <g id="Group_10951" data-name="Group 10951" transform="translate(10.287 5.354)">
              <path id="Path_37451" data-name="Path 37451" class="cls-14" d="M103.241,91.9a37.959,37.959,0,0,1,1.746,3.725,1.654,1.654,0,0,1,.233.7c1.746,4.656,3.143,7.682,3.957,9.544a9.691,9.691,0,0,1,.931,2.328s-.582-.931-1.4-2.328a60.788,60.788,0,0,0-5.354-7.216c-.815-.931-1.513-1.629-2.1-2.211A20.951,20.951,0,0,0,99.4,94.693,9.4,9.4,0,0,0,103.241,91.9Z" transform="translate(-99.4 -91.9)"/>
            </g>
            <g id="Group_10952" data-name="Group 10952" transform="translate(14.128 3.957)">
              <path id="Path_37452" data-name="Path 37452" class="cls-6" d="M110.615,90.7a23.251,23.251,0,0,1,1.513,5c0,.349.116.582.116.931a16.983,16.983,0,0,1-1.28,9.544,10.861,10.861,0,0,1-1.4,2.328,9.691,9.691,0,0,0-.931-2.328c-.815-1.862-2.211-4.888-3.957-9.544a1.654,1.654,0,0,1-.233-.7,15.754,15.754,0,0,0-1.746-3.725,6.456,6.456,0,0,0,.7-.931.9.9,0,0,1,1.164-.233l3.026,1.746,2.561-1.862C110.382,90.816,110.5,90.7,110.615,90.7Z" transform="translate(-102.7 -90.7)"/>
            </g>
            <g id="Group_10953" data-name="Group 10953" transform="translate(14.128 3.957)">
              <path id="Path_37453" data-name="Path 37453" class="cls-6" d="M103.515,91.166a.9.9,0,0,1,1.164-.233l3.026,1.746,2.561-1.862a.428.428,0,0,1,.349-.116c.233.582.466,1.164.7,1.862a3.085,3.085,0,0,0-.582-.7l-2.444,1.746h0c-.116,0-.116.116-.233.116h-.931a.114.114,0,0,1-.116-.116l-2.793-1.629c-.233.349-.466.582-.582.815l-.349.349c-.233-.349-.349-.7-.582-1.048C102.933,91.864,103.166,91.515,103.515,91.166Z" transform="translate(-102.7 -90.7)"/>
            </g>
            <g id="Group_10954" data-name="Group 10954" transform="translate(19.133 0.185)">
              <path id="Path_37454" data-name="Path 37454" class="cls-6" d="M112.7,93.094a9.8,9.8,0,0,1,1.048,3.143.406.406,0,0,0-.116-.233,6.911,6.911,0,0,0-.466-.931c-.233-.466-.582-.931-.815-1.4a13.4,13.4,0,0,0-1.63-1.979.771.771,0,0,0-.815-.233c-.116,0-.233.116-.349.116L107,93.443a8.458,8.458,0,0,0,.116-5.354.7.7,0,0,1,.116-.466c.116-.116.233-.233.466-.116h0C107.815,87.158,111.19,89.951,112.7,93.094Z" transform="translate(-107 -87.459)"/>
            </g>
            <g id="Group_10955" data-name="Group 10955" transform="translate(19.715)">
              <path id="Path_37455" data-name="Path 37455" class="cls-2" d="M112.621,91.956a.885.885,0,0,1,0,1.164A15.843,15.843,0,0,0,107.5,87.3h0C109.362,88.115,111.574,90.675,112.621,91.956Z" transform="translate(-107.5 -87.3)"/>
            </g>
            <g id="Group_10956" data-name="Group 10956" transform="translate(20.995 15.247)">
              <path id="Path_37456" data-name="Path 37456" class="cls-14" d="M108.6,106.918a13.766,13.766,0,0,0,1.746-2.328h4.772c1.28-.116,2.444-1.979,2.561-4.19a8.715,8.715,0,0,1-1.513,4.423,6.67,6.67,0,0,1-1.28,1.28,4.389,4.389,0,0,1-2.444.815Z" transform="translate(-108.6 -100.4)"/>
            </g>
            <g id="Group_10957" data-name="Group 10957" transform="translate(20.995 3.912)">
              <path id="Path_37457" data-name="Path 37457" class="cls-14" d="M111.277,96.642c0-.349-.116-.582-.116-.931a18.147,18.147,0,0,0-1.513-5,.72.72,0,0,1,.815.233,24.379,24.379,0,0,1,1.629,1.979l-.7.815,1.28.466a.406.406,0,0,1,.233.116c.116.349.349.582.466.931v1.28a9.566,9.566,0,0,1-.233,2.444,18.42,18.42,0,0,1-2.793,7.1A13.765,13.765,0,0,1,108.6,108.4a10.86,10.86,0,0,0,1.4-2.328A16.363,16.363,0,0,0,111.277,96.642Z" transform="translate(-108.6 -90.661)"/>
            </g>
            <g id="Group_10958" data-name="Group 10958" transform="translate(23.789 6.285)">
              <path id="Path_37458" data-name="Path 37458" class="cls-14" d="M111,93.515l.7-.815a8.68,8.68,0,0,1,.815,1.4c-.116,0-.116-.116-.233-.116Z" transform="translate(-111 -92.7)"/>
            </g>
            <g id="Group_10960" data-name="Group 10960" transform="translate(19.948)">
              <g id="Group_10959" data-name="Group 10959">
                <path id="Path_37459" data-name="Path 37459" class="cls-9" d="M115.382,106.738H110.61a18.42,18.42,0,0,0,2.793-7.1,21.323,21.323,0,0,0,.233-2.444v-1.28a.406.406,0,0,0,.116.233A9.8,9.8,0,0,0,112.7,93a1.057,1.057,0,0,0,0-1.164c-.931-1.164-3.259-3.841-5-4.539.931.116,1.979.233,3.259.466l1.28.116c2.561.116,5.238,2.1,5.354,4.888a4.3,4.3,0,0,1-1.164,2.793,2.128,2.128,0,0,0,.116,2.793c.116.116.233.233.233.349a5.376,5.376,0,0,1,1.164,3.375v.582C117.71,104.759,116.662,106.621,115.382,106.738Z" transform="translate(-107.7 -87.3)"/>
              </g>
            </g>
            <g id="Group_10961" data-name="Group 10961" transform="translate(20.064 19.438)">
              <path id="Path_37460" data-name="Path 37460" class="cls-6" d="M107.8,104h2.328a10.861,10.861,0,0,1-1.4,2.328A6.213,6.213,0,0,0,107.8,104Z" transform="translate(-107.8 -104)"/>
            </g>
          </g>
          <g id="Group_10963" data-name="Group 10963" transform="translate(1.134 36.417)">
            <path id="Path_37461" data-name="Path 37461" class="cls-4" d="M80.235,112.448a6.568,6.568,0,0,0,.116,3.957,6.292,6.292,0,0,0,3.957,3.725l22.464,6.984a2.319,2.319,0,1,0,1.4-4.423l-22.464-6.984a1.652,1.652,0,0,1-1.048-.931,1.947,1.947,0,0,1,.116-1.4l12.92-20.485a2.276,2.276,0,0,0-3.841-2.444l-12.92,20.6Z" transform="translate(-79.986 -89.388)"/>
          </g>
          <g id="Group_10964" data-name="Group 10964" transform="translate(23.032 68.09)">
            <path id="Path_37462" data-name="Path 37462" class="cls-6" d="M101.826,117.066c.116,0,.233.233.233.349-.931,3.143-.582,1.746-1.513,4.888,0,.116-.233.233-.349.233l-1.4-.466c1.164-3.608.582-1.862,1.746-5.47Z" transform="translate(-98.8 -116.6)"/>
          </g>
          <g id="Group_10966" data-name="Group 10966" transform="translate(0 35.639)">
            <g id="Group_10965" data-name="Group 10965">
              <path id="Path_37463" data-name="Path 37463" class="cls-9" d="M79.464,117.329a7.429,7.429,0,0,1-.116-4.772,11.746,11.746,0,0,1,.815-1.746l12.92-20.485a3.418,3.418,0,0,1,4.772-1.048,3.709,3.709,0,0,1,1.513,3.957,5.672,5.672,0,0,1-.349.815L85.982,114.536v.349a.25.25,0,0,0,.233.233l17.342,5.354c.233.116.349.233.233.466v.233c-1.164,3.608-.582,1.862-1.746,5.47v.233c-.116.233-.233.349-.466.233l-17.342-5.354A7.519,7.519,0,0,1,79.464,117.329Z" transform="translate(-79.011 -88.719)"/>
            </g>
          </g>
          <g id="Group_10986" data-name="Group 10986" transform="translate(30.219 54.355)">
            <g id="Group_10967" data-name="Group 10967" transform="translate(0 0.582)">
              <path id="Path_37464" data-name="Path 37464" class="cls-6" d="M110.125,105.882,105,125.669a.765.765,0,0,0,.582.931l13.036,3.375a.765.765,0,0,0,.931-.582l5.121-19.787a.765.765,0,0,0-.582-.931l-.7-.233-.116.582a.428.428,0,0,1,.116.349.48.48,0,0,1-.931-.233.25.25,0,0,1,.233-.233l.116-.582-.815-.233-.116.582a.428.428,0,0,1,.116.349.48.48,0,1,1-.931-.233.25.25,0,0,1,.233-.233l.116-.582-.815-.233-.116.582a.428.428,0,0,1,.116.349.48.48,0,0,1-.931-.233.25.25,0,0,1,.233-.233l.116-.582-.815-.233-.116.582a.428.428,0,0,1,.116.349.48.48,0,0,1-.931-.233.25.25,0,0,1,.233-.233l.116-.582-.815-.233-.116.582a.428.428,0,0,1,.116.349.48.48,0,1,1-.931-.233.25.25,0,0,1,.233-.233l.116-.582-.815-.233-.116.582a.428.428,0,0,1,.116.349.48.48,0,0,1-.931-.233.25.25,0,0,1,.233-.233l.116-.582-.815-.233-.116.582a.428.428,0,0,1,.116.349.48.48,0,1,1-.931-.233.25.25,0,0,1,.233-.233l.116-.582-.815-.233-.116.582a.428.428,0,0,1,.116.349.48.48,0,1,1-.931-.233.25.25,0,0,1,.233-.233l.116-.582-.815-.233-.116.582a.428.428,0,0,1,.116.349.48.48,0,1,1-.931-.233.25.25,0,0,1,.233-.233l.116-.582-.815-.233A1.045,1.045,0,0,0,110.125,105.882Z" transform="translate(-104.975 -105.3)"/>
            </g>
            <g id="Group_10968" data-name="Group 10968" transform="translate(17.489 4.307)">
              <path id="Path_37465" data-name="Path 37465" class="cls-6" d="M120.349,109.2c.116,0,.349,0,.349-.233l.116-.349a.428.428,0,0,1,.116.349.48.48,0,0,1-.931-.233.25.25,0,0,1,.233-.233l-.116.349C120.116,108.966,120.116,109.2,120.349,109.2Z" transform="translate(-120 -108.5)"/>
            </g>
            <g id="Group_10969" data-name="Group 10969" transform="translate(16.092 3.957)">
              <path id="Path_37466" data-name="Path 37466" class="cls-6" d="M119.149,108.9c.116,0,.349,0,.349-.233l.116-.349a.428.428,0,0,1,.116.349.48.48,0,1,1-.931-.233.25.25,0,0,1,.233-.233l-.116.349C118.916,108.666,119.033,108.9,119.149,108.9Z" transform="translate(-118.8 -108.2)"/>
            </g>
            <g id="Group_10970" data-name="Group 10970" transform="translate(14.695 3.608)">
              <path id="Path_37467" data-name="Path 37467" class="cls-6" d="M117.949,108.6c.116,0,.349,0,.349-.233l.116-.349a.428.428,0,0,1,.116.349.48.48,0,0,1-.931-.233.25.25,0,0,1,.233-.233l-.116.349C117.716,108.366,117.833,108.6,117.949,108.6Z" transform="translate(-117.6 -107.9)"/>
            </g>
            <g id="Group_10971" data-name="Group 10971" transform="translate(13.415 3.259)">
              <path id="Path_37468" data-name="Path 37468" class="cls-6" d="M116.849,108.3c.116,0,.349,0,.349-.233l.116-.349a.428.428,0,0,1,.116.349.48.48,0,0,1-.931-.233.25.25,0,0,1,.233-.233l-.116.349C116.5,108.066,116.616,108.3,116.849,108.3Z" transform="translate(-116.5 -107.6)"/>
            </g>
            <g id="Group_10972" data-name="Group 10972" transform="translate(12.018 2.91)">
              <path id="Path_37469" data-name="Path 37469" class="cls-6" d="M115.649,108c.116,0,.349,0,.349-.233l.116-.349a.428.428,0,0,1,.116.349.48.48,0,1,1-.931-.233.25.25,0,0,1,.233-.233l-.116.349C115.416,107.766,115.533,108,115.649,108Z" transform="translate(-115.3 -107.3)"/>
            </g>
            <g id="Group_10973" data-name="Group 10973" transform="translate(10.621 2.561)">
              <path id="Path_37470" data-name="Path 37470" class="cls-6" d="M114.449,107.7c.116,0,.349,0,.349-.233l.116-.349a.428.428,0,0,1,.116.349.48.48,0,0,1-.931-.233.25.25,0,0,1,.233-.233l-.116.349C114.216,107.466,114.333,107.582,114.449,107.7Z" transform="translate(-114.1 -107)"/>
            </g>
            <g id="Group_10974" data-name="Group 10974" transform="translate(9.225 2.211)">
              <path id="Path_37471" data-name="Path 37471" class="cls-6" d="M113.249,107.4c.116,0,.349,0,.349-.233l.116-.349a.428.428,0,0,1,.116.349.48.48,0,1,1-.931-.233.25.25,0,0,1,.233-.233l-.116.349C113.016,107.166,113.133,107.282,113.249,107.4Z" transform="translate(-112.9 -106.7)"/>
            </g>
            <g id="Group_10975" data-name="Group 10975" transform="translate(7.944 1.862)">
              <path id="Path_37472" data-name="Path 37472" class="cls-6" d="M112.149,107.1c.116,0,.349,0,.349-.233l.116-.349a.428.428,0,0,1,.116.349.48.48,0,1,1-.931-.233.25.25,0,0,1,.233-.233l-.116.349C111.916,106.866,111.916,106.982,112.149,107.1Z" transform="translate(-111.8 -106.4)"/>
            </g>
            <g id="Group_10976" data-name="Group 10976" transform="translate(6.548 1.513)">
              <path id="Path_37473" data-name="Path 37473" class="cls-6" d="M110.949,106.8c.116,0,.349,0,.349-.233l.116-.349a.428.428,0,0,1,.116.349.48.48,0,1,1-.931-.233.25.25,0,0,1,.233-.233l-.116.349C110.716,106.566,110.833,106.682,110.949,106.8Z" transform="translate(-110.6 -106.1)"/>
            </g>
            <g id="Group_10977" data-name="Group 10977" transform="translate(17.605 2.793)">
              <path id="Path_37474" data-name="Path 37474" class="cls-15" d="M120.682,109.179c0,.116-.233.233-.349.233s-.233-.233-.233-.349l.116-.349.116-.582.233-.7c0-.116.233-.233.349-.233s.233.233.233.349l-.233.7-.116.582Z" transform="translate(-120.1 -107.2)"/>
            </g>
            <g id="Group_10978" data-name="Group 10978" transform="translate(6.664)">
              <path id="Path_37475" data-name="Path 37475" class="cls-15" d="M111.282,106.779c0,.116-.233.233-.349.233s-.233-.233-.233-.349l.116-.349.116-.582.233-.7c0-.116.233-.233.349-.233s.233.233.233.349l-.233.7-.116.582Z" transform="translate(-110.7 -104.8)"/>
            </g>
            <g id="Group_10979" data-name="Group 10979" transform="translate(12.134 1.397)">
              <path id="Path_37476" data-name="Path 37476" class="cls-15" d="M115.982,107.979c0,.116-.233.233-.349.233s-.233-.233-.233-.349l.116-.349.116-.582.233-.7c0-.116.233-.233.349-.233s.233.233.233.349l-.233.7-.116.582Z" transform="translate(-115.4 -106)"/>
            </g>
            <g id="Group_10980" data-name="Group 10980" transform="translate(9.341 0.698)">
              <path id="Path_37477" data-name="Path 37477" class="cls-15" d="M113.582,107.379c0,.116-.233.233-.349.233s-.233-.233-.233-.349l.116-.349.116-.582.233-.7c0-.116.233-.233.349-.233s.233.233.233.349l-.233.7-.116.582Z" transform="translate(-113 -105.4)"/>
            </g>
            <g id="Group_10981" data-name="Group 10981" transform="translate(14.811 2.095)">
              <path id="Path_37478" data-name="Path 37478" class="cls-15" d="M118.282,108.579c0,.116-.233.233-.349.233s-.233-.233-.233-.349l.116-.349.116-.582.233-.7c0-.116.233-.233.349-.233s.233.233.233.349l-.233.7-.116.582Z" transform="translate(-117.7 -106.6)"/>
            </g>
            <g id="Group_10982" data-name="Group 10982" transform="translate(16.208 2.444)">
              <path id="Path_37479" data-name="Path 37479" class="cls-15" d="M119.482,108.879c0,.116-.233.233-.349.233s-.233-.233-.233-.349l.116-.349.116-.582.233-.7c0-.116.233-.233.349-.233s.233.233.233.349l-.233.7-.116.582Z" transform="translate(-118.9 -106.9)"/>
            </g>
            <g id="Group_10983" data-name="Group 10983" transform="translate(13.415 1.746)">
              <path id="Path_37480" data-name="Path 37480" class="cls-15" d="M117.082,108.279c0,.116-.233.233-.349.233s-.233-.233-.233-.349l.116-.349.116-.582.233-.7c0-.116.233-.233.349-.233s.233.233.233.349l-.233.7-.116.582Z" transform="translate(-116.5 -106.3)"/>
            </g>
            <g id="Group_10984" data-name="Group 10984" transform="translate(10.738 1.048)">
              <path id="Path_37481" data-name="Path 37481" class="cls-15" d="M114.782,107.679c0,.116-.233.233-.349.233s-.233-.233-.233-.349l.116-.349.116-.582.233-.7c0-.116.233-.233.349-.233s.233.233.233.349l-.233.7-.116.582Z" transform="translate(-114.2 -105.7)"/>
            </g>
            <g id="Group_10985" data-name="Group 10985" transform="translate(8.061 0.349)">
              <path id="Path_37482" data-name="Path 37482" class="cls-15" d="M112.482,107.079c0,.116-.233.233-.349.233s-.233-.233-.233-.349l.116-.349.116-.582.233-.7c0-.116.233-.233.349-.233s.233.233.233.349l-.233.7-.116.582Z" transform="translate(-111.9 -105.1)"/>
            </g>
          </g>
          <g id="Group_10987" data-name="Group 10987" transform="translate(26.626 64.585)">
            <path id="Path_37483" data-name="Path 37483" class="cls-4" d="M107.954,113.718a5.483,5.483,0,0,1,1.979.466l2.211.931a.861.861,0,0,1,.466,1.048.114.114,0,0,1-.116.116.7.7,0,0,0-.116.466q0,.175.349.349h0a.861.861,0,0,1,.466,1.048.792.792,0,0,1-.931.466h-.233s-.116.116,0,.116v.466a.861.861,0,0,1-1.048.466h-.233l-.116.116v.349a.733.733,0,0,1-.931.349l-1.513-.7a.529.529,0,0,0-.582,0,.909.909,0,0,0-.466.466c-.7,1.862-2.1,3.026-3.259,2.91-1.513-.233-2.328-2.444-1.862-5.121C102.95,113.02,103.182,113.485,107.954,113.718Z" transform="translate(-101.888 -113.589)"/>
          </g>
          <g id="Group_10988" data-name="Group 10988" transform="translate(57.252 39.923)">
            <path id="Path_37484" data-name="Path 37484" class="cls-6" d="M128.666,92.633c0-.116.233-.233.349-.233l4.888,1.63c.116,0,.233.233.233.349l-.466,1.4c-3.608-1.164-1.862-.582-5.47-1.746Z" transform="translate(-128.2 -92.4)"/>
          </g>
        </g>
      </g>
      <g id="Group_11082" data-name="Group 11082" transform="translate(153.132 30.482)">
        <g id="Group_11032" data-name="Group 11032">
          <g id="Group_10994" data-name="Group 10994" transform="translate(53.944 66.205)">
            <g id="Group_10991" data-name="Group 10991" transform="translate(0 13.907)">
              <path id="Path_37485" data-name="Path 37485" class="cls-4" d="M182.087,95.463a2.68,2.68,0,1,0-3.026,4.423l3.026,2.1,3.026-4.423Z" transform="translate(-177.919 -95.019)"/>
            </g>
            <g id="Group_10992" data-name="Group 10992" transform="translate(4.973)">
              <path id="Path_37486" data-name="Path 37486" class="cls-3" d="M206.644,118.954a8.447,8.447,0,0,0,4.423-3.375,6.471,6.471,0,0,0,1.048-1.979l8.5-24.675a4.383,4.383,0,0,0-2.793-5.587,4.319,4.319,0,0,0-5.121,1.746,4.134,4.134,0,0,0-.466,1.048l-8.38,24.442L187.556,99.633a.575.575,0,0,0-.815.116l-.233.233-.466.7-3.026,4.423-.466.7-.233.233a.575.575,0,0,0,.116.815l16.528,11.174A9.394,9.394,0,0,0,206.644,118.954Z" transform="translate(-182.191 -83.07)"/>
            </g>
            <g id="Group_10993" data-name="Group 10993" transform="translate(3.693 15.97)">
              <path id="Path_37487" data-name="Path 37487" class="cls-6" d="M186.223,98.315l.466-.7-1.164-.7a.575.575,0,0,0-.815.116l-.233.233-3.026,4.423-.233.233a.575.575,0,0,0,.116.815l1.164.7.466-.7Z" transform="translate(-181.091 -96.791)"/>
            </g>
          </g>
          <g id="Group_10995" data-name="Group 10995" transform="translate(47.637 75.115)">
            <path id="Path_37488" data-name="Path 37488" class="cls-4" d="M173.548,91.86a1.364,1.364,0,0,0-1.048,1.28,1.178,1.178,0,0,0,.466.815c.116,0,.116.116.116.233s0,.116-.116.233a.905.905,0,0,0-.233.931,1.178,1.178,0,0,0,.466.815c.116,0,.116.116.116.233s0,.116-.116.233a.905.905,0,0,0-.233.931,1.207,1.207,0,0,0,.7.931.114.114,0,0,1,.116.116v.233a1.476,1.476,0,0,0-.116.7,1.248,1.248,0,0,0,1.28,1.048l3.143-.815a1.057,1.057,0,0,1,.815.349c1.048,1.28,2.444,1.979,3.492,1.629,1.746-.466,2.328-3.375,1.164-6.4C181.695,89.416,179.6,90.347,173.548,91.86Z" transform="translate(-172.5 -90.725)"/>
          </g>
          <g id="Group_10996" data-name="Group 10996" transform="translate(41.688)">
            <path id="Path_37489" data-name="Path 37489" class="cls-2" d="M196.733,243.041a1.807,1.807,0,0,1-1.979-1.513L167.4,28.18a1.761,1.761,0,0,1,3.492-.466l27.469,213.347A1.811,1.811,0,0,1,196.733,243.041Z" transform="translate(-167.389 -26.189)"/>
          </g>
          <g id="Group_10997" data-name="Group 10997" transform="translate(48.55 76.625)">
            <path id="Path_37490" data-name="Path 37490" class="cls-4" d="M182.614,93.975a1,1,0,0,0-.7-.815,17.812,17.812,0,0,0-7.682-1.048,1.054,1.054,0,1,0,.233,2.1,18.807,18.807,0,0,1,6.867,1.048,1,1,0,0,0,1.28-.7C182.614,94.324,182.73,94.091,182.614,93.975Z" transform="translate(-173.285 -92.022)"/>
          </g>
          <g id="Group_11000" data-name="Group 11000" transform="translate(78.371 120.655)">
            <g id="Group_10998" data-name="Group 10998">
              <path id="Path_37491" data-name="Path 37491" class="cls-2" d="M208.443,217.668a.6.6,0,0,0,.233-.466c-1.4-32.59,1.746-56.334,10.592-81.009a4.364,4.364,0,0,0-.233-3.608,4.993,4.993,0,0,0-2.677-2.444,2.739,2.739,0,0,0-.931-.233,4.676,4.676,0,0,0-5.121,3.143c-9.079,25.606-12.338,49.932-11.174,83.1a.773.773,0,0,0,.466.582l.7.116,7.1,1.048.466.116C208.211,217.784,208.327,217.784,208.443,217.668Z" transform="translate(-198.905 -129.851)"/>
            </g>
            <g id="Group_10999" data-name="Group 10999" transform="translate(1.507 86.653)">
              <path id="Path_37492" data-name="Path 37492" class="cls-3" d="M200.549,209.3a3.484,3.484,0,0,0,3.026,3.259h.7a3.53,3.53,0,0,0,3.375-3.725c-.116-1.513-.233-2.1-.349-3.492l-7.1-1.048C200.316,206.4,200.433,207.326,200.549,209.3Z" transform="translate(-200.2 -204.3)"/>
            </g>
          </g>
          <g id="Group_11003" data-name="Group 11003" transform="translate(106.226 120.712)">
            <g id="Group_11001" data-name="Group 11001">
              <path id="Path_37493" data-name="Path 37493" class="cls-2" d="M246.887,215.8a.882.882,0,0,0,.466-.233.354.354,0,0,0,0-.466c-11.406-30.611-15.713-54.122-15.015-80.311A4.774,4.774,0,0,0,227.8,129.9a2.563,2.563,0,0,0-.931.116,4.838,4.838,0,0,0-3.957,4.539c-.7,27.119,3.608,51.329,15.015,82.406a.565.565,0,0,0,.7.349l.7-.116,7.1-1.28Z" transform="translate(-222.838 -129.9)"/>
            </g>
            <g id="Group_11002" data-name="Group 11002" transform="translate(16.484 86.014)">
              <path id="Path_37494" data-name="Path 37494" class="cls-3" d="M238.862,209.62a3.534,3.534,0,0,0,3.957,2.211,1.654,1.654,0,0,0,.7-.233,3.473,3.473,0,0,0,1.979-4.539c-.582-1.4-.931-1.862-1.4-3.259l-7.1,1.28C237.582,206.826,238.164,207.757,238.862,209.62Z" transform="translate(-237 -203.8)"/>
            </g>
          </g>
          <g id="Group_11004" data-name="Group 11004" transform="translate(117.298 208.588)">
            <path id="Path_37495" data-name="Path 37495" class="cls-7" d="M232.525,212.849a1.727,1.727,0,0,1,0-1.513,10.655,10.655,0,0,1,6.518-5.936c3.026,0,3.143,3.725,5.238,3.725a2.229,2.229,0,0,0,1.746-.7c.116-.116.233-.233.349-.116.116,0,.233.116.349.233a15.506,15.506,0,0,1,.582,2.211,2.809,2.809,0,0,1-.466,1.979,2.18,2.18,0,0,1-1.629.931H233.8A1.579,1.579,0,0,1,232.525,212.849Z" transform="translate(-232.35 -205.4)"/>
          </g>
          <g id="Group_11007" data-name="Group 11007" transform="translate(102.685 49.94)">
            <g id="Group_11005" data-name="Group 11005" transform="translate(0 0)">
              <path id="Path_37496" data-name="Path 37496" class="cls-4" d="M223.991,95.289a4.607,4.607,0,0,1-3.492-4.307l-.7-17.11a4.6,4.6,0,0,1,9.2-.349l.7,17.11a4.573,4.573,0,0,1-4.423,4.772A4.775,4.775,0,0,1,223.991,95.289Z" transform="translate(-219.796 -69.096)"/>
            </g>
            <g id="Group_11006" data-name="Group 11006" transform="translate(0.116)">
              <path id="Path_37497" data-name="Path 37497" class="cls-5" d="M229.328,80.856l-.233-7.333a4.6,4.6,0,0,0-9.2.349l.349,9.893A24.705,24.705,0,0,0,225.6,82.6,21.725,21.725,0,0,0,229.328,80.856Z" transform="translate(-219.896 -69.096)"/>
            </g>
          </g>
          <g id="Group_11018" data-name="Group 11018" transform="translate(86.861 64.378)">
            <g id="Group_11008" data-name="Group 11008" transform="translate(4.423 57.265)">
              <path id="Path_37498" data-name="Path 37498" class="cls-2" d="M218.031,130.7c-.233,3.957-1.979,7.1-6.052,6.751L210,137.334c1.979,2.444,5.587,3.841,11.174,4.19,4.423.349,7.8-.582,10.243-2.677l-6.867-.466C219.195,138.033,217.682,134.774,218.031,130.7Z" transform="translate(-210 -130.7)"/>
            </g>
            <g id="Group_11009" data-name="Group 11009" transform="translate(20.943 49.583)">
              <path id="Path_37499" data-name="Path 37499" class="cls-2" d="M231.3,124.566h-.233c-.582,0-2.1-.116-5.82-.466a.9.9,0,0,0-.931.815l-.116,1.4a3.258,3.258,0,0,0,3.026,3.492l6.052.466a17.626,17.626,0,0,0-1.048-5.587h-.116A2.622,2.622,0,0,0,231.3,124.566Z" transform="translate(-224.194 -124.1)"/>
            </g>
            <g id="Group_11010" data-name="Group 11010" transform="translate(18.274 0.815)">
              <path id="Path_37500" data-name="Path 37500" class="cls-6" d="M222.6,88.369V88.6a.6.6,0,0,0,.233.466.354.354,0,0,0,.466,0l1.979-.7c.233-.349.349-.815.582-1.164a23.858,23.858,0,0,1,2.793-4.423,2.043,2.043,0,0,1,.466-.582,1.781,1.781,0,0,0-1.164.466,16.147,16.147,0,0,1-6.052,1.28Z" transform="translate(-221.9 -82.2)"/>
            </g>
            <g id="Group_11011" data-name="Group 11011" transform="translate(14.2 0.116)">
              <path id="Path_37501" data-name="Path 37501" class="cls-6" d="M218.516,87.07c0,.116-.116.349-.116.466h0l.931.931a.889.889,0,0,0,.582.233c.233,0,.349-.116.466-.349l.116-.116,2.1-4.19c-1.28-.116-1.862-.582-2.1-1.164V81.6h-.349l-.349,1.048C219.331,84.161,218.866,85.674,218.516,87.07Z" transform="translate(-218.4 -81.6)"/>
            </g>
            <g id="Group_11012" data-name="Group 11012" transform="translate(13.013 5.936)">
              <path id="Path_37502" data-name="Path 37502" class="cls-6" d="M220.662,89.743c0-.116,0-.116.116-.233h0v-.233c0-.116,0-.116.116-.233h0a1.275,1.275,0,0,0,0-.931l-.116-.233h0l-.116-.582-.116.116c-.116.233-.233.349-.466.349a.641.641,0,0,1-.582-.233l-.931-.931h0c-.233,1.048-.349,1.979-.582,3.026a54.983,54.983,0,0,0-.466,12.221C218.8,96.261,220.08,91.6,220.662,89.743Z" transform="translate(-217.38 -86.6)"/>
            </g>
            <g id="Group_11013" data-name="Group 11013" transform="translate(16.76 6.984)">
              <path id="Path_37503" data-name="Path 37503" class="cls-6" d="M224.557,89.828c.349-.815.7-1.513,1.048-2.328l-1.979.7h-.466a.6.6,0,0,1-.233-.466V87.5l-.466.582h0l-.233.233a1.322,1.322,0,0,0-.349.931h0v.466c-.233,2.211-.931,7.333-1.28,11.756A68.848,68.848,0,0,1,224.557,89.828Z" transform="translate(-220.6 -87.5)"/>
            </g>
            <g id="Group_11014" data-name="Group 11014" transform="translate(0 0.233)">
              <path id="Path_37504" data-name="Path 37504" class="cls-3" d="M247.4,88.8a4.356,4.356,0,0,0-1.979-2.793,29.369,29.369,0,0,0-10.941-3.492l-.116,1.048L233.9,87.17a.738.738,0,0,1-.582.7l-1.979.7.466.233a.773.773,0,0,1,.466.582,1.108,1.108,0,0,1-.233.815c-.233.233-.466.582-.815.931-3.026,4.074-9.311,14.433-10.592,20.485v-.466c-2.211-5.936-3.608-15.6-3.725-20.252a10.082,10.082,0,0,1,.116-2.1,1.021,1.021,0,0,1,.7-.815l.582-.116-.582-.582a.905.905,0,0,1-.233-.931,16.377,16.377,0,0,1,1.629-3.143c.233-.466.582-.931.931-1.513a34.18,34.18,0,0,0-9.428,1.862,4.032,4.032,0,0,0-2.328,2.444,4.253,4.253,0,0,0,0,3.375l.349.7a7.52,7.52,0,0,1,1.048,4.539,62.186,62.186,0,0,0,0,18.041,44.605,44.605,0,0,1-1.048,18.39s-.7,5-2.444,12.687a1.443,1.443,0,0,0,1.4,1.513l2.1.116h.815l1.979.116c4.19.349,5.82-2.793,6.052-6.751-.233,3.957,1.28,7.333,6.518,7.682l6.867.466h.815l2.1.116a1.671,1.671,0,0,0,1.979-1.28l-.582-8.264h0v-.466l-6.052-.466a3.34,3.34,0,0,1-3.026-3.492l.116-1.4a.9.9,0,0,1,.931-.815c3.841.233,5.238.349,5.82.466h.349a3.071,3.071,0,0,1,.815.116h.116c-1.979-5.587-2.328-10.941.815-16.644a35.158,35.158,0,0,0,2.1-4.19c.582-1.048,1.048-2.1,1.513-3.026a30.307,30.307,0,0,0,3.725-10.359,5.8,5.8,0,0,1,2.444-4.074,10.5,10.5,0,0,0,1.048-1.164A4.659,4.659,0,0,0,247.4,88.8Z" transform="translate(-206.2 -81.7)"/>
            </g>
            <g id="Group_11015" data-name="Group 11015" transform="translate(14.433 0.815)">
              <path id="Path_37505" data-name="Path 37505" class="cls-2" d="M226.515,87.2c-.233.349-.349.815-.582,1.164-.349.815-.7,1.513-1.048,2.328a102.08,102.08,0,0,0-4.19,11.639h0c-1.4,4.888-2.1,8.5-2.1,8.5v.233h0v.466c1.28-6.052,7.565-16.411,10.592-20.485.349-.349.582-.7.815-.931a.982.982,0,0,0,.233-.815.773.773,0,0,0-.466-.582l-.466-.233,1.979-.7c.349-.116.466-.349.582-.7l.466-3.608.116-1.048c-.349,0-.7-.116-1.048-.116l-1.629-.116c-.116.233-.349.349-.466.582A35.27,35.27,0,0,0,226.515,87.2Z" transform="translate(-218.6 -82.2)"/>
            </g>
            <g id="Group_11016" data-name="Group 11016" transform="translate(10.824)">
              <path id="Path_37506" data-name="Path 37506" class="cls-2" d="M216.082,86.272a.73.73,0,0,0,.233.931l.582.582-.582.116a1.021,1.021,0,0,0-.7.815,10.083,10.083,0,0,0-.116,2.1c.116,4.656,1.513,14.316,3.725,20.252h0a80.927,80.927,0,0,1-1.164-8.38,48.6,48.6,0,0,1,.466-12.221c.116-.931.349-1.979.582-3.026,0-.116.116-.349.116-.466a31.635,31.635,0,0,1,1.28-4.423l.349-1.048h-1.979a6.6,6.6,0,0,0-.931,1.513A12.555,12.555,0,0,0,216.082,86.272Z" transform="translate(-215.5 -81.5)"/>
            </g>
            <g id="Group_11017" data-name="Group 11017" transform="translate(13.152 2.793)">
              <path id="Path_37507" data-name="Path 37507" class="cls-9" d="M220.526,87.857l.116.582h0l.116.233a1.275,1.275,0,0,1,0,.931h0c0,.116,0,.116-.116.233v.233h0c0,.116,0,.116-.116.233-.582,1.979-1.746,6.634-3.026,12.221a80.935,80.935,0,0,0,1.164,8.38v-.233s.7-3.608,2.1-8.5h0c.349-4.423,1.048-9.661,1.28-11.756v-.466h0a2.222,2.222,0,0,1,.349-.931l.233-.233h0l.466-.582L222.5,83.9Z" transform="translate(-217.5 -83.9)"/>
            </g>
          </g>
          <g id="Group_11019" data-name="Group 11019" transform="translate(69.356 208.309)">
            <path id="Path_37508" data-name="Path 37508" class="cls-7" d="M209.48,207.883a.439.439,0,0,0-.7-.116,3.086,3.086,0,0,0-.7.582c-.815.7-1.048.7-2.561.7-1.28,0-1.979-2.677-3.608-3.608a1.705,1.705,0,0,0-1.28-.233,13.433,13.433,0,0,0-9.311,6.052,1.431,1.431,0,0,0,.116,1.513,1.99,1.99,0,0,0,1.513.815h14.9a3.18,3.18,0,0,0,2.211-.931,1.891,1.891,0,0,0,.582-1.979A11.011,11.011,0,0,0,209.48,207.883Z" transform="translate(-191.161 -205.161)"/>
          </g>
          <g id="Group_11024" data-name="Group 11024" transform="translate(119.379 8.298)">
            <g id="Group_11020" data-name="Group 11020" transform="translate(13.278)">
              <path id="Path_37509" data-name="Path 37509" class="cls-4" d="M249.217,33.646c4.888-1.28,4.888,1.4,5.587,4.539s-.7,6.169-3.026,6.751c-2.444.582-4.888-1.4-5.587-4.539C245.492,37.371,244.328,34.926,249.217,33.646Z" transform="translate(-245.546 -33.319)"/>
            </g>
            <g id="Group_11021" data-name="Group 11021" transform="translate(15.869 5.067)">
              <path id="Path_37510" data-name="Path 37510" class="cls-4" d="M247.8,40.731a2.65,2.65,0,1,1,5.238-.815l.582,3.725-5.238.815Z" transform="translate(-247.772 -37.672)"/>
            </g>
            <g id="Group_11022" data-name="Group 11022" transform="translate(0 12.781)">
              <path id="Path_37511" data-name="Path 37511" class="cls-3" d="M242.125,98.539a4.267,4.267,0,0,1-2.91,1.746,4.1,4.1,0,0,1-3.259-.815,4.735,4.735,0,0,1-1.746-2.91,4.1,4.1,0,0,1,.815-3.259L249.69,73.4a11.933,11.933,0,0,0,2.211-9.079l-2.793-18.274a.638.638,0,0,1,.466-.7h.349l.931-.116,5.238-.815.931-.116h.349a.638.638,0,0,1,.7.466l2.793,18.274a21.236,21.236,0,0,1-3.841,15.6Z" transform="translate(-234.138 -44.3)"/>
            </g>
            <g id="Group_11023" data-name="Group 11023" transform="translate(15.552 11.035)">
              <path id="Path_37512" data-name="Path 37512" class="cls-6" d="M248.664,45.477l-.931.116-.233-1.28a.638.638,0,0,1,.466-.7h.349l5.238-.815h.349a.638.638,0,0,1,.7.466l.233,1.28-.931.116Z" transform="translate(-247.5 -42.8)"/>
            </g>
          </g>
          <g id="Group_11028" data-name="Group 11028" transform="translate(0 0.329)">
            <g id="Group_11025" data-name="Group 11025">
              <path id="Path_37513" data-name="Path 37513" class="cls-8" d="M217.036,26.5l-83.1,10.708a2.651,2.651,0,0,0-2.328,3.026L138.123,91.1a2.651,2.651,0,0,0,3.026,2.328l83.1-10.708a2.651,2.651,0,0,0,2.328-3.026l-6.518-50.863A2.651,2.651,0,0,0,217.036,26.5Z" transform="translate(-131.572 -26.472)"/>
            </g>
            <g id="Group_11027" data-name="Group 11027" transform="translate(13.664 19.685)">
              <g id="Group_11026" data-name="Group 11026">
                <path id="Path_37514" data-name="Path 37514" class="cls-9" d="M152.144,63.584l1.746-13.5a1.357,1.357,0,0,1,1.164-1.164L156.1,48.8c.931-.116,1.63.466,1.513,1.28l-2.793,21.3a1.5,1.5,0,0,1-1.164,1.164l-.815.116a1.2,1.2,0,0,1-1.4-.815l-8.031-19.9c-.349-.815.233-1.513,1.164-1.629l1.048-.116a1.318,1.318,0,0,1,1.4.815Z" transform="translate(-143.312 -42.499)"/>
                <path id="Path_37515" data-name="Path 37515" class="cls-9" d="M159.715,55.063c-.582-4.307,1.28-6.984,5.354-7.449,4.19-.582,6.518,1.513,7.1,5.82l1.28,9.661c.349,2.677-.233,4.423-1.28,5.587a5.994,5.994,0,0,1-4.074,1.862,6.1,6.1,0,0,1-4.423-.815c-1.28-.931-2.328-2.328-2.677-5.121Zm5.121,9.195c.233,2.211,1.28,3.259,2.91,3.026s2.328-1.28,1.979-3.608l-1.28-9.661c-.349-2.328-1.164-3.143-2.91-3.026-1.629.233-2.328,1.4-1.979,3.608Z" transform="translate(-140.64 -42.707)"/>
                <path id="Path_37516" data-name="Path 37516" class="cls-9" d="M173.6,47.78a1.29,1.29,0,0,1,1.164-1.4l10.01-1.28a1.256,1.256,0,0,1,1.513,1.048l.116.931a1.29,1.29,0,0,1-1.164,1.4l-3.143.349,2.328,18.39a1.29,1.29,0,0,1-1.164,1.4l-1.048.116a1.256,1.256,0,0,1-1.513-1.048l-2.328-18.39-3.026.349a1.256,1.256,0,0,1-1.513-1.048Z" transform="translate(-138.349 -43.106)"/>
                <path id="Path_37517" data-name="Path 37517" class="cls-9" d="M197.93,43.4a1.256,1.256,0,0,1,1.513,1.048l.116.931a1.29,1.29,0,0,1-1.164,1.4l-5.82.7.815,6.4,4.772-.582a1.256,1.256,0,0,1,1.513,1.048l.116.931a1.29,1.29,0,0,1-1.164,1.4l-4.772.582.815,6.518,5.82-.7A1.256,1.256,0,0,1,202,64.12l.116.931a1.29,1.29,0,0,1-1.164,1.4L192.692,67.5a1.256,1.256,0,0,1-1.513-1.048l-2.677-20.6a1.29,1.29,0,0,1,1.164-1.4Z" transform="translate(-135.907 -43.385)"/>
              </g>
            </g>
          </g>
          <g id="Group_11031" data-name="Group 11031" transform="translate(91.395 28.181)">
            <g id="Group_11029" data-name="Group 11029" transform="translate(0.099 2.162)">
              <path id="Path_37518" data-name="Path 37518" class="cls-4" d="M240.465,66.856v-.349c.582-7.216-5.7-13.618-13.851-14.2a18.715,18.715,0,0,0-3.608.116,15.034,15.034,0,0,0-9.2,5,12.677,12.677,0,0,0-2.444,4.423,21.9,21.9,0,0,0-.815,6.169,50.761,50.761,0,0,0-.349,5.936,12.194,12.194,0,0,0,4.772,9.079c3.375,2.561,8.031,1.862,11.639.582a23.2,23.2,0,0,0,9.428-6.285A19.1,19.1,0,0,0,240.465,66.856Z" transform="translate(-210.18 -52.259)"/>
            </g>
            <g id="Group_11030" data-name="Group 11030">
              <path id="Path_37519" data-name="Path 37519" class="cls-11" d="M241.759,62.155c-.116-4.423-3.608-7.1-8.147-9.661a11.394,11.394,0,0,0-6.634-1.164c-1.164.116-1.4-.582-2.328-.815-1.862-.466-2.91.582-5.238,1.28s-3.143-.116-5.354,1.164a4.883,4.883,0,0,0-1.629,2.1,4.806,4.806,0,0,1-.815,1.28c-1.4,1.862-2.1,4.539-.931,8.38,0,.116,0,.116.116.233a11.95,11.95,0,0,1,.582-2.793c.233-.582.466-1.164.7-1.629a.909.909,0,0,1,.466-.466.77.77,0,0,1,.7.116,5.266,5.266,0,0,0,3.026,1.048c2.793.233,3.143-2.1,6.169-1.862,2.91.233,2.793,2.444,6.751,3.259a10.651,10.651,0,0,0,1.862.116.889.889,0,0,1,.582.233.77.77,0,0,1,.116.7,4.275,4.275,0,0,0-.116,2.1,12.512,12.512,0,0,1,.116,3.608c-.116.582-.233,1.048-.349,1.629a2.994,2.994,0,0,0-.116,1.746c.233.582.815.233,1.048-.233a4.169,4.169,0,0,0,.466-1.28,6.5,6.5,0,0,1,1.048-2.444.889.889,0,0,1,.582-.233.64.64,0,0,1,.582.349,7.865,7.865,0,0,0,3.026,2.91.83.83,0,0,1,.349.7,3.4,3.4,0,0,1-.233,1.048,8.141,8.141,0,0,1-1.979,3.608,23.67,23.67,0,0,1-5.47,4.888h0c4.19.349,4.539-.7,5-1.629.466-1.048.815-2.328,1.513-2.91h0C245.717,70.3,241.876,66.578,241.759,62.155ZM231.633,81.477a5.058,5.058,0,0,1-.815.466C231.051,81.826,231.4,81.593,231.633,81.477Z" transform="translate(-210.095 -50.401)"/>
            </g>
          </g>
        </g>
        <g id="Group_11081" data-name="Group 11081" transform="translate(119.317 38.901)">
          <g id="Group_11037" data-name="Group 11037" transform="translate(0 18.285)">
            <g id="Group_11033" data-name="Group 11033">
              <path id="Path_37520" data-name="Path 37520" class="cls-4" d="M239.689,79.37a.742.742,0,0,0,.7,0,.64.64,0,0,0,.349-.582,10.014,10.014,0,0,1,.815-2.91.963.963,0,1,1,1.746.815,9.678,9.678,0,0,0-.7,2.211c-.349,3.725,1.746,4.19.582,6.518-.931,1.862-3.492,2.444-5.82,1.28s-4.423-1.629-2.561-5.47C236.43,77.973,237.827,78.439,239.689,79.37Z" transform="translate(-234.085 -75.322)"/>
            </g>
            <g id="Group_11034" data-name="Group 11034" transform="translate(3.569 6.203)">
              <path id="Path_37521" data-name="Path 37521" class="cls-4" d="M284.463,97.236a.889.889,0,0,1-.582.233l-22.231,8.38a9.231,9.231,0,0,1-10.592-3.143L237.557,84.2a2.246,2.246,0,1,1,3.608-2.677l13.5,18.506a4.7,4.7,0,0,0,5.354,1.63l22.231-8.38a2.233,2.233,0,0,1,2.91,1.28A2.134,2.134,0,0,1,284.463,97.236Z" transform="translate(-237.151 -80.651)"/>
            </g>
            <g id="Group_11035" data-name="Group 11035" transform="translate(5.605 9.403)">
              <path id="Path_37522" data-name="Path 37522" class="cls-6" d="M243.556,85.262c.233-.116.466-.349.815-.582l-.815-1.164a.7.7,0,0,0-.466-.116c-2.677,1.862-1.513,1.048-4.074,2.91-.116.116-.116.233-.116.466l.815,1.164c2.677-1.979,1.862-1.28,3.841-2.677Z" transform="translate(-238.9 -83.4)"/>
            </g>
            <g id="Group_11036" data-name="Group 11036" transform="translate(6.255 10.402)">
              <path id="Path_37523" data-name="Path 37523" class="cls-3" d="M261.621,106.3l22.231-8.38a2.917,2.917,0,0,0,.815-.466,3.316,3.316,0,0,0,1.164-3.957,3.424,3.424,0,0,0-1.746-1.862,3.876,3.876,0,0,0-2.561-.116L259.293,99.9a3.478,3.478,0,0,1-3.957-1.164L244.977,84.423a.512.512,0,0,0-.582-.116l-.116.116c-.349.233-.582.466-.815.582h0c-1.979,1.4-1.048.7-3.725,2.677l-.116.116c-.116.116-.233.349-.116.466l10.359,14.316A9.9,9.9,0,0,0,261.621,106.3Z" transform="translate(-239.459 -84.259)"/>
            </g>
          </g>
          <g id="Group_11043" data-name="Group 11043" transform="translate(46.808 2.352)">
            <g id="Group_11038" data-name="Group 11038" transform="translate(0.233 22.426)">
              <path id="Path_37524" data-name="Path 37524" class="cls-13" d="M290.911,91.026c.233-2.444.349-4.19.582-5.587a12.672,12.672,0,0,1-2.91,1.164c-3.259,1.048-7.449,1.629-10.359-.7a10.635,10.635,0,0,1-3.492-5c-.116.7-.116,1.28-.233,1.979,0,0,.233,14.549,13.618,15.829,3.957.349,6.984.7,9.544.931C290.795,98.941,290.911,91.026,290.911,91.026Z" transform="translate(-274.5 -80.9)"/>
            </g>
            <g id="Group_11039" data-name="Group 11039" transform="translate(10.824 18.811)">
              <path id="Path_37525" data-name="Path 37525" class="cls-4" d="M287.092,97.82h-.466a3.633,3.633,0,0,1-3.026-3.608l.582-13.036a3.53,3.53,0,0,1,3.725-3.375,3.707,3.707,0,0,1,3.492,3.725l-.582,13.036A3.515,3.515,0,0,1,287.092,97.82Z" transform="translate(-283.6 -77.795)"/>
            </g>
            <g id="Group_11040" data-name="Group 11040" transform="translate(10.941 18.695)">
              <path id="Path_37526" data-name="Path 37526" class="cls-5" d="M291.033,87.361l.233-5.936a3.613,3.613,0,0,0-7.216-.349l-.349,8.613a15.4,15.4,0,0,0,3.841-.931A15.626,15.626,0,0,0,291.033,87.361Z" transform="translate(-283.7 -77.695)"/>
            </g>
            <g id="Group_11041" data-name="Group 11041" transform="translate(0 0.235)">
              <path id="Path_37527" data-name="Path 37527" class="cls-4" d="M301.3,74.714c.582-6.4-4.772-12.221-11.872-12.8a10.337,10.337,0,0,0-3.259.116,13.629,13.629,0,0,0-8.264,4.307,10.667,10.667,0,0,0-2.211,3.841,21.579,21.579,0,0,0-.931,5.587c-.116,1.746-.466,3.492-.466,5.238a10.54,10.54,0,0,0,4.074,8.147c2.91,2.328,6.984,1.746,10.359.7a18.822,18.822,0,0,0,8.38-5.47,17.88,17.88,0,0,0,4.19-9.311A.218.218,0,0,1,301.3,74.714Z" transform="translate(-274.3 -61.834)"/>
            </g>
            <g id="Group_11042" data-name="Group 11042" transform="translate(5.121)">
              <path id="Path_37528" data-name="Path 37528" class="cls-13" d="M290.921,71.6a13.553,13.553,0,0,1-4.074-4.19c-.815-1.28-1.4-2.677-2.211-3.725a6.67,6.67,0,0,0-1.28-1.28,2.918,2.918,0,0,0-.815-.466,5.351,5.351,0,0,0-3.841.116,8.6,8.6,0,0,0,.233,1.4c.116.349.116.7.233,1.048a13.235,13.235,0,0,0,3.375,5.82,13.372,13.372,0,0,0,9.311,3.841,13.086,13.086,0,0,0,3.492-.349A19.5,19.5,0,0,1,290.921,71.6Z" transform="translate(-278.7 -61.633)"/>
            </g>
          </g>
          <g id="Group_11044" data-name="Group 11044" transform="translate(56.707 82.696)">
            <path id="Path_37529" data-name="Path 37529" class="cls-4" d="M288.27,130.939a3.323,3.323,0,0,0-1.862,2.561l-3.375,34.452a46.7,46.7,0,0,0,3.957,23.86L299.327,218.7a3.209,3.209,0,0,0,4.19,1.513,2.927,2.927,0,0,0,1.513-4.074l-12.338-26.887a40.945,40.945,0,0,1-3.492-20.718l3.375-34.452a3.05,3.05,0,0,0-2.793-3.375A2.219,2.219,0,0,0,288.27,130.939Z" transform="translate(-282.805 -130.661)"/>
          </g>
          <g id="Group_11045" data-name="Group 11045" transform="translate(40.094 82.679)">
            <path id="Path_37530" data-name="Path 37530" class="cls-4" d="M277.224,223.939a3.021,3.021,0,0,1-3.026-2.444c-6.867-33.87-7.449-61.8-1.979-88.342a3.187,3.187,0,0,1,3.725-2.444,3.041,3.041,0,0,1,2.444,3.608c-5.238,25.723-4.656,52.958,1.979,85.9a3.068,3.068,0,0,1-2.444,3.608A1.476,1.476,0,0,1,277.224,223.939Z" transform="translate(-268.532 -130.647)"/>
          </g>
          <g id="Group_11046" data-name="Group 11046" transform="translate(43.121 35.421)">
            <path id="Path_37531" data-name="Path 37531" class="cls-4" d="M297.516,138.3a32.776,32.776,0,0,0-1.629-7.449,18.389,18.389,0,0,0-2.328-4.19c.233.349.466.815.7,1.164-2.561-4.074-4.074-8.031-1.28-12.92L296,109.663a29.92,29.92,0,0,0,1.746-3.375c5-11.057-.116-15.48-8.264-16.179-9.195-.815-12.221,6.169-13.152,12.338a17.534,17.534,0,0,0,0,6.518l.582,6.984a11.939,11.939,0,0,1-1.28,6.634l-1.862,3.841a23.753,23.753,0,0,0-2.561,9.428c-.815,8.962,4.772,11.639,14.433,12.57C285.527,148.422,298.563,150.168,297.516,138.3Z" transform="translate(-271.133 -90.044)"/>
          </g>
          <g id="Group_11047" data-name="Group 11047" transform="translate(39.359 72.499)">
            <path id="Path_37532" data-name="Path 37532" class="cls-2" d="M296.3,124.344a18.618,18.618,0,0,0-1.28-2.211.6.6,0,0,0-.466-.233H273.021c-.233,0-.349.116-.466.349-.466,1.048-1.629,3.841-1.629,9.544v1.164a40.4,40.4,0,0,1-.582,9.893,170.881,170.881,0,0,0-2.444,28.633.5.5,0,0,0,.466.466h25.956a.5.5,0,0,0,.466-.466V156.119a95.155,95.155,0,0,1,.349-10.824,14.48,14.48,0,0,1,2.1-6.052c.931-1.28,1.979-3.492,1.28-7.565A22.084,22.084,0,0,0,296.3,124.344Z" transform="translate(-267.9 -121.9)"/>
          </g>
          <g id="Group_11062" data-name="Group 11062" transform="translate(41.57 34.671)">
            <g id="Group_11048" data-name="Group 11048" transform="translate(0 1.513)">
              <path id="Path_37533" data-name="Path 37533" class="cls-3" d="M298.549,91.282c-1.048-.233-1.979-.466-2.793-.582a24.137,24.137,0,0,0-.466,4.656,1.014,1.014,0,0,1-.7.931l-.7.233a15.906,15.906,0,0,0,.466,2.677,4.807,4.807,0,0,1-1.28-.815c-.466.349-1.048.815-1.979,1.513a26.741,26.741,0,0,0-2.328,1.979,63.664,63.664,0,0,0-5.936,6.634l6.4.582a4.031,4.031,0,0,0,3.026-1.048,5.031,5.031,0,0,0,1.513-3.143c-.349,3.841-3.026,6.751-5.936,6.4l-6.751-.582-3.725-.349a5.771,5.771,0,0,1-2.328-.931v.349l.582,6.867c.349,4.423-1.746,6.867-2.91,9.777h0a26.332,26.332,0,0,0-2.793,9.777,11.97,11.97,0,0,0-.116,1.979.5.5,0,0,0,.466.466l1.862.116c2.1.233,4.772-3.608,5.354-6.052,0-.233.116-.582.116-.815a2.272,2.272,0,0,1-.116.815,6.8,6.8,0,0,0,1.28,4.423,6.867,6.867,0,0,0,4.656,2.677c.349,0,15.131,1.4,14.782,1.4a.412.412,0,0,0,.466-.466v-2.1a26.131,26.131,0,0,0-3.375-10.825v-.116c-2.561-4.074-3.725-7.449-1.28-11.639a55.749,55.749,0,0,0,2.91-5.238h0a32.82,32.82,0,0,0,3.143-7.1,18.594,18.594,0,0,1,2.677-5.238,3.156,3.156,0,0,0,.233-3.608A5.242,5.242,0,0,0,298.549,91.282Z" transform="translate(-269.8 -90.7)"/>
            </g>
            <g id="Group_11049" data-name="Group 11049" transform="translate(24.072 1.28)">
              <path id="Path_37534" data-name="Path 37534" class="cls-2" d="M290.5,96.436l.7-.233a1.014,1.014,0,0,0,.7-.931,25.017,25.017,0,0,1,.466-4.656.427.427,0,0,1-.349-.116A10.871,10.871,0,0,0,290.5,96.436Z" transform="translate(-290.482 -90.5)"/>
            </g>
            <g id="Group_11050" data-name="Group 11050" transform="translate(14.782 1.348)">
              <path id="Path_37535" data-name="Path 37535" class="cls-6" d="M286.807,94.215a6.5,6.5,0,0,0,.582.931,10.137,10.137,0,0,0,3.492,3.143c.349.233.815.466,1.28.815a9.167,9.167,0,0,1-.466-2.677,9.865,9.865,0,0,1,1.63-5.82h-.233a2.42,2.42,0,0,0-1.28.116c-5.238,1.746-7.449,2.91-9.311,4.656l3.143-1.513A.807.807,0,0,1,286.807,94.215Z" transform="translate(-282.5 -90.559)"/>
            </g>
            <g id="Group_11051" data-name="Group 11051" transform="translate(11.523 15.48)">
              <path id="Path_37536" data-name="Path 37536" class="cls-2" d="M286.334,109.1c2.91.233,5.47-2.561,5.936-6.4a4.755,4.755,0,0,1-1.513,3.143,3.625,3.625,0,0,1-3.026,1.048l-6.4-.582c-.931,1.28-1.629,2.1-1.629,2.1Z" transform="translate(-279.7 -102.7)"/>
            </g>
            <g id="Group_11052" data-name="Group 11052" transform="translate(11.523 5.936)">
              <path id="Path_37537" data-name="Path 37537" class="cls-2" d="M287.964,94.5a19.648,19.648,0,0,0-1.979,3.492l-.349.7a98.493,98.493,0,0,1-4.772,8.962,14.03,14.03,0,0,0-1.164,2.211s.7-.931,1.629-2.1a52.691,52.691,0,0,1,5.936-6.634c.931-.815,1.629-1.4,2.328-1.979.931-.7,1.513-1.164,1.979-1.513A9.566,9.566,0,0,1,287.964,94.5Z" transform="translate(-279.7 -94.5)"/>
            </g>
            <g id="Group_11053" data-name="Group 11053" transform="translate(9.527 3.841)">
              <path id="Path_37538" data-name="Path 37538" class="cls-6" d="M280.563,92.7a19.381,19.381,0,0,0-1.862,4.656c-.116.349-.116.582-.233.931a17.182,17.182,0,0,0,.349,9.428,11.378,11.378,0,0,0,1.164,2.328,9.994,9.994,0,0,1,1.164-2.211,98.516,98.516,0,0,0,4.772-8.962l.349-.7a24.882,24.882,0,0,1,1.979-3.492,4.083,4.083,0,0,1-.582-.931A.9.9,0,0,0,286.5,93.4l-3.143,1.513-2.444-2.1C280.8,92.816,280.679,92.7,280.563,92.7Z" transform="translate(-277.985 -92.7)"/>
            </g>
            <g id="Group_11054" data-name="Group 11054" transform="translate(11.174 3.957)">
              <path id="Path_37539" data-name="Path 37539" class="cls-6" d="M287.315,93.848a.9.9,0,0,0-1.164-.349l-3.143,1.513-2.444-2.1a.428.428,0,0,0-.349-.116,11.753,11.753,0,0,0-.815,1.746l.582-.582,2.211,1.979h0c.116,0,.116.116.233.116h.116c.116,0,.233.116.349.116h.582l2.91-1.4a4.925,4.925,0,0,0,.582.815c.116.116.233.233.233.349l.7-1.048A4.718,4.718,0,0,0,287.315,93.848Z" transform="translate(-279.4 -92.8)"/>
            </g>
            <g id="Group_11055" data-name="Group 11055" transform="translate(7.915 0.112)">
              <path id="Path_37540" data-name="Path 37540" class="cls-6" d="M277.88,94.738a10.054,10.054,0,0,0-1.28,3.026.406.406,0,0,1,.116-.233,4.082,4.082,0,0,1,.582-.931,12.187,12.187,0,0,1,.931-1.28c.582-.7,1.164-1.28,1.746-1.862a1.108,1.108,0,0,1,.815-.233c.116,0,.233.116.349.116l2.444,2.1a7.9,7.9,0,0,1,.349-5.238c.116-.116,0-.349,0-.466a.6.6,0,0,0-.466-.233h0C283.234,89.384,279.626,91.828,277.88,94.738Z" transform="translate(-276.6 -89.497)"/>
            </g>
            <g id="Group_11056" data-name="Group 11056" transform="translate(9.033 0.233)">
              <path id="Path_37541" data-name="Path 37541" class="cls-2" d="M277.839,93.557a.9.9,0,0,0-.116,1.164A15.194,15.194,0,0,1,283.31,89.6h0C281.447,90.182,278.887,92.51,277.839,93.557Z" transform="translate(-277.561 -89.6)"/>
            </g>
            <g id="Group_11057" data-name="Group 11057" transform="translate(3.241 14.083)">
              <path id="Path_37542" data-name="Path 37542" class="cls-2" d="M280.866,108.716a21.271,21.271,0,0,1-1.513-2.444l-3.143-.349-1.4-.116H274.7c-1.28-.233-2.211-2.1-2.1-4.307a8.2,8.2,0,0,0,1.048,4.539,4.657,4.657,0,0,0,1.164,1.4,3.46,3.46,0,0,0,2.328.931Z" transform="translate(-272.585 -101.5)"/>
            </g>
            <g id="Group_11058" data-name="Group 11058" transform="translate(7.827 3.795)">
              <path id="Path_37543" data-name="Path 37543" class="cls-2" d="M278.707,98.293c.116-.349.116-.582.233-.931a17.593,17.593,0,0,1,1.862-4.656.72.72,0,0,0-.815.233,8.748,8.748,0,0,0-1.746,1.862l.582.931-1.28.233c-.116,0-.233,0-.233.116a6.5,6.5,0,0,0-.582.931,3.589,3.589,0,0,0-.116,1.164,8.555,8.555,0,0,0,0,2.444,17.079,17.079,0,0,0,2.1,7.216,21.279,21.279,0,0,0,1.513,2.444,11.38,11.38,0,0,1-1.164-2.328A18.252,18.252,0,0,1,278.707,98.293Z" transform="translate(-276.525 -92.661)"/>
            </g>
            <g id="Group_11059" data-name="Group 11059" transform="translate(8.613 5.82)">
              <path id="Path_37544" data-name="Path 37544" class="cls-3" d="M278.713,95.331l-.582-.931a5.167,5.167,0,0,0-.931,1.28c.116,0,.116-.116.233-.116Z" transform="translate(-277.2 -94.4)"/>
            </g>
            <g id="Group_11060" data-name="Group 11060" transform="translate(2.91)">
              <path id="Path_37545" data-name="Path 37545" class="cls-3" d="M274.628,107.79h.116l1.4.116,3.143.349a16.571,16.571,0,0,1-2.1-7.216V98.595c0-.466.116-.931.116-1.164,0,.116-.116.116-.116.233a10.055,10.055,0,0,1,1.28-3.026,1.071,1.071,0,0,1,.116-1.164c1.047-1.048,3.492-3.492,5.354-4.074-.931,0-1.979.116-3.259.116H279.4c-2.561-.116-5.354,1.513-5.7,4.307a4.145,4.145,0,0,0,.815,2.793,2,2,0,0,1-.349,2.677c-.116.116-.233.116-.349.233a5.031,5.031,0,0,0-1.513,3.143v.582C272.416,105.695,273.348,107.557,274.628,107.79Z" transform="translate(-272.3 -89.4)"/>
            </g>
            <g id="Group_11061" data-name="Group 11061" transform="translate(10.359 18.856)">
              <path id="Path_37546" data-name="Path 37546" class="cls-6" d="M280.911,105.833,278.7,105.6h0a11.377,11.377,0,0,0,1.164,2.328,9.877,9.877,0,0,1,1.048-2.1Z" transform="translate(-278.7 -105.6)"/>
            </g>
          </g>
          <g id="Group_11067" data-name="Group 11067" transform="translate(22.464 20.38)">
            <g id="Group_11063" data-name="Group 11063">
              <path id="Path_37547" data-name="Path 37547" class="cls-4" d="M258.989,81.17a.742.742,0,0,0,.7,0,.64.64,0,0,0,.349-.582,10.015,10.015,0,0,1,.815-2.91.963.963,0,1,1,1.746.815,9.676,9.676,0,0,0-.7,2.211c-.349,3.725,1.746,4.19.582,6.518-.931,1.862-3.492,2.444-5.82,1.28s-4.423-1.629-2.561-5.47C255.73,79.773,257.127,80.123,258.989,81.17Z" transform="translate(-253.385 -77.122)"/>
            </g>
            <g id="Group_11064" data-name="Group 11064" transform="translate(3.569 6.203)">
              <path id="Path_37548" data-name="Path 37548" class="cls-4" d="M303.763,99.036a.889.889,0,0,1-.582.233l-22.231,8.38a9.231,9.231,0,0,1-10.592-3.143L256.857,86a2.246,2.246,0,1,1,3.608-2.677l13.5,18.506a4.7,4.7,0,0,0,5.354,1.629l22.231-8.38a2.233,2.233,0,0,1,2.91,1.28A2.171,2.171,0,0,1,303.763,99.036Z" transform="translate(-256.451 -82.451)"/>
            </g>
            <g id="Group_11065" data-name="Group 11065" transform="translate(5.605 9.403)">
              <path id="Path_37549" data-name="Path 37549" class="cls-6" d="M262.856,87.062c.233-.116.466-.349.815-.582l-.815-1.164a.7.7,0,0,0-.466-.116c-2.677,1.862-1.513,1.048-4.074,2.91-.116.116-.116.233-.116.466l.815,1.164c2.677-1.979,1.862-1.28,3.841-2.677Z" transform="translate(-258.2 -85.2)"/>
            </g>
            <g id="Group_11066" data-name="Group 11066" transform="translate(6.255 10.402)">
              <path id="Path_37550" data-name="Path 37550" class="cls-3" d="M280.921,108.1l22.231-8.38a2.917,2.917,0,0,0,.815-.466,3.316,3.316,0,0,0,1.164-3.957,3.424,3.424,0,0,0-1.746-1.862,3.876,3.876,0,0,0-2.561-.116l-22.231,8.38a3.478,3.478,0,0,1-3.957-1.164L264.277,86.223a.512.512,0,0,0-.582-.116l-.116.116c-.349.233-.582.466-.815.582h0c-1.979,1.4-1.048.7-3.725,2.677l-.116.116c-.116.116-.233.349-.116.466l10.359,14.316A9.9,9.9,0,0,0,280.921,108.1Z" transform="translate(-258.759 -86.059)"/>
            </g>
          </g>
          <g id="Group_11068" data-name="Group 11068" transform="translate(48.554)">
            <path id="Path_37551" data-name="Path 37551" class="cls-13" d="M276.149,68.793a9.331,9.331,0,0,1,1.513-2.211c.582-.582,1.164-1.164,1.862-1.746a3.4,3.4,0,0,1-.233-1.048,8.592,8.592,0,0,1-.233-1.4,5.351,5.351,0,0,1,3.841-.116,1.876,1.876,0,0,1,.815.466,6.671,6.671,0,0,1,1.28,1.28c.466.233.931.582,1.513.931,1.862,1.28,3.725,4.074,4.772,6.984a21.11,21.11,0,0,0,4.307,2.211,13.086,13.086,0,0,1-3.492.349,7.994,7.994,0,0,1,.233,2.793c-.582,6.518-.7,7.915-1.048,11.639-.116,1.4-.349,3.143-.582,5.587,0,0-.233,7.8,6.751,8.5,6.052.582,8.147.7,8.147.7s-5.121-.7-4.423-8.264,1.862-20.019,1.862-20.019,1.629-14.2-13.967-15.713c-5.238-.466-8.5.7-10.475,2.561a10.02,10.02,0,0,0-2.793,6.751C276.033,69.026,276.033,68.909,276.149,68.793Z" transform="translate(-275.8 -59.612)"/>
          </g>
          <g id="Group_11074" data-name="Group 11074" transform="translate(71.046 166.202)">
            <g id="Group_11069" data-name="Group 11069" transform="translate(8.351 1.506)">
              <path id="Path_37552" data-name="Path 37552" class="cls-11" d="M302.766,206.726l1.28-.931h0a9.83,9.83,0,0,0-1.746-2.1A3.974,3.974,0,0,1,302.766,206.726Z" transform="translate(-302.3 -203.7)"/>
            </g>
            <g id="Group_11070" data-name="Group 11070" transform="translate(0 5.504)">
              <path id="Path_37553" data-name="Path 37553" class="cls-11" d="M298.238,210.237l2.1-1.513a3.9,3.9,0,0,0-5.121-1.048,10.3,10.3,0,0,0,0,2.677c.116-.116.349-.233.466-.349A1.852,1.852,0,0,1,298.238,210.237Z" transform="translate(-295.125 -207.135)"/>
            </g>
            <g id="Group_11071" data-name="Group 11071" transform="translate(0.437 3.717)">
              <path id="Path_37554" data-name="Path 37554" class="cls-11" d="M300.388,208.975l-2.1,1.513-2.793,1.979h0a1.481,1.481,0,0,0,.815,1.048,1.249,1.249,0,0,0,1.28-.116l6.984-5a2.061,2.061,0,0,0,.582-2.793l-1.28.931Z" transform="translate(-295.5 -205.6)"/>
            </g>
            <g id="Group_11072" data-name="Group 11072" transform="translate(0.087 0)">
              <path id="Path_37555" data-name="Path 37555" class="cls-4" d="M300.438,209.5l3.492-2.444a3.28,3.28,0,0,0-.582-3.026h0c-1.513-1.4-3.375-2.328-5.47-.931a7.266,7.266,0,0,0-2.677,5.354A4.059,4.059,0,0,1,300.438,209.5Z" transform="translate(-295.2 -202.406)"/>
            </g>
            <g id="Group_11073" data-name="Group 11073" transform="translate(0.087 7.95)">
              <path id="Path_37556" data-name="Path 37556" class="cls-4" d="M295.666,209.543c-.116.116-.349.233-.466.349a11.467,11.467,0,0,0,.233,1.979l2.793-1.979A2.024,2.024,0,0,0,295.666,209.543Z" transform="translate(-295.2 -209.237)"/>
            </g>
          </g>
          <g id="Group_11080" data-name="Group 11080" transform="translate(40.813 169.337)">
            <g id="Group_11075" data-name="Group 11075" transform="translate(10.534 3.841)">
              <path id="Path_37557" data-name="Path 37557" class="cls-11" d="M278.2,211.193h1.513a23.375,23.375,0,0,0-.116-2.793A3.771,3.771,0,0,1,278.2,211.193Z" transform="translate(-278.2 -208.4)"/>
            </g>
            <g id="Group_11076" data-name="Group 11076" transform="translate(0.989 2.793)">
              <path id="Path_37558" data-name="Path 37558" class="cls-11" d="M272.561,211.341h2.561a3.983,3.983,0,0,0-3.492-3.841A25.558,25.558,0,0,0,270,209.6h.582A2.04,2.04,0,0,1,272.561,211.341Z" transform="translate(-270 -207.5)"/>
            </g>
            <g id="Group_11077" data-name="Group 11077" transform="translate(0 6.518)">
              <path id="Path_37559" data-name="Path 37559" class="cls-11" d="M275.377,210.816h-6.052a1.256,1.256,0,0,0,0,1.28,1.433,1.433,0,0,0,1.164.582H279.1a2.065,2.065,0,0,0,2.1-1.979h-5.82Z" transform="translate(-269.15 -210.7)"/>
            </g>
            <g id="Group_11078" data-name="Group 11078" transform="translate(2.735 0)">
              <path id="Path_37560" data-name="Path 37560" class="cls-4" d="M274.992,211.734H279.3a3.771,3.771,0,0,0,1.4-2.793h0c-.349-1.979-1.4-3.841-3.841-3.841a7.409,7.409,0,0,0-5.354,2.793A4.08,4.08,0,0,1,274.992,211.734Z" transform="translate(-271.5 -205.1)"/>
            </g>
            <g id="Group_11079" data-name="Group 11079" transform="translate(0.175 4.888)">
              <path id="Path_37561" data-name="Path 37561" class="cls-4" d="M270.813,209.3h-.582a12.715,12.715,0,0,0-.931,1.746h3.492A2.231,2.231,0,0,0,270.813,209.3Z" transform="translate(-269.3 -209.3)"/>
            </g>
          </g>
        </g>
      </g>
    </g>
  </g>
</svg>
