<svg xmlns="http://www.w3.org/2000/svg" viewBox="0 0 354 432">
  <defs>
    <style>
      .cls-1 {
        fill: none;
      }

      .cls-2 {
        fill: #2b0b04;
      }

      .cls-3 {
        fill: #304a95;
      }

      .cls-4 {
        fill: #0e2b4a;
      }

      .cls-5 {
        fill: #f9cfb3;
      }

      .cls-6 {
        fill: #dba783;
      }

      .cls-7 {
        fill: #f7f9fd;
      }

      .cls-8 {
        fill: #e8b795;
      }

      .cls-9 {
        fill: #181d1f;
      }

      .cls-10 {
        fill: #31393d;
      }

      .cls-11 {
        fill: #a02b61;
      }

      .cls-12 {
        fill: #c9457b;
      }
    </style>
  </defs>
  <g id="Group_34644" data-name="Group 34644" transform="translate(-7802 -4728)">
    <g id="Group_34634" data-name="Group 34634">
      <rect id="Rectangle_1212" data-name="Rectangle 1212" class="cls-1" width="354" height="432" transform="translate(7802 4728)"/>
      <g id="Group_34626" data-name="Group 34626" transform="translate(7927 4802.5)">
        <g id="Group_10853" data-name="Group 10853">
          <g id="Group_10836" data-name="Group 10836" transform="translate(33.896 61.277)">
            <g id="Group_10815" data-name="Group 10815" transform="translate(7.524 85.323)">
              <g id="Group_10813" data-name="Group 10813">
                <path id="Path_37345" data-name="Path 37345" class="cls-2" d="M29.027,100.705A6.434,6.434,0,0,1,35.232,94.5h.155a6.358,6.358,0,0,1,6.205,6.36L39.266,211a.733.733,0,0,1-.776.776H27.476a1.176,1.176,0,0,1-.621-.31c-.155-.155-.155-.31-.155-.621Z" transform="translate(-26.7 -94.5)"/>
              </g>
              <g id="Group_10814" data-name="Group 10814" transform="translate(1.396 117.435)">
                <path id="Path_37346" data-name="Path 37346" class="cls-3" d="M37.063,175.009a4.667,4.667,0,0,1-4.654,4.654h-.155a4.7,4.7,0,0,1-4.654-4.809l.155-4.654h9.463Z" transform="translate(-27.6 -170.2)"/>
              </g>
            </g>
            <g id="Group_10816" data-name="Group 10816" transform="translate(0 204.309)">
              <path id="Path_37347" data-name="Path 37347" class="cls-4" d="M22.083,181.128a2.3,2.3,0,0,1,0-2.017A14.2,14.2,0,0,1,30.77,171.2c4.033,0,4.189,4.964,6.981,4.964a2.971,2.971,0,0,0,2.327-.931c.155-.155.31-.31.465-.155.155,0,.31.155.465.31a20.667,20.667,0,0,1,.776,2.947,3.744,3.744,0,0,1-.621,2.637,2.906,2.906,0,0,1-2.172,1.241H23.634A2.242,2.242,0,0,1,22.083,181.128Z" transform="translate(-21.85 -171.2)"/>
            </g>
            <g id="Group_10819" data-name="Group 10819" transform="translate(35.913 85.323)">
              <g id="Group_10817" data-name="Group 10817">
                <path id="Path_37348" data-name="Path 37348" class="cls-2" d="M51.205,94.5h0a6.258,6.258,0,0,1,6.36,6.205l2.327,110.454a.933.933,0,0,1-.155.62.806.806,0,0,1-.621.31H48.1a.733.733,0,0,1-.776-.776L45,101.171A6.535,6.535,0,0,1,51.205,94.5Z" transform="translate(-45 -94.5)"/>
              </g>
              <g id="Group_10818" data-name="Group 10818" transform="translate(3.878 117.435)">
                <path id="Path_37349" data-name="Path 37349" class="cls-3" d="M57.118,174.854a4.7,4.7,0,0,1-4.654,4.809h-.155a4.667,4.667,0,0,1-4.654-4.654L47.5,170.2h9.463Z" transform="translate(-47.5 -170.2)"/>
              </g>
            </g>
            <g id="Group_10820" data-name="Group 10820" transform="translate(38.355 204.309)">
              <path id="Path_37350" data-name="Path 37350" class="cls-4" d="M66.316,181.128a2.3,2.3,0,0,0,0-2.017,14.2,14.2,0,0,0-8.687-7.912c-4.033,0-4.189,4.964-6.981,4.964a2.971,2.971,0,0,1-2.327-.931c-.155-.155-.31-.31-.465-.155-.155,0-.31.155-.465.31a20.668,20.668,0,0,0-.776,2.947,3.744,3.744,0,0,0,.621,2.637,2.906,2.906,0,0,0,2.172,1.241h15.2A2.238,2.238,0,0,0,66.316,181.128Z" transform="translate(-46.574 -171.2)"/>
            </g>
            <g id="Group_10823" data-name="Group 10823" transform="translate(23.037)">
              <g id="Group_10821" data-name="Group 10821">
                <path id="Path_37351" data-name="Path 37351" class="cls-5" d="M42.905,65.562a6.224,6.224,0,0,0,6.205-6.205V45.705a6.205,6.205,0,1,0-12.411,0V59.357A6.224,6.224,0,0,0,42.905,65.562Z" transform="translate(-36.7 -39.5)"/>
              </g>
              <g id="Group_10822" data-name="Group 10822">
                <path id="Path_37352" data-name="Path 37352" class="cls-6" d="M42.905,39.5a6.224,6.224,0,0,1,6.205,6.205v3.568a16.134,16.134,0,0,1-12.411,0V45.705A6.224,6.224,0,0,1,42.905,39.5Z" transform="translate(-36.7 -39.5)"/>
              </g>
            </g>
            <g id="Group_10835" data-name="Group 10835" transform="translate(1.027 11.635)">
              <g id="Group_10824" data-name="Group 10824" transform="translate(11.771 75.394)">
                <path id="Path_37353" data-name="Path 37353" class="cls-2" d="M46.544,95.6c0,5.274,2.327,9.618,9.463,9.618H63.3c-.155.155-.155.155-.155.31-2.792,2.948-8.067,4.344-16.444,4.344s-13.5-1.4-16.444-4.344c-.155-.155-.155-.155-.155-.31h7.291C44.062,105.218,46.544,100.875,46.544,95.6Z" transform="translate(-30.1 -95.6)"/>
              </g>
              <g id="Group_10825" data-name="Group 10825" transform="translate(8.04 64.225)">
                <path id="Path_37354" data-name="Path 37354" class="cls-3" d="M35.3,88.4a1.2,1.2,0,0,1,1.241,1.086v1.862A4.439,4.439,0,0,1,32.2,95.691H27.7a20.358,20.358,0,0,1,.931-7.291H35.3Z" transform="translate(-27.695 -88.4)"/>
              </g>
              <g id="Group_10826" data-name="Group 10826" transform="translate(39.385 64.225)">
                <path id="Path_37355" data-name="Path 37355" class="cls-3" d="M47.9,91.348V89.486A1.06,1.06,0,0,1,48.986,88.4H55.5a20.358,20.358,0,0,1,.931,7.291h-4.5A4.284,4.284,0,0,1,47.9,91.348Z" transform="translate(-47.9 -88.4)"/>
              </g>
              <g id="Group_10827" data-name="Group 10827" transform="translate(28.06 0.465)">
                <path id="Path_37356" data-name="Path 37356" class="cls-7" d="M46.805,53.971l-1.551,1.706a1.185,1.185,0,0,1-.776.31.806.806,0,0,1-.621-.31l-.621-1.086-2.637-4.5c3.258,0,6.05-1.241,6.205-2.792v5.585C46.805,53.2,46.805,53.66,46.805,53.971Z" transform="translate(-40.6 -47.3)"/>
              </g>
              <g id="Group_10828" data-name="Group 10828" transform="translate(21.855 0.155)">
                <path id="Path_37357" data-name="Path 37357" class="cls-7" d="M39.548,55.632a.806.806,0,0,1-.621.31c-.31,0-.465-.155-.776-.31L36.6,53.926V47.1c0,1.551,2.792,2.948,6.205,2.948l-2.637,4.5Z" transform="translate(-36.6 -47.1)"/>
              </g>
              <g id="Group_10829" data-name="Group 10829" transform="translate(29.611 6.981)">
                <path id="Path_37358" data-name="Path 37358" class="cls-7" d="M41.6,54.758a2.993,2.993,0,0,1,.465-1.551l.776-1.086.621,1.086a.806.806,0,0,0,.621.31c.31,0,.465-.155.776-.31L46.409,51.5v4.964a72.917,72.917,0,0,1-3.1,18.306l-1.4-18.306Z" transform="translate(-41.6 -51.5)"/>
              </g>
              <g id="Group_10830" data-name="Group 10830" transform="translate(22.01 7.136)">
                <path id="Path_37359" data-name="Path 37359" class="cls-7" d="M36.7,53.617V51.6l1.551,1.706a1.185,1.185,0,0,0,.776.31.806.806,0,0,0,.621-.31l.621-1.086.776,1.086a2.621,2.621,0,0,1,.465,1.551l-.155,1.862-1.4,18.15a71.539,71.539,0,0,1-3.1-18.15A21.85,21.85,0,0,1,36.7,53.617Z" transform="translate(-36.7 -51.6)"/>
              </g>
              <g id="Group_10831" data-name="Group 10831" transform="translate(0 0.31)">
                <path id="Path_37360" data-name="Path 37360" class="cls-4" d="M24.2,51.7a12.837,12.837,0,0,1,8.532-3.878l6.36-.621h0l-1.241,3.568a1.14,1.14,0,0,0,.621,1.241l3.1,1.551-2.637.776a1.425,1.425,0,0,0-.931.621.989.989,0,0,0,0,.931l1.241,3.1,7.912,18.926a53.026,53.026,0,0,0,3.258,6.671l.155.31h0l.155-.31a53.025,53.025,0,0,0,3.258-6.671L61.9,58.99l1.241-3.1a.989.989,0,0,0,0-.931,1.047,1.047,0,0,0-.931-.621L59.57,53.56l3.1-1.551a.977.977,0,0,0,.621-1.241L62.052,47.2h0l6.36.621A11.884,11.884,0,0,1,76.945,51.7a5.9,5.9,0,0,1-.155,8.377h0a9.4,9.4,0,0,0-2.482,4.344c0,.155-.155.465-.155.621-1.551,6.671-3.1,12.721-4.5,18-.31,1.4-.776,2.792-1.086,4.189A40.788,40.788,0,0,0,69.5,110.8c0,.155,0,.155.155.31H63.138a1.06,1.06,0,0,0-1.086,1.086v1.862a4.439,4.439,0,0,0,4.344,4.344h4.5c0,.931-.155-.776,1.551,11.635,0,1.086-1.086,1.862-2.482,1.862H59.88c-6.981,0-9.463-4.344-9.463-9.618,0,5.274-2.327,9.618-9.463,9.618H31.181c-1.4,0-2.482-.776-2.482-1.862,1.706-12.411,1.551-10.7,1.551-11.635h4.5a4.439,4.439,0,0,0,4.344-4.344V112.2a1.106,1.106,0,0,0-1.241-1.086H31.336c0-.155,0-.155.155-.31a40.738,40.738,0,0,0,.931-23.58s-.776-2.637-1.086-4.189c-1.4-5.274-2.948-11.325-4.5-18,0-.155-.155-.465-.155-.621A7.684,7.684,0,0,0,24.2,60.076,6.042,6.042,0,0,1,24.2,51.7Z" transform="translate(-22.512 -47.2)"/>
              </g>
              <g id="Group_10832" data-name="Group 10832" transform="translate(15.283)">
                <path id="Path_37361" data-name="Path 37361" class="cls-3" d="M39.091,54.136V59.1a71.539,71.539,0,0,0,3.1,18.15,50.124,50.124,0,0,0,2.948,7.757l-.155-.31a53.025,53.025,0,0,1-3.258-6.671L33.816,59.1,32.575,56a.989.989,0,0,1,0-.931,1.047,1.047,0,0,1,.931-.621l2.637-.776-3.1-1.551a.977.977,0,0,1-.621-1.241l1.241-3.568a15.052,15.052,0,0,1,2.637-.155c.931,0,1.706-.155,2.637-.155v.155h0V52.9A3.856,3.856,0,0,1,39.091,54.136Z" transform="translate(-32.364 -47)"/>
              </g>
              <g id="Group_10833" data-name="Group 10833" transform="translate(28.215 0.155)">
                <path id="Path_37362" data-name="Path 37362" class="cls-3" d="M52.8,52.219l-3.1,1.551,2.637.776a1.424,1.424,0,0,1,.931.621.989.989,0,0,1,0,.931l-1.241,3.1L44.113,78.126A53.026,53.026,0,0,1,40.855,84.8l-.155.31a50.125,50.125,0,0,0,2.948-7.757,71.637,71.637,0,0,0,3.1-18.306V47.255h0V47.1h0c.931,0,1.862.155,2.637.155.931,0,1.706.155,2.637.155l1.241,3.568A.858.858,0,0,1,52.8,52.219Z" transform="translate(-40.7 -47.1)"/>
              </g>
              <g id="Group_10834" data-name="Group 10834" transform="translate(25.112 3.413)">
                <path id="Path_37363" data-name="Path 37363" class="cls-3" d="M43.509,54.63h0a2.621,2.621,0,0,0-.465,1.551h0l.155,1.862,1.4,18.306A50.127,50.127,0,0,1,41.648,84.1h0A50.128,50.128,0,0,1,38.7,76.348L40.1,58.2l.155-1.862h0a2.993,2.993,0,0,0-.465-1.551h0L39.01,53.7l2.637-4.5h0l2.637,4.5Z" transform="translate(-38.7 -49.2)"/>
              </g>
            </g>
          </g>
          <g id="Group_10847" data-name="Group 10847" transform="translate(43.457 21.718)">
            <g id="Group_10840" data-name="Group 10840" transform="translate(0 4.499)">
              <g id="Group_10837" data-name="Group 10837" transform="translate(0 19.829)">
                <path id="Path_37364" data-name="Path 37364" class="cls-8" d="M29.855,29.71c1.4-.31,3.1,2.017,3.568,5.119.621,3.1-.155,5.74-1.706,6.05-1.4.31-3.1-2.017-3.568-5.119C27.683,32.813,28.458,30.02,29.855,29.71Z" transform="translate(-28.013 -29.682)"/>
              </g>
              <g id="Group_10838" data-name="Group 10838" transform="translate(33.585 19.829)">
                <path id="Path_37365" data-name="Path 37365" class="cls-8" d="M53.444,29.71c-1.4-.31-3.1,2.017-3.568,5.119-.621,3.1.155,5.74,1.706,6.05,1.4.31,3.1-2.017,3.568-5.119C55.616,32.813,54.84,30.02,53.444,29.71Z" transform="translate(-49.662 -29.682)"/>
              </g>
              <g id="Group_10839" data-name="Group 10839" transform="translate(2.307)">
                <path id="Path_37366" data-name="Path 37366" class="cls-5" d="M46.875,16.9c13.962,0,17.375,9.773,17.375,21.874S56.493,60.647,46.875,60.647,29.5,50.874,29.5,38.774,32.913,16.9,46.875,16.9Z" transform="translate(-29.5 -16.9)"/>
              </g>
            </g>
            <g id="Group_10846" data-name="Group 10846" transform="translate(0.601)">
              <g id="Group_10841" data-name="Group 10841" transform="translate(26.619 6.337)">
                <path id="Path_37367" data-name="Path 37367" class="cls-9" d="M49.5,18.108c3.258-.31,8.067,2.482,8.067,9.308s-2.327,6.205-2.172,8.067c0,1.706.621,6.671-.776,10.084a.746.746,0,0,1-.931.31h0c-.31-.155-.31-.465-.31-.776a15.6,15.6,0,0,0,1.086-5.585c0-3.723-2.482-6.36-2.482-7.446s.776-2.017.776-2.482S51.517,28.5,50.9,27.726s-.465-5.119-4.189-5.585S49.5,18.108,49.5,18.108Z" transform="translate(-45.559 -18.085)"/>
              </g>
              <g id="Group_10842" data-name="Group 10842">
                <path id="Path_37368" data-name="Path 37368" class="cls-9" d="M34.3,18.5c4.5-2.172,5.74-4.5,11.48-4.5,9.463,0,14.738,3.723,14.427,6.671-.31,2.637-4.344,3.568-12.255,3.568-9.928,0-12.876,2.637-13.962,5.119-.776,1.706,0,2.017-.155,4.033-.155,2.327-1.862,2.327-2.482,4.654a13.967,13.967,0,0,0-.465,3.878,13.345,13.345,0,0,0,1.086,5.585.567.567,0,0,1-.31.776h0a.622.622,0,0,1-.931-.31c-1.241-2.948-.776-7.136-1.241-10.084A76.44,76.44,0,0,1,28.4,27.652,10.533,10.533,0,0,1,34.3,18.5Z" transform="translate(-28.4 -14)"/>
              </g>
              <g id="Group_10843" data-name="Group 10843" transform="translate(33.043 17.84)">
                <path id="Path_37369" data-name="Path 37369" class="cls-10" d="M49.7,28.137c0-1.086.776-2.017.776-2.482V25.5c.31.465,3.1,4.189,2.792,5.585v.465c0,1.706.621,6.671-.776,10.084a.746.746,0,0,1-.931.31h0c-.31-.155-.31-.465-.31-.776a15.6,15.6,0,0,0,1.086-5.585C52.182,31.86,49.7,29.223,49.7,28.137Z" transform="translate(-49.7 -25.5)"/>
              </g>
              <g id="Group_10844" data-name="Group 10844" transform="translate(0.621 16.599)">
                <path id="Path_37370" data-name="Path 37370" class="cls-10" d="M31.437,42.385h0a.622.622,0,0,1-.931-.31c-1.241-2.948-.776-7.136-1.241-10.084q-.233-1.629-.465-3.723c1.241-1.086,4.5-1.4,4.654-3.568a10.331,10.331,0,0,1,.155,2.482c-.155,2.327-1.862,2.327-2.482,4.654a18.241,18.241,0,0,0-.465,4.189,13.345,13.345,0,0,0,1.086,5.585C31.748,41.92,31.748,42.23,31.437,42.385Z" transform="translate(-28.8 -24.7)"/>
              </g>
              <g id="Group_10845" data-name="Group 10845" transform="translate(2.637 6.671)">
                <path id="Path_37371" data-name="Path 37371" class="cls-10" d="M59.265,18.3c0,2.327-5.119,6.981-11.945,6.981s-11.945-5.74-17.22-3.1a7.207,7.207,0,0,1,4.654-2.327,15.323,15.323,0,0,0-2.948-.31s6.205-2.172,15.358,1.862c0,0-2.482-2.017-4.344-2.172a14.487,14.487,0,0,1,6.516.465C52.749,20.627,58.024,20.472,59.265,18.3Z" transform="translate(-30.1 -18.3)"/>
              </g>
            </g>
          </g>
          <g id="Group_10852" data-name="Group 10852">
            <g id="Group_10848" data-name="Group 10848" transform="translate(0.007)">
              <path id="Path_37372" data-name="Path 37372" class="cls-5" d="M7.444,9.928a1.14,1.14,0,0,0,.931-.31.938.938,0,0,0,.465-.931l.465-7.6C9.15.465,9.771,0,10.546,0a1.267,1.267,0,0,1,1.241,1.4l-.155,3.258a57.509,57.509,0,0,0,.31,9c.155,1.086,0,2.482.155,3.878,0,4.344-2.482,7.912-5.9,8.067-3.258.155-6.05-3.258-6.05-7.446C0,15.513-1.244,8.843,7.444,9.928Z" transform="translate(-0.005)"/>
            </g>
            <g id="Group_10849" data-name="Group 10849" transform="translate(2.327 16.444)">
              <path id="Path_37373" data-name="Path 37373" class="cls-5" d="M8.636,14.168A3.511,3.511,0,0,0,5.068,10.6,3.511,3.511,0,0,0,1.5,14.168v4.809H8.636Z" transform="translate(-1.5 -10.6)"/>
            </g>
            <g id="Group_10850" data-name="Group 10850" transform="translate(0 27.458)">
              <path id="Path_37374" data-name="Path 37374" class="cls-4" d="M9.618,61.137l29.94,17.22a6.416,6.416,0,0,0,2.947.776,5.8,5.8,0,0,0,5.119-2.948,6.036,6.036,0,0,0-2.172-8.067L15.513,50.9a7.3,7.3,0,0,1-3.568-6.205V18.476a.733.733,0,0,0-.776-.776H.776A.733.733,0,0,0,0,18.476V44.693A19.037,19.037,0,0,0,9.618,61.137Z" transform="translate(0 -17.7)"/>
            </g>
            <g id="Group_10851" data-name="Group 10851" transform="translate(1.241 24.821)">
              <path id="Path_37375" data-name="Path 37375" class="cls-7" d="M9.022,18.637h1.241V16.776A.733.733,0,0,0,9.487,16H1.576a.733.733,0,0,0-.776.776v1.862H9.022Z" transform="translate(-0.8 -16)"/>
            </g>
          </g>
        </g>
        <g id="Group_10858" data-name="Group 10858" transform="translate(18.461 137.137)">
          <g id="Group_10856" data-name="Group 10856" transform="translate(3.878 1.706)">
            <g id="Group_10854" data-name="Group 10854" transform="translate(0 2.172)">
              <rect id="Rectangle_107" data-name="Rectangle 107" class="cls-3" width="76.79" height="135.43"/>
            </g>
            <g id="Group_10855" data-name="Group 10855">
              <rect id="Rectangle_108" data-name="Rectangle 108" class="cls-11" width="76.79" height="13.031"/>
            </g>
          </g>
          <g id="Group_10857" data-name="Group 10857">
            <path id="Path_37376" data-name="Path 37376" class="cls-12" d="M14.072,88.4h80.2a2.448,2.448,0,0,1,2.172,2.637v1.241a2.448,2.448,0,0,1-2.172,2.637h-80.2A2.448,2.448,0,0,1,11.9,92.278V91.037A2.355,2.355,0,0,1,14.072,88.4Z" transform="translate(-11.9 -88.4)"/>
          </g>
        </g>
        <g id="Group_10865" data-name="Group 10865" transform="translate(45.369 76.071)">
          <g id="Group_10861" data-name="Group 10861" transform="translate(0 50.213)">
            <g id="Group_10859" data-name="Group 10859" transform="translate(9.062 3.871)">
              <path id="Path_37377" data-name="Path 37377" class="cls-5" d="M37.589,85.3a3.582,3.582,0,0,0,2.172,6.826l4.654-1.551L42.243,83.9Z" transform="translate(-35.087 -83.9)"/>
            </g>
            <g id="Group_10860" data-name="Group 10860">
              <path id="Path_37378" data-name="Path 37378" class="cls-5" d="M29.8,85.741a1.508,1.508,0,0,0-.155,2.172,1.971,1.971,0,0,0,1.086.621c.155,0,.155,0,.31.155,0,.155.155.155.155.31a1.671,1.671,0,0,0,.31,1.241,1.97,1.97,0,0,0,1.086.621c.155,0,.155,0,.31.155,0,.155.155.155.155.31a1.671,1.671,0,0,0,.31,1.241,1.251,1.251,0,0,0,1.4.465c.155,0,.155,0,.31.155.155,0,.155.155.155.31a1.185,1.185,0,0,0,.31.776,1.508,1.508,0,0,0,2.172.155l.931-.776a.956.956,0,0,1,1.086-.155c2.172.621,4.033.465,5.119-.621,1.706-1.862.31-5.43-3.1-8.067C35.225,79.691,35.846,80.622,29.8,85.741Z" transform="translate(-29.245 -81.405)"/>
            </g>
          </g>
          <g id="Group_10864" data-name="Group 10864" transform="translate(16.16)">
            <g id="Group_10862" data-name="Group 10862" transform="translate(1.862)">
              <path id="Path_37379" data-name="Path 37379" class="cls-4" d="M78.928,86.056,68.379,53.168a5.937,5.937,0,1,0-11.325,3.568L67.6,89.624a1.575,1.575,0,0,1-1.086,2.017L41.386,99.708a.691.691,0,0,0-.465.931l.155.465.31,1.086,2.172,6.671.31,1.086.155.465a.691.691,0,0,0,.931.465l25.131-8.067A13.143,13.143,0,0,0,78.928,86.056Z" transform="translate(-40.863 -49.036)"/>
            </g>
            <g id="Group_10863" data-name="Group 10863" transform="translate(0 52.068)">
              <path id="Path_37380" data-name="Path 37380" class="cls-7" d="M42.2,83.686l-.31-1.086-1.706.465a.691.691,0,0,0-.465.931l.155.465,2.172,6.671.155.465a.691.691,0,0,0,.931.465l1.706-.621-.31-1.086Z" transform="translate(-39.663 -82.6)"/>
            </g>
          </g>
        </g>
      </g>
    </g>
  </g>
</svg>
