<svg xmlns="http://www.w3.org/2000/svg" viewBox="0 0 354 432">
  <defs>
    <style>
      .cls-1 {
        fill: rgba(255,255,255,0);
      }

      .cls-2 {
        fill: #2b0b04;
      }

      .cls-3 {
        fill: #304a95;
      }

      .cls-4 {
        fill: #f9cfb3;
      }

      .cls-5 {
        fill: #633b25;
      }

      .cls-6 {
        fill: #f7f9fd;
      }

      .cls-7 {
        fill: #2b3572;
      }

      .cls-8 {
        fill: #e4eaf2;
      }

      .cls-9 {
        fill: #c9457b;
      }

      .cls-10 {
        fill: #2a336e;
      }

      .cls-11 {
        fill: #0e2b4a;
      }

      .cls-12 {
        fill: #181d1f;
      }

      .cls-13 {
        fill: #a02b61;
      }

      .cls-14 {
        fill: #365eb3;
      }

      .cls-15 {
        fill: #ad7c5b;
      }

      .cls-16 {
        fill: #9e6d4c;
      }

      .cls-17 {
        fill: #dba783;
      }
    </style>
  </defs>
  <g id="Group_40362" data-name="Group 40362" transform="translate(-9171 -3440)">
    <rect id="Rectangle_1235" data-name="Rectangle 1235" class="cls-1" width="354" height="432" transform="translate(9171 3440)"/>
    <g id="Group_40361" data-name="Group 40361" transform="translate(9171.32 3532)">
      <g id="Group_39024" data-name="Group 39024" transform="translate(0.049)">
        <g id="Group_38946" data-name="Group 38946">
          <g id="Group_38909" data-name="Group 38909" transform="translate(19.848 149.816)">
            <g id="Group_38907" data-name="Group 38907" transform="translate(0.45)">
              <path id="Path_132623" data-name="Path 132623" class="cls-2" d="M18.082,215.456a.882.882,0,0,1-.465-.233.7.7,0,0,1-.116-.465C27.387,183.7,30.644,159.973,28.783,133.8a4.458,4.458,0,0,1,1.163-3.373A4.9,4.9,0,0,1,33.2,128.8h.931a4.6,4.6,0,0,1,4.071,4.3c1.977,26.986-1.279,51.412-11.166,83.05-.116.233-.349.465-.582.349l-.7-.116-7.1-.931Z" transform="translate(-17.5 -128.8)"/>
            </g>
            <g id="Group_38908" data-name="Group 38908" transform="translate(0 86.889)">
              <path id="Path_132624" data-name="Path 132624" class="cls-3" d="M24.077,208.851a3.684,3.684,0,0,1-3.838,2.443c-.233,0-.465-.116-.7-.116a3.382,3.382,0,0,1-2.21-4.42c.465-1.4.814-1.861,1.279-3.257l7.1.931C25.124,206.059,24.658,206.99,24.077,208.851Z" transform="translate(-17.113 -203.5)"/>
            </g>
          </g>
          <g id="Group_38912" data-name="Group 38912" transform="translate(48.283 149.809)">
            <g id="Group_38910" data-name="Group 38910">
              <path id="Path_132625" data-name="Path 132625" class="cls-2" d="M46.608,216.969a.464.464,0,0,1-.465-.233c-.116-.116-.233-.349-.116-.465,3.838-32.452,2.559-56.3-4.3-81.538a4.945,4.945,0,0,1,.465-3.606,4.727,4.727,0,0,1,2.908-2.21,2.561,2.561,0,0,1,.931-.116,4.763,4.763,0,0,1,4.885,3.49c7.1,26.171,8.491,50.714,4.653,83.632a.532.532,0,0,1-.582.465h-.7l-7.212.465Z" transform="translate(-41.559 -128.794)"/>
            </g>
            <g id="Group_38911" data-name="Group 38911" transform="translate(4.906 87.593)">
              <path id="Path_132626" data-name="Path 132626" class="cls-3" d="M52.783,208.985a3.474,3.474,0,0,1-3.257,3.024h-.7a3.462,3.462,0,0,1-3.024-3.955c.233-1.512.465-1.977.582-3.49L53.6,204.1C53.364,206.077,53.015,207.008,52.783,208.985Z" transform="translate(-45.777 -204.1)"/>
            </g>
          </g>
          <g id="Group_38915" data-name="Group 38915" transform="translate(35.415 78.974)">
            <g id="Group_38913" data-name="Group 38913" transform="translate(0 0)">
              <path id="Path_132627" data-name="Path 132627" class="cls-4" d="M36.2,94.188a4.714,4.714,0,0,0,3.606-4.3l.931-17.1a4.658,4.658,0,0,0-9.305-.465l-.931,17.1a4.673,4.673,0,0,0,4.42,4.885C35.27,94.3,35.735,94.188,36.2,94.188Z" transform="translate(-30.496 -67.896)"/>
            </g>
            <g id="Group_38914" data-name="Group 38914" transform="translate(0.47)">
              <path id="Path_132628" data-name="Path 132628" class="cls-5" d="M30.9,79.649l.349-7.328a4.658,4.658,0,0,1,9.305.465l-.465,9.887a19.77,19.77,0,0,1-5.351-1.279A22.848,22.848,0,0,1,30.9,79.649Z" transform="translate(-30.9 -67.896)"/>
            </g>
          </g>
          <g id="Group_38926" data-name="Group 38926" transform="translate(19.881 93.751)">
            <g id="Group_38916" data-name="Group 38916" transform="translate(14.84 57.112)">
              <path id="Path_132629" data-name="Path 132629" class="cls-2" d="M43.16,129.7c.233,3.955,1.861,7.1,6.048,6.863l1.977-.116c-1.977,2.443-5.583,3.722-11.166,4.071q-6.63.349-10.12-2.792l6.863-.349C41.881,137.028,43.393,133.655,43.16,129.7Z" transform="translate(-29.9 -129.7)"/>
            </g>
            <g id="Group_38917" data-name="Group 38917" transform="translate(10.653 49.318)">
              <path id="Path_132630" data-name="Path 132630" class="cls-2" d="M28.277,123.349h.233c.582,0,2.094-.116,5.816-.349a.9.9,0,0,1,.931.814l.116,1.4a3.161,3.161,0,0,1-3.024,3.373l-6.048.349a22.557,22.557,0,0,1,1.047-5.583h.931Z" transform="translate(-26.3 -123)"/>
            </g>
            <g id="Group_38918" data-name="Group 38918" transform="translate(16.003 0.465)">
              <path id="Path_132631" data-name="Path 132631" class="cls-6" d="M37.3,87.281v.233a.6.6,0,0,1-.233.465.354.354,0,0,1-.465,0l-1.977-.7c-.233-.349-.349-.814-.582-1.163a42.36,42.36,0,0,0-2.675-4.536A2.042,2.042,0,0,0,30.9,81a1.78,1.78,0,0,1,1.163.465,16.33,16.33,0,0,0,6.048,1.4Z" transform="translate(-30.9 -81)"/>
            </g>
            <g id="Group_38919" data-name="Group 38919" transform="translate(22.866 0)">
              <path id="Path_132632" data-name="Path 132632" class="cls-6" d="M40.871,86.067c0,.116.116.349.116.465h0l-.931.931a.888.888,0,0,1-.582.233c-.233,0-.349-.116-.465-.349l-.116-.116L36.8,83.043c1.279-.116,1.861-.582,2.094-1.163L39.01,80.6h.349l.349,1.047A27.4,27.4,0,0,1,40.871,86.067Z" transform="translate(-36.8 -80.6)"/>
            </g>
            <g id="Group_38920" data-name="Group 38920" transform="translate(24.756 5.7)">
              <path id="Path_132633" data-name="Path 132633" class="cls-6" d="M38.745,88.641c0-.116,0-.116-.116-.233h0v-.233c0-.116,0-.116-.116-.233h0a1.274,1.274,0,0,1,0-.931l.116-.233h0l.116-.582.116.116c.116.233.233.349.465.349a.64.64,0,0,0,.582-.233l.931-.931h0a27.169,27.169,0,0,1,.465,3.024,54.206,54.206,0,0,1,.233,12.213C40.373,95.271,39.21,90.618,38.745,88.641Z" transform="translate(-38.425 -85.5)"/>
            </g>
            <g id="Group_38921" data-name="Group 38921" transform="translate(19.493 6.746)">
              <path id="Path_132634" data-name="Path 132634" class="cls-6" d="M34.947,88.726c-.349-.814-.7-1.628-1.047-2.326l1.977.7c.116.116.349,0,.465,0a.6.6,0,0,0,.233-.465V86.4l.465.582h0l.233.233a1.321,1.321,0,0,1,.349.931h0v.465c.233,2.21.814,7.444,1.163,11.748A67.779,67.779,0,0,0,34.947,88.726Z" transform="translate(-33.9 -86.4)"/>
            </g>
            <g id="Group_38922" data-name="Group 38922">
              <path id="Path_132635" data-name="Path 132635" class="cls-3" d="M17.326,87.346A4.685,4.685,0,0,1,19.3,84.671,28.04,28.04,0,0,1,30.237,81.3l.116,1.047.465,3.722a.737.737,0,0,0,.582.7l1.861.7L32.8,87.7a.868.868,0,0,0-.233,1.4c.233.233.465.582.814.931,3.024,4.071,9.073,14.54,10.352,20.588v-.465c2.326-5.932,3.838-15.586,4.071-20.239a10.077,10.077,0,0,0-.116-2.094,1.02,1.02,0,0,0-.7-.814l-.582-.233.582-.582a.9.9,0,0,0,.233-.931,23.706,23.706,0,0,0-1.512-3.141,10.62,10.62,0,0,0-.931-1.512,24.784,24.784,0,0,1,9.305,2.094,4.767,4.767,0,0,1,2.326,2.443,4.257,4.257,0,0,1-.116,3.373l-.349.7a6.024,6.024,0,0,0-1.047,4.42,67.409,67.409,0,0,1-.233,18.029,44.5,44.5,0,0,0,.7,18.378s.7,5,2.21,12.795a1.518,1.518,0,0,1-1.4,1.512l-2.094.116h-.814l-1.977.116c-4.187.233-5.816-2.908-6.048-6.863.233,3.955-1.4,7.328-6.63,7.561l-6.863.349h-.814l-2.094.116a1.67,1.67,0,0,1-1.977-1.279l.7-8.258h0v-.465l6.048-.349a3.23,3.23,0,0,0,3.024-3.373l-.116-1.4a.9.9,0,0,0-.931-.814c-3.838.233-5.351.349-5.816.349H28.492c1.977-5.583,2.443-10.817-.582-16.633-.814-1.4-1.4-2.908-2.094-4.187-.465-1.047-1.047-2.094-1.512-3.024A34.489,34.489,0,0,1,20.7,95.954a6.612,6.612,0,0,0-2.326-4.187A10.487,10.487,0,0,1,17.326,90.6,7.665,7.665,0,0,1,17.326,87.346Z" transform="translate(-17.142 -80.6)"/>
            </g>
            <g id="Group_38923" data-name="Group 38923" transform="translate(13.212 0.349)">
              <path id="Path_132636" data-name="Path 132636" class="cls-2" d="M34.2,86.134c.233.349.349.814.582,1.163.349.814.7,1.512,1.047,2.326a80.971,80.971,0,0,1,3.955,11.632h0c1.279,4.885,1.977,8.491,1.977,8.491v.233h0v.465C40.6,104.4,34.432,93.927,31.408,89.856a6.648,6.648,0,0,0-.814-.931.981.981,0,0,1-.233-.814,1.161,1.161,0,0,1,.465-.582l.465-.233-1.861-.7c-.349-.116-.465-.349-.582-.7l-.233-3.722L28.5,81.133c.349,0,.7-.116,1.047-.116l1.628-.116a2.042,2.042,0,0,0,.465.582C32.571,82.994,33.385,84.506,34.2,86.134Z" transform="translate(-28.5 -80.9)"/>
            </g>
            <g id="Group_38924" data-name="Group 38924" transform="translate(25.425 0)">
              <path id="Path_132637" data-name="Path 132637" class="cls-2" d="M43.536,85.253a.729.729,0,0,1-.233.931l-.582.582L43.3,87a1.23,1.23,0,0,1,.7.814,10.077,10.077,0,0,1,.116,2.094,74.294,74.294,0,0,1-4.071,20.239h0a57.623,57.623,0,0,0,1.279-8.375,54.1,54.1,0,0,0-.233-12.213c-.116-.931-.349-1.977-.465-3.024,0-.116-.116-.349-.116-.465-.349-1.512-.7-2.908-1.163-4.42L39,80.6h1.977a10.619,10.619,0,0,1,.931,1.512A16.367,16.367,0,0,1,43.536,85.253Z" transform="translate(-39 -80.6)"/>
            </g>
            <g id="Group_38925" data-name="Group 38925" transform="translate(22.401 2.675)">
              <path id="Path_132638" data-name="Path 132638" class="cls-3" d="M39.075,86.738l-.116.582h0l-.116.233a1.274,1.274,0,0,0,0,.931h0c0,.116,0,.116.116.233v.233h0c0,.116,0,.116.116.233.465,1.977,1.745,6.63,2.792,12.33a79.633,79.633,0,0,1-1.279,8.375v-.233a81.645,81.645,0,0,0-1.977-8.491h0c-.349-4.42-.814-9.654-1.163-11.748v-.465h0a1.321,1.321,0,0,0-.349-.931l-.233-.233h0L36.4,87.2l.7-4.3Z" transform="translate(-36.4 -82.9)"/>
            </g>
          </g>
          <g id="Group_38931" data-name="Group 38931" transform="translate(0 97.152)">
            <g id="Group_38927" data-name="Group 38927" transform="translate(24.735 38.714)">
              <path id="Path_132639" data-name="Path 132639" class="cls-4" d="M32.115,124.243c-2.094,4.653-4.187,2.908-7.1,1.4-2.908-1.4-4.42-4.42-3.373-6.63s4.187-2.908,7.1-1.4C31.65,119.009,34.209,119.59,32.115,124.243Z" transform="translate(-21.315 -116.807)"/>
            </g>
            <g id="Group_38928" data-name="Group 38928" transform="translate(24.486 38.473)">
              <path id="Path_132640" data-name="Path 132640" class="cls-4" d="M26.916,118.461A2.633,2.633,0,1,1,24.241,123L21.1,121.136l2.675-4.536Z" transform="translate(-21.1 -116.6)"/>
            </g>
            <g id="Group_38929" data-name="Group 38929">
              <path id="Path_132641" data-name="Path 132641" class="cls-3" d="M.108,110.249a9,9,0,0,1,1.163-5.467,5.15,5.15,0,0,1,1.4-1.745L21.278,84.776a4.425,4.425,0,0,1,6.281.116,4.567,4.567,0,0,1,.7,5.351,6.453,6.453,0,0,1-.7.931L8.948,109.2l16.866,10a.667.667,0,0,1,.233.814l-.116.233-.465.814L22.79,125.6l-.465.814-.116.233a.667.667,0,0,1-.814.233L4.179,116.646A8.38,8.38,0,0,1,.108,110.249Z" transform="translate(-0.049 -83.524)"/>
            </g>
            <g id="Group_38930" data-name="Group 38930" transform="translate(22.392 36.612)">
              <path id="Path_132642" data-name="Path 132642" class="cls-6" d="M22.324,115.814,22.79,115l1.163.7a.667.667,0,0,1,.233.814l-.116.233-2.675,4.536-.116.233a.667.667,0,0,1-.814.233l-1.163-.7.465-.814Z" transform="translate(-19.3 -115)"/>
            </g>
          </g>
          <g id="Group_38932" data-name="Group 38932" transform="translate(51.498 238.637)">
            <path id="Path_132643" data-name="Path 132643" class="cls-7" d="M45.576,207.882a.438.438,0,0,1,.7-.116,3.084,3.084,0,0,1,.7.582c.814.7,1.047.7,2.559.7,1.279,0,1.977-2.675,3.606-3.606a1.615,1.615,0,0,1,1.279-.233,13.424,13.424,0,0,1,9.305,6.048,1.43,1.43,0,0,1-.116,1.512,1.988,1.988,0,0,1-1.512.814H47.2a3.178,3.178,0,0,1-2.21-.931,1.89,1.89,0,0,1-.582-1.977A11,11,0,0,1,45.576,207.882Z" transform="translate(-44.323 -205.161)"/>
          </g>
          <g id="Group_38933" data-name="Group 38933" transform="translate(18.977 239.031)">
            <path id="Path_132644" data-name="Path 132644" class="cls-7" d="M17.1,207.943l.116-.116a.114.114,0,0,1,.116.116,1.234,1.234,0,0,0,1.4,1.047c1.628,0,1.047-3.49,6.281-3.49a10.993,10.993,0,0,1,6.048,5.816,1.725,1.725,0,0,1,0,1.512,1.4,1.4,0,0,1-1.163.814H18.5a1.856,1.856,0,0,1-1.628-.931,2.432,2.432,0,0,1-.465-1.977A5.845,5.845,0,0,1,17.1,207.943Z" transform="translate(-16.364 -205.5)"/>
          </g>
          <g id="Group_38934" data-name="Group 38934" transform="translate(83.924 74.094)">
            <path id="Path_132645" data-name="Path 132645" class="cls-4" d="M72.2,66.375a2.675,2.675,0,0,1,5.351,0V70.1H72.2V66.375Z" transform="translate(-72.2 -63.7)"/>
          </g>
          <g id="Group_38937" data-name="Group 38937" transform="translate(51.572 80.375)">
            <g id="Group_38935" data-name="Group 38935" transform="translate(0 1.861)">
              <path id="Path_132646" data-name="Path 132646" class="cls-3" d="M80.344,98.151A8.587,8.587,0,0,1,75.11,99.9a7.3,7.3,0,0,1-2.21-.349L47.659,92.8a4.488,4.488,0,0,1-3.141-5.467,4.367,4.367,0,0,1,4.3-3.257,3.957,3.957,0,0,1,1.163.116l24.892,6.746V71.282a.549.549,0,0,1,.582-.582h7.91a.549.549,0,0,1,.582.582v19.89A9.812,9.812,0,0,1,80.344,98.151Z" transform="translate(-44.387 -70.7)"/>
            </g>
            <g id="Group_38936" data-name="Group 38936" transform="translate(31.421)">
              <path id="Path_132647" data-name="Path 132647" class="cls-6" d="M72.331,71.077H71.4v-1.4a.549.549,0,0,1,.582-.582H78.03a.549.549,0,0,1,.582.582v1.4H72.331Z" transform="translate(-71.4 -69.1)"/>
            </g>
          </g>
          <g id="Group_38938" data-name="Group 38938" transform="translate(80.202)">
            <path id="Path_132648" data-name="Path 132648" class="cls-2" d="M70.861,195.18a1.789,1.789,0,0,0,1.745-1.745V1.745A1.789,1.789,0,0,0,70.861,0,1.815,1.815,0,0,0,69,1.745V193.319A1.837,1.837,0,0,0,70.861,195.18Z" transform="translate(-69)"/>
          </g>
          <g id="Group_38939" data-name="Group 38939" transform="translate(37.397 5.7)">
            <path id="Path_132649" data-name="Path 132649" class="cls-8" d="M34.875,4.9h83.748A2.632,2.632,0,0,1,121.3,7.575V58.755a2.632,2.632,0,0,1-2.675,2.675H34.875A2.632,2.632,0,0,1,32.2,58.755V7.575A2.632,2.632,0,0,1,34.875,4.9Z" transform="translate(-32.2 -4.9)"/>
          </g>
          <g id="Group_38940" data-name="Group 38940" transform="translate(47.582 21.519)">
            <path id="Path_132650" data-name="Path 132650" class="cls-3" d="M48.219,32.574l3.373-13.144a1.571,1.571,0,0,1,1.4-.931h1.163a1.315,1.315,0,0,1,1.4,1.512l-5.467,20.7a1.4,1.4,0,0,1-1.4.931H47.87a1.571,1.571,0,0,1-1.4-.931l-5.467-20.7c-.233-.814.349-1.512,1.4-1.512H43.45a1.724,1.724,0,0,1,1.4.931Z" transform="translate(-40.956 -18.5)"/>
            <path id="Path_132651" data-name="Path 132651" class="cls-3" d="M56.9,25.246c0-4.3,2.094-6.746,6.281-6.746s6.281,2.326,6.281,6.746v9.771c0,2.675-.814,4.3-1.977,5.351a6.8,6.8,0,0,1-4.3,1.4,6.178,6.178,0,0,1-4.3-1.4c-1.163-1.047-1.977-2.675-1.977-5.351Zm3.838,9.771c0,2.326.814,3.373,2.443,3.373s2.443-1.047,2.443-3.373V25.246c0-2.326-.814-3.257-2.443-3.257s-2.443,1.047-2.443,3.257v9.771Z" transform="translate(-38.355 -18.5)"/>
            <path id="Path_132652" data-name="Path 132652" class="cls-3" d="M71.516,19.779a1.32,1.32,0,0,1,1.4-1.279h10a1.32,1.32,0,0,1,1.4,1.279v.931a1.32,1.32,0,0,1-1.4,1.279H79.775V40.484a1.32,1.32,0,0,1-1.4,1.279H77.332a1.32,1.32,0,0,1-1.4-1.279V21.99H72.8a1.32,1.32,0,0,1-1.4-1.279v-.931Z" transform="translate(-35.989 -18.5)"/>
            <path id="Path_132653" data-name="Path 132653" class="cls-3" d="M96.254,18.5a1.32,1.32,0,0,1,1.4,1.279v.931a1.32,1.32,0,0,1-1.4,1.279H90.438v6.4h4.769a1.32,1.32,0,0,1,1.4,1.279V30.6a1.32,1.32,0,0,1-1.4,1.279H90.438V38.39h5.816a1.32,1.32,0,0,1,1.4,1.279V40.6a1.32,1.32,0,0,1-1.4,1.279H88A1.32,1.32,0,0,1,86.6,40.6V19.779A1.32,1.32,0,0,1,88,18.5Z" transform="translate(-33.509 -18.5)"/>
          </g>
          <g id="Group_38941" data-name="Group 38941" transform="translate(78.224 68.932)">
            <path id="Path_132654" data-name="Path 132654" class="cls-4" d="M68.463,59.655A1.246,1.246,0,0,0,67.3,60.818a1.321,1.321,0,0,0,.349.931c.116,0,.116.116.116.233s0,.116-.116.233a1.415,1.415,0,0,0,0,1.861c.116,0,.116.116.116.233s0,.116-.116.233a1.257,1.257,0,0,0-.349.814,1.222,1.222,0,0,0,.582,1.047c.116,0,.116.116.116.233v.233a1.653,1.653,0,0,0-.233.7,1.166,1.166,0,0,0,1.163,1.163l3.257-.349a.7.7,0,0,1,.7.349c.931,1.4,2.094,2.21,3.257,2.094,1.861-.233,2.792-2.908,2.094-6.165C76.954,58.492,74.628,58.957,68.463,59.655Z" transform="translate(-67.3 -59.262)"/>
          </g>
          <g id="Group_38945" data-name="Group 38945" transform="translate(25.858 58.042)">
            <g id="Group_38942" data-name="Group 38942" transform="translate(0.698 0.769)">
              <path id="Path_132655" data-name="Path 132655" class="cls-4" d="M22.9,64.564c-.465-7.212,5.816-13.493,13.958-13.958a12.563,12.563,0,0,1,3.606.233,14.568,14.568,0,0,1,9.073,5.118,11.588,11.588,0,0,1,2.326,4.42c.7,1.977.582,4.071.814,6.281a50.729,50.729,0,0,1,.349,5.932,12.717,12.717,0,0,1-4.885,9.073c-3.373,2.443-8.026,1.745-11.632.349a23.014,23.014,0,0,1-9.305-6.4A18.929,18.929,0,0,1,22.9,65.03C22.9,64.913,22.9,64.8,22.9,64.564Z" transform="translate(-22.879 -50.561)"/>
            </g>
            <g id="Group_38943" data-name="Group 38943">
              <path id="Path_132656" data-name="Path 132656" class="cls-2" d="M22.3,64.789v.349a17.612,17.612,0,0,0,.814,4.3h0c1.628,4.071,3.024,4.536,3.024,4.536s-1.977-3.024-1.628-5.7c.349-2.21,1.512-2.792,2.675-2.908h0c.116,0,1.512.116,2.326,2.21s1.047,5.118,1.279,7.91c0,0-.349,4.769,3.49,6.979h0c.349.116.582.349.931.465h0c.349.116.7.349,1.047.465,3.838,1.4,8.607,2.21,12.213-.349A13.152,13.152,0,0,0,53.593,73.4a58.948,58.948,0,0,0-.349-6.4c-.116-1.4-.116-2.675-.233-3.955-.582-4.536-1.861-8.258-4.885-10.585-.465-.349-.931-.582-1.4-.931h0A16.111,16.111,0,0,0,39.867,49.9H36.494l-6.048.349c-.116,0-.116,0-.233.116V50.6a1.606,1.606,0,0,1,.349.465c0,.116.116.116,0,.233a.114.114,0,0,1-.116.116C25.444,53.971,21.954,59.089,22.3,64.789Zm8.724.931a2.958,2.958,0,0,1,.465-1.977A5.893,5.893,0,0,0,32.307,62c.233-1.4,0-2.908.233-4.3A4.326,4.326,0,0,1,33.7,55.134a.9.9,0,0,1,1.163-.116,9.419,9.419,0,0,0,5.467,1.512A10.938,10.938,0,0,0,46.614,54.2a.868.868,0,0,1,1.047,0A8.944,8.944,0,0,1,49.754,56.3a12.116,12.116,0,0,1,1.163,2.094,16.855,16.855,0,0,1,1.4,4.071,17.178,17.178,0,0,1,.116,2.443c.116,1.861.349,3.722.349,5.467a12.083,12.083,0,0,1-.814,4.071,9.273,9.273,0,0,1-.931,1.861,8.253,8.253,0,0,1-6.4,3.838c-3.955.233-6.863-.7-9.073-2.792a10.488,10.488,0,0,1-1.047-1.163C32.656,73.745,31.492,70.372,31.027,65.719Z" transform="translate(-22.279 -49.9)"/>
            </g>
            <g id="Group_38944" data-name="Group 38944" transform="translate(12.337 21.996)">
              <path id="Path_132657" data-name="Path 132657" class="cls-2" d="M36.275,70.078a28.55,28.55,0,0,1,3.373-.931c.7-.116,2.21-.465,2.792,0,.465-.465,1.745-.349,2.21-.233a18.282,18.282,0,0,1,2.675.465,4.706,4.706,0,0,1,2.908,1.861,1.681,1.681,0,0,1,.233.814v1.163c0,.116-.116.116-.116.233h-.233c-.116-.116-.349-.116-.7-.233a10.077,10.077,0,0,0-2.094-.116,5.264,5.264,0,0,1-4.653-2.559c-.814,1.861-3.49,3.024-5.467,3.141a10.762,10.762,0,0,0-3.257.582c-.116,0-.233.116-.349.116s-.233.116-.349,0a.25.25,0,0,1-.233-.233,2.918,2.918,0,0,1-.116-1.163h0C32.67,71.474,35,70.543,36.275,70.078Z" transform="translate(-32.886 -68.811)"/>
            </g>
          </g>
        </g>
        <g id="Group_39023" data-name="Group 39023" transform="translate(91.847 67.58)">
          <g id="Group_38947" data-name="Group 38947" transform="translate(36.958 35.261)">
            <path id="Path_132658" data-name="Path 132658" class="cls-5" d="M124.528,115.616a5.442,5.442,0,0,0,1.977.233,4.88,4.88,0,0,0,4.3-3.373l6.863-21.053a2.318,2.318,0,0,0-4.42-1.4l-6.863,21.053c0,.116-.116.233-.349.233-.116,0-.233-.116-.349-.233L115.223,90.724a2.341,2.341,0,1,0-4.187,2.094L121.5,113.173A6.056,6.056,0,0,0,124.528,115.616Z" transform="translate(-110.785 -88.414)"/>
          </g>
          <g id="Group_38949" data-name="Group 38949" transform="translate(35.915 35.324)">
            <g id="Group_38948" data-name="Group 38948">
              <path id="Path_132659" data-name="Path 132659" class="cls-9" d="M126.651,117.119a5.142,5.142,0,0,1-2.326-.233,6.135,6.135,0,0,1-3.606-3.024L110.251,93.507a3.474,3.474,0,0,1,1.512-4.653,3.539,3.539,0,0,1,2.675-.233,2.977,2.977,0,0,1,1.977,1.745l9.538,18.727L130.49,94.9c.116-.233.233-.349.465-.233.116,0,.116,0,.233.116,3.606,1.163,1.861.582,5.467,1.745.116,0,.116,0,.233.116.233.116.349.233.233.465L132,113.164A6.447,6.447,0,0,1,126.651,117.119Z" transform="translate(-109.889 -88.469)"/>
            </g>
          </g>
          <g id="Group_38960" data-name="Group 38960" transform="translate(58.324 21.938)">
            <g id="Group_38950" data-name="Group 38950" transform="translate(0 10.194)">
              <path id="Path_132660" data-name="Path 132660" class="cls-5" d="M133.976,85.812a5.635,5.635,0,0,1,1.977,0l2.326.349a.885.885,0,0,1,.7.931v.582c.116.116.233.233.349.233h0a.884.884,0,0,1,.7.931.871.871,0,0,1-.814.7h-.116c-.116,0-.116,0-.116.116v.116a.7.7,0,0,1,.116.465.884.884,0,0,1-.931.7c-.116,0-.116,0-.116.116v.233c0,.116.116.233,0,.349a.875.875,0,0,1-.814.582l-1.628-.349a1.049,1.049,0,0,0-.582.116c-.233.116-.233.349-.349.465-.233,1.977-1.279,3.49-2.443,3.606-1.512.233-2.908-1.861-3.024-4.536C128.975,86.394,129.324,86.743,133.976,85.812Z" transform="translate(-129.154 -85.725)"/>
            </g>
            <g id="Group_38958" data-name="Group 38958" transform="translate(2.103)">
              <g id="Group_38951" data-name="Group 38951" transform="translate(5.162 17.842)">
                <path id="Path_132661" data-name="Path 132661" class="cls-10" d="M135.749,93.114h0c-.116.116-.116.116-.116,0l-.233-.7.349-.116Z" transform="translate(-135.4 -92.3)"/>
              </g>
              <g id="Group_38952" data-name="Group 38952" transform="translate(2.021 7.141)">
                <path id="Path_132662" data-name="Path 132662" class="cls-11" d="M134.91,84.845c.116.582.233,1.047.349,1.628a7.853,7.853,0,0,1,.233,1.628c.116.465.116,1.047.233,1.512s.116.931.233,1.279a17.37,17.37,0,0,1,.233,1.977v.465l-.814.233c0-.116-.116-.233-.116-.465-.116-.465-.349-1.163-.582-1.977-.116-.349-.233-.814-.349-1.279l-.349-1.4a7.526,7.526,0,0,0-.465-1.512c-.116-.582-.233-1.047-.349-1.628a9.692,9.692,0,0,0-.465-1.745l1.861-.465Q134.736,83.8,134.91,84.845Z" transform="translate(-132.7 -83.1)"/>
              </g>
              <g id="Group_38953" data-name="Group 38953" transform="translate(1.905 6.327)">
                <path id="Path_132663" data-name="Path 132663" class="cls-3" d="M134.577,83.1l-1.861.465c0-.233-.116-.465-.116-.7l1.861-.465A1.475,1.475,0,0,0,134.577,83.1Z" transform="translate(-132.6 -82.4)"/>
              </g>
              <g id="Group_38954" data-name="Group 38954" transform="translate(0.858)">
                <path id="Path_132664" data-name="Path 132664" class="cls-3" d="M131.7,77.472c0-.233.116-.465.349-.465a.559.559,0,0,1,.7.233l.116.116-1.047.233Z" transform="translate(-131.7 -76.961)"/>
              </g>
              <g id="Group_38955" data-name="Group 38955" transform="translate(0 0.744)">
                <path id="Path_132665" data-name="Path 132665" class="cls-3" d="M131.7,83.3a.25.25,0,0,0,.233-.233V82.6L131.006,79a.938.938,0,0,1,.349-1.047l.349-.233.116-.116h.233v.233l-.349.233-.233.116a.559.559,0,0,0-.233.7l.931,3.606v.582a.908.908,0,0,1-.465.465c-.116,0-.233,0-.233-.116A.406.406,0,0,0,131.7,83.3Z" transform="translate(-130.962 -77.6)"/>
              </g>
              <g id="Group_38956" data-name="Group 38956" transform="translate(0.974 0.395)">
                <path id="Path_132666" data-name="Path 132666" class="cls-6" d="M132.149,77.649c0-.116-.116-.116-.233,0l-.116.116v-.233l1.047-.233a1.966,1.966,0,0,0,.233.582c.116.465.349,1.163.582,1.977.116.349.233.814.349,1.279s.233.931.349,1.512c0,.233.116.465.116.7l-1.861.465c0-.233-.116-.465-.116-.7a6.807,6.807,0,0,1-.233-1.512c-.116-.465-.116-.931-.233-1.279a17.363,17.363,0,0,1-.233-1.977l.349-.233Z" transform="translate(-131.8 -77.3)"/>
              </g>
              <g id="Group_38957" data-name="Group 38957" transform="translate(4.813 17.377)">
                <path id="Path_132667" data-name="Path 132667" class="cls-6" d="M135.8,92.482h0l-.349.116h0a.25.25,0,0,1-.233-.233.36.36,0,0,0-.116-.233l.814-.233v.233C135.914,92.249,135.8,92.365,135.8,92.482Z" transform="translate(-135.1 -91.9)"/>
              </g>
            </g>
            <g id="Group_38959" data-name="Group 38959" transform="translate(0.519 10.63)">
              <path id="Path_132668" data-name="Path 132668" class="cls-5" d="M137.044,87.728a.64.64,0,0,0,.349-.582.987.987,0,0,0-.814-.931l-1.163-.116a6.441,6.441,0,0,0-2.094.233l-1.4.465a3,3,0,0,0-2.094,2.559l-.233,1.977c0,.465.233.931.7.931s.931-.233.931-.7l.233-1.977a1.6,1.6,0,0,1,.931-1.163l1.4-.465a5.838,5.838,0,0,1,1.4-.233l1.163.116A.652.652,0,0,0,137.044,87.728Z" transform="translate(-129.6 -86.1)"/>
            </g>
          </g>
          <g id="Group_38966" data-name="Group 38966" transform="translate(13.216 82.236)">
            <g id="Group_38961" data-name="Group 38961" transform="translate(2.491)">
              <path id="Path_132669" data-name="Path 132669" class="cls-5" d="M116.11,129.149a3.04,3.04,0,0,1,1.628,2.675l.582,34.43a46.817,46.817,0,0,1-5.816,23.38L98.313,215.34a3.073,3.073,0,0,1-5.351-3.024l14.191-25.706a41.108,41.108,0,0,0,5-20.239l-.582-34.43A3.031,3.031,0,0,1,114.6,128.8,3.581,3.581,0,0,1,116.11,129.149Z" transform="translate(-92.515 -128.8)"/>
            </g>
            <g id="Group_38965" data-name="Group 38965" transform="translate(0 81.028)">
              <g id="Group_38962" data-name="Group 38962" transform="translate(0.031 6.791)">
                <path id="Path_132670" data-name="Path 132670" class="cls-11" d="M92.028,208.371c-.116.116-.233.233-.465.116l-.931-.465c-.233-.116-.233-.233-.233-.465.116-.465.349-1.512.7-3.257a14.4,14.4,0,0,0,2.094,1.628Z" transform="translate(-90.4 -204.3)"/>
              </g>
              <g id="Group_38963" data-name="Group 38963" transform="translate(0 1.673)">
                <path id="Path_132671" data-name="Path 132671" class="cls-11" d="M92.149,199.9h0c1.279.7.7,2.21,1.512,3.024a10.969,10.969,0,0,0,1.163,1.163,63.735,63.735,0,0,1,4.653,5.118,2.993,2.993,0,0,0,1.977,1.163,6.668,6.668,0,0,1,1.628.465,2.543,2.543,0,0,0,.582.349.955.955,0,0,1,.582.582,1.909,1.909,0,0,1-2.326,2.675l-2.559-1.28c-1.4-.7-2.443-2.443-3.49-3.606-.7-.814-1.279-1.512-1.977-2.21a3.084,3.084,0,0,0-.7-.582,9.241,9.241,0,0,1-2.094-1.628,2.629,2.629,0,0,1-.7-1.512,4.2,4.2,0,0,1,.349-1.977A5.15,5.15,0,0,1,92.149,199.9Z" transform="translate(-90.373 -199.9)"/>
              </g>
              <g id="Group_38964" data-name="Group 38964" transform="translate(1.776)">
                <path id="Path_132672" data-name="Path 132672" class="cls-5" d="M101.205,210.6a2.993,2.993,0,0,1-1.977-1.163,63.734,63.734,0,0,0-4.653-5.118,10.968,10.968,0,0,0-1.163-1.163c-.814-.931-.349-2.326-1.512-3.024a4,4,0,0,1,3.955-1.628,5.407,5.407,0,0,1,2.675,1.047,11.048,11.048,0,0,1,3.606,4.42,13.523,13.523,0,0,1,1.279,7.444h0a2.544,2.544,0,0,1-.582-.349A6.668,6.668,0,0,0,101.205,210.6Z" transform="translate(-91.9 -198.462)"/>
              </g>
            </g>
          </g>
          <g id="Group_38972" data-name="Group 38972" transform="translate(19.268 82.09)">
            <g id="Group_38967" data-name="Group 38967">
              <path id="Path_132673" data-name="Path 132673" class="cls-5" d="M98.279,128.7a3.056,3.056,0,0,1,3.489,2.675l11.05,86.423a3.109,3.109,0,1,1-6.165.814L95.6,132.194A3.138,3.138,0,0,1,98.279,128.7Z" transform="translate(-95.576 -128.675)"/>
            </g>
            <g id="Group_38971" data-name="Group 38971" transform="translate(9.551 85.173)">
              <g id="Group_38968" data-name="Group 38968" transform="translate(1.411 8.607)">
                <path id="Path_132674" data-name="Path 132674" class="cls-11" d="M105.582,209.533h0c-.233-.116-.349-.116-.582-.233.582,1.861.931,2.908,1.047,3.373a.371.371,0,0,0,.349.349h1.512a.308.308,0,0,0,.349-.349v-.7A5.368,5.368,0,0,0,105.582,209.533Z" transform="translate(-105 -209.3)"/>
              </g>
              <g id="Group_38969" data-name="Group 38969" transform="translate(0 4.42)">
                <path id="Path_132675" data-name="Path 132675" class="cls-11" d="M115.666,210.12c-.116,0-.116-.116-.233-.116a5.947,5.947,0,0,0-3.49,0,4.811,4.811,0,0,1-2.21.582,3.451,3.451,0,0,1-1.279-.465c-.116,0-.233-.116-.349-.233a10.225,10.225,0,0,1-1.163-.7c-.465-.349-1.047-.814-1.512-1.163s-1.279-.931-1.4-1.628v-.116a5.037,5.037,0,0,0-.116-.582c0,.233-.116,1.163-.116,1.512A3.09,3.09,0,0,0,105.082,210a.882.882,0,0,0,.465.233h0a5.11,5.11,0,0,1,2.675,2.326c.116.116.116.233.233.349a1.658,1.658,0,0,0,1.4.7h4.769a1.815,1.815,0,0,0,1.745-1.861A1.3,1.3,0,0,0,115.666,210.12Z" transform="translate(-103.787 -205.7)"/>
              </g>
              <g id="Group_38970" data-name="Group 38970" transform="translate(0.335)">
                <path id="Path_132676" data-name="Path 132676" class="cls-5" d="M105.5,208.53c.465.349,1.047.814,1.512,1.163a10.233,10.233,0,0,0,1.163.7c.116.116.233.116.349.233a3.451,3.451,0,0,0,1.279.465c.814.116,1.4-.349,2.21-.582a5.947,5.947,0,0,1,3.49,0v-.116c0-.116,0-.233-.116-.233-.931-3.257-3.49-8.258-7.561-8.258-2.792,0-3.955,3.49-3.722,4.885v.116A3.868,3.868,0,0,0,105.5,208.53Z" transform="translate(-104.075 -201.9)"/>
              </g>
            </g>
          </g>
          <g id="Group_38973" data-name="Group 38973" transform="translate(14.942 34.486)">
            <path id="Path_132677" data-name="Path 132677" class="cls-5" d="M96.909,106.652q-.7-1.57-1.4-3.49a20.717,20.717,0,0,1-1.279-6.4,3.2,3.2,0,0,0-1.4-2.559,2.245,2.245,0,0,1-.582-3.141,5.3,5.3,0,0,1,4.071-2.443c9.771-1.279,10.7-1.047,18.262,0a5.3,5.3,0,0,1,4.071,2.443,2.245,2.245,0,0,1-.582,3.141,3.842,3.842,0,0,0-1.512,3.722,15.5,15.5,0,0,1,.349,3.257,20.338,20.338,0,0,1-.582,6.514l-1.163,6.863a13.4,13.4,0,0,0,.582,6.746l1.4,3.955a23.675,23.675,0,0,1,1.745,9.538c0,8.956-5.816,11.166-15.354,11.166,0,0-12.911.582-10.817-11.166a32.594,32.594,0,0,1,2.326-7.212,16.459,16.459,0,0,1,2.094-3.373,1.606,1.606,0,0,0-.349.465c2.908-3.722,4.769-7.561,2.443-12.679C99.351,112.119,96.909,106.652,96.909,106.652Z" transform="translate(-91.857 -87.748)"/>
          </g>
          <g id="Group_38974" data-name="Group 38974" transform="translate(24.646 20.123)">
            <path id="Path_132678" data-name="Path 132678" class="cls-5" d="M104.5,95.523a3.544,3.544,0,0,0,3.024-3.606L107.3,78.89a3.548,3.548,0,1,0-7.1.116l.233,13.027a3.526,3.526,0,0,0,3.606,3.49A.354.354,0,0,0,104.5,95.523Z" transform="translate(-100.2 -75.4)"/>
          </g>
          <g id="Group_38975" data-name="Group 38975" transform="translate(24.646 20.239)">
            <path id="Path_132679" data-name="Path 132679" class="cls-5" d="M100.316,85.038l-.116-5.932a3.548,3.548,0,0,1,7.1-.116l.116,8.607a30.3,30.3,0,0,1-3.838-.931C102.526,86.2,101.479,85.62,100.316,85.038Z" transform="translate(-100.2 -75.5)"/>
          </g>
          <g id="Group_38976" data-name="Group 38976" transform="translate(14.599 67.115)">
            <path id="Path_132680" data-name="Path 132680" class="cls-2" d="M99.283,115.8h16.75l2.094,3.722h0a24.589,24.589,0,0,1,2.094,10.817,53.187,53.187,0,0,0,.349,11.748,196.659,196.659,0,0,1,1.745,37.338.532.532,0,0,1-.582.465H98.585c-.116,0-.233-.116-.349-.116a.427.427,0,0,1-.116-.349,189.619,189.619,0,0,0-.931-30.591,23.609,23.609,0,0,0-4.071-10.7c-1.279-1.745-1.977-4.3-1.279-7.91C93.235,121.965,96.724,118.824,99.283,115.8Z" transform="translate(-91.563 -115.8)"/>
          </g>
          <g id="Group_38979" data-name="Group 38979" transform="translate(12.316)">
            <g id="Group_38977" data-name="Group 38977" transform="translate(4.653 1.163)">
              <path id="Path_132681" data-name="Path 132681" class="cls-5" d="M93.6,70.964c0-6.63,5.932-11.864,13.144-11.864a15.5,15.5,0,0,1,3.257.349,13.528,13.528,0,0,1,7.91,5.118,11.3,11.3,0,0,1,1.861,4.187,23.136,23.136,0,0,1,.349,5.7c0,1.745.116,3.606,0,5.351a10.773,10.773,0,0,1-4.885,7.91c-3.141,2.094-7.212,1.163-10.469-.233a20.237,20.237,0,0,1-7.91-6.281A16.969,16.969,0,0,1,93.6,71.43C93.6,71.2,93.6,71.081,93.6,70.964Z" transform="translate(-93.6 -59.1)"/>
            </g>
            <g id="Group_38978" data-name="Group 38978">
              <path id="Path_132682" data-name="Path 132682" class="cls-12" d="M120.308,82.061a2.737,2.737,0,0,0-.233.931c0,.233-.116.349-.116.582-.116.349-.116.582-.233.931,0,.233-.116.465-.116.814v.931a5.441,5.441,0,0,0,.233,1.861c0,.116.116.349.116.465,0,.233.116.349.116.465l-.116-.116-.116-.116a10.536,10.536,0,0,0-2.792-1.745c.116-.116.233-.116.233-.233a9.446,9.446,0,0,0,1.047-1.163l.349-.349a28.3,28.3,0,0,0,1.628-3.257c.116-.7.233-1.512.349-2.21a41.064,41.064,0,0,0,0-5.351V73.221a5.209,5.209,0,0,0-1.628-1.512A6.351,6.351,0,0,0,116,70.546c-3.257-.116-7.91-3.141-9.073-5.467a15.985,15.985,0,0,1-5.118,5.7,14.688,14.688,0,0,0-5.467,9.073c0,.116.116.116.116.233a.36.36,0,0,1,.116.233l.7,1.047c.233.349.465.582.7.931.116.116.233.349.465.465a11.356,11.356,0,0,0,2.094,1.977.7.7,0,0,0-.465.116,14.969,14.969,0,0,0-2.559.7,1.9,1.9,0,0,0-.931,1.047,7.92,7.92,0,0,0,1.163,2.443h0S89.6,86.6,89.6,76.594c0-10.12,6.979-18.494,17.8-18.494a14.658,14.658,0,0,1,14.191,9.422C124.379,73.686,121.7,77.874,120.308,82.061Z" transform="translate(-89.6 -58.1)"/>
            </g>
          </g>
          <g id="Group_38996" data-name="Group 38996" transform="translate(13.435 33.965)">
            <g id="Group_38981" data-name="Group 38981" transform="translate(0 0.233)">
              <g id="Group_38980" data-name="Group 38980">
                <path id="Path_132683" data-name="Path 132683" class="cls-9" d="M95.957,87.849q1.57-.174,2.792-.349a32.462,32.462,0,0,1,0,4.769.921.921,0,0,0,.582.931l.7.349a14.868,14.868,0,0,1-.7,2.675l1.4-.7a20.936,20.936,0,0,1,1.861,1.745c.582.582,1.279,1.279,2.094,2.21a60.75,60.75,0,0,1,5.351,7.212h-6.514a3.882,3.882,0,0,1-2.908-1.4,5.372,5.372,0,0,1-1.163-3.373c0,3.955,2.326,7.1,5.351,7.1h10.7a3.864,3.864,0,0,0,2.443-.814.427.427,0,0,1-.116.349l-1.163,6.863c-.814,4.42,1.047,7.1,1.977,10.12h0a25.355,25.355,0,0,1,1.861,10.12,12.643,12.643,0,0,1-.116,2.094c0,.233-.233.349-.465.349h-1.861c-2.21,0-4.42-4.071-4.769-6.63v0a5.973,5.973,0,0,1-1.745,4.3,6.686,6.686,0,0,1-5,2.21h-15a.411.411,0,0,1-.465-.465,15.9,15.9,0,0,1,.233-2.21,25.29,25.29,0,0,1,4.42-10.7v-.116c3.024-3.838,4.42-7.212,2.443-11.632-.233-.582-2.21-4.885-2.443-5.583h0a37.235,37.235,0,0,1-2.443-7.444,16.5,16.5,0,0,0-2.21-5.583,3.342,3.342,0,0,1,.116-3.722A6.472,6.472,0,0,1,95.957,87.849Z" transform="translate(-90.562 -87.5)"/>
              </g>
            </g>
            <g id="Group_38982" data-name="Group 38982" transform="translate(8.419 0.233)">
              <path id="Path_132684" data-name="Path 132684" class="cls-13" d="M99.079,93.548l-.7-.349a1.036,1.036,0,0,1-.582-.931c0-1.047.116-3.141,0-4.769h.349A11,11,0,0,1,99.079,93.548Z" transform="translate(-97.8 -87.5)"/>
            </g>
            <g id="Group_38983" data-name="Group 38983" transform="translate(8.652 0.233)">
              <path id="Path_132685" data-name="Path 132685" class="cls-6" d="M104.281,91.687a6.453,6.453,0,0,1-.7.931,10.832,10.832,0,0,1-3.838,2.908l-1.4.7a14.868,14.868,0,0,0,.7-2.675A10.355,10.355,0,0,0,98,87.5h.233a2.5,2.5,0,0,1,1.279.233c5,2.326,7.212,3.722,8.956,5.583l-3.024-1.745A.765.765,0,0,0,104.281,91.687Z" transform="translate(-98 -87.5)"/>
            </g>
            <g id="Group_38984" data-name="Group 38984" transform="translate(8.885 14.656)">
              <path id="Path_132686" data-name="Path 132686" class="cls-13" d="M103.551,107c-2.908,0-5.351-3.141-5.351-7.1a5.372,5.372,0,0,0,1.163,3.373,3.882,3.882,0,0,0,2.908,1.4h6.514c.814,1.4,1.4,2.326,1.4,2.326Z" transform="translate(-98.2 -99.9)"/>
            </g>
            <g id="Group_38985" data-name="Group 38985" transform="translate(10.28 5.351)">
              <path id="Path_132687" data-name="Path 132687" class="cls-13" d="M103.238,91.9a37.934,37.934,0,0,1,1.745,3.722,1.653,1.653,0,0,1,.233.7c1.745,4.653,3.141,7.677,3.955,9.538a9.684,9.684,0,0,1,.931,2.326s-.582-.931-1.4-2.326a60.749,60.749,0,0,0-5.351-7.212c-.814-.931-1.512-1.628-2.094-2.21A20.94,20.94,0,0,0,99.4,94.692,9.391,9.391,0,0,0,103.238,91.9Z" transform="translate(-99.4 -91.9)"/>
            </g>
            <g id="Group_38986" data-name="Group 38986" transform="translate(14.119 3.955)">
              <path id="Path_132688" data-name="Path 132688" class="cls-6" d="M110.61,90.7a23.236,23.236,0,0,1,1.512,5c0,.349.116.582.116.931a16.972,16.972,0,0,1-1.279,9.538,10.853,10.853,0,0,1-1.4,2.326,9.685,9.685,0,0,0-.931-2.326c-.814-1.861-2.21-4.885-3.955-9.538a1.653,1.653,0,0,1-.233-.7,15.744,15.744,0,0,0-1.745-3.722,6.451,6.451,0,0,0,.7-.931.9.9,0,0,1,1.163-.233l3.024,1.745,2.559-1.861C110.377,90.816,110.493,90.7,110.61,90.7Z" transform="translate(-102.7 -90.7)"/>
            </g>
            <g id="Group_38987" data-name="Group 38987" transform="translate(14.119 3.955)">
              <path id="Path_132689" data-name="Path 132689" class="cls-6" d="M103.514,91.165a.9.9,0,0,1,1.163-.233l3.024,1.745,2.559-1.861a.427.427,0,0,1,.349-.116c.233.582.465,1.163.7,1.861a3.084,3.084,0,0,0-.582-.7l-2.443,1.745h0c-.116,0-.116.116-.233.116h-.931a.114.114,0,0,1-.116-.116l-2.792-1.628c-.233.349-.465.582-.582.814l-.349.349c-.233-.349-.349-.7-.582-1.047C102.933,91.863,103.165,91.514,103.514,91.165Z" transform="translate(-102.7 -90.7)"/>
            </g>
            <g id="Group_38988" data-name="Group 38988" transform="translate(19.12 0.184)">
              <path id="Path_132690" data-name="Path 132690" class="cls-6" d="M112.7,93.09a9.8,9.8,0,0,1,1.047,3.141A.406.406,0,0,0,113.63,96a6.908,6.908,0,0,0-.465-.931c-.233-.465-.582-.931-.814-1.4a13.391,13.391,0,0,0-1.628-1.977.771.771,0,0,0-.814-.233c-.116,0-.233.116-.349.116L107,93.439a8.453,8.453,0,0,0,.116-5.351.7.7,0,0,1,.116-.465c.116-.116.233-.233.465-.116h0C107.814,87.158,111.187,89.949,112.7,93.09Z" transform="translate(-107 -87.459)"/>
            </g>
            <g id="Group_38989" data-name="Group 38989" transform="translate(19.702)">
              <path id="Path_132691" data-name="Path 132691" class="cls-2" d="M112.618,91.953a.885.885,0,0,1,0,1.163A15.833,15.833,0,0,0,107.5,87.3h0C109.361,88.114,111.571,90.673,112.618,91.953Z" transform="translate(-107.5 -87.3)"/>
            </g>
            <g id="Group_38990" data-name="Group 38990" transform="translate(20.981 15.238)">
              <path id="Path_132692" data-name="Path 132692" class="cls-13" d="M108.6,106.914a13.757,13.757,0,0,0,1.745-2.326h4.769c1.279-.116,2.443-1.977,2.559-4.187a8.709,8.709,0,0,1-1.512,4.42,6.666,6.666,0,0,1-1.279,1.279,4.386,4.386,0,0,1-2.443.814Z" transform="translate(-108.6 -100.4)"/>
            </g>
            <g id="Group_38991" data-name="Group 38991" transform="translate(20.981 3.909)">
              <path id="Path_132693" data-name="Path 132693" class="cls-13" d="M111.275,96.639c0-.349-.116-.582-.116-.931a18.135,18.135,0,0,0-1.512-5,.719.719,0,0,1,.814.233,24.371,24.371,0,0,1,1.628,1.977l-.7.814,1.279.465a.406.406,0,0,1,.233.116c.116.349.349.582.465.931v1.279a9.56,9.56,0,0,1-.233,2.443,18.409,18.409,0,0,1-2.792,7.1,13.757,13.757,0,0,1-1.745,2.326,10.853,10.853,0,0,0,1.4-2.326A16.353,16.353,0,0,0,111.275,96.639Z" transform="translate(-108.6 -90.661)"/>
            </g>
            <g id="Group_38992" data-name="Group 38992" transform="translate(23.773 6.281)">
              <path id="Path_132694" data-name="Path 132694" class="cls-13" d="M111,93.514l.7-.814a8.675,8.675,0,0,1,.814,1.4c-.116,0-.116-.116-.233-.116Z" transform="translate(-111 -92.7)"/>
            </g>
            <g id="Group_38994" data-name="Group 38994" transform="translate(19.935)">
              <g id="Group_38993" data-name="Group 38993">
                <path id="Path_132695" data-name="Path 132695" class="cls-9" d="M115.377,106.725h-4.769a18.409,18.409,0,0,0,2.792-7.1,21.31,21.31,0,0,0,.233-2.443V95.907a.406.406,0,0,0,.116.233A9.8,9.8,0,0,0,112.7,93a1.057,1.057,0,0,0,0-1.163c-.931-1.163-3.257-3.838-5-4.536.931.116,1.977.233,3.257.465l1.279.116c2.559.116,5.234,2.094,5.351,4.885a4.292,4.292,0,0,1-1.163,2.792,2.127,2.127,0,0,0,.116,2.792c.116.116.233.233.233.349a5.372,5.372,0,0,1,1.163,3.373v.582C117.7,104.748,116.656,106.609,115.377,106.725Z" transform="translate(-107.7 -87.3)"/>
              </g>
            </g>
            <g id="Group_38995" data-name="Group 38995" transform="translate(20.051 19.425)">
              <path id="Path_132696" data-name="Path 132696" class="cls-6" d="M107.8,104h2.326a10.853,10.853,0,0,1-1.4,2.326A6.209,6.209,0,0,0,107.8,104Z" transform="translate(-107.8 -104)"/>
            </g>
          </g>
          <g id="Group_38997" data-name="Group 38997" transform="translate(1.134 36.393)">
            <path id="Path_132697" data-name="Path 132697" class="cls-5" d="M80.235,112.433a6.564,6.564,0,0,0,.116,3.955,6.288,6.288,0,0,0,3.955,3.722l22.449,6.979a2.318,2.318,0,1,0,1.4-4.42L85.7,115.69a1.651,1.651,0,0,1-1.047-.931,1.945,1.945,0,0,1,.116-1.4L97.682,92.891a2.275,2.275,0,1,0-3.838-2.443L80.933,111.037Z" transform="translate(-79.986 -89.388)"/>
          </g>
          <g id="Group_38998" data-name="Group 38998" transform="translate(23.017 68.045)">
            <path id="Path_132698" data-name="Path 132698" class="cls-6" d="M101.824,117.065c.116,0,.233.233.233.349-.931,3.141-.582,1.745-1.512,4.885,0,.116-.233.233-.349.233l-1.4-.465c1.163-3.606.582-1.861,1.745-5.467Z" transform="translate(-98.8 -116.6)"/>
          </g>
          <g id="Group_39000" data-name="Group 39000" transform="translate(0 35.616)">
            <g id="Group_38999" data-name="Group 38999">
              <path id="Path_132699" data-name="Path 132699" class="cls-9" d="M79.463,117.311a7.424,7.424,0,0,1-.116-4.769,11.738,11.738,0,0,1,.814-1.745L93.072,90.325a3.416,3.416,0,0,1,4.769-1.047,3.707,3.707,0,0,1,1.512,3.955,5.669,5.669,0,0,1-.349.814L85.977,114.519v.349a.25.25,0,0,0,.233.233l17.331,5.351c.233.116.349.233.233.465v.233c-1.163,3.606-.582,1.861-1.745,5.467v.233c-.116.233-.233.349-.465.233l-17.331-5.351A7.514,7.514,0,0,1,79.463,117.311Z" transform="translate(-79.011 -88.719)"/>
            </g>
          </g>
          <g id="Group_39020" data-name="Group 39020" transform="translate(30.199 54.32)">
            <g id="Group_39001" data-name="Group 39001" transform="translate(0 0.582)">
              <path id="Path_132700" data-name="Path 132700" class="cls-6" d="M110.122,105.882,105,125.655a.764.764,0,0,0,.582.931l13.027,3.373a.764.764,0,0,0,.931-.582l5.118-19.774a.764.764,0,0,0-.582-.931l-.7-.233-.116.582a.427.427,0,0,1,.116.349.48.48,0,0,1-.931-.233.25.25,0,0,1,.233-.233l.116-.582-.814-.233-.116.582a.427.427,0,0,1,.116.349.48.48,0,0,1-.931-.233.25.25,0,0,1,.233-.233l.116-.582-.814-.233-.116.582a.427.427,0,0,1,.116.349.48.48,0,0,1-.931-.233.25.25,0,0,1,.233-.233l.116-.582-.814-.233-.116.582a.427.427,0,0,1,.116.349.48.48,0,1,1-.931-.233.25.25,0,0,1,.233-.233l.116-.582-.814-.233-.116.582a.427.427,0,0,1,.116.349.48.48,0,0,1-.931-.233.25.25,0,0,1,.233-.233l.116-.582-.814-.233-.116.582a.427.427,0,0,1,.116.349.48.48,0,0,1-.931-.233.25.25,0,0,1,.233-.233l.116-.582-.814-.233-.116.582a.427.427,0,0,1,.116.349.48.48,0,1,1-.931-.233.25.25,0,0,1,.233-.233l.116-.582-.814-.233-.116.582a.427.427,0,0,1,.116.349.48.48,0,0,1-.931-.233.25.25,0,0,1,.233-.233l.116-.582-.814-.233-.116.582a.427.427,0,0,1,.116.349.48.48,0,1,1-.931-.233.25.25,0,0,1,.233-.233l.116-.582-.814-.233A1.044,1.044,0,0,0,110.122,105.882Z" transform="translate(-104.975 -105.3)"/>
            </g>
            <g id="Group_39002" data-name="Group 39002" transform="translate(17.477 4.304)">
              <path id="Path_132701" data-name="Path 132701" class="cls-6" d="M120.349,109.2c.116,0,.349,0,.349-.233l.116-.349a.427.427,0,0,1,.116.349.48.48,0,0,1-.931-.233.25.25,0,0,1,.233-.233l-.116.349C120.116,108.965,120.116,109.2,120.349,109.2Z" transform="translate(-120 -108.5)"/>
            </g>
            <g id="Group_39003" data-name="Group 39003" transform="translate(16.081 3.955)">
              <path id="Path_132702" data-name="Path 132702" class="cls-6" d="M119.149,108.9c.116,0,.349,0,.349-.233l.116-.349a.427.427,0,0,1,.116.349.48.48,0,1,1-.931-.233.25.25,0,0,1,.233-.233l-.116.349C118.916,108.665,119.033,108.9,119.149,108.9Z" transform="translate(-118.8 -108.2)"/>
            </g>
            <g id="Group_39004" data-name="Group 39004" transform="translate(14.686 3.606)">
              <path id="Path_132703" data-name="Path 132703" class="cls-6" d="M117.949,108.6c.116,0,.349,0,.349-.233l.116-.349a.427.427,0,0,1,.116.349.48.48,0,1,1-.931-.233.25.25,0,0,1,.233-.233l-.116.349C117.716,108.365,117.833,108.6,117.949,108.6Z" transform="translate(-117.6 -107.9)"/>
            </g>
            <g id="Group_39005" data-name="Group 39005" transform="translate(13.406 3.257)">
              <path id="Path_132704" data-name="Path 132704" class="cls-6" d="M116.849,108.3c.116,0,.349,0,.349-.233l.116-.349a.427.427,0,0,1,.116.349.48.48,0,0,1-.931-.233.25.25,0,0,1,.233-.233l-.116.349C116.5,108.065,116.616,108.3,116.849,108.3Z" transform="translate(-116.5 -107.6)"/>
            </g>
            <g id="Group_39006" data-name="Group 39006" transform="translate(12.01 2.908)">
              <path id="Path_132705" data-name="Path 132705" class="cls-6" d="M115.649,108c.116,0,.349,0,.349-.233l.116-.349a.427.427,0,0,1,.116.349.48.48,0,0,1-.931-.233.25.25,0,0,1,.233-.233l-.116.349C115.416,107.765,115.533,108,115.649,108Z" transform="translate(-115.3 -107.3)"/>
            </g>
            <g id="Group_39007" data-name="Group 39007" transform="translate(10.614 2.559)">
              <path id="Path_132706" data-name="Path 132706" class="cls-6" d="M114.449,107.7c.116,0,.349,0,.349-.233l.116-.349a.427.427,0,0,1,.116.349.48.48,0,1,1-.931-.233.25.25,0,0,1,.233-.233l-.116.349C114.216,107.465,114.333,107.582,114.449,107.7Z" transform="translate(-114.1 -107)"/>
            </g>
            <g id="Group_39008" data-name="Group 39008" transform="translate(9.219 2.21)">
              <path id="Path_132707" data-name="Path 132707" class="cls-6" d="M113.249,107.4c.116,0,.349,0,.349-.233l.116-.349a.427.427,0,0,1,.116.349.48.48,0,0,1-.931-.233.25.25,0,0,1,.233-.233l-.116.349C113.016,107.165,113.133,107.282,113.249,107.4Z" transform="translate(-112.9 -106.7)"/>
            </g>
            <g id="Group_39009" data-name="Group 39009" transform="translate(7.939 1.861)">
              <path id="Path_132708" data-name="Path 132708" class="cls-6" d="M112.149,107.1c.116,0,.349,0,.349-.233l.116-.349a.427.427,0,0,1,.116.349.48.48,0,1,1-.931-.233.25.25,0,0,1,.233-.233l-.116.349C111.916,106.865,111.916,106.982,112.149,107.1Z" transform="translate(-111.8 -106.4)"/>
            </g>
            <g id="Group_39010" data-name="Group 39010" transform="translate(6.543 1.512)">
              <path id="Path_132709" data-name="Path 132709" class="cls-6" d="M110.949,106.8c.116,0,.349,0,.349-.233l.116-.349a.427.427,0,0,1,.116.349.48.48,0,0,1-.931-.233.25.25,0,0,1,.233-.233l-.116.349C110.716,106.565,110.833,106.682,110.949,106.8Z" transform="translate(-110.6 -106.1)"/>
            </g>
            <g id="Group_39011" data-name="Group 39011" transform="translate(17.593 2.792)">
              <path id="Path_132710" data-name="Path 132710" class="cls-14" d="M120.682,109.177c0,.116-.233.233-.349.233s-.233-.233-.233-.349l.116-.349.116-.582.233-.7c0-.116.233-.233.349-.233s.233.233.233.349l-.233.7-.116.582Z" transform="translate(-120.1 -107.2)"/>
            </g>
            <g id="Group_39012" data-name="Group 39012" transform="translate(6.66)">
              <path id="Path_132711" data-name="Path 132711" class="cls-14" d="M111.282,106.777c0,.116-.233.233-.349.233s-.233-.233-.233-.349l.116-.349.116-.582.233-.7c0-.116.233-.233.349-.233s.233.233.233.349l-.233.7-.116.582Z" transform="translate(-110.7 -104.8)"/>
            </g>
            <g id="Group_39013" data-name="Group 39013" transform="translate(12.127 1.396)">
              <path id="Path_132712" data-name="Path 132712" class="cls-14" d="M115.982,107.977c0,.116-.233.233-.349.233s-.233-.233-.233-.349l.116-.349.116-.582.233-.7c0-.116.233-.233.349-.233s.233.233.233.349l-.233.7-.116.582Z" transform="translate(-115.4 -106)"/>
            </g>
            <g id="Group_39014" data-name="Group 39014" transform="translate(9.335 0.698)">
              <path id="Path_132713" data-name="Path 132713" class="cls-14" d="M113.582,107.377c0,.116-.233.233-.349.233s-.233-.233-.233-.349l.116-.349.116-.582.233-.7c0-.116.233-.233.349-.233s.233.233.233.349l-.233.7-.116.582Z" transform="translate(-113 -105.4)"/>
            </g>
            <g id="Group_39015" data-name="Group 39015" transform="translate(14.802 2.094)">
              <path id="Path_132714" data-name="Path 132714" class="cls-14" d="M118.282,108.577c0,.116-.233.233-.349.233s-.233-.233-.233-.349l.116-.349.116-.582.233-.7c0-.116.233-.233.349-.233s.233.233.233.349l-.233.7-.116.582Z" transform="translate(-117.7 -106.6)"/>
            </g>
            <g id="Group_39016" data-name="Group 39016" transform="translate(16.198 2.443)">
              <path id="Path_132715" data-name="Path 132715" class="cls-14" d="M119.482,108.877c0,.116-.233.233-.349.233s-.233-.233-.233-.349l.116-.349.116-.582.233-.7c0-.116.233-.233.349-.233s.233.233.233.349l-.233.7-.116.582Z" transform="translate(-118.9 -106.9)"/>
            </g>
            <g id="Group_39017" data-name="Group 39017" transform="translate(13.406 1.745)">
              <path id="Path_132716" data-name="Path 132716" class="cls-14" d="M117.082,108.277c0,.116-.233.233-.349.233s-.233-.233-.233-.349l.116-.349.116-.582.233-.7c0-.116.233-.233.349-.233s.233.233.233.349l-.233.7-.116.582Z" transform="translate(-116.5 -106.3)"/>
            </g>
            <g id="Group_39018" data-name="Group 39018" transform="translate(10.731 1.047)">
              <path id="Path_132717" data-name="Path 132717" class="cls-14" d="M114.782,107.677c0,.116-.233.233-.349.233s-.233-.233-.233-.349l.116-.349.116-.582.233-.7c0-.116.233-.233.349-.233s.233.233.233.349l-.233.7-.116.582Z" transform="translate(-114.2 -105.7)"/>
            </g>
            <g id="Group_39019" data-name="Group 39019" transform="translate(8.056 0.349)">
              <path id="Path_132718" data-name="Path 132718" class="cls-14" d="M112.482,107.077c0,.116-.233.233-.349.233s-.233-.233-.233-.349l.116-.349.116-.582.233-.7c0-.116.233-.233.349-.233s.233.233.233.349l-.233.7-.116.582Z" transform="translate(-111.9 -105.1)"/>
            </g>
          </g>
          <g id="Group_39021" data-name="Group 39021" transform="translate(26.609 64.543)">
            <path id="Path_132719" data-name="Path 132719" class="cls-5" d="M107.95,113.718a5.48,5.48,0,0,1,1.977.465l2.21.931a.86.86,0,0,1,.465,1.047.114.114,0,0,1-.116.116.7.7,0,0,0-.116.465q0,.174.349.349h0a.86.86,0,0,1,.465,1.047.791.791,0,0,1-.931.465h-.233s-.116.116,0,.116v.465a.86.86,0,0,1-1.047.465h-.233l-.116.116v.349a.733.733,0,0,1-.931.349l-1.512-.7a.528.528,0,0,0-.582,0,.908.908,0,0,0-.465.465c-.7,1.861-2.094,3.024-3.257,2.908-1.512-.233-2.326-2.443-1.861-5.118C102.949,113.02,103.181,113.485,107.95,113.718Z" transform="translate(-101.888 -113.589)"/>
          </g>
          <g id="Group_39022" data-name="Group 39022" transform="translate(57.215 39.897)">
            <path id="Path_132720" data-name="Path 132720" class="cls-6" d="M128.665,92.633c0-.116.233-.233.349-.233l4.885,1.628c.116,0,.233.233.233.349l-.465,1.4c-3.606-1.163-1.861-.582-5.467-1.745Z" transform="translate(-128.2 -92.4)"/>
          </g>
        </g>
      </g>
      <g id="Group_39116" data-name="Group 39116" transform="translate(153.033 30.462)">
        <g id="Group_39066" data-name="Group 39066">
          <g id="Group_39028" data-name="Group 39028" transform="translate(53.909 66.162)">
            <g id="Group_39025" data-name="Group 39025" transform="translate(0 13.898)">
              <path id="Path_132721" data-name="Path 132721" class="cls-15" d="M182.084,95.462a2.678,2.678,0,0,0-3.024,4.42l3.024,2.094,3.024-4.42Z" transform="translate(-177.919 -95.019)"/>
            </g>
            <g id="Group_39026" data-name="Group 39026" transform="translate(4.97)">
              <path id="Path_132722" data-name="Path 132722" class="cls-3" d="M206.628,118.93a8.442,8.442,0,0,0,4.42-3.373,6.466,6.466,0,0,0,1.047-1.977l8.491-24.659a4.38,4.38,0,0,0-2.792-5.583,4.316,4.316,0,0,0-5.118,1.745,4.131,4.131,0,0,0-.465,1.047l-8.375,24.427L187.552,99.622a.575.575,0,0,0-.814.116l-.233.233-.465.7-3.024,4.42-.465.7-.233.233a.575.575,0,0,0,.116.814L198.951,118A9.388,9.388,0,0,0,206.628,118.93Z" transform="translate(-182.191 -83.07)"/>
            </g>
            <g id="Group_39027" data-name="Group 39027" transform="translate(3.69 15.96)">
              <path id="Path_132723" data-name="Path 132723" class="cls-6" d="M186.219,98.314l.465-.7-1.163-.7a.575.575,0,0,0-.814.116l-.233.233-3.024,4.42-.233.233a.575.575,0,0,0,.116.814l1.163.7.465-.7Z" transform="translate(-181.091 -96.791)"/>
            </g>
          </g>
          <g id="Group_39029" data-name="Group 39029" transform="translate(47.606 75.066)">
            <path id="Path_132724" data-name="Path 132724" class="cls-15" d="M173.547,91.859a1.363,1.363,0,0,0-1.047,1.279,1.177,1.177,0,0,0,.465.814c.116,0,.116.116.116.233s0,.116-.116.233a.9.9,0,0,0-.233.931,1.177,1.177,0,0,0,.465.814c.116,0,.116.116.116.233s0,.116-.116.233a.9.9,0,0,0-.233.931,1.206,1.206,0,0,0,.7.931.114.114,0,0,1,.116.116v.233a1.475,1.475,0,0,0-.116.7,1.247,1.247,0,0,0,1.279,1.047l3.141-.814a1.056,1.056,0,0,1,.814.349c1.047,1.279,2.443,1.977,3.49,1.628,1.745-.465,2.326-3.373,1.163-6.4C181.689,89.416,179.6,90.347,173.547,91.859Z" transform="translate(-172.5 -90.725)"/>
          </g>
          <g id="Group_39030" data-name="Group 39030" transform="translate(41.661)">
            <path id="Path_132725" data-name="Path 132725" class="cls-2" d="M196.714,242.9a1.806,1.806,0,0,1-1.977-1.512L167.4,28.179a1.76,1.76,0,0,1,3.49-.465l27.451,213.209A1.81,1.81,0,0,1,196.714,242.9Z" transform="translate(-167.389 -26.189)"/>
          </g>
          <g id="Group_39031" data-name="Group 39031" transform="translate(48.519 76.575)">
            <path id="Path_132726" data-name="Path 132726" class="cls-15" d="M182.608,93.974a1,1,0,0,0-.7-.814,17.8,17.8,0,0,0-7.677-1.047,1.053,1.053,0,0,0,.233,2.094,18.794,18.794,0,0,1,6.863,1.047,1,1,0,0,0,1.279-.7C182.608,94.323,182.724,94.09,182.608,93.974Z" transform="translate(-173.285 -92.022)"/>
          </g>
          <g id="Group_39034" data-name="Group 39034" transform="translate(78.32 120.576)">
            <g id="Group_39032" data-name="Group 39032" transform="translate(0 0)">
              <path id="Path_132727" data-name="Path 132727" class="cls-2" d="M208.437,217.611a.6.6,0,0,0,.233-.465c-1.4-32.569,1.745-56.3,10.585-80.957a4.361,4.361,0,0,0-.233-3.606,4.99,4.99,0,0,0-2.675-2.443,2.738,2.738,0,0,0-.931-.233,4.673,4.673,0,0,0-5.118,3.141c-9.073,25.59-12.33,49.9-11.166,83.05a.773.773,0,0,0,.465.582l.7.116,7.1,1.047.465.116C208.2,217.727,208.321,217.727,208.437,217.611Z" transform="translate(-198.905 -129.851)"/>
            </g>
            <g id="Group_39033" data-name="Group 39033" transform="translate(1.506 86.597)">
              <path id="Path_132728" data-name="Path 132728" class="cls-3" d="M200.549,209.3a3.481,3.481,0,0,0,3.024,3.257h.7a3.528,3.528,0,0,0,3.373-3.722c-.116-1.512-.233-2.094-.349-3.49l-7.1-1.047C200.316,206.394,200.433,207.324,200.549,209.3Z" transform="translate(-200.2 -204.3)"/>
            </g>
          </g>
          <g id="Group_39037" data-name="Group 39037" transform="translate(106.157 120.633)">
            <g id="Group_39035" data-name="Group 39035">
              <path id="Path_132729" data-name="Path 132729" class="cls-2" d="M246.871,215.742a.882.882,0,0,0,.465-.233.354.354,0,0,0,0-.465c-11.4-30.591-15.7-54.087-15-80.259A4.771,4.771,0,0,0,227.8,129.9a2.561,2.561,0,0,0-.931.116,4.835,4.835,0,0,0-3.955,4.536c-.7,27.1,3.606,51.3,15,82.352a.565.565,0,0,0,.7.349l.7-.116,7.1-1.28Z" transform="translate(-222.838 -129.9)"/>
            </g>
            <g id="Group_39036" data-name="Group 39036" transform="translate(16.473 85.958)">
              <path id="Path_132730" data-name="Path 132730" class="cls-3" d="M238.861,209.616a3.531,3.531,0,0,0,3.955,2.21,1.653,1.653,0,0,0,.7-.233,3.471,3.471,0,0,0,1.977-4.536c-.582-1.4-.931-1.861-1.4-3.257l-7.1,1.279C237.582,206.824,238.163,207.755,238.861,209.616Z" transform="translate(-237 -203.8)"/>
            </g>
          </g>
          <g id="Group_39038" data-name="Group 39038" transform="translate(117.222 208.452)">
            <path id="Path_132731" data-name="Path 132731" class="cls-7" d="M232.524,212.844a1.725,1.725,0,0,1,0-1.512,10.648,10.648,0,0,1,6.514-5.932c3.024,0,3.141,3.722,5.234,3.722a2.228,2.228,0,0,0,1.745-.7c.116-.116.233-.233.349-.116.116,0,.233.116.349.233a15.5,15.5,0,0,1,.582,2.21,2.807,2.807,0,0,1-.465,1.977,2.179,2.179,0,0,1-1.628.931H233.8A1.578,1.578,0,0,1,232.524,212.844Z" transform="translate(-232.35 -205.4)"/>
          </g>
          <g id="Group_39041" data-name="Group 39041" transform="translate(102.619 49.908)">
            <g id="Group_39039" data-name="Group 39039" transform="translate(0 0)">
              <path id="Path_132732" data-name="Path 132732" class="cls-15" d="M223.988,95.272a4.6,4.6,0,0,1-3.49-4.3l-.7-17.1a4.6,4.6,0,1,1,9.189-.349l.7,17.1a4.57,4.57,0,0,1-4.42,4.769A4.771,4.771,0,0,1,223.988,95.272Z" transform="translate(-219.796 -69.096)"/>
            </g>
            <g id="Group_39040" data-name="Group 39040" transform="translate(0.116)">
              <path id="Path_132733" data-name="Path 132733" class="cls-16" d="M229.322,80.849l-.233-7.328a4.6,4.6,0,0,0-9.189.349l.349,9.887a24.688,24.688,0,0,0,5.351-1.163A21.713,21.713,0,0,0,229.322,80.849Z" transform="translate(-219.896 -69.096)"/>
            </g>
          </g>
          <g id="Group_39052" data-name="Group 39052" transform="translate(86.805 64.336)">
            <g id="Group_39042" data-name="Group 39042" transform="translate(4.42 57.228)">
              <path id="Path_132734" data-name="Path 132734" class="cls-2" d="M218.026,130.7c-.233,3.955-1.977,7.1-6.048,6.746L210,137.33c1.977,2.443,5.583,3.838,11.166,4.187,4.42.349,7.793-.582,10.236-2.675l-6.863-.465C219.189,138.028,217.677,134.771,218.026,130.7Z" transform="translate(-210 -130.7)"/>
            </g>
            <g id="Group_39043" data-name="Group 39043" transform="translate(20.93 49.551)">
              <path id="Path_132735" data-name="Path 132735" class="cls-2" d="M231.3,124.565h-.233c-.582,0-2.094-.116-5.816-.465a.9.9,0,0,0-.931.814l-.116,1.4a3.255,3.255,0,0,0,3.024,3.49l6.048.465a17.615,17.615,0,0,0-1.047-5.583h-.116A2.62,2.62,0,0,0,231.3,124.565Z" transform="translate(-224.194 -124.1)"/>
            </g>
            <g id="Group_39044" data-name="Group 39044" transform="translate(18.262 0.814)">
              <path id="Path_132736" data-name="Path 132736" class="cls-6" d="M222.6,88.365V88.6a.6.6,0,0,0,.233.465.354.354,0,0,0,.465,0l1.977-.7c.233-.349.349-.814.582-1.163a23.841,23.841,0,0,1,2.792-4.42,2.042,2.042,0,0,1,.465-.582,1.78,1.78,0,0,0-1.163.465,16.137,16.137,0,0,1-6.048,1.279Z" transform="translate(-221.9 -82.2)"/>
            </g>
            <g id="Group_39045" data-name="Group 39045" transform="translate(14.191 0.116)">
              <path id="Path_132737" data-name="Path 132737" class="cls-6" d="M218.516,87.067c0,.116-.116.349-.116.465h0l.931.931a.888.888,0,0,0,.582.233c.233,0,.349-.116.465-.349l.116-.116,2.094-4.187c-1.279-.116-1.861-.582-2.094-1.163V81.6h-.349l-.349,1.047C219.331,84.159,218.865,85.671,218.516,87.067Z" transform="translate(-218.4 -81.6)"/>
            </g>
            <g id="Group_39046" data-name="Group 39046" transform="translate(13.005 5.932)">
              <path id="Path_132738" data-name="Path 132738" class="cls-6" d="M220.66,89.741c0-.116,0-.116.116-.233h0v-.233c0-.116,0-.116.116-.233h0a1.274,1.274,0,0,0,0-.931l-.116-.233h0l-.116-.582-.116.116c-.116.233-.233.349-.465.349a.64.64,0,0,1-.582-.233l-.931-.931h0c-.233,1.047-.349,1.977-.582,3.024a54.947,54.947,0,0,0-.465,12.213C218.8,96.254,220.078,91.6,220.66,89.741Z" transform="translate(-217.38 -86.6)"/>
            </g>
            <g id="Group_39047" data-name="Group 39047" transform="translate(16.75 6.979)">
              <path id="Path_132739" data-name="Path 132739" class="cls-6" d="M224.555,89.826c.349-.814.7-1.512,1.047-2.326l-1.977.7h-.465a.6.6,0,0,1-.233-.465V87.5l-.465.582h0l-.233.233a1.321,1.321,0,0,0-.349.931h0v.465c-.233,2.21-.931,7.328-1.279,11.748A68.8,68.8,0,0,1,224.555,89.826Z" transform="translate(-220.6 -87.5)"/>
            </g>
            <g id="Group_39048" data-name="Group 39048" transform="translate(0 0.233)">
              <path id="Path_132740" data-name="Path 132740" class="cls-3" d="M247.376,88.8A4.353,4.353,0,0,0,245.4,86a29.35,29.35,0,0,0-10.934-3.49l-.116,1.047-.465,3.606a.737.737,0,0,1-.582.7l-1.977.7.465.233a.773.773,0,0,1,.465.582,1.107,1.107,0,0,1-.233.814c-.233.233-.465.582-.814.931-3.024,4.071-9.305,14.423-10.585,20.472v-.465c-2.21-5.932-3.606-15.586-3.722-20.239a10.077,10.077,0,0,1,.116-2.094,1.02,1.02,0,0,1,.7-.814l.582-.116-.582-.582a.9.9,0,0,1-.233-.931,16.366,16.366,0,0,1,1.628-3.141c.233-.465.582-.931.931-1.512a34.157,34.157,0,0,0-9.422,1.861A4.029,4.029,0,0,0,208.294,86a4.25,4.25,0,0,0,0,3.373l.349.7a7.515,7.515,0,0,1,1.047,4.536,62.145,62.145,0,0,0,0,18.029,44.576,44.576,0,0,1-1.047,18.378s-.7,5-2.443,12.679a1.442,1.442,0,0,0,1.4,1.512l2.094.116h.814l1.977.116c4.187.349,5.816-2.792,6.048-6.746-.233,3.955,1.279,7.328,6.514,7.677l6.863.465h.814l2.094.116a1.67,1.67,0,0,0,1.977-1.279l-.582-8.258h0v-.465l-6.048-.465a3.338,3.338,0,0,1-3.024-3.49l.116-1.4a.9.9,0,0,1,.931-.814c3.838.233,5.234.349,5.816.465h.349a3.069,3.069,0,0,1,.814.116h.116c-1.977-5.583-2.326-10.934.814-16.633a35.14,35.14,0,0,0,2.094-4.187c.582-1.047,1.047-2.094,1.512-3.024a30.288,30.288,0,0,0,3.722-10.352,5.793,5.793,0,0,1,2.443-4.071,10.482,10.482,0,0,0,1.047-1.163A4.656,4.656,0,0,0,247.376,88.8Z" transform="translate(-206.2 -81.7)"/>
            </g>
            <g id="Group_39049" data-name="Group 39049" transform="translate(14.423 0.814)">
              <path id="Path_132741" data-name="Path 132741" class="cls-2" d="M226.51,87.2c-.233.349-.349.814-.582,1.163-.349.814-.7,1.512-1.047,2.326a102.009,102.009,0,0,0-4.187,11.632h0c-1.4,4.885-2.094,8.491-2.094,8.491v.233h0v.465c1.28-6.048,7.561-16.4,10.585-20.472.349-.349.582-.7.814-.931a.981.981,0,0,0,.233-.814.773.773,0,0,0-.465-.582l-.465-.233,1.977-.7c.349-.116.465-.349.582-.7l.465-3.606.116-1.047c-.349,0-.7-.116-1.047-.116l-1.628-.116c-.116.233-.349.349-.465.582A35.244,35.244,0,0,0,226.51,87.2Z" transform="translate(-218.6 -82.2)"/>
            </g>
            <g id="Group_39050" data-name="Group 39050" transform="translate(10.817)">
              <path id="Path_132742" data-name="Path 132742" class="cls-2" d="M216.082,86.269a.729.729,0,0,0,.233.931l.582.582-.582.116a1.02,1.02,0,0,0-.7.814,10.075,10.075,0,0,0-.116,2.094c.116,4.653,1.512,14.307,3.722,20.239h0a80.878,80.878,0,0,1-1.163-8.375,48.568,48.568,0,0,1,.465-12.213c.116-.931.349-1.977.582-3.024,0-.116.116-.349.116-.465a31.623,31.623,0,0,1,1.279-4.42l.349-1.047h-1.977a6.6,6.6,0,0,0-.931,1.512A12.547,12.547,0,0,0,216.082,86.269Z" transform="translate(-215.5 -81.5)"/>
            </g>
            <g id="Group_39051" data-name="Group 39051" transform="translate(13.144 2.792)">
              <path id="Path_132743" data-name="Path 132743" class="cls-9" d="M220.524,87.855l.116.582h0l.116.233a1.274,1.274,0,0,1,0,.931h0c0,.116,0,.116-.116.233v.233h0c0,.116,0,.116-.116.233-.582,1.977-1.745,6.63-3.024,12.213a80.871,80.871,0,0,0,1.163,8.375v-.233s.7-3.606,2.094-8.491h0c.349-4.42,1.047-9.654,1.279-11.748v-.465h0a2.221,2.221,0,0,1,.349-.931l.233-.233h0l.465-.582-.582-4.3Z" transform="translate(-217.5 -83.9)"/>
            </g>
          </g>
          <g id="Group_39053" data-name="Group 39053" transform="translate(69.311 208.174)">
            <path id="Path_132744" data-name="Path 132744" class="cls-7" d="M209.468,207.882a.438.438,0,0,0-.7-.116,3.084,3.084,0,0,0-.7.582c-.814.7-1.047.7-2.559.7-1.279,0-1.977-2.675-3.606-3.606a1.7,1.7,0,0,0-1.279-.233,13.424,13.424,0,0,0-9.305,6.048,1.43,1.43,0,0,0,.116,1.512,1.988,1.988,0,0,0,1.512.814H207.84a3.178,3.178,0,0,0,2.21-.931,1.89,1.89,0,0,0,.582-1.977A11,11,0,0,0,209.468,207.882Z" transform="translate(-191.161 -205.161)"/>
          </g>
          <g id="Group_39058" data-name="Group 39058" transform="translate(119.302 8.293)">
            <g id="Group_39054" data-name="Group 39054" transform="translate(13.269)">
              <path id="Path_132745" data-name="Path 132745" class="cls-15" d="M249.215,33.646c4.885-1.279,4.885,1.4,5.583,4.536s-.7,6.165-3.024,6.746c-2.443.582-4.885-1.4-5.583-4.536C245.492,37.368,244.329,34.925,249.215,33.646Z" transform="translate(-245.546 -33.319)"/>
            </g>
            <g id="Group_39055" data-name="Group 39055" transform="translate(15.858 5.064)">
              <path id="Path_132746" data-name="Path 132746" class="cls-15" d="M247.8,40.729a2.649,2.649,0,0,1,5.234-.814l.582,3.722-5.234.814Z" transform="translate(-247.772 -37.672)"/>
            </g>
            <g id="Group_39056" data-name="Group 39056" transform="translate(0 12.773)">
              <path id="Path_132747" data-name="Path 132747" class="cls-3" d="M242.12,98.5a4.264,4.264,0,0,1-2.908,1.745,4.1,4.1,0,0,1-3.257-.814,4.732,4.732,0,0,1-1.745-2.908,4.1,4.1,0,0,1,.814-3.257l14.656-19.89a11.926,11.926,0,0,0,2.21-9.073L249.1,46.045a.638.638,0,0,1,.465-.7h.349l.931-.116,5.234-.814.931-.116h.349a.638.638,0,0,1,.7.465l2.792,18.262a21.222,21.222,0,0,1-3.838,15.586Z" transform="translate(-234.138 -44.3)"/>
            </g>
            <g id="Group_39057" data-name="Group 39057" transform="translate(15.542 11.028)">
              <path id="Path_132748" data-name="Path 132748" class="cls-6" d="M248.663,45.475l-.931.116-.233-1.279a.638.638,0,0,1,.465-.7h.349l5.234-.814h.349a.638.638,0,0,1,.7.465l.233,1.279-.931.116Z" transform="translate(-247.5 -42.8)"/>
            </g>
          </g>
          <g id="Group_39062" data-name="Group 39062" transform="translate(0 0.329)">
            <g id="Group_39059" data-name="Group 39059">
              <path id="Path_132749" data-name="Path 132749" class="cls-8" d="M216.981,26.5l-83.05,10.7A2.649,2.649,0,0,0,131.6,40.23l6.514,50.83a2.649,2.649,0,0,0,3.024,2.326l83.05-10.7a2.649,2.649,0,0,0,2.326-3.024l-6.514-50.83A2.649,2.649,0,0,0,216.981,26.5Z" transform="translate(-131.572 -26.472)"/>
            </g>
            <g id="Group_39061" data-name="Group 39061" transform="translate(13.655 19.672)">
              <g id="Group_39060" data-name="Group 39060">
                <path id="Path_132750" data-name="Path 132750" class="cls-9" d="M152.138,63.574l1.745-13.493a1.356,1.356,0,0,1,1.163-1.163l1.047-.116c.931-.116,1.628.465,1.512,1.279l-2.792,21.286a1.494,1.494,0,0,1-1.163,1.163l-.814.116a1.2,1.2,0,0,1-1.4-.814l-8.026-19.89c-.349-.814.233-1.512,1.163-1.628l1.047-.116a1.317,1.317,0,0,1,1.4.814Z" transform="translate(-143.312 -42.503)"/>
                <path id="Path_132751" data-name="Path 132751" class="cls-9" d="M159.715,55.058c-.582-4.3,1.279-6.979,5.351-7.444,4.187-.582,6.514,1.512,7.1,5.816l1.28,9.654c.349,2.675-.233,4.42-1.28,5.583a5.99,5.99,0,0,1-4.071,1.861,6.094,6.094,0,0,1-4.42-.814c-1.279-.931-2.326-2.326-2.675-5.118Zm5.118,9.189c.233,2.21,1.279,3.257,2.908,3.024s2.326-1.279,1.977-3.606l-1.28-9.654c-.349-2.326-1.163-3.141-2.908-3.024-1.628.233-2.326,1.4-1.977,3.606Z" transform="translate(-140.653 -42.71)"/>
                <path id="Path_132752" data-name="Path 132752" class="cls-9" d="M173.6,47.778a1.289,1.289,0,0,1,1.163-1.4l10-1.279a1.256,1.256,0,0,1,1.512,1.047l.116.931a1.289,1.289,0,0,1-1.163,1.4l-3.141.349L184.42,67.2a1.289,1.289,0,0,1-1.163,1.4l-1.047.116a1.256,1.256,0,0,1-1.512-1.047L178.371,49.29l-3.024.349a1.256,1.256,0,0,1-1.512-1.047Z" transform="translate(-138.372 -43.107)"/>
                <path id="Path_132753" data-name="Path 132753" class="cls-9" d="M197.924,43.4a1.256,1.256,0,0,1,1.512,1.047l.116.931a1.289,1.289,0,0,1-1.163,1.4l-5.816.7.814,6.4,4.769-.582a1.256,1.256,0,0,1,1.512,1.047l.116.931a1.289,1.289,0,0,1-1.163,1.4l-4.769.582.814,6.514,5.816-.7a1.256,1.256,0,0,1,1.512,1.047l.116.931a1.289,1.289,0,0,1-1.163,1.4L192.69,67.48a1.256,1.256,0,0,1-1.512-1.047L188.5,45.845a1.289,1.289,0,0,1,1.163-1.4Z" transform="translate(-135.941 -43.385)"/>
              </g>
            </g>
          </g>
          <g id="Group_39065" data-name="Group 39065" transform="translate(91.335 28.162)">
            <g id="Group_39063" data-name="Group 39063" transform="translate(0.099 2.161)">
              <path id="Path_132754" data-name="Path 132754" class="cls-15" d="M240.446,66.846V66.5c.582-7.212-5.7-13.609-13.842-14.191a18.7,18.7,0,0,0-3.606.116,15.024,15.024,0,0,0-9.189,5,12.669,12.669,0,0,0-2.443,4.42,21.889,21.889,0,0,0-.814,6.165,50.728,50.728,0,0,0-.349,5.932,12.186,12.186,0,0,0,4.769,9.073c3.373,2.559,8.026,1.861,11.632.582a23.185,23.185,0,0,0,9.422-6.281A19.083,19.083,0,0,0,240.446,66.846Z" transform="translate(-210.18 -52.259)"/>
            </g>
            <g id="Group_39064" data-name="Group 39064">
              <path id="Path_132755" data-name="Path 132755" class="cls-12" d="M241.739,62.148c-.116-4.42-3.606-7.1-8.142-9.654a11.386,11.386,0,0,0-6.63-1.163c-1.163.116-1.4-.582-2.326-.814-1.861-.465-2.908.582-5.234,1.279s-3.141-.116-5.351,1.163a4.879,4.879,0,0,0-1.628,2.094,4.8,4.8,0,0,1-.814,1.279c-1.4,1.861-2.094,4.536-.931,8.375,0,.116,0,.116.116.233a11.941,11.941,0,0,1,.582-2.792c.233-.582.465-1.163.7-1.628a.908.908,0,0,1,.465-.465.769.769,0,0,1,.7.116,5.263,5.263,0,0,0,3.024,1.047c2.792.233,3.141-2.094,6.165-1.861,2.908.233,2.792,2.443,6.746,3.257a10.644,10.644,0,0,0,1.861.116.888.888,0,0,1,.582.233.769.769,0,0,1,.116.7,4.272,4.272,0,0,0-.116,2.094,12.5,12.5,0,0,1,.116,3.606c-.116.582-.233,1.047-.349,1.628a2.992,2.992,0,0,0-.116,1.745c.233.582.814.233,1.047-.233a4.166,4.166,0,0,0,.465-1.279,6.491,6.491,0,0,1,1.047-2.443.888.888,0,0,1,.582-.233.64.64,0,0,1,.582.349,7.859,7.859,0,0,0,3.024,2.908.829.829,0,0,1,.349.7,3.4,3.4,0,0,1-.233,1.047,8.136,8.136,0,0,1-1.977,3.606,23.655,23.655,0,0,1-5.467,4.885h0c4.187.349,4.536-.7,5-1.628.465-1.047.814-2.326,1.512-2.908h0C245.694,70.29,241.855,66.568,241.739,62.148Zm-10.12,19.309a5.054,5.054,0,0,1-.814.465C231.038,81.805,231.387,81.573,231.619,81.456Z" transform="translate(-210.095 -50.401)"/>
            </g>
          </g>
        </g>
        <g id="Group_39115" data-name="Group 39115" transform="translate(119.239 38.876)">
          <g id="Group_39071" data-name="Group 39071" transform="translate(0 18.273)">
            <g id="Group_39067" data-name="Group 39067">
              <path id="Path_132756" data-name="Path 132756" class="cls-4" d="M239.686,79.368a.742.742,0,0,0,.7,0,.64.64,0,0,0,.349-.582,10.009,10.009,0,0,1,.814-2.908.963.963,0,1,1,1.745.814,9.671,9.671,0,0,0-.7,2.21c-.349,3.722,1.745,4.187.582,6.514-.931,1.861-3.49,2.443-5.816,1.279s-4.42-1.628-2.559-5.467C236.429,77.972,237.825,78.437,239.686,79.368Z" transform="translate(-234.085 -75.322)"/>
            </g>
            <g id="Group_39068" data-name="Group 39068" transform="translate(3.567 6.199)">
              <path id="Path_132757" data-name="Path 132757" class="cls-4" d="M284.433,97.225a.888.888,0,0,1-.582.233l-22.216,8.375a9.225,9.225,0,0,1-10.585-3.141L237.557,84.2a2.245,2.245,0,1,1,3.606-2.675l13.493,18.494a4.7,4.7,0,0,0,5.351,1.628l22.217-8.375a2.231,2.231,0,0,1,2.908,1.279A2.132,2.132,0,0,1,284.433,97.225Z" transform="translate(-237.151 -80.651)"/>
            </g>
            <g id="Group_39069" data-name="Group 39069" transform="translate(5.601 9.397)">
              <path id="Path_132758" data-name="Path 132758" class="cls-6" d="M243.553,85.261c.233-.116.465-.349.814-.582l-.814-1.163a.7.7,0,0,0-.465-.116c-2.675,1.861-1.512,1.047-4.071,2.908-.116.116-.116.233-.116.465l.814,1.163c2.675-1.977,1.861-1.279,3.838-2.675Z" transform="translate(-238.9 -83.4)"/>
            </g>
            <g id="Group_39070" data-name="Group 39070" transform="translate(6.251 10.395)">
              <path id="Path_132759" data-name="Path 132759" class="cls-3" d="M261.607,106.291l22.217-8.375a2.916,2.916,0,0,0,.814-.465A3.314,3.314,0,0,0,285.8,93.5a3.421,3.421,0,0,0-1.745-1.861,3.874,3.874,0,0,0-2.559-.116l-22.216,8.375a3.476,3.476,0,0,1-3.955-1.163L244.974,84.423a.512.512,0,0,0-.582-.116l-.116.116c-.349.233-.582.465-.814.582h0c-1.977,1.4-1.047.7-3.722,2.675l-.116.116c-.116.116-.233.349-.116.465l10.352,14.307A9.9,9.9,0,0,0,261.607,106.291Z" transform="translate(-239.459 -84.259)"/>
            </g>
          </g>
          <g id="Group_39077" data-name="Group 39077" transform="translate(46.777 2.35)">
            <g id="Group_39072" data-name="Group 39072" transform="translate(0.233 22.411)">
              <path id="Path_132760" data-name="Path 132760" class="cls-12" d="M290.9,91.02c.233-2.443.349-4.187.582-5.583a12.663,12.663,0,0,1-2.908,1.163c-3.257,1.047-7.444,1.628-10.352-.7a10.628,10.628,0,0,1-3.49-5c-.116.7-.116,1.279-.233,1.977,0,0,.233,14.54,13.609,15.819,3.955.349,6.979.7,9.538.931C290.784,98.929,290.9,91.02,290.9,91.02Z" transform="translate(-274.5 -80.9)"/>
            </g>
            <g id="Group_39073" data-name="Group 39073" transform="translate(10.817 18.799)">
              <path id="Path_132761" data-name="Path 132761" class="cls-4" d="M287.09,97.807h-.465A3.631,3.631,0,0,1,283.6,94.2l.582-13.027A3.528,3.528,0,0,1,287.9,77.8a3.7,3.7,0,0,1,3.49,3.722l-.582,13.027A3.513,3.513,0,0,1,287.09,97.807Z" transform="translate(-283.6 -77.795)"/>
            </g>
            <g id="Group_39074" data-name="Group 39074" transform="translate(10.934 18.683)">
              <path id="Path_132762" data-name="Path 132762" class="cls-17" d="M291.028,87.355l.233-5.932a3.611,3.611,0,0,0-7.212-.349l-.349,8.607a15.393,15.393,0,0,0,3.838-.931A15.616,15.616,0,0,0,291.028,87.355Z" transform="translate(-283.7 -77.695)"/>
            </g>
            <g id="Group_39075" data-name="Group 39075" transform="translate(0 0.235)">
              <path id="Path_132763" data-name="Path 132763" class="cls-4" d="M301.286,74.706c.582-6.4-4.769-12.213-11.864-12.795a10.33,10.33,0,0,0-3.257.116,13.62,13.62,0,0,0-8.259,4.3,10.66,10.66,0,0,0-2.21,3.838,21.564,21.564,0,0,0-.93,5.583c-.116,1.745-.465,3.49-.465,5.234a10.534,10.534,0,0,0,4.071,8.142c2.908,2.326,6.979,1.745,10.352.7A18.809,18.809,0,0,0,297.1,84.36a17.869,17.869,0,0,0,4.187-9.305A.218.218,0,0,1,301.286,74.706Z" transform="translate(-274.3 -61.834)"/>
            </g>
            <g id="Group_39076" data-name="Group 39076" transform="translate(5.118)">
              <path id="Path_132764" data-name="Path 132764" class="cls-12" d="M290.913,71.6a13.544,13.544,0,0,1-4.071-4.187c-.814-1.279-1.4-2.675-2.21-3.722a6.666,6.666,0,0,0-1.28-1.279,2.916,2.916,0,0,0-.814-.465,5.348,5.348,0,0,0-3.838.116,8.589,8.589,0,0,0,.233,1.4c.116.349.116.7.233,1.047a13.226,13.226,0,0,0,3.373,5.816,13.363,13.363,0,0,0,9.305,3.838,13.078,13.078,0,0,0,3.49-.349A19.492,19.492,0,0,1,290.913,71.6Z" transform="translate(-278.7 -61.633)"/>
            </g>
          </g>
          <g id="Group_39078" data-name="Group 39078" transform="translate(56.67 82.642)">
            <path id="Path_132765" data-name="Path 132765" class="cls-4" d="M288.266,130.939A3.321,3.321,0,0,0,286.4,133.5l-3.373,34.43a46.67,46.67,0,0,0,3.955,23.845l12.33,26.869a3.207,3.207,0,0,0,4.187,1.512,2.925,2.925,0,0,0,1.512-4.071l-12.33-26.869a40.919,40.919,0,0,1-3.49-20.7l3.373-34.43a3.048,3.048,0,0,0-2.792-3.373A2.218,2.218,0,0,0,288.266,130.939Z" transform="translate(-282.805 -130.661)"/>
          </g>
          <g id="Group_39079" data-name="Group 39079" transform="translate(40.068 82.625)">
            <path id="Path_132766" data-name="Path 132766" class="cls-4" d="M277.219,223.879a3.019,3.019,0,0,1-3.024-2.443c-6.863-33.848-7.444-61.764-1.977-88.284a3.184,3.184,0,0,1,3.722-2.443,3.039,3.039,0,0,1,2.443,3.606c-5.234,25.706-4.653,52.924,1.977,85.842a3.066,3.066,0,0,1-2.443,3.606A1.475,1.475,0,0,1,277.219,223.879Z" transform="translate(-268.532 -130.647)"/>
          </g>
          <g id="Group_39080" data-name="Group 39080" transform="translate(43.093 35.398)">
            <path id="Path_132767" data-name="Path 132767" class="cls-4" d="M297.5,138.264a32.753,32.753,0,0,0-1.628-7.444,18.377,18.377,0,0,0-2.326-4.187c.233.349.465.814.7,1.163-2.559-4.071-4.071-8.026-1.28-12.911l3.024-5.234a29.9,29.9,0,0,0,1.745-3.373c5-11.05-.116-15.47-8.258-16.168-9.189-.814-12.213,6.165-13.144,12.33a17.524,17.524,0,0,0,0,6.514l.582,6.979a11.932,11.932,0,0,1-1.279,6.63L273.77,126.4a23.738,23.738,0,0,0-2.559,9.422c-.814,8.956,4.769,11.632,14.423,12.562C285.518,148.384,298.545,150.129,297.5,138.264Z" transform="translate(-271.133 -90.044)"/>
          </g>
          <g id="Group_39081" data-name="Group 39081" transform="translate(39.333 72.452)">
            <path id="Path_132768" data-name="Path 132768" class="cls-2" d="M296.281,124.343a18.6,18.6,0,0,0-1.28-2.21.6.6,0,0,0-.465-.233H273.018c-.233,0-.349.116-.465.349-.465,1.047-1.628,3.838-1.628,9.538v1.163a40.377,40.377,0,0,1-.582,9.887,170.768,170.768,0,0,0-2.443,28.614.5.5,0,0,0,.465.465H294.3a.5.5,0,0,0,.465-.465V156.1a95.106,95.106,0,0,1,.349-10.817,14.47,14.47,0,0,1,2.094-6.048c.931-1.279,1.977-3.49,1.279-7.561A22.07,22.07,0,0,0,296.281,124.343Z" transform="translate(-267.9 -121.9)"/>
          </g>
          <g id="Group_39096" data-name="Group 39096" transform="translate(41.543 34.649)">
            <g id="Group_39082" data-name="Group 39082" transform="translate(0 1.512)">
              <path id="Path_132769" data-name="Path 132769" class="cls-3" d="M298.53,91.282c-1.047-.233-1.977-.465-2.792-.582a24.12,24.12,0,0,0-.465,4.653,1.013,1.013,0,0,1-.7.931l-.7.233a15.894,15.894,0,0,0,.465,2.675,4.8,4.8,0,0,1-1.28-.814c-.465.349-1.047.814-1.977,1.512a26.721,26.721,0,0,0-2.326,1.977,63.62,63.62,0,0,0-5.932,6.63l6.4.582a4.029,4.029,0,0,0,3.024-1.047,5.028,5.028,0,0,0,1.512-3.141c-.349,3.838-3.024,6.746-5.932,6.4l-6.746-.582-3.722-.349a5.768,5.768,0,0,1-2.326-.931v.349l.582,6.863c.349,4.42-1.745,6.863-2.908,9.771h0a26.315,26.315,0,0,0-2.792,9.771,11.96,11.96,0,0,0-.116,1.977.5.5,0,0,0,.465.465l1.861.116c2.094.233,4.769-3.606,5.351-6.048,0-.233.116-.582.116-.814a2.27,2.27,0,0,1-.116.814,6.662,6.662,0,0,0,5.932,7.1c.349,0,15.121,1.4,14.772,1.4a.411.411,0,0,0,.465-.465v-2.094a26.115,26.115,0,0,0-3.373-10.817v-.116c-2.559-4.071-3.722-7.444-1.28-11.632a55.694,55.694,0,0,0,2.908-5.234h0a32.794,32.794,0,0,0,3.141-7.1,18.584,18.584,0,0,1,2.675-5.234,3.154,3.154,0,0,0,.233-3.606A5.238,5.238,0,0,0,298.53,91.282Z" transform="translate(-269.8 -90.7)"/>
            </g>
            <g id="Group_39083" data-name="Group 39083" transform="translate(24.057 1.279)">
              <path id="Path_132770" data-name="Path 132770" class="cls-2" d="M290.5,96.432l.7-.233a1.013,1.013,0,0,0,.7-.931,25,25,0,0,1,.465-4.653.427.427,0,0,1-.349-.116A10.864,10.864,0,0,0,290.5,96.432Z" transform="translate(-290.482 -90.5)"/>
            </g>
            <g id="Group_39084" data-name="Group 39084" transform="translate(14.772 1.348)">
              <path id="Path_132771" data-name="Path 132771" class="cls-6" d="M286.8,94.213a6.493,6.493,0,0,0,.582.931,10.131,10.131,0,0,0,3.49,3.141c.349.233.814.465,1.279.814a9.16,9.16,0,0,1-.465-2.675,9.859,9.859,0,0,1,1.628-5.816h-.233a2.418,2.418,0,0,0-1.279.116c-5.234,1.745-7.444,2.908-9.305,4.653l3.141-1.512A.806.806,0,0,1,286.8,94.213Z" transform="translate(-282.5 -90.559)"/>
            </g>
            <g id="Group_39085" data-name="Group 39085" transform="translate(11.515 15.47)">
              <path id="Path_132772" data-name="Path 132772" class="cls-2" d="M286.33,109.1c2.908.233,5.467-2.559,5.932-6.4a4.752,4.752,0,0,1-1.512,3.141,3.623,3.623,0,0,1-3.024,1.047l-6.4-.582c-.931,1.279-1.628,2.094-1.628,2.094Z" transform="translate(-279.7 -102.7)"/>
            </g>
            <g id="Group_39086" data-name="Group 39086" transform="translate(11.515 5.932)">
              <path id="Path_132773" data-name="Path 132773" class="cls-2" d="M287.958,94.5a19.632,19.632,0,0,0-1.977,3.489l-.349.7a98.447,98.447,0,0,1-4.769,8.956,14.018,14.018,0,0,0-1.163,2.21s.7-.931,1.628-2.094a52.658,52.658,0,0,1,5.932-6.63c.931-.814,1.628-1.4,2.326-1.977.93-.7,1.512-1.163,1.977-1.512A9.559,9.559,0,0,1,287.958,94.5Z" transform="translate(-279.7 -94.5)"/>
            </g>
            <g id="Group_39087" data-name="Group 39087" transform="translate(9.521 3.838)">
              <path id="Path_132774" data-name="Path 132774" class="cls-6" d="M280.561,92.7a19.366,19.366,0,0,0-1.861,4.653c-.116.349-.116.582-.233.931a17.17,17.17,0,0,0,.349,9.422,11.372,11.372,0,0,0,1.163,2.326,9.989,9.989,0,0,1,1.163-2.21,98.445,98.445,0,0,0,4.769-8.956l.349-.7a24.853,24.853,0,0,1,1.977-3.49,4.081,4.081,0,0,1-.582-.931.9.9,0,0,0-1.163-.349l-3.141,1.512-2.443-2.094C280.794,92.816,280.678,92.7,280.561,92.7Z" transform="translate(-277.985 -92.7)"/>
            </g>
            <g id="Group_39088" data-name="Group 39088" transform="translate(11.166 3.955)">
              <path id="Path_132775" data-name="Path 132775" class="cls-6" d="M287.31,93.847a.9.9,0,0,0-1.163-.349l-3.141,1.512-2.443-2.094a.427.427,0,0,0-.349-.116,11.741,11.741,0,0,0-.814,1.745l.582-.582,2.21,1.977h0c.116,0,.116.116.233.116h.116c.116,0,.233.116.349.116h.582l2.908-1.4a4.922,4.922,0,0,0,.582.814c.116.116.233.233.233.349l.7-1.047A4.717,4.717,0,0,0,287.31,93.847Z" transform="translate(-279.4 -92.8)"/>
            </g>
            <g id="Group_39089" data-name="Group 39089" transform="translate(7.91 0.112)">
              <path id="Path_132776" data-name="Path 132776" class="cls-6" d="M277.879,94.735a10.048,10.048,0,0,0-1.279,3.024.406.406,0,0,1,.116-.233,4.079,4.079,0,0,1,.582-.931,12.171,12.171,0,0,1,.931-1.279c.582-.7,1.163-1.279,1.745-1.861a1.107,1.107,0,0,1,.814-.233c.116,0,.233.116.349.116l2.443,2.094a7.9,7.9,0,0,1,.349-5.234c.116-.116,0-.349,0-.465a.6.6,0,0,0-.465-.233h0C283.23,89.384,279.624,91.827,277.879,94.735Z" transform="translate(-276.6 -89.497)"/>
            </g>
            <g id="Group_39090" data-name="Group 39090" transform="translate(9.027 0.233)">
              <path id="Path_132777" data-name="Path 132777" class="cls-2" d="M277.839,93.555a.9.9,0,0,0-.116,1.163,15.184,15.184,0,0,1,5.583-5.118h0C281.445,90.182,278.886,92.508,277.839,93.555Z" transform="translate(-277.561 -89.6)"/>
            </g>
            <g id="Group_39091" data-name="Group 39091" transform="translate(3.239 14.074)">
              <path id="Path_132778" data-name="Path 132778" class="cls-2" d="M280.861,108.712a21.261,21.261,0,0,1-1.512-2.443l-3.141-.349-1.4-.116H274.7c-1.279-.233-2.21-2.094-2.094-4.3a8.2,8.2,0,0,0,1.047,4.536,4.654,4.654,0,0,0,1.163,1.4,3.458,3.458,0,0,0,2.326.931Z" transform="translate(-272.585 -101.5)"/>
            </g>
            <g id="Group_39092" data-name="Group 39092" transform="translate(7.822 3.793)">
              <path id="Path_132779" data-name="Path 132779" class="cls-2" d="M278.706,98.29c.116-.349.116-.582.233-.931a17.58,17.58,0,0,1,1.861-4.653.719.719,0,0,0-.814.233,8.743,8.743,0,0,0-1.745,1.861l.582.931-1.28.233c-.116,0-.233,0-.233.116a6.5,6.5,0,0,0-.582.931,3.585,3.585,0,0,0-.116,1.163,8.549,8.549,0,0,0,0,2.443,17.07,17.07,0,0,0,2.094,7.212,21.264,21.264,0,0,0,1.512,2.443,11.368,11.368,0,0,1-1.163-2.326A18.24,18.24,0,0,1,278.706,98.29Z" transform="translate(-276.525 -92.661)"/>
            </g>
            <g id="Group_39093" data-name="Group 39093" transform="translate(8.608 5.816)">
              <path id="Path_132780" data-name="Path 132780" class="cls-3" d="M278.712,95.331l-.582-.931a5.165,5.165,0,0,0-.931,1.279c.116,0,.116-.116.233-.116Z" transform="translate(-277.2 -94.4)"/>
            </g>
            <g id="Group_39094" data-name="Group 39094" transform="translate(2.908)">
              <path id="Path_132781" data-name="Path 132781" class="cls-3" d="M274.626,107.778h.116l1.4.116,3.141.349a16.561,16.561,0,0,1-2.094-7.212V98.589c0-.465.116-.931.116-1.163,0,.116-.116.116-.116.233a10.049,10.049,0,0,1,1.28-3.024,1.07,1.07,0,0,1,.116-1.163c1.047-1.047,3.49-3.49,5.351-4.071-.93,0-1.977.116-3.257.116H279.4c-2.559-.116-5.351,1.512-5.7,4.3a4.142,4.142,0,0,0,.814,2.792,2,2,0,0,1-.349,2.675c-.116.116-.233.116-.349.233a5.028,5.028,0,0,0-1.512,3.141v.582C272.416,105.684,273.347,107.545,274.626,107.778Z" transform="translate(-272.3 -89.4)"/>
            </g>
            <g id="Group_39095" data-name="Group 39095" transform="translate(10.352 18.843)">
              <path id="Path_132782" data-name="Path 132782" class="cls-6" d="M280.91,105.833l-2.21-.233h0a11.371,11.371,0,0,0,1.163,2.326,9.872,9.872,0,0,1,1.047-2.094Z" transform="translate(-278.7 -105.6)"/>
            </g>
          </g>
          <g id="Group_39101" data-name="Group 39101" transform="translate(22.449 20.367)">
            <g id="Group_39097" data-name="Group 39097">
              <path id="Path_132783" data-name="Path 132783" class="cls-4" d="M258.986,81.168a.742.742,0,0,0,.7,0,.64.64,0,0,0,.349-.582,10.008,10.008,0,0,1,.814-2.908.963.963,0,1,1,1.745.814,9.672,9.672,0,0,0-.7,2.21c-.349,3.722,1.745,4.187.582,6.514-.931,1.861-3.489,2.443-5.816,1.279s-4.42-1.628-2.559-5.467C255.729,79.772,257.125,80.121,258.986,81.168Z" transform="translate(-253.385 -77.122)"/>
            </g>
            <g id="Group_39098" data-name="Group 39098" transform="translate(3.567 6.199)">
              <path id="Path_132784" data-name="Path 132784" class="cls-4" d="M303.733,99.025a.889.889,0,0,1-.582.233l-22.217,8.375a9.225,9.225,0,0,1-10.585-3.141L256.857,86a2.245,2.245,0,0,1,3.606-2.675l13.493,18.494a4.7,4.7,0,0,0,5.351,1.628l22.217-8.375a2.231,2.231,0,0,1,2.908,1.279A2.17,2.17,0,0,1,303.733,99.025Z" transform="translate(-256.451 -82.451)"/>
            </g>
            <g id="Group_39099" data-name="Group 39099" transform="translate(5.601 9.397)">
              <path id="Path_132785" data-name="Path 132785" class="cls-6" d="M262.853,87.061c.233-.116.465-.349.814-.582l-.814-1.163a.7.7,0,0,0-.465-.116c-2.675,1.861-1.512,1.047-4.071,2.908-.116.116-.116.233-.116.465l.814,1.163c2.675-1.977,1.861-1.279,3.838-2.675Z" transform="translate(-258.2 -85.2)"/>
            </g>
            <g id="Group_39100" data-name="Group 39100" transform="translate(6.251 10.395)">
              <path id="Path_132786" data-name="Path 132786" class="cls-3" d="M280.907,108.091l22.217-8.375a2.916,2.916,0,0,0,.814-.465A3.314,3.314,0,0,0,305.1,95.3a3.422,3.422,0,0,0-1.745-1.861,3.874,3.874,0,0,0-2.559-.116l-22.217,8.375a3.476,3.476,0,0,1-3.955-1.163L264.274,86.223a.511.511,0,0,0-.582-.116l-.116.116c-.349.233-.582.465-.814.582h0c-1.977,1.4-1.047.7-3.722,2.675l-.116.116c-.116.116-.233.349-.116.465l10.352,14.307A9.9,9.9,0,0,0,280.907,108.091Z" transform="translate(-258.759 -86.059)"/>
            </g>
          </g>
          <g id="Group_39102" data-name="Group 39102" transform="translate(48.522)">
            <path id="Path_132787" data-name="Path 132787" class="cls-12" d="M276.149,68.787a9.323,9.323,0,0,1,1.512-2.21c.582-.582,1.163-1.163,1.861-1.745a3.4,3.4,0,0,1-.233-1.047,8.589,8.589,0,0,1-.233-1.4,5.348,5.348,0,0,1,3.838-.116,1.875,1.875,0,0,1,.814.465,6.665,6.665,0,0,1,1.279,1.279c.465.233.931.582,1.512.931,1.861,1.279,3.722,4.071,4.769,6.979a21.1,21.1,0,0,0,4.3,2.21,13.077,13.077,0,0,1-3.489.349,7.988,7.988,0,0,1,.233,2.792c-.582,6.514-.7,7.91-1.047,11.632-.116,1.4-.349,3.141-.582,5.583,0,0-.233,7.793,6.746,8.491,6.048.582,8.142.7,8.142.7s-5.118-.7-4.42-8.258,1.861-20.007,1.861-20.007,1.628-14.191-13.958-15.7c-5.234-.465-8.491.7-10.469,2.559A10.013,10.013,0,0,0,275.8,69.02C276.033,69.02,276.033,68.9,276.149,68.787Z" transform="translate(-275.8 -59.612)"/>
          </g>
          <g id="Group_39108" data-name="Group 39108" transform="translate(71 166.094)">
            <g id="Group_39103" data-name="Group 39103" transform="translate(8.346 1.505)">
              <path id="Path_132788" data-name="Path 132788" class="cls-11" d="M302.765,206.724l1.279-.931h0A9.824,9.824,0,0,0,302.3,203.7,3.972,3.972,0,0,1,302.765,206.724Z" transform="translate(-302.3 -203.7)"/>
            </g>
            <g id="Group_39104" data-name="Group 39104" transform="translate(0 5.501)">
              <path id="Path_132789" data-name="Path 132789" class="cls-11" d="M298.236,210.235l2.094-1.512a3.9,3.9,0,0,0-5.118-1.047,10.287,10.287,0,0,0,0,2.675c.116-.116.349-.233.465-.349A1.85,1.85,0,0,1,298.236,210.235Z" transform="translate(-295.125 -207.135)"/>
            </g>
            <g id="Group_39105" data-name="Group 39105" transform="translate(0.436 3.715)">
              <path id="Path_132790" data-name="Path 132790" class="cls-11" d="M300.385,208.973l-2.094,1.512-2.792,1.977h0a1.48,1.48,0,0,0,.814,1.047,1.248,1.248,0,0,0,1.279-.116l6.979-5a2.06,2.06,0,0,0,.582-2.792l-1.28.931Z" transform="translate(-295.5 -205.6)"/>
            </g>
            <g id="Group_39106" data-name="Group 39106" transform="translate(0.087)">
              <path id="Path_132791" data-name="Path 132791" class="cls-4" d="M300.434,209.494l3.49-2.443a3.278,3.278,0,0,0-.582-3.024h0c-1.512-1.4-3.373-2.326-5.467-.931a7.261,7.261,0,0,0-2.675,5.351A4.057,4.057,0,0,1,300.434,209.494Z" transform="translate(-295.2 -202.406)"/>
            </g>
            <g id="Group_39107" data-name="Group 39107" transform="translate(0.087 7.945)">
              <path id="Path_132792" data-name="Path 132792" class="cls-4" d="M295.665,209.543c-.116.116-.349.233-.465.349a11.458,11.458,0,0,0,.233,1.977l2.792-1.977A2.023,2.023,0,0,0,295.665,209.543Z" transform="translate(-295.2 -209.237)"/>
            </g>
          </g>
          <g id="Group_39114" data-name="Group 39114" transform="translate(40.787 169.227)">
            <g id="Group_39109" data-name="Group 39109" transform="translate(10.527 3.838)">
              <path id="Path_132793" data-name="Path 132793" class="cls-11" d="M278.2,211.192h1.512a23.363,23.363,0,0,0-.116-2.792A3.768,3.768,0,0,1,278.2,211.192Z" transform="translate(-278.2 -208.4)"/>
            </g>
            <g id="Group_39110" data-name="Group 39110" transform="translate(0.989 2.792)">
              <path id="Path_132794" data-name="Path 132794" class="cls-11" d="M272.559,211.338h2.559a3.981,3.981,0,0,0-3.49-3.838A25.546,25.546,0,0,0,270,209.594h.582A2.039,2.039,0,0,1,272.559,211.338Z" transform="translate(-270 -207.5)"/>
            </g>
            <g id="Group_39111" data-name="Group 39111" transform="translate(0 6.514)">
              <path id="Path_132795" data-name="Path 132795" class="cls-11" d="M275.373,210.816h-6.048a1.255,1.255,0,0,0,0,1.279,1.432,1.432,0,0,0,1.163.582H279.1a2.064,2.064,0,0,0,2.094-1.977h-5.816Z" transform="translate(-269.15 -210.7)"/>
            </g>
            <g id="Group_39112" data-name="Group 39112" transform="translate(2.734)">
              <path id="Path_132796" data-name="Path 132796" class="cls-4" d="M274.99,211.73h4.3a3.768,3.768,0,0,0,1.4-2.792h0c-.349-1.977-1.4-3.838-3.838-3.838a7.4,7.4,0,0,0-5.351,2.792A4.077,4.077,0,0,1,274.99,211.73Z" transform="translate(-271.5 -205.1)"/>
            </g>
            <g id="Group_39113" data-name="Group 39113" transform="translate(0.175 4.885)">
              <path id="Path_132797" data-name="Path 132797" class="cls-4" d="M270.812,209.3h-.582a12.721,12.721,0,0,0-.931,1.745h3.49A2.229,2.229,0,0,0,270.812,209.3Z" transform="translate(-269.3 -209.3)"/>
            </g>
          </g>
        </g>
      </g>
    </g>
  </g>
</svg>
