<svg xmlns="http://www.w3.org/2000/svg" viewBox="0 0 203 195.198">
  <defs>
    <style>
      .cls-1 {
        fill: rgba(255,255,255,0);
      }

      .cls-2 {
        fill: #566539;
      }

      .cls-3 {
        fill: #a2be6c;
      }

      .cls-4 {
        fill: #fff;
      }

      .cls-5 {
        fill: #707070;
        font-size: 12px;
        font-family: CenturyGothic-Bold, Century Gothic;
        font-weight: 700;
        letter-spacing: 0.1em;
      }
    </style>
  </defs>
  <g id="Group_40350" data-name="Group 40350" transform="translate(-4055 924.797)">
    <rect id="Rectangle_1224" data-name="Rectangle 1224" class="cls-1" width="203" height="195.198" transform="translate(4055 -924.797)"/>
    <g id="Group_39189" data-name="Group 39189" transform="translate(-761 -255)">
      <path id="Path_136030" data-name="Path 136030" class="cls-2" d="M68.988,308.433l-.033,8.122v.3a2.509,2.509,0,0,1-.033.5c0,.133-.033.232-.033.365a.421.421,0,0,1-.033.2.3.3,0,0,1-.033.166c0,.133-.033.232-.033.332a.122.122,0,0,1-.033.1.968.968,0,0,1-.066.3c0,.033,0,.066-.033.066v.033c-.066.3-.133.6-.232.928l-.3.9a15.907,15.907,0,0,1-.862,1.89c0,.033-.033.033-.033.066-.033.066-.1.166-.133.232l-.1.2a1.439,1.439,0,0,0-.133.232,2.918,2.918,0,0,0-.2.332c-.033.033-.066.1-.1.133a3.47,3.47,0,0,1-.265.365c-.033.033-.033.066-.066.1a2.5,2.5,0,0,1-.365.464c-.066.066-.133.166-.2.232a5.1,5.1,0,0,1-.564.63c-.1.1-.166.2-.265.3-.3.332-.6.63-.928.961l-.2.2c-.3.3-.63.564-.961.862-.332.265-.7.564-1.061.829a4.749,4.749,0,0,1-.5.365c-.53.365-1.094.762-1.691,1.127a.172.172,0,0,1-.133.066c-.133.066-.265.166-.431.265-.265.166-.564.332-.829.464a.1.1,0,0,1-.066.033c-.265.166-.564.3-.829.431h0c-.265.133-.564.265-.829.4-.1.033-.166.1-.265.133-.2.1-.4.166-.564.265-.1.033-.2.1-.3.133-.2.1-.431.166-.63.265-.1.033-.2.1-.3.133-.033,0-.033.033-.066.033l-.8.3c-.332.133-.63.232-.961.365-.033,0-.033.033-.066.033-.332.1-.63.232-.961.332-.5.166-.995.332-1.525.464-.232.066-.464.133-.663.2-.133.033-.265.066-.365.1-.2.066-.431.1-.63.166-.265.066-.53.133-.829.2a6.278,6.278,0,0,1-.762.166c-.066,0-.1.033-.166.033a5.618,5.618,0,0,1-.729.133c-.265.066-.564.1-.829.166-.365.066-.7.133-1.061.166-.066,0-.133.033-.2.033a8.93,8.93,0,0,1-.928.133c-.4.066-.8.1-1.227.166-.332.033-.63.066-.961.1h-.133c-.6.066-1.193.1-1.823.133a6.39,6.39,0,0,1-.8.033c-.166,0-.3.033-.464.033-.232,0-.464.033-.663.033h-.066a8.081,8.081,0,0,0-.9.033H33.218a2.853,2.853,0,0,1-.53-.033c-.431,0-.862-.033-1.293-.066l-1.591-.1c-.3-.033-.564-.033-.829-.066h-.033c-.5-.066-.995-.1-1.525-.166a.647.647,0,0,1-.232-.033c-.232-.033-.5-.066-.729-.1a6.634,6.634,0,0,1-.8-.133h-.066c-.564-.1-1.094-.166-1.624-.265-.3-.066-.6-.133-.928-.2-.2-.033-.4-.1-.6-.133a3.1,3.1,0,0,1-.53-.133,6.449,6.449,0,0,1-.663-.166h-.033l-.8-.2c-.166-.033-.365-.1-.53-.133a2.443,2.443,0,0,1-.464-.133h-.033c-.3-.066-.564-.166-.829-.232a1.188,1.188,0,0,1-.365-.133,5.155,5.155,0,0,1-.762-.265c-.332-.1-.663-.232-.995-.331a4.429,4.429,0,0,1-.6-.232.479.479,0,0,0-.232-.066c-.133-.033-.232-.1-.365-.133-.1-.033-.166-.066-.265-.1-.2-.066-.4-.166-.6-.232-.3-.1-.564-.232-.862-.365-.232-.1-.431-.2-.663-.3a4.126,4.126,0,0,1-.663-.332,3.032,3.032,0,0,1-.464-.232,3.08,3.08,0,0,0-.332-.166c-.4-.2-.8-.431-1.193-.663C3.381,326.633,0,321.494,0,316.356L.033,308.3c0,5.138,3.381,10.277,10.178,14.189.4.232.8.431,1.193.663a3.08,3.08,0,0,0,.332.166c.133.066.3.166.464.232.232.1.464.232.663.332s.431.2.663.3c.033,0,.033.033.066.033a5.1,5.1,0,0,0,.63.265l.7.3.3.1c.033,0,.066.033.133.033.265.1.564.232.862.332a.1.1,0,0,1,.066.033c.3.1.564.2.862.3a1.616,1.616,0,0,1,.365.133c.265.1.5.166.762.265.033,0,.066.033.133.033l.995.3h.033c.3.066.6.166.9.232s.6.166.9.232h.033c.2.066.431.1.663.166a3.1,3.1,0,0,1,.53.133c.2.033.4.1.6.133,1.127.232,2.254.431,3.415.6h.033c.53.066,1.094.133,1.624.2.564.066,1.127.133,1.691.166.3.033.564.033.829.066q1.193.1,2.387.1c.53.033,1.094.033,1.624.033h.829a6.938,6.938,0,0,0,.829-.033c.265-.033.564,0,.829-.033.265,0,.53-.033.8-.033h.1c.265,0,.5-.033.762-.033.6-.033,1.16-.1,1.724-.133h.033c.332-.033.63-.066.928-.1.4-.033.829-.1,1.227-.166.365-.033.7-.1,1.061-.166.066,0,.133-.033.2-.033.265-.033.53-.1.8-.133a.2.2,0,0,0,.133-.033.25.25,0,0,0,.133-.033l.6-.1c.166-.033.365-.066.53-.1a5.291,5.291,0,0,0,.7-.166c1.028-.232,2.022-.464,3.017-.762.2-.066.431-.133.63-.2.332-.1.63-.2.961-.3.066-.033.133-.033.2-.066a6.945,6.945,0,0,0,.762-.265c.033,0,.033-.033.066-.033.332-.1.63-.232.961-.365l.8-.3c.033,0,.033-.033.066-.033l.5-.2a1.178,1.178,0,0,0,.3-.133c.166-.066.332-.133.464-.2.232-.1.5-.232.729-.331a.116.116,0,0,0,.066-.033c.265-.133.564-.265.829-.4h0c.3-.133.564-.3.829-.431a.116.116,0,0,0,.066-.033c.3-.166.564-.3.829-.464a3.028,3.028,0,0,0,.431-.265,16.457,16.457,0,0,0,1.492-.961c.133-.1.3-.2.431-.3.166-.133.365-.265.53-.4.332-.232.63-.5.928-.729a5.77,5.77,0,0,0,.5-.431,2.862,2.862,0,0,0,.464-.431c.1-.066.166-.166.265-.232.3-.3.6-.6.862-.9.1-.1.166-.2.265-.3a6.952,6.952,0,0,0,.464-.564c0-.033.033-.033.033-.066.066-.1.133-.166.2-.265.133-.166.232-.3.365-.464.033-.033.066-.066.066-.1l.2-.3.2-.3c.033-.033.066-.1.1-.133.066-.133.166-.232.232-.365s.166-.265.232-.4a15.033,15.033,0,0,0,.928-1.956l.3-.9c.033-.1.066-.232.1-.332a1.178,1.178,0,0,0,.066-.332,1.41,1.41,0,0,0,.066-.365h0a1.664,1.664,0,0,0,.066-.4,1.127,1.127,0,0,0,.033-.332.2.2,0,0,1,.033-.133c0-.066.033-.166.033-.232,0-.1.033-.232.033-.332,0-.166.033-.332.033-.464v-.033A.6.6,0,0,0,68.988,308.433Z" transform="translate(4883.155 -874.3)"/>
      <path id="Path_136031" data-name="Path 136031" class="cls-3" d="M59.018,282.263c-13.426,7.791-35.24,7.791-48.766,0s-13.592-20.455-.166-28.245,35.24-7.791,48.766,0C72.345,261.809,72.411,274.472,59.018,282.263Z" transform="translate(4882.938 -833.175)"/>
      <g id="Group_40325" data-name="Group 40325" transform="translate(4898 -578)">
        <path id="Path_136032" data-name="Path 136032" class="cls-2" d="M76.865,269.3l-29.24-.9v4.509l.729.431L40,278.213v4.509l7.691,4.475,9.216-5.371,2.287,1.326-5.3,3.083v4.509l7.691,4.442,12.266-7.128,4.641,2.685v-4.509Z" transform="translate(-40 -268.4)"/>
        <g id="Group_40324" data-name="Group 40324" transform="translate(0 0)">
          <path id="Path_136033" data-name="Path 136033" class="cls-4" d="M78.489,286.236l-.464-.265-4.177-2.42-12.266,7.128-3.812-2.188-3.879-2.254,5.3-3.083,3.879-2.254-6.166-3.58-9.216,5.337-3.812-2.188L40,278.213l8.354-4.873.663-.365,3.249-1.89L47.625,268.4l29.24.9Z" transform="translate(-40 -268.4)"/>
        </g>
      </g>
    </g>
    <text id="HOME" class="cls-5" transform="translate(4083 -751.341)"><tspan x="54.046" y="12">HOME</tspan></text>
  </g>
</svg>
