<svg xmlns="http://www.w3.org/2000/svg" viewBox="0 0 306 306">
  <defs>
    <style>
      .cls-1, .cls-7 {
        fill: none;
      }

      .cls-2 {
        fill: #c4c4c4;
      }

      .cls-2, .cls-73 {
        opacity: 0.5;
      }

      .cls-3 {
        fill: #cecece;
      }

      .cls-4 {
        fill: #a4dfff;
      }

      .cls-5 {
        fill: #3c3c3b;
      }

      .cls-6 {
        fill: #c5c8c9;
      }

      .cls-7 {
        stroke: #e6e7e8;
        stroke-linecap: round;
        stroke-miterlimit: 10;
        stroke-width: 0.418px;
      }

      .cls-8 {
        fill: #77bc4a;
      }

      .cls-9 {
        fill: #d81d5b;
      }

      .cls-10 {
        opacity: 0.07;
      }

      .cls-11 {
        fill: #f7a56d;
      }

      .cls-12 {
        fill: #fff;
      }

      .cls-13 {
        fill: #bcbec0;
      }

      .cls-14 {
        fill: #ffb380;
      }

      .cls-15 {
        fill: #fcd765;
      }

      .cls-16 {
        fill: #efa878;
      }

      .cls-17 {
        fill: #e6e7e8;
      }

      .cls-18 {
        fill: #f9b78a;
      }

      .cls-19 {
        fill: #c68958;
      }

      .cls-20 {
        fill: #102a35;
      }

      .cls-21 {
        fill: #0c2128;
      }

      .cls-22, .cls-42 {
        fill: #231f20;
      }

      .cls-22, .cls-29, .cls-46, .cls-54, .cls-55, .cls-56 {
        opacity: 0.1;
      }

      .cls-23 {
        fill: #010326;
      }

      .cls-24 {
        fill: #6692f7;
      }

      .cls-25 {
        fill: #577bc4;
      }

      .cls-26, .cls-42 {
        opacity: 0.05;
      }

      .cls-27 {
        fill: #bc7d51;
      }

      .cls-28 {
        fill: #ffcf6e;
      }

      .cls-29, .cls-30 {
        fill: #100c0d;
      }

      .cls-30 {
        opacity: 0.2;
      }

      .cls-31 {
        fill: #cf4c29;
      }

      .cls-32 {
        fill: #cc9559;
      }

      .cls-33 {
        fill: #edc193;
      }

      .cls-34 {
        fill: #f2a610;
      }

      .cls-35 {
        fill: #ebeded;
      }

      .cls-36 {
        fill: #e7b68b;
      }

      .cls-37 {
        fill: #08a3dd;
      }

      .cls-38 {
        fill: #fafafa;
      }

      .cls-39 {
        fill: #c9cccd;
      }

      .cls-40 {
        fill: #18082f;
      }

      .cls-41 {
        fill: #abc972;
      }

      .cls-43 {
        fill: #dc6c5c;
      }

      .cls-44 {
        fill: #083b84;
      }

      .cls-45 {
        fill: #f2c99e;
      }

      .cls-46 {
        fill: #8b5e3c;
      }

      .cls-47 {
        fill: #c94c3f;
      }

      .cls-48 {
        fill: #d89832;
      }

      .cls-49 {
        fill: #e0b885;
      }

      .cls-50 {
        fill: #2d2d2b;
      }

      .cls-51 {
        fill: #232322;
      }

      .cls-52 {
        fill: #5e443f;
      }

      .cls-53 {
        fill: #f4ab7a;
      }

      .cls-54 {
        fill: #ba6536;
      }

      .cls-56 {
        fill: #875e23;
      }

      .cls-57 {
        fill: #3f2e18;
      }

      .cls-58 {
        fill: #e5a173;
      }

      .cls-59 {
        fill: #f2af81;
      }

      .cls-60 {
        fill: #86cfef;
      }

      .cls-61 {
        fill: #dbcc8f;
      }

      .cls-62 {
        fill: #e8a577;
      }

      .cls-63 {
        fill: #e5d79c;
      }

      .cls-64 {
        opacity: 0.04;
      }

      .cls-65 {
        fill: #f1f2f2;
      }

      .cls-66 {
        fill: #2a2a2b;
      }

      .cls-67 {
        fill: #323233;
      }

      .cls-68 {
        fill: #dbddd9;
      }

      .cls-69 {
        fill: #fcca97;
      }

      .cls-70 {
        fill: #f4be8e;
      }

      .cls-71 {
        fill: #d1d3d4;
      }

      .cls-72 {
        fill: #2a1b40;
      }

      .cls-73 {
        fill: #efb378;
      }

      .cls-74 {
        fill: #4c3c38;
      }
    </style>
  </defs>
  <g id="Group_34594" data-name="Group 34594" transform="translate(-5046 -3820)">
    <rect id="Rectangle_1195" data-name="Rectangle 1195" class="cls-1" width="306" height="306" transform="translate(5046 3820)"/>
    <g id="Group_34591" data-name="Group 34591" transform="translate(5080 3831)">
      <path id="Path_33089" data-name="Path 33089" class="cls-2" d="M220.4,154.7H179.7l5.9-56.5H229v-34H189.3l5.9-55.6H159.1l-5.9,55.6H102.3l5.9-55.6H72.3L66.4,64.2H21.1v34H62.7l-5.9,56.5H12.6v34H53.2l-6.4,60.4H83l6.4-60.4h50.7l-6.4,60.4h36.1l6.4-60.4h44.2v-34Zm-76.8,0H92.9l5.7-56.5h50.9Z"/>
      <path id="Path_33090" data-name="Path 33090" class="cls-3" d="M217,158.1H176.3l5.9-56.5h43.4v-34H186L191.9,12H155.8l-5.9,55.6H99L104.9,12h-36L63,67.7H17.7v34H59.3l-5.9,56.5H9.2v34H49.8l-6.4,60.4H79.5l6.4-60.4h50.7l-6.4,60.4h36.1l6.4-60.4H217Zm-76.8,0H89.5l5.7-56.5h50.9Z"/>
      <g id="Group_8809" data-name="Group 8809">
        <g id="Group_8805" data-name="Group 8805">
          <path id="Path_33091" data-name="Path 33091" class="cls-4" d="M16.4,59.5l-3.7,3.9L18.2,65l3.3-3.8Z"/>
          <path id="Path_33092" data-name="Path 33092" class="cls-5" d="M15.1,62c-.5-.1-2.6-2.4-2.6-2.4h0a2.121,2.121,0,0,0-1.2,1.9v1.1l-6,2.2a1.441,1.441,0,0,0-.9,1.1h0a1.435,1.435,0,0,0,1,1.6h0a20.533,20.533,0,0,0,4.9.6l9.7-.3a1.748,1.748,0,0,0,1.7-2.1l-.3-1.9a1.112,1.112,0,0,0-1.4-.9c-.9.2-1.9.5-2.2.5C17.6,63.4,15.1,62,15.1,62Z"/>
          <path id="Path_33093" data-name="Path 33093" class="cls-6" d="M5.5,67.4a1.347,1.347,0,0,1-1-1.6c0-.1.1-.3.1-.4a8.249,8.249,0,0,0,5.9,1.5l11.3-1.5v.2a1.8,1.8,0,0,1-1.7,2.1l-9.6.3A20.74,20.74,0,0,1,5.5,67.4Z"/>
          <line id="Line_50" data-name="Line 50" class="cls-7" x2="1.3" y2="1.4" transform="translate(11.1 62.4)"/>
          <line id="Line_51" data-name="Line 51" class="cls-7" x2="1.2" y2="1.3" transform="translate(9.9 62.8)"/>
          <line id="Line_52" data-name="Line 52" class="cls-7" x2="1" y2="1" transform="translate(8.7 63.4)"/>
          <line id="Line_53" data-name="Line 53" class="cls-7" x2="0.8" y2="0.8" transform="translate(7.6 63.7)"/>
        </g>
        <path id="Path_33094" data-name="Path 33094" class="cls-8" d="M45.1,54.3S33.4,36.1,27.4,35.6c-2.3,0-7.2,10.8-9.9,16.9-1.4,3.2-3.3,7.5-2.6,7.9,0,0,4.7,2.4,5.9,1.1L28,48.7s3.9,11.9,7.9,12.7C39.8,62.2,45.1,54.3,45.1,54.3Z"/>
        <path id="Path_33095" data-name="Path 33095" class="cls-9" d="M45.1,54.3S33.4,36.1,27.4,35.6c-2.3,0-7.2,10.8-9.9,16.9-1.4,3.2-3.3,7.5-2.6,7.9,0,0,4.7,2.4,5.9,1.1L28,48.7s3.9,11.9,7.9,12.7C39.8,62.2,45.1,54.3,45.1,54.3Z"/>
        <path id="Path_33096" data-name="Path 33096" class="cls-10" d="M27.9,46.6c-1.2,3.5-8.1,14.5-9.5,15.1,1,.2,1.9.3,2.4-.2L28,48.7s3.9,11.9,7.9,12.7C39.8,62.2,29.9,54.4,27.9,46.6Z"/>
        <g id="Group_8806" data-name="Group 8806">
          <path id="Path_33097" data-name="Path 33097" class="cls-11" d="M18.2,30.7l2.8-.3,1.4-.6V29c.1-.2.5-.3.6,0l1.7,2.4,1,2.7,12.7,1.5s5,2,2.4,3.3c-1.6.5-12.6-.3-16.2-2.1-2-1-2.3.5-4.6-2.3a7.557,7.557,0,0,1-.8-2C18.6,31.5,18.2,30.7,18.2,30.7Z"/>
          <path id="Path_33098" data-name="Path 33098" class="cls-6" d="M28.1,34.2l14.2-1.6,10.4-7.2L55.5,32s-6.4,4.6-9,5.9c-1.6.5-15.3,2.8-18.9,1-1.7-.9-.5-3.6,0-4.6C27.6,34.2,27.9,34.1,28.1,34.2Z"/>
          <g id="XMLID_16_">
            <g id="XMLID_17_">
              <path id="XMLID_33_" class="cls-5" d="M20.9,26.6l3.7,6.9a.44.44,0,0,1-.1.5l-2.2,1-4-7.5,2.1-1.1A.365.365,0,0,1,20.9,26.6Z"/>
              <path id="XMLID_21_" class="cls-12" d="M20.6,27a.192.192,0,0,1,.3.1l3.2,6a.192.192,0,0,1-.1.3l-1.4.7a.192.192,0,0,1-.3-.1l-3.2-6a.192.192,0,0,1,.1-.3Z"/>
              <path id="XMLID_20_" class="cls-13" d="M18.3,27.6c.1-.1.2,0,.3.1l3.8,7.1c.1.1,0,.2-.1.3l-.3.1c-.1.1-.2,0-.3-.1L17.9,28c-.1-.1,0-.2.1-.3Z"/>
              <path id="XMLID_19_" class="cls-12" d="M18.7,28.2l.3.6c0,.1,0,.2-.1.2s-.2,0-.2-.1l-.3-.6c0-.1,0-.2.1-.2A.349.349,0,0,0,18.7,28.2Z"/>
              <path id="XMLID_18_" class="cls-12" d="M19.5,29.8l.8,1.5c0,.1,0,.2-.1.2s-.2,0-.2-.1L19.3,30c0-.1,0-.2.1-.2C19.4,29.7,19.5,29.7,19.5,29.8Z"/>
            </g>
          </g>
          <path id="Path_33099" data-name="Path 33099" class="cls-11" d="M21,31.1h0a.569.569,0,0,0-.4-.7L18.7,30a.569.569,0,0,0-.7.4h0a.569.569,0,0,0,.4.7l1.9.4A.569.569,0,0,0,21,31.1Z"/>
          <path id="Path_33100" data-name="Path 33100" class="cls-11" d="M21.5,32.2h0a.569.569,0,0,0-.4-.7l-1.9-.4a.569.569,0,0,0-.7.4h0a.569.569,0,0,0,.4.7l1.9.4A.569.569,0,0,0,21.5,32.2Z"/>
          <path id="Path_33101" data-name="Path 33101" class="cls-11" d="M22,33.1h0a.576.576,0,0,0-.6-.6l-1.9-.1a.576.576,0,0,0-.6.6h0a.576.576,0,0,0,.6.6l1.9.1C21.7,33.6,22,33.4,22,33.1Z"/>
          <path id="Path_33102" data-name="Path 33102" class="cls-11" d="M22.2,33.9h0c0-.3-.3-.5-.5-.4l-1.6.2c-.3,0-.5.3-.4.5h0c0,.3.3.5.5.4l1.6-.2C22,34.4,22.2,34.1,22.2,33.9Z"/>
        </g>
        <line id="Line_54" data-name="Line 54" class="cls-7" x1="3.7" y2="4.6" transform="translate(49.2 22.8)"/>
        <path id="Path_33103" data-name="Path 33103" class="cls-7" d="M52.9,22.8s-4.3,2.8-5.8,5.3"/>
        <path id="Path_33104" data-name="Path 33104" class="cls-14" d="M61.5,20.8,60,15.6l2-6.7L56.9,3.1l-9,4,.5,3.4-.2,4.1a.973.973,0,0,0,.7,1.1l.5.1.9,2.8A2.124,2.124,0,0,0,53.1,20h0l.5-.2L55,23.9Z"/>
        <g id="Group_8808" data-name="Group 8808">
          <g id="Group_8807" data-name="Group 8807">
            <path id="Path_33105" data-name="Path 33105" class="cls-4" d="M9.8,93a34.17,34.17,0,0,1-2.1,7.7l7.4-2.5s3.4-1,1.1-3.2a9.6,9.6,0,0,1-1.4-1.5,4.19,4.19,0,0,1-.2-3.9s-3.4-1.3-4-.4C9.4,90.7,10.2,90.6,9.8,93Z"/>
            <path id="Path_33106" data-name="Path 33106" class="cls-5" d="M10.4,96.8c-.4.3-3.5-.2-3.5-.2h0a2.19,2.19,0,0,0,.3,2.2l.7.8-3.2,5.5a1.2,1.2,0,0,0,0,1.4h0a1.479,1.479,0,0,0,1.8.6h0a18.772,18.772,0,0,0,4.2-2.7L17.9,98a1.819,1.819,0,0,0,0-2.7L16.4,94a1.127,1.127,0,0,0-1.6.2c-.5.7-1.2,1.6-1.3,1.8A15.778,15.778,0,0,1,10.4,96.8Z"/>
            <path id="Path_33107" data-name="Path 33107" class="cls-6" d="M6.5,107.1a1.317,1.317,0,0,1-1.8-.6c-.1-.1-.1-.2-.2-.4a8.643,8.643,0,0,0,5.5-2.6l7.8-8.4.1.1a1.819,1.819,0,0,1,0,2.7l-7.2,6.4A16.212,16.212,0,0,1,6.5,107.1Z"/>
            <line id="Line_55" data-name="Line 55" class="cls-7" x2="1.9" y2="0.2" transform="translate(7.6 99.7)"/>
            <line id="Line_56" data-name="Line 56" class="cls-7" x2="1.7" y2="0.2" transform="translate(6.9 100.8)"/>
            <line id="Line_57" data-name="Line 57" class="cls-7" x2="1.5" y2="0.1" transform="translate(6.3 102)"/>
            <line id="Line_58" data-name="Line 58" class="cls-7" x2="1.2" y2="0.1" transform="translate(5.7 102.9)"/>
          </g>
          <path id="Path_33108" data-name="Path 33108" class="cls-9" d="M50,57.1v4.4A6.258,6.258,0,0,1,44.2,68c-3.8.5-21.1.5-25.9-.1-.7,3.3-2.5,25-3.5,25.6-1.1.7-4.2.3-5-.5-1-.7-3.9-30.8.6-33,3.1-1.5,20.2-3.5,25.6-4.4L37,53Z"/>
          <path id="Path_33109" data-name="Path 33109" class="cls-10" d="M50,61.5A6.258,6.258,0,0,1,44.2,68c-3.8.5-21.1.5-25.9-.1-.7,3.3-2.5,25-3.5,25.6a4.359,4.359,0,0,1-1.8.4c4-4.2,3.6-22.7,4.8-27.1,3.1-1.5,20.2,1.6,25.7.6A8.016,8.016,0,0,0,50,61.5Z"/>
        </g>
        <path id="Path_33110" data-name="Path 33110" class="cls-5" d="M61.7,19.7c4.4,4,8.3,13.9,1.8,25.2s-11,20.4-14,18.8S37.2,59.6,36.3,55c-.3-1.6,7.3-8,12.6-21.5.9-2.4.9-6.9,2.6-8.8C55.5,20,60.7,18.7,61.7,19.7Z"/>
        <path id="Path_33111" data-name="Path 33111" class="cls-15" d="M60.9,17.2s-2.8-2.4-2.8-2.8c0-.2-.2-1.2-.3-2.1a1.943,1.943,0,0,0-2.2-1.7h0v2.5l-1.1.2L53.9,9a1.2,1.2,0,0,0-1.5-1L48.1,9.3l-.6-.4a3.994,3.994,0,0,1-1.8-3.3h0a3.749,3.749,0,0,1,1.4-3l3-2.6.6,1.7L52.8.8a7.319,7.319,0,0,1,6.6.5l.6.4a7.334,7.334,0,0,1,3.6,5.8h0a7.826,7.826,0,0,1-.5,3.4,46.026,46.026,0,0,0-1.9,5.2Z"/>
        <path id="Path_33112" data-name="Path 33112" class="cls-16" d="M56,17.9a7.244,7.244,0,0,1-1.6,4.6l-.9-2.7Z"/>
        <path id="Path_33113" data-name="Path 33113" class="cls-17" d="M52.2,23.8s6.7-4,13,4.7a4.034,4.034,0,0,0,2.2,1.7c.6.4,2.5-2.6.6-4.1-.9-.7,1.2-.5.4-2.6A7.872,7.872,0,0,0,61.3,19C58.1,19,51.1,21.8,52.2,23.8Z"/>
        <path id="Path_33114" data-name="Path 33114" class="cls-18" d="M26.7,36.8l-.3-3L24,31.5l-2.6-.6h0a1.508,1.508,0,0,0,.9,1.4l1.1.5-1.6.2-.5,1,.4,1.9s1.7,3.5,7.2,5,5.6-2.5,5.6-2.5Z"/>
        <path id="Path_33115" data-name="Path 33115" class="cls-17" d="M61.5,25.5c-1.9-2.5-5.6-2.2-8.1-.1-1.5,1.2-9.7,9.6-9.7,9.6L27.5,36.5a.849.849,0,0,0-.8.7c-.3,1.2-.7,3.8.9,4.4,2.4.9,16.5,1.8,19,.6a64.376,64.376,0,0,0,10.8-5.9C63.4,31.9,63.1,27.7,61.5,25.5Z"/>
      </g>
      <g id="Group_8817" data-name="Group 8817">
        <g id="Group_8812" data-name="Group 8812">
          <g id="Group_8810" data-name="Group 8810">
            <path id="Path_33116" data-name="Path 33116" class="cls-19" d="M226.2,173.1c-.1,0-.2.1-.1.2,0,0,.7.6.4,1.2h0a4.133,4.133,0,0,0-.2,1.9h0a1.63,1.63,0,0,0,1.1,1.3h0a6.538,6.538,0,0,1,5.2,1.6l1.5,1.2a2.623,2.623,0,0,0,1.9.5l1.7-.3a.779.779,0,0,0,.6-.9h0a.76.76,0,0,0-.8-.6h-1.8c-.1,0-.1,0-.1-.1-.5-.5-4.7-5.1-5.3-5.6h0l-1.1-1.3c0-.1-.1-.1-.2-.1Z"/>
          </g>
          <g id="Group_8811" data-name="Group 8811">
            <path id="Path_33117" data-name="Path 33117" class="cls-20" d="M226.5,174.6h0a4.133,4.133,0,0,0-.2,1.9h0a1.63,1.63,0,0,0,1.1,1.3h0c3.1-.5,5.9,3.9,5.9,3.9a2.623,2.623,0,0,0,1.9.5l2.9-.7c.4-.1.3-1.3.2-1.8h0a.76.76,0,0,0-.8-.6h-1.8c-.1,0-.1,0-.1-.1C232.9,180.6,229,173.9,226.5,174.6Z"/>
          </g>
          <path id="Path_33118" data-name="Path 33118" class="cls-20" d="M226.6,177.2l3.6,5.5.5-.1-1.2-5.1Z"/>
        </g>
        <g id="Group_8816" data-name="Group 8816">
          <g id="Group_8814" data-name="Group 8814">
            <path id="Path_33119" data-name="Path 33119" class="cls-21" d="M194.2,103.3s6.4-.3,7.6,7.3c.9,5.8-4,8.3-4.1,13.3-2.5-.7-6-3-6.5-5.9C189.9,111.9,194.2,103.3,194.2,103.3Z"/>
            <path id="Path_33120" data-name="Path 33120" class="cls-19" d="M201.3,127.9a3.817,3.817,0,0,0-3.6-3.4l-2.2-.3c-1.5,0-2.7-1.9-2.5-3.2s.3-2.3.3-2.3l-6-.7-.3,2.3c-.2,1.3-1.4,3.6-2.8,4.1l-3.8,1.3c-1.4.5-1.3,3.7-1,5.2l15,3.6,8.7,17.9,2.9.2-4.2-8.8Z"/>
            <path id="Path_33121" data-name="Path 33121" class="cls-22" d="M193.1,121c.2-1.3.3-2.3.3-2.3l-6-.7-.2,1.9a6.565,6.565,0,0,0,6.2,2.6h.1A2.275,2.275,0,0,1,193.1,121Z"/>
            <g id="Group_8813" data-name="Group 8813">
              <path id="Path_33122" data-name="Path 33122" class="cls-23" d="M189.4,158.1l6,.3a53.516,53.516,0,0,0,13.7-5L194,149.9Z"/>
            </g>
            <path id="Path_33123" data-name="Path 33123" class="cls-9" d="M201,137.6a7.556,7.556,0,0,0,.1-4.7c-.6-2.1-1.7-4.3-3.3-8.4l-2.2-.3c-.5,0,3.7,6.9-.2,7.1-6.6.5-10.6-7.2-11.1-7l-3.8,1.3c-1.4.5,5.3,22.3,5.3,22.3v6.2l16-6.6-2.6-4Z"/>
            <path id="Path_33124" data-name="Path 33124" class="cls-24" d="M216.9,150.7c-2.5-5-5.5-4.2-5.5-4.2s-14.5-.6-22.1,1.5a6.324,6.324,0,0,0-3.9,9.1.758.758,0,0,1,.2.4c.6.9,3.2,1.8,6.1,1.9,10.2.3,18.9-5.7,18.9-5.7-.6,2,.6,6,2.6,7.8,5.1,4.7,13.1,12.4,13.1,12.4l3.4-1.1C230.1,172.8,218.6,154.1,216.9,150.7Z"/>
            <path id="Path_33125" data-name="Path 33125" class="cls-25" d="M214.3,154.7l-3.6-1a57.312,57.312,0,0,1-14.6,5.4l12.4.4a14.965,14.965,0,0,0-1.1,6.3c.1,5.7,1.4,18.7,1.4,18.7h3s2.9-20.1,3.9-23.7C217,155.5,214.3,154.7,214.3,154.7Z"/>
          </g>
          <path id="Path_33126" data-name="Path 33126" class="cls-5" d="M180,133.2s-1.1,10.5-1.2,13.7c-.2,3.2,5.3,5,6.3,1,.3-14.1-4.5-22.3-4.5-22.3a5.663,5.663,0,0,1,1.7-.6c.8-.1,3.9,3.8,5,24.9,2.3,15.8-1,15.9-1,15.9s-11,1.9-14.1-5.5c-.7-2.2,2.6-8.7,4.1-13.8C179,137.5,178.2,136.9,180,133.2Z"/>
          <path id="Path_33127" data-name="Path 33127" class="cls-26" d="M179.7,157.4c-1.8,1.5-1.1-9.5-.9-10.1h0c.3,2.8,4.9,4.3,6.1,1.1C184.3,150,182.2,155.4,179.7,157.4Z"/>
          <path id="Path_33128" data-name="Path 33128" class="cls-27" d="M199.1,141.8s-2.9-.4-3.1-.4L184.2,143l-.6-12.9c-.1-2.3-1.6-4.5-3.2-4.4a2.832,2.832,0,0,0-2.6,3.1,49.235,49.235,0,0,0,3.7,17.3,1.723,1.723,0,0,0,1.8,1.3l13-3.4a1.991,1.991,0,0,1,1.2.8c.3.5.7.4,1,.6,0,0,4.6.2,4.5-.6C203,143.9,200.3,142.1,199.1,141.8Z"/>
          <g id="Group_8815" data-name="Group 8815">
            <path id="Path_33129" data-name="Path 33129" class="cls-12" d="M212.6,137.9H202a.675.675,0,0,0-.6.4l-4.3,8.3a.616.616,0,0,0,.1.7l16.1-8.7-.1-.3A.675.675,0,0,0,212.6,137.9Z"/>
            <path id="Path_33130" data-name="Path 33130" class="cls-6" d="M212.8,138.1H202.2a.55.55,0,0,0-.5.3l-2.1,4.1-2.4,4.7H209l4.3-8.4C213.5,138.5,213.2,138.1,212.8,138.1Z"/>
            <path id="Path_33131" data-name="Path 33131" class="cls-5" d="M211.6,142.6c-.1-.1-.2-.2-.3-.2H200.2a.382.382,0,0,0-.3.5l2.6,4.2c.1.1.2.2.3.2h11a.367.367,0,0,0,.3-.6Z"/>
          </g>
        </g>
        <path id="Path_33132" data-name="Path 33132" class="cls-19" d="M199,112.6c-.6,1.2.3,3.4-.2,4.6a25.861,25.861,0,0,1-3.2,4.3,2.61,2.61,0,0,1-2,1h0a2.106,2.106,0,0,1-1.3-.5l-4.6-3.7,2.2-11.3,8.3.7.8,1.2a3.116,3.116,0,0,1,.4,2.8Z"/>
        <path id="Path_33133" data-name="Path 33133" class="cls-20" d="M198.9,108.9a11.384,11.384,0,0,0-7.4,3c-.8.7-1.6,3-3.3,3.7-1,3.8-.1,5.3,1.1,9.4-3.2-1.1-8.8-4.5-9.1-9.9s2.1-9.9,5.2-11.8a9.322,9.322,0,0,1,9.5-.6C197.8,104.2,199.5,106.8,198.9,108.9Z"/>
        <path id="Path_33134" data-name="Path 33134" class="cls-19" d="M189.5,113.9a1.964,1.964,0,0,0-.9-1.3,1.1,1.1,0,0,0-.8,0c-1,.3-.8,3.2.5,3.6C189.3,116.6,189.6,114.9,189.5,113.9Z"/>
        <path id="Path_33135" data-name="Path 33135" class="cls-28" d="M187.6,116.1c0,.3.3.5.7.5.3,0,.5-.3.5-.7,0-.3-.3-.5-.7-.5A.752.752,0,0,0,187.6,116.1Z"/>
        <path id="Path_33136" data-name="Path 33136" class="cls-20" d="M214,191.3c1.7,1,1.4,2.4,0,3a3.366,3.366,0,0,1-3.7-1.1c-.3-.7-1.6-6.2-1.6-6.2h3.6Z"/>
        <path id="Path_33137" data-name="Path 33137" class="cls-20" d="M208.7,184.5c-.7.4-.8,1.2-.7,2.1.2,1.8.3,4.9.3,4.9h1.2l.3-4.3-1.1-2.7"/>
        <path id="Path_33138" data-name="Path 33138" class="cls-19" d="M211.7,184.5l2.3,6.8s0,.6-1.6.6-1.6-1.5-2.1-3.1-1.5-2.2-1.6-3.6v-.7Z"/>
      </g>
      <g id="Group_8824" data-name="Group 8824">
        <path id="Path_33139" data-name="Path 33139" class="cls-4" d="M175.6,247.5l-.1-.2L163.6,246,157,230.3l-4.2,22.6,6.8.5-2.2,2.9L151.6,269l2.4,5.6,7.9-7.9,3.7-5.4,7-4.1a7.308,7.308,0,0,0,3.5-4.4A8.341,8.341,0,0,0,175.6,247.5Z"/>
        <path id="Path_33140" data-name="Path 33140" class="cls-29" d="M171.8,257.7l.8-.5a12.492,12.492,0,0,0,1.2-.9l-9.2,2.7-4.2,7.1-7.2,6.6.8,1.8,7.9-7.9,3.7-5.4Z"/>
        <path id="Path_33141" data-name="Path 33141" class="cls-30" d="M163.6,246,157,230.3l-4.3,22.6,6.8.5Z"/>
        <path id="Path_33142" data-name="Path 33142" class="cls-31" d="M164.1,191.5h0a7.075,7.075,0,0,1,4.5-.9l3.8.4a3.521,3.521,0,0,1,1.9,1l1.6,2a2.75,2.75,0,0,1,.3,2.9h0l-3.6,2.3-10.8.5-2.6,2.4,1.3-5.8A7.891,7.891,0,0,1,164.1,191.5Z"/>
        <path id="Path_33143" data-name="Path 33143" class="cls-32" d="M172.6,199.3l3.6-2.3.1,2.2a5.845,5.845,0,0,1-.2,1.9h0c-.7,2.4-3.1,6.8-3.2,8.5-.1,1.6-.6-2.3-.6-2.3l-2.1-3.2Z"/>
        <g id="Group_8818" data-name="Group 8818">
          <path id="Path_33144" data-name="Path 33144" class="cls-33" d="M150.5,264.4l.7-4.3-4.8-.7-.6,4.6Z"/>
          <path id="Path_33145" data-name="Path 33145" class="cls-34" d="M150.5,264.4l-.7-.2a1.841,1.841,0,0,0-1.8-1.6,1.954,1.954,0,0,0-2.3,1.2v.2h0l-3.1,4.6a1.682,1.682,0,0,0,.8,2.2,12.425,12.425,0,0,0,5.3,1.5h.2a1.723,1.723,0,0,0,1.8-1.3Z"/>
          <path id="Path_33146" data-name="Path 33146" class="cls-35" d="M150.7,270.9l.1-4.5a12.311,12.311,0,0,0-.2-2h0l-.2,5.9c-.2.8-.9.8-1.4.8h-.2a12.036,12.036,0,0,1-5.3-1.5,1.765,1.765,0,0,1-.8-.9,1.658,1.658,0,0,0,.8,2.1,12.425,12.425,0,0,0,5.3,1.5h.2A1.7,1.7,0,0,0,150.7,270.9Z"/>
          <path id="Path_33147" data-name="Path 33147" class="cls-4" d="M147.8,232a5.326,5.326,0,0,1,2.2-3.5h0a5.155,5.155,0,0,1,3.4-.9l2.1.2h0a10.478,10.478,0,0,1,2.2,8.5l-6.5,25.5-5.5-.9Z"/>
        </g>
        <path id="Path_33148" data-name="Path 33148" class="cls-33" d="M187.1,223.5l.5,15.8s6,13.1,6.8,13.6c.7.5,3.6.6,3.6.6a28.978,28.978,0,0,1,4.2,1.2l2.3,1.6a.329.329,0,0,1-.2.6s-3.6-1-5.6-1.3c-2.4.5,2.2,1,1.5,2l-3-.3-2.8-1.4s-5.9-5-7.5-7a67.794,67.794,0,0,1-4.2-6.2s-2-7.4-1.7-12.9C182.9,227.6,187.1,223.5,187.1,223.5Z"/>
        <g id="Group_8819" data-name="Group 8819">
          <path id="Path_33149" data-name="Path 33149" class="cls-36" d="M142.5,231.2c.1-2.7,5.2-9.3,8.8-13.2,1.3,3,2.8,7.3,3.7,7.4a5.929,5.929,0,0,1-3.8,3S142.4,232.7,142.5,231.2Z"/>
        </g>
        <path id="Path_33150" data-name="Path 33150" class="cls-37" d="M187.1,223.1c-.2-4.2-2.4-8.8-8.5-9.9a69.058,69.058,0,0,0-18.3-.7c-3.8.5-5.8,2.1-9.6,5.6.2,2.9,2.6,7.5,4.5,11.1h0l2.4,3.2,2.2,12.1a3.338,3.338,0,0,0,3.4,2.7l2.3-.1h2.3a11.947,11.947,0,0,1,7.1,2.2c.3.2.6.5.9.7a.775.775,0,0,0,1.3-.4s2.5-14.5,4.9-18.2C183.2,229.5,187.1,223.1,187.1,223.1Z"/>
        <path id="Path_33151" data-name="Path 33151" class="cls-26" d="M152.4,223.5l.3-.8c.1-.5,0-1.4.3-1.4a.888.888,0,0,1,.9.7l.1-1.9a.972.972,0,0,1,1.1-1l4.4.2a.972.972,0,0,1,1,1.1l-.1,2.1a6.893,6.893,0,0,1,1-.4,2.92,2.92,0,0,1,.9-.2c.4.1.5.3.4.6a9.851,9.851,0,0,1-2.3,1.5v.7c.7-.1.9.6.5,1.1a.637.637,0,0,0,0,.6,1,1,0,0,1-.1.9.629.629,0,0,0,0,.6c.2.2-.2,1.1-1,1.4-1.1.5-2.8.6-3.3.9l-.1.1c-.1.1-.2.1-.2.2l-1-1.3C154.3,227.4,153.2,225.4,152.4,223.5Z"/>
        <path id="Path_33152" data-name="Path 33152" class="cls-26" d="M177.2,249.5a.755.755,0,0,1-1.3.4c-.3-.2-.6-.5-.9-.7a12.163,12.163,0,0,0-7.1-2.2h-2.3l-2.3.1a3.653,3.653,0,0,1-1.5-.3c4-1,10.3-2.7,12.8-4.4,3.8-2.6-10-2.3-1.5-6.2S187,223.4,187,223.4l.2-.4s-3.9,6.4-5,8.2C179.7,235,177.2,249.5,177.2,249.5Z"/>
        <path id="Path_33153" data-name="Path 33153" class="cls-33" d="M167.1,206l6.2-.3-.1,2.3c-.3,3.3,2.7,6,2.7,6-2.1,2.7-10.1,7.6-10.7,7.2-1.7-1.4-3.1-7.9-2.6-7.9a2.235,2.235,0,0,0,1.8-1.8l.5-3.6A2.545,2.545,0,0,1,167.1,206Z"/>
        <path id="Path_33154" data-name="Path 33154" class="cls-33" d="M161.8,199.8h0l-.1,8a1.136,1.136,0,0,0,.3.8l1,1.1a3.017,3.017,0,0,0,3,.9l5.6-1.6a1.573,1.573,0,0,0,1.1-1l1-3h.3a1.113,1.113,0,0,0,1-.3.864.864,0,0,0,.3-.6l.5-2.2a.846.846,0,0,0-.8-1h0a.871.871,0,0,0-.8.6l-.6,2.3-1.2-.6.2-3.8h0C171.4,194.9,162.5,198.7,161.8,199.8Z"/>
        <path id="Path_33155" data-name="Path 33155" class="cls-31" d="M164.9,206a2.247,2.247,0,0,1-1.8-.2h0c-.5-.2-1.3,1.2-1.3,1.2a10.164,10.164,0,0,0,1.1,5.2h0a3.017,3.017,0,0,0,3,.9s5.9-1.1,6.7-2.6c.9-1.5,1.2-5.6,1.2-5.6v-1.3l-1.2-.6s-.7,5.1-2.3,5c-.4,0-2.2-2.6-2.9-2.5Z"/>
        <g id="Group_8820" data-name="Group 8820">
          <path id="Path_33156" data-name="Path 33156" class="cls-34" d="M154.3,275.2l.6-1.7s-.9-8.1-3-12.2C149.9,257.3,154.3,275.2,154.3,275.2Z"/>
          <path id="Path_33157" data-name="Path 33157" class="cls-35" d="M151.2,277h0c-2-.5-3-2.4-2.5-4.7h0a4.935,4.935,0,0,0-.3-3l-2-3.8a7.059,7.059,0,0,1-.6-4.6,6.356,6.356,0,0,1,.6-1.8c.4-.8,1.7-.8,2.5-.5a4.782,4.782,0,0,1,3.1,3.5l2.2,12.5C154.6,275.8,152.4,277.3,151.2,277Z"/>
          <path id="Path_33158" data-name="Path 33158" class="cls-38" d="M153.6,274.8l-2.2-12.5a4.959,4.959,0,0,0-3.1-3.5,3.6,3.6,0,0,0-1.1-.2,2.126,2.126,0,0,1,1.9.1,4.782,4.782,0,0,1,3.1,3.5l2.2,12.5c.2,1.1-1.7,2.4-2.8,2.4C152.6,276.6,153.7,275.6,153.6,274.8Z"/>
        </g>
        <path id="Path_33159" data-name="Path 33159" class="cls-33" d="M153.3,221.5c-1.9,2.2-4.7,3.3-6.6,4.4s-3.9,3.7-4.2,5.4c-.3,1.4,3.3,3.7,7.1,1.3,3.8-2.3,4.4-5.9,6.9-8.1C159.4,221.9,155.1,220.5,153.3,221.5Z"/>
        <g id="Group_8823" data-name="Group 8823">
          <g id="Group_8821" data-name="Group 8821">
            <path id="Path_33160" data-name="Path 33160" class="cls-39" d="M159.6,212.7l-4.4-.2a1.028,1.028,0,0,0-1.1,1l-.3,8.3a1.028,1.028,0,0,0,1,1.1l4.7.2c.6,0,.8-.5.8-1l.1-3.4.1-2.4.1-2.5A.972.972,0,0,0,159.6,212.7Z"/>
          </g>
          <g id="Group_8822" data-name="Group 8822">
            <path id="Path_33161" data-name="Path 33161" class="cls-38" d="M159.6,213.3l-4.4-.2a1.028,1.028,0,0,0-1.1,1l-.3,8a1.028,1.028,0,0,0,1,1.1l4.7.2c.6,0,.8-.5.8-1l.1-3.1.1-2.4.1-2.5A.972.972,0,0,0,159.6,213.3Z"/>
          </g>
          <path id="Path_33162" data-name="Path 33162" class="cls-40" d="M155.4,213.8c-.2,0-.4.1-.4.2a.446.446,0,0,0,.4.3c.2,0,.4-.1.4-.2C155.8,213.9,155.6,213.8,155.4,213.8Z"/>
          <path id="Path_33163" data-name="Path 33163" class="cls-33" d="M162.4,215.9c-.3-.1-.6.1-.9.2-1.3.5-5.8,2.9-6.8,2.7-1.1-.1-.6-1.5-.6-1.5a4.1,4.1,0,0,0-.1-1.1c-.2-.8-.7-.9-1-.9-.4,0-.2.9-.3,1.4l-.9,2.8,1.1,4,3.5.9c.1-.3,2.1-.5,3.4-1,.8-.3,1.2-1.2,1-1.4a.637.637,0,0,1,0-.6,1,1,0,0,0,.1-.9.637.637,0,0,1,0-.6c.3-.5.1-1.2-.5-1.1-.9.3-1.5.9-1.3.1.8-.5,3.4-1.8,3.6-2.3C162.9,216.2,162.9,216,162.4,215.9Z"/>
        </g>
      </g>
      <g id="Group_8830" data-name="Group 8830">
        <rect id="Rectangle_73" data-name="Rectangle 73" class="cls-25" width="17.5" height="6.2" transform="translate(194.8 56)"/>
        <path id="Path_33164" data-name="Path 33164" class="cls-41" d="M200.3,26.5l2.2-.1a17.99,17.99,0,0,1,6,.4,6.25,6.25,0,0,1,4.5,3.7c2,4.6,4,11.6,3.6,16.1h0l-3.5,7.6-3.3,3.7-12.5-2.6L192.2,49,189,44.4A11.431,11.431,0,0,1,192.9,29a2.506,2.506,0,0,1,.7-.4l1.6-.9Z"/>
        <path id="Path_33165" data-name="Path 33165" class="cls-42" d="M193.3,34.3s2.5,6.9,2,10.4,2.3,2.2,2.3,2.2S195.1,36.5,193.3,34.3Z"/>
        <path id="Path_33166" data-name="Path 33166" class="cls-42" d="M210.8,44.3s-2.7-6-3.3-9.3a6.53,6.53,0,0,1,1-5.2,29.155,29.155,0,0,0,.1,5C208.9,37.1,210.8,44.3,210.8,44.3Z"/>
        <path id="Path_33167" data-name="Path 33167" class="cls-43" d="M213.8,40.7"/>
        <path id="Path_33168" data-name="Path 33168" class="cls-25" d="M207.2,67.8h-7a7.21,7.21,0,0,1-7.2-6.7L192.1,49l7.7.7,3.8,11.1,4.7-13.2,7.2-.1-1.2,13.8A7.025,7.025,0,0,1,207.2,67.8Z"/>
        <g id="Group_8826" data-name="Group 8826">
          <g id="Group_8825" data-name="Group 8825">
            <path id="Path_33169" data-name="Path 33169" class="cls-44" d="M198.9,85.9h0a2.437,2.437,0,0,0,2.7-1.6l1-5.5c.4-1.3.4-2.5-.9-2.9h0c-1.3-.4-2,.5-2.4,1.8l-2.4,4.9A2.63,2.63,0,0,0,198.9,85.9Z"/>
            <path id="Path_33170" data-name="Path 33170" class="cls-45" d="M197.7,82l2.7-5.7,1.5-7.1,3.9,1.3-3.1,7-1.2,6Z"/>
            <path id="Path_33171" data-name="Path 33171" class="cls-46" d="M197.7,82l2.7-5.7,1.5-7.1,3.9,1.3-3.1,7-1.2,6Z"/>
          </g>
          <path id="Path_33172" data-name="Path 33172" class="cls-24" d="M205.8,70.5,215.4,49a4.143,4.143,0,0,0-2.6-5.2h0a4.121,4.121,0,0,0-5.3,3L202,69.2Z"/>
          <path id="Path_33173" data-name="Path 33173" class="cls-10" d="M203.1,69.6l2.7.9,1.3-2.9L204.7,58l-2.4,9.8Z"/>
        </g>
        <g id="Group_8828" data-name="Group 8828">
          <g id="Group_8827" data-name="Group 8827">
            <path id="Path_33174" data-name="Path 33174" class="cls-44" d="M208.6,85.9h0a2.437,2.437,0,0,1-2.7-1.6l-1-5.5c-.4-1.3-.4-2.5.9-2.9h0c1.3-.4,2,.5,2.4,1.8l2.4,4.9A2.565,2.565,0,0,1,208.6,85.9Z"/>
            <path id="Path_33175" data-name="Path 33175" class="cls-45" d="M209.8,82l-2.6-5.7-1.6-7.1-3.8,1.3,3.1,7,1.1,6Z"/>
          </g>
          <path id="Path_33176" data-name="Path 33176" class="cls-24" d="M201.8,70.5,192.1,49a4.143,4.143,0,0,1,2.6-5.2h0a4.121,4.121,0,0,1,5.3,3l5.5,22.4Z"/>
        </g>
        <path id="Path_33177" data-name="Path 33177" class="cls-47" d="M185.9,15.3c0-1.8.1-5,3.1-5.8C202.8-1,207,28,207,28l-12.5-2.5A10.247,10.247,0,0,1,185.9,15.3Z"/>
        <path id="Path_33178" data-name="Path 33178" class="cls-22" d="M191,14.1C200.9,6.8,207,28,207,28S193.3,17.8,191,14.1Z"/>
        <path id="Path_33179" data-name="Path 33179" class="cls-45" d="M203.5,27.2h.2a6.3,6.3,0,0,1-10.6,3l-.2-.2h0a2.975,2.975,0,0,0,1.4-3l-.5-3.5,5.1-1.7,2,3.9A2.76,2.76,0,0,0,203.5,27.2Z"/>
        <path id="Path_33180" data-name="Path 33180" class="cls-46" d="M199.1,27.9a6.06,6.06,0,0,0,2-1.9c-.1-.1-.2-.3-.3-.4l-2-3.9-5.1,1.7.4,2.9a8.028,8.028,0,0,0,3.3,1.7c.2,0,.4.1.6.1A1.311,1.311,0,0,0,199.1,27.9Z"/>
        <path id="Path_33181" data-name="Path 33181" class="cls-22" d="M185.9,15.3c0-1.8.1-5,3.1-5.8,1.7,2.7,5.5,15.9,5.5,15.9C189.5,24.8,186,20.4,185.9,15.3Z"/>
        <path id="Path_33182" data-name="Path 33182" class="cls-45" d="M197.7,26.9h0a1.02,1.02,0,0,1-.9.2c-.2,0-.5-.1-.6-.1a8.96,8.96,0,0,1-5.1-3.5,3.63,3.63,0,0,1-.7-1.7l-.3-1.7c-.3-.8-1-1.8-.7-2.7l1.5-3.4,6.2,2.8a2.384,2.384,0,0,1,1.1.6c1.1.8,2.7,1.7,2.7,3.1v.2A6.845,6.845,0,0,1,197.7,26.9Z"/>
        <g id="Group_8829" data-name="Group 8829">
          <path id="Path_33183" data-name="Path 33183" class="cls-12" d="M199.3,35.9h4.6a.265.265,0,0,0,.3-.3V26.8a.265.265,0,0,0-.3-.3h-4.6a.265.265,0,0,0-.3.3v8.8A.265.265,0,0,0,199.3,35.9Z"/>
          <path id="Path_33184" data-name="Path 33184" class="cls-5" d="M199.3,36.6h4.6a.265.265,0,0,0,.3-.3V27.5a.265.265,0,0,0-.3-.3h-4.6a.265.265,0,0,0-.3.3v8.8A.265.265,0,0,0,199.3,36.6Z"/>
          <path id="Path_33185" data-name="Path 33185" class="cls-13" d="M200.4,28.2a.4.4,0,1,1-.4-.4C200.2,27.9,200.4,28,200.4,28.2Z"/>
        </g>
        <path id="Path_33186" data-name="Path 33186" class="cls-45" d="M215.1,42.9l-9.5-6-.4-3.6a1.739,1.739,0,0,0-1.2-1.4l-4.8-1.3a.5.5,0,0,0-.6.5l.2,1.7a5.065,5.065,0,0,0,1.5,3.1L215.2,50h0a5.062,5.062,0,0,0,.2-6.8Z"/>
        <path id="Path_33187" data-name="Path 33187" class="cls-45" d="M193.8,43.6l14.9,5.3,4.6-.7,1.5,1.4a1.679,1.679,0,0,1,.4,1.9l-.4.7a2.346,2.346,0,0,1-3,1.1l-3-1.3-17.3-3-2.6-4.6A5.084,5.084,0,0,1,193.8,43.6Z"/>
      </g>
      <g id="Group_8834" data-name="Group 8834">
        <path id="Path_33188" data-name="Path 33188" class="cls-15" d="M13,152.3c1.7-1.8,6-3.7,10.2-3.5s5.1,1.4,5.1,1.4l-14.1,5.3Z"/>
        <g id="Group_8832" data-name="Group 8832">
          <g id="XMLID_2_">
            <path id="Path_33189" data-name="Path 33189" class="cls-48" d="M43.5,237.8h0a8.856,8.856,0,0,1,3.4,1.6l.6.5c.2.1.2.4.1.6-.4.7-6.2,8.2-7.3,10-1,1.9-3.1,3.6-4.2,2.8,3.1-7.9,3.5-10.6,3.5-10.6Z"/>
            <path id="Path_33190" data-name="Path 33190" class="cls-49" d="M39.6,250.5c.9-1.7,6.3-8.9,7.7-10.8l.2.2c.2.1.2.4.1.6-.4.7-6.2,8.2-7.3,10-.9,1.7-2.7,3.3-3.8,3A6.858,6.858,0,0,0,39.6,250.5Z"/>
            <path id="Path_33191" data-name="Path 33191" class="cls-50" d="M15.8,224.9l23.6,18.9a5.426,5.426,0,0,0,4.1-2,7.531,7.531,0,0,0,2.2-3.9L26.9,220.2,22,216.9Z"/>
            <path id="Path_33192" data-name="Path 33192" class="cls-51" d="M19.5,217.7s25.4,17,24,24.1a7.531,7.531,0,0,0,2.2-3.9L26.9,220.2,22,216.9Z"/>
            <path id="XMLID_15_" class="cls-52" d="M21.1,127.2a3.232,3.232,0,0,1-2.7-.4c-1.2-.9-4.4.1-5.5,2.6a5.7,5.7,0,0,0-.4,2.6,8.174,8.174,0,0,0,2.8,5.4c4.2,3.8,4,8.7,7,8.8,4.8.2,9.2-5.3,8.8-11C31.2,127.3,24.3,126,21.1,127.2Z"/>
            <path id="XMLID_14_" class="cls-14" d="M28.8,140.4l-6.6,3-.2,2.8a5.039,5.039,0,0,1-1.9,3.8s-7.7,7.6-1.4,8,12.7-8.1,12.7-8.1C28.5,145.8,28.8,140.4,28.8,140.4Z"/>
            <path id="Path_33193" data-name="Path 33193" class="cls-53" d="M13.6,152.3s-4.4,2.9-5.6,6.2c-.3.7-3.2,13.6-3.7,16.5-.1.6,2.2,3.5,2.8,1,1.2-5.2,5.1-13.7,5.1-13.7a38.243,38.243,0,0,0,5-3.6C19.2,157.1,13.6,152.3,13.6,152.3Z"/>
            <path id="Path_33194" data-name="Path 33194" class="cls-54" d="M14.4,160.2l.2.6c-1.3.9-2.4,1.6-2.4,1.6s-.3.6-.7,1.6h0c.1-1.3-.7-3.3-1.9-5.5C12.2,161.3,14.4,160.2,14.4,160.2Z"/>
            <path id="Path_33195" data-name="Path 33195" class="cls-53" d="M4.4,174.7,3,180a1.1,1.1,0,0,0,0,.8l.9,3.1a1.555,1.555,0,0,0,.6.8l2.4,1.7h0a1.534,1.534,0,0,0-.2-1.7l-1.1-1.1L5.3,181a.6.6,0,0,1,.1-.4h0a.526.526,0,0,1,.9.2l.4,2.6a.56.56,0,0,0,.6.5h0a.645.645,0,0,0,.6-.6l-.1-3.7-.6-5H4.4Z"/>
            <path id="Path_33196" data-name="Path 33196" class="cls-50" d="M15.5,185.8l-.5,3.7-.8,6.3L12,210.2a42.943,42.943,0,0,0-.4,8.8h0a6.639,6.639,0,0,0,3,5.3l1.1.7,6.4-.7-.4-5.9,8.2-31.1Z"/>
            <path id="Path_33197" data-name="Path 33197" class="cls-51" d="M22.6,194.7l-2.7,21a3.622,3.622,0,0,0,1.2,3.1l.8.6L30,187.1Z"/>
            <path id="Path_33198" data-name="Path 33198" class="cls-48" d="M27.5,248.1c.1,1.8-.6,3-1.2,5.3-.4,1.5-.5,3.4,3.1,3.5,3.4.1,3.4-2.4,3.4-2.7,0-.4-.5-4.3-.5-4.3Z"/>
            <g id="Group_8831" data-name="Group 8831">
              <path id="Path_33199" data-name="Path 33199" class="cls-49" d="M29.6,256a11.935,11.935,0,0,0,2.9-.4c-.4.7-1.2,1.3-3,1.3-2.1-.1-3-.7-3.2-1.6A6.751,6.751,0,0,0,29.6,256Z"/>
            </g>
            <path id="Path_33200" data-name="Path 33200" class="cls-5" d="M18.1,186.3l.8,6.5a4.111,4.111,0,0,0,2,3.1h0a2.937,2.937,0,0,1,1.3,1.8l3.4,22.9.6,30.1s.6.5,3.6.7,3.4-.8,3.4-.8l1.6-14.1c.4-3.6.9-7.7.4-11.3l-.7-4,1.2-12.3a48.421,48.421,0,0,0,.4-8.5l-.2-3.1a4.678,4.678,0,0,1,.2-1.7h0a15.148,15.148,0,0,0,.6-5.2l-.5-4.9Z"/>
            <path id="Path_33201" data-name="Path 33201" class="cls-50" d="M32.7,221.2a101.416,101.416,0,0,0-.3-25.1s-7.7,0-8-7L36,185.6h.1l.5,4.9a11.48,11.48,0,0,1-.6,5.2,4.678,4.678,0,0,0-.2,1.7l.2,3.1a60.483,60.483,0,0,1-.4,8.5l-1.2,12.3.7,4c.6,3.6,0,7.7-.4,11.3l-1.6,14.1S35.8,232.2,32.7,221.2Z"/>
            <path id="Path_33202" data-name="Path 33202" class="cls-5" d="M31.4,189c.2,2.2.7,5.5.7,5.5s-4.5.5-5.8-3.6C25.1,186.9,31.4,189,31.4,189Z"/>
            <path id="XMLID_13_" class="cls-41" d="M38.1,152.3l-6.7-2.4s-4.8,6.3-10.9,5.4c-1.7-.2-1.9-3.9-.4-5.3-.3.1-3-1.2-7.1,2.2-.6,1.1-1,7.1.5,9.6a13.016,13.016,0,0,0,1.2-.6h0a24.183,24.183,0,0,0,.3,6,55.624,55.624,0,0,1,1.1,8.1c-.3,5.7-2.2,12.4-1.6,13.5.9,1.6,8.9,4.4,22.2,1.4.3-12.8,1-22.4,1-22.4l3-4.7a8.563,8.563,0,0,0,1.2-6.6A5.342,5.342,0,0,0,38.1,152.3Z"/>
            <path id="XMLID_12_" class="cls-14" d="M24.7,174.5l5.1-10.1c1.1,2.1,6.2,3.6,7.9,3.5,0,0-6.9,9.1-9.9,12.4-.6.6-1.7.4-2.6.2L11,176l.5-3.6Z"/>
            <g id="XMLID_6_">
              <path id="XMLID_11_" class="cls-5" d="M1.6,163.6l9.3,2.9a.486.486,0,0,1,.3.6l-.9,2.8L.1,166.7l.9-2.8A.446.446,0,0,1,1.6,163.6Z"/>
              <path id="XMLID_10_" class="cls-12" d="M1.7,164.2c.1-.2.2-.3.4-.2l8.1,2.6c.2.1.3.2.2.4l-.6,1.8c-.1.2-.2.3-.4.2l-8.1-2.6c-.2-.1-.3-.2-.2-.4Z"/>
              <path id="XMLID_9_" class="cls-13" d="M.1,166.7c0-.1.2-.2.4-.2l9.6,3.1c.1,0,.2.2.2.4l-.1.4c0,.1-.2.2-.4.2L.2,167.5c-.1,0-.2-.2-.2-.4Z"/>
              <path id="XMLID_8_" class="cls-12" d="M1.1,167l.8.3c.1,0,.2.1.1.2,0,.1-.1.2-.2.1l-.8-.3c-.1,0-.2-.1-.1-.2C.8,167,.9,167,1.1,167Z"/>
              <path id="XMLID_7_" class="cls-12" d="M3.2,167.7l2,.6c.1,0,.2.1.1.2,0,.1-.1.2-.2.1l-2-.6c-.1,0-.2-.1-.1-.2C3,167.7,3.1,167.6,3.2,167.7Z"/>
            </g>
            <path id="XMLID_5_" class="cls-14" d="M2.4,168.2,7.9,170a1.147,1.147,0,0,0,1.2-.5,1.387,1.387,0,0,0,0-.9l-.6-1.2c-.3-1-.1-1.7.6-1.8l2.5,3.7.7,4.7.2,2.5-3.1-.6a11.986,11.986,0,0,1-4-2c-.9-.3-.8-1.5-.8-1.5.1-.2-.4-.7-.4-.9l-.2-.4a.574.574,0,0,1,.2-.7s-1.7-.7-1.8-1C1.9,168.6,2.4,168.2,2.4,168.2Z"/>
            <path id="Path_33203" data-name="Path 33203" class="cls-54" d="M24.8,149.1c-.8.5-3.7,1.7-4.7,1h0a.781.781,0,0,0,.4-.4,4.826,4.826,0,0,0,1.4-3.5l.2-2.8,5.6-1.9C27.8,141.6,28.5,146.6,24.8,149.1Z"/>
            <path id="XMLID_4_" class="cls-14" d="M26.5,138.4c-.7-3.6-2.3-2.4-3.2-3.6-2.2-2.9-4.4.6-7.9,1.9,0,.3,1.1,5.4,1.3,6.2,1.8,5,1.6,5.7,5.1,4.9s5.9-2.8,6.5-5.2c.2-.6.9-3.3.9-3.3C28.4,139.3,26.8,139.7,26.5,138.4Z"/>
            <path id="Path_33204" data-name="Path 33204" class="cls-52" d="M26.5,138.4s.7,2.9-.9,4.8c-1.6,2-3.7.9-5,.4a7.6,7.6,0,0,0-3.6.1s.7,4.6,1.9,5.5c1.2.8,4.8-1,6.6-2.3s3-4.7,2.3-7.5C27.1,136.7,26.5,138.4,26.5,138.4Z"/>
            <path id="Path_33205" data-name="Path 33205" class="cls-14" d="M17.4,145.4l2.1-.5c.3-.1.5.1.6.4s-.1.5-.4.6l-2.1.5h0a3.553,3.553,0,0,1-.2-1Z"/>
            <path id="XMLID_3_" class="cls-14" d="M27.9,136.5c-.4.3-.2,4.7.3,4.7,1.3.1,1.8-2,2-3.4C30.4,136.1,28.6,136,27.9,136.5Z"/>
          </g>
        </g>
        <g id="Group_8833" data-name="Group 8833">
          <path id="Path_33206" data-name="Path 33206" class="cls-55" d="M32.6,193.4c0,.7.3,1.2.6,1.2s.5-.6.5-1.2c0-.7-.3-1.2-.6-1.2C32.7,192.1,32.5,192.7,32.6,193.4Z"/>
        </g>
        <path id="Path_33207" data-name="Path 33207" class="cls-56" d="M15.4,156.4a16.3,16.3,0,0,0-.8,4.9,13.016,13.016,0,0,1-1.2.6l-.1-.1A23.72,23.72,0,0,1,15.4,156.4Z"/>
      </g>
      <g id="Group_8843" data-name="Group 8843">
        <g id="Group_8839" data-name="Group 8839">
          <path id="Path_33208" data-name="Path 33208" class="cls-57" d="M122,8.8c-4.9-.6-6.7,4.9-6.7,8.6a21.238,21.238,0,0,0,.2,3c.5,3.5,2.4,5.5,3.6,6.1,0,0,1.1,4.1,3.6,5s7.5.2,7.8-6c3-2,4.8-8.7,1.9-13.2C129.3,7.5,124.8,7.8,122,8.8Z"/>
          <g id="Group_8835" data-name="Group 8835">
            <path id="Path_33209" data-name="Path 33209" class="cls-58" d="M128.9,24.7l.6,3.1L125,34.3l-5.2-6.5,1-3.9Z"/>
            <path id="Path_33210" data-name="Path 33210" class="cls-59" d="M138.7,53.1c-.8.9-3.9,1.3-3.8-1.4.1-2,.1-6.4.4-8.1,1.7-.1,3.5,2,4.5,3.3C139.7,48.8,139.6,52.2,138.7,53.1Z"/>
            <path id="Path_33211" data-name="Path 33211" class="cls-58" d="M107.7,51.4c.2,1.2,4.5,1.9,4.4-.8-.1-2,1-5.8.6-7.5-1.7-.1-4-.4-4.9.9C107.9,45.9,107.4,49.7,107.7,51.4Z"/>
            <path id="Path_33212" data-name="Path 33212" class="cls-15" d="M140,47c.2-2-.2-6-.1-8.6.3-6.6-.7-9.5-4.4-10.3a24.681,24.681,0,0,1-6.3-1.9l-4.6,6-4.5-6a27.626,27.626,0,0,1-6.5,2c-3.2.6-5.6,6.8-6.1,18.6l5.3.3c.4-3,1.5-6.3,1.9-8.5.2.4.1,1.5.6,3.6a4.715,4.715,0,0,0,3.7,3.6l4.1.7.3-1.7,8.1.6a2.524,2.524,0,0,0,2.7-2.1c.6-3.1.4-4.8.8-4.9.2,3.1-.6,4.9-.2,9A8.024,8.024,0,0,0,140,47Z"/>
          </g>
          <path id="Path_33213" data-name="Path 33213" class="cls-60" d="M135.5,28a22.5,22.5,0,0,0-2.4-.8c1.1,10-5,12.5-5,12.5h-9.8c-1.2.5-.8-12.8-2.2-12.5a16.144,16.144,0,0,0-2.6.9s.9,11.3,1.3,12.6h19.9C135.2,38.7,135.5,28,135.5,28Z"/>
          <path id="Path_33214" data-name="Path 33214" class="cls-60" d="M118.9,28.6c-.1-.4-.1-.7-.2-1.1,0-.3-.1-.6-.1-.8v-.1c-.8.2-1.6.4-2.5.6.4,3.1,1.2,10.1,1.2,10.3,0,.3,7.4,3.6,7.4,3.6l4.2-.8,4.2-13.1c-.8-.2-1.7-.4-2.5-.6v.1c0,.2-.1.4-.1.6-.6,4.1-1.9,9.5-6,9.5-3.6.1-4.9-4.2-5.6-8.2"/>
          <path id="Path_33215" data-name="Path 33215" class="cls-61" d="M135.1,55.1c-.6.1-6,2.7-10.5,2.7a21.4,21.4,0,0,1-9.5-2.7A18.576,18.576,0,0,0,114,57v.1l8.7,11.3a15.12,15.12,0,0,0,4.8-.1l8.7-11.1v-.1C136.1,57.2,135.6,56,135.1,55.1Z"/>
          <path id="Path_33216" data-name="Path 33216" class="cls-61" d="M147.3,50.2c-2.4.8-13.9,4.3-15.9,6.9-3.2,4.3-3.4,8.8-4,11.3,1.8.8,6.9,0,8.7-.9,3.6-1.8,14.6-11.2,15.7-13.6A3.28,3.28,0,0,0,147.3,50.2Z"/>
          <path id="Path_33217" data-name="Path 33217" class="cls-61" d="M102.6,50.2c-3.8-1.3-5,2.8-4.5,3.8,1.1,2.3,12.1,11.8,15.7,13.6,1.8.9,6.9,1.7,8.7.9-.3-2.3-1.2-8.3-4-11.3C116.2,54.7,104.9,51,102.6,50.2Z"/>
          <path id="Path_33218" data-name="Path 33218" class="cls-62" d="M134.9,66.2a44.764,44.764,0,0,1-8-1.1C123.4,63,103,51.6,103,51.6c-3.7-1-4.4,1.7-3.3,3.7,2.9,5.1,5.1,6.5,13.3,7.7,3,.4,8.8,3.2,12,4.4.2.7.9,1.5,2.7,1.7.9.1,4.4,1.7,6.8,1.6a3.854,3.854,0,0,0,2.7-2.7C137.1,67.1,137.9,66.3,134.9,66.2Z"/>
          <path id="Path_33219" data-name="Path 33219" class="cls-5" d="M134.9,66.2c-1,4.7-6.5,2.2-10,1.1.2.7.9,1.5,2.7,1.7.9.1,4.4,1.7,6.8,1.6a3.854,3.854,0,0,0,2.7-2.7C137.1,67.1,137.9,66.3,134.9,66.2Z"/>
          <path id="Path_33220" data-name="Path 33220" class="cls-26" d="M129.6,65.6h-.1a.367.367,0,0,1-.3-.1h-.1a.367.367,0,0,1-.3-.1h-.1a.367.367,0,0,1-.3-.1h-.1a.367.367,0,0,1-.3-.1h-.6a.367.367,0,0,1-.3-.1c-.6-.3-1.5-.9-2.8-1.7-.9.5-1.8,1-2,1.1-.3.1-1.1.4-2.3.7,1.9.8,3.8,1.6,5.1,2.1a.31.31,0,0,0,.1.2h0a.1.1,0,0,0,.1.1h0l.1.1h0c0,.1.1.1.1.2,1.2-.5,3-1.4,4.8-2.3h-.7Z"/>
          <path id="Path_33221" data-name="Path 33221" class="cls-63" d="M98.3,55.1c2.8,5.7,7,7.8,13.6,9.8,12,3.8,10.4,1.5,11.7,1.6a5.073,5.073,0,0,1,.9.2,7.25,7.25,0,0,0,1.5-2.5c-6.5-3.7-24-14.3-24-14.3C98.3,49,97.3,53.1,98.3,55.1Z"/>
          <path id="Path_33222" data-name="Path 33222" class="cls-64" d="M123.5,66.6a5.073,5.073,0,0,1,.9.2c.2-.2.3-.4.5-.6-10.6-3.2-21.6-11-26.5-14.8a4.371,4.371,0,0,0-.1,3.7c2.8,5.7,7,7.8,13.6,9.8C123.9,68.7,122.2,66.5,123.5,66.6Z"/>
          <path id="Path_33223" data-name="Path 33223" class="cls-65" d="M123.5,66.6a5.073,5.073,0,0,1,.9.2,7.25,7.25,0,0,0,1.5-2.5,5.735,5.735,0,0,1-.7-.4A10.111,10.111,0,0,1,123.5,66.6Z"/>
          <path id="Path_33224" data-name="Path 33224" class="cls-26" d="M122.1,64.5a35.744,35.744,0,0,1-6.5,1.6c1.3.4,2.4.6,3.3.8,1.2.1,2.5.1,3.5.2.6-.2.6-.5,1.1-.4a5.073,5.073,0,0,1,.9.2,7.25,7.25,0,0,0,1.5-2.5c-.5-.3-1-.6-1.6-.9A17.214,17.214,0,0,0,122.1,64.5Z"/>
          <path id="Path_33225" data-name="Path 33225" class="cls-59" d="M147.3,51S125,64.1,122.2,65.4a30.474,30.474,0,0,1-7.2.8c-3,0-2.2.9-2.2,1.7a3.854,3.854,0,0,0,2.7,2.7c2.4.2,5.9-1.5,6.8-1.6,1.9-.2,2.6-1.2,2.7-1.9,2.9-1.2,9.3-3.8,11.9-4.1,8.2-1.2,11.1-3.2,14-8.3C152.1,52.7,151,50,147.3,51Z"/>
          <path id="Path_33226" data-name="Path 33226" class="cls-5" d="M115,66.2c-3,0-2.2.9-2.2,1.7a3.854,3.854,0,0,0,2.7,2.7c2.4.2,5.9-1.5,6.8-1.6,1.9-.2,2.6-1.2,2.7-1.9C121.6,68.1,115.3,71.4,115,66.2Z"/>
          <path id="Path_33227" data-name="Path 33227" class="cls-63" d="M148.3,49.9s-17.5,10.6-24,14.3a24.933,24.933,0,0,0,2.2,4.3c.4-.1,4.3-1.1,11.9-3.5,6.5-2,10.7-4.1,13.6-9.8C153,53.1,152,49,148.3,49.9Z"/>
          <path id="Path_33228" data-name="Path 33228" class="cls-64" d="M125.3,66.3a7.648,7.648,0,0,0,1.3,2.1c.4-.1,4.3-1.1,11.9-3.5,6.5-2,10.7-4.1,13.6-9.8a4.067,4.067,0,0,0-.4-4.1C145.7,58.2,130.6,64.3,125.3,66.3Z"/>
          <path id="Path_33229" data-name="Path 33229" class="cls-37" d="M134,44.7a3.528,3.528,0,0,0,1.5-2.2,6.487,6.487,0,0,0-.7-4.4c-.1-3.7-.4-10.6-.4-10.6a28.638,28.638,0,0,0-2.8-.7c-.3,2-1.1,11-7,11s-6.5-9-6.8-11c-.9.2-1.8.4-2.8.7,0,0-.4,8.8-.5,11.3a6.566,6.566,0,0,0-.4,3.7,3.66,3.66,0,0,0,1.6,2.2c0,.1.1.3.1.4.2.8.5,6.6-1,9.7,7.2,4.3,11.7,4.6,20-.1-1-1.8-1.1-8.7-1-9.3C133.9,45.3,133.9,45,134,44.7Z"/>
          <path id="Path_33230" data-name="Path 33230" class="cls-26" d="M121.3,20.6s-.1,1.5-.2,3.1c1.1.8,2.4,1.7,3.4,1.7,1.1,0,2.6-1,3.7-1.8a17.664,17.664,0,0,1-.3-2.1C127.7,19.7,121.3,20.6,121.3,20.6Z"/>
          <path id="Path_33231" data-name="Path 33231" class="cls-59" d="M131,19.3l-1.2,4.2a3.321,3.321,0,0,0,1.3-.7,8.026,8.026,0,0,0,.4-3A.642.642,0,0,0,131,19.3Z"/>
          <path id="Path_33232" data-name="Path 33232" class="cls-26" d="M130.6,20c-.3,0-.6.4-.6,1.1-.1.6.1,1.2.4,1.2s.6-.4.6-1.1C131,20.6,130.9,20.1,130.6,20Z"/>
          <path id="Path_33233" data-name="Path 33233" class="cls-59" d="M117.5,19.8c0,.9.1,2.8.4,3a4.167,4.167,0,0,0,1.3.7L118,19.3C117.7,19.3,117.4,19.6,117.5,19.8Z"/>
          <path id="Path_33234" data-name="Path 33234" class="cls-26" d="M118.2,20c-.3,0-.4.6-.4,1.2.1.6.4,1.1.6,1.1.3,0,.4-.6.4-1.2C118.7,20.5,118.4,20,118.2,20Z"/>
          <path id="Path_33235" data-name="Path 33235" class="cls-12" d="M130.6,22.6a.3.3,0,1,0,.3.3A.319.319,0,0,0,130.6,22.6Z"/>
          <path id="Path_33236" data-name="Path 33236" class="cls-12" d="M118.3,22.6a.3.3,0,1,0,.3.3A.319.319,0,0,0,118.3,22.6Z"/>
          <path id="Path_33237" data-name="Path 33237" class="cls-65" d="M129.8,27.3s.4.8-.6,2.8c-.4.9-1.3,2.2-1.8,2.2a11.9,11.9,0,0,0-.9-1.5C125.3,28.9,129.8,27.3,129.8,27.3Z"/>
          <g id="Group_8836" data-name="Group 8836">
            <path id="Path_33238" data-name="Path 33238" class="cls-65" d="M124.6,33.1l1.7-3.8s3-2.3,2.6-1.2C128.7,28.4,126,33.3,124.6,33.1Z"/>
            <path id="Path_33239" data-name="Path 33239" class="cls-12" d="M129.3,25.7c0-.1.2-.1.2,0l.3,1.6s.5,1.8-2.1,4.8a7.992,7.992,0,0,0-1.4-2.7A12,12,0,0,0,129.3,25.7Z"/>
          </g>
          <path id="Path_33240" data-name="Path 33240" class="cls-65" d="M119.3,27.3s-.4.8.6,2.8c.4.9,1.3,2.4,1.8,2.4a13.966,13.966,0,0,1,.9-1.7C123.8,28.9,119.3,27.3,119.3,27.3Z"/>
          <g id="Group_8837" data-name="Group 8837">
            <path id="Path_33241" data-name="Path 33241" class="cls-65" d="M124.6,33.1l-1.7-3.8s-3-2.3-2.6-1.2C120.4,28.4,123.1,33.3,124.6,33.1Z"/>
            <path id="Path_33242" data-name="Path 33242" class="cls-12" d="M120.1,25.6l-.7,1.7s-.3,1.8,2.3,4.8a8.881,8.881,0,0,1,1.3-2.7,12.519,12.519,0,0,1-2.6-3.7C120.3,25.5,120.1,25.5,120.1,25.6Z"/>
          </g>
          <g id="Group_8838" data-name="Group 8838">
            <path id="Path_33243" data-name="Path 33243" class="cls-59" d="M129.3,19.3c-1.3-.6-1.8-2.6-4.4-2.2-1.5.3-2.3-.9-3.6-1.8-1.9.9-1.5,2.7-2.5,3.6a1.809,1.809,0,0,0-.7,1.7,21.48,21.48,0,0,0,.7,3.5,4.15,4.15,0,0,0,1.2,2c1.1,1,3.1,2.6,4.5,2.6,1.3,0,3.1-1.3,4.2-2.2a4.968,4.968,0,0,0,1.3-1.9c.2-.9.5-1.7.7-2.9A2.515,2.515,0,0,0,129.3,19.3Z"/>
          </g>
        </g>
        <path id="Path_33244" data-name="Path 33244" class="cls-59" d="M129.4,49.8c2.5.8,8.3-.2,9.4,1,.9.9.3,3.8-3.7,3.8a23.434,23.434,0,0,1-7.7-2C124.2,51.1,124.7,47.3,129.4,49.8Z"/>
        <path id="Path_33245" data-name="Path 33245" class="cls-58" d="M119.5,45.9c-2.5.8-10.3,2.7-11.3,3.8-.9.9-1.1,4.1,3,3.3s6.7-3.9,9.9-5.3C124.3,46.2,124.2,43.3,119.5,45.9Z"/>
        <path id="Path_33246" data-name="Path 33246" class="cls-58" d="M118.1,46.8c1.2-.7,1.9-2.7,2.5-3.4a10.737,10.737,0,0,1,4-2c.5,0,2.9,2,2.9,2l-.9,3.9-2.6-3C123.9,44.3,116.9,47.5,118.1,46.8Z"/>
        <g id="Group_8842" data-name="Group 8842">
          <g id="Group_8840" data-name="Group 8840">
            <path id="Path_33247" data-name="Path 33247" class="cls-12" d="M122.8,41.7h4a1,1,0,0,1,1,1v7.5a1,1,0,0,1-1,1h-4.2c-.5,0-.7-.4-.7-1V42.7A.923.923,0,0,1,122.8,41.7Z"/>
          </g>
          <g id="Group_8841" data-name="Group 8841">
            <path id="Path_33248" data-name="Path 33248" class="cls-5" d="M122.8,42.2h4a1,1,0,0,1,1,1v7.2a1,1,0,0,1-1,1h-4.2c-.5,0-.7-.4-.7-1V43.1A.9.9,0,0,1,122.8,42.2Z"/>
          </g>
          <path id="Path_33249" data-name="Path 33249" class="cls-12" d="M122.9,42.9c.2,0,.4.1.4.2s-.2.2-.4.2-.4-.1-.4-.2S122.7,42.9,122.9,42.9Z"/>
          <path id="Path_33250" data-name="Path 33250" class="cls-59" d="M120.2,44.4a2.39,2.39,0,0,1,.9.3c1.1.5,4.8,2.6,5.7,2.6,1-.1.6-1.3.6-1.3-.1-.7.1-1.7.7-1.7.3,0,.2.8.3,1.7l.7,2.5.7,2.6s-.9,1.9-2.4,1.5a39.514,39.514,0,0,1-5.2-1.3c-.7-.3-1-1.1-.9-1.3a.638.638,0,0,0,0-.6,1.1,1.1,0,0,1,0-.8.446.446,0,0,0,0-.5c-.3-.5-.1-1.1.5-1,.8.3,1.3.8,1.1.1-.7-.5-3-1.7-3.1-2.1C119.8,44.7,119.8,44.5,120.2,44.4Z"/>
        </g>
      </g>
      <g id="Group_8851" data-name="Group 8851">
        <g id="Group_8850" data-name="Group 8850">
          <path id="Path_33251" data-name="Path 33251" class="cls-48" d="M126.1,149.3l-10.5,1.9-10.8-1.8a32.746,32.746,0,0,0-8.5,2.3l-1.1.5,5.2,10s9.4-3.6,15.2-3.6,15.2,3.6,15.2,3.6l3.9-10.6h0A31.955,31.955,0,0,0,126.1,149.3Z"/>
          <path id="Path_33252" data-name="Path 33252" class="cls-10" d="M120.7,150.7l-5.1.5-4.8-.5c-2.6-.2-3.4-1.4-5.9-1.4,3.2,2.8,6.5,3.8,9.1,6.4a2.354,2.354,0,0,0,3.3,0c2.7-2.8,4.3-2.6,8.8-6.4C123.9,149.3,122.9,150.5,120.7,150.7Z"/>
          <g id="Group_8847" data-name="Group 8847">
            <path id="Path_33253" data-name="Path 33253" class="cls-66" d="M115.8,153.6a17.1,17.1,0,0,1-10.9-4.2,24.68,24.68,0,0,0,10.9,2.4,19.973,19.973,0,0,0,10.3-2.5A14.534,14.534,0,0,1,115.8,153.6Z"/>
            <path id="Path_33254" data-name="Path 33254" class="cls-67" d="M115.8,151.8a15.482,15.482,0,0,0,2.2-.1v1.8a.43.43,0,0,1-.4.4h-3.5a.43.43,0,0,1-.4-.4v-1.8A14.082,14.082,0,0,0,115.8,151.8Z"/>
            <path id="Path_33255" data-name="Path 33255" class="cls-68" d="M114.1,151.7V153a.319.319,0,0,0,.3.3h2.9a.319.319,0,0,0,.3-.3v-1.3h.5v1.8a.43.43,0,0,1-.4.4h-3.5a.43.43,0,0,1-.4-.4v-1.8Z"/>
            <path id="Path_33256" data-name="Path 33256" class="cls-69" d="M133.5,148.9c-2.9,1-5.2-1.7-5.2-1.7s-2.3-7.8-1.8-9.8c2-.1,6.1-.2,7-1.8C134.8,142,133.5,145.5,133.5,148.9Z"/>
            <path id="Path_33257" data-name="Path 33257" class="cls-26" d="M132,148.8c-1.6-.6-3.7-1.6-3.7-1.6a20.12,20.12,0,0,1-.9-3.5C130.2,144.6,133.4,148,132,148.8Z"/>
            <path id="Path_33258" data-name="Path 33258" class="cls-5" d="M98.8,136.2c-.1-1.4-.1-6.4.1-8.9.3-3.6,7.5-10.2,16.9-10.2,8.1,0,16.5,4.7,17.1,9.6.3,2.5.6,7.4.7,8.9-1.4,2-5.2,2.6-6.8,2.5-.5.7-1.1,8.6-.7,11.2a17.287,17.287,0,0,1-10.5,3.2c-6.3,0-7.4-1-10.7-3.1.6-2.5.3-10.6,0-11.3C104.5,138.6,99.1,140.1,98.8,136.2Z"/>
            <path id="Path_33259" data-name="Path 33259" class="cls-26" d="M121.9,144.5l-.8-1.6c-.1-.3.1-.8-.3-.8a1.1,1.1,0,0,0-1,.4v-1.4c0-.3-.5-.6-1.1-.6h-4.5c-.6,0-1.1.3-1.1.6v1.4s-.5,3.2.3,4c.9.3,3.4.3,3.5.6a69.426,69.426,0,0,0,6,4,12.426,12.426,0,0,0,3.1-1.8,16.33,16.33,0,0,1-.1-2.5l-1.3-.8C123.1,145.1,121.9,144.5,121.9,144.5Z"/>
            <path id="Path_33260" data-name="Path 33260" class="cls-69" d="M119.5,145.1c2.8.9,6.8-.8,9.9.1,3.6,1,2.7,1.6,3.9,2.9,1,1.1-.1,3.5-4.6,3.4s-7.4-1.9-11-3.5C114,146.3,114.1,142.2,119.5,145.1Z"/>
            <path id="Path_33261" data-name="Path 33261" class="cls-70" d="M100.7,150.3c3.1.5,5.2-2.8,5.2-2.8s-.7-7.7-1-9.4c-2,.2-4.9-.5-6-1.9C98.8,142.7,100.1,147,100.7,150.3Z"/>
            <path id="Path_33262" data-name="Path 33262" class="cls-26" d="M101.7,147.8c-.2.9.5,1.6,2.2,1.4h0c.1-.1.3-.2.4-.3h0c.1-.1.3-.2.4-.3h0l.3-.3h0l.8-.8h0s-.3-3.4-.6-6.2C103.6,142.7,102,146.3,101.7,147.8Z"/>
            <path id="Path_33263" data-name="Path 33263" class="cls-70" d="M111.5,140c-1.9,2.3-6,2.1-8.2,4.5-2.5,2.8-2.4,3.7-2.7,5.4-.3,1.4,2.2,2.5,6-.1,3.8-2.5,5.9-6,8.1-9.4C116.9,137.2,114.5,134.7,111.5,140Z"/>
            <path id="Path_33264" data-name="Path 33264" class="cls-70" d="M110,142.1c1.2-1.7,1.7-3.8,2.5-4.7.6-.7,3.1-1.4,4.1-1.5a1.16,1.16,0,0,1,1,.4l2.3,2.6-7.6,4.7C112.2,143.6,108.8,143.8,110,142.1Z"/>
            <g id="Group_8846" data-name="Group 8846">
              <g id="Group_8844" data-name="Group 8844">
                <path id="Path_33265" data-name="Path 33265" class="cls-71" d="M114.9,136.7h4.5a1.018,1.018,0,0,1,1.1.9v7.2a1.018,1.018,0,0,1-1.1.9h-4.8c-.6,0-.8-.4-.8-.9v-7.2A1.018,1.018,0,0,1,114.9,136.7Z"/>
              </g>
              <g id="Group_8845" data-name="Group 8845">
                <path id="Path_33266" data-name="Path 33266" class="cls-12" d="M114.9,137.6h4.5a1.018,1.018,0,0,1,1.1.9V145a1.018,1.018,0,0,1-1.1.9h-4.8c-.6,0-.8-.4-.8-.9v-6.4A1.028,1.028,0,0,1,114.9,137.6Z"/>
              </g>
              <path id="Path_33267" data-name="Path 33267" class="cls-72" d="M115.1,138.1c.2,0,.4.1.4.3a.446.446,0,0,1-.4.3c-.2,0-.4-.1-.4-.3A.446.446,0,0,1,115.1,138.1Z"/>
              <path id="Path_33268" data-name="Path 33268" class="cls-69" d="M111.9,139.1c.3-.1.6.1.9.2,1.3.6,5.8,3.1,6.8,3,1.1-.1.6-1.5.6-1.5a1.978,1.978,0,0,1,.2-1.1c.3-.8.7-.9,1-.8.4,0,.2.9.3,1.5l.8,2.9-1.3,4-3.6.7c-.1-.3-2.1-.6-3.4-1.2-.8-.4-1.2-1.3-1-1.5a.846.846,0,0,0,0-.7.746.746,0,0,1,0-.9.638.638,0,0,0,0-.6c-.3-.5-.1-1.3.6-1.1.9.3,1.5.9,1.3.1a24.815,24.815,0,0,1-3.6-2.4C111.4,139.4,111.5,139.2,111.9,139.1Z"/>
            </g>
          </g>
          <path id="Path_33269" data-name="Path 33269" class="cls-69" d="M122.3,123.6H109.8a1.473,1.473,0,0,1-1.5-1.5v-1.5c0-.9.3-1.1,1.2-1.1h13.7a.684.684,0,0,1,.7.7V122A1.64,1.64,0,0,1,122.3,123.6Z"/>
          <path id="Path_33270" data-name="Path 33270" class="cls-69" d="M121,127l-2.9,2.1a4.463,4.463,0,0,1-4.2,0l-2.7-2.1a2.371,2.371,0,0,1-.9-1.5l-.8-4.3c-.6-4,2.5-10.1,6.6-10.1H116c4,0,7.2,6,6.7,9.9l-.7,4.3A2.265,2.265,0,0,1,121,127Z"/>
          <path id="Path_33271" data-name="Path 33271" class="cls-73" d="M112.8,117.3s3,2.3,9.6,2.5c1.1-.8-1.1-5.3-1.1-5.3Z"/>
          <path id="Path_33272" data-name="Path 33272" class="cls-74" d="M122.7,110.6a6.788,6.788,0,0,0-6.6-4.3H116c-2.2,0-4.1-.1-6.5,2.6-2.7,3.1-1,9.3-1,9.3l.9,3.8a.15.15,0,0,0,.3,0,11.913,11.913,0,0,0,.1-2.5s2.2-1.6,2.9-2.2a29.617,29.617,0,0,0,7.8,1.3h1.2s.2,1.4.4,3.3c0,.2.4.2.4,0l.8-3.7a4.445,4.445,0,0,0,2.6-4.9S123.4,112.6,122.7,110.6Z"/>
          <g id="Group_8848" data-name="Group 8848">
            <path id="Path_33273" data-name="Path 33273" class="cls-5" d="M124.2,179.1l-1.1,4.2a1.422,1.422,0,0,0,.6,1.6l4.6,3.5a15.628,15.628,0,0,0,5.8,2.8h0a2.561,2.561,0,0,0,2.4-.6h0a2.023,2.023,0,0,0,.1-2.8l-5.5-5.7Z"/>
            <path id="Path_33274" data-name="Path 33274" class="cls-71" d="M134.4,190.1h0a17.341,17.341,0,0,1-5.8-2.8l-5.4-4.1-.1.2a1.422,1.422,0,0,0,.6,1.6l4.6,3.5a15.628,15.628,0,0,0,5.8,2.8h0a2.561,2.561,0,0,0,2.4-.6,1.571,1.571,0,0,0,.6-1.5C137,189.2,136.7,190.5,134.4,190.1Z"/>
            <path id="Path_33275" data-name="Path 33275" class="cls-48" d="M134.7,151.5a3.448,3.448,0,0,0-4.2,2.4l-.9,3.4-6.1,22.9,2.2,2.2,6.8.2,6.1-22.9.3-1a5.808,5.808,0,0,0-4.2-7.2Z"/>
            <path id="Path_33276" data-name="Path 33276" class="cls-10" d="M129.6,157.3l-6.1,22.9,2.2,2.2Z"/>
          </g>
          <g id="Group_8849" data-name="Group 8849">
            <path id="Path_33277" data-name="Path 33277" class="cls-5" d="M106.9,179.3l1.1,4.2a1.422,1.422,0,0,1-.6,1.6l-4.6,3.4a15.628,15.628,0,0,1-5.8,2.8h0a2.561,2.561,0,0,1-2.4-.6h0a2.023,2.023,0,0,1-.1-2.8l5.5-5.6Z"/>
            <path id="Path_33278" data-name="Path 33278" class="cls-71" d="M96.8,190.2h0a17.341,17.341,0,0,0,5.8-2.8l5.4-4.1v.2a1.422,1.422,0,0,1-.6,1.6l-4.6,3.4a15.628,15.628,0,0,1-5.8,2.8h0a2.561,2.561,0,0,1-2.4-.6,1.826,1.826,0,0,1-.6-1.5C94.1,189.4,94.5,190.6,96.8,190.2Z"/>
            <path id="Path_33279" data-name="Path 33279" class="cls-48" d="M96.5,151.6a3.448,3.448,0,0,1,4.2,2.4l.9,3.4,6.1,22.9-2.2,2.2-6.8.2-6.1-22.9-.3-1a5.885,5.885,0,0,1,4.2-7.2Z"/>
            <path id="Path_33280" data-name="Path 33280" class="cls-10" d="M101.6,157.4l6.1,22.9-2.3,2.3Z"/>
          </g>
        </g>
      </g>
    </g>
  </g>
</svg>
