<svg xmlns="http://www.w3.org/2000/svg" xmlns:xlink="http://www.w3.org/1999/xlink" viewBox="0 0 306 306">
  <defs>
    <style>
      .cls-1 {
        fill: none;
      }

      .cls-2 {
        fill: #118dbe;
      }

      .cls-3 {
        fill: #222c4d;
      }

      .cls-4 {
        fill: #fff;
      }

      .cls-5 {
        fill: #485372;
      }

      .cls-6 {
        fill: #6cafc4;
      }

      .cls-7 {
        fill: #0e2b4a;
      }

      .cls-8 {
        fill: #c4c4c4;
      }

      .cls-9 {
        fill: #aaa;
        opacity: 0.5;
      }

      .cls-10 {
        fill: #08a3dd;
      }

      .cls-11 {
        fill: #1e8aa1;
      }

      .cls-12 {
        fill: #e4eff4;
      }

      .cls-13 {
        fill: #5298b4;
      }

      .cls-14 {
        fill: #a35a4e;
      }

      .cls-15 {
        fill: #1b6893;
      }

      .cls-16 {
        fill: #221f1f;
      }

      .cls-17 {
        fill: #7db8d0;
      }

      .cls-18 {
        fill: #87c7ec;
      }

      .cls-19 {
        fill: #020202;
      }

      .cls-20 {
        fill: #c9e7f6;
      }

      .cls-21 {
        fill: #c3e4ee;
      }

      .cls-22 {
        fill: #ffcf59;
      }

      .cls-23 {
        clip-path: url(#clip-path);
      }

      .cls-24 {
        fill: #63c0c2;
      }

      .cls-24, .cls-25 {
        opacity: 0.85;
      }

      .cls-25 {
        fill: #5dc1d7;
      }

      .cls-26 {
        fill: #d81d5b;
      }

      .cls-27 {
        fill: #fffef4;
      }

      .cls-28 {
        fill: #40778c;
      }
    </style>
    <clipPath id="clip-path">
      <rect id="Rectangle_66" data-name="Rectangle 66" width="65.4" height="51.4" transform="translate(131.5 41.1)"/>
    </clipPath>
  </defs>
  <g id="Group_34595" data-name="Group 34595" transform="translate(-4712 -3820)">
    <rect id="Rectangle_1194" data-name="Rectangle 1194" class="cls-1" width="306" height="306" transform="translate(4712 3820)"/>
    <g id="Group_34590" data-name="Group 34590" transform="translate(4765 3856)">
      <g id="Group_8712" data-name="Group 8712">
        <g id="Group_8711" data-name="Group 8711">
          <g id="Group_8709" data-name="Group 8709">
            <g id="Group_8708" data-name="Group 8708">
              <g id="Group_8706" data-name="Group 8706">
                <path id="Path_32979" data-name="Path 32979" class="cls-2" d="M179.6,236.2a5.018,5.018,0,0,1-5.1,4.9H33.7a5.107,5.107,0,0,1-5.2-4.9V6a5.043,5.043,0,0,1,5.2-4.9H174.5A5.018,5.018,0,0,1,179.6,6Z"/>
                <path id="Path_32980" data-name="Path 32980" class="cls-3" d="M174.5,242.2H33.7a6.127,6.127,0,0,1-6.2-6V6a6.127,6.127,0,0,1,6.2-6H174.5a6.127,6.127,0,0,1,6.2,6V236.2a6.127,6.127,0,0,1-6.2,6ZM33.7,2.2A4,4,0,0,0,29.6,6V236.2a3.935,3.935,0,0,0,4.1,3.8H174.5a4,4,0,0,0,4.1-3.8V6a3.935,3.935,0,0,0-4.1-3.8Z"/>
              </g>
              <g id="Group_8707" data-name="Group 8707">
                <path id="Path_32981" data-name="Path 32981" class="cls-4" d="M179.6,236.2a5.018,5.018,0,0,1-5.1,4.9H33.7a5.107,5.107,0,0,1-5.2-4.9V6a5.043,5.043,0,0,1,5.2-4.9H174.5A5.018,5.018,0,0,1,179.6,6Z"/>
                <path id="Path_32982" data-name="Path 32982" class="cls-5" d="M174.5,242.2H33.7a6.127,6.127,0,0,1-6.2-6V6a6.127,6.127,0,0,1,6.2-6H174.5a6.127,6.127,0,0,1,6.2,6V236.2a6.127,6.127,0,0,1-6.2,6ZM33.7,2.2A4,4,0,0,0,29.6,6V236.2a3.935,3.935,0,0,0,4.1,3.8H174.5a4,4,0,0,0,4.1-3.8V6a3.935,3.935,0,0,0-4.1-3.8Z"/>
              </g>
              <rect id="Rectangle_58" data-name="Rectangle 58" class="cls-6" width="130.8" height="193" transform="translate(38.7 20)"/>
              <rect id="Rectangle_59" data-name="Rectangle 59" class="cls-7" width="130.8" height="15.2" transform="translate(38.7 20)"/>
              <path id="Path_32983" data-name="Path 32983" class="cls-8" d="M121,10.7a1.817,1.817,0,0,1-1.8,1.9H88.9a1.88,1.88,0,0,1-1.8-1.9h0a1.817,1.817,0,0,1,1.8-1.9h30.3a1.88,1.88,0,0,1,1.8,1.9Z"/>
              <path id="Path_32984" data-name="Path 32984" class="cls-9" d="M112.1,226.4a8,8,0,1,1-8-8A8.024,8.024,0,0,1,112.1,226.4Z"/>
            </g>
          </g>
          <g id="Group_8710" data-name="Group 8710">
            <path id="Path_32985" data-name="Path 32985" class="cls-10" d="M157.6,30.4a1.7,1.7,0,1,1-1.7-1.7A1.685,1.685,0,0,1,157.6,30.4Z"/>
            <path id="Path_32986" data-name="Path 32986" class="cls-10" d="M163.6,33h0a.865.865,0,0,1-.9-1,10.944,10.944,0,0,0-1.9-6.5c-1.9-2.6-6.4-1.8-6.5-1.8a.973.973,0,0,1-.4-1.9c.2,0,5.6-.9,8.3,2.6a12.643,12.643,0,0,1,2.2,7.7.882.882,0,0,1-.8.9Z"/>
            <path id="Path_32987" data-name="Path 32987" class="cls-10" d="M160,32.8h-.2a.921.921,0,0,1-.7-1.1,5.126,5.126,0,0,0-.6-3.7c-1-1.4-3.7-.8-3.8-.8a.922.922,0,0,1-.4-1.8c.2,0,3.9-.9,5.7,1.5a7.339,7.339,0,0,1,1,5.2,1.2,1.2,0,0,1-1,.7Z"/>
          </g>
        </g>
        <path id="Path_32988" data-name="Path 32988" class="cls-11" d="M51.5,28a3.3,3.3,0,1,1-3.3-3.3A3.265,3.265,0,0,1,51.5,28Z"/>
        <path id="Path_32989" data-name="Path 32989" class="cls-11" d="M64,28a3.3,3.3,0,1,1-3.3-3.3A3.265,3.265,0,0,1,64,28Z"/>
        <rect id="Rectangle_60" data-name="Rectangle 60" class="cls-10" width="75.6" height="4.6" transform="translate(70.4 26)"/>
      </g>
      <g id="Group_8719" data-name="Group 8719">
        <path id="Path_32990" data-name="Path 32990" class="cls-9" d="M176.8,131.6H125.4v83h63.9l10.1-12.9V131.6Z"/>
        <g id="Group_8718" data-name="Group 8718">
          <path id="Path_32991" data-name="Path 32991" class="cls-12" d="M142,126.2h51.4v70.1l-10.1,12.9H119.5v-83Z"/>
          <rect id="Rectangle_61" data-name="Rectangle 61" class="cls-13" width="25.9" height="25" transform="translate(160.2 147.6)"/>
          <rect id="Rectangle_62" data-name="Rectangle 62" class="cls-13" width="34.8" height="8.6" transform="translate(127.1 196.8)"/>
          <g id="Group_8715" data-name="Group 8715">
            <g id="Group_8714" data-name="Group 8714">
              <g id="Group_8713" data-name="Group 8713">
                <path id="Path_32992" data-name="Path 32992" d="M150.2,140.7H149l-1.8-3v3h-1.3v-6.3h1.2l1.8,3.1v-3.1h1.3Z"/>
                <path id="Path_32993" data-name="Path 32993" d="M151.5,140.7v-6.3h3.8v1.5h-2.4v.9h2v1.4h-2v1h2.4v1.5h-3.8Z"/>
                <path id="Path_32994" data-name="Path 32994" d="M161.2,140.7h-1.5l-.6-3.8h0l-.6,3.8H157l-1-6.3h1.5l.5,3.6h0l.5-3.6h1.4l.5,3.6h0l.5-3.6h1.4Z"/>
                <path id="Path_32995" data-name="Path 32995" d="M165.7,134.5a1.838,1.838,0,0,1,1,1,2,2,0,0,1,.2.9v.1h-1.3v-.2c0-.1-.1-.1-.1-.2s-.1-.1-.2-.1-.2-.1-.3-.1c-.2,0-.3,0-.4.1a.5.5,0,0,0,0,.6c.1.1.2.1.3.2.1,0,.3.1.4.1.2,0,.3.1.5.1.2.1.3.1.5.2a1.38,1.38,0,0,1,.4.3,2.186,2.186,0,0,1,.3.5,1.483,1.483,0,0,1,.1.7,3.083,3.083,0,0,1-.1,1,1.612,1.612,0,0,1-.4.7,2.092,2.092,0,0,1-.6.4,1.949,1.949,0,0,1-.8.1,2.768,2.768,0,0,1-.9-.1,1.612,1.612,0,0,1-.7-.4,4.233,4.233,0,0,1-.5-.7,3.6,3.6,0,0,1-.2-1.1h1.3v.4a.349.349,0,0,0,.1.2c.1.1.1.1.2.1h.5c.1,0,.1,0,.2-.1.1,0,.1-.1.2-.1,0-.1.1-.1.1-.2a.367.367,0,0,0-.1-.3c-.1-.1-.2-.1-.3-.2-.1,0-.3-.1-.4-.1-.2,0-.3-.1-.5-.2s-.3-.1-.5-.2a.781.781,0,0,1-.4-.4,2.186,2.186,0,0,1-.3-.5,1.949,1.949,0,0,1-.1-.8,2,2,0,0,1,.2-.9,1.538,1.538,0,0,1,.4-.6.864.864,0,0,1,.6-.3,1.7,1.7,0,0,1,.7-.1A2.388,2.388,0,0,1,165.7,134.5Z"/>
              </g>
            </g>
            <path id="Path_32996" data-name="Path 32996" class="cls-14" d="M185.4,131.7H127.5v-1.5h57.9Z"/>
            <path id="Path_32997" data-name="Path 32997" class="cls-14" d="M185.4,144.6H127.5v-1.5h57.9Z"/>
          </g>
          <g id="Group_8716" data-name="Group 8716">
            <path id="Path_32998" data-name="Path 32998" class="cls-15" d="M157,149.4H127.5v-3H157Z"/>
            <path id="Path_32999" data-name="Path 32999" class="cls-16" d="M157,152.7H127.5v-1.5H157Z"/>
            <path id="Path_33000" data-name="Path 33000" class="cls-16" d="M157,156.2H127.5v-1.5H157Z"/>
            <path id="Path_33001" data-name="Path 33001" class="cls-16" d="M157,159.6H127.5v-1.5H157Z"/>
            <path id="Path_33002" data-name="Path 33002" class="cls-16" d="M157,163.1H127.5v-1.5H157Z"/>
            <path id="Path_33003" data-name="Path 33003" class="cls-16" d="M157,166.6H127.5v-1.5H157Z"/>
            <path id="Path_33004" data-name="Path 33004" class="cls-16" d="M157,170.1H127.5v-1.5H157Z"/>
            <path id="Path_33005" data-name="Path 33005" class="cls-16" d="M157,173.6H127.5v-1.5H157Z"/>
          </g>
          <g id="Group_8717" data-name="Group 8717">
            <path id="Path_33006" data-name="Path 33006" class="cls-15" d="M188.1,181.3H127v-3h61.1Z"/>
            <path id="Path_33007" data-name="Path 33007" class="cls-16" d="M188.1,184.6H127v-1.5h61.1Z"/>
            <path id="Path_33008" data-name="Path 33008" class="cls-16" d="M188.1,188.1H127v-1.5h61.1Z"/>
            <path id="Path_33009" data-name="Path 33009" class="cls-16" d="M188.1,191.6H127v-1.5h61.1Z"/>
            <path id="Path_33010" data-name="Path 33010" class="cls-16" d="M188.1,195.1H127v-1.5h61.1Z"/>
            <path id="Path_33011" data-name="Path 33011" class="cls-16" d="M188.1,198.6h-23v-1.5h23Z"/>
            <path id="Path_33012" data-name="Path 33012" class="cls-16" d="M188.1,202.1h-23v-1.5h23Z"/>
            <path id="Path_33013" data-name="Path 33013" class="cls-16" d="M184.5,205.6H165.1v-1.5h19.4Z"/>
          </g>
          <path id="Path_33014" data-name="Path 33014" class="cls-12" d="M183.3,209.2l-2.8-10.9,12.9-2Z"/>
        </g>
      </g>
      <g id="Group_8736" data-name="Group 8736">
        <path id="Path_33015" data-name="Path 33015" class="cls-9" d="M69,150.8H42.1V205H75.6V159.2Z"/>
        <g id="Group_8735" data-name="Group 8735">
          <g id="Group_8734" data-name="Group 8734">
            <path id="Path_33016" data-name="Path 33016" class="cls-12" d="M78.5,155.8v45.8H45V147.4H71.9Z"/>
            <path id="Path_33017" data-name="Path 33017" class="cls-17" d="M71.9,147.4l-1.8,7.2,8.4,1.2Z"/>
            <g id="Group_8733" data-name="Group 8733">
              <rect id="Rectangle_63" data-name="Rectangle 63" class="cls-11" width="13.8" height="16.4" transform="translate(48.6 153.2)"/>
              <g id="Group_8732" data-name="Group 8732">
                <g id="Group_8727" data-name="Group 8727">
                  <g id="Group_8720" data-name="Group 8720">
                    <line id="Line_10" data-name="Line 10" class="cls-18" x2="27.5" transform="translate(48.6 173)"/>
                    <path id="Path_33018" data-name="Path 33018" class="cls-19" d="M76.1,173.6H48.6v-1.1H76.1Z"/>
                  </g>
                  <g id="Group_8721" data-name="Group 8721">
                    <line id="Line_11" data-name="Line 11" class="cls-18" x2="27.5" transform="translate(48.6 176.5)"/>
                    <path id="Path_33019" data-name="Path 33019" class="cls-19" d="M76.1,177H48.6v-1H76.1Z"/>
                  </g>
                  <g id="Group_8722" data-name="Group 8722">
                    <line id="Line_12" data-name="Line 12" class="cls-18" x2="27.5" transform="translate(48.6 180)"/>
                    <path id="Path_33020" data-name="Path 33020" class="cls-19" d="M76.1,180.5H48.6v-1.1H76.1Z"/>
                  </g>
                  <g id="Group_8723" data-name="Group 8723">
                    <line id="Line_13" data-name="Line 13" class="cls-18" x2="27.5" transform="translate(48.6 183.5)"/>
                    <path id="Path_33021" data-name="Path 33021" class="cls-19" d="M76.1,184H48.6v-1.1H76.1Z"/>
                  </g>
                  <g id="Group_8724" data-name="Group 8724">
                    <line id="Line_14" data-name="Line 14" class="cls-18" x2="27.5" transform="translate(48.6 186.9)"/>
                    <path id="Path_33022" data-name="Path 33022" class="cls-19" d="M76.1,187.5H48.6v-1.1H76.1Z"/>
                  </g>
                  <g id="Group_8725" data-name="Group 8725">
                    <line id="Line_15" data-name="Line 15" class="cls-18" x2="27.5" transform="translate(48.6 190.4)"/>
                    <path id="Path_33023" data-name="Path 33023" class="cls-19" d="M76.1,191H48.6v-1.1H76.1Z"/>
                  </g>
                  <g id="Group_8726" data-name="Group 8726">
                    <line id="Line_16" data-name="Line 16" class="cls-18" x2="27.5" transform="translate(48.6 193.9)"/>
                    <path id="Path_33024" data-name="Path 33024" class="cls-19" d="M76.1,194.4H48.6v-1H76.1Z"/>
                  </g>
                </g>
                <g id="Group_8731" data-name="Group 8731">
                  <g id="Group_8728" data-name="Group 8728">
                    <line id="Line_17" data-name="Line 17" class="cls-18" x2="11.2" transform="translate(64.9 162.4)"/>
                    <path id="Path_33025" data-name="Path 33025" class="cls-19" d="M76.1,162.9H64.9v-1.1H76.1Z"/>
                  </g>
                  <g id="Group_8729" data-name="Group 8729">
                    <line id="Line_18" data-name="Line 18" class="cls-18" x2="11.2" transform="translate(64.9 165.8)"/>
                    <path id="Path_33026" data-name="Path 33026" class="cls-19" d="M76.1,166.3H64.9v-1.1H76.1Z"/>
                  </g>
                  <g id="Group_8730" data-name="Group 8730">
                    <line id="Line_19" data-name="Line 19" class="cls-18" x2="11.2" transform="translate(64.9 169.1)"/>
                    <path id="Path_33027" data-name="Path 33027" class="cls-19" d="M76.1,169.7H64.9v-1.1H76.1Z"/>
                  </g>
                </g>
              </g>
            </g>
          </g>
        </g>
      </g>
      <g id="Group_8753" data-name="Group 8753">
        <path id="Path_33028" data-name="Path 33028" class="cls-9" d="M78.8,141.7H51.9V196H85.4V150.2Z"/>
        <g id="Group_8752" data-name="Group 8752">
          <g id="Group_8751" data-name="Group 8751">
            <path id="Path_33029" data-name="Path 33029" class="cls-12" d="M88.3,146.8v45.8H54.8V138.3H81.7Z"/>
            <path id="Path_33030" data-name="Path 33030" class="cls-17" d="M81.7,138.3l-1.8,7.2,8.4,1.3Z"/>
            <g id="Group_8750" data-name="Group 8750">
              <g id="Group_8749" data-name="Group 8749">
                <g id="Group_8744" data-name="Group 8744">
                  <g id="Group_8737" data-name="Group 8737">
                    <line id="Line_20" data-name="Line 20" class="cls-18" x2="27.5" transform="translate(58.4 163.9)"/>
                    <path id="Path_33031" data-name="Path 33031" class="cls-19" d="M85.9,164.5H58.4v-1.1H85.9Z"/>
                  </g>
                  <g id="Group_8738" data-name="Group 8738">
                    <line id="Line_21" data-name="Line 21" class="cls-18" x2="27.5" transform="translate(58.4 167.4)"/>
                    <path id="Path_33032" data-name="Path 33032" class="cls-19" d="M85.9,168H58.4v-1.1H85.9Z"/>
                  </g>
                  <g id="Group_8739" data-name="Group 8739">
                    <line id="Line_22" data-name="Line 22" class="cls-18" x2="27.5" transform="translate(58.4 170.9)"/>
                    <path id="Path_33033" data-name="Path 33033" class="cls-19" d="M85.9,171.4H58.4v-1H85.9Z"/>
                  </g>
                  <g id="Group_8740" data-name="Group 8740">
                    <line id="Line_23" data-name="Line 23" class="cls-18" x2="27.5" transform="translate(58.4 174.4)"/>
                    <path id="Path_33034" data-name="Path 33034" class="cls-19" d="M85.9,174.9H58.4v-1.1H85.9Z"/>
                  </g>
                  <g id="Group_8741" data-name="Group 8741">
                    <line id="Line_24" data-name="Line 24" class="cls-18" x2="27.5" transform="translate(58.4 177.9)"/>
                    <path id="Path_33035" data-name="Path 33035" class="cls-19" d="M85.9,178.4H58.4v-1.1H85.9Z"/>
                  </g>
                  <g id="Group_8742" data-name="Group 8742">
                    <line id="Line_25" data-name="Line 25" class="cls-18" x2="27.5" transform="translate(58.4 181.4)"/>
                    <path id="Path_33036" data-name="Path 33036" class="cls-19" d="M85.9,181.9H58.4v-1.1H85.9Z"/>
                  </g>
                  <g id="Group_8743" data-name="Group 8743">
                    <line id="Line_26" data-name="Line 26" class="cls-18" x2="27.5" transform="translate(58.4 184.8)"/>
                    <path id="Path_33037" data-name="Path 33037" class="cls-19" d="M85.9,185.4H58.4v-1.1H85.9Z"/>
                  </g>
                </g>
                <g id="Group_8748" data-name="Group 8748">
                  <g id="Group_8745" data-name="Group 8745">
                    <line id="Line_27" data-name="Line 27" class="cls-18" x2="27.5" transform="translate(58.4 153.3)"/>
                    <path id="Path_33038" data-name="Path 33038" class="cls-19" d="M85.9,153.8H58.4v-1H85.9Z"/>
                  </g>
                  <g id="Group_8746" data-name="Group 8746">
                    <line id="Line_28" data-name="Line 28" class="cls-18" x2="27.5" transform="translate(58.4 156.7)"/>
                    <path id="Path_33039" data-name="Path 33039" class="cls-19" d="M85.9,157.2H58.4v-1.1H85.9Z"/>
                  </g>
                  <g id="Group_8747" data-name="Group 8747">
                    <line id="Line_29" data-name="Line 29" class="cls-18" x2="27.5" transform="translate(58.4 160.1)"/>
                    <path id="Path_33040" data-name="Path 33040" class="cls-19" d="M85.9,160.6H58.4v-1.1H85.9Z"/>
                  </g>
                </g>
              </g>
            </g>
          </g>
        </g>
      </g>
      <g id="Group_8770" data-name="Group 8770">
        <path id="Path_33041" data-name="Path 33041" class="cls-9" d="M89.4,130.3h-27v54.2H96V138.7Z"/>
        <g id="Group_8769" data-name="Group 8769">
          <g id="Group_8768" data-name="Group 8768">
            <path id="Path_33042" data-name="Path 33042" class="cls-12" d="M98.9,135.3v45.8H65.3V126.9h27Z"/>
            <path id="Path_33043" data-name="Path 33043" class="cls-17" d="M92.3,126.9l-1.8,7.2,8.4,1.2Z"/>
            <g id="Group_8767" data-name="Group 8767">
              <g id="Group_8766" data-name="Group 8766">
                <g id="Group_8761" data-name="Group 8761">
                  <g id="Group_8754" data-name="Group 8754">
                    <line id="Line_30" data-name="Line 30" class="cls-18" x2="27.6" transform="translate(68.9 152.5)"/>
                    <path id="Path_33044" data-name="Path 33044" class="cls-19" d="M96.5,153.1H68.9V152H96.5Z"/>
                  </g>
                  <g id="Group_8755" data-name="Group 8755">
                    <line id="Line_31" data-name="Line 31" class="cls-18" x2="27.6" transform="translate(68.9 156)"/>
                    <path id="Path_33045" data-name="Path 33045" class="cls-19" d="M96.5,156.5H68.9v-1H96.5Z"/>
                  </g>
                  <g id="Group_8756" data-name="Group 8756">
                    <line id="Line_32" data-name="Line 32" class="cls-18" x2="27.6" transform="translate(68.9 159.5)"/>
                    <path id="Path_33046" data-name="Path 33046" class="cls-19" d="M96.5,160H68.9v-1.1H96.5Z"/>
                  </g>
                  <g id="Group_8757" data-name="Group 8757">
                    <line id="Line_33" data-name="Line 33" class="cls-18" x2="27.6" transform="translate(68.9 163)"/>
                    <path id="Path_33047" data-name="Path 33047" class="cls-19" d="M96.5,163.5H68.9v-1.1H96.5Z"/>
                  </g>
                  <g id="Group_8758" data-name="Group 8758">
                    <line id="Line_34" data-name="Line 34" class="cls-18" x2="27.6" transform="translate(68.9 166.4)"/>
                    <path id="Path_33048" data-name="Path 33048" class="cls-19" d="M96.5,167H68.9v-1.1H96.5Z"/>
                  </g>
                  <g id="Group_8759" data-name="Group 8759">
                    <line id="Line_35" data-name="Line 35" class="cls-18" x2="27.6" transform="translate(68.9 169.9)"/>
                    <path id="Path_33049" data-name="Path 33049" class="cls-19" d="M96.5,170.5H68.9v-1.1H96.5Z"/>
                  </g>
                  <g id="Group_8760" data-name="Group 8760">
                    <line id="Line_36" data-name="Line 36" class="cls-18" x2="27.6" transform="translate(68.9 173.4)"/>
                    <path id="Path_33050" data-name="Path 33050" class="cls-19" d="M96.5,173.9H68.9v-1H96.5Z"/>
                  </g>
                </g>
                <g id="Group_8765" data-name="Group 8765">
                  <g id="Group_8762" data-name="Group 8762">
                    <line id="Line_37" data-name="Line 37" class="cls-18" x2="27.5" transform="translate(69 141.9)"/>
                    <path id="Path_33051" data-name="Path 33051" class="cls-19" d="M96.5,142.4H69v-1.1H96.5Z"/>
                  </g>
                  <g id="Group_8763" data-name="Group 8763">
                    <line id="Line_38" data-name="Line 38" class="cls-18" x2="27.5" transform="translate(69 145.3)"/>
                    <path id="Path_33052" data-name="Path 33052" class="cls-19" d="M96.5,145.8H69v-1.1H96.5Z"/>
                  </g>
                  <g id="Group_8764" data-name="Group 8764">
                    <line id="Line_39" data-name="Line 39" class="cls-18" x2="27.5" transform="translate(69 148.6)"/>
                    <path id="Path_33053" data-name="Path 33053" class="cls-19" d="M96.5,149.2H69v-1.1H96.5Z"/>
                  </g>
                </g>
              </g>
            </g>
          </g>
        </g>
      </g>
      <g id="Group_8787" data-name="Group 8787">
        <path id="Path_33054" data-name="Path 33054" class="cls-9" d="M101.2,118.4H74.3v54.2h33.5V126.8Z"/>
        <g id="Group_8786" data-name="Group 8786">
          <g id="Group_8785" data-name="Group 8785">
            <path id="Path_33055" data-name="Path 33055" class="cls-12" d="M110.7,123.4v45.8H77.1V114.9h27Z"/>
            <path id="Path_33056" data-name="Path 33056" class="cls-20" d="M104.1,114.9l-1.8,7.2,8.4,1.3Z"/>
            <g id="Group_8784" data-name="Group 8784">
              <g id="Group_8783" data-name="Group 8783">
                <g id="Group_8778" data-name="Group 8778">
                  <g id="Group_8771" data-name="Group 8771">
                    <line id="Line_40" data-name="Line 40" class="cls-18" x2="27.6" transform="translate(80.7 140.6)"/>
                    <path id="Path_33057" data-name="Path 33057" class="cls-19" d="M108.3,141.1H80.7V140h27.6Z"/>
                  </g>
                  <g id="Group_8772" data-name="Group 8772">
                    <line id="Line_41" data-name="Line 41" class="cls-18" x2="27.6" transform="translate(80.7 144.1)"/>
                    <path id="Path_33058" data-name="Path 33058" class="cls-19" d="M108.3,144.6H80.7v-1.1h27.6Z"/>
                  </g>
                  <g id="Group_8773" data-name="Group 8773">
                    <line id="Line_42" data-name="Line 42" class="cls-18" x2="27.6" transform="translate(80.7 147.5)"/>
                    <path id="Path_33059" data-name="Path 33059" class="cls-19" d="M108.3,148.1H80.7V147h27.6Z"/>
                  </g>
                  <g id="Group_8774" data-name="Group 8774">
                    <line id="Line_43" data-name="Line 43" class="cls-18" x2="27.6" transform="translate(80.7 151)"/>
                    <path id="Path_33060" data-name="Path 33060" class="cls-19" d="M108.3,151.6H80.7v-1.1h27.6Z"/>
                  </g>
                  <g id="Group_8775" data-name="Group 8775">
                    <line id="Line_44" data-name="Line 44" class="cls-18" x2="27.6" transform="translate(80.7 154.5)"/>
                    <path id="Path_33061" data-name="Path 33061" class="cls-19" d="M108.3,155H80.7v-1h27.6Z"/>
                  </g>
                  <g id="Group_8776" data-name="Group 8776">
                    <line id="Line_45" data-name="Line 45" class="cls-18" x2="27.6" transform="translate(80.7 158)"/>
                    <path id="Path_33062" data-name="Path 33062" class="cls-19" d="M108.3,158.5H80.7v-1.1h27.6Z"/>
                  </g>
                  <g id="Group_8777" data-name="Group 8777">
                    <line id="Line_46" data-name="Line 46" class="cls-18" x2="27.6" transform="translate(80.7 161.5)"/>
                    <path id="Path_33063" data-name="Path 33063" class="cls-19" d="M108.3,162H80.7v-1.1h27.6Z"/>
                  </g>
                </g>
                <g id="Group_8782" data-name="Group 8782">
                  <g id="Group_8779" data-name="Group 8779">
                    <line id="Line_47" data-name="Line 47" class="cls-18" x2="27.5" transform="translate(80.8 129.9)"/>
                    <path id="Path_33064" data-name="Path 33064" class="cls-19" d="M108.3,130.5H80.8v-1.1h27.5Z"/>
                  </g>
                  <g id="Group_8780" data-name="Group 8780">
                    <line id="Line_48" data-name="Line 48" class="cls-18" x2="27.5" transform="translate(80.8 133.3)"/>
                    <path id="Path_33065" data-name="Path 33065" class="cls-19" d="M108.3,133.9H80.8v-1.1h27.5Z"/>
                  </g>
                  <g id="Group_8781" data-name="Group 8781">
                    <line id="Line_49" data-name="Line 49" class="cls-18" x2="27.5" transform="translate(80.8 136.7)"/>
                    <path id="Path_33066" data-name="Path 33066" class="cls-19" d="M108.3,137.2H80.8v-1.1h27.5Z"/>
                  </g>
                </g>
              </g>
            </g>
          </g>
        </g>
      </g>
      <g id="Group_8792" data-name="Group 8792">
        <rect id="Rectangle_64" data-name="Rectangle 64" class="cls-9" width="65.4" height="51.4" transform="translate(134.8 44.4)"/>
        <g id="Group_8791" data-name="Group 8791">
          <rect id="Rectangle_65" data-name="Rectangle 65" class="cls-7" width="65.4" height="51.4" transform="translate(131.5 41.1)"/>
          <path id="Path_33067" data-name="Path 33067" class="cls-21" d="M176.9,56l12.5-.3s-.5-6.3-4.1-5.5-3.1,2.1-3.1,2.1-2.8-1.9-3.9-.4A8.82,8.82,0,0,0,176.9,56Z"/>
          <path id="Path_33068" data-name="Path 33068" class="cls-22" d="M172.4,47.3s-4-.4-4.6,2.4,1.6,4.9,4.5,4.1C175.2,53.1,175.4,48.6,172.4,47.3Z"/>
          <g id="Group_8790" data-name="Group 8790">
            <g id="Group_8788" data-name="Group 8788" class="cls-23">
              <path id="Path_33069" data-name="Path 33069" class="cls-24" d="M133.4,96.8s11.9-48.6,26.3-41.9C174.1,61.7,180,95.6,180,95.6Z"/>
            </g>
            <g id="Group_8789" data-name="Group 8789" class="cls-23">
              <path id="Path_33070" data-name="Path 33070" class="cls-25" d="M155,100.3s15.4-45.4,26.1-38.9,13.7,34.5,13.7,34.5Z"/>
            </g>
          </g>
        </g>
      </g>
      <g id="Group_8795" data-name="Group 8795">
        <path id="Path_33071" data-name="Path 33071" class="cls-9" d="M118.8,82.2V119h44.6V82.2Z"/>
        <g id="Group_8794" data-name="Group 8794">
          <rect id="Rectangle_68" data-name="Rectangle 68" class="cls-12" width="44.6" height="35" transform="translate(116.7 81.9)"/>
          <rect id="Rectangle_69" data-name="Rectangle 69" class="cls-26" width="44.6" height="30.9" transform="translate(116.7 86)"/>
          <g id="Group_8793" data-name="Group 8793">
            <path id="Path_33072" data-name="Path 33072" class="cls-20" d="M136.5,105.6l6.7-3.9a.375.375,0,0,0,0-.6l-6.7-3.9c-.1-.1-.2-.1-.4,0-.1.1-.2.2-.2.3v7.7c0,.1.1.2.2.3A.247.247,0,0,0,136.5,105.6Z"/>
            <path id="Path_33073" data-name="Path 33073" class="cls-20" d="M138.9,91.7a9.7,9.7,0,1,0,9.7,9.7A9.646,9.646,0,0,0,138.9,91.7Zm0,17.5a7.64,7.64,0,0,1-7.7-7.7,7.725,7.725,0,0,1,7.7-7.8,7.64,7.64,0,0,1,7.7,7.7A7.79,7.79,0,0,1,138.9,109.2Z"/>
          </g>
        </g>
      </g>
      <g id="Group_8803" data-name="Group 8803">
        <path id="Path_33074" data-name="Path 33074" class="cls-9" d="M121.6,28.4H5.5a2.829,2.829,0,0,0-2.7,3v70a2.829,2.829,0,0,0,2.7,3H44.6l19.8,9.8-3.8-9.8h60.9a2.829,2.829,0,0,0,2.7-3v-70A2.884,2.884,0,0,0,121.6,28.4Z"/>
        <g id="Group_8802" data-name="Group 8802">
          <g id="Group_8801" data-name="Group 8801">
            <g id="Group_8798" data-name="Group 8798">
              <path id="Path_33075" data-name="Path 33075" class="cls-12" d="M121.4,96.1a2.829,2.829,0,0,1-2.7,3H2.7a2.829,2.829,0,0,1-2.7-3v-70a2.829,2.829,0,0,1,2.7-3h116a2.829,2.829,0,0,1,2.7,3v70Z"/>
              <path id="Path_33076" data-name="Path 33076" class="cls-26" d="M118.7,23.1H2.7a2.829,2.829,0,0,0-2.7,3V41.2H121.4V26.1A2.829,2.829,0,0,0,118.7,23.1Z"/>
              <g id="Group_8797" data-name="Group 8797">
                <g id="Group_8796" data-name="Group 8796">
                  <path id="Path_33077" data-name="Path 33077" class="cls-27" d="M14.6,36.5H12.8l-2.6-4.4v4.4H8.3v-9h1.8l2.6,4.4V27.5h1.8v9Z"/>
                  <path id="Path_33078" data-name="Path 33078" class="cls-27" d="M16.4,36.5v-9h5.4v2.2H18.4v1.2h2.9V33H18.4v1.4h3.5v2.2H16.4Z"/>
                  <path id="Path_33079" data-name="Path 33079" class="cls-27" d="M30.3,36.5H28.1L27.3,31h0l-.8,5.5H24.3l-1.5-9h2.1l.7,5.1h0l.7-5.1h2l.8,5.1h0l.7-5.1h2Z"/>
                  <path id="Path_33080" data-name="Path 33080" class="cls-27" d="M36.7,27.5a4.053,4.053,0,0,1,.9.5,1.456,1.456,0,0,1,.6.9,4.3,4.3,0,0,1,.2,1.2v.2H36.5v-.4c0-.1-.1-.2-.1-.3-.1-.1-.1-.2-.3-.2-.1-.1-.2-.1-.4-.1a.845.845,0,0,0-.6.2.758.758,0,0,0-.2.4.52.52,0,0,0,.2.4,1.38,1.38,0,0,0,.4.3c.2.1.4.1.6.2a6.373,6.373,0,0,0,.7.2c.2.1.5.2.7.3a2.651,2.651,0,0,1,.6.5,1.612,1.612,0,0,1,.4.7,3.087,3.087,0,0,1,.2,1.1,5.212,5.212,0,0,1-.2,1.4,2.075,2.075,0,0,1-.6,1,2.034,2.034,0,0,1-.9.6,3.6,3.6,0,0,1-1.1.2,4.869,4.869,0,0,1-1.2-.1,3.128,3.128,0,0,1-1-.5,2.552,2.552,0,0,1-.7-1,3.664,3.664,0,0,1-.2-1.6h1.9a1.268,1.268,0,0,0,.1.6c0,.1.1.3.2.3.1.1.2.1.3.2H36a.367.367,0,0,0,.3-.1.215.215,0,0,0,.2-.2.367.367,0,0,0,.1-.3.52.52,0,0,0-.2-.4,1.38,1.38,0,0,0-.4-.3c-.2-.1-.4-.1-.6-.2a6.374,6.374,0,0,0-.7-.2c-.2-.1-.5-.2-.7-.3a2.651,2.651,0,0,1-.6-.5,2.01,2.01,0,0,1-.4-.8,3.6,3.6,0,0,1-.2-1.1A4.438,4.438,0,0,1,33,29a2.837,2.837,0,0,1,.6-.9,4.053,4.053,0,0,1,.9-.5,3.6,3.6,0,0,1,1.1-.2A4.1,4.1,0,0,1,36.7,27.5Z"/>
                </g>
              </g>
            </g>
            <g id="Group_8799" data-name="Group 8799">
              <path id="Path_33081" data-name="Path 33081" class="cls-16" d="M89.3,52.2H5.5V48.1H89.3Z"/>
              <path id="Path_33082" data-name="Path 33082" class="cls-16" d="M89.3,59.3H5.5V55.2H89.3Z"/>
              <path id="Path_33083" data-name="Path 33083" class="cls-16" d="M89.3,66.3H5.5v-4H89.3Z"/>
              <path id="Path_33084" data-name="Path 33084" class="cls-16" d="M89.3,73.4H5.5V69.3H89.3Z"/>
            </g>
            <rect id="Rectangle_70" data-name="Rectangle 70" class="cls-13" width="21" height="24.4" transform="translate(93.4 48.4)"/>
            <rect id="Rectangle_71" data-name="Rectangle 71" class="cls-13" width="16.5" height="17.7" transform="translate(7.5 76.4)"/>
            <rect id="Rectangle_72" data-name="Rectangle 72" class="cls-28" width="16.5" height="17.7" transform="translate(25.2 76.4)"/>
            <g id="Group_8800" data-name="Group 8800">
              <path id="Path_33085" data-name="Path 33085" class="cls-16" d="M117.5,81.8H44.3V77.7h73.2Z"/>
              <path id="Path_33086" data-name="Path 33086" class="cls-16" d="M117.5,88H44.3V83.9h73.2Z"/>
              <path id="Path_33087" data-name="Path 33087" class="cls-16" d="M117.5,94.3H44.3v-4h73.2Z"/>
            </g>
          </g>
          <path id="Path_33088" data-name="Path 33088" class="cls-12" d="M57.1,97.2l4.5,11.7-24.4-12Z"/>
        </g>
      </g>
    </g>
  </g>
</svg>
