<svg xmlns="http://www.w3.org/2000/svg" xmlns:xlink="http://www.w3.org/1999/xlink" viewBox="0 0 354 432">
  <defs>
    <style>
      .cls-1 {
        fill: none;
      }

      .cls-2 {
        fill: #118dbe;
      }

      .cls-3 {
        fill: #222c4d;
      }

      .cls-4 {
        fill: #fff;
      }

      .cls-5 {
        fill: #485372;
      }

      .cls-6 {
        fill: #6cafc4;
      }

      .cls-7 {
        fill: #0e2b4a;
      }

      .cls-8 {
        fill: #c4c4c4;
      }

      .cls-9 {
        fill: #aaa;
        opacity: 0.5;
      }

      .cls-10 {
        fill: #08a3dd;
      }

      .cls-11 {
        fill: #1e8aa1;
      }

      .cls-12 {
        fill: #e4eff4;
      }

      .cls-13 {
        fill: #5298b4;
      }

      .cls-14 {
        fill: #a35a4e;
      }

      .cls-15 {
        fill: #1b6893;
      }

      .cls-16 {
        fill: #221f1f;
      }

      .cls-17 {
        fill: #7db8d0;
      }

      .cls-18 {
        fill: #87c7ec;
      }

      .cls-19 {
        fill: #020202;
      }

      .cls-20 {
        fill: #c9e7f6;
      }

      .cls-21 {
        fill: #c3e4ee;
      }

      .cls-22 {
        fill: #ffcf59;
      }

      .cls-23 {
        clip-path: url(#clip-path);
      }

      .cls-24 {
        fill: #63c0c2;
      }

      .cls-24, .cls-25 {
        opacity: 0.85;
      }

      .cls-25 {
        fill: #5dc1d7;
      }

      .cls-26 {
        fill: #d81d5b;
      }

      .cls-27 {
        fill: #fffef4;
      }

      .cls-28 {
        fill: #40778c;
      }
    </style>
    <clipPath id="clip-path">
      <rect id="Rectangle_66" data-name="Rectangle 66" width="74.716" height="58.722"/>
    </clipPath>
  </defs>
  <g id="Group_34640" data-name="Group 34640" transform="translate(-4469 -4728)">
    <rect id="Rectangle_1206" data-name="Rectangle 1206" class="cls-1" width="354" height="432" transform="translate(4469 4728)"/>
    <g id="Group_34631" data-name="Group 34631" transform="translate(4532 4802.5)">
      <g id="Group_8712" data-name="Group 8712" transform="translate(31.417)">
        <g id="Group_8711" data-name="Group 8711">
          <g id="Group_8709" data-name="Group 8709">
            <g id="Group_8708" data-name="Group 8708">
              <g id="Group_8706" data-name="Group 8706">
                <path id="Path_32979" data-name="Path 32979" class="cls-2" d="M201.123,269.689a5.732,5.732,0,0,1-5.826,5.6H34.441a5.835,5.835,0,0,1-5.941-5.6V6.7a5.761,5.761,0,0,1,5.941-5.6H195.3a5.732,5.732,0,0,1,5.826,5.6Z" transform="translate(-27.358 0.157)"/>
                <path id="Path_32980" data-name="Path 32980" class="cls-3" d="M195.439,276.7H34.583a7,7,0,0,1-7.083-6.855V6.855A7,7,0,0,1,34.583,0H195.439a7,7,0,0,1,7.083,6.855V269.845a7,7,0,0,1-7.083,6.855ZM34.583,2.513A4.569,4.569,0,0,0,29.9,6.855V269.845a4.5,4.5,0,0,0,4.684,4.341H195.439a4.569,4.569,0,0,0,4.684-4.341V6.855a4.5,4.5,0,0,0-4.684-4.341Z" transform="translate(-27.5)"/>
              </g>
              <g id="Group_8707" data-name="Group 8707">
                <path id="Path_32981" data-name="Path 32981" class="cls-4" d="M201.123,269.689a5.732,5.732,0,0,1-5.826,5.6H34.441a5.835,5.835,0,0,1-5.941-5.6V6.7a5.761,5.761,0,0,1,5.941-5.6H195.3a5.732,5.732,0,0,1,5.826,5.6Z" transform="translate(-27.358 0.157)"/>
                <path id="Path_32982" data-name="Path 32982" class="cls-5" d="M195.439,276.7H34.583a7,7,0,0,1-7.083-6.855V6.855A7,7,0,0,1,34.583,0H195.439a7,7,0,0,1,7.083,6.855V269.845a7,7,0,0,1-7.083,6.855ZM34.583,2.513A4.569,4.569,0,0,0,29.9,6.855V269.845a4.5,4.5,0,0,0,4.684,4.341H195.439a4.569,4.569,0,0,0,4.684-4.341V6.855a4.5,4.5,0,0,0-4.684-4.341Z" transform="translate(-27.5)"/>
              </g>
              <rect id="Rectangle_58" data-name="Rectangle 58" class="cls-6" width="149.432" height="220.492" transform="translate(12.795 22.849)"/>
              <rect id="Rectangle_59" data-name="Rectangle 59" class="cls-7" width="149.432" height="17.365" transform="translate(12.795 22.849)"/>
              <path id="Path_32983" data-name="Path 32983" class="cls-8" d="M125.829,10.971a2.076,2.076,0,0,1-2.056,2.171H89.156A2.148,2.148,0,0,1,87.1,10.971h0A2.076,2.076,0,0,1,89.156,8.8h34.616a2.148,2.148,0,0,1,2.056,2.171Z" transform="translate(-19.01 1.254)"/>
              <path id="Path_32984" data-name="Path 32984" class="cls-9" d="M114.379,227.54a9.14,9.14,0,1,1-9.14-9.14A9.166,9.166,0,0,1,114.379,227.54Z" transform="translate(-17.728 31.11)"/>
            </g>
          </g>
          <g id="Group_8710" data-name="Group 8710" transform="translate(143.583 24.787)">
            <path id="Path_32985" data-name="Path 32985" class="cls-10" d="M158.084,30.642a1.942,1.942,0,1,1-1.942-1.942A1.926,1.926,0,0,1,158.084,30.642Z" transform="translate(-153.036 -20.699)"/>
            <path id="Path_32986" data-name="Path 32986" class="cls-10" d="M165.084,34.61h0a.988.988,0,0,1-1.028-1.142,12.5,12.5,0,0,0-2.171-7.426c-2.171-2.97-7.312-2.056-7.426-2.056A1.111,1.111,0,0,1,154,21.815c.228,0,6.4-1.028,9.482,2.97a14.444,14.444,0,0,1,2.513,8.8,1.007,1.007,0,0,1-.914,1.028Z" transform="translate(-153.181 -21.696)"/>
            <path id="Path_32987" data-name="Path 32987" class="cls-10" d="M160.914,33.878h-.228a1.052,1.052,0,0,1-.8-1.257,5.856,5.856,0,0,0-.685-4.227c-1.142-1.6-4.227-.914-4.341-.914a1.053,1.053,0,0,1-.457-2.056c.228,0,4.456-1.028,6.512,1.714a8.384,8.384,0,0,1,1.142,5.941,1.376,1.376,0,0,1-1.142.8Z" transform="translate(-153.124 -21.192)"/>
          </g>
        </g>
        <path id="Path_32988" data-name="Path 32988" class="cls-11" d="M52.44,28.47a3.77,3.77,0,1,1-3.77-3.77A3.73,3.73,0,0,1,52.44,28.47Z" transform="translate(-25.021 3.518)"/>
        <path id="Path_32989" data-name="Path 32989" class="cls-11" d="M64.94,28.47a3.77,3.77,0,1,1-3.77-3.77A3.73,3.73,0,0,1,64.94,28.47Z" transform="translate(-23.241 3.518)"/>
        <rect id="Rectangle_60" data-name="Rectangle 60" class="cls-10" width="86.369" height="5.255" transform="translate(49.011 29.704)"/>
      </g>
      <g id="Group_8719" data-name="Group 8719" transform="translate(136.522 144.176)">
        <path id="Path_32990" data-name="Path 32990" class="cls-9" d="M184.122,131.6H125.4v94.823h73l11.539-14.738V131.6Z" transform="translate(-118.66 -125.431)"/>
        <g id="Group_8718" data-name="Group 8718">
          <path id="Path_32991" data-name="Path 32991" class="cls-12" d="M145.2,126.2h58.722v80.085l-11.539,14.738H119.5V126.2Z" transform="translate(-119.5 -126.2)"/>
          <rect id="Rectangle_61" data-name="Rectangle 61" class="cls-13" width="29.589" height="28.561" transform="translate(46.497 24.448)"/>
          <rect id="Rectangle_62" data-name="Rectangle 62" class="cls-13" width="39.757" height="9.825" transform="translate(8.683 80.657)"/>
          <g id="Group_8715" data-name="Group 8715" transform="translate(9.14 4.57)">
            <g id="Group_8714" data-name="Group 8714" transform="translate(21.021 4.684)">
              <g id="Group_8713" data-name="Group 8713">
                <path id="Path_32992" data-name="Path 32992" d="M150.813,141.6h-1.371l-2.056-3.427V141.6H145.9v-7.2h1.371l2.056,3.542V134.4h1.485Z" transform="translate(-145.9 -134.286)"/>
                <path id="Path_32993" data-name="Path 32993" d="M151.5,141.6v-7.2h4.341v1.714H153.1v1.028h2.285v1.6H153.1v1.142h2.742V141.6Z" transform="translate(-145.102 -134.286)"/>
                <path id="Path_32994" data-name="Path 32994" d="M161.941,141.6h-1.714l-.685-4.341h0l-.685,4.341h-1.714L156,134.4h1.714l.571,4.113h0l.571-4.113h1.6l.571,4.113h0l.571-4.113h1.6Z" transform="translate(-144.461 -134.286)"/>
                <path id="Path_32995" data-name="Path 32995" d="M166.1,134.528a2.1,2.1,0,0,1,1.142,1.142,2.281,2.281,0,0,1,.228,1.028v.114h-1.485v-.228c0-.114-.114-.114-.114-.228s-.114-.114-.228-.114-.228-.114-.343-.114c-.228,0-.343,0-.457.114a.571.571,0,0,0,0,.685c.114.114.228.114.343.228.114,0,.343.114.457.114.228,0,.343.114.571.114.228.114.343.114.571.228a1.577,1.577,0,0,1,.457.343,2.5,2.5,0,0,1,.343.571,1.694,1.694,0,0,1,.114.8,3.522,3.522,0,0,1-.114,1.142,1.841,1.841,0,0,1-.457.8,2.39,2.39,0,0,1-.685.457,2.227,2.227,0,0,1-.914.114,3.162,3.162,0,0,1-1.028-.114,1.841,1.841,0,0,1-.8-.457,4.836,4.836,0,0,1-.571-.8,4.107,4.107,0,0,1-.228-1.257h1.485v.457a.4.4,0,0,0,.114.229c.114.114.114.114.228.114h.571c.114,0,.114,0,.228-.114.114,0,.114-.114.228-.114,0-.114.114-.114.114-.228a.42.42,0,0,0-.114-.343c-.114-.114-.228-.114-.343-.228-.114,0-.343-.114-.457-.114-.228,0-.343-.114-.571-.228s-.343-.114-.571-.228a.892.892,0,0,1-.457-.457,2.5,2.5,0,0,1-.343-.571,2.227,2.227,0,0,1-.114-.914,2.282,2.282,0,0,1,.228-1.028,1.757,1.757,0,0,1,.457-.685.987.987,0,0,1,.685-.343,1.944,1.944,0,0,1,.8-.114A2.729,2.729,0,0,1,166.1,134.528Z" transform="translate(-143.478 -134.3)"/>
              </g>
            </g>
            <path id="Path_32996" data-name="Path 32996" class="cls-14" d="M193.648,131.914H127.5V130.2h66.148Z" transform="translate(-127.5 -130.2)"/>
            <path id="Path_32997" data-name="Path 32997" class="cls-14" d="M193.648,144.814H127.5V143.1h66.148Z" transform="translate(-127.5 -128.362)"/>
          </g>
          <g id="Group_8716" data-name="Group 8716" transform="translate(9.14 23.077)">
            <path id="Path_32998" data-name="Path 32998" class="cls-15" d="M161.2,149.827H127.5V146.4h33.7Z" transform="translate(-127.5 -146.4)"/>
            <path id="Path_32999" data-name="Path 32999" class="cls-16" d="M161.2,152.914H127.5V151.2h33.7Z" transform="translate(-127.5 -145.716)"/>
            <path id="Path_33000" data-name="Path 33000" class="cls-16" d="M161.2,156.414H127.5V154.7h33.7Z" transform="translate(-127.5 -145.218)"/>
            <path id="Path_33001" data-name="Path 33001" class="cls-16" d="M161.2,159.814H127.5V158.1h33.7Z" transform="translate(-127.5 -144.733)"/>
            <path id="Path_33002" data-name="Path 33002" class="cls-16" d="M161.2,163.314H127.5V161.6h33.7Z" transform="translate(-127.5 -144.235)"/>
            <path id="Path_33003" data-name="Path 33003" class="cls-16" d="M161.2,166.814H127.5V165.1h33.7Z" transform="translate(-127.5 -143.736)"/>
            <path id="Path_33004" data-name="Path 33004" class="cls-16" d="M161.2,170.314H127.5V168.6h33.7Z" transform="translate(-127.5 -143.238)"/>
            <path id="Path_33005" data-name="Path 33005" class="cls-16" d="M161.2,173.814H127.5V172.1h33.7Z" transform="translate(-127.5 -142.739)"/>
          </g>
          <g id="Group_8717" data-name="Group 8717" transform="translate(8.568 59.521)">
            <path id="Path_33006" data-name="Path 33006" class="cls-15" d="M196.8,181.727H127V178.3h69.8Z" transform="translate(-127 -178.3)"/>
            <path id="Path_33007" data-name="Path 33007" class="cls-16" d="M196.8,184.814H127V183.1h69.8Z" transform="translate(-127 -177.616)"/>
            <path id="Path_33008" data-name="Path 33008" class="cls-16" d="M196.8,188.314H127V186.6h69.8Z" transform="translate(-127 -177.118)"/>
            <path id="Path_33009" data-name="Path 33009" class="cls-16" d="M196.8,191.814H127V190.1h69.8Z" transform="translate(-127 -176.619)"/>
            <path id="Path_33010" data-name="Path 33010" class="cls-16" d="M196.8,195.314H127V193.6h69.8Z" transform="translate(-127 -176.121)"/>
            <path id="Path_33011" data-name="Path 33011" class="cls-16" d="M191.376,198.814H165.1V197.1h26.276Z" transform="translate(-121.573 -175.622)"/>
            <path id="Path_33012" data-name="Path 33012" class="cls-16" d="M191.376,202.314H165.1V200.6h26.276Z" transform="translate(-121.573 -175.123)"/>
            <path id="Path_33013" data-name="Path 33013" class="cls-16" d="M187.263,205.814H165.1V204.1h22.163Z" transform="translate(-121.573 -174.625)"/>
          </g>
          <path id="Path_33014" data-name="Path 33014" class="cls-12" d="M183.7,211.038l-3.2-12.453,14.738-2.285Z" transform="translate(-110.811 -116.215)"/>
        </g>
      </g>
      <g id="Group_8736" data-name="Group 8736" transform="translate(48.097 168.396)">
        <path id="Path_33015" data-name="Path 33015" class="cls-9" d="M72.832,150.8H42.1v61.92H80.372V160.4Z" transform="translate(-42.1 -146.916)"/>
        <g id="Group_8735" data-name="Group 8735" transform="translate(3.313)">
          <g id="Group_8734" data-name="Group 8734">
            <path id="Path_33016" data-name="Path 33016" class="cls-12" d="M83.272,157V209.32H45V147.4H75.732Z" transform="translate(-45 -147.4)"/>
            <path id="Path_33017" data-name="Path 33017" class="cls-17" d="M72.156,147.4,70.1,155.626,79.7,157Z" transform="translate(-41.425 -147.4)"/>
            <g id="Group_8733" data-name="Group 8733" transform="translate(4.113 6.626)">
              <rect id="Rectangle_63" data-name="Rectangle 63" class="cls-11" width="15.766" height="18.736"/>
              <g id="Group_8732" data-name="Group 8732" transform="translate(0 9.825)">
                <g id="Group_8727" data-name="Group 8727" transform="translate(0 12.224)">
                  <g id="Group_8720" data-name="Group 8720">
                    <line id="Line_10" data-name="Line 10" class="cls-18" x2="31.417" transform="translate(0 0.571)"/>
                    <path id="Path_33018" data-name="Path 33018" class="cls-19" d="M80.017,173.757H48.6V172.5H80.017Z" transform="translate(-48.6 -172.5)"/>
                  </g>
                  <g id="Group_8721" data-name="Group 8721" transform="translate(0 3.999)">
                    <line id="Line_11" data-name="Line 11" class="cls-18" x2="31.417" transform="translate(0 0.571)"/>
                    <path id="Path_33019" data-name="Path 33019" class="cls-19" d="M80.017,177.142H48.6V176H80.017Z" transform="translate(-48.6 -176)"/>
                  </g>
                  <g id="Group_8722" data-name="Group 8722" transform="translate(0 7.883)">
                    <line id="Line_12" data-name="Line 12" class="cls-18" x2="31.417" transform="translate(0 0.685)"/>
                    <path id="Path_33020" data-name="Path 33020" class="cls-19" d="M80.017,180.657H48.6V179.4H80.017Z" transform="translate(-48.6 -179.4)"/>
                  </g>
                  <g id="Group_8723" data-name="Group 8723" transform="translate(0 11.881)">
                    <line id="Line_13" data-name="Line 13" class="cls-18" x2="31.417" transform="translate(0 0.685)"/>
                    <path id="Path_33021" data-name="Path 33021" class="cls-19" d="M80.017,184.157H48.6V182.9H80.017Z" transform="translate(-48.6 -182.9)"/>
                  </g>
                  <g id="Group_8724" data-name="Group 8724" transform="translate(0 15.88)">
                    <line id="Line_14" data-name="Line 14" class="cls-18" x2="31.417" transform="translate(0 0.571)"/>
                    <path id="Path_33022" data-name="Path 33022" class="cls-19" d="M80.017,187.657H48.6V186.4H80.017Z" transform="translate(-48.6 -186.4)"/>
                  </g>
                  <g id="Group_8725" data-name="Group 8725" transform="translate(0 19.879)">
                    <line id="Line_15" data-name="Line 15" class="cls-18" x2="31.417" transform="translate(0 0.571)"/>
                    <path id="Path_33023" data-name="Path 33023" class="cls-19" d="M80.017,191.157H48.6V189.9H80.017Z" transform="translate(-48.6 -189.9)"/>
                  </g>
                  <g id="Group_8726" data-name="Group 8726" transform="translate(0 23.877)">
                    <line id="Line_16" data-name="Line 16" class="cls-18" x2="31.417" transform="translate(0 0.571)"/>
                    <path id="Path_33024" data-name="Path 33024" class="cls-19" d="M80.017,194.542H48.6V193.4H80.017Z" transform="translate(-48.6 -193.4)"/>
                  </g>
                </g>
                <g id="Group_8731" data-name="Group 8731" transform="translate(18.622)">
                  <g id="Group_8728" data-name="Group 8728">
                    <line id="Line_17" data-name="Line 17" class="cls-18" x2="12.795" transform="translate(0 0.685)"/>
                    <path id="Path_33025" data-name="Path 33025" class="cls-19" d="M77.7,163.057H64.9V161.8H77.7Z" transform="translate(-64.9 -161.8)"/>
                  </g>
                  <g id="Group_8729" data-name="Group 8729" transform="translate(0 3.884)">
                    <line id="Line_18" data-name="Line 18" class="cls-18" x2="12.795" transform="translate(0 0.685)"/>
                    <path id="Path_33026" data-name="Path 33026" class="cls-19" d="M77.7,166.457H64.9V165.2H77.7Z" transform="translate(-64.9 -165.2)"/>
                  </g>
                  <g id="Group_8730" data-name="Group 8730" transform="translate(0 7.769)">
                    <line id="Line_19" data-name="Line 19" class="cls-18" x2="12.795" transform="translate(0 0.571)"/>
                    <path id="Path_33027" data-name="Path 33027" class="cls-19" d="M77.7,169.857H64.9V168.6H77.7Z" transform="translate(-64.9 -168.6)"/>
                  </g>
                </g>
              </g>
            </g>
          </g>
        </g>
      </g>
      <g id="Group_8753" data-name="Group 8753" transform="translate(59.293 158)">
        <path id="Path_33028" data-name="Path 33028" class="cls-9" d="M82.632,141.7H51.9v62.035H90.172V151.411Z" transform="translate(-51.9 -137.816)"/>
        <g id="Group_8752" data-name="Group 8752" transform="translate(3.313)">
          <g id="Group_8751" data-name="Group 8751">
            <path id="Path_33029" data-name="Path 33029" class="cls-12" d="M93.072,148.011v52.324H54.8V138.3H85.532Z" transform="translate(-54.8 -138.3)"/>
            <path id="Path_33030" data-name="Path 33030" class="cls-17" d="M81.956,138.3,79.9,146.526l9.6,1.485Z" transform="translate(-51.225 -138.3)"/>
            <g id="Group_8750" data-name="Group 8750" transform="translate(4.113 16.565)">
              <g id="Group_8749" data-name="Group 8749">
                <g id="Group_8744" data-name="Group 8744" transform="translate(0 12.11)">
                  <g id="Group_8737" data-name="Group 8737">
                    <line id="Line_20" data-name="Line 20" class="cls-18" x2="31.417" transform="translate(0 0.571)"/>
                    <path id="Path_33031" data-name="Path 33031" class="cls-19" d="M89.817,164.657H58.4V163.4H89.817Z" transform="translate(-58.4 -163.4)"/>
                  </g>
                  <g id="Group_8738" data-name="Group 8738" transform="translate(0 3.999)">
                    <line id="Line_21" data-name="Line 21" class="cls-18" x2="31.417" transform="translate(0 0.571)"/>
                    <path id="Path_33032" data-name="Path 33032" class="cls-19" d="M89.817,168.157H58.4V166.9H89.817Z" transform="translate(-58.4 -166.9)"/>
                  </g>
                  <g id="Group_8739" data-name="Group 8739" transform="translate(0 7.997)">
                    <line id="Line_22" data-name="Line 22" class="cls-18" x2="31.417" transform="translate(0 0.571)"/>
                    <path id="Path_33033" data-name="Path 33033" class="cls-19" d="M89.817,171.542H58.4V170.4H89.817Z" transform="translate(-58.4 -170.4)"/>
                  </g>
                  <g id="Group_8740" data-name="Group 8740" transform="translate(0 11.881)">
                    <line id="Line_23" data-name="Line 23" class="cls-18" x2="31.417" transform="translate(0 0.685)"/>
                    <path id="Path_33034" data-name="Path 33034" class="cls-19" d="M89.817,175.057H58.4V173.8H89.817Z" transform="translate(-58.4 -173.8)"/>
                  </g>
                  <g id="Group_8741" data-name="Group 8741" transform="translate(0 15.88)">
                    <line id="Line_24" data-name="Line 24" class="cls-18" x2="31.417" transform="translate(0 0.685)"/>
                    <path id="Path_33035" data-name="Path 33035" class="cls-19" d="M89.817,178.557H58.4V177.3H89.817Z" transform="translate(-58.4 -177.3)"/>
                  </g>
                  <g id="Group_8742" data-name="Group 8742" transform="translate(0 19.879)">
                    <line id="Line_25" data-name="Line 25" class="cls-18" x2="31.417" transform="translate(0 0.685)"/>
                    <path id="Path_33036" data-name="Path 33036" class="cls-19" d="M89.817,182.057H58.4V180.8H89.817Z" transform="translate(-58.4 -180.8)"/>
                  </g>
                  <g id="Group_8743" data-name="Group 8743" transform="translate(0 23.877)">
                    <line id="Line_26" data-name="Line 26" class="cls-18" x2="31.417" transform="translate(0 0.571)"/>
                    <path id="Path_33037" data-name="Path 33037" class="cls-19" d="M89.817,185.557H58.4V184.3H89.817Z" transform="translate(-58.4 -184.3)"/>
                  </g>
                </g>
                <g id="Group_8748" data-name="Group 8748">
                  <g id="Group_8745" data-name="Group 8745">
                    <line id="Line_27" data-name="Line 27" class="cls-18" x2="31.417" transform="translate(0 0.571)"/>
                    <path id="Path_33038" data-name="Path 33038" class="cls-19" d="M89.817,153.942H58.4V152.8H89.817Z" transform="translate(-58.4 -152.8)"/>
                  </g>
                  <g id="Group_8746" data-name="Group 8746" transform="translate(0 3.77)">
                    <line id="Line_28" data-name="Line 28" class="cls-18" x2="31.417" transform="translate(0 0.685)"/>
                    <path id="Path_33039" data-name="Path 33039" class="cls-19" d="M89.817,157.357H58.4V156.1H89.817Z" transform="translate(-58.4 -156.1)"/>
                  </g>
                  <g id="Group_8747" data-name="Group 8747" transform="translate(0 7.654)">
                    <line id="Line_29" data-name="Line 29" class="cls-18" x2="31.417" transform="translate(0 0.685)"/>
                    <path id="Path_33040" data-name="Path 33040" class="cls-19" d="M89.817,160.757H58.4V159.5H89.817Z" transform="translate(-58.4 -159.5)"/>
                  </g>
                </g>
              </g>
            </g>
          </g>
        </g>
      </g>
      <g id="Group_8770" data-name="Group 8770" transform="translate(71.289 144.976)">
        <path id="Path_33041" data-name="Path 33041" class="cls-9" d="M93.246,130.3H62.4v61.92h38.386V139.9Z" transform="translate(-62.4 -126.416)"/>
        <g id="Group_8769" data-name="Group 8769" transform="translate(3.313)">
          <g id="Group_8768" data-name="Group 8768">
            <path id="Path_33042" data-name="Path 33042" class="cls-12" d="M103.686,136.5V188.82H65.3V126.9H96.146Z" transform="translate(-65.3 -126.9)"/>
            <path id="Path_33043" data-name="Path 33043" class="cls-17" d="M92.556,126.9,90.5,135.126l9.6,1.371Z" transform="translate(-61.71 -126.9)"/>
            <g id="Group_8767" data-name="Group 8767" transform="translate(4.113 16.451)">
              <g id="Group_8766" data-name="Group 8766">
                <g id="Group_8761" data-name="Group 8761" transform="translate(0 12.224)">
                  <g id="Group_8754" data-name="Group 8754">
                    <line id="Line_30" data-name="Line 30" class="cls-18" x2="31.531" transform="translate(0 0.571)"/>
                    <path id="Path_33044" data-name="Path 33044" class="cls-19" d="M100.431,153.257H68.9V152h31.531Z" transform="translate(-68.9 -152)"/>
                  </g>
                  <g id="Group_8755" data-name="Group 8755" transform="translate(0 3.999)">
                    <line id="Line_31" data-name="Line 31" class="cls-18" x2="31.531" transform="translate(0 0.571)"/>
                    <path id="Path_33045" data-name="Path 33045" class="cls-19" d="M100.431,156.642H68.9V155.5h31.531Z" transform="translate(-68.9 -155.5)"/>
                  </g>
                  <g id="Group_8756" data-name="Group 8756" transform="translate(0 7.883)">
                    <line id="Line_32" data-name="Line 32" class="cls-18" x2="31.531" transform="translate(0 0.685)"/>
                    <path id="Path_33046" data-name="Path 33046" class="cls-19" d="M100.431,160.157H68.9V158.9h31.531Z" transform="translate(-68.9 -158.9)"/>
                  </g>
                  <g id="Group_8757" data-name="Group 8757" transform="translate(0 11.881)">
                    <line id="Line_33" data-name="Line 33" class="cls-18" x2="31.531" transform="translate(0 0.685)"/>
                    <path id="Path_33047" data-name="Path 33047" class="cls-19" d="M100.431,163.657H68.9V162.4h31.531Z" transform="translate(-68.9 -162.4)"/>
                  </g>
                  <g id="Group_8758" data-name="Group 8758" transform="translate(0 15.88)">
                    <line id="Line_34" data-name="Line 34" class="cls-18" x2="31.531" transform="translate(0 0.571)"/>
                    <path id="Path_33048" data-name="Path 33048" class="cls-19" d="M100.431,167.157H68.9V165.9h31.531Z" transform="translate(-68.9 -165.9)"/>
                  </g>
                  <g id="Group_8759" data-name="Group 8759" transform="translate(0 19.879)">
                    <line id="Line_35" data-name="Line 35" class="cls-18" x2="31.531" transform="translate(0 0.571)"/>
                    <path id="Path_33049" data-name="Path 33049" class="cls-19" d="M100.431,170.657H68.9V169.4h31.531Z" transform="translate(-68.9 -169.4)"/>
                  </g>
                  <g id="Group_8760" data-name="Group 8760" transform="translate(0 23.877)">
                    <line id="Line_36" data-name="Line 36" class="cls-18" x2="31.531" transform="translate(0 0.571)"/>
                    <path id="Path_33050" data-name="Path 33050" class="cls-19" d="M100.431,174.042H68.9V172.9h31.531Z" transform="translate(-68.9 -172.9)"/>
                  </g>
                </g>
                <g id="Group_8765" data-name="Group 8765" transform="translate(0.114)">
                  <g id="Group_8762" data-name="Group 8762">
                    <line id="Line_37" data-name="Line 37" class="cls-18" x2="31.417" transform="translate(0 0.685)"/>
                    <path id="Path_33051" data-name="Path 33051" class="cls-19" d="M100.417,142.557H69V141.3h31.417Z" transform="translate(-69 -141.3)"/>
                  </g>
                  <g id="Group_8763" data-name="Group 8763" transform="translate(0 3.884)">
                    <line id="Line_38" data-name="Line 38" class="cls-18" x2="31.417" transform="translate(0 0.685)"/>
                    <path id="Path_33052" data-name="Path 33052" class="cls-19" d="M100.417,145.957H69V144.7h31.417Z" transform="translate(-69 -144.7)"/>
                  </g>
                  <g id="Group_8764" data-name="Group 8764" transform="translate(0 7.769)">
                    <line id="Line_39" data-name="Line 39" class="cls-18" x2="31.417" transform="translate(0 0.571)"/>
                    <path id="Path_33053" data-name="Path 33053" class="cls-19" d="M100.417,149.357H69V148.1h31.417Z" transform="translate(-69 -148.1)"/>
                  </g>
                </g>
              </g>
            </g>
          </g>
        </g>
      </g>
      <g id="Group_8787" data-name="Group 8787" transform="translate(84.884 131.267)">
        <path id="Path_33054" data-name="Path 33054" class="cls-9" d="M105.032,118.4H74.3v61.92h38.272V128Z" transform="translate(-74.3 -114.401)"/>
        <g id="Group_8786" data-name="Group 8786" transform="translate(3.199)">
          <g id="Group_8785" data-name="Group 8785">
            <path id="Path_33055" data-name="Path 33055" class="cls-12" d="M115.486,124.611v52.324H77.1V114.9h30.846Z" transform="translate(-77.1 -114.9)"/>
            <path id="Path_33056" data-name="Path 33056" class="cls-20" d="M104.356,114.9l-2.056,8.226,9.6,1.485Z" transform="translate(-73.51 -114.9)"/>
            <g id="Group_8784" data-name="Group 8784" transform="translate(4.113 16.565)">
              <g id="Group_8783" data-name="Group 8783">
                <g id="Group_8778" data-name="Group 8778" transform="translate(0 12.11)">
                  <g id="Group_8771" data-name="Group 8771">
                    <line id="Line_40" data-name="Line 40" class="cls-18" x2="31.531" transform="translate(0 0.685)"/>
                    <path id="Path_33057" data-name="Path 33057" class="cls-19" d="M112.231,141.257H80.7V140h31.531Z" transform="translate(-80.7 -140)"/>
                  </g>
                  <g id="Group_8772" data-name="Group 8772" transform="translate(0 3.999)">
                    <line id="Line_41" data-name="Line 41" class="cls-18" x2="31.531" transform="translate(0 0.685)"/>
                    <path id="Path_33058" data-name="Path 33058" class="cls-19" d="M112.231,144.757H80.7V143.5h31.531Z" transform="translate(-80.7 -143.5)"/>
                  </g>
                  <g id="Group_8773" data-name="Group 8773" transform="translate(0 7.997)">
                    <line id="Line_42" data-name="Line 42" class="cls-18" x2="31.531" transform="translate(0 0.571)"/>
                    <path id="Path_33059" data-name="Path 33059" class="cls-19" d="M112.231,148.257H80.7V147h31.531Z" transform="translate(-80.7 -147)"/>
                  </g>
                  <g id="Group_8774" data-name="Group 8774" transform="translate(0 11.996)">
                    <line id="Line_43" data-name="Line 43" class="cls-18" x2="31.531" transform="translate(0 0.571)"/>
                    <path id="Path_33060" data-name="Path 33060" class="cls-19" d="M112.231,151.757H80.7V150.5h31.531Z" transform="translate(-80.7 -150.5)"/>
                  </g>
                  <g id="Group_8775" data-name="Group 8775" transform="translate(0 15.994)">
                    <line id="Line_44" data-name="Line 44" class="cls-18" x2="31.531" transform="translate(0 0.571)"/>
                    <path id="Path_33061" data-name="Path 33061" class="cls-19" d="M112.231,155.142H80.7V154h31.531Z" transform="translate(-80.7 -154)"/>
                  </g>
                  <g id="Group_8776" data-name="Group 8776" transform="translate(0 19.879)">
                    <line id="Line_45" data-name="Line 45" class="cls-18" x2="31.531" transform="translate(0 0.685)"/>
                    <path id="Path_33062" data-name="Path 33062" class="cls-19" d="M112.231,158.657H80.7V157.4h31.531Z" transform="translate(-80.7 -157.4)"/>
                  </g>
                  <g id="Group_8777" data-name="Group 8777" transform="translate(0 23.877)">
                    <line id="Line_46" data-name="Line 46" class="cls-18" x2="31.531" transform="translate(0 0.685)"/>
                    <path id="Path_33063" data-name="Path 33063" class="cls-19" d="M112.231,162.157H80.7V160.9h31.531Z" transform="translate(-80.7 -160.9)"/>
                  </g>
                </g>
                <g id="Group_8782" data-name="Group 8782" transform="translate(0.114)">
                  <g id="Group_8779" data-name="Group 8779">
                    <line id="Line_47" data-name="Line 47" class="cls-18" x2="31.417" transform="translate(0 0.571)"/>
                    <path id="Path_33064" data-name="Path 33064" class="cls-19" d="M112.217,130.657H80.8V129.4h31.417Z" transform="translate(-80.8 -129.4)"/>
                  </g>
                  <g id="Group_8780" data-name="Group 8780" transform="translate(0 3.884)">
                    <line id="Line_48" data-name="Line 48" class="cls-18" x2="31.417" transform="translate(0 0.571)"/>
                    <path id="Path_33065" data-name="Path 33065" class="cls-19" d="M112.217,134.057H80.8V132.8h31.417Z" transform="translate(-80.8 -132.8)"/>
                  </g>
                  <g id="Group_8781" data-name="Group 8781" transform="translate(0 7.654)">
                    <line id="Line_49" data-name="Line 49" class="cls-18" x2="31.417" transform="translate(0 0.685)"/>
                    <path id="Path_33066" data-name="Path 33066" class="cls-19" d="M112.217,137.357H80.8V136.1h31.417Z" transform="translate(-80.8 -136.1)"/>
                  </g>
                </g>
              </g>
            </g>
          </g>
        </g>
      </g>
      <g id="Group_8792" data-name="Group 8792" transform="translate(150.231 46.954)">
        <rect id="Rectangle_64" data-name="Rectangle 64" class="cls-9" width="74.716" height="58.722" transform="translate(3.77 3.77)"/>
        <g id="Group_8791" data-name="Group 8791">
          <rect id="Rectangle_65" data-name="Rectangle 65" class="cls-7" width="74.716" height="58.722"/>
          <path id="Path_33067" data-name="Path 33067" class="cls-21" d="M176.9,56.836l14.281-.343s-.571-7.2-4.684-6.283-3.542,2.4-3.542,2.4-3.2-2.171-4.456-.457A10.076,10.076,0,0,0,176.9,56.836Z" transform="translate(-125.033 -39.814)"/>
          <path id="Path_33068" data-name="Path 33068" class="cls-22" d="M173.069,47.3s-4.57-.457-5.255,2.742,1.828,5.6,5.141,4.684C176.268,53.929,176.5,48.788,173.069,47.3Z" transform="translate(-126.343 -40.22)"/>
          <g id="Group_8790" data-name="Group 8790">
            <g id="Group_8788" data-name="Group 8788" class="cls-23">
              <path id="Path_33069" data-name="Path 33069" class="cls-24" d="M133.4,102.859S147,47.336,163.446,54.99c16.451,7.769,23.192,46.5,23.192,46.5Z" transform="translate(-131.229 -39.225)"/>
            </g>
            <g id="Group_8789" data-name="Group 8789" class="cls-23">
              <path id="Path_33070" data-name="Path 33070" class="cls-25" d="M155,105.932s17.594-51.867,29.818-44.441,15.651,39.414,15.651,39.414Z" transform="translate(-128.153 -38.299)"/>
            </g>
          </g>
        </g>
      </g>
      <g id="Group_8795" data-name="Group 8795" transform="translate(133.323 93.566)">
        <path id="Path_33071" data-name="Path 33071" class="cls-9" d="M118.8,82.2v42.042h50.953V82.2Z" transform="translate(-116.401 -81.857)"/>
        <g id="Group_8794" data-name="Group 8794">
          <rect id="Rectangle_68" data-name="Rectangle 68" class="cls-12" width="50.953" height="39.986"/>
          <rect id="Rectangle_69" data-name="Rectangle 69" class="cls-26" width="50.953" height="35.302" transform="translate(0 4.684)"/>
          <g id="Group_8793" data-name="Group 8793" transform="translate(14.281 11.196)">
            <path id="Path_33072" data-name="Path 33072" class="cls-20" d="M136.585,106.807l7.654-4.456a.428.428,0,0,0,0-.685l-7.654-4.456c-.114-.114-.228-.114-.457,0-.114.114-.228.228-.228.343v8.8c0,.114.114.228.228.343A.283.283,0,0,0,136.585,106.807Z" transform="translate(-128.246 -90.927)"/>
            <path id="Path_33073" data-name="Path 33073" class="cls-20" d="M140.282,91.7a11.082,11.082,0,1,0,11.082,11.082A11.02,11.02,0,0,0,140.282,91.7Zm0,19.993a8.728,8.728,0,0,1-8.8-8.8,8.826,8.826,0,0,1,8.8-8.911,8.728,8.728,0,0,1,8.8,8.8A8.9,8.9,0,0,1,140.282,111.693Z" transform="translate(-129.2 -91.7)"/>
          </g>
        </g>
      </g>
      <g id="Group_8803" data-name="Group 8803" transform="translate(0 26.39)">
        <path id="Path_33074" data-name="Path 33074" class="cls-9" d="M138.522,28.4H5.885A3.232,3.232,0,0,0,2.8,31.827V111.8a3.232,3.232,0,0,0,3.085,3.427h44.67l22.62,11.2-4.341-11.2h69.575a3.232,3.232,0,0,0,3.085-3.427V31.827A3.3,3.3,0,0,0,138.522,28.4Z" transform="translate(0.399 -22.345)"/>
        <g id="Group_8802" data-name="Group 8802">
          <g id="Group_8801" data-name="Group 8801">
            <g id="Group_8798" data-name="Group 8798">
              <path id="Path_33075" data-name="Path 33075" class="cls-12" d="M138.693,106.5a3.232,3.232,0,0,1-3.085,3.427H3.085A3.232,3.232,0,0,1,0,106.5V26.527A3.232,3.232,0,0,1,3.085,23.1H135.608a3.232,3.232,0,0,1,3.085,3.427V106.5Z" transform="translate(0 -23.1)"/>
              <path id="Path_33076" data-name="Path 33076" class="cls-26" d="M135.608,23.1H3.085A3.232,3.232,0,0,0,0,26.527V43.778H138.693V26.527A3.232,3.232,0,0,0,135.608,23.1Z" transform="translate(0 -23.1)"/>
              <g id="Group_8797" data-name="Group 8797" transform="translate(9.482 4.913)">
                <g id="Group_8796" data-name="Group 8796">
                  <path id="Path_33077" data-name="Path 33077" class="cls-27" d="M15.5,37.782H13.441l-2.97-5.027v5.027H8.3V27.5h2.056l2.97,5.027V27.5h2.056V37.782Z" transform="translate(-8.3 -27.386)"/>
                  <path id="Path_33078" data-name="Path 33078" class="cls-27" d="M16.4,37.782V27.5h6.169v2.513H18.685v1.371H22v2.4H18.685v1.6h4V37.9H16.4Z" transform="translate(-7.146 -27.386)"/>
                  <path id="Path_33079" data-name="Path 33079" class="cls-27" d="M31.368,37.782H28.855L27.941,31.5h0l-.914,6.283H24.514L22.8,27.5h2.4l.8,5.826h0l.8-5.826h2.285L30,33.326h0l.8-5.826h2.285Z" transform="translate(-6.235 -27.386)"/>
                  <path id="Path_33080" data-name="Path 33080" class="cls-27" d="M37.256,27.514a4.631,4.631,0,0,1,1.028.571,1.664,1.664,0,0,1,.685,1.028,4.91,4.91,0,0,1,.228,1.371v.228H37.027v-.457c0-.114-.114-.228-.114-.343-.114-.114-.114-.228-.343-.228-.114-.114-.228-.114-.457-.114a.966.966,0,0,0-.685.228.866.866,0,0,0-.228.457.594.594,0,0,0,.228.457,1.577,1.577,0,0,0,.457.343c.228.114.457.114.685.228a7.281,7.281,0,0,0,.8.228c.228.114.571.228.8.343a3.029,3.029,0,0,1,.685.571,1.841,1.841,0,0,1,.457.8,3.527,3.527,0,0,1,.228,1.257,5.955,5.955,0,0,1-.228,1.6,2.37,2.37,0,0,1-.685,1.142,2.323,2.323,0,0,1-1.028.685,4.107,4.107,0,0,1-1.257.228,5.562,5.562,0,0,1-1.371-.114,3.574,3.574,0,0,1-1.142-.571,2.916,2.916,0,0,1-.8-1.142,4.186,4.186,0,0,1-.228-1.828h2.171a1.449,1.449,0,0,0,.114.685c0,.114.114.343.228.343.114.114.228.114.343.228h.8a.42.42,0,0,0,.343-.114.246.246,0,0,0,.228-.228.42.42,0,0,0,.114-.343.594.594,0,0,0-.228-.457,1.577,1.577,0,0,0-.457-.343c-.228-.114-.457-.114-.685-.228a7.281,7.281,0,0,0-.8-.228c-.228-.114-.571-.228-.8-.343a3.029,3.029,0,0,1-.685-.571,2.3,2.3,0,0,1-.457-.914,4.107,4.107,0,0,1-.228-1.257,5.07,5.07,0,0,1,.228-1.485,3.242,3.242,0,0,1,.685-1.028,4.631,4.631,0,0,1,1.028-.571A4.107,4.107,0,0,1,36,27.4,4.686,4.686,0,0,1,37.256,27.514Z" transform="translate(-4.81 -27.4)"/>
                </g>
              </g>
            </g>
            <g id="Group_8799" data-name="Group 8799" transform="translate(6.283 28.561)">
              <path id="Path_33081" data-name="Path 33081" class="cls-16" d="M101.237,52.784H5.5V48.1h95.737Z" transform="translate(-5.5 -48.1)"/>
              <path id="Path_33082" data-name="Path 33082" class="cls-16" d="M101.237,59.884H5.5V55.2h95.737Z" transform="translate(-5.5 -47.089)"/>
              <path id="Path_33083" data-name="Path 33083" class="cls-16" d="M101.237,66.87H5.5V62.3h95.737Z" transform="translate(-5.5 -46.077)"/>
              <path id="Path_33084" data-name="Path 33084" class="cls-16" d="M101.237,73.984H5.5V69.3h95.737Z" transform="translate(-5.5 -45.08)"/>
            </g>
            <rect id="Rectangle_70" data-name="Rectangle 70" class="cls-13" width="23.991" height="27.876" transform="translate(106.704 28.904)"/>
            <rect id="Rectangle_71" data-name="Rectangle 71" class="cls-13" width="18.85" height="20.221" transform="translate(8.568 60.892)"/>
            <rect id="Rectangle_72" data-name="Rectangle 72" class="cls-28" width="18.85" height="20.221" transform="translate(28.79 60.892)"/>
            <g id="Group_8800" data-name="Group 8800" transform="translate(50.61 62.377)">
              <path id="Path_33085" data-name="Path 33085" class="cls-16" d="M127.927,82.384H44.3V77.7h83.627Z" transform="translate(-44.3 -77.7)"/>
              <path id="Path_33086" data-name="Path 33086" class="cls-16" d="M127.927,88.584H44.3V83.9h83.627Z" transform="translate(-44.3 -76.817)"/>
              <path id="Path_33087" data-name="Path 33087" class="cls-16" d="M127.927,94.87H44.3V90.3h83.627Z" transform="translate(-44.3 -75.905)"/>
            </g>
          </g>
          <path id="Path_33088" data-name="Path 33088" class="cls-12" d="M59.935,97.243l5.141,13.367L37.2,96.9Z" transform="translate(5.299 -12.588)"/>
        </g>
      </g>
    </g>
  </g>
</svg>
