<svg xmlns="http://www.w3.org/2000/svg" viewBox="0 0 354 432">
  <defs>
    <style>
      .cls-1, .cls-7 {
        fill: none;
      }

      .cls-2 {
        fill: #c4c4c4;
      }

      .cls-2, .cls-73 {
        opacity: 0.5;
      }

      .cls-3 {
        fill: #cecece;
      }

      .cls-4 {
        fill: #a4dfff;
      }

      .cls-5 {
        fill: #3c3c3b;
      }

      .cls-6 {
        fill: #c5c8c9;
      }

      .cls-7 {
        stroke: #e6e7e8;
        stroke-linecap: round;
        stroke-miterlimit: 10;
        stroke-width: 0.418px;
      }

      .cls-8 {
        fill: #77bc4a;
      }

      .cls-9 {
        fill: #d81d5b;
      }

      .cls-10 {
        opacity: 0.07;
      }

      .cls-11 {
        fill: #f7a56d;
      }

      .cls-12 {
        fill: #fff;
      }

      .cls-13 {
        fill: #bcbec0;
      }

      .cls-14 {
        fill: #ffb380;
      }

      .cls-15 {
        fill: #fcd765;
      }

      .cls-16 {
        fill: #efa878;
      }

      .cls-17 {
        fill: #e6e7e8;
      }

      .cls-18 {
        fill: #f9b78a;
      }

      .cls-19 {
        fill: #c68958;
      }

      .cls-20 {
        fill: #102a35;
      }

      .cls-21 {
        fill: #0c2128;
      }

      .cls-22, .cls-42 {
        fill: #231f20;
      }

      .cls-22, .cls-29, .cls-46, .cls-54, .cls-55, .cls-56 {
        opacity: 0.1;
      }

      .cls-23 {
        fill: #010326;
      }

      .cls-24 {
        fill: #6692f7;
      }

      .cls-25 {
        fill: #577bc4;
      }

      .cls-26, .cls-42 {
        opacity: 0.05;
      }

      .cls-27 {
        fill: #bc7d51;
      }

      .cls-28 {
        fill: #ffcf6e;
      }

      .cls-29, .cls-30 {
        fill: #100c0d;
      }

      .cls-30 {
        opacity: 0.2;
      }

      .cls-31 {
        fill: #cf4c29;
      }

      .cls-32 {
        fill: #cc9559;
      }

      .cls-33 {
        fill: #edc193;
      }

      .cls-34 {
        fill: #f2a610;
      }

      .cls-35 {
        fill: #ebeded;
      }

      .cls-36 {
        fill: #e7b68b;
      }

      .cls-37 {
        fill: #08a3dd;
      }

      .cls-38 {
        fill: #fafafa;
      }

      .cls-39 {
        fill: #c9cccd;
      }

      .cls-40 {
        fill: #18082f;
      }

      .cls-41 {
        fill: #abc972;
      }

      .cls-43 {
        fill: #dc6c5c;
      }

      .cls-44 {
        fill: #083b84;
      }

      .cls-45 {
        fill: #f2c99e;
      }

      .cls-46 {
        fill: #8b5e3c;
      }

      .cls-47 {
        fill: #c94c3f;
      }

      .cls-48 {
        fill: #d89832;
      }

      .cls-49 {
        fill: #e0b885;
      }

      .cls-50 {
        fill: #2d2d2b;
      }

      .cls-51 {
        fill: #232322;
      }

      .cls-52 {
        fill: #5e443f;
      }

      .cls-53 {
        fill: #f4ab7a;
      }

      .cls-54 {
        fill: #ba6536;
      }

      .cls-56 {
        fill: #875e23;
      }

      .cls-57 {
        fill: #3f2e18;
      }

      .cls-58 {
        fill: #e5a173;
      }

      .cls-59 {
        fill: #f2af81;
      }

      .cls-60 {
        fill: #86cfef;
      }

      .cls-61 {
        fill: #dbcc8f;
      }

      .cls-62 {
        fill: #e8a577;
      }

      .cls-63 {
        fill: #e5d79c;
      }

      .cls-64 {
        opacity: 0.04;
      }

      .cls-65 {
        fill: #f1f2f2;
      }

      .cls-66 {
        fill: #2a2a2b;
      }

      .cls-67 {
        fill: #323233;
      }

      .cls-68 {
        fill: #dbddd9;
      }

      .cls-69 {
        fill: #fcca97;
      }

      .cls-70 {
        fill: #f4be8e;
      }

      .cls-71 {
        fill: #d1d3d4;
      }

      .cls-72 {
        fill: #2a1b40;
      }

      .cls-73 {
        fill: #efb378;
      }

      .cls-74 {
        fill: #4c3c38;
      }
    </style>
  </defs>
  <g id="Group_34639" data-name="Group 34639" transform="translate(-5035 -4728)">
    <rect id="Rectangle_1207" data-name="Rectangle 1207" class="cls-1" width="354" height="432" transform="translate(5035 4728)"/>
    <g id="Group_34630" data-name="Group 34630" transform="translate(5090 4802.5)">
      <path id="Path_33089" data-name="Path 33089" class="cls-2" d="M224.525,157.6H183.017l6.017-57.621H233.3V65.3H192.807l6.017-56.7H162.008l-6.017,56.7H104.08L110.1,8.6H73.485L67.468,65.3h-46.2V99.978H63.694L57.677,157.6H12.6v34.675H54.006l-6.527,61.6H84.4l6.527-61.6h51.706l-6.527,61.6H172.92l6.527-61.6h45.077V157.6Zm-78.324,0H94.494l5.813-57.621h51.91Z" transform="translate(0.25 0.171)"/>
      <path id="Path_33090" data-name="Path 33090" class="cls-3" d="M221.125,161H179.617l6.017-57.621H229.9V68.7H189.509L195.526,12H158.71l-6.017,56.7h-51.91L106.8,12H70.085L64.068,68.806h-46.2V103.48H60.294L54.277,161.1H9.2v34.675H50.606l-6.527,61.6H80.9l6.527-61.6h51.706l-6.527,61.6h36.817l6.527-61.6h45.179ZM142.8,161H91.094l5.813-57.621h51.91Z" transform="translate(0.183 0.238)"/>
      <g id="Group_8809" data-name="Group 8809" transform="translate(4.472)">
        <g id="Group_8805" data-name="Group 8805" transform="translate(0 60.681)">
          <path id="Path_33091" data-name="Path 33091" class="cls-4" d="M16.473,59.5,12.7,63.477l5.609,1.632,3.365-3.875Z" transform="translate(-4.22 -59.5)"/>
          <path id="Path_33092" data-name="Path 33092" class="cls-5" d="M15.313,62.048c-.51-.1-2.652-2.448-2.652-2.448h0a2.163,2.163,0,0,0-1.224,1.938V62.66L5.318,64.9A1.47,1.47,0,0,0,4.4,66.025h0a1.463,1.463,0,0,0,1.02,1.632h0a20.941,20.941,0,0,0,5,.612l9.893-.306a1.783,1.783,0,0,0,1.734-2.142l-.306-1.938a1.134,1.134,0,0,0-1.428-.918c-.918.2-1.938.51-2.244.51C17.862,63.475,15.313,62.048,15.313,62.048Z" transform="translate(-4.385 -59.498)"/>
          <path id="Path_33093" data-name="Path 33093" class="cls-6" d="M5.521,67.44A1.373,1.373,0,0,1,4.5,65.808c0-.1.1-.306.1-.408a8.413,8.413,0,0,0,6.017,1.53L22.144,65.4v.2a1.837,1.837,0,0,1-1.734,2.142l-9.791.306A21.152,21.152,0,0,1,5.521,67.44Z" transform="translate(-4.383 -59.383)"/>
          <line id="Line_50" data-name="Line 50" class="cls-7" x2="1.326" y2="1.428" transform="translate(6.848 2.958)"/>
          <line id="Line_51" data-name="Line 51" class="cls-7" x2="1.224" y2="1.326" transform="translate(5.625 3.365)"/>
          <line id="Line_52" data-name="Line 52" class="cls-7" x2="1.02" y2="1.02" transform="translate(4.401 3.977)"/>
          <line id="Line_53" data-name="Line 53" class="cls-7" x2="0.816" y2="0.816" transform="translate(3.279 4.283)"/>
        </g>
        <path id="Path_33094" data-name="Path 33094" class="cls-8" d="M45.7,54.671S33.77,36.11,27.651,35.6c-2.346,0-7.343,11.014-10.1,17.235-1.428,3.264-3.365,7.649-2.652,8.057,0,0,4.793,2.448,6.017,1.122L28.263,48.96S32.24,61.1,36.32,61.912C40.3,62.728,45.7,54.671,45.7,54.671Z" transform="translate(-4.179 0.707)"/>
        <path id="Path_33095" data-name="Path 33095" class="cls-9" d="M45.7,54.671S33.77,36.11,27.651,35.6c-2.346,0-7.343,11.014-10.1,17.235-1.428,3.264-3.365,7.649-2.652,8.057,0,0,4.793,2.448,6.017,1.122L28.263,48.96S32.24,61.1,36.32,61.912C40.3,62.728,45.7,54.671,45.7,54.671Z" transform="translate(-4.179 0.707)"/>
        <path id="Path_33096" data-name="Path 33096" class="cls-10" d="M28.089,46.6C26.865,50.169,19.828,61.388,18.4,62c1.02.2,1.938.306,2.448-.2l7.343-13.054s3.977,12.136,8.057,12.952C40.225,62.51,30.128,54.555,28.089,46.6Z" transform="translate(-4.107 0.925)"/>
        <g id="Group_8806" data-name="Group 8806" transform="translate(13.741 25.904)">
          <path id="Path_33097" data-name="Path 33097" class="cls-11" d="M18.2,30.738l2.856-.306,1.428-.612V29c.1-.2.51-.306.612,0l1.734,2.448,1.02,2.754L38.8,35.735s5.1,2.04,2.448,3.366c-1.632.51-12.85-.306-16.522-2.142-2.04-1.02-2.346.51-4.691-2.346a7.707,7.707,0,0,1-.816-2.04C18.608,31.553,18.2,30.738,18.2,30.738Z" transform="translate(-17.852 -25.332)"/>
          <path id="Path_33098" data-name="Path 33098" class="cls-6" d="M28.127,34.375l14.482-1.632L53.216,25.4l2.856,6.731s-6.527,4.691-9.179,6.017c-1.632.51-15.6,2.856-19.275,1.02-1.734-.918-.51-3.671,0-4.691C27.617,34.375,27.923,34.273,28.127,34.375Z" transform="translate(-17.683 -25.4)"/>
          <g id="XMLID_16_" transform="translate(0 0.98)">
            <g id="XMLID_17_">
              <path id="XMLID_33_" class="cls-5" d="M20.952,26.6l3.773,7.037a.448.448,0,0,1-.1.51l-2.244,1.02L18.3,27.523,20.442,26.4A.373.373,0,0,1,20.952,26.6Z" transform="translate(-17.85 -26.361)"/>
              <path id="XMLID_21_" class="cls-12" d="M20.631,27a.2.2,0,0,1,.306.1L24.2,33.222a.2.2,0,0,1-.1.306l-1.428.714a.2.2,0,0,1-.306-.1L19.1,28.021a.2.2,0,0,1,.1-.306Z" transform="translate(-17.835 -26.349)"/>
              <path id="XMLID_20_" class="cls-13" d="M18.309,27.6c.1-.1.2,0,.306.1l3.875,7.241c.1.1,0,.2-.1.306l-.306.1c-.1.1-.2,0-.306-.1L17.9,28.009c-.1-.1,0-.2.1-.306Z" transform="translate(-17.859 -26.337)"/>
              <path id="XMLID_19_" class="cls-12" d="M18.706,28.2l.306.612c0,.1,0,.2-.1.2s-.2,0-.2-.1L18.4,28.3c0-.1,0-.2.1-.2A.356.356,0,0,0,18.706,28.2Z" transform="translate(-17.848 -26.326)"/>
              <path id="XMLID_18_" class="cls-12" d="M19.5,29.8l.816,1.53c0,.1,0,.2-.1.2s-.2,0-.2-.1L19.3,30.005c0-.1,0-.2.1-.2C19.4,29.7,19.5,29.7,19.5,29.8Z" transform="translate(-17.83 -26.294)"/>
            </g>
          </g>
          <path id="Path_33099" data-name="Path 33099" class="cls-11" d="M21.06,31.122h0a.58.58,0,0,0-.408-.714L18.714,30a.58.58,0,0,0-.714.408h0a.58.58,0,0,0,.408.714l1.938.408A.58.58,0,0,0,21.06,31.122Z" transform="translate(-17.856 -25.309)"/>
          <path id="Path_33100" data-name="Path 33100" class="cls-11" d="M21.56,32.222h0a.58.58,0,0,0-.408-.714L19.214,31.1a.58.58,0,0,0-.714.408h0a.58.58,0,0,0,.408.714l1.938.408A.58.58,0,0,0,21.56,32.222Z" transform="translate(-17.846 -25.287)"/>
          <path id="Path_33101" data-name="Path 33101" class="cls-11" d="M22.062,33.114h0a.588.588,0,0,0-.612-.612l-1.938-.1a.588.588,0,0,0-.612.612h0a.588.588,0,0,0,.612.612l1.938.1C21.756,33.624,22.062,33.42,22.062,33.114Z" transform="translate(-17.838 -25.261)"/>
          <path id="Path_33102" data-name="Path 33102" class="cls-11" d="M22.25,33.908h0c0-.306-.306-.51-.51-.408l-1.632.2c-.306,0-.51.306-.408.51h0c0,.306.306.51.51.408l1.632-.2C22.046,34.418,22.25,34.112,22.25,33.908Z" transform="translate(-17.823 -25.24)"/>
        </g>
        <line id="Line_54" data-name="Line 54" class="cls-7" x1="3.773" y2="4.691" transform="translate(45.705 23.253)"/>
        <path id="Path_33103" data-name="Path 33103" class="cls-7" d="M53.015,22.8S48.63,25.656,47.1,28.205" transform="translate(-3.537 0.453)"/>
        <path id="Path_33104" data-name="Path 33104" class="cls-14" d="M61.77,21.151l-1.53-5.3,2.04-6.833L57.079,3.1,47.9,7.179l.51,3.467-.2,4.181a.993.993,0,0,0,.714,1.122l.51.1.918,2.856A2.166,2.166,0,0,0,53.2,20.335h0l.51-.2,1.428,4.181Z" transform="translate(-3.521 0.062)"/>
        <g id="Group_8808" data-name="Group 8808" transform="translate(0.092 54.052)">
          <g id="Group_8807" data-name="Group 8807" transform="translate(0 36.595)">
            <path id="Path_33105" data-name="Path 33105" class="cls-4" d="M9.842,93.082A34.848,34.848,0,0,1,7.7,100.935l7.547-2.55s3.467-1.02,1.122-3.264a9.793,9.793,0,0,1-1.428-1.53,4.273,4.273,0,0,1-.2-3.977s-3.467-1.326-4.079-.408C9.434,90.736,10.25,90.634,9.842,93.082Z" transform="translate(-4.411 -88.883)"/>
            <path id="Path_33106" data-name="Path 33106" class="cls-5" d="M10.518,96.86c-.408.306-3.569-.2-3.569-.2h0A2.233,2.233,0,0,0,7.254,98.9l.714.816L4.7,105.325a1.225,1.225,0,0,0,0,1.428h0a1.508,1.508,0,0,0,1.836.612h0a19.145,19.145,0,0,0,4.283-2.754l7.343-6.527a1.855,1.855,0,0,0,0-2.754L16.637,94a1.149,1.149,0,0,0-1.632.2c-.51.714-1.224,1.632-1.326,1.836A16.091,16.091,0,0,1,10.518,96.86Z" transform="translate(-4.475 -88.786)"/>
            <path id="Path_33107" data-name="Path 33107" class="cls-6" d="M6.54,107.338a1.343,1.343,0,0,1-1.836-.612c-.1-.1-.1-.2-.2-.408a8.814,8.814,0,0,0,5.609-2.652L18.064,95.1l.1.1a1.855,1.855,0,0,1,0,2.754l-7.343,6.527A16.534,16.534,0,0,1,6.54,107.338Z" transform="translate(-4.475 -88.759)"/>
            <line id="Line_55" data-name="Line 55" class="cls-7" x2="1.938" y2="0.204" transform="translate(3.187 11.032)"/>
            <line id="Line_56" data-name="Line 56" class="cls-7" x2="1.734" y2="0.204" transform="translate(2.473 12.154)"/>
            <line id="Line_57" data-name="Line 57" class="cls-7" x2="1.53" y2="0.102" transform="translate(1.861 13.378)"/>
            <line id="Line_58" data-name="Line 58" class="cls-7" x2="1.224" y2="0.102" transform="translate(1.249 14.296)"/>
          </g>
          <path id="Path_33108" data-name="Path 33108" class="cls-9" d="M50.835,57.181v4.487A6.383,6.383,0,0,1,44.919,68.3c-3.875.51-21.519.51-26.414-.1-.714,3.366-2.55,25.5-3.569,26.108-1.122.714-4.283.306-5.1-.51-1.02-.714-3.977-31.411.612-33.655,3.162-1.53,20.6-3.569,26.108-4.487L37.576,53Z" transform="translate(-4.406 -53)"/>
          <path id="Path_33109" data-name="Path 33109" class="cls-10" d="M50.734,61.5a6.383,6.383,0,0,1-5.915,6.629c-3.875.51-21.519.51-26.414-.1-.714,3.366-2.55,25.5-3.569,26.108A4.445,4.445,0,0,1,13,94.543c4.079-4.283,3.671-23.151,4.9-27.638,3.162-1.53,20.6,1.632,26.21.612A8.175,8.175,0,0,0,50.734,61.5Z" transform="translate(-4.306 -52.831)"/>
        </g>
        <path id="Path_33110" data-name="Path 33110" class="cls-5" d="M62.2,19.706c4.487,4.079,8.465,14.176,1.836,25.7S52.822,66.211,49.762,64.58,37.218,60.4,36.3,55.707c-.306-1.632,7.445-8.159,12.85-21.927.918-2.448.918-7.037,2.652-8.975C55.881,20.012,61.184,18.686,62.2,19.706Z" transform="translate(-3.752 0.385)"/>
        <path id="Path_33111" data-name="Path 33111" class="cls-15" d="M61.2,17.541s-2.856-2.448-2.856-2.856c0-.2-.2-1.224-.306-2.142A1.982,1.982,0,0,0,55.8,10.81h0v2.55l-1.122.2-.612-4.385a1.228,1.228,0,0,0-1.53-1.02L48.148,9.485l-.612-.408A4.073,4.073,0,0,1,45.7,5.711h0a3.823,3.823,0,0,1,1.428-3.06L50.187,0,50.8,1.734,52.941.816a7.465,7.465,0,0,1,6.731.51l.612.408a7.479,7.479,0,0,1,3.671,5.915h0a7.981,7.981,0,0,1-.51,3.467,46.94,46.94,0,0,0-1.938,5.3Z" transform="translate(-3.565)"/>
        <path id="Path_33112" data-name="Path 33112" class="cls-16" d="M56.05,17.9a7.387,7.387,0,0,1-1.632,4.691L53.5,19.838Z" transform="translate(-3.41 0.355)"/>
        <path id="Path_33113" data-name="Path 33113" class="cls-17" d="M52.2,23.9s6.833-4.079,13.258,4.793A4.114,4.114,0,0,0,67.7,30.422c.612.408,2.55-2.652.612-4.181-.918-.714,1.224-.51.408-2.652A8.028,8.028,0,0,0,61.483,19C58.219,19,51.08,21.856,52.2,23.9Z" transform="translate(-3.438 0.377)"/>
        <path id="Path_33114" data-name="Path 33114" class="cls-18" d="M26.807,36.917l-.306-3.06-2.448-2.346L21.4,30.9h0a1.538,1.538,0,0,0,.918,1.428l1.122.51-1.632.2-.51,1.02L21.708,36s1.734,3.569,7.343,5.1,5.711-2.55,5.711-2.55Z" transform="translate(-4.049 0.613)"/>
        <path id="Path_33115" data-name="Path 33115" class="cls-17" d="M62.2,25.535c-1.938-2.55-5.711-2.244-8.261-.1-1.53,1.224-9.893,9.791-9.893,9.791l-16.522,1.53a.865.865,0,0,0-.816.714c-.306,1.224-.714,3.875.918,4.487,2.448.918,16.827,1.836,19.377.612A65.654,65.654,0,0,0,58.015,36.55C64.134,32.062,63.828,27.779,62.2,25.535Z" transform="translate(-3.947 0.471)"/>
      </g>
      <g id="Group_8817" data-name="Group 8817" transform="translate(175.52 103.684)">
        <g id="Group_8812" data-name="Group 8812" transform="translate(55.026 71.832)">
          <g id="Group_8810" data-name="Group 8810">
            <path id="Path_33116" data-name="Path 33116" class="cls-19" d="M226.2,173.12c-.1,0-.2.1-.1.2,0,0,.714.612.408,1.224h0a4.215,4.215,0,0,0-.2,1.938h0a1.663,1.663,0,0,0,1.122,1.326h0a6.668,6.668,0,0,1,5.3,1.632l1.53,1.224a2.675,2.675,0,0,0,1.938.51l1.734-.306a.794.794,0,0,0,.612-.918h0a.776.776,0,0,0-.816-.612h-1.836c-.1,0-.1,0-.1-.1-.51-.51-4.793-5.2-5.405-5.711h0l-1.122-1.326c0-.1-.1-.1-.2-.1Z" transform="translate(-226.059 -172.1)"/>
          </g>
          <g id="Group_8811" data-name="Group 8811" transform="translate(0.206 2.497)">
            <path id="Path_33117" data-name="Path 33117" class="cls-20" d="M226.5,174.6h0a4.215,4.215,0,0,0-.2,1.938h0a1.663,1.663,0,0,0,1.122,1.326h0c3.162-.51,6.017,3.977,6.017,3.977a2.675,2.675,0,0,0,1.938.51l2.958-.714c.408-.1.306-1.326.2-1.836h0a.776.776,0,0,0-.816-.612h-1.836c-.1,0-.1,0-.1-.1C233.032,180.72,229.054,173.887,226.5,174.6Z" transform="translate(-226.261 -174.549)"/>
          </g>
          <path id="Path_33118" data-name="Path 33118" class="cls-20" d="M226.6,177.2l3.671,5.609.51-.1-1.224-5.2Z" transform="translate(-226.048 -171.999)"/>
        </g>
        <g id="Group_8816" data-name="Group 8816" transform="translate(0 1.665)">
          <g id="Group_8814" data-name="Group 8814" transform="translate(7.252)">
            <path id="Path_33119" data-name="Path 33119" class="cls-21" d="M194.264,103.3s6.527-.306,7.751,7.445c.918,5.915-4.079,8.465-4.181,13.564-2.55-.714-6.119-3.06-6.629-6.017C189.879,112.071,194.264,103.3,194.264,103.3Z" transform="translate(-178.981 -103.298)"/>
            <path id="Path_33120" data-name="Path 33120" class="cls-19" d="M201.738,128.1a3.893,3.893,0,0,0-3.671-3.467l-2.244-.306c-1.53,0-2.754-1.938-2.55-3.264s.306-2.346.306-2.346L187.46,118l-.306,2.346c-.2,1.326-1.428,3.671-2.856,4.181l-3.875,1.326c-1.428.51-1.326,3.773-1.02,5.3l15.3,3.671,8.873,18.255,2.958.2-4.283-8.975Z" transform="translate(-179.214 -103.007)"/>
            <path id="Path_33121" data-name="Path 33121" class="cls-22" d="M193.217,121.06c.2-1.326.306-2.346.306-2.346L187.4,118l-.2,1.938a6.7,6.7,0,0,0,6.323,2.652h.1A2.32,2.32,0,0,1,193.217,121.06Z" transform="translate(-179.056 -103.007)"/>
            <g id="Group_8813" data-name="Group 8813" transform="translate(10.388 47.527)">
              <path id="Path_33122" data-name="Path 33122" class="cls-23" d="M189.4,158.263l6.119.306a54.578,54.578,0,0,0,13.972-5.1l-15.4-3.569Z" transform="translate(-189.4 -149.9)"/>
            </g>
            <path id="Path_33123" data-name="Path 33123" class="cls-9" d="M201.411,137.866a7.706,7.706,0,0,0,.1-4.793c-.612-2.142-1.734-4.385-3.366-8.567L195.9,124.2c-.51,0,3.773,7.037-.2,7.241-6.731.51-10.81-7.343-11.32-7.139l-3.875,1.326c-1.428.51,5.405,22.743,5.405,22.743v6.323l16.318-6.731-2.652-4.079Z" transform="translate(-179.193 -102.884)"/>
            <path id="Path_33124" data-name="Path 33124" class="cls-24" d="M217.541,150.785c-2.55-5.1-5.609-4.283-5.609-4.283s-14.788-.612-22.539,1.53a6.45,6.45,0,0,0-3.977,9.281.773.773,0,0,1,.2.408c.612.918,3.264,1.836,6.221,1.938,10.4.306,19.275-5.813,19.275-5.813-.612,2.04.612,6.119,2.652,7.955,5.2,4.793,13.36,12.646,13.36,12.646l3.467-1.122C231,173.324,219.275,154.252,217.541,150.785Z" transform="translate(-179.107 -102.442)"/>
            <path id="Path_33125" data-name="Path 33125" class="cls-25" d="M214.661,154.72l-3.671-1.02a58.449,58.449,0,0,1-14.89,5.507l12.646.408a15.263,15.263,0,0,0-1.122,6.425c.1,5.813,1.428,19.071,1.428,19.071h3.06s2.958-20.5,3.977-24.17C217.415,155.536,214.661,154.72,214.661,154.72Z" transform="translate(-178.879 -102.298)"/>
          </g>
          <path id="Path_33126" data-name="Path 33126" class="cls-5" d="M180.157,133.363s-1.122,10.708-1.224,13.972c-.2,3.264,5.405,5.1,6.425,1.02.306-14.38-4.589-22.743-4.589-22.743A5.776,5.776,0,0,1,182.5,125c.816-.1,3.977,3.875,5.1,25.394,2.346,16.114-1.02,16.216-1.02,16.216S175.363,168.548,172.2,161c-.714-2.244,2.652-8.873,4.181-14.074C179.137,137.748,178.321,137.136,180.157,133.363Z" transform="translate(-172.104 -102.868)"/>
          <path id="Path_33127" data-name="Path 33127" class="cls-26" d="M179.724,157.6c-1.836,1.53-1.122-9.689-.918-10.3h0c.306,2.856,5,4.385,6.221,1.122C184.415,150.054,182.273,155.561,179.724,157.6Z" transform="translate(-171.977 -102.425)"/>
          <path id="Path_33128" data-name="Path 33128" class="cls-27" d="M199.523,142.12s-2.958-.408-3.162-.408l-12.034,1.632-.612-13.156c-.1-2.346-1.632-4.589-3.264-4.487a2.889,2.889,0,0,0-2.652,3.162,50.212,50.212,0,0,0,3.773,17.643,1.757,1.757,0,0,0,1.836,1.326l13.258-3.467a2.03,2.03,0,0,1,1.224.816c.306.51.714.408,1.02.612,0,0,4.691.2,4.589-.612C203.5,144.261,200.747,142.426,199.523,142.12Z" transform="translate(-171.991 -102.854)"/>
          <g id="Group_8815" data-name="Group 8815" transform="translate(25.425 35.288)">
            <path id="Path_33129" data-name="Path 33129" class="cls-12" d="M212.909,137.9H202.1a.689.689,0,0,0-.612.408l-4.385,8.465a.628.628,0,0,0,.1.714l16.42-8.873-.1-.306A.689.689,0,0,0,212.909,137.9Z" transform="translate(-197.034 -137.9)"/>
            <path id="Path_33130" data-name="Path 33130" class="cls-6" d="M213.11,138.1H202.3a.561.561,0,0,0-.51.306l-2.142,4.181-2.448,4.793h12.034l4.385-8.567C213.824,138.508,213.518,138.1,213.11,138.1Z" transform="translate(-197.031 -137.896)"/>
            <path id="Path_33131" data-name="Path 33131" class="cls-5" d="M211.833,142.6c-.1-.1-.2-.2-.306-.2h-11.32a.39.39,0,0,0-.306.51l2.652,4.283c.1.1.2.2.306.2h11.218a.374.374,0,0,0,.306-.612Z" transform="translate(-196.978 -137.811)"/>
          </g>
        </g>
        <path id="Path_33132" data-name="Path 33132" class="cls-19" d="M199.224,112.711c-.612,1.224.306,3.467-.2,4.691a26.374,26.374,0,0,1-3.264,4.385,2.662,2.662,0,0,1-2.04,1.02h0a2.148,2.148,0,0,1-1.326-.51l-4.691-3.773L189.944,107l8.465.714.816,1.224a3.178,3.178,0,0,1,.408,2.856Z" transform="translate(-171.794 -101.56)"/>
        <path id="Path_33133" data-name="Path 33133" class="cls-20" d="M199.272,109.044a11.61,11.61,0,0,0-7.547,3.06c-.816.714-1.632,3.06-3.366,3.773-1.02,3.875-.1,5.405,1.122,9.587-3.264-1.122-8.975-4.589-9.281-10.1s2.142-10.1,5.3-12.034a9.507,9.507,0,0,1,9.689-.612C198.15,104.25,199.884,106.9,199.272,109.044Z" transform="translate(-171.944 -101.666)"/>
        <path id="Path_33134" data-name="Path 33134" class="cls-19" d="M189.546,113.927a2,2,0,0,0-.918-1.326,1.117,1.117,0,0,0-.816,0c-1.02.306-.816,3.264.51,3.671C189.342,116.681,189.648,114.947,189.546,113.927Z" transform="translate(-171.805 -101.45)"/>
        <path id="Path_33135" data-name="Path 33135" class="cls-28" d="M187.6,116.114c0,.306.306.51.714.51.306,0,.51-.306.51-.714,0-.306-.306-.51-.714-.51A.767.767,0,0,0,187.6,116.114Z" transform="translate(-171.796 -101.393)"/>
        <path id="Path_33136" data-name="Path 33136" class="cls-20" d="M214.105,191.385c1.734,1.02,1.428,2.448,0,3.06a3.433,3.433,0,0,1-3.773-1.122c-.306-.714-1.632-6.323-1.632-6.323h3.671Z" transform="translate(-171.377 -99.972)"/>
        <path id="Path_33137" data-name="Path 33137" class="cls-20" d="M208.715,184.5c-.714.408-.816,1.224-.714,2.142.2,1.836.306,5,.306,5h1.224l.306-4.385-1.122-2.754" transform="translate(-171.392 -100.022)"/>
        <path id="Path_33138" data-name="Path 33138" class="cls-19" d="M211.76,184.5l2.346,6.935s0,.612-1.632.612-1.632-1.53-2.142-3.162-1.53-2.244-1.632-3.671V184.5Z" transform="translate(-171.377 -100.022)"/>
      </g>
      <g id="Group_8824" data-name="Group 8824" transform="translate(145.27 194.322)">
        <path id="Path_33139" data-name="Path 33139" class="cls-4" d="M176.076,247.841l-.1-.2-12.136-1.326L157.107,230.3l-4.283,23.049,6.935.51-2.244,2.958L151.6,269.768l2.448,5.711,8.057-8.057,3.773-5.507,7.139-4.181a7.453,7.453,0,0,0,3.569-4.487A8.507,8.507,0,0,0,176.076,247.841Z" transform="translate(-142.261 -189.751)"/>
        <path id="Path_33140" data-name="Path 33140" class="cls-29" d="M172.169,257.728l.816-.51a12.739,12.739,0,0,0,1.224-.918l-9.383,2.754-4.283,7.241-7.343,6.731.816,1.836,8.057-8.057,3.773-5.507Z" transform="translate(-142.23 -189.235)"/>
        <path id="Path_33141" data-name="Path 33141" class="cls-30" d="M163.816,246.312,157.085,230.3,152.7,253.349l6.935.51Z" transform="translate(-142.239 -189.751)"/>
        <path id="Path_33142" data-name="Path 33142" class="cls-31" d="M164.2,191.519h0a7.215,7.215,0,0,1,4.589-.918l3.875.408a3.591,3.591,0,0,1,1.938,1.02l1.632,2.04a2.8,2.8,0,0,1,.306,2.958h0l-3.671,2.346-11.014.51-2.652,2.448,1.326-5.915A8.047,8.047,0,0,1,164.2,191.519Z" transform="translate(-142.11 -190.54)"/>
        <path id="Path_33143" data-name="Path 33143" class="cls-32" d="M172.648,199.346,176.319,197l.1,2.244a5.961,5.961,0,0,1-.2,1.938h0c-.714,2.448-3.162,6.935-3.264,8.669-.1,1.632-.612-2.346-.612-2.346l-2.142-3.264Z" transform="translate(-141.892 -190.412)"/>
        <g id="Group_8818" data-name="Group 8818" transform="translate(0 37.776)">
          <path id="Path_33144" data-name="Path 33144" class="cls-33" d="M150.593,264.5l.714-4.385-4.9-.714-.612,4.691Z" transform="translate(-142.376 -226.95)"/>
          <path id="Path_33145" data-name="Path 33145" class="cls-34" d="M150.66,264.436l-.714-.2a1.878,1.878,0,0,0-1.836-1.632,1.993,1.993,0,0,0-2.346,1.224v.2h0L142.6,268.72a1.715,1.715,0,0,0,.816,2.244,12.671,12.671,0,0,0,5.405,1.53h.2a1.757,1.757,0,0,0,1.836-1.326Z" transform="translate(-142.443 -226.887)"/>
          <path id="Path_33146" data-name="Path 33146" class="cls-35" d="M150.861,271.029l.1-4.589a12.556,12.556,0,0,0-.2-2.04h0l-.2,6.017c-.2.816-.918.816-1.428.816h-.2a12.275,12.275,0,0,1-5.405-1.53,1.8,1.8,0,0,1-.816-.918,1.691,1.691,0,0,0,.816,2.142,12.671,12.671,0,0,0,5.405,1.53h.2A1.736,1.736,0,0,0,150.861,271.029Z" transform="translate(-142.44 -226.85)"/>
          <path id="Path_33147" data-name="Path 33147" class="cls-4" d="M147.842,232.088a5.432,5.432,0,0,1,2.244-3.569h0a5.258,5.258,0,0,1,3.467-.918l2.142.2h0a10.686,10.686,0,0,1,2.244,8.669l-6.629,26.006-5.609-.918Z" transform="translate(-142.378 -227.581)"/>
        </g>
        <path id="Path_33148" data-name="Path 33148" class="cls-33" d="M187.222,223.5l.51,16.114s6.119,13.36,6.935,13.87c.714.51,3.671.612,3.671.612a29.556,29.556,0,0,1,4.283,1.224l2.346,1.632a.336.336,0,0,1-.2.612s-3.671-1.02-5.711-1.326c-2.448.51,2.244,1.02,1.53,2.04l-3.06-.306-2.856-1.428s-6.017-5.1-7.649-7.139a69.14,69.14,0,0,1-4.283-6.323s-2.04-7.547-1.734-13.156C182.938,227.681,187.222,223.5,187.222,223.5Z" transform="translate(-141.678 -189.886)"/>
        <g id="Group_8819" data-name="Group 8819" transform="translate(0.057 28.005)">
          <path id="Path_33149" data-name="Path 33149" class="cls-36" d="M142.5,231.462c.1-2.754,5.3-9.485,8.975-13.462,1.326,3.06,2.856,7.445,3.773,7.547a6.047,6.047,0,0,1-3.875,3.06S142.4,232.992,142.5,231.462Z" transform="translate(-142.499 -218)"/>
        </g>
        <path id="Path_33150" data-name="Path 33150" class="cls-37" d="M187.822,223.317c-.2-4.283-2.448-8.975-8.669-10.1a70.429,70.429,0,0,0-18.663-.714c-3.875.51-5.915,2.142-9.791,5.711.2,2.958,2.652,7.649,4.589,11.32h0l2.448,3.264,2.244,12.34a3.4,3.4,0,0,0,3.467,2.754l2.346-.1h2.346a12.184,12.184,0,0,1,7.241,2.244c.306.2.612.51.918.714a.79.79,0,0,0,1.326-.408s2.55-14.788,5-18.561C183.845,229.844,187.822,223.317,187.822,223.317Z" transform="translate(-142.279 -190.11)"/>
        <path id="Path_33151" data-name="Path 33151" class="cls-26" d="M152.4,223.588l.306-.816c.1-.51,0-1.428.306-1.428a.905.905,0,0,1,.918.714l.1-1.938a.991.991,0,0,1,1.122-1.02l4.487.2a.991.991,0,0,1,1.02,1.122l-.1,2.142a7.029,7.029,0,0,1,1.02-.408,2.978,2.978,0,0,1,.918-.2c.408.1.51.306.408.612a10.047,10.047,0,0,1-2.346,1.53v.714c.714-.1.918.612.51,1.122a.65.65,0,0,0,0,.612,1.015,1.015,0,0,1-.1.918.642.642,0,0,0,0,.612c.2.2-.2,1.122-1.02,1.428-1.122.51-2.856.612-3.366.918l-.1.1c-.1.1-.2.1-.2.2l-1.02-1.326C154.338,227.565,153.216,225.525,152.4,223.588Z" transform="translate(-142.245 -189.973)"/>
        <path id="Path_33152" data-name="Path 33152" class="cls-26" d="M177.506,250.026a.77.77,0,0,1-1.326.408c-.306-.2-.612-.51-.918-.714a12.4,12.4,0,0,0-7.241-2.244h-2.346l-2.346.1a3.726,3.726,0,0,1-1.53-.306c4.079-1.02,10.5-2.754,13.054-4.487,3.875-2.652-10.2-2.346-1.53-6.323S187.5,223.408,187.5,223.408l.2-.408s-3.977,6.527-5.1,8.363C180.055,235.238,177.506,250.026,177.506,250.026Z" transform="translate(-142.059 -189.896)"/>
        <path id="Path_33153" data-name="Path 33153" class="cls-33" d="M167.191,206.006l6.323-.306-.1,2.346c-.306,3.366,2.754,6.119,2.754,6.119-2.142,2.754-10.3,7.751-10.912,7.343-1.734-1.428-3.162-8.057-2.652-8.057a2.279,2.279,0,0,0,1.836-1.836l.51-3.671A2.6,2.6,0,0,1,167.191,206.006Z" transform="translate(-142.045 -190.239)"/>
        <path id="Path_33154" data-name="Path 33154" class="cls-33" d="M161.8,199.851h0l-.1,8.159a1.158,1.158,0,0,0,.306.816l1.02,1.122a3.077,3.077,0,0,0,3.06.918l5.711-1.632a1.6,1.6,0,0,0,1.122-1.02l1.02-3.06h.306a1.135,1.135,0,0,0,1.02-.306.882.882,0,0,0,.306-.612l.51-2.244a.863.863,0,0,0-.816-1.02h0a.888.888,0,0,0-.816.612l-.612,2.346-1.224-.612.2-3.875h0C171.593,194.853,162.516,198.729,161.8,199.851Z" transform="translate(-142.061 -190.407)"/>
        <path id="Path_33155" data-name="Path 33155" class="cls-31" d="M164.962,206.06a2.291,2.291,0,0,1-1.836-.2h0c-.51-.2-1.326,1.224-1.326,1.224a10.366,10.366,0,0,0,1.122,5.3h0a3.077,3.077,0,0,0,3.06.918s6.017-1.122,6.833-2.652c.918-1.53,1.224-5.711,1.224-5.711v-1.326L172.815,203s-.714,5.2-2.346,5.1c-.408,0-2.244-2.652-2.958-2.55Z" transform="translate(-142.059 -190.293)"/>
        <g id="Group_8820" data-name="Group 8820" transform="translate(3.286 69.223)">
          <path id="Path_33156" data-name="Path 33156" class="cls-34" d="M154.358,275.487l.612-1.734s-.918-8.261-3.06-12.442C149.871,257.232,154.358,275.487,154.358,275.487Z" transform="translate(-145.552 -258.37)"/>
          <path id="Path_33157" data-name="Path 33157" class="cls-35" d="M151.31,277.369h0c-2.04-.51-3.06-2.448-2.55-4.793h0a5.033,5.033,0,0,0-.306-3.06l-2.04-3.875a7.2,7.2,0,0,1-.612-4.691,6.482,6.482,0,0,1,.612-1.836c.408-.816,1.734-.816,2.55-.51a4.877,4.877,0,0,1,3.162,3.569l2.244,12.748C154.777,276.145,152.534,277.675,151.31,277.369Z" transform="translate(-145.665 -258.415)"/>
          <path id="Path_33158" data-name="Path 33158" class="cls-38" d="M153.727,275.125l-2.244-12.748a5.058,5.058,0,0,0-3.162-3.569,3.666,3.666,0,0,0-1.122-.2,2.168,2.168,0,0,1,1.938.1,4.877,4.877,0,0,1,3.162,3.569l2.244,12.748c.2,1.122-1.734,2.448-2.856,2.448C152.707,276.961,153.829,275.941,153.727,275.125Z" transform="translate(-145.635 -258.415)"/>
        </g>
        <path id="Path_33159" data-name="Path 33159" class="cls-33" d="M153.515,221.506c-1.938,2.244-4.793,3.365-6.731,4.487s-3.977,3.773-4.283,5.507c-.306,1.428,3.366,3.773,7.241,1.326,3.875-2.346,4.487-6.017,7.037-8.261C159.736,221.914,155.35,220.487,153.515,221.506Z" transform="translate(-142.442 -189.932)"/>
        <g id="Group_8823" data-name="Group 8823" transform="translate(9.543 22.396)">
          <g id="Group_8821" data-name="Group 8821" transform="translate(2.04)">
            <path id="Path_33160" data-name="Path 33160" class="cls-39" d="M159.715,212.7l-4.487-.2a1.048,1.048,0,0,0-1.122,1.02l-.306,8.465a1.048,1.048,0,0,0,1.02,1.122l4.793.2c.612,0,.816-.51.816-1.02l.1-3.467.1-2.448.1-2.55A.991.991,0,0,0,159.715,212.7Z" transform="translate(-153.8 -212.5)"/>
          </g>
          <g id="Group_8822" data-name="Group 8822" transform="translate(2.04 0.612)">
            <path id="Path_33161" data-name="Path 33161" class="cls-38" d="M159.715,213.3l-4.487-.2a1.048,1.048,0,0,0-1.122,1.02l-.306,8.159a1.048,1.048,0,0,0,1.02,1.122l4.793.2c.612,0,.816-.51.816-1.02l.1-3.162.1-2.448.1-2.55A.991.991,0,0,0,159.715,213.3Z" transform="translate(-153.8 -213.1)"/>
          </g>
          <path id="Path_33162" data-name="Path 33162" class="cls-40" d="M155.408,213.8c-.2,0-.408.1-.408.2a.455.455,0,0,0,.408.306c.2,0,.408-.1.408-.2C155.816,213.9,155.612,213.8,155.408,213.8Z" transform="translate(-151.736 -212.474)"/>
          <path id="Path_33163" data-name="Path 33163" class="cls-33" d="M162.61,215.912c-.306-.1-.612.1-.918.2-1.326.51-5.915,2.958-6.935,2.754-1.122-.1-.612-1.53-.612-1.53a4.183,4.183,0,0,0-.1-1.122c-.2-.816-.714-.918-1.02-.918-.408,0-.2.918-.306,1.428l-.918,2.856,1.122,4.079,3.569.918c.1-.306,2.142-.51,3.467-1.02.816-.306,1.224-1.224,1.02-1.428a.65.65,0,0,1,0-.612,1.015,1.015,0,0,0,.1-.918.65.65,0,0,1,0-.612c.306-.51.1-1.224-.51-1.122-.918.306-1.53.918-1.326.1.816-.51,3.467-1.836,3.671-2.346C163.12,216.218,163.12,216.014,162.61,215.912Z" transform="translate(-151.8 -212.444)"/>
        </g>
      </g>
      <g id="Group_8830" data-name="Group 8830" transform="translate(189.59 7.352)">
        <rect id="Rectangle_73" data-name="Rectangle 73" class="cls-25" width="17.847" height="6.323" transform="translate(9.077 49.759)"/>
        <path id="Path_33164" data-name="Path 33164" class="cls-41" d="M200.555,26.5l2.244-.1a18.347,18.347,0,0,1,6.119.408,6.374,6.374,0,0,1,4.589,3.773c2.04,4.691,4.079,11.83,3.671,16.42h0l-3.569,7.751-3.365,3.773-12.748-2.652-5.2-6.425-3.264-4.691a11.658,11.658,0,0,1,3.977-15.706,2.556,2.556,0,0,1,.714-.408l1.632-.918Z" transform="translate(-185.869 -6.83)"/>
        <path id="Path_33165" data-name="Path 33165" class="cls-42" d="M193.3,34.3s2.55,7.037,2.04,10.606,2.346,2.244,2.346,2.244S195.136,36.544,193.3,34.3Z" transform="translate(-185.753 -6.671)"/>
        <path id="Path_33166" data-name="Path 33166" class="cls-42" d="M210.868,44.588s-2.754-6.119-3.365-9.485a6.66,6.66,0,0,1,1.02-5.3,29.733,29.733,0,0,0,.1,5.1C208.93,37.245,210.868,44.588,210.868,44.588Z" transform="translate(-185.474 -6.761)"/>
        <path id="Path_33167" data-name="Path 33167" class="cls-43" d="M213.8,40.7" transform="translate(-185.346 -6.544)"/>
        <path id="Path_33168" data-name="Path 33168" class="cls-25" d="M207.5,68.2h-7.139a7.353,7.353,0,0,1-7.343-6.833L192.1,49.03l7.853.714,3.875,11.32L208.622,47.6l7.343-.1-1.224,14.074A7.164,7.164,0,0,1,207.5,68.2Z" transform="translate(-185.777 -6.409)"/>
        <g id="Group_8826" data-name="Group 8826" transform="translate(11.121 37.095)">
          <g id="Group_8825" data-name="Group 8825" transform="translate(0 26.126)">
            <path id="Path_33169" data-name="Path 33169" class="cls-44" d="M198.942,86.1h0a2.486,2.486,0,0,0,2.754-1.632l1.02-5.609c.408-1.326.408-2.55-.918-2.958h0c-1.326-.408-2.04.51-2.448,1.836l-2.448,5A2.682,2.682,0,0,0,198.942,86.1Z" transform="translate(-196.805 -69.069)"/>
            <path id="Path_33170" data-name="Path 33170" class="cls-45" d="M197.7,82.254l2.754-5.813,1.53-7.241,3.977,1.326L202.8,77.665l-1.224,6.119Z" transform="translate(-196.787 -69.2)"/>
            <path id="Path_33171" data-name="Path 33171" class="cls-46" d="M197.7,82.254l2.754-5.813,1.53-7.241,3.977,1.326L202.8,77.665l-1.224,6.119Z" transform="translate(-196.787 -69.2)"/>
          </g>
          <path id="Path_33172" data-name="Path 33172" class="cls-24" d="M205.875,71.034l9.791-21.927a4.226,4.226,0,0,0-2.652-5.3h0a4.2,4.2,0,0,0-5.405,3.06L202,69.708Z" transform="translate(-196.702 -43.583)"/>
          <path id="Path_33173" data-name="Path 33173" class="cls-10" d="M203.116,69.83l2.754.918,1.326-2.958L204.748,58,202.3,67.995Z" transform="translate(-196.696 -43.296)"/>
        </g>
        <g id="Group_8828" data-name="Group 8828" transform="translate(6.119 37.095)">
          <g id="Group_8827" data-name="Group 8827" transform="translate(10.097 26.126)">
            <path id="Path_33174" data-name="Path 33174" class="cls-44" d="M208.678,86.1h0a2.486,2.486,0,0,1-2.754-1.632l-1.02-5.609c-.408-1.326-.408-2.55.918-2.958h0c1.326-.408,2.04.51,2.448,1.836l2.448,5A2.616,2.616,0,0,1,208.678,86.1Z" transform="translate(-201.743 -69.069)"/>
            <path id="Path_33175" data-name="Path 33175" class="cls-45" d="M209.959,82.254l-2.652-5.813L205.675,69.2,201.8,70.526l3.162,7.139,1.122,6.119Z" transform="translate(-201.8 -69.2)"/>
          </g>
          <path id="Path_33176" data-name="Path 33176" class="cls-24" d="M202,71.034,192.1,49.108a4.226,4.226,0,0,1,2.652-5.3h0a4.2,4.2,0,0,1,5.405,3.06l5.609,22.845Z" transform="translate(-191.9 -43.583)"/>
        </g>
        <path id="Path_33177" data-name="Path 33177" class="cls-47" d="M185.9,15.461c0-1.836.1-5.1,3.162-5.915,14.074-10.708,18.357,18.867,18.357,18.867l-12.748-2.55A10.451,10.451,0,0,1,185.9,15.461Z" transform="translate(-185.9 -7.209)"/>
        <path id="Path_33178" data-name="Path 33178" class="cls-22" d="M191,14.13c10.1-7.445,16.318,14.176,16.318,14.176S193.346,17.9,191,14.13Z" transform="translate(-185.799 -7.103)"/>
        <path id="Path_33179" data-name="Path 33179" class="cls-45" d="M203.71,27.307h.2a6.427,6.427,0,0,1-10.81,3.06l-.2-.2h0a3.034,3.034,0,0,0,1.428-3.06l-.51-3.569,5.2-1.734,2.04,3.977A2.815,2.815,0,0,0,203.71,27.307Z" transform="translate(-185.761 -6.92)"/>
        <path id="Path_33180" data-name="Path 33180" class="cls-46" d="M199.207,28.023a6.181,6.181,0,0,0,2.04-1.938c-.1-.1-.2-.306-.306-.408L198.9,21.7l-5.2,1.734.408,2.958a8.188,8.188,0,0,0,3.366,1.734c.2,0,.408.1.612.1A1.337,1.337,0,0,0,199.207,28.023Z" transform="translate(-185.745 -6.922)"/>
        <path id="Path_33181" data-name="Path 33181" class="cls-22" d="M185.9,15.415c0-1.836.1-5.1,3.162-5.915,1.734,2.754,5.609,16.216,5.609,16.216C189.571,25.1,186,20.616,185.9,15.415Z" transform="translate(-185.9 -7.164)"/>
        <path id="Path_33182" data-name="Path 33182" class="cls-45" d="M197.866,27.156h0a1.04,1.04,0,0,1-.918.2c-.2,0-.51-.1-.612-.1a9.138,9.138,0,0,1-5.2-3.569,3.7,3.7,0,0,1-.714-1.734l-.306-1.734c-.306-.816-1.02-1.836-.714-2.754L190.931,14l6.323,2.856a2.431,2.431,0,0,1,1.122.612c1.122.816,2.754,1.734,2.754,3.162v.2A6.981,6.981,0,0,1,197.866,27.156Z" transform="translate(-185.832 -7.074)"/>
        <g id="Group_8829" data-name="Group 8829" transform="translate(13.36 19.674)">
          <path id="Path_33183" data-name="Path 33183" class="cls-12" d="M199.306,36.087H204a.27.27,0,0,0,.306-.306V26.806A.27.27,0,0,0,204,26.5h-4.691a.27.27,0,0,0-.306.306v8.975A.27.27,0,0,0,199.306,36.087Z" transform="translate(-199 -26.5)"/>
          <path id="Path_33184" data-name="Path 33184" class="cls-5" d="M199.306,36.787H204a.27.27,0,0,0,.306-.306V27.506A.27.27,0,0,0,204,27.2h-4.691a.27.27,0,0,0-.306.306v8.975A.27.27,0,0,0,199.306,36.787Z" transform="translate(-199 -26.486)"/>
          <path id="Path_33185" data-name="Path 33185" class="cls-13" d="M200.416,28.208a.408.408,0,1,1-.408-.408C200.212,27.9,200.416,28,200.416,28.208Z" transform="translate(-198.988 -26.474)"/>
        </g>
        <path id="Path_33186" data-name="Path 33186" class="cls-45" d="M215.428,43.145l-9.689-6.119-.408-3.671a1.774,1.774,0,0,0-1.224-1.428l-4.9-1.326a.511.511,0,0,0-.612.51l.2,1.734a5.166,5.166,0,0,0,1.53,3.162l15.2,14.38h0a5.163,5.163,0,0,0,.2-6.935Z" transform="translate(-185.648 -6.745)"/>
        <path id="Path_33187" data-name="Path 33187" class="cls-45" d="M193.9,43.606l15.2,5.405,4.691-.714,1.53,1.428a1.713,1.713,0,0,1,.408,1.938l-.408.714a2.393,2.393,0,0,1-3.06,1.122l-3.06-1.326-17.643-3.06L188.9,44.422A5.185,5.185,0,0,1,193.9,43.606Z" transform="translate(-185.84 -6.493)"/>
      </g>
      <g id="Group_8834" data-name="Group 8834" transform="translate(0 128.985)">
        <path id="Path_33188" data-name="Path 33188" class="cls-15" d="M13,152.37c1.734-1.836,6.119-3.773,10.4-3.569s5.2,1.428,5.2,1.428l-14.38,5.405Z" transform="translate(0.258 -126.032)"/>
        <g id="Group_8832" data-name="Group 8832">
          <g id="XMLID_2_">
            <path id="Path_33189" data-name="Path 33189" class="cls-48" d="M43.647,237.8h0a9.032,9.032,0,0,1,3.467,1.632l.612.51c.2.1.2.408.1.612-.408.714-6.323,8.363-7.445,10.2-1.02,1.938-3.162,3.671-4.283,2.856,3.162-8.057,3.569-10.81,3.569-10.81Z" transform="translate(0.717 -124.265)"/>
            <path id="Path_33190" data-name="Path 33190" class="cls-49" d="M39.662,250.714c.918-1.734,6.425-9.077,7.853-11.014l.2.2c.2.1.2.408.1.612-.408.714-6.323,8.363-7.445,10.2-.918,1.734-2.754,3.366-3.875,3.06A6.994,6.994,0,0,0,39.662,250.714Z" transform="translate(0.724 -124.227)"/>
            <path id="Path_33191" data-name="Path 33191" class="cls-50" d="M15.8,225.059l24.068,19.275s2.04.2,4.181-2.04a7.68,7.68,0,0,0,2.244-3.977L27.12,220.266l-5-3.366Z" transform="translate(0.314 -124.68)"/>
            <path id="Path_33192" data-name="Path 33192" class="cls-51" d="M19.5,217.716s25.9,17.337,24.476,24.578a7.68,7.68,0,0,0,2.244-3.977L27.047,220.266l-5-3.366Z" transform="translate(0.387 -124.68)"/>
            <path id="XMLID_15_" class="cls-52" d="M21.271,127.214a3.3,3.3,0,0,1-2.754-.408c-1.224-.918-4.487.1-5.609,2.652a5.808,5.808,0,0,0-.408,2.652,8.336,8.336,0,0,0,2.856,5.507c4.283,3.875,4.079,8.873,7.139,8.975,4.9.2,9.383-5.405,8.975-11.218C31.571,127.316,24.534,125.991,21.271,127.214Z" transform="translate(0.248 -126.475)"/>
            <path id="XMLID_14_" class="cls-14" d="M29.05,140.4l-6.731,3.06-.2,2.856a5.139,5.139,0,0,1-1.938,3.875s-7.853,7.751-1.428,8.159S31.7,150.089,31.7,150.089C28.744,145.907,29.05,140.4,29.05,140.4Z" transform="translate(0.322 -126.198)"/>
            <path id="Path_33193" data-name="Path 33193" class="cls-53" d="M13.785,152.3s-4.487,2.958-5.711,6.323c-.306.714-3.264,13.87-3.773,16.827-.1.612,2.244,3.569,2.856,1.02,1.224-5.3,5.2-13.972,5.2-13.972a39,39,0,0,0,5.1-3.671C19.5,157.2,13.785,152.3,13.785,152.3Z" transform="translate(0.085 -125.962)"/>
            <path id="Path_33194" data-name="Path 33194" class="cls-54" d="M14.5,160.234l.2.612c-1.326.918-2.448,1.632-2.448,1.632s-.306.612-.714,1.632h0c.1-1.326-.714-3.365-1.938-5.609C12.252,161.356,14.5,160.234,14.5,160.234Z" transform="translate(0.191 -125.839)"/>
            <path id="Path_33195" data-name="Path 33195" class="cls-53" d="M4.429,174.7,3,180.107a1.126,1.126,0,0,0,0,.816l.918,3.162a1.586,1.586,0,0,0,.612.816l2.448,1.734h0a1.564,1.564,0,0,0-.2-1.734l-1.122-1.122-.306-2.652a.613.613,0,0,1,.1-.408h0a.536.536,0,0,1,.918.2l.408,2.652a.571.571,0,0,0,.612.51h0A.658.658,0,0,0,8,183.473L7.9,179.7l-.612-5.1H4.429Z" transform="translate(0.058 -125.52)"/>
            <path id="Path_33196" data-name="Path 33196" class="cls-50" d="M15.579,185.8l-.51,3.773L14.253,196l-2.244,14.686a43.8,43.8,0,0,0-.408,8.975h0a6.771,6.771,0,0,0,3.06,5.405l1.122.714,6.527-.714-.408-6.017,8.363-31.717Z" transform="translate(0.229 -125.297)"/>
            <path id="Path_33197" data-name="Path 33197" class="cls-51" d="M22.654,194.851,19.9,216.268a3.694,3.694,0,0,0,1.224,3.162l.816.612L30.2,187.1Z" transform="translate(0.395 -125.271)"/>
            <path id="Path_33198" data-name="Path 33198" class="cls-48" d="M27.528,248.1c.1,1.836-.612,3.06-1.224,5.405-.408,1.53-.51,3.467,3.162,3.569,3.467.1,3.467-2.448,3.467-2.754,0-.408-.51-4.385-.51-4.385Z" transform="translate(0.518 -124.061)"/>
            <g id="Group_8831" data-name="Group 8831" transform="translate(26.822 131.382)">
              <path id="Path_33199" data-name="Path 33199" class="cls-49" d="M29.666,256.014a12.173,12.173,0,0,0,2.958-.408c-.408.714-1.224,1.326-3.06,1.326-2.142-.1-3.06-.714-3.264-1.632A6.886,6.886,0,0,0,29.666,256.014Z" transform="translate(-26.3 -255.3)"/>
            </g>
            <path id="Path_33200" data-name="Path 33200" class="cls-5" d="M18.1,186.316l.816,6.629a4.192,4.192,0,0,0,2.04,3.162h0a3,3,0,0,1,1.326,1.836L25.749,221.3l.612,30.7s.612.51,3.671.714,3.467-.816,3.467-.816l1.632-14.38c.408-3.671.918-7.853.408-11.524l-.714-4.079,1.224-12.544a49.382,49.382,0,0,0,.408-8.669l-.2-3.162a4.771,4.771,0,0,1,.2-1.734h0a15.448,15.448,0,0,0,.612-5.3l-.51-5Z" transform="translate(0.359 -125.303)"/>
            <path id="Path_33201" data-name="Path 33201" class="cls-50" d="M32.865,221.907a103.429,103.429,0,0,0-.306-25.6s-7.853,0-8.159-7.139L36.23,185.6h.1l.51,5a11.708,11.708,0,0,1-.612,5.3,4.771,4.771,0,0,0-.2,1.734l.2,3.162a61.684,61.684,0,0,1-.408,8.669L34.6,222.009l.714,4.079c.612,3.671,0,7.853-.408,11.524l-1.632,14.38S36.026,233.125,32.865,221.907Z" transform="translate(0.484 -125.301)"/>
            <path id="Path_33202" data-name="Path 33202" class="cls-5" d="M31.5,189.011c.2,2.244.714,5.609.714,5.609s-4.589.51-5.915-3.671C25.079,186.869,31.5,189.011,31.5,189.011Z" transform="translate(0.519 -125.245)"/>
            <path id="XMLID_13_" class="cls-41" d="M38.609,152.349,31.776,149.9s-4.9,6.425-11.116,5.507c-1.734-.2-1.938-3.977-.408-5.405-.306.1-3.06-1.224-7.241,2.244-.612,1.122-1.02,7.241.51,9.791a13.273,13.273,0,0,0,1.224-.612h0a24.664,24.664,0,0,0,.306,6.119,56.728,56.728,0,0,1,1.122,8.261c-.306,5.813-2.244,12.646-1.632,13.768.918,1.632,9.077,4.487,22.641,1.428.306-13.054,1.02-22.845,1.02-22.845l3.06-4.793a8.733,8.733,0,0,0,1.224-6.731A5.448,5.448,0,0,0,38.609,152.349Z" transform="translate(0.247 -126.011)"/>
            <path id="XMLID_12_" class="cls-14" d="M24.972,174.7l5.2-10.3c1.122,2.142,6.323,3.671,8.057,3.569,0,0-7.037,9.281-10.1,12.646-.612.612-1.734.408-2.652.2L11,176.23l.51-3.671Z" transform="translate(0.218 -125.722)"/>
            <g id="XMLID_6_" transform="translate(0 37.824)">
              <path id="XMLID_11_" class="cls-5" d="M1.63,163.6l9.485,2.958a.5.5,0,0,1,.306.612l-.918,2.856L.1,166.762l.918-2.856A.455.455,0,0,1,1.63,163.6Z" transform="translate(0.002 -163.563)"/>
              <path id="XMLID_10_" class="cls-12" d="M1.713,164.2c.1-.2.2-.306.408-.2l8.261,2.652c.2.1.306.2.2.408L9.973,168.9c-.1.2-.2.306-.408.2L1.3,166.448c-.2-.1-.306-.2-.2-.408Z" transform="translate(0.021 -163.555)"/>
              <path id="XMLID_9_" class="cls-13" d="M.1,166.7c0-.1.2-.2.408-.2l9.791,3.162c.1,0,.2.2.2.408l-.1.408c0,.1-.2.2-.408.2L.2,167.52c-.1,0-.2-.2-.2-.408Z" transform="translate(0 -163.504)"/>
              <path id="XMLID_8_" class="cls-12" d="M1.1,167l.816.306c.1,0,.2.1.1.2,0,.1-.1.2-.2.1L1,167.306c-.1,0-.2-.1-.1-.2C.8,167,.9,167,1.1,167Z" transform="translate(0.017 -163.494)"/>
              <path id="XMLID_7_" class="cls-12" d="M3.2,167.7l2.04.612c.1,0,.2.1.1.2,0,.1-.1.2-.2.1l-2.04-.612c-.1,0-.2-.1-.1-.2C3,167.7,3.1,167.6,3.2,167.7Z" transform="translate(0.059 -163.481)"/>
            </g>
            <path id="XMLID_5_" class="cls-14" d="M2.4,168.252l5.609,1.836a1.17,1.17,0,0,0,1.224-.51,1.415,1.415,0,0,0,0-.918l-.612-1.224c-.306-1.02-.1-1.734.612-1.836l2.55,3.773.714,4.793.2,2.55L9.543,176.1a12.224,12.224,0,0,1-4.079-2.04c-.918-.306-.816-1.53-.816-1.53.1-.2-.408-.714-.408-.918l-.2-.408a.585.585,0,0,1,.2-.714s-1.734-.714-1.836-1.02C1.894,168.66,2.4,168.252,2.4,168.252Z" transform="translate(0.043 -125.698)"/>
            <path id="Path_33203" data-name="Path 33203" class="cls-54" d="M24.893,149.251c-.816.51-3.773,1.734-4.793,1.02h0a.8.8,0,0,0,.408-.408,4.922,4.922,0,0,0,1.428-3.569l.2-2.856,5.711-1.938C27.953,141.6,28.667,146.7,24.893,149.251Z" transform="translate(0.399 -126.177)"/>
            <path id="XMLID_4_" class="cls-14" d="M26.72,138.494c-.714-3.671-2.346-2.448-3.264-3.671-2.244-2.958-4.487.612-8.057,1.938,0,.306,1.122,5.507,1.326,6.323,1.836,5.1,1.632,5.813,5.2,5s6.017-2.856,6.629-5.3c.2-.612.918-3.365.918-3.365C28.658,139.412,27.026,139.819,26.72,138.494Z" transform="translate(0.306 -126.332)"/>
            <path id="Path_33204" data-name="Path 33204" class="cls-52" d="M26.689,138.41s.714,2.958-.918,4.9c-1.632,2.04-3.773.918-5.1.408a7.756,7.756,0,0,0-3.671.1s.714,4.691,1.938,5.609c1.224.816,4.9-1.02,6.731-2.346s3.06-4.793,2.346-7.649C27.3,136.677,26.689,138.41,26.689,138.41Z" transform="translate(0.337 -126.249)"/>
            <path id="Path_33205" data-name="Path 33205" class="cls-14" d="M17.4,145.41l2.142-.51c.306-.1.51.1.612.408s-.1.51-.408.612l-2.142.51h0a3.623,3.623,0,0,1-.2-1.02Z" transform="translate(0.344 -126.11)"/>
            <path id="XMLID_3_" class="cls-14" d="M27.9,136.505c-.408.306-.2,4.793.306,4.793,1.326.1,1.836-2.04,2.04-3.467C30.454,136.1,28.618,136,27.9,136.505Z" transform="translate(0.55 -126.281)"/>
          </g>
        </g>
        <g id="Group_8833" data-name="Group 8833" transform="translate(33.221 67.019)">
          <path id="Path_33206" data-name="Path 33206" class="cls-55" d="M32.6,193.424c0,.714.306,1.224.612,1.224s.51-.612.51-1.224c0-.714-.306-1.224-.612-1.224C32.7,192.1,32.5,192.71,32.6,193.424Z" transform="translate(-32.575 -192.189)"/>
        </g>
        <path id="Path_33207" data-name="Path 33207" class="cls-56" d="M15.442,156.4a16.627,16.627,0,0,0-.816,5,13.273,13.273,0,0,1-1.224.612l-.1-.1A24.191,24.191,0,0,1,15.442,156.4Z" transform="translate(0.264 -125.881)"/>
      </g>
      <g id="Group_8843" data-name="Group 8843" transform="translate(99.879 8.358)">
        <g id="Group_8839" data-name="Group 8839">
          <path id="Path_33208" data-name="Path 33208" class="cls-57" d="M122.133,8.812c-5-.612-6.833,5-6.833,8.771a21.66,21.66,0,0,0,.2,3.06c.51,3.569,2.448,5.609,3.671,6.221,0,0,1.122,4.181,3.671,5.1s7.649.2,7.955-6.119c3.06-2.04,4.9-8.873,1.938-13.462C129.578,7.486,124.989,7.792,122.133,8.812Z" transform="translate(-97.591 -8.196)"/>
          <g id="Group_8835" data-name="Group 8835" transform="translate(9.755 16.016)">
            <path id="Path_33209" data-name="Path 33209" class="cls-58" d="M129.081,24.716l.612,3.162L125.1,34.506l-5.3-6.629,1.02-3.977Z" transform="translate(-107.256 -23.9)"/>
            <path id="Path_33210" data-name="Path 33210" class="cls-59" d="M138.775,53.289c-.816.918-3.977,1.326-3.875-1.428.1-2.04.1-6.527.408-8.261,1.734-.1,3.569,2.04,4.589,3.365C139.8,48.9,139.693,52.371,138.775,53.289Z" transform="translate(-106.956 -23.509)"/>
            <path id="Path_33211" data-name="Path 33211" class="cls-58" d="M107.7,51.567c.2,1.224,4.589,1.938,4.487-.816-.1-2.04,1.02-5.915.612-7.649-1.734-.1-4.079-.408-5,.918C107.906,45.958,107.4,49.833,107.7,51.567Z" transform="translate(-107.498 -23.521)"/>
            <path id="Path_33212" data-name="Path 33212" class="cls-15" d="M140.645,47.413c.2-2.04-.2-6.119-.1-8.771.306-6.731-.714-9.689-4.487-10.5a25.171,25.171,0,0,1-6.425-1.938l-4.691,6.119L120.35,26.2a28.175,28.175,0,0,1-6.629,2.04c-3.264.612-5.711,6.935-6.221,18.969l5.405.306c.408-3.06,1.53-6.425,1.938-8.669.2.408.1,1.53.612,3.671a4.808,4.808,0,0,0,3.773,3.671l4.181.714.306-1.734,8.261.612a2.574,2.574,0,0,0,2.754-2.142c.612-3.162.408-4.9.816-5,.2,3.162-.612,5-.2,9.179A8.184,8.184,0,0,0,140.645,47.413Z" transform="translate(-107.5 -23.854)"/>
          </g>
          <path id="Path_33213" data-name="Path 33213" class="cls-60" d="M135.937,28.016a22.951,22.951,0,0,0-2.448-.816c1.122,10.2-5.1,12.748-5.1,12.748H118.4c-1.224.51-.816-13.054-2.244-12.748a16.465,16.465,0,0,0-2.652.918s.918,11.524,1.326,12.85h20.295C135.631,38.928,135.937,28.016,135.937,28.016Z" transform="translate(-97.626 -7.819)"/>
          <path id="Path_33214" data-name="Path 33214" class="cls-60" d="M118.956,28.64c-.1-.408-.1-.714-.2-1.122,0-.306-.1-.612-.1-.816v-.1c-.816.2-1.632.408-2.55.612.408,3.162,1.224,10.3,1.224,10.5,0,.306,7.547,3.671,7.547,3.671l4.283-.816,4.283-13.36c-.816-.2-1.734-.408-2.55-.612v.1c0,.2-.1.408-.1.612C130.174,31.5,128.848,37,124.667,37c-3.671.1-5-4.283-5.711-8.363" transform="translate(-97.575 -7.83)"/>
          <path id="Path_33215" data-name="Path 33215" class="cls-61" d="M135.519,55.1c-.612.1-6.119,2.754-10.708,2.754a21.822,21.822,0,0,1-9.689-2.754A18.945,18.945,0,0,0,114,57.038v.1l8.873,11.524a15.42,15.42,0,0,0,4.9-.1l8.873-11.32v-.1C136.539,57.242,136.029,56.018,135.519,55.1Z" transform="translate(-97.616 -7.265)"/>
          <path id="Path_33216" data-name="Path 33216" class="cls-61" d="M147.695,50.205c-2.448.816-14.176,4.385-16.216,7.037-3.264,4.385-3.467,8.975-4.079,11.524,1.836.816,7.037,0,8.873-.918,3.671-1.836,14.89-11.422,16.012-13.87A3.345,3.345,0,0,0,147.695,50.205Z" transform="translate(-97.35 -7.367)"/>
          <path id="Path_33217" data-name="Path 33217" class="cls-61" d="M102.691,50.205c-3.875-1.326-5.1,2.856-4.589,3.875,1.122,2.346,12.34,12.034,16.012,13.87,1.836.918,7.037,1.734,8.873.918-.306-2.346-1.224-8.465-4.079-11.524C116.561,54.794,105.037,51.021,102.691,50.205Z" transform="translate(-97.934 -7.367)"/>
          <path id="Path_33218" data-name="Path 33218" class="cls-62" d="M135.608,66.494a45.653,45.653,0,0,1-8.159-1.122C123.88,63.231,103.075,51.6,103.075,51.6c-3.773-1.02-4.487,1.734-3.366,3.773,2.958,5.2,5.2,6.629,13.564,7.853,3.06.408,8.975,3.264,12.238,4.487.2.714.918,1.53,2.754,1.734.918.1,4.487,1.734,6.935,1.632a3.931,3.931,0,0,0,2.754-2.754C137.852,67.412,138.668,66.6,135.608,66.494Z" transform="translate(-97.91 -7.338)"/>
          <path id="Path_33219" data-name="Path 33219" class="cls-5" d="M135.1,66.2c-1.02,4.793-6.629,2.244-10.2,1.122.2.714.918,1.53,2.754,1.734.918.1,4.487,1.734,6.935,1.632a3.931,3.931,0,0,0,2.754-2.754C137.342,67.118,138.158,66.3,135.1,66.2Z" transform="translate(-97.4 -7.044)"/>
          <path id="Path_33220" data-name="Path 33220" class="cls-26" d="M129.791,65.644h-.1a.375.375,0,0,1-.306-.1h-.1a.375.375,0,0,1-.306-.1h-.1a.375.375,0,0,1-.306-.1h-.1a.375.375,0,0,1-.306-.1h-.612a.375.375,0,0,1-.306-.1c-.612-.306-1.53-.918-2.856-1.734-.918.51-1.836,1.02-2.04,1.122-.306.1-1.122.408-2.346.714,1.938.816,3.875,1.632,5.2,2.142a.316.316,0,0,0,.1.2h0a.1.1,0,0,0,.1.1h0l.1.1h0c0,.1.1.1.1.2,1.224-.51,3.06-1.428,4.9-2.346h-.714Z" transform="translate(-97.497 -7.1)"/>
          <path id="Path_33221" data-name="Path 33221" class="cls-63" d="M98.307,55.206c2.856,5.813,7.139,7.955,13.87,9.995,12.238,3.875,10.606,1.53,11.932,1.632a5.173,5.173,0,0,1,.918.2,7.394,7.394,0,0,0,1.53-2.55C119.928,60.713,102.081,49.9,102.081,49.9,98.307,48.985,97.287,53.166,98.307,55.206Z" transform="translate(-97.935 -7.37)"/>
          <path id="Path_33222" data-name="Path 33222" class="cls-64" d="M124.007,66.9a5.173,5.173,0,0,1,.918.2c.2-.2.306-.408.51-.612C114.625,63.23,103.406,55.275,98.409,51.4a4.457,4.457,0,0,0-.1,3.773c2.856,5.813,7.139,7.955,13.87,9.995C124.415,69.043,122.682,66.8,124.007,66.9Z" transform="translate(-97.935 -7.338)"/>
          <path id="Path_33223" data-name="Path 33223" class="cls-65" d="M123.5,66.654a5.173,5.173,0,0,1,.918.2,7.394,7.394,0,0,0,1.53-2.55,5.849,5.849,0,0,1-.714-.408A10.312,10.312,0,0,1,123.5,66.654Z" transform="translate(-97.428 -7.09)"/>
          <path id="Path_33224" data-name="Path 33224" class="cls-26" d="M122.229,64.52a36.453,36.453,0,0,1-6.629,1.632c1.326.408,2.448.612,3.366.816,1.224.1,2.55.1,3.569.2.612-.2.612-.51,1.122-.408a5.173,5.173,0,0,1,.918.2,7.394,7.394,0,0,0,1.53-2.55c-.51-.306-1.02-.612-1.632-.918A17.555,17.555,0,0,0,122.229,64.52Z" transform="translate(-97.585 -7.098)"/>
          <path id="Path_33225" data-name="Path 33225" class="cls-59" d="M147.987,51s-22.743,13.36-25.6,14.686a31.079,31.079,0,0,1-7.343.816c-3.06,0-2.244.918-2.244,1.734a3.931,3.931,0,0,0,2.754,2.754c2.448.2,6.017-1.53,6.935-1.632,1.938-.2,2.652-1.224,2.754-1.938,2.958-1.224,9.485-3.875,12.136-4.181,8.363-1.224,11.32-3.264,14.278-8.465C152.882,52.738,151.76,49.984,147.987,51Z" transform="translate(-97.642 -7.35)"/>
          <path id="Path_33226" data-name="Path 33226" class="cls-5" d="M115.046,66.2c-3.06,0-2.244.918-2.244,1.734a3.931,3.931,0,0,0,2.754,2.754c2.448.2,6.017-1.53,6.935-1.632,1.938-.2,2.652-1.224,2.754-1.938C121.777,68.138,115.352,71.5,115.046,66.2Z" transform="translate(-97.642 -7.044)"/>
          <path id="Path_33227" data-name="Path 33227" class="cls-63" d="M148.776,49.9S130.929,60.713,124.3,64.486a25.428,25.428,0,0,0,2.244,4.385c.408-.1,4.385-1.122,12.136-3.569,6.629-2.04,10.912-4.181,13.87-9.995C153.57,53.166,152.55,48.985,148.776,49.9Z" transform="translate(-97.412 -7.37)"/>
          <path id="Path_33228" data-name="Path 33228" class="cls-64" d="M125.3,66.6a7.8,7.8,0,0,0,1.326,2.142c.408-.1,4.385-1.122,12.136-3.569,6.629-2.04,10.912-4.181,13.87-9.995A4.147,4.147,0,0,0,152.224,51C146.1,58.343,130.705,64.564,125.3,66.6Z" transform="translate(-97.392 -7.346)"/>
          <path id="Path_33229" data-name="Path 33229" class="cls-37" d="M134.4,45.055a3.6,3.6,0,0,0,1.53-2.244,6.615,6.615,0,0,0-.714-4.487c-.1-3.773-.408-10.81-.408-10.81a29.206,29.206,0,0,0-2.856-.714c-.306,2.04-1.122,11.218-7.139,11.218s-6.629-9.179-6.935-11.218c-.918.2-1.836.408-2.856.714,0,0-.408,8.975-.51,11.524a6.7,6.7,0,0,0-.408,3.773,3.732,3.732,0,0,0,1.632,2.244c0,.1.1.306.1.408.2.816.51,6.731-1.02,9.893,7.343,4.385,11.932,4.691,20.4-.1-1.02-1.836-1.122-8.873-1.02-9.485C134.3,45.667,134.3,45.361,134.4,45.055Z" transform="translate(-97.617 -7.826)"/>
          <path id="Path_33230" data-name="Path 33230" class="cls-26" d="M121.3,20.6s-.1,1.53-.2,3.162c1.122.816,2.448,1.734,3.467,1.734,1.122,0,2.652-1.02,3.773-1.836a18.015,18.015,0,0,1-.306-2.142C127.831,19.687,121.3,20.6,121.3,20.6Z" transform="translate(-97.475 -7.954)"/>
          <path id="Path_33231" data-name="Path 33231" class="cls-59" d="M131.024,19.3,129.8,23.583a3.387,3.387,0,0,0,1.326-.714c.306-.306.408-2.142.408-3.06A.655.655,0,0,0,131.024,19.3Z" transform="translate(-97.303 -7.975)"/>
          <path id="Path_33232" data-name="Path 33232" class="cls-26" d="M130.612,20c-.306,0-.612.408-.612,1.122-.1.612.1,1.224.408,1.224s.612-.408.612-1.122C131.02,20.612,130.918,20.1,130.612,20Z" transform="translate(-97.299 -7.961)"/>
          <path id="Path_33233" data-name="Path 33233" class="cls-59" d="M117.5,19.81c0,.918.1,2.856.408,3.06a4.25,4.25,0,0,0,1.326.714L118.01,19.3C117.7,19.3,117.4,19.606,117.5,19.81Z" transform="translate(-97.547 -7.975)"/>
          <path id="Path_33234" data-name="Path 33234" class="cls-26" d="M118.208,20c-.306,0-.408.612-.408,1.224.1.612.408,1.122.612,1.122.306,0,.408-.612.408-1.224C118.718,20.51,118.412,20,118.208,20Z" transform="translate(-97.541 -7.961)"/>
          <path id="Path_33235" data-name="Path 33235" class="cls-12" d="M130.606,22.6a.306.306,0,1,0,.306.306A.326.326,0,0,0,130.606,22.6Z" transform="translate(-97.293 -7.91)"/>
          <path id="Path_33236" data-name="Path 33236" class="cls-12" d="M118.306,22.6a.306.306,0,1,0,.306.306A.326.326,0,0,0,118.306,22.6Z" transform="translate(-97.537 -7.91)"/>
          <path id="Path_33237" data-name="Path 33237" class="cls-65" d="M129.87,27.3s.408.816-.612,2.856c-.408.918-1.326,2.244-1.836,2.244a12.141,12.141,0,0,0-.918-1.53C125.28,28.932,129.87,27.3,129.87,27.3Z" transform="translate(-97.372 -7.816)"/>
          <g id="Group_8836" data-name="Group 8836" transform="translate(27.194 17.775)">
            <path id="Path_33238" data-name="Path 33238" class="cls-65" d="M124.6,33.205l1.734-3.875s3.06-2.346,2.652-1.224C128.781,28.412,126.028,33.409,124.6,33.205Z" transform="translate(-124.6 -25.582)"/>
            <path id="Path_33239" data-name="Path 33239" class="cls-12" d="M129.36,25.7c0-.1.2-.1.2,0l.306,1.632s.51,1.836-2.142,4.9a8.151,8.151,0,0,0-1.428-2.754A12.24,12.24,0,0,0,129.36,25.7Z" transform="translate(-124.566 -25.625)"/>
          </g>
          <path id="Path_33240" data-name="Path 33240" class="cls-65" d="M119.3,27.3s-.408.816.612,2.856c.408.918,1.326,2.448,1.836,2.448a14.243,14.243,0,0,1,.918-1.734C123.891,28.932,119.3,27.3,119.3,27.3Z" transform="translate(-97.513 -7.816)"/>
          <g id="Group_8837" data-name="Group 8837" transform="translate(21.88 17.683)">
            <path id="Path_33241" data-name="Path 33241" class="cls-65" d="M124.686,33.205l-1.734-3.875s-3.06-2.346-2.652-1.224C120.4,28.412,123.156,33.409,124.686,33.205Z" transform="translate(-119.372 -25.489)"/>
            <path id="Path_33242" data-name="Path 33242" class="cls-12" d="M120.114,25.6l-.714,1.734s-.306,1.836,2.346,4.9a9.058,9.058,0,0,1,1.326-2.754A12.768,12.768,0,0,1,120.42,25.7C120.318,25.5,120.114,25.5,120.114,25.6Z" transform="translate(-119.389 -25.534)"/>
          </g>
          <g id="Group_8838" data-name="Group 8838" transform="translate(20.545 7.245)">
            <path id="Path_33243" data-name="Path 33243" class="cls-59" d="M129.523,19.379c-1.326-.612-1.836-2.652-4.487-2.244-1.53.306-2.346-.918-3.671-1.836-1.938.918-1.53,2.754-2.55,3.671a1.845,1.845,0,0,0-.714,1.734,21.907,21.907,0,0,0,.714,3.569,4.232,4.232,0,0,0,1.224,2.04c1.122,1.02,3.162,2.652,4.589,2.652,1.326,0,3.162-1.326,4.283-2.244a5.067,5.067,0,0,0,1.326-1.938c.2-.918.51-1.734.714-2.958A2.565,2.565,0,0,0,129.523,19.379Z" transform="translate(-118.081 -15.3)"/>
          </g>
        </g>
        <path id="Path_33244" data-name="Path 33244" class="cls-59" d="M129.48,49.816c2.55.816,8.465-.2,9.587,1.02.918.918.306,3.875-3.773,3.875a23.9,23.9,0,0,1-7.853-2.04C124.177,51.142,124.687,47.267,129.48,49.816Z" transform="translate(-97.391 -7.386)"/>
        <path id="Path_33245" data-name="Path 33245" class="cls-58" d="M119.735,45.921c-2.55.816-10.5,2.754-11.524,3.875-.918.918-1.122,4.181,3.06,3.365s6.833-3.977,10.1-5.405C124.63,46.227,124.528,43.269,119.735,45.921Z" transform="translate(-97.742 -7.468)"/>
        <path id="Path_33246" data-name="Path 33246" class="cls-58" d="M118.1,46.907c1.224-.714,1.938-2.754,2.55-3.467a10.95,10.95,0,0,1,4.079-2.04c.51,0,2.958,2.04,2.958,2.04l-.918,3.977-2.652-3.06C124.018,44.358,116.879,47.621,118.1,46.907Z" transform="translate(-97.538 -7.537)"/>
        <g id="Group_8842" data-name="Group 8842" transform="translate(22.299 34.169)">
          <g id="Group_8840" data-name="Group 8840" transform="translate(2.142)">
            <path id="Path_33247" data-name="Path 33247" class="cls-12" d="M122.818,41.7H126.9a1.022,1.022,0,0,1,1.02,1.02v7.649a1.022,1.022,0,0,1-1.02,1.02h-4.283c-.51,0-.714-.408-.714-1.02V42.72A.942.942,0,0,1,122.818,41.7Z" transform="translate(-121.9 -41.7)"/>
          </g>
          <g id="Group_8841" data-name="Group 8841" transform="translate(2.142 0.51)">
            <path id="Path_33248" data-name="Path 33248" class="cls-5" d="M122.818,42.2H126.9a1.022,1.022,0,0,1,1.02,1.02v7.343a1.022,1.022,0,0,1-1.02,1.02h-4.283c-.51,0-.714-.408-.714-1.02V43.118A.914.914,0,0,1,122.818,42.2Z" transform="translate(-121.9 -42.2)"/>
          </g>
          <path id="Path_33249" data-name="Path 33249" class="cls-12" d="M122.908,42.9c.2,0,.408.1.408.2s-.2.2-.408.2-.408-.1-.408-.2S122.7,42.9,122.908,42.9Z" transform="translate(-119.746 -41.676)"/>
          <path id="Path_33250" data-name="Path 33250" class="cls-59" d="M120.208,44.4a2.437,2.437,0,0,1,.918.306c1.122.51,4.9,2.652,5.813,2.652,1.02-.1.612-1.326.612-1.326-.1-.714.1-1.734.714-1.734.306,0,.2.816.306,1.734l.714,2.55L130,51.235s-.918,1.938-2.448,1.53a40.3,40.3,0,0,1-5.3-1.326c-.714-.306-1.02-1.122-.918-1.326a.65.65,0,0,0,0-.612,1.117,1.117,0,0,1,0-.816.455.455,0,0,0,0-.51c-.306-.51-.1-1.122.51-1.02.816.306,1.326.816,1.122.1-.714-.51-3.06-1.734-3.162-2.142C119.8,44.708,119.8,44.5,120.208,44.4Z" transform="translate(-119.8 -41.648)"/>
        </g>
      </g>
      <g id="Group_8851" data-name="Group 8851" transform="translate(93.939 108.406)">
        <g id="Group_8850" data-name="Group 8850">
          <path id="Path_33251" data-name="Path 33251" class="cls-48" d="M126.713,149.3,116,151.238,104.991,149.4a33.4,33.4,0,0,0-8.669,2.346l-1.122.51,5.3,10.2s9.587-3.671,15.5-3.671,15.5,3.671,15.5,3.671l3.977-10.81h0A32.589,32.589,0,0,0,126.713,149.3Z" transform="translate(-92.049 -105.443)"/>
          <path id="Path_33252" data-name="Path 33252" class="cls-10" d="M121.014,150.728l-5.2.51-4.9-.51c-2.652-.2-3.467-1.428-6.017-1.428,3.264,2.856,6.629,3.875,9.281,6.527a2.4,2.4,0,0,0,3.366,0c2.754-2.856,4.385-2.652,8.975-6.527C124.277,149.3,123.257,150.524,121.014,150.728Z" transform="translate(-91.857 -105.443)"/>
          <g id="Group_8847" data-name="Group 8847" transform="translate(6.755 11.018)">
            <path id="Path_33253" data-name="Path 33253" class="cls-66" d="M116.016,153.685A17.44,17.44,0,0,1,104.9,149.4a25.169,25.169,0,0,0,11.116,2.448,20.37,20.37,0,0,0,10.5-2.55A14.822,14.822,0,0,1,116.016,153.685Z" transform="translate(-98.612 -116.461)"/>
            <path id="Path_33254" data-name="Path 33254" class="cls-67" d="M115.842,151.8a15.789,15.789,0,0,0,2.244-.1v1.836a.439.439,0,0,1-.408.408h-3.569a.439.439,0,0,1-.408-.408V151.7A14.362,14.362,0,0,0,115.842,151.8Z" transform="translate(-98.437 -116.413)"/>
            <path id="Path_33255" data-name="Path 33255" class="cls-68" d="M114.106,151.7v1.326a.326.326,0,0,0,.306.306h2.958a.326.326,0,0,0,.306-.306V151.7h.51v1.836a.439.439,0,0,1-.408.408h-3.569a.439.439,0,0,1-.408-.408V151.7Z" transform="translate(-98.435 -116.413)"/>
            <path id="Path_33256" data-name="Path 33256" class="cls-69" d="M133.64,149.164c-2.958,1.02-5.3-1.734-5.3-1.734s-2.346-7.955-1.836-9.995c2.04-.1,6.221-.2,7.139-1.836C134.966,142.127,133.64,145.7,133.64,149.164Z" transform="translate(-98.185 -116.733)"/>
            <path id="Path_33257" data-name="Path 33257" class="cls-26" d="M132.091,148.9c-1.632-.612-3.773-1.632-3.773-1.632a20.519,20.519,0,0,1-.918-3.569C130.256,144.618,133.519,148.085,132.091,148.9Z" transform="translate(-98.165 -116.572)"/>
            <path id="Path_33258" data-name="Path 33258" class="cls-5" d="M98.8,136.579c-.1-1.428-.1-6.527.1-9.077.306-3.671,7.649-10.4,17.235-10.4,8.261,0,16.827,4.793,17.439,9.791.306,2.55.612,7.547.714,9.077-1.428,2.04-5.3,2.652-6.935,2.55-.51.714-1.122,8.771-.714,11.422a17.63,17.63,0,0,1-10.708,3.264c-6.425,0-7.547-1.02-10.912-3.162.612-2.55.306-10.81,0-11.524C104.614,139.027,99.107,140.557,98.8,136.579Z" transform="translate(-98.734 -117.1)"/>
            <path id="Path_33259" data-name="Path 33259" class="cls-26" d="M122.078,144.579l-.816-1.632c-.1-.306.1-.816-.306-.816a1.123,1.123,0,0,0-1.02.408v-1.428c0-.306-.51-.612-1.122-.612h-4.589c-.612,0-1.122.306-1.122.612v1.428s-.51,3.264.306,4.079c.918.306,3.467.306,3.569.612a70.8,70.8,0,0,0,6.119,4.079,12.672,12.672,0,0,0,3.162-1.836,16.655,16.655,0,0,1-.1-2.55l-1.326-.816C123.3,145.191,122.078,144.579,122.078,144.579Z" transform="translate(-98.452 -116.636)"/>
            <path id="Path_33260" data-name="Path 33260" class="cls-69" d="M119.586,145.12c2.856.918,6.935-.816,10.1.1,3.671,1.02,2.754,1.632,3.977,2.958,1.02,1.122-.1,3.569-4.691,3.467s-7.547-1.938-11.218-3.569C113.977,146.344,114.079,142.162,119.586,145.12Z" transform="translate(-98.409 -116.564)"/>
            <path id="Path_33261" data-name="Path 33261" class="cls-70" d="M100.736,150.58c3.162.51,5.3-2.856,5.3-2.856s-.714-7.853-1.02-9.587c-2.04.2-5-.51-6.119-1.938C98.8,142.829,100.124,147.214,100.736,150.58Z" transform="translate(-98.731 -116.721)"/>
            <path id="Path_33262" data-name="Path 33262" class="cls-26" d="M101.7,147.929c-.2.918.51,1.632,2.244,1.428h0c.1-.1.306-.2.408-.306h0c.1-.1.306-.2.408-.306h0l.306-.306h0l.816-.816h0s-.306-3.467-.612-6.323C103.638,142.728,102.007,146.4,101.7,147.929Z" transform="translate(-98.676 -116.62)"/>
            <path id="Path_33263" data-name="Path 33263" class="cls-70" d="M111.717,140.061c-1.938,2.346-6.119,2.142-8.363,4.589-2.55,2.856-2.448,3.773-2.754,5.507-.306,1.428,2.244,2.55,6.119-.1,3.875-2.55,6.017-6.119,8.261-9.587C117.224,137.205,114.776,134.656,111.717,140.061Z" transform="translate(-98.698 -116.707)"/>
            <path id="Path_33264" data-name="Path 33264" class="cls-70" d="M110.005,142.223c1.224-1.734,1.734-3.875,2.55-4.793.612-.714,3.162-1.428,4.181-1.53a1.183,1.183,0,0,1,1.02.408l2.346,2.652-7.751,4.793C112.249,143.753,108.781,143.957,110.005,142.223Z" transform="translate(-98.516 -116.727)"/>
            <g id="Group_8846" data-name="Group 8846" transform="translate(12.982 19.989)">
              <g id="Group_8844" data-name="Group 8844" transform="translate(2.382)">
                <path id="Path_33265" data-name="Path 33265" class="cls-71" d="M114.922,136.7h4.589a1.038,1.038,0,0,1,1.122.918v7.343a1.038,1.038,0,0,1-1.122.918h-4.9c-.612,0-.816-.408-.816-.918v-7.343A1.038,1.038,0,0,1,114.922,136.7Z" transform="translate(-113.8 -136.7)"/>
              </g>
              <g id="Group_8845" data-name="Group 8845" transform="translate(2.382 0.918)">
                <path id="Path_33266" data-name="Path 33266" class="cls-12" d="M114.922,137.6h4.589a1.038,1.038,0,0,1,1.122.918v6.629a1.038,1.038,0,0,1-1.122.918h-4.9c-.612,0-.816-.408-.816-.918V138.62A1.048,1.048,0,0,1,114.922,137.6Z" transform="translate(-113.8 -137.6)"/>
              </g>
              <path id="Path_33267" data-name="Path 33267" class="cls-72" d="M115.108,138.1c.2,0,.408.1.408.306a.455.455,0,0,1-.408.306c-.2,0-.408-.1-.408-.306A.455.455,0,0,1,115.108,138.1Z" transform="translate(-111.4 -136.672)"/>
              <path id="Path_33268" data-name="Path 33268" class="cls-69" d="M111.909,139.1c.306-.1.612.1.918.2,1.326.612,5.915,3.162,6.935,3.06,1.122-.1.612-1.53.612-1.53a2.017,2.017,0,0,1,.2-1.122c.306-.816.714-.918,1.02-.816.408,0,.2.918.306,1.53l.816,2.958-1.326,4.079-3.671.714c-.1-.306-2.142-.612-3.467-1.224-.816-.408-1.224-1.326-1.02-1.53a.862.862,0,0,0,0-.714.761.761,0,0,1,0-.918.65.65,0,0,0,0-.612c-.306-.51-.1-1.326.612-1.122.918.306,1.53.918,1.326.1a25.306,25.306,0,0,1-3.671-2.448C111.4,139.411,111.5,139.207,111.909,139.1Z" transform="translate(-111.464 -136.657)"/>
            </g>
          </g>
          <path id="Path_33269" data-name="Path 33269" class="cls-69" d="M122.578,123.681H109.83a1.5,1.5,0,0,1-1.53-1.53v-1.53c0-.918.306-1.122,1.224-1.122H123.5a.7.7,0,0,1,.714.714v1.836A1.673,1.673,0,0,1,122.578,123.681Z" transform="translate(-91.789 -106.034)"/>
          <path id="Path_33270" data-name="Path 33270" class="cls-69" d="M121.23,127.316l-2.958,2.142a4.551,4.551,0,0,1-4.283,0l-2.754-2.142a2.418,2.418,0,0,1-.918-1.53L109.5,121.4c-.612-4.079,2.55-10.3,6.731-10.3h-.1c4.079,0,7.343,6.119,6.833,10.1l-.714,4.385A2.31,2.31,0,0,1,121.23,127.316Z" transform="translate(-91.767 -106.201)"/>
          <path id="Path_33271" data-name="Path 33271" class="cls-73" d="M112.8,117.356s3.06,2.346,9.791,2.55c1.122-.816-1.122-5.405-1.122-5.405Z" transform="translate(-91.7 -106.134)"/>
          <path id="Path_33272" data-name="Path 33272" class="cls-74" d="M122.992,110.685a6.922,6.922,0,0,0-6.731-4.385h-.1c-2.244,0-4.181-.1-6.629,2.652-2.754,3.162-1.02,9.485-1.02,9.485l.918,3.875a.153.153,0,0,0,.306,0,12.15,12.15,0,0,0,.1-2.55s2.244-1.632,2.958-2.244a30.205,30.205,0,0,0,7.955,1.326h1.224s.2,1.428.408,3.366c0,.2.408.2.408,0l.816-3.773a4.534,4.534,0,0,0,2.652-5S123.706,112.725,122.992,110.685Z" transform="translate(-91.796 -106.296)"/>
          <g id="Group_8848" data-name="Group 8848" transform="translate(31.54 45.978)">
            <path id="Path_33273" data-name="Path 33273" class="cls-5" d="M124.223,179.1l-1.122,4.283a1.45,1.45,0,0,0,.612,1.632l4.691,3.569a15.938,15.938,0,0,0,5.915,2.856h0a2.611,2.611,0,0,0,2.448-.612h0a2.063,2.063,0,0,0,.1-2.856l-5.609-5.813Z" transform="translate(-123.037 -150.829)"/>
            <path id="Path_33274" data-name="Path 33274" class="cls-71" d="M134.626,190.237h0a17.685,17.685,0,0,1-5.915-2.856L123.2,183.2l-.1.2a1.45,1.45,0,0,0,.612,1.632l4.691,3.569a15.938,15.938,0,0,0,5.915,2.856h0a2.611,2.611,0,0,0,2.448-.612,1.6,1.6,0,0,0,.612-1.53C137.277,189.319,136.971,190.645,134.626,190.237Z" transform="translate(-123.037 -150.748)"/>
            <path id="Path_33275" data-name="Path 33275" class="cls-48" d="M134.922,151.5a3.516,3.516,0,0,0-4.283,2.448l-.918,3.467L123.5,180.772l2.244,2.244,6.935.2,6.221-23.355.306-1.02a5.924,5.924,0,0,0-4.283-7.343Z" transform="translate(-123.028 -151.379)"/>
            <path id="Path_33276" data-name="Path 33276" class="cls-10" d="M129.721,157.3,123.5,180.655l2.244,2.244Z" transform="translate(-123.028 -151.262)"/>
          </g>
          <g id="Group_8849" data-name="Group 8849" transform="translate(0 46.08)">
            <path id="Path_33277" data-name="Path 33277" class="cls-5" d="M107.156,179.3l1.122,4.283a1.45,1.45,0,0,1-.612,1.632l-4.691,3.467a15.938,15.938,0,0,1-5.915,2.856h0a2.611,2.611,0,0,1-2.448-.612h0a2.063,2.063,0,0,1-.1-2.856l5.609-5.711Z" transform="translate(-92.074 -150.927)"/>
            <path id="Path_33278" data-name="Path 33278" class="cls-71" d="M96.856,190.337h0a17.686,17.686,0,0,0,5.915-2.856l5.507-4.181v.2a1.45,1.45,0,0,1-.612,1.632l-4.691,3.467a15.938,15.938,0,0,1-5.915,2.856h0a2.611,2.611,0,0,1-2.448-.612,1.863,1.863,0,0,1-.612-1.53C94.1,189.521,94.51,190.745,96.856,190.337Z" transform="translate(-92.074 -150.848)"/>
            <path id="Path_33279" data-name="Path 33279" class="cls-48" d="M96.587,151.6a3.516,3.516,0,0,1,4.283,2.448l.918,3.467,6.221,23.355-2.244,2.244-6.935.2L92.61,159.965l-.306-1.02a6,6,0,0,1,4.283-7.343Z" transform="translate(-92.111 -151.479)"/>
            <path id="Path_33280" data-name="Path 33280" class="cls-10" d="M101.6,157.4l6.221,23.355-2.346,2.346Z" transform="translate(-91.922 -151.362)"/>
          </g>
        </g>
      </g>
    </g>
  </g>
</svg>
