<svg xmlns="http://www.w3.org/2000/svg" viewBox="0 0 354 432">
  <defs>
    <style>
      .cls-1 {
        fill: none;
      }

      .cls-2 {
        fill: #c4c4c4;
        opacity: 0.5;
      }

      .cls-3 {
        fill: #abc972;
      }

      .cls-4 {
        fill: #fff;
      }

      .cls-5 {
        fill: #d81d5b;
      }

      .cls-6, .cls-8 {
        fill: #333;
      }

      .cls-6 {
        opacity: 0.3;
      }

      .cls-7 {
        fill: #fc694b;
      }
    </style>
  </defs>
  <g id="Group_34638" data-name="Group 34638" transform="translate(-5607 -4728)">
    <rect id="Rectangle_1208" data-name="Rectangle 1208" class="cls-1" width="354" height="432" transform="translate(5607 4728)"/>
    <g id="Group_34629" data-name="Group 34629" transform="translate(5696 4833)">
      <path id="Path_33281" data-name="Path 33281" class="cls-2" d="M175.8,246.2H0q18.15-61.8,36.3-123.7H139.5Q157.65,184.3,175.8,246.2Z"/>
      <path id="Path_33282" data-name="Path 33282" class="cls-3" d="M175.8,240.1H0c4.1-14,8.2-28.1,12.3-42.1,1.4-4.8,2.8-9.7,4.3-14.5,6.5-22.4,13.1-44.7,19.7-67.1H139.5c5.1,17.3,10.1,34.6,15.2,51.8l3.8,13c4.3,14.7,8.6,29.3,12.9,44,1.3,4.4,2.6,8.9,3.9,13.3A9.831,9.831,0,0,0,175.8,240.1Z"/>
      <ellipse id="Ellipse_69" data-name="Ellipse 69" class="cls-2" cx="52.2" cy="9.1" rx="52.2" ry="9.1" transform="translate(35.7 158.8)"/>
      <circle id="Ellipse_70" data-name="Ellipse 70" class="cls-2" cx="82.5" cy="82.5" r="82.5" transform="translate(4.8)"/>
      <circle id="Ellipse_71" data-name="Ellipse 71" class="cls-4" cx="82.5" cy="82.5" r="82.5" transform="translate(4.8 4.5)"/>
      <circle id="Ellipse_72" data-name="Ellipse 72" class="cls-5" cx="71.6" cy="71.6" r="71.6" transform="translate(15.7 15.4)"/>
      <circle id="Ellipse_73" data-name="Ellipse 73" class="cls-4" cx="60.6" cy="60.6" r="60.6" transform="translate(26.7 26.4)"/>
      <circle id="Ellipse_74" data-name="Ellipse 74" class="cls-5" cx="49.7" cy="49.7" r="49.7" transform="translate(37.6 37.3)"/>
      <circle id="Ellipse_75" data-name="Ellipse 75" class="cls-4" cx="38.8" cy="38.8" r="38.8" transform="translate(48.5 48.2)"/>
      <path id="Path_33283" data-name="Path 33283" class="cls-6" d="M97.4,110.9c0,1.1-4.7,2-10.5,2s-10.5-.9-10.5-2,4.7-2,10.5-2S97.4,109.8,97.4,110.9Z"/>
      <path id="Path_33284" data-name="Path 33284" class="cls-5" d="M103.9,80.7c0,9.5-17.3,29.4-17.3,29.4S69.4,90.2,69.4,80.7a17.25,17.25,0,1,1,34.5,0Z"/>
      <circle id="Ellipse_76" data-name="Ellipse 76" class="cls-4" cx="8.5" cy="8.5" r="8.5" transform="translate(78.2 71.1)"/>
      <circle id="Ellipse_77" data-name="Ellipse 77" class="cls-7" cx="2.4" cy="2.4" r="2.4" transform="translate(84.3 77.2)"/>
      <g id="Group_8859" data-name="Group 8859">
        <g id="Group_8853" data-name="Group 8853">
          <rect id="Rectangle_74" data-name="Rectangle 74" class="cls-8" width="75.4" height="1.2" transform="translate(91.904 73.906) rotate(-45)"/>
        </g>
        <g id="Group_8855" data-name="Group 8855">
          <g id="Group_8854" data-name="Group 8854">
            <path id="Path_33285" data-name="Path 33285" class="cls-8" d="M86.3,80.4l12-5-5.5-1.5-1.5-5.5Z"/>
          </g>
        </g>
        <g id="Group_8858" data-name="Group 8858">
          <g id="Group_8856" data-name="Group 8856">
            <path id="Path_33286" data-name="Path 33286" class="cls-8" d="M150.8,22h-5.3l7.5-7.4,5.2-.1Z"/>
          </g>
          <g id="Group_8857" data-name="Group 8857">
            <path id="Path_33287" data-name="Path 33287" class="cls-8" d="M152.2,8.5l-.1,5.2-7.4,7.4a22.51,22.51,0,0,0,.1-5.2Z"/>
          </g>
        </g>
      </g>
      <path id="Path_33288" data-name="Path 33288" class="cls-4" d="M175.3,238.5l-47.6-45.1,30.8-12.2-3.8-13L74.6,201.3,16.7,183.5c-1.4,4.8-2.8,9.7-4.3,14.5l50.1,14.8L33.9,240.1H55.5L80,212.2l36.1-14.3,42.2,42.2h17.5A9.828,9.828,0,0,1,175.3,238.5Z"/>
    </g>
  </g>
</svg>
