<svg xmlns="http://www.w3.org/2000/svg" viewBox="0 0 75.335 65.75">
  <defs>
    <style>
      .cls-1 {
        fill: #2e2e2e;
      }

      .cls-2 {
        fill: #dedede;
      }

      .cls-3 {
        fill: #fff;
      }

      .cls-4 {
        fill: #7ec200;
      }

      .cls-5 {
        fill: #99c900;
      }

      .cls-6 {
        fill: #b1d400;
      }
    </style>
  </defs>
  <g id="Group_34654" data-name="Group 34654" transform="translate(0 -0.017)">
    <g id="Group_34649" data-name="Group 34649" transform="translate(0 14.968)">
      <path id="Path_123993" data-name="Path 123993" class="cls-1" d="M62.865,59.232c-16.613-9.609-33.781-9.609-50.394,0h0Q-.021,66.471,0,73.795q0,7.3,12.47,14.563c16.613,9.609,33.781,9.609,50.394,0,8.328-4.783,12.47-9.694,12.47-14.563S71.192,64.058,62.865,59.232Z" transform="translate(0 -44.765)"/>
      <path id="Path_123994" data-name="Path 123994" class="cls-2" d="M62.865,100.563c-16.613,9.609-33.781,9.609-50.394,0Q-.021,93.324,0,86v7.26q0,7.3,12.47,14.563c16.613,9.609,33.781,9.609,50.394,0,8.328-4.783,12.47-9.694,12.47-14.563V86Q75.335,93.3,62.865,100.563Z" transform="translate(0 -64.23)"/>
      <path id="Path_123995" data-name="Path 123995" class="cls-3" d="M62.865,42.232c-16.613-9.609-33.781-9.609-50.394,0h0Q-.021,49.471,0,56.795q0,7.3,12.47,14.563c16.613,9.609,33.781,9.609,50.394,0,8.328-4.783,12.47-9.694,12.47-14.563S71.192,47.058,62.865,42.232Z" transform="translate(0 -35.025)"/>
    </g>
    <g id="Group_34653" data-name="Group 34653" transform="translate(19.663 0.017)">
      <path id="Path_123996" data-name="Path 123996" class="cls-4" d="M87.369,35.942V56.313c0,1.025-.3,1.623-.769,1.879l7.73-4.442a2.013,2.013,0,0,0,.769-1.879V31.5Z" transform="translate(-69.279 -18.055)"/>
      <path id="Path_123997" data-name="Path 123997" class="cls-5" d="M88.687,2.572c-.854-1.409-2.648-3.16-4.1-2.349L76.9,4.665c1.452-.811,3.246.94,4.1,2.349,13.282,23.019,13.154,22.25,13.154,24.172a2.128,2.128,0,0,1-.811,1.879l7.73-4.442a1.984,1.984,0,0,0,.811-1.879C101.841,24.823,101.969,25.591,88.687,2.572Z" transform="translate(-63.722 -0.017)"/>
      <g id="Group_34652" data-name="Group 34652" transform="translate(0 4.399)">
        <g id="Group_34651" data-name="Group 34651">
          <path id="Path_123998" data-name="Path 123998" class="cls-6" d="M64.132,44.176V23.805l7.388,12.769c1.238,2.135,3.032,2.947,4.1,2.349a1.984,1.984,0,0,0,.811-1.879c0-1.922.128-1.153-13.154-24.172h0c-.854-1.409-2.648-3.16-4.1-2.349h0L46.921,17.656c-2.691,1.537,1.409,8.627,4.1,7.089l7.388-4.271V40.845c0,3.459,3.417,6.15,5,5.21C63.833,45.8,64.132,45.2,64.132,44.176Z" transform="translate(-46.043 -10.317)"/>
        </g>
      </g>
    </g>
  </g>
</svg>
