<svg xmlns="http://www.w3.org/2000/svg" viewBox="0 0 354 432">
  <defs>
    <style>
      .cls-1 {
        fill: none;
      }

      .cls-2 {
        fill: #ffaa82;
      }

      .cls-3 {
        fill: #d0e7f4;
      }

      .cls-4 {
        fill: #424268;
      }

      .cls-27, .cls-5 {
        fill: #a8c4e5;
      }

      .cls-5 {
        opacity: 0.4;
      }

      .cls-6 {
        fill: #15253d;
      }

      .cls-7 {
        fill: #56547f;
      }

      .cls-8 {
        fill: #656593;
      }

      .cls-9 {
        fill: #513554;
      }

      .cls-10 {
        fill: #e1eaf4;
      }

      .cls-11 {
        fill: #644968;
      }

      .cls-12 {
        fill: #f1a32f;
      }

      .cls-13 {
        fill: #fcfeff;
      }

      .cls-14 {
        fill: #ceab8b;
      }

      .cls-15 {
        fill: #894e4e;
      }

      .cls-16 {
        fill: #915350;
      }

      .cls-17 {
        fill: #e5c2a5;
      }

      .cls-18 {
        fill: #383554;
      }

      .cls-19 {
        fill: #6f6f9e;
      }

      .cls-20 {
        fill: #492817;
      }

      .cls-21 {
        fill: #633820;
      }

      .cls-22 {
        fill: #ea8a6c;
      }

      .cls-23 {
        fill: #46466b;
      }

      .cls-24 {
        fill: #fff;
      }

      .cls-25 {
        fill: #ffe497;
      }

      .cls-26 {
        fill: #f9e6b7;
      }

      .cls-28 {
        fill: #45446c;
      }

      .cls-29 {
        fill: #5c5c9e;
      }

      .cls-30 {
        fill: #8080bf;
      }

      .cls-31 {
        fill: #915151;
      }

      .cls-32 {
        fill: #af8080;
      }
    </style>
  </defs>
  <g id="Group_34643" data-name="Group 34643" transform="translate(-7291 -4728)">
    <g id="Group_34635" data-name="Group 34635">
      <rect id="Rectangle_1211" data-name="Rectangle 1211" class="cls-1" width="354" height="432" transform="translate(7291 4728)"/>
      <g id="Group_34625" data-name="Group 34625" transform="translate(7375.985 4806.935)">
        <g id="Group_10114" data-name="Group 10114" transform="translate(78.281 66.322)">
          <g id="Group_10113" data-name="Group 10113">
            <path id="Path_36215" data-name="Path 36215" class="cls-2" d="M110.961,87.632c-1.866,2.643-4.042,3.576-7,4.509-5.752,1.788-3.265,10.805,2.488,9.017a30.208,30.208,0,0,0,6.918-2.876,22.8,22.8,0,0,0,5.675-5.908c1.477-2.021.311-5.208-1.71-6.374-2.332-1.477-4.9-.466-6.374,1.632Z" transform="translate(-100.698 -85.3)"/>
          </g>
        </g>
        <path id="Path_36216" data-name="Path 36216" class="cls-3" d="M100.376,96.2,97.5,102.263l9.1,4.9,2.954-5.519Z" transform="translate(-21.705 -21.404)"/>
        <path id="Path_36217" data-name="Path 36217" class="cls-4" d="M91.981,91.732a47.648,47.648,0,0,0-1.943,5.6h0C90.348,85.28,89.1,73.853,83.9,62.814c-3.187-6.685-14.148-2.721-10.961,4.12A56.131,56.131,0,0,1,78.3,86.6c.389,5.83.078,11.583.078,17.413a56.667,56.667,0,0,0,1.943,15.78c.933,3.42,2.643,7.074,6.53,7.774,7.774,1.4,9.717-9.25,11.194-14.536,1.011-3.887,2.021-7.851,3.109-11.738.466-1.71.855-2.876,1.477-4.586.078-.155.078-.233.155-.389a1.743,1.743,0,0,0-.933-2.254c-2.41-1.088-5.364-2.41-7.463-3.265A1.866,1.866,0,0,0,91.981,91.732Z" transform="translate(-16.108 -13.205)"/>
        <ellipse id="Ellipse_105" data-name="Ellipse 105" class="cls-5" cx="21.766" cy="37.624" rx="21.766" ry="37.624" transform="translate(13.084 271.764) rotate(-89.689)"/>
        <ellipse id="Ellipse_106" data-name="Ellipse 106" class="cls-5" cx="21.766" cy="37.624" rx="21.766" ry="37.624" transform="translate(109.465 258.369) rotate(-89.689)"/>
        <path id="Path_36218" data-name="Path 36218" class="cls-4" d="M36.021,75.41,61.285,64.371,58.176,53.8C51.724,53.644,40.141,60.174,34.7,63.9Z" transform="translate(-7.723 -11.963)"/>
        <path id="Path_36219" data-name="Path 36219" class="cls-6" d="M27.954,327.752a40.566,40.566,0,0,1-2.643-7.307c-.078-.466-.311-2.8-.311-3.576.078-1.71-.155-2.8,3.731-5.208,6.374-3.965,12.438,17.646,12.438,17.646l.389,5.286a2.891,2.891,0,0,1-1.4,2.488l-.466.155c-3.109.777-4.9,0-6.219-1.477C31.219,333.194,30.208,332.883,27.954,327.752Z" transform="translate(-5.563 -69.268)"/>
        <path id="Path_36220" data-name="Path 36220" class="cls-7" d="M28.1,326.015c-.155-.311-5.986-13.215-.311-15.547,5.053-2.021,7.54,2.954,9.639,8.24.622,1.555,2.021,4.9,2.643,6.063a19.838,19.838,0,0,1,1.088,4.353v4.12c.155.933-1.088.078-1.943.622l-.7-3.654c-1.632,1.011-2.954,5.6-4.353,4.12C31.911,331.69,30.434,331.223,28.1,326.015Z" transform="translate(-5.633 -69.008)"/>
        <path id="Path_36221" data-name="Path 36221" class="cls-8" d="M32.9,336.6c.622.622,2.021,2.1,2.721,2.876,1.4,1.555,3.42,1.555,5.441,1.088,1.011-.233,2.41-.7,2.254-2.254l-.466-3.887C41.451,333.729,37.02,334.506,32.9,336.6Z" transform="translate(-7.322 -74.389)"/>
        <g id="Group_10116" data-name="Group 10116" transform="translate(18.349 124.789)">
          <g id="Group_10115" data-name="Group 10115">
            <path id="Path_36222" data-name="Path 36222" class="cls-9" d="M25.077,169.054c6.141,18.967,4.9,39.956,3.265,59.545-.777,9.25-1.943,18.5-3.032,27.674-.7,5.986-1.71,12.127-1.71,18.19.078,9.017,14.07,9.017,13.992,0-.078-6.063.933-12.2,1.71-18.19,1.166-9.561,2.332-19.123,3.109-28.762,1.71-20.444,2.643-42.366-3.809-62.188-2.876-8.473-16.324-4.82-13.526,3.731Z" transform="translate(-23.6 -160.512)"/>
          </g>
        </g>
        <g id="Group_10118" data-name="Group 10118" transform="translate(50.028 121.585)">
          <g id="Group_10117" data-name="Group 10117">
            <path id="Path_36223" data-name="Path 36223" class="cls-9" d="M64.623,165.026c3.032,11.038,4.509,22.465,5.6,33.893.7,6.918,1.632,13.681.933,20.6-1.4,13.759-3.887,27.752-3.809,41.588.078,9.017,13.992,9.017,13.992,0-.078-14.07,2.488-28.218,3.887-42.133.7-7.307-.466-14.614-1.244-21.921-1.244-11.971-2.721-24.02-5.908-35.68-2.332-8.706-15.78-5.053-13.448,3.654Z" transform="translate(-64.352 -156.39)"/>
          </g>
        </g>
        <g id="Group_10120" data-name="Group 10120" transform="translate(19.359 237.729)">
          <g id="Group_10119" data-name="Group 10119">
            <path id="Path_36224" data-name="Path 36224" class="cls-10" d="M36.327,306.966c-3.032,2.565-9.1,2.1-11.349-1.166-.078,1.788-.078,3.576-.078,5.441.078,7.307,11.5,7.54,11.427.155Z" transform="translate(-24.9 -305.8)"/>
          </g>
        </g>
        <g id="Group_10121" data-name="Group 10121" transform="translate(20.486 116.79)">
          <path id="Path_36225" data-name="Path 36225" class="cls-9" d="M63.313,183.787l-1.011-.155c-1.321,1.477,1.4-3.964-.233-2.954-3.42,2.1-17.646,12.2-21.688,12.282-4.9.078-6.685,2.876-10.261-.389-3.42-3.109-4.664-13.6-3.109-17.49.466-1.166,3.576-3.343,4.12-4.509.544-1.244-4.042-1.088-2.954-1.866,8.629-6.53,25.575-22.621,37.546-17.49C79.56,157.046,69.454,176.868,63.313,183.787Z" transform="translate(-26.349 -150.222)"/>
        </g>
        <path id="Path_36226" data-name="Path 36226" class="cls-3" d="M67.955,61.053c2.565,3.265,2.254,5.286,2.1,9.795a10.229,10.229,0,0,1-7.307,9.406L19.6,92.38s-2.488-16.635,6.063-21.61c4.586-2.721,11.738-7,17.257-10.417C51.164,55.378,62.047,53.512,67.955,61.053Z" transform="translate(-4.286 -12.454)"/>
        <path id="Path_36227" data-name="Path 36227" class="cls-3" d="M70.873,141.593C69.629,143.225,68,96.662,70.485,67.2L21.9,90.365c.233,22.232,6.763,39.1,4.042,66.153Z" transform="translate(-4.873 -14.947)"/>
        <path id="Path_36228" data-name="Path 36228" class="cls-3" d="M42.89,178.359c11.971-4.353,23.4-9.173,30.161-17.413,3.265-1.943,2.876-5.286-.933-7.463h0c-3.809-2.177-9.639-2.41-12.9-.544C59.137,152.94,39.547,180.225,42.89,178.359Z" transform="translate(-9.461 -33.757)"/>
        <path id="Path_36229" data-name="Path 36229" class="cls-11" d="M21.255,304.415l-.155,5.053a1.83,1.83,0,0,0,.155.622,9.105,9.105,0,0,0,9.017,3.964,21.223,21.223,0,0,0,8.473-2.643,1.108,1.108,0,0,0,.466-.933l-.233-5.131a1.09,1.09,0,0,0-1.555-.933c-2.488,1.322-8.007,3.187-14.692-.855A1.012,1.012,0,0,0,21.255,304.415Z" transform="translate(-4.695 -67.541)"/>
        <g id="Group_10122" data-name="Group 10122" transform="translate(53.058 229.063)">
          <path id="Path_36230" data-name="Path 36230" class="cls-6" d="M81.809,311.155c-.311-.156-3.343-2.565-3.654-2.721-.466-.155-4.82-2.332-5.519-2.721-1.477-.777-5.053-1.322-3.187-6.063,2.643-6.841,20.911,3.965,20.911,3.965l6.141,4.742a1.958,1.958,0,0,1,.7,2.332h0c-.544,1.632-2.8,2.876-4.82,2.643C88.883,312.943,87.1,313.409,81.809,311.155Z" transform="translate(-68.4 -295.259)"/>
          <path id="Path_36231" data-name="Path 36231" class="cls-7" d="M81.97,308.759c-.311-.155-3.343-2.565-3.654-2.721-.466-.155-5.752-2.332-6.452-2.721-1.477-.777-4.9-1.788-3.109-6.452,2.643-6.841,21.766,4.353,21.766,4.353l6.141,4.742a1.958,1.958,0,0,1,.7,2.332h0c-.544,1.632-2.8,2.876-4.82,2.643C89.044,310.547,87.179,311.014,81.97,308.759Z" transform="translate(-68.25 -294.652)"/>
          <path id="Path_36232" data-name="Path 36232" class="cls-8" d="M95,313.374c.933.078,2.643.078,3.731.233a4.4,4.4,0,0,0,4.586-2.643,2.032,2.032,0,0,0-.7-2.332L99.664,306.3C97.177,306.844,95.622,309.332,95,313.374Z" transform="translate(-74.206 -297.245)"/>
        </g>
        <g id="Group_10124" data-name="Group 10124" transform="translate(53.839 223.814)">
          <g id="Group_10123" data-name="Group 10123">
            <path id="Path_36233" data-name="Path 36233" class="cls-10" d="M80.717,288.833c-2.954,2.332-9.1,1.943-11.427-.933,0,1.632-.078,3.187,0,4.82.155,6.53,11.583,6.53,11.427,0A32.419,32.419,0,0,1,80.717,288.833Z" transform="translate(-69.256 -287.9)"/>
          </g>
        </g>
        <path id="Path_36234" data-name="Path 36234" class="cls-11" d="M65.4,286.1l.155,5.053a1.034,1.034,0,0,0,.233.622,9.186,9.186,0,0,0,9.251,3.5,21.244,21.244,0,0,0,8.4-3.032,1.108,1.108,0,0,0,.466-.933l-.466-5.131a1.058,1.058,0,0,0-1.555-.855c-2.41,1.477-7.851,3.576-14.692-.155A1.213,1.213,0,0,0,65.4,286.1Z" transform="translate(-14.558 -63.448)"/>
        <path id="Path_36235" data-name="Path 36235" class="cls-2" d="M55.766,61.568l4.9-18.268L48.148,46.8,44.183,61.723C43.328,64.133,52.112,70.9,55.766,61.568Z" transform="translate(-9.821 -9.626)"/>
        <path id="Path_36236" data-name="Path 36236" class="cls-12" d="M50.818,163.352c-3.887,1.788-8.084,3.42-12.36,4.9-3.265,1.943-10.961-4.82-10.961-4.82,2.643-27.052-5.364-44.62-5.6-66.852l1.71-.777C24.465,121.686,28.663,162.341,50.818,163.352Z" transform="translate(-4.873 -21.315)"/>
        <g id="Group_10126" data-name="Group 10126" transform="translate(118.552 48.657)">
          <g id="Group_10125" data-name="Group 10125">
            <path id="Path_36237" data-name="Path 36237" class="cls-2" d="M158.331,66.948a369.3,369.3,0,0,1-2.721,42.443c-.466,3.731-1.477,8.007-.622,11.816.544,2.332.078-.155-.078-.777-.233-1.011.155-.855-.078.233-.7,2.876-1.4,5.83-2.177,8.706-1.4,5.6,7.229,8.007,8.629,2.41.933-3.809,3.032-8.629,2.41-12.749-.155-1.244-.7-1.322-.155-.311-.233-.311-.078,1.166.078,0,.233-2.643.389-5.286.7-7.929a412.452,412.452,0,0,0,2.954-43.843c.155-5.83-8.862-5.83-8.94,0Z" transform="translate(-152.503 -62.575)"/>
          </g>
        </g>
        <path id="Path_36238" data-name="Path 36238" class="cls-4" d="M160.973,53.8c-3.965,6.219-4.353,15.78-5.519,24.875a3.976,3.976,0,0,0,3.343,5.131l9.717,3.731c2.021.155,3.887-4.12,4.2-6.219l3.5-22.932A7.368,7.368,0,0,0,171,50.149h0C167.347,49.06,164,49.371,160.973,53.8Z" transform="translate(-34.572 -11.033)"/>
        <g id="Group_10128" data-name="Group 10128" transform="translate(120.302 61.083)">
          <g id="Group_10127" data-name="Group 10127">
            <path id="Path_36239" data-name="Path 36239" class="cls-13" d="M155.256,81.078c1.4,1.244,2.954,3.032,4.742,3.731,1.943.777,4.2.855,6.219,1.244,1.866.389,2.721-2.488.777-2.876a39.668,39.668,0,0,1-5.286-1.011c-1.71-.544-2.954-2.021-4.275-3.187-1.555-1.322-3.654.777-2.177,2.1Z" transform="translate(-154.754 -78.559)"/>
          </g>
        </g>
        <path id="Path_36240" data-name="Path 36240" class="cls-4" d="M201.855,60.656,180.4,55.37,183.509,44.8c6.452-.155,11.038,1.943,16.48,5.675Z" transform="translate(-40.162 -9.958)"/>
        <path id="Path_36241" data-name="Path 36241" class="cls-2" d="M148.855,153.4l4.509,2.876c2.177,1.4,4.82,1.321,5.752-.233l.7-1.088c1.011-1.555,0-3.965-2.254-5.364l-4.509-2.876c-2.177-1.4-4.82-1.322-5.752.233l-.7,1.088C145.668,149.591,146.678,152,148.855,153.4Z" transform="translate(-32.559 -32.43)"/>
        <g id="Group_10130" data-name="Group 10130" transform="translate(123.356 116.122)">
          <g id="Group_10129" data-name="Group 10129">
            <path id="Path_36242" data-name="Path 36242" class="cls-14" d="M166,154.289c-3.109,11.427-4.586,23.243-5.83,34.981-.777,7.463-2.021,15.081-1.244,22.621,1.4,13.915,3.965,28.14,3.887,42.133-.078,9.017,13.915,9.017,13.992,0,.078-13.837-2.41-27.829-3.809-41.588-.7-6.918.311-13.681.933-20.6,1.088-11.427,2.565-22.854,5.6-33.893,2.332-8.629-11.116-12.282-13.526-3.654Z" transform="translate(-158.683 -149.362)"/>
          </g>
        </g>
        <g id="Group_10131" data-name="Group 10131" transform="translate(127.99 109.561)">
          <path id="Path_36243" data-name="Path 36243" class="cls-14" d="M176.814,176.119h0c1.322,1.477-4.275-5.6-2.565-4.586,3.42,2.1,22.854,15.236,26.9,15.314,4.9.078,2.021-4.664,5.675-7.851,3.42-3.109,4.275-8.084,4.586-12.749a7.916,7.916,0,0,0-.389-3.809,8.674,8.674,0,0,0-2.8-3.032c-8.629-6.53-25.575-22.621-37.546-17.49C156.681,147.979,170.6,169.2,176.814,176.119Z" transform="translate(-164.645 -140.922)"/>
        </g>
        <path id="Path_36244" data-name="Path 36244" class="cls-7" d="M166.67,52.053c-2.565,3.265-2.254,5.286-2.1,9.795a10.229,10.229,0,0,0,7.307,9.406L215.021,83.38s2.488-16.635-6.063-21.61c-4.586-2.721-11.738-7-17.257-10.417C183.461,46.378,172.5,44.512,166.67,52.053Z" transform="translate(-36.616 -10.45)"/>
        <path id="Path_36245" data-name="Path 36245" class="cls-7" d="M164.3,132.593c1.244,1.632,2.876-44.931.389-74.393l48.585,23.165c-.233,22.232-3.032,39.723-.389,66.775Z" transform="translate(-36.578 -12.944)"/>
        <path id="Path_36246" data-name="Path 36246" class="cls-7" d="M196.728,172.459c-11.971-4.353-23.4-9.173-30.161-17.413-3.265-1.943-2.876-5.286.933-7.463h0c3.809-2.177,9.639-2.41,12.9-.544l30.161,17.413c3.265,1.943,2.876,5.286-.933,7.463h0C205.824,174.092,199.993,174.325,196.728,172.459Z" transform="translate(-36.59 -32.443)"/>
        <g id="Group_10132" data-name="Group 10132" transform="translate(112.198 223.621)">
          <path id="Path_36247" data-name="Path 36247" class="cls-6" d="M160.153,304.155c.311-.155,3.343-2.565,3.654-2.721.466-.155,4.82-2.332,5.519-2.721,1.477-.777,5.053-1.321,3.187-6.063-2.643-6.841-20.911,3.965-20.911,3.965l-6.141,4.742a1.958,1.958,0,0,0-.7,2.332h0c.544,1.632,2.8,2.876,4.82,2.643C153.157,305.943,154.945,306.409,160.153,304.155Z" transform="translate(-144.395 -288.259)"/>
          <path id="Path_36248" data-name="Path 36248" class="cls-15" d="M159.853,301.759c.311-.155,3.343-2.565,3.654-2.721.466-.155,5.752-2.332,6.452-2.721,1.477-.777,4.9-1.788,3.109-6.452-2.643-6.841-21.766,4.353-21.766,4.353l-6.141,4.742a1.958,1.958,0,0,0-.7,2.332h0c.544,1.632,2.8,2.876,4.82,2.643C152.78,303.547,154.567,304.014,159.853,301.759Z" transform="translate(-144.329 -287.652)"/>
          <path id="Path_36249" data-name="Path 36249" class="cls-16" d="M152.783,306.374c-.933.078-2.643.078-3.731.233a4.4,4.4,0,0,1-4.586-2.643,2.032,2.032,0,0,1,.7-2.332l2.954-2.332C150.607,299.844,152.161,302.332,152.783,306.374Z" transform="translate(-144.332 -290.245)"/>
        </g>
        <g id="Group_10134" data-name="Group 10134" transform="translate(129.198 218.373)">
          <g id="Group_10133" data-name="Group 10133">
            <path id="Path_36250" data-name="Path 36250" class="cls-10" d="M166.2,281.833c2.954,2.332,9.1,1.943,11.427-.933,0,1.632.078,3.187,0,4.82-.155,6.53-11.583,6.53-11.427,0Z" transform="translate(-166.198 -280.9)"/>
          </g>
        </g>
        <path id="Path_36251" data-name="Path 36251" class="cls-17" d="M179.4,279.1l-.155,5.053a1.034,1.034,0,0,1-.233.622,9.186,9.186,0,0,1-9.25,3.5,21.244,21.244,0,0,1-8.4-3.032,1.108,1.108,0,0,1-.466-.933l.466-5.131a1.058,1.058,0,0,1,1.555-.855c2.41,1.477,7.851,3.576,14.692-.155C178.546,277.774,179.479,278.319,179.4,279.1Z" transform="translate(-35.821 -61.889)"/>
        <g id="Group_10136" data-name="Group 10136" transform="translate(152.118 129.337)">
          <g id="Group_10135" data-name="Group 10135">
            <path id="Path_36252" data-name="Path 36252" class="cls-14" d="M203,171.289c-3.109,11.427-4.586,23.243-5.83,34.981-.777,7.463-2.021,15.081-1.244,22.621,1.4,13.915,3.965,28.14,3.887,42.133-.078,9.017,13.915,9.017,13.992,0,.078-13.837-2.41-27.829-3.809-41.588-.7-6.918.311-13.681.933-20.6,1.088-11.427,2.565-22.854,5.6-33.893,2.332-8.629-11.116-12.282-13.526-3.654Z" transform="translate(-195.683 -166.362)"/>
          </g>
        </g>
        <g id="Group_10137" data-name="Group 10137" transform="translate(140.96 236.836)">
          <path id="Path_36253" data-name="Path 36253" class="cls-6" d="M197.153,321.155c.311-.155,3.343-2.565,3.654-2.721.466-.155,4.82-2.332,5.519-2.721,1.477-.777,5.053-1.322,3.187-6.063-2.643-6.841-20.911,3.965-20.911,3.965l-6.141,4.742a1.958,1.958,0,0,0-.7,2.332h0c.544,1.632,2.8,2.876,4.82,2.643C190.157,322.943,191.945,323.409,197.153,321.155Z" transform="translate(-181.395 -305.259)"/>
          <path id="Path_36254" data-name="Path 36254" class="cls-15" d="M196.853,318.759c.311-.155,3.343-2.565,3.654-2.721.466-.155,5.752-2.332,6.452-2.721,1.477-.777,4.9-1.788,3.109-6.452-2.643-6.841-21.766,4.353-21.766,4.353l-6.141,4.742a1.958,1.958,0,0,0-.7,2.332h0c.544,1.632,2.8,2.876,4.82,2.643C189.78,320.547,191.567,321.014,196.853,318.759Z" transform="translate(-181.329 -304.652)"/>
          <path id="Path_36255" data-name="Path 36255" class="cls-16" d="M189.783,323.374c-.933.078-2.643.078-3.731.233a4.4,4.4,0,0,1-4.586-2.643,2.032,2.032,0,0,1,.7-2.332l2.954-2.332C187.607,316.844,189.161,319.332,189.783,323.374Z" transform="translate(-181.332 -307.245)"/>
        </g>
        <g id="Group_10139" data-name="Group 10139" transform="translate(157.96 231.588)">
          <g id="Group_10138" data-name="Group 10138">
            <path id="Path_36256" data-name="Path 36256" class="cls-10" d="M203.2,298.833c2.954,2.332,9.1,1.943,11.427-.933,0,1.632.078,3.187,0,4.82-.155,6.53-11.583,6.53-11.427,0Z" transform="translate(-203.198 -297.9)"/>
          </g>
        </g>
        <path id="Path_36257" data-name="Path 36257" class="cls-17" d="M216.4,296.1l-.155,5.053a1.034,1.034,0,0,1-.233.622,9.187,9.187,0,0,1-9.251,3.5,21.244,21.244,0,0,1-8.4-3.032,1.108,1.108,0,0,1-.466-.933l.466-5.131a1.058,1.058,0,0,1,1.555-.855c2.41,1.477,7.851,3.576,14.692-.155C215.546,294.774,216.479,295.319,216.4,296.1Z" transform="translate(-44.059 -65.674)"/>
        <path id="Path_36258" data-name="Path 36258" class="cls-2" d="M188.475,52.568,183.5,34.3l12.515,3.5,4.042,14.925C200.913,55.133,192.051,61.9,188.475,52.568Z" transform="translate(-40.852 -7.622)"/>
        <path id="Path_36259" data-name="Path 36259" class="cls-18" d="M188.4,60.2a6.229,6.229,0,0,0,2.954.233l4.975,8.4-.233.311a1.792,1.792,0,0,1-2.8-.155Z" transform="translate(-41.943 -13.389)"/>
        <path id="Path_36260" data-name="Path 36260" class="cls-18" d="M192.039,62.055a6.214,6.214,0,0,1-2.488-.855L181.7,66.331l.078.311a1.5,1.5,0,0,0,2.332.855Z" transform="translate(-40.452 -13.612)"/>
        <g id="Group_10140" data-name="Group 10140" transform="translate(146.277 52.912)">
          <ellipse id="Ellipse_107" data-name="Ellipse 107" class="cls-18" cx="0.777" cy="1.322" rx="0.777" ry="1.322" transform="matrix(0.863, -0.505, 0.505, 0.863, 0, 0.785)"/>
          <path id="Path_36261" data-name="Path 36261" class="cls-18" d="M190.666,75.793c0,.622-.389.855-.933.544A2,2,0,0,1,188.8,74.7c0-.622.389-.855.933-.544A2.211,2.211,0,0,1,190.666,75.793Z" transform="translate(-188.309 -69.379)"/>
          <path id="Path_36262" data-name="Path 36262" class="cls-18" d="M190.666,81.293c0,.622-.389.855-.933.544A2,2,0,0,1,188.8,80.2c0-.622.389-.855.933-.544A2.211,2.211,0,0,1,190.666,81.293Z" transform="translate(-188.309 -70.604)"/>
        </g>
        <path id="Path_36263" data-name="Path 36263" class="cls-19" d="M190.192,58.017s-5.286,0-6.3-9.25l-3.5-.466c-.466.389-1.477.155-1.943,3.187a13.2,13.2,0,0,0,.311,5.519l1.322,5.208a1.783,1.783,0,0,0,2.721,1.011Z" transform="translate(-39.693 -10.739)"/>
        <path id="Path_36264" data-name="Path 36264" class="cls-13" d="M190.839,60.555a6.214,6.214,0,0,1-2.488-.855L180.5,64.831l.078.311A1.5,1.5,0,0,0,182.91,66Z" transform="translate(-40.184 -13.278)"/>
        <path id="Path_36265" data-name="Path 36265" class="cls-2" d="M185.058,42.211l-3.576.155a9.973,9.973,0,0,1-10.261-9.639L170.6,14.615a9.973,9.973,0,0,1,9.639-10.261l3.576-.155a9.973,9.973,0,0,1,10.261,9.639L194.7,31.95A10.025,10.025,0,0,1,185.058,42.211Z" transform="translate(-37.979 -0.92)"/>
        <path id="Path_36266" data-name="Path 36266" class="cls-20" d="M181.372,17.66a15.271,15.271,0,0,1-10.183.233c-4.509-1.71-7.618-8.007-4.12-11.272,1.866-1.788,6.763-3.343,10.805-4.975,11.5-4.664,23.942,1.244,24.331,14.3,0,0,1.943,16.169-7.152,19.9a1.937,1.937,0,0,1-2.1-.466l-.078-.078a2.172,2.172,0,0,1-.466-2.332c.855-1.866,1.555-5.519-2.954-8.24a3.989,3.989,0,0,1-1.632-2.876A4.964,4.964,0,0,0,181.372,17.66Z" transform="translate(-36.859 0)"/>
        <path id="Path_36267" data-name="Path 36267" class="cls-2" d="M202.878,38.225c-1.632,1.322-3.42.855-4.042-1.011a5.746,5.746,0,0,1,1.71-5.83c1.632-1.322,3.42-.855,4.042,1.011A5.594,5.594,0,0,1,202.878,38.225Z" transform="translate(-44.217 -6.805)"/>
        <path id="Path_36268" data-name="Path 36268" class="cls-19" d="M190.1,58.374s5.986,2.1,11.971-6.374l3.887,4.9c.311.777.389.855-.233,1.477L197.8,66.925a2.083,2.083,0,0,1-3.265-.233Z" transform="translate(-42.322 -11.563)"/>
        <path id="Path_36269" data-name="Path 36269" class="cls-13" d="M189.9,60.2a6.228,6.228,0,0,0,2.954.233l4.975,8.4-.233.311a1.792,1.792,0,0,1-2.8-.155Z" transform="translate(-42.277 -13.389)"/>
        <path id="Path_36270" data-name="Path 36270" class="cls-20" d="M186.8,35.3c0,.777-.311,1.4-.7,1.4s-.7-.622-.7-1.4.311-1.4.7-1.4S186.8,34.522,186.8,35.3Z" transform="translate(-41.275 -7.533)"/>
        <path id="Path_36271" data-name="Path 36271" class="cls-20" d="M175.1,30.6c0,.777-.311,1.4-.7,1.4s-.7-.622-.7-1.4.311-1.4.7-1.4S175.1,29.822,175.1,30.6Z" transform="translate(-38.67 -6.487)"/>
        <g id="Group_10142" data-name="Group 10142" transform="translate(143.133 21.936)">
          <g id="Group_10141" data-name="Group 10141">
            <path id="Path_36272" data-name="Path 36272" class="cls-21" d="M184.883,29.755a6.635,6.635,0,0,1,4.042,1.788c.7.7,1.71-.389,1.088-1.088a7.8,7.8,0,0,0-5.131-2.254.778.778,0,0,0,0,1.555Z" transform="translate(-184.125 -28.2)"/>
          </g>
        </g>
        <g id="Group_10144" data-name="Group 10144" transform="translate(133.096 18.186)">
          <g id="Group_10143" data-name="Group 10143">
            <path id="Path_36273" data-name="Path 36273" class="cls-21" d="M171.9,24.872a6.446,6.446,0,0,1,4.2,1.477c.7.622,1.788-.389,1.088-1.088a7.676,7.676,0,0,0-5.208-1.866c-1.011.078-1.011,1.555-.078,1.477Z" transform="translate(-171.212 -23.376)"/>
          </g>
        </g>
        <path id="Path_36274" data-name="Path 36274" class="cls-22" d="M188.4,52.343l5.131-2.643s-1.788,3.731-4.275,5.208Z" transform="translate(-41.943 -11.051)"/>
        <path id="Path_36275" data-name="Path 36275" class="cls-23" d="M190.1,154.374c3.887,1.788,8.084,3.42,12.36,4.9,3.265,1.943,9.1,1.632,12.9-.544h0c2.177-1.244,3.187-2.8,3.187-4.353l.155.078c-2.643-27.052.155-44.542.389-66.775l-1.71-.777C216.375,112.708,212.255,153.364,190.1,154.374Z" transform="translate(-42.322 -19.334)"/>
        <g id="Group_10146" data-name="Group 10146" transform="translate(148.812 57.174)">
          <g id="Group_10145" data-name="Group 10145">
            <path id="Path_36276" data-name="Path 36276" class="cls-2" d="M211.7,78.871c2.643,6.607,5.208,13.448,5.908,20.6.311,3.343.311,6.685.311,10.028,0,3.42.311,7.152-.544,10.572a12.179,12.179,0,0,1-.777,2.021c-.233-.233,1.4-.933,1.4-.544-.078.466-4.042-2.876-4.431-3.265-5.675-5.83-9.795-13.215-13.759-20.289-2.8-5.053-10.572-.544-7.774,4.509,4.586,8.318,9.717,17.413,16.946,23.787,4.431,3.887,11.272,6.53,15.236.544,1.866-2.721,2.332-6.063,2.565-9.328a129.549,129.549,0,0,0,.078-14.537c-.389-9.328-2.954-17.8-6.452-26.43-2.177-5.286-10.883-3.032-8.706,2.332Z" transform="translate(-191.43 -73.531)"/>
          </g>
        </g>
        <path id="Path_36277" data-name="Path 36277" class="cls-2" d="M197.056,106.954h0a5.1,5.1,0,0,1-5.83,4.2,22.248,22.248,0,0,0-8.784-1.71,4.958,4.958,0,0,1-5.131-3.187,4.5,4.5,0,0,1-.233-2.488h0c.466-2.721,2.488-3.654,5.83-4.2a22.325,22.325,0,0,1,9.95,1.555A5.2,5.2,0,0,1,197.056,106.954Z" transform="translate(-39.405 -22.13)"/>
        <path id="Path_36278" data-name="Path 36278" class="cls-2" d="M197.739,103.605h0a2.377,2.377,0,0,1-3.42-.389l-2.876-3.654a2.377,2.377,0,0,1,.389-3.42h0a2.377,2.377,0,0,1,3.42.389l2.876,3.654A2.445,2.445,0,0,1,197.739,103.605Z" transform="translate(-42.499 -21.269)"/>
        <path id="Path_36279" data-name="Path 36279" class="cls-7" d="M211.565,75.076l4.353,23.709c2.8,6.53,17.335,1.321,15.547-4.2l-6.141-22.465a7.559,7.559,0,0,0-8.318-5.053h0A6.769,6.769,0,0,0,211.565,75.076Z" transform="translate(-47.073 -14.895)"/>
        <g id="Group_10148" data-name="Group 10148" transform="translate(169.641 74.997)">
          <g id="Group_10147" data-name="Group 10147">
            <path id="Path_36280" data-name="Path 36280" class="cls-13" d="M219.683,103.643A17.169,17.169,0,0,0,231.5,98.978c1.4-1.322-.7-3.42-2.1-2.1a14.092,14.092,0,0,1-9.717,3.731,1.517,1.517,0,0,0,0,3.032Z" transform="translate(-218.225 -96.459)"/>
          </g>
        </g>
        <path id="Path_36281" data-name="Path 36281" class="cls-24" d="M175.553,39.99l6.141,2.643a.692.692,0,0,1,.389.622c-.155,1.011-.855,3.032-4.2,1.866a5.2,5.2,0,0,1-3.187-4.509C174.62,40.223,175.164,39.834,175.553,39.99Z" transform="translate(-38.891 -8.881)"/>
        <g id="Group_10152" data-name="Group 10152" transform="translate(86.756 2.424)">
          <rect id="Rectangle_93" data-name="Rectangle 93" class="cls-3" width="9.251" height="9.251" transform="translate(6.763 21.844)"/>
          <path id="Path_36282" data-name="Path 36282" class="cls-3" d="M128.284,44.753a7.252,7.252,0,0,1-6.685,0c-1.866-1.088-1.866-2.8,0-3.887a7.253,7.253,0,0,1,6.685,0C130.15,42.032,130.15,43.742,128.284,44.753Z" transform="translate(-113.515 -11.327)"/>
          <path id="Path_36283" data-name="Path 36283" class="cls-3" d="M127.619,47.193a5.273,5.273,0,0,1-4.586,0,1.4,1.4,0,0,1,0-2.643,5.273,5.273,0,0,1,4.586,0C128.941,45.249,128.941,46.493,127.619,47.193Z" transform="translate(-113.938 -12.212)"/>
          <rect id="Rectangle_94" data-name="Rectangle 94" class="cls-3" width="12.593" height="2.332" transform="translate(5.131 23.787)"/>
          <path id="Path_36284" data-name="Path 36284" class="cls-3" d="M128.905,35.33a10.044,10.044,0,0,1-8.94,0c-2.488-1.4-2.488-3.731,0-5.131a10.044,10.044,0,0,1,8.94,0C131.393,31.6,131.393,33.853,128.905,35.33Z" transform="translate(-113.047 -8.9)"/>
          <path id="Path_36285" data-name="Path 36285" class="cls-3" d="M128.905,38.13a10.044,10.044,0,0,1-8.94,0c-2.488-1.4-2.488-3.731,0-5.131a10.044,10.044,0,0,1,8.94,0C131.393,34.4,131.393,36.731,128.905,38.13Z" transform="translate(-113.047 -9.523)"/>
          <g id="Group_10149" data-name="Group 10149">
            <path id="Path_36286" data-name="Path 36286" class="cls-25" d="M134.3,13.517c0-5.752-5.053-10.417-11.349-10.417S111.6,7.764,111.6,13.517a10.179,10.179,0,0,0,3.887,7.851,9.253,9.253,0,0,1,2.177,4.509A3.51,3.51,0,0,0,120,28.519a7.734,7.734,0,0,0,5.6.078,3.7,3.7,0,0,0,2.254-2.643,9.707,9.707,0,0,1,2.177-4.431c0-.078.078-.078.078-.155A9.4,9.4,0,0,0,134.3,13.517Z" transform="translate(-111.6 -3.1)"/>
          </g>
          <g id="Group_10151" data-name="Group 10151" transform="translate(2.488 3.265)">
            <g id="Group_10150" data-name="Group 10150">
              <path id="Path_36287" data-name="Path 36287" class="cls-26" d="M132.679,15.54c0-4.586-4.042-8.24-8.94-8.24-4.975,0-8.94,3.654-8.94,8.24a7.768,7.768,0,0,0,3.109,6.219c1.866,2.021,1.943,6.063,1.943,6.063a8.022,8.022,0,0,0,7.618,0s.155-3.809,2.021-5.908l.078-.078A8.031,8.031,0,0,0,132.679,15.54Z" transform="translate(-114.8 -7.3)"/>
            </g>
          </g>
        </g>
        <g id="Group_10153" data-name="Group 10153" transform="translate(92.793 78.419)">
          <path id="Path_36288" data-name="Path 36288" class="cls-27" d="M182.047,143.141v-1.088l-1.4.544-.311-.7-35.37-20.444a1.747,1.747,0,0,0-1.632.078L128.1,130.392v-.233l-2.8,1.166v1.166h0c0,.078.155.233.233.311L162.3,154.023a1.747,1.747,0,0,0,1.632-.078l17.646-10.183c.311-.233.466-.389.466-.622Z" transform="translate(-120.687 -105.408)"/>
          <path id="Path_36289" data-name="Path 36289" class="cls-10" d="M162.29,152.468l-36.769-21.222c-.389-.233-.389-.7.155-.933l17.646-10.183a1.747,1.747,0,0,1,1.632-.078l36.769,21.222c.389.233.389.7-.155.933L163.923,152.39A1.74,1.74,0,0,1,162.29,152.468Z" transform="translate(-120.675 -105.097)"/>
          <path id="Path_36290" data-name="Path 36290" class="cls-27" d="M173.623,141.935l-8.94-5.131a.146.146,0,0,1,0-.233l4.275-2.488a.347.347,0,0,1,.389,0l8.94,5.131a.146.146,0,0,1,0,.233l-4.275,2.488A.347.347,0,0,1,173.623,141.935Z" transform="translate(-129.443 -108.245)"/>
          <path id="Path_36291" data-name="Path 36291" class="cls-24" d="M160.122,124.367a4.227,4.227,0,0,0-1.71-2.565l-36.536-20.755a1.06,1.06,0,0,0-.777-.155h0a.167.167,0,0,0-.155.155l-1.244,1.244,1.088-.078,3.5,22.466a4.227,4.227,0,0,0,1.71,2.565l34.515,19.589,1.088,1.244.155.311c.7.155,2.332-1.011,2.332-1.011Z" transform="translate(-119.44 -100.861)"/>
          <path id="Path_36292" data-name="Path 36292" class="cls-28" d="M161.136,149.7,124.6,128.944a4.018,4.018,0,0,1-1.71-2.565l-3.5-22.7c-.155-.933.389-1.4,1.166-.933L157.094,123.5a4.018,4.018,0,0,1,1.71,2.565l3.5,22.7C162.458,149.777,161.914,150.166,161.136,149.7Z" transform="translate(-119.366 -101.24)"/>
          <path id="Path_36293" data-name="Path 36293" class="cls-24" d="M146.515,133.786c.155,1.244-.933,1.477-2.41.622-1.555-.855-2.954-2.565-3.109-3.731-.155-1.244.933-1.477,2.41-.622C144.96,130.909,146.359,132.542,146.515,133.786Z" transform="translate(-124.178 -107.247)"/>
        </g>
        <path id="Path_36294" data-name="Path 36294" class="cls-29" d="M31.227,66.3s14.226,15.392,17.024,52.16a301.4,301.4,0,0,0,3.809,31.327,8.4,8.4,0,0,1-4.509,9.1,29.6,29.6,0,0,1-18.346,3.265c-2.8-.389-4.2-2.721-4.353-5.364A191.882,191.882,0,0,0,19.1,90.864l2.332-14.148a9.569,9.569,0,0,1,1.244-3.809Z" transform="translate(-4.249 -14.747)"/>
        <path id="Path_36295" data-name="Path 36295" class="cls-29" d="M63.609,57.838s9.639,24.72,4.664,87.3a2.707,2.707,0,0,0,3.965,2.565,62.454,62.454,0,0,0,6.063-3.576,5.291,5.291,0,0,0,2.41-4.586C80.166,126.945,79.7,76.573,79.7,76.573S81.566,54.5,64.231,55.2C43.631,56.05,63.609,57.838,63.609,57.838Z" transform="translate(-12.222 -12.271)"/>
        <path id="Path_36296" data-name="Path 36296" class="cls-30" d="M74.339,56.654c1.555,8.551,4.82,18.268,3.42,24.253l-4.12-.622,2.332,7.54-4.2,29.384S73.1,86.349,64.7,53.7C68.742,53.778,69.908,54.555,74.339,56.654Z" transform="translate(-14.402 -11.942)"/>
        <g id="Group_10158" data-name="Group 10158" transform="translate(26.82 6.524)">
          <path id="Path_36297" data-name="Path 36297" class="cls-22" d="M58.953,60.343,53.9,57s1.555,5.053,4.12,6.53Z" transform="translate(-38.818 -19.2)"/>
          <path id="Path_36298" data-name="Path 36298" class="cls-2" d="M59.325,49.845l3.5-.466a9.962,9.962,0,0,0,8.629-11.116L69.12,20.305A9.962,9.962,0,0,0,58,11.677l-3.5.389a9.962,9.962,0,0,0-8.629,11.116L47.12,36.319C47.82,41.838,53.883,50.544,59.325,49.845Z" transform="translate(-37.013 -9.091)"/>
          <path id="Path_36299" data-name="Path 36299" class="cls-31" d="M53.156,24.8c3.965,1.166,6.141.622,9.95-1.555,4.12-2.41,3.965-8.24,0-10.883-2.177-1.477-2.41-2.41-6.685-3.42-12.049-2.8-23.4,5.053-21.766,18.035,0,0-1.088,17.413,9.639,18.346l1.477-5.441s-1.788-.933.233-3.654A16.542,16.542,0,0,1,48.647,33.5c1.321-1.166,1.321-3.265.855-5.364A2.91,2.91,0,0,1,53.156,24.8Z" transform="translate(-34.498 -8.374)"/>
          <path id="Path_36300" data-name="Path 36300" class="cls-2" d="M45.629,48.41a2.4,2.4,0,0,0,3.887-1.632,5.94,5.94,0,0,0-2.643-5.519,2.4,2.4,0,0,0-3.887,1.632A5.867,5.867,0,0,0,45.629,48.41Z" transform="translate(-36.376 -15.585)"/>
          <path id="Path_36301" data-name="Path 36301" class="cls-20" d="M63.486,42.075c.155.777.544,1.322.933,1.244s.544-.7.466-1.477c-.155-.777-.544-1.321-.933-1.244S63.331,41.3,63.486,42.075Z" transform="translate(-40.941 -15.547)"/>
          <path id="Path_36302" data-name="Path 36302" class="cls-20" d="M73.694,36.375c.155.777.544,1.321.933,1.244s.544-.7.466-1.477c-.155-.777-.544-1.321-.933-1.244C73.772,34.9,73.617,35.6,73.694,36.375Z" transform="translate(-43.221 -14.277)"/>
          <g id="Group_10155" data-name="Group 10155" transform="translate(18.374 21.23)">
            <g id="Group_10154" data-name="Group 10154">
              <path id="Path_36303" data-name="Path 36303" class="cls-21" d="M62.072,35.7a5.857,5.857,0,0,0-3.809,2.565c-.544.777.777,1.555,1.322.777a4.817,4.817,0,0,1,2.876-1.866c.933-.233.544-1.632-.389-1.477Z" transform="translate(-58.134 -35.685)"/>
            </g>
          </g>
          <g id="Group_10157" data-name="Group 10157" transform="translate(26.712 16.575)">
            <g id="Group_10156" data-name="Group 10156">
              <path id="Path_36304" data-name="Path 36304" class="cls-21" d="M73.633,29.7c-1.555.155-3.576.622-4.586,1.866-.622.7.466,1.788,1.088,1.088a5.218,5.218,0,0,1,3.5-1.4c.933-.155.933-1.632,0-1.555Z" transform="translate(-68.861 -29.696)"/>
            </g>
          </g>
          <path id="Path_36305" data-name="Path 36305" class="cls-32" d="M70.966,33.415a9.919,9.919,0,0,1-8.629,11.116l-3.5.466c-3.343.466-5.83-3.343-8.007-7.7h0a1.386,1.386,0,0,1-2.021-.155l-.311-.311,1.011,4.2c.7,5.441,5.208,12.282,10.65,11.583l3.5-.466a9.962,9.962,0,0,0,8.629-11.116L69.955,23.077a9.919,9.919,0,0,0-.544-2.177Z" transform="translate(-37.615 -11.163)"/>
          <path id="Path_36306" data-name="Path 36306" class="cls-24" d="M72.9,45.665,67.225,49.24a.627.627,0,0,0-.233.7c.311.933,1.321,2.876,4.431,1.166a5.147,5.147,0,0,0,2.41-4.9A.59.59,0,0,0,72.9,45.665Z" transform="translate(-41.726 -16.649)"/>
        </g>
        <path id="Path_36307" data-name="Path 36307" class="cls-3" d="M17.4,170.007l6.374,4.042,5.286-7.229L22.22,162.7Z" transform="translate(-3.871 -36.21)"/>
        <g id="Group_10159" data-name="Group 10159" transform="translate(0.015 57.675)">
          <path id="Path_36308" data-name="Path 36308" class="cls-29" d="M19.437,145.633a2.88,2.88,0,0,0-.311-3.887c-4.509-4.2-7-9.95-7.463-17.18-1.011-15.625,7-29,15-41.744,3.965-6.374-6.141-12.282-10.106-5.908C6.922,92.54-1.94,109.02.392,127.987c.933,7.229,3.109,13.992,7.851,19.589a26.593,26.593,0,0,0,3.265,3.343,2.85,2.85,0,0,0,4.042-.389Z" transform="translate(-0.015 -74.175)"/>
        </g>
        <path id="Path_36309" data-name="Path 36309" class="cls-2" d="M30.22,178.964c-.311.311-7.307-2.488-4.509-8.318s11.038-.155,11.038-.155S33.251,176.165,30.22,178.964Z" transform="translate(-5.574 -37.393)"/>
        <g id="Group_10161" data-name="Group 10161" transform="translate(21.29 125.568)">
          <g id="Group_10160" data-name="Group 10160">
            <path id="Path_36310" data-name="Path 36310" class="cls-4" d="M38.513,162.358c-.622,3.576-2.332,6.685-4.2,9.795-1.71,2.721-4.042,4.509-6.53,6.53-1.166.933.466,2.565,1.632,1.632,2.643-2.177,5.053-4.042,6.918-7,2.021-3.265,3.809-6.53,4.431-10.339.233-1.477-1.943-2.1-2.254-.622Z" transform="translate(-27.384 -161.514)"/>
          </g>
        </g>
        <path id="Path_36311" data-name="Path 36311" class="cls-4" d="M27,70.607l8.473,20.755,5.441-.855-1.477,8.629,10.883,25.575a335.151,335.151,0,0,0-6.608-37.779c-1.943-8.007-6.219-14.77-5.986-24.331C33.685,65.321,30.343,67.264,27,70.607Z" transform="translate(-6.008 -13.923)"/>
        <path id="Path_36312" data-name="Path 36312" class="cls-30" d="M29.2,68.574l8.162,20.056,5.441-.855L41.327,96.4l9.484,24.564A180.2,180.2,0,0,0,43.97,79.3c-1.632-5.675-4.975-13.215-3.731-18.5A46.128,46.128,0,0,0,29.2,68.574Z" transform="translate(-6.498 -13.523)"/>
      </g>
    </g>
  </g>
</svg>
