<svg xmlns="http://www.w3.org/2000/svg" viewBox="0 0 306 306">
  <defs>
    <style>
      .cls-1 {
        fill: none;
      }

      .cls-12, .cls-2 {
        fill: #a8c4e5;
      }

      .cls-2 {
        opacity: 0.4;
      }

      .cls-3 {
        fill: #bc4073;
      }

      .cls-4 {
        fill: #423a66;
      }

      .cls-5 {
        fill: #ef9a78;
      }

      .cls-6 {
        fill: #5c5c9e;
      }

      .cls-7 {
        fill: #492817;
      }

      .cls-8 {
        fill: #ffaa82;
      }

      .cls-9 {
        fill: #91b8db;
      }

      .cls-10 {
        fill: #d0e7f4;
      }

      .cls-11 {
        fill: #ea8a6c;
      }

      .cls-13 {
        fill: #46466b;
      }

      .cls-14, .cls-20 {
        fill: #fff;
      }

      .cls-15 {
        fill: #f1a32f;
      }

      .cls-16 {
        fill: #45446c;
      }

      .cls-17 {
        fill: #15253d;
      }

      .cls-18 {
        fill: #56547f;
      }

      .cls-19 {
        fill: #656593;
      }

      .cls-20 {
        opacity: 0.46;
      }

      .cls-21 {
        fill: #513554;
      }

      .cls-22 {
        fill: #fcfeff;
      }

      .cls-23 {
        fill: #e1eaf4;
      }

      .cls-24 {
        fill: #ffd22d;
      }

      .cls-25 {
        fill: #915151;
      }

      .cls-26 {
        fill: #644968;
      }

      .cls-27 {
        fill: #ffde73;
      }

      .cls-28 {
        fill: #352238;
      }

      .cls-29 {
        fill: #514677;
      }

      .cls-30 {
        fill: #424268;
      }
    </style>
  </defs>
  <g id="Group_34603" data-name="Group 34603" transform="translate(-7189 -3489)">
    <rect id="Rectangle_1198" data-name="Rectangle 1198" class="cls-1" width="306" height="306" transform="translate(7189 3489)"/>
    <g id="Group_34600" data-name="Group 34600" transform="translate(7226 3509.651)">
      <g id="Group_10070" data-name="Group 10070" transform="translate(77.523 0.105)">
        <ellipse id="Ellipse_100" data-name="Ellipse 100" class="cls-2" cx="20.95" cy="36.214" rx="20.95" ry="36.214" transform="translate(38.427 240.106) rotate(-89.689)"/>
        <g id="Group_10042" data-name="Group 10042" transform="translate(46.123 193.033)">
          <path id="Path_36095" data-name="Path 36095" class="cls-3" d="M193.188,283.436l-.748-.374a.808.808,0,0,1-.374-1.122h0a.808.808,0,0,1,1.122-.374l.748.374a.808.808,0,0,1,.374,1.122h0A.808.808,0,0,1,193.188,283.436Z" transform="translate(-171.977 -263.975)"/>
          <path id="Path_36096" data-name="Path 36096" class="cls-4" d="M192,281.039v-3.816a.83.83,0,0,1,.823-.823h0a.83.83,0,0,1,.823.823v3.816a.83.83,0,0,1-.823.823h0A.83.83,0,0,1,192,281.039Z" transform="translate(-171.986 -262.701)"/>
          <g id="Group_10041" data-name="Group 10041">
            <path id="Path_36097" data-name="Path 36097" class="cls-3" d="M188.707,262.146c-.973-1.8-3.442-3.816-4.714-3.367l-3.517,5.612-.524.15c-1.945,2.469-11.672,12.87-14.366,16.686-1.347,1.945,1.8,3.068,1.8,3.068,6.659,1.2,13.244-1.8,13.244-1.8,2.843-1.945.973-4.564,3.891-8.829.524-.748,1.646-1.422,1.871-.748l-.224,4.489,1.571-.3s.973-6.435,1.8-10.849A4.971,4.971,0,0,0,188.707,262.146Z" transform="translate(-165.252 -258.248)"/>
            <path id="Path_36098" data-name="Path 36098" class="cls-5" d="M185.11,258.1l-2.918,2.469s-7.407,11.6-8.754,13.842c-1.646,2.694,8.081,7.333,14.74-8.455C192.967,257.574,185.11,258.1,185.11,258.1Z" transform="translate(-167.266 -258.091)"/>
          </g>
        </g>
        <g id="Group_10044" data-name="Group 10044" transform="translate(50.216 102.176)">
          <g id="Group_10043" data-name="Group 10043">
            <path id="Path_36099" data-name="Path 36099" class="cls-5" d="M170.855,142.227c-.3,19.08-.224,38.309,1.571,57.314,1.048,11.373,2.993,22.522,4.938,33.745,1.272,7.333,12.346,4.19,11.149-3.068-1.871-10.924-3.591-20.876-4.564-31.426-1.721-18.781-1.8-37.711-1.5-56.641.075-7.333-11.448-7.333-11.6.075Z" transform="translate(-170.721 -136.662)"/>
          </g>
        </g>
        <g id="Group_10046" data-name="Group 10046" transform="translate(48.732 98.866)">
          <g id="Group_10045" data-name="Group 10045">
            <path id="Path_36100" data-name="Path 36100" class="cls-6" d="M170.056,138.719c-1.347,19.005-2.1,38.085-.075,57.09.374,3.592,2.843,6.734,6.734,6.734,3.367,0,7.108-3.068,6.734-6.734-2.02-19.005-1.272-38.085.075-57.09.6-8.679-12.87-8.6-13.468,0Z" transform="translate(-168.738 -132.237)"/>
          </g>
        </g>
        <g id="Group_10047" data-name="Group 10047" transform="translate(48.766 8.548)">
          <path id="Path_36101" data-name="Path 36101" class="cls-7" d="M169.843,22.805c-1.347,3.816-1.721,8.38.748,11.523a15.627,15.627,0,0,0,1.5,1.646,25.7,25.7,0,0,1,3.442,4.639,2.122,2.122,0,0,0,.6.823,1.752,1.752,0,0,0,2.1-.374,12.48,12.48,0,0,0,1.272-1.945c1.272-1.945,27.31,13.244,28.582,11.373,1.721-2.544-4.639-31.351-5.387-34.419-.9-3.816-19.9,1.272-23.046-1.122-.6-.449-1.272-.9-1.871-1.422h0c-.823-.823-1.5-2.469-2.843-1.871-1.048.449-1.422,2.394-1.8,3.292C172.163,17.568,170.816,20.112,169.843,22.805Z" transform="translate(-168.783 -11.529)"/>
        </g>
        <g id="Group_10049" data-name="Group 10049" transform="translate(66.119 37.331)">
          <g id="Group_10048" data-name="Group 10048">
            <path id="Path_36102" data-name="Path 36102" class="cls-6" d="M211.971,56.359c-4.639-4.564-12.645-6.435-18.93-6.36a1.124,1.124,0,0,0,0,2.245c5.687-.075,13.169,1.571,17.359,5.761.973.973,2.544-.6,1.571-1.646Z" transform="translate(-191.975 -49.997)"/>
          </g>
        </g>
        <g id="Group_10051" data-name="Group 10051" transform="translate(7.555 54.945)">
          <g id="Group_10050" data-name="Group 10050">
            <path id="Path_36103" data-name="Path 36103" class="cls-8" d="M114.525,79.795c4.489,6.061,9.2,12.121,14.815,17.209,3.891,3.592,9.877,8.305,14.89,3.816,4.19-3.741-1.945-9.8-6.135-6.135.15-.15,2.17-.823,2.1-.6,0,.075-.6-.3-.374-.075a14.83,14.83,0,0,0-2.32-1.422,41.537,41.537,0,0,1-5.312-4.938A122.941,122.941,0,0,1,122.007,75.38c-3.292-4.415-10.775-.075-7.482,4.415Z" transform="translate(-113.706 -73.538)"/>
          </g>
        </g>
        <g id="Group_10053" data-name="Group 10053" transform="translate(31.569 36.295)">
          <g id="Group_10052" data-name="Group 10052">
            <path id="Path_36104" data-name="Path 36104" class="cls-9" d="M166.152,54.14c-1.122,13.094-6.809,24.018-17.733,31.426-6.135,4.115-.374,14.142,5.836,9.951,6.36-4.34,12.047-9.577,16.087-16.162,4.639-7.632,6.659-16.386,7.407-25.215.524-7.407-11-7.333-11.6,0Z" transform="translate(-145.8 -48.612)"/>
          </g>
        </g>
        <g id="Group_10055" data-name="Group 10055" transform="translate(74.059 104.496)">
          <g id="Group_10054" data-name="Group 10054">
            <path id="Path_36105" data-name="Path 36105" class="cls-8" d="M202.6,145.327c.973,17.209.6,34.568,0,51.777a21.663,21.663,0,0,0,1.272,8.156c2.17,6.435,4.415,12.795,6.734,19.155a229.712,229.712,0,0,0,9.353,23.12c3.292,6.659,13.244.823,9.951-5.836-5.911-11.972-10.026-25.29-14.366-38.085-.449-1.347-.748-3.517-1.571-4.639-.524-.673-.15,1.571.15.973a6.037,6.037,0,0,0,.075-2.02c.224-6.809.374-13.693.524-20.5.15-10.7.15-21.474-.449-32.174-.524-7.333-12.047-7.333-11.672.075Z" transform="translate(-202.588 -139.762)"/>
          </g>
        </g>
        <path id="Path_36106" data-name="Path 36106" class="cls-6" d="M210.515,141.762c-1.2,16.237-11.523,17.808-22,11.822-6.435-3.741-14.965-8.754-17.583-16.087-1.646-4.564,1.347-11.149,1.347-15.713,0,0,5.836-17.883,16.311-11.9C198.992,115.873,211.862,122.982,210.515,141.762Z" transform="translate(-120.434 -27.436)"/>
        <path id="Path_36107" data-name="Path 36107" class="cls-10" d="M174.313,63.5s-6.959,10.849-6.135,17.434c.524,4.19,3.517,8.9,3.966,10.176,3.591,10.924,1.646,14.291,2.02,17.284,0,0,2.394,10.4,28.133.6l10.774-31.725Z" transform="translate(-119.848 -16.066)"/>
        <path id="Path_36108" data-name="Path 36108" class="cls-10" d="M212.221,80.947a3.324,3.324,0,0,0,1.2-2.1c.673-5.687,3.741-8.231-2.394-17.883-.973-1.571-14.441-8.53-24.542-10.326a10.818,10.818,0,0,0-11.747,6.435,60.917,60.917,0,0,0-2.245,7.931c-.449,10.4,4.115-3.217,4.863,2.469,0-.15-.075-.3-.075-.449,0,0,1.272,9.652,2.17,17.209.6,4.714.973,8.081,1.048,8.53v.075L198,106.686,207.207,90h0Z" transform="translate(-120.943 -12.787)"/>
        <path id="Path_36109" data-name="Path 36109" class="cls-8" d="M190.563,50.4s-8.754,9.054-1.2,15.488,20.576-7.931,20.576-7.931C203.133,53.692,196.623,50.849,190.563,50.4Z" transform="translate(-124.425 -12.768)"/>
        <path id="Path_36110" data-name="Path 36110" class="cls-8" d="M194.664,50.983,190.1,33.4l11,3.517,3.741,14.366C205.588,53.6,197.956,59.962,194.664,50.983Z" transform="translate(-125.384 -8.488)"/>
        <path id="Path_36111" data-name="Path 36111" class="cls-11" d="M194.7,51.344l4.938-2.544s-1.721,3.591-4.115,5.013Z" transform="translate(-126.542 -12.365)"/>
        <g id="Group_10057" data-name="Group 10057" transform="translate(79.973 48.221)">
          <g id="Group_10056" data-name="Group 10056" transform="translate(0 0)">
            <path id="Path_36112" data-name="Path 36112" class="cls-8" d="M216.109,71.023c3.292,5.537,6.734,11,9.877,16.536,3.741,6.584,2.768,13.842-1.871,19.678-4.415,5.462-8.9,10.775-12.87,16.611-3.143,4.639,4.34,8.979,7.482,4.34,4.19-6.21,9.353-11.672,13.693-17.733a25.113,25.113,0,0,0,2.993-23.2c-2.768-7.333-7.856-13.992-11.822-20.726-2.918-4.639-10.326-.3-7.482,4.489Z" transform="translate(-210.491 -64.552)"/>
          </g>
        </g>
        <path id="Path_36113" data-name="Path 36113" class="cls-8" d="M104.35,68.722h0a5.041,5.041,0,0,1,6.884-1.571l8.006,5.013a5.041,5.041,0,0,1,1.571,6.884h0a5.041,5.041,0,0,1-6.884,1.571l-8.006-5.013A5.041,5.041,0,0,1,104.35,68.722Z" transform="translate(-103.608 -16.798)"/>
        <g id="Group_10059" data-name="Group 10059" transform="translate(91.802 199.681)">
          <path id="Path_36114" data-name="Path 36114" class="cls-3" d="M246.392,286.142l-.823.15a.846.846,0,0,1-.973-.673h0a.846.846,0,0,1,.673-.973l.823-.15a.846.846,0,0,1,.973.673h0A.846.846,0,0,1,246.392,286.142Z" transform="translate(-230.904 -271.384)"/>
          <path id="Path_36115" data-name="Path 36115" class="cls-4" d="M243.957,284.9l-2.32-3.068a.843.843,0,0,1,.15-1.2h0a.843.843,0,0,1,1.2.15l2.32,3.068a.843.843,0,0,1-.15,1.2h0A.843.843,0,0,1,243.957,284.9Z" transform="translate(-230.115 -270.369)"/>
          <g id="Group_10058" data-name="Group 10058">
            <path id="Path_36116" data-name="Path 36116" class="cls-3" d="M234.376,268.192c-1.871-.823-5.013-.9-5.836.224l.673,6.584-.3.449c0,3.143-1.347,17.359-1.122,22,.075,2.319,3.292,1.347,3.292,1.347,5.986-3.068,9.353-9.5,9.353-9.5,1.048-3.292-2.02-4.265-2.32-9.353-.075-.9.449-2.17.973-1.721l2.544,3.741,1.048-1.2s-3.217-5.687-5.238-9.652C236.7,269.314,235.5,268.342,234.376,268.192Z" transform="translate(-226.669 -267.126)"/>
            <path id="Path_36117" data-name="Path 36117" class="cls-8" d="M227.123,268.415l-.823,3.741s1.272,13.693,1.571,16.311c.374,3.143,10.849.823,6.435-15.788C233.109,263.178,227.123,268.415,227.123,268.415Z" transform="translate(-226.3 -266.975)"/>
          </g>
        </g>
        <path id="Path_36118" data-name="Path 36118" class="cls-12" d="M208.959,87.3a33.634,33.634,0,0,1-3.517,5.986,15.894,15.894,0,0,1-16.536,5.986A99.323,99.323,0,0,1,170.5,92.463s3.966,12.72,2.544,20.127c-.673,3.442-.15,2.768-.15,2.768.225,3.292,5.612,2.394,5.612,2.394,11.6,3.591,24.392-2.768,24.392-2.768l7.482-21.923Z" transform="translate(-120.45 -22.058)"/>
        <g id="Group_10061" data-name="Group 10061" transform="translate(80.619 45.148)">
          <g id="Group_10060" data-name="Group 10060">
            <path id="Path_36119" data-name="Path 36119" class="cls-10" d="M212.96,70.288c4.265,5.537,9.727,10.625,13.094,16.835,2.918,5.387.673,10.775-1.945,15.862-3.367,6.584,6.584,12.421,9.951,5.836,4.115-7.931,6.809-16.461,3.143-25.066-3.517-8.231-10.7-14.665-16.087-21.624-1.945-2.469-6.135-2.02-8.156,0-2.394,2.394-1.871,5.687,0,8.156Z" transform="translate(-211.355 -60.444)"/>
          </g>
        </g>
        <path id="Path_36120" data-name="Path 36120" class="cls-13" d="M171.887,122.992h0a2.13,2.13,0,0,0,.748,2.02c2.17,1.721,8.006,5.312,17.134,4.34,7.856-.823,12.421-2.544,14.665-3.666a2.017,2.017,0,0,0,1.047-2.544l-.224-.6a2.015,2.015,0,0,0-2.694-1.2c-4.115,1.721-13.992,5.312-20.95,3.217a22.24,22.24,0,0,1-6.584-2.918A2.065,2.065,0,0,0,171.887,122.992Z" transform="translate(-120.789 -30.589)"/>
        <path id="Path_36121" data-name="Path 36121" class="cls-14" d="M187.008,130.867l-4.415-.9a3.422,3.422,0,0,1-2.694-3.217h0a2.144,2.144,0,0,1,2.694-2.17l4.415.9A3.422,3.422,0,0,1,189.7,128.7h0A2.144,2.144,0,0,1,187.008,130.867Z" transform="translate(-122.816 -31.431)"/>
        <path id="Path_36122" data-name="Path 36122" class="cls-13" d="M186.615,130.059l-2.544-.524a2,2,0,0,1-1.571-1.871h0a1.278,1.278,0,0,1,1.571-1.272l2.544.524a2,2,0,0,1,1.571,1.871h0A1.308,1.308,0,0,1,186.615,130.059Z" transform="translate(-123.471 -31.895)"/>
        <g id="Group_10063" data-name="Group 10063" transform="translate(61.478 37.847)">
          <g id="Group_10062" data-name="Group 10062">
            <path id="Path_36123" data-name="Path 36123" class="cls-6" d="M187.514,51.744c-.374,5.836-4.863,11.972,2.245,15.189,7.707,3.517,15.189-3.217,20.427-8.081,1.048-.973-.524-2.544-1.571-1.571-4.564,4.265-11.972,11.149-18.631,7.258-2.993-1.721-1.871-4.415-1.272-7.258a35.131,35.131,0,0,0,1.048-5.462c.15-1.5-2.1-1.5-2.245-.075Z" transform="translate(-185.773 -50.687)"/>
          </g>
        </g>
        <path id="Path_36124" data-name="Path 36124" class="cls-8" d="M190.816,39.887l-3.442.15a9.6,9.6,0,0,1-9.877-9.278l-.6-17.434a9.6,9.6,0,0,1,9.278-9.877l3.442-.15a9.6,9.6,0,0,1,9.877,9.278l.6,17.434A9.7,9.7,0,0,1,190.816,39.887Z" transform="translate(-122.06 -0.908)"/>
        <path id="Path_36125" data-name="Path 36125" class="cls-7" d="M192.725,16.862c-3.966-4.938-11.373.973-15.339-.6-4.34-1.646-2.843-6.061.075-9.652,1.571-1.945,3.592-3.517,7.557-5.013,11.149-4.19,22.372.524,22.746,13.094,0,0,1.048,17.284-9.054,19.828l-.673-2.544s5.761-6.36-.374-10.1c-1.422-.9-1.5-.9-1.347-2.993C196.466,16.712,194.072,18.508,192.725,16.862Z" transform="translate(-121.5 -0.105)"/>
        <path id="Path_36126" data-name="Path 36126" class="cls-14" d="M181.52,39.077l5.911,2.544a.666.666,0,0,1,.374.6c-.15.973-.823,2.918-4.04,1.8a5.006,5.006,0,0,1-3.068-4.34A.565.565,0,0,1,181.52,39.077Z" transform="translate(-123.015 -9.9)"/>
        <path id="Path_36127" data-name="Path 36127" class="cls-7" d="M193.047,34.247c0,.748-.3,1.347-.673,1.347s-.673-.6-.673-1.347.3-1.347.673-1.347S193.047,33.5,193.047,34.247Z" transform="translate(-125.787 -8.362)"/>
        <path id="Path_36128" data-name="Path 36128" class="cls-7" d="M181.347,29.647c0,.748-.3,1.347-.673,1.347S180,30.4,180,29.647s.3-1.347.673-1.347S181.347,28.9,181.347,29.647Z" transform="translate(-122.841 -7.204)"/>
        <g id="Group_10065" data-name="Group 10065" transform="translate(64.959 20.348)">
          <g id="Group_10064" data-name="Group 10064">
            <path id="Path_36129" data-name="Path 36129" class="cls-7" d="M191.155,28.8a6.386,6.386,0,0,1,3.891,1.721c.673.673,1.646-.374,1.048-1.048a7.5,7.5,0,0,0-4.938-2.17.748.748,0,0,0,0,1.5Z" transform="translate(-190.425 -27.3)"/>
          </g>
        </g>
        <g id="Group_10067" data-name="Group 10067" transform="translate(55.297 16.739)">
          <g id="Group_10066" data-name="Group 10066">
            <path id="Path_36130" data-name="Path 36130" class="cls-7" d="M178.176,23.916a6.2,6.2,0,0,1,4.04,1.422c.673.6,1.721-.374,1.048-1.048a7.388,7.388,0,0,0-5.013-1.8c-.973,0-.973,1.5-.075,1.422Z" transform="translate(-177.512 -22.477)"/>
          </g>
        </g>
        <g id="Group_10069" data-name="Group 10069" transform="translate(73.475 109.687)">
          <g id="Group_10068" data-name="Group 10068">
            <path id="Path_36131" data-name="Path 36131" class="cls-6" d="M203.149,153.21c.3,18.481-3.367,36.588.3,54.92,1.721,8.53,14.665,4.863,13.019-3.592-3.367-16.985.524-34.269.224-51.329-.224-8.679-13.693-8.679-13.543,0Z" transform="translate(-201.807 -146.7)"/>
          </g>
        </g>
        <path id="Path_36132" data-name="Path 36132" class="cls-8" d="M216.8,156.025h0a5.692,5.692,0,0,1-6.21-5.088l-.6-5.836a5.692,5.692,0,0,1,5.088-6.21h0a5.692,5.692,0,0,1,6.21,5.088l.6,5.836A5.7,5.7,0,0,1,216.8,156.025Z" transform="translate(-130.386 -35.04)"/>
        <path id="Path_36133" data-name="Path 36133" class="cls-7" d="M197.421,19.712S208.57,34.3,207.6,43.88c-.823,7.931-9.428,12.944-10.924,24.841a2.472,2.472,0,0,0,4.415,1.8,34.606,34.606,0,0,1,7.482-7.258c7.482-5.088,8.829-10.475,8.081-14.516s-3.816-32.922-3.816-32.922L195.7,14.1Z" transform="translate(-126.794 -3.628)"/>
        <path id="Path_36134" data-name="Path 36134" class="cls-8" d="M209.018,36.94c-1.571,1.272-3.292.823-3.891-.973a5.53,5.53,0,0,1,1.646-5.612c1.571-1.272,3.292-.823,3.891.973A5.344,5.344,0,0,1,209.018,36.94Z" transform="translate(-129.113 -7.539)"/>
        <path id="Path_36135" data-name="Path 36135" class="cls-7" d="M174.1,29.31s.15-5.761,14.067-13.393.6-.374.6-.374L175,12.4C175,12.475,169.61,18.685,174.1,29.31Z" transform="translate(-120.906 -3.2)"/>
      </g>
      <ellipse id="Ellipse_101" data-name="Ellipse 101" class="cls-2" cx="20.95" cy="36.214" rx="20.95" ry="36.214" transform="translate(13.4 265.296) rotate(-89.689)"/>
      <g id="Group_10072" data-name="Group 10072" transform="translate(3.598 52.934)">
        <g id="Group_10071" data-name="Group 10071">
          <path id="Path_36136" data-name="Path 36136" class="cls-8" d="M21.263,72.648c-4.639,6.884-7.407,15.039-9.877,22.9q-3.255,10.438-5.612,21.1c-.3,1.347-.673,2.694-.9,3.966-.3,2.1.449,3.367,1.122,5.312a127.129,127.129,0,0,1,6.809,29.854c.6,5.462,9.2,5.537,8.679,0a144.6,144.6,0,0,0-6.51-30.378,33.149,33.149,0,0,0-1.272-3.517c-1.048-2.1.673-.374-.524,1.048.6-.673.6-2.918.823-3.741,1.571-6.884,3.292-13.767,5.387-20.5,2.32-7.482,4.863-15.189,9.278-21.7,3.217-4.564-4.34-8.9-7.407-4.34Z" transform="translate(-4.809 -70.71)"/>
        </g>
      </g>
      <path id="Path_36137" data-name="Path 36137" class="cls-15" d="M18.689,75.822C13,85.774,8.813,102.609,5.071,116.3c-1.422,3.741-.524,7.183,1.871,7.033l7.931,1.122c1.945-.15,5.687-4.34,6.584-7.557l10.1-34.718c1.646-5.612.449-10.475-2.768-11.223l-.748-.075C27.518,68.789,23.029,68.714,18.689,75.822Z" transform="translate(-1.106 -17.509)"/>
      <g id="Group_10073" data-name="Group 10073" transform="translate(0 88.225)">
        <path id="Path_36138" data-name="Path 36138" class="cls-16" d="M44.37,151.19,4.415,174.236A2.954,2.954,0,0,1,0,171.692V143.857a2.837,2.837,0,0,1,1.5-2.544l39.955-23.045a2.954,2.954,0,0,1,4.415,2.544v27.834A3.161,3.161,0,0,1,44.37,151.19Z" transform="translate(0 -117.876)"/>
        <path id="Path_36139" data-name="Path 36139" class="cls-14" d="M35.776,150.677a11.018,11.018,0,0,1-5.088,8.754c-2.843,1.646-5.088.3-5.088-2.918a11.018,11.018,0,0,1,5.088-8.754C33.456,146.112,35.776,147.384,35.776,150.677Z" transform="translate(-6.445 -125.219)"/>
      </g>
      <path id="Path_36140" data-name="Path 36140" class="cls-8" d="M27.292,183.418l-2.918,1.347a4.461,4.461,0,0,1-5.911-2.245h0a4.461,4.461,0,0,1,2.245-5.911l2.918-1.347a4.461,4.461,0,0,1,5.911,2.245h0A4.5,4.5,0,0,1,27.292,183.418Z" transform="translate(-4.546 -43.997)"/>
      <path id="Path_36141" data-name="Path 36141" class="cls-17" d="M49.513,313.63c-.3.224-4.19,2.17-4.415,2.394-.374.3-1.5,1.272-2.17,1.721-1.422,1.048-4.489,4.938-9.428,2.17-7.258-4.04,10.026-15.563,10.026-15.563l7.632-3.966a3.493,3.493,0,0,1,2.993,0h0a3.465,3.465,0,0,1,1.5,4.789C54,308.094,53.928,309.74,49.513,313.63Z" transform="translate(-7.986 -75.517)"/>
      <path id="Path_36142" data-name="Path 36142" class="cls-18" d="M48.413,310.73c-.3.224-4.19,2.17-4.415,2.394-.374.3-1.5,1.272-2.17,1.721-1.422,1.048-4.489,4.938-9.428,2.17-7.258-4.04,10.026-15.563,10.026-15.563l7.632-3.966a3.493,3.493,0,0,1,2.993,0h0a3.465,3.465,0,0,1,1.5,4.789C52.977,305.193,52.828,306.84,48.413,310.73Z" transform="translate(-7.71 -74.787)"/>
      <path id="Path_36143" data-name="Path 36143" class="cls-19" d="M58.484,305.168c.374-.748.973-2.245,1.5-3.143a3.359,3.359,0,0,0-1.646-4.639,3.493,3.493,0,0,0-2.993,0L51.6,299.332A15.655,15.655,0,0,1,58.484,305.168Z" transform="translate(-12.991 -74.762)"/>
      <g id="Group_10075" data-name="Group 10075" transform="translate(45.107 20.557)">
        <path id="Path_36144" data-name="Path 36144" class="cls-20" d="M72.278,34.336l.075,1.646s.224,4.938-4.639,2.394S63,29.7,63,29.7,66.666,29.248,72.278,34.336Z" transform="translate(-60.968 -28.004)"/>
        <path id="Path_36145" data-name="Path 36145" class="cls-21" d="M67.328,38.075c6.36,3.292,6.135-2.469,6.135-2.469h.075l-.224-1.945C66.28,27.6,61.791,27.9,61.791,27.9S61.042,34.783,67.328,38.075Zm-4.415-8.6s3.591-.224,8.979,4.489l.075,1.422s.15,4.265-4.564,1.8C62.763,34.783,62.913,29.47,62.913,29.47Z" transform="translate(-60.657 -27.554)"/>
        <path id="Path_36146" data-name="Path 36146" class="cls-21" d="M79.266,38.391,75.45,36.67,75.3,34.5l3.741,1.721Z" transform="translate(-64.065 -29.216)"/>
        <path id="Path_36147" data-name="Path 36147" class="cls-21" d="M61.718,29.43l-.673-.3a1.536,1.536,0,0,1-.748-1.122h0c-.075-.449.224-.673.6-.524l.673.3a1.536,1.536,0,0,1,.748,1.122h0C62.316,29.355,62.092,29.58,61.718,29.43Z" transform="translate(-60.285 -27.438)"/>
        <path id="Path_36148" data-name="Path 36148" class="cls-21" d="M94.218,44.23l-.673-.3a1.536,1.536,0,0,1-.748-1.122h0c-.075-.449.224-.673.6-.524l.673.3a1.536,1.536,0,0,1,.748,1.122h0C94.816,44.155,94.592,44.38,94.218,44.23Z" transform="translate(-68.467 -31.164)"/>
        <g id="Group_10074" data-name="Group 10074" transform="translate(13.779 6.631)">
          <path id="Path_36149" data-name="Path 36149" class="cls-20" d="M80.7,38.5l.224,1.646s.748,5.013,5.387,6.809S89.6,42.088,89.6,42.088,85.638,38.272,80.7,38.5Z" transform="translate(-79.204 -36.851)"/>
          <path id="Path_36150" data-name="Path 36150" class="cls-21" d="M90.148,41.014S85.21,36.45,78.7,36.3l.224,1.945H79a11.648,11.648,0,0,0,7.183,8.53C92.318,49.244,90.148,41.014,90.148,41.014Zm-4.34,4.714A8.576,8.576,0,0,1,80.5,39.443l-.224-1.5c4.938,0,8.9,3.666,8.9,3.666S90.447,47.6,85.808,45.728Z" transform="translate(-78.7 -36.3)"/>
          <path id="Path_36151" data-name="Path 36151" class="cls-22" d="M82.247,41.281h0c-.15-.224-.224-.449-.075-.524l1.122-1.272c.075-.075.3-.075.449.15h0c.15.224.224.449.075.524L82.7,41.43C82.547,41.58,82.4,41.505,82.247,41.281Z" transform="translate(-79.554 -37.091)"/>
        </g>
        <path id="Path_36152" data-name="Path 36152" class="cls-22" d="M64.247,32.781h0c-.15-.224-.224-.449-.075-.524l1.122-1.272c.075-.075.3-.075.449.15h0c.15.224.224.449.075.524L64.7,32.93C64.621,33.005,64.4,32.93,64.247,32.781Z" transform="translate(-61.243 -28.32)"/>
      </g>
      <path id="Path_36153" data-name="Path 36153" class="cls-17" d="M85.36,335.927c-.3.15-4.564,1.347-4.863,1.5-.449.224-1.721.9-2.469,1.272-1.646.748-5.387,3.966-9.652.3-6.285-5.387,12.944-13.244,12.944-13.244l8.305-2.394a3.385,3.385,0,0,1,2.993.6h0a3.5,3.5,0,0,1,.524,5.013C90.9,331.362,90.448,333.008,85.36,335.927Z" transform="translate(-16.897 -81.352)"/>
      <path id="Path_36154" data-name="Path 36154" class="cls-18" d="M84.86,332.827c-.3.15-4.564,1.347-4.863,1.5-.449.224-1.721.9-2.469,1.272-1.646.748-5.387,3.966-9.652.3-6.285-5.387,12.944-13.244,12.944-13.244l8.305-2.394a3.385,3.385,0,0,1,2.993.6h0a3.5,3.5,0,0,1,.524,5.013C90.4,328.337,89.948,329.983,84.86,332.827Z" transform="translate(-16.771 -80.572)"/>
      <g id="Group_10077" data-name="Group 10077" transform="translate(46.304 144.102)">
        <g id="Group_10076" data-name="Group 10076">
          <path id="Path_36155" data-name="Path 36155" class="cls-21" d="M62.27,200.745c5.761,16.835,6.285,35.017,5.761,52.675-.374,13.169-2.469,26.412-2.17,39.581.224,8.6,13.693,8.679,13.468,0-.374-13.543,1.8-27.161,2.17-40.7.524-18.406-.224-37.561-6.285-55.145-2.768-8.081-15.713-4.639-12.944,3.591Z" transform="translate(-61.884 -192.556)"/>
        </g>
      </g>
      <g id="Group_10079" data-name="Group 10079" transform="translate(19.401 128.848)">
        <g id="Group_10078" data-name="Group 10078">
          <path id="Path_36156" data-name="Path 36156" class="cls-21" d="M26.207,180.5c2.918,10.625,4.34,21.624,5.387,32.623.673,6.809,1.571,13.468.823,20.277C31,246.865,28.451,260.633,28.6,274.176c.075,8.68,13.468,8.68,13.468,0-.075-13.767,2.469-27.685,3.891-41.377.748-7.033-.3-13.992-1.048-20.95-1.2-11.747-2.619-23.569-5.761-34.942-2.32-8.305-15.264-4.789-12.944,3.592Z" transform="translate(-25.93 -172.169)"/>
        </g>
      </g>
      <g id="Group_10081" data-name="Group 10081" transform="translate(51.071 242.677)">
        <g id="Group_10080" data-name="Group 10080">
          <path id="Path_36157" data-name="Path 36157" class="cls-23" d="M79.288,325.273c-2.843,2.469-8.754,2.17-11-.973,0,1.721-.075,3.442,0,5.238.15,7.033,11.149,7.108,11,0Z" transform="translate(-68.256 -324.3)"/>
        </g>
      </g>
      <g id="Group_10082" data-name="Group 10082" transform="translate(18.964 121.032)">
        <path id="Path_36158" data-name="Path 36158" class="cls-21" d="M37.059,195.6h0c1.272,1.422-4.115-5.387-2.469-4.415,3.292,2.02,22,14.665,25.889,14.74,4.714.075,1.945-4.489,5.462-7.557,3.292-2.993,4.115-7.782,4.415-12.271a7.62,7.62,0,0,0-.374-3.666,8.349,8.349,0,0,0-2.694-2.918c-8.305-6.285-24.617-21.773-36.14-16.835C17.679,168.514,31.073,188.941,37.059,195.6Z" transform="translate(-25.345 -161.722)"/>
      </g>
      <path id="Path_36159" data-name="Path 36159" class="cls-24" d="M27.288,72.663c-2.469,3.143-2.17,5.088-2.02,9.428A9.846,9.846,0,0,0,32.3,91.145l41.527,11.672s2.394-16.012-5.836-20.8c-4.415-2.619-11.3-6.734-16.611-10.026C43.449,67.2,32.974,65.406,27.288,72.663Z" transform="translate(-6.337 -17.043)"/>
      <path id="Path_36160" data-name="Path 36160" class="cls-8" d="M53.29,68.338,56.806,52.7l9.577,6.435L63.54,73.426C63.166,75.671,52.616,73.65,53.29,68.338Z" transform="translate(-13.409 -13.242)"/>
      <path id="Path_36161" data-name="Path 36161" class="cls-8" d="M57.851,21.743s-9.577-6.659-9.652,9.5a28.038,28.038,0,0,0,16.012,25.44c5.761,2.768,12.795-.748,13.094-6.36,1.347-8.156,1.422-15.862-1.272-22.447.374-6.734-4.265-4.34-12.346-4.789Z" transform="translate(-12.135 -5.106)"/>
      <path id="Path_36162" data-name="Path 36162" class="cls-25" d="M50.3,52.024S39.229,47.908,40.276,32.345C41.4,15.51,56.887,16.932,65.567,16.109c3.816-.374,6.435-.9,10.4,2.544,3.592,3.143.224,10.326-4.863,10.775-2.02.15-1.122,5.612-1.5,7.482-.748,3.292-2.768,4.938-3.591,8.156-.748,3.068-5.238,7.856-8.156,8.156C52.7,53.819,50.3,52.024,50.3,52.024Z" transform="translate(-10.123 -3.961)"/>
      <path id="Path_36163" data-name="Path 36163" class="cls-24" d="M24.524,150.606C21.906,149.558,22.5,104.141,24.9,79l46.69,22.3c-.224,21.4-2.918,38.235-.374,64.273Z" transform="translate(-5.744 -19.863)"/>
      <path id="Path_36164" data-name="Path 36164" class="cls-24" d="M56.216,192.26c-11.523-4.19-22.522-8.829-29.031-16.76-3.143-1.871-2.768-5.088.9-7.183h0c3.666-2.1,9.278-2.32,12.421-.524l29.031,16.76c3.143,1.871,2.768,5.088-.9,7.183h0C64.97,193.831,59.358,194.056,56.216,192.26Z" transform="translate(-6.309 -41.914)"/>
      <path id="Path_36165" data-name="Path 36165" class="cls-15" d="M74.707,107.566,67,103.9c-.3,20.8-2.843,37.561-.374,63.151l-.15-.075c.075,1.422-.973,2.993-3.068,4.19h0c-3.666,2.1-9.278,2.32-12.421.524A131.58,131.58,0,0,1,35.2,165.03c6.36,4.864,14.815,8.305,23.494,11.448,3.143,1.871,8.754,1.571,12.421-.524h0c2.1-1.2,3.068-2.694,3.068-4.19l.15.075C71.788,145.8,74.482,128.891,74.707,107.566Z" transform="translate(-8.862 -26.132)"/>
      <path id="Path_36166" data-name="Path 36166" class="cls-26" d="M64.5,322.453l.15,4.864a1,1,0,0,0,.224.6,8.842,8.842,0,0,0,8.9,3.367,20.449,20.449,0,0,0,8.081-2.918,1.067,1.067,0,0,0,.449-.9l-.449-4.938a1.018,1.018,0,0,0-1.5-.823c-2.32,1.422-7.557,3.442-14.142-.15C65.323,321.181,64.5,321.63,64.5,322.453Z" transform="translate(-16.239 -80.898)"/>
      <path id="Path_36167" data-name="Path 36167" class="cls-19" d="M96.812,328.387c.524-.673,1.422-1.945,2.1-2.768a3.362,3.362,0,0,0-.673-4.863,3.3,3.3,0,0,0-2.993-.6l-4.04,1.122A15.161,15.161,0,0,1,96.812,328.387Z" transform="translate(-22.961 -80.547)"/>
      <g id="Group_10084" data-name="Group 10084" transform="translate(23.237 228.237)">
        <g id="Group_10083" data-name="Group 10083">
          <path id="Path_36168" data-name="Path 36168" class="cls-23" d="M42.088,305.973c-2.843,2.469-8.754,2.17-11-.973,0,1.721-.075,3.442,0,5.238.15,7.033,11.149,7.108,11,0Z" transform="translate(-31.056 -305)"/>
        </g>
      </g>
      <path id="Path_36169" data-name="Path 36169" class="cls-26" d="M27.3,303.156l.15,4.864a1,1,0,0,0,.224.6,8.842,8.842,0,0,0,8.9,3.367,20.449,20.449,0,0,0,8.081-2.918,1.067,1.067,0,0,0,.449-.9l-.449-4.938a1.018,1.018,0,0,0-1.5-.823c-2.32,1.422-7.557,3.442-14.142-.15C28.122,301.884,27.224,302.408,27.3,303.156Z" transform="translate(-6.872 -76.042)"/>
      <path id="Path_36170" data-name="Path 36170" class="cls-21" d="M89.236,44.993,74.944,46.339a.931.931,0,0,1-1.048-.823h0a.83.83,0,0,1,.823-.973L89.011,43.2a.931.931,0,0,1,1.048.823h0A1.036,1.036,0,0,1,89.236,44.993Z" transform="translate(-18.603 -10.847)"/>
      <path id="Path_36171" data-name="Path 36171" class="cls-27" d="M68.3,78.853c-10.7-1.646-17.958,5.163-20.5-10.326h0a3.39,3.39,0,0,1,4.639,1.048c1.871,2.694,5.761,4.34,10.1,3.816a3.486,3.486,0,0,1,3.292,1.571Z" transform="translate(-12.035 -17.098)"/>
      <g id="Group_10086" data-name="Group 10086" transform="translate(58.046 71.557)">
        <g id="Group_10085" data-name="Group 10085">
          <path id="Path_36172" data-name="Path 36172" class="cls-8" d="M77.594,99.715c.673,8.455,1.945,16.386,5.387,24.168,2.768,6.135,5.462,14.366,11.074,18.631,12.944,9.877,27.834-12.5,34.044-20.726,3.367-4.415-4.19-8.754-7.482-4.34-4.415,5.911-9.2,12.5-15.339,16.835a12.057,12.057,0,0,1-4.265,2.02c-.9.075-1.646-.224-2.694-1.422-1.646-1.871-2.694-4.415-3.741-6.659-1.5-3.068-3.143-6.21-4.489-9.353-2.544-6.061-3.367-12.5-3.891-19.08-.449-5.537-9.054-5.612-8.6-.075Z" transform="translate(-77.577 -95.6)"/>
        </g>
      </g>
      <path id="Path_36173" data-name="Path 36173" class="cls-24" d="M71.741,98.327c2.619,22.148,9.577,36.14,19.23,43.323,5.088,2.843,9.8-5.238,7.856-10.026-9.652-8.53-13.019-21.923-13.917-37.112A7,7,0,0,0,76.68,90.62h0A6.511,6.511,0,0,0,71.741,98.327Z" transform="translate(-18.019 -22.729)"/>
      <path id="Path_36174" data-name="Path 36174" class="cls-8" d="M129.422,130.392l1.272.973a5.451,5.451,0,0,0,7.632-.823l4.19-5.238a5.451,5.451,0,0,0-.823-7.632l-1.272-.973a5.451,5.451,0,0,0-7.632.823l-4.19,5.238A5.451,5.451,0,0,0,129.422,130.392Z" transform="translate(-32.077 -29.055)"/>
      <path id="Path_36175" data-name="Path 36175" class="cls-25" d="M67.283,52.929c-.524.374-1.721,11.672,7.782,9.877s7.557-11.3,7.557-11.3-7.557,1.871-9.652-7.407C70.874,34.747,67.283,52.929,67.283,52.929Z" transform="translate(-16.852 -10.403)"/>
      <path id="Path_36176" data-name="Path 36176" class="cls-8" d="M75.85,49.084c.224,2.694-1.122,4.938-3.068,5.163h-.6c-1.646-.3-3.068-2.17-3.292-4.489-.224-2.694,1.122-4.938,3.068-5.163C73.83,44.37,75.626,46.39,75.85,49.084Z" transform="translate(-17.339 -11.197)"/>
      <g id="Group_10111" data-name="Group 10111" transform="translate(153.826 21.871)">
        <ellipse id="Ellipse_102" data-name="Ellipse 102" class="cls-2" cx="20.95" cy="36.214" rx="20.95" ry="36.214" transform="translate(0 239.738) rotate(-89.689)"/>
        <g id="Group_10088" data-name="Group 10088" transform="translate(34.223 39.284)">
          <g id="Group_10087" data-name="Group 10087">
            <path id="Path_36177" data-name="Path 36177" class="cls-3" d="M271.883,88.209c-4.714-4.639-12.795-6.584-19.155-6.51a1.46,1.46,0,0,0,0,2.918c5.612-.075,13.019,1.5,17.135,5.612,1.272,1.347,3.367-.673,2.02-2.02Z" transform="translate(-251.325 -81.697)"/>
          </g>
        </g>
        <g id="Group_10090" data-name="Group 10090" transform="translate(6.557 42.709)">
          <g id="Group_10089" data-name="Group 10089">
            <path id="Path_36178" data-name="Path 36178" class="cls-8" d="M214.388,90.409c1.2,9.877,1.571,19.753,3.068,29.63.9,5.911,2.619,16.91,10.625,16.76,5.537-.075,5.612-8.754,0-8.679-.9,0,.449,0,.673.224.075.15-.225-.224-.3-.524-.224-.973-.823-1.871-1.122-2.843a64.279,64.279,0,0,1-2.02-10.7c-.973-7.931-1.347-16.012-2.32-23.943-.6-5.387-9.278-5.462-8.6.075Z" transform="translate(-214.35 -86.275)"/>
          </g>
        </g>
        <g id="Group_10092" data-name="Group 10092" transform="translate(13.822 38.622)">
          <g id="Group_10091" data-name="Group 10091">
            <path id="Path_36179" data-name="Path 36179" class="cls-28" d="M230.6,86.34a275.474,275.474,0,0,1-6.36,41.3c-1.721,7.183,9.428,10.326,11.149,3.068A295.614,295.614,0,0,0,242.2,86.34c.524-7.407-11-7.333-11.6,0Z" transform="translate(-224.06 -80.812)"/>
          </g>
        </g>
        <g id="Group_10094" data-name="Group 10094" transform="translate(16.809 194.612)">
          <path id="Path_36180" data-name="Path 36180" class="cls-29" d="M255.988,314.636l-.748-.374a.808.808,0,0,1-.374-1.122h0a.808.808,0,0,1,1.122-.374l.748.374a.808.808,0,0,1,.374,1.122h0A.79.79,0,0,1,255.988,314.636Z" transform="translate(-234.777 -295.175)"/>
          <path id="Path_36181" data-name="Path 36181" class="cls-4" d="M254.8,312.239v-3.816a.83.83,0,0,1,.823-.823h0a.83.83,0,0,1,.823.823v3.816a.83.83,0,0,1-.823.823h0A.83.83,0,0,1,254.8,312.239Z" transform="translate(-234.786 -293.901)"/>
          <g id="Group_10093" data-name="Group 10093">
            <path id="Path_36182" data-name="Path 36182" class="cls-30" d="M251.507,293.346c-.973-1.8-3.442-3.816-4.714-3.367l-3.517,5.612-.524.15c-1.945,2.469-11.672,12.87-14.366,16.685-1.347,1.945,1.8,3.068,1.8,3.068,6.659,1.2,13.244-1.8,13.244-1.8,2.843-1.945.973-4.564,3.891-8.829.524-.748,1.646-1.422,1.871-.748l-.224,4.489,1.571-.3s.973-6.435,1.8-10.849C252.63,295.665,252.33,294.169,251.507,293.346Z" transform="translate(-228.052 -289.448)"/>
            <path id="Path_36183" data-name="Path 36183" class="cls-5" d="M247.91,289.3l-2.918,2.469s-7.408,11.6-8.754,13.842c-1.646,2.694,8.081,7.333,14.74-8.455C255.842,288.774,247.91,289.3,247.91,289.3Z" transform="translate(-230.066 -289.291)"/>
          </g>
        </g>
        <g id="Group_10096" data-name="Group 10096" transform="translate(20.627 98.602)">
          <g id="Group_10095" data-name="Group 10095">
            <path id="Path_36184" data-name="Path 36184" class="cls-5" d="M233.263,166.531c-.3,19.978-.075,40.03,1.8,60.008,1.122,12.2,3.068,24.243,5.088,36.289,1.272,7.333,12.346,4.19,11.149-3.068-1.945-11.672-3.741-22.447-4.789-34.045-1.8-19.678-1.945-39.432-1.721-59.185.15-7.407-11.448-7.407-11.523,0Z" transform="translate(-233.153 -160.975)"/>
          </g>
        </g>
        <g id="Group_10098" data-name="Group 10098" transform="translate(35.767 107.58)">
          <g id="Group_10097" data-name="Group 10097">
            <path id="Path_36185" data-name="Path 36185" class="cls-8" d="M253.4,178.531c1.8,31.351,4.639,62.7,4.639,94.127,0,7.407,11.523,7.407,11.523,0,0-31.426-2.843-62.777-4.639-94.127-.374-7.407-11.9-7.407-11.523,0Z" transform="translate(-253.388 -172.975)"/>
          </g>
        </g>
        <path id="Path_36186" data-name="Path 36186" class="cls-3" d="M271.009,174.037c-1.2,16.237-11.523,17.808-22,11.822C238.536,179.8,232.7,166.106,232.7,153.984c0,0,5.836-17.883,16.311-11.9S272.356,155.182,271.009,174.037Z" transform="translate(-212.413 -57.309)"/>
        <path id="Path_36187" data-name="Path 36187" class="cls-21" d="M234.113,95.7s-6.959,10.849-6.135,17.434c.524,4.19,3.517,8.9,3.966,10.251,3.592,10.924,1.646,14.291,2.02,17.284,0,0,2.394,10.4,28.133.6l10.775-31.725Z" transform="translate(-211.207 -45.939)"/>
        <path id="Path_36188" data-name="Path 36188" class="cls-21" d="M272.021,113.147a3.325,3.325,0,0,0,1.2-2.1c.673-5.687,3.741-8.231-2.394-17.883-.973-1.571-14.441-8.53-24.542-10.326a10.818,10.818,0,0,0-11.747,6.435,60.909,60.909,0,0,0-2.245,7.931c-.449,10.4,4.115-3.217,4.863,2.469,0-.15-.075-.3-.075-.449,0,0,1.272,9.652,2.17,17.209.6,4.714.973,8.081,1.048,8.53v.075L257.8,138.886l9.2-16.686h0Z" transform="translate(-212.302 -42.66)"/>
        <path id="Path_36189" data-name="Path 36189" class="cls-8" d="M250.363,82.6s-8.754,9.054-1.2,15.488c7.632,6.435,20.576-7.931,20.576-7.931C263.008,85.892,256.423,83.049,250.363,82.6Z" transform="translate(-215.784 -42.641)"/>
        <path id="Path_36190" data-name="Path 36190" class="cls-3" d="M231.517,158.3,228,214.268a4.509,4.509,0,0,0,.6,2.17c2.619,4.19,7.333,18.257,33.446,12.2,2.993-.673,4.115-.973,4.04-3.591L269.6,177.38l-15.563-.224Z" transform="translate(-211.229 -61.7)"/>
        <path id="Path_36191" data-name="Path 36191" class="cls-8" d="M253.342,81.462,249.9,65.6l10.7,2.993,2.843,12.346C264.64,84.605,256.11,89.543,253.342,81.462Z" transform="translate(-216.743 -38.361)"/>
        <g id="Group_10100" data-name="Group 10100" transform="translate(29.305 201.346)">
          <path id="Path_36192" data-name="Path 36192" class="cls-29" d="M272.688,323.636l-.748-.374a.808.808,0,0,1-.374-1.122h0a.808.808,0,0,1,1.122-.374l.748.374a.808.808,0,0,1,.374,1.122h0A.808.808,0,0,1,272.688,323.636Z" transform="translate(-251.477 -304.175)"/>
          <path id="Path_36193" data-name="Path 36193" class="cls-4" d="M271.5,321.139v-3.816a.83.83,0,0,1,.823-.823h0a.83.83,0,0,1,.823.823v3.816a.83.83,0,0,1-.823.823h0A.747.747,0,0,1,271.5,321.139Z" transform="translate(-251.486 -302.876)"/>
          <g id="Group_10099" data-name="Group 10099">
            <path id="Path_36194" data-name="Path 36194" class="cls-30" d="M268.207,302.346c-.973-1.8-3.442-3.816-4.714-3.367l-3.517,5.612-.524.15c-1.945,2.469-11.672,12.87-14.366,16.685-1.347,1.945,1.8,3.068,1.8,3.068,6.659,1.2,13.244-1.8,13.244-1.8,2.843-1.945.973-4.564,3.891-8.829.524-.748,1.646-1.422,1.871-.748l-.224,4.489,1.571-.3s.973-6.435,1.8-10.849C269.33,304.665,269.03,303.169,268.207,302.346Z" transform="translate(-244.752 -298.448)"/>
            <path id="Path_36195" data-name="Path 36195" class="cls-8" d="M264.61,298.3l-2.918,2.469s-7.408,11.6-8.754,13.842c-1.646,2.694,8.081,7.333,14.74-8.455C272.467,297.774,264.61,298.3,264.61,298.3Z" transform="translate(-246.766 -298.291)"/>
          </g>
        </g>
        <path id="Path_36196" data-name="Path 36196" class="cls-28" d="M268.759,119.5a33.634,33.634,0,0,1-3.517,5.986,15.894,15.894,0,0,1-16.536,5.986,99.325,99.325,0,0,1-18.406-6.809s3.966,12.72,2.544,20.127c-.673,3.442-.15,2.768-.15,2.768.224,3.292,5.612,2.394,5.612,2.394,11.6,3.591,24.392-2.768,24.392-2.768l7.482-21.923Z" transform="translate(-211.808 -51.931)"/>
        <path id="Path_36197" data-name="Path 36197" class="cls-13" d="M231.687,155.192h0a2.13,2.13,0,0,0,.748,2.02c2.17,1.721,8.006,5.312,17.134,4.34,7.856-.823,12.421-2.544,14.665-3.666a2.017,2.017,0,0,0,1.048-2.544l-.224-.6a2.015,2.015,0,0,0-2.694-1.2c-4.115,1.721-13.992,5.312-20.95,3.217a22.24,22.24,0,0,1-6.584-2.918A2.065,2.065,0,0,0,231.687,155.192Z" transform="translate(-212.148 -60.463)"/>
        <path id="Path_36198" data-name="Path 36198" class="cls-14" d="M246.808,163.067l-4.415-.9a3.422,3.422,0,0,1-2.694-3.217h0a2.144,2.144,0,0,1,2.694-2.17l4.415.9A3.422,3.422,0,0,1,249.5,160.9h0A2.144,2.144,0,0,1,246.808,163.067Z" transform="translate(-214.175 -61.304)"/>
        <path id="Path_36199" data-name="Path 36199" class="cls-13" d="M246.415,162.259l-2.544-.524a2,2,0,0,1-1.571-1.871h0a1.278,1.278,0,0,1,1.571-1.272l2.544.524a2,2,0,0,1,1.571,1.871h0A1.278,1.278,0,0,1,246.415,162.259Z" transform="translate(-214.83 -61.768)"/>
        <g id="Group_10102" data-name="Group 10102" transform="translate(29.616 39.837)">
          <g id="Group_10101" data-name="Group 10101">
            <path id="Path_36200" data-name="Path 36200" class="cls-3" d="M246.913,83.831c-.374,5.986-4.938,12.121,2.394,15.488,7.856,3.591,15.488-3.143,20.8-8.156,1.347-1.272-.673-3.292-2.02-2.02-4.415,4.19-11.747,11-18.257,7.258-2.843-1.646-1.646-4.19-1.122-6.884a46.546,46.546,0,0,0,1.122-5.612c.15-1.945-2.769-1.945-2.918-.075Z" transform="translate(-245.167 -82.437)"/>
          </g>
        </g>
        <g id="Group_10104" data-name="Group 10104" transform="translate(20.035 9.866)">
          <g id="Group_10103" data-name="Group 10103">
            <path id="Path_36201" data-name="Path 36201" class="cls-25" d="M236.805,43.443c-.748,4.265-3.592,7.782-4.34,12.047-.748,4.489,2.843,6.435,2.843,10.775a1.46,1.46,0,0,0,2.918,0,10.376,10.376,0,0,0-.973-4.789c-1.122-2.32-2.469-3.292-1.721-6.21.9-3.891,3.442-7.108,4.115-11.074.3-1.8-2.544-2.619-2.843-.748Z" transform="translate(-232.363 -42.381)"/>
          </g>
        </g>
        <circle id="Ellipse_103" data-name="Ellipse 103" class="cls-25" cx="10.101" cy="10.101" r="10.101" transform="translate(38.698 17.212) rotate(-58.427)"/>
        <path id="Path_36202" data-name="Path 36202" class="cls-8" d="M250.616,72.087l-3.442.15a9.6,9.6,0,0,1-9.877-9.278l-.6-17.434a9.6,9.6,0,0,1,9.278-9.877l3.442-.15a9.6,9.6,0,0,1,9.877,9.278l.6,17.434A9.7,9.7,0,0,1,250.616,72.087Z" transform="translate(-213.418 -30.781)"/>
        <path id="Path_36203" data-name="Path 36203" class="cls-25" d="M252.525,49.062c-3.966-4.938-11.373.973-15.339-.6-4.34-1.646-2.843-6.061.075-9.652,1.571-1.945,3.591-3.517,7.557-5.013,11.149-4.19,22.372.524,22.746,13.094,0,0,1.048,17.284-9.054,19.828l-.673-2.544s3.591-5.163-2.544-8.9c-1.422-.9-.3-1.5-.15-3.591C255.368,49.585,253.872,50.708,252.525,49.062Z" transform="translate(-212.859 -29.978)"/>
        <path id="Path_36204" data-name="Path 36204" class="cls-8" d="M268.918,69.14c-1.571,1.272-3.292.823-3.891-.973a5.53,5.53,0,0,1,1.646-5.612c1.571-1.272,3.292-.823,3.891.973A5.641,5.641,0,0,1,268.918,69.14Z" transform="translate(-220.497 -37.412)"/>
        <path id="Path_36205" data-name="Path 36205" class="cls-14" d="M241.32,71.277l5.911,2.544a.666.666,0,0,1,.374.6c-.15.973-.823,2.918-4.04,1.8a5.006,5.006,0,0,1-3.068-4.34A.565.565,0,0,1,241.32,71.277Z" transform="translate(-214.374 -39.773)"/>
        <ellipse id="Ellipse_104" data-name="Ellipse 104" class="cls-7" cx="0.673" cy="1.347" rx="0.673" ry="1.347" transform="translate(33.082 26.416)"/>
        <path id="Path_36206" data-name="Path 36206" class="cls-7" d="M240.947,61.847c0,.748-.3,1.347-.673,1.347s-.673-.6-.673-1.347.3-1.347.673-1.347S240.947,61.1,240.947,61.847Z" transform="translate(-214.15 -37.077)"/>
        <g id="Group_10105" data-name="Group 10105" transform="translate(33.456 22.675)">
          <path id="Path_36207" data-name="Path 36207" class="cls-25" d="M250.973,61a6.386,6.386,0,0,1,3.891,1.721c.673.673,1.646-.374,1.048-1.048a7.505,7.505,0,0,0-4.938-2.17c-.9.075-.9,1.5,0,1.5Z" transform="translate(-250.3 -59.5)"/>
        </g>
        <g id="Group_10106" data-name="Group 10106" transform="translate(23.757 19.066)">
          <path id="Path_36208" data-name="Path 36208" class="cls-25" d="M238.058,56.116a6.2,6.2,0,0,1,4.04,1.422c.673.6,1.721-.374,1.048-1.048a7.388,7.388,0,0,0-5.013-1.8c-1.048,0-1.048,1.5-.075,1.422Z" transform="translate(-237.337 -54.677)"/>
        </g>
        <g id="Group_10108" data-name="Group 10108" transform="translate(40.115 15.426)">
          <g id="Group_10107" data-name="Group 10107">
            <path id="Path_36209" data-name="Path 36209" class="cls-25" d="M259.2,51.225a43.043,43.043,0,0,0,1.945,13.094,12.58,12.58,0,0,0,2.394,4.265c1.5,1.871,3.217,3.068,3.068,5.911-.075,1.272-.748,2.694-.9,3.966-.224,1.871,2.694,1.8,2.918,0,.3-2.694,1.646-4.789.449-7.482-.973-2.17-2.993-3.592-4.19-5.612-2.319-4.04-2.619-9.652-2.694-14.216-.15-1.8-2.993-1.8-2.993.075Z" transform="translate(-259.2 -49.812)"/>
          </g>
        </g>
        <path id="Path_36210" data-name="Path 36210" class="cls-8" d="M218.337,93.774h0a5.524,5.524,0,0,1-5.537-5.537h0a5.524,5.524,0,0,1,5.537-5.537h0a5.524,5.524,0,0,1,5.537,5.537h0A5.524,5.524,0,0,1,218.337,93.774Z" transform="translate(-207.403 -42.666)"/>
        <path id="Path_36211" data-name="Path 36211" class="cls-8" d="M222.771,87.462h-.6A1.261,1.261,0,0,1,220.9,86.19V72.572a1.261,1.261,0,0,1,1.272-1.272h.6a1.261,1.261,0,0,1,1.272,1.272V86.19A1.367,1.367,0,0,1,222.771,87.462Z" transform="translate(-209.442 -39.796)"/>
        <g id="Group_10110" data-name="Group 10110" transform="translate(49.553 47.352)">
          <g id="Group_10109" data-name="Group 10109">
            <path id="Path_36212" data-name="Path 36212" class="cls-21" d="M273.6,100.651c4.415,6.659,8.979,13.244,13.318,19.978a15.483,15.483,0,0,1,.524,16.686c-1.721,2.843-4.19,5.312-6.285,7.856a137.849,137.849,0,0,0-8.38,11.3c-4.04,5.986,5.687,11.6,9.727,5.687q3.816-5.612,8.081-10.775c2.619-3.143,5.612-6.21,7.408-9.877a27.032,27.032,0,0,0-.823-25.814c-4.34-7.033-9.2-13.767-13.842-20.651-4.04-5.986-13.767-.374-9.727,5.612Z" transform="translate(-271.813 -92.48)"/>
          </g>
        </g>
        <path id="Path_36213" data-name="Path 36213" class="cls-8" d="M277.8,191.025h0a5.692,5.692,0,0,1-6.21-5.088l-.6-5.836a5.692,5.692,0,0,1,5.088-6.21h0a5.692,5.692,0,0,1,6.21,5.088l.6,5.836A5.7,5.7,0,0,1,277.8,191.025Z" transform="translate(-222.047 -65.618)"/>
        <path id="Path_36214" data-name="Path 36214" class="cls-11" d="M253.5,83.7a12.867,12.867,0,0,0,5.687-2.1s-2.02,3.517-4.863,4.489Z" transform="translate(-217.649 -42.389)"/>
      </g>
    </g>
  </g>
</svg>
