<svg xmlns="http://www.w3.org/2000/svg" viewBox="0 0 354 432">
  <defs>
    <style>
      .cls-1 {
        fill: rgba(255,255,255,0);
      }

      .cls-2 {
        fill: #a8c4e5;
        opacity: 0.4;
      }

      .cls-3 {
        fill: #c9457b;
      }

      .cls-4 {
        fill: #ff579c;
      }

      .cls-5 {
        fill: #fff;
      }

      .cls-6 {
        fill: #633b25;
      }

      .cls-7 {
        fill: #e2e2e2;
      }

      .cls-8 {
        fill: #1e004c;
      }

      .cls-9 {
        fill: #25562e;
      }

      .cls-10 {
        fill: #cecece;
      }

      .cls-11 {
        fill: #2b0073;
      }

      .cls-12 {
        fill: #5c96db;
      }

      .cls-13 {
        fill: #261006;
      }

      .cls-14 {
        fill: #42210b;
      }
    </style>
  </defs>
  <g id="Group_40359" data-name="Group 40359" transform="translate(-6558 -3038)">
    <rect id="Rectangle_1231" data-name="Rectangle 1231" class="cls-1" width="354" height="432" transform="translate(6558 3038)"/>
    <g id="Group_40354" data-name="Group 40354" transform="translate(6635.004 3103)">
      <g id="Group_38447" data-name="Group 38447" transform="translate(-0.004 182.36)">
        <path id="Path_131912" data-name="Path 131912" class="cls-2" d="M184.851,259.854c-30.8-18.433-81.234-19.311-112.595-1.835s-31.919,46.522-1.117,65.035c30.8,18.433,80.676,19.311,112.674,2.234C218.924,306.456,215.653,278.367,184.851,259.854Z" transform="translate(-9.771 -231.946)"/>
        <path id="Path_131913" data-name="Path 131913" class="cls-3" d="M130.891,264.931c-29.286-17.556-77.164-18.354-106.929-1.756-29.844,16.6-30.243,44.208-1.037,61.763s76.606,18.354,107.009,2.155C163.289,309.219,160.177,282.486,130.891,264.931Z" transform="translate(-0.259 -233.113)"/>
        <path id="Path_131914" data-name="Path 131914" class="cls-4" d="M129.591,242.231c-29.286-17.555-77.164-18.353-106.929-1.756-29.844,16.6-30.243,44.208-1.037,61.763,29.286,17.556,76.606,18.354,107.009,2.155C161.989,286.439,158.877,259.706,129.591,242.231Z" transform="translate(0.004 -228.528)"/>
        <path id="Path_131915" data-name="Path 131915" class="cls-5" d="M119.24,258.552h0c-.4-2.873-2.394-5.666-5.985-7.74-9.017-5.187-24.817-4.548-35.191,1.436-5.187,3.032-8.778,10.294,2.873,17.077-7.661-5.745-24.338-4.708-29.525-1.676C40.958,273.634,39.841,282.731,48.858,288c4.548,2.633,10.932,3.75,17.4,3.431h0c.638,0,27.53-.08,43.33-.16,5.985,0,11.252-3.192,11.012-6.543l-1.277-24.817a7.743,7.743,0,0,0-.08-1.357Z" transform="translate(-8.637 -232.321)"/>
      </g>
      <g id="Group_38449" data-name="Group 38449" transform="translate(35.167)">
        <path id="Path_131916" data-name="Path 131916" class="cls-6" d="M48.8,53.6c1.436,6.464.559,20.747,10.773,24.418,7.74,2.793,18.433-1.436,22.264-4.868l.718-6.543-7.661-.8S71.383,70.2,64.121,70.2s-7.9-15.72-7.9-15.72" transform="translate(-45.026 -10.828)"/>
        <path id="Path_131917" data-name="Path 131917" class="cls-6" d="M52.4,51.386a4.935,4.935,0,0,1-4.309-2.554C44.74,42.768,44.9,35.586,44.9,34.788A4.94,4.94,0,0,1,49.847,30h.16a4.975,4.975,0,0,1,4.788,5.107c0,1.436,3.192.16,4.947,3.272,1.277,2.394-2.554,11.172-4.947,12.448A5.253,5.253,0,0,1,52.4,51.386Z" transform="translate(-44.238 -6.061)"/>
        <path id="Path_131918" data-name="Path 131918" class="cls-7" d="M87.644,255.3c5.107,2.953,4.229,7.341,4.149,10.374-.08,3.112-18.194,14.523-25.535,12.688s-2.793-11.97,4.788-18.513C78.627,253.226,82.7,252.428,87.644,255.3Z" transform="translate(-47.802 -51.258)"/>
        <path id="Path_131919" data-name="Path 131919" class="cls-8" d="M90.214,256.429c3.75,2.155,4.07,5.267-1.357,8.139a9.275,9.275,0,0,1-10.214-1.2c-3.431-3.352.4-5.745,1.037-6.224C81.2,255.79,85.027,253.4,90.214,256.429Z" transform="translate(-50.771 -51.508)"/>
        <path id="Path_131920" data-name="Path 131920" class="cls-5" d="M91.91,251a72.511,72.511,0,0,1,0,8.139c-.08.718-3.91,6.623-11.012,2.953-7.022-3.671,6.863-8.937,6.863-8.937Z" transform="translate(-51.11 -50.708)"/>
        <path id="Path_131921" data-name="Path 131921" class="cls-8" d="M67.865,279.567c10.374-1.037,20.588-9.336,24.019-13.167h0c0,.638-.08,1.277-.08,1.835-.08,3.112-18.194,14.523-25.535,12.688-3.032-.8-3.99-2.873-3.591-5.666C62.6,275.577,62.678,280.045,67.865,279.567Z" transform="translate(-47.813 -53.819)"/>
        <path id="Path_131922" data-name="Path 131922" class="cls-8" d="M75.671,271.934a.7.7,0,0,1-.638-.479L73.6,264.114a.61.61,0,0,1,1.2-.239l1.436,7.341a.621.621,0,0,1-.479.718Z" transform="translate(-50.033 -53.209)"/>
        <path id="Path_131923" data-name="Path 131923" class="cls-8" d="M78.175,269.176h0l-8.219-.479a.565.565,0,0,1-.559-.638.617.617,0,0,1,.638-.559l8.139.559a.565.565,0,0,1,.559.638A.534.534,0,0,1,78.175,269.176Z" transform="translate(-49.185 -54.041)"/>
        <path id="Path_131924" data-name="Path 131924" class="cls-7" d="M112.644,272.015c5.107,2.953,4.229,7.341,4.149,10.374-.08,3.112-18.194,14.523-25.535,12.688s-2.793-11.97,4.788-18.513C103.547,270.02,107.7,269.222,112.644,272.015Z" transform="translate(-52.852 -54.646)"/>
        <path id="Path_131925" data-name="Path 131925" class="cls-8" d="M115.114,273.138c3.75,2.155,4.07,5.267-1.357,8.139a9.275,9.275,0,0,1-10.214-1.2c-3.431-3.352.4-5.745,1.037-6.224C106.176,272.5,110.007,270.185,115.114,273.138Z" transform="translate(-55.801 -54.891)"/>
        <path id="Path_131926" data-name="Path 131926" class="cls-5" d="M116.81,267.7a72.527,72.527,0,0,1,0,8.139c-.08.718-3.91,6.623-11.012,2.953-7.022-3.671,6.863-8.937,6.863-8.937Z" transform="translate(-56.141 -54.081)"/>
        <path id="Path_131927" data-name="Path 131927" class="cls-9" d="M105.056,242.5h-.479a8.545,8.545,0,0,1-8.139-9.1c0-.4,2.314-42.851,2.314-58.412,0-11.73,1.2-27.77,1.915-36.148l-2.633-1.516c-3.83,10.932-8.618,26.413-8.618,35.031,0,15.321,3.99,48.437,4.07,48.836a8.68,8.68,0,0,1-17.236,2.075c-.16-1.436-4.149-34.552-4.149-50.911,0-17.157,12.049-47.48,13.406-50.831A8.614,8.614,0,0,1,97.875,117.3l16.279,9.416a8.619,8.619,0,0,1,4.309,8.3c0,.239-2.394,24.657-2.394,40.058,0,16.039-2.234,57.614-2.314,59.37A8.6,8.6,0,0,1,105.056,242.5Z" transform="translate(-49.734 -23.459)"/>
        <path id="Path_131928" data-name="Path 131928" class="cls-7" d="M125.108,56.524c8.459,19.63-.878,56.9-2.793,63.758-1.516,5.506-23.3-5.586-31.76-10.055a4.723,4.723,0,0,1-2.394-5.346c1.117-4.788,1.6-13.566,2.713-27.291.559-7.182,1.915-29.366,4.469-35.749C98.536,33.542,116.011,35.457,125.108,56.524Z" transform="translate(-52.948 -7.528)"/>
        <path id="Path_131929" data-name="Path 131929" class="cls-10" d="M128.489,66.6c2.633,8.538,3.192,32-2.633,41.255s-15.88,9.336-24.658,5.346l-.8-7.421,17.077-3.591,6.942-17.955Z" transform="translate(-55.451 -13.455)"/>
        <path id="Path_131930" data-name="Path 131930" class="cls-6" d="M106.865,110.316c-7.022,1.516-15.88-1.915-27.61-10.533a4.341,4.341,0,0,1,5.107-7.022c12.847,9.416,18.912,9.895,21.865,8.7,5.745-2.474,7.262-15.481,8.618-26.892.239-1.835.4-3.671.638-5.426a4.345,4.345,0,1,1,8.618,1.117c-.239,1.756-.479,3.591-.638,5.346-1.756,14.443-3.511,29.366-13.805,33.834A16.248,16.248,0,0,1,106.865,110.316Z" transform="translate(-50.824 -13.202)"/>
        <path id="Path_131931" data-name="Path 131931" class="cls-7" d="M121.9,87.48c.958-1.357,7.581-1.037,8.3,2.793,0,0,5.187-22.583,1.835-26.014-4.868-5.107-7.262,2.554-7.421,3.352S121.9,87.48,121.9,87.48Z" transform="translate(-59.794 -12.629)"/>
        <path id="Path_131932" data-name="Path 131932" class="cls-7" d="M81.6,62.94c3.99-.239,7.5,5.825,6.942,7.341,0,0,16.518-17.795,11.331-28.328-3.112-6.3-7.5.4-9.815,5.745C88.862,50.492,81.6,62.94,81.6,62.94Z" transform="translate(-51.653 -7.96)"/>
        <path id="Path_131933" data-name="Path 131933" class="cls-6" d="M110.219,37.806c3.192,1.516,4.708,6.783,0,10.454S96.255,46.5,101.681,39.8C104.713,36.051,108.224,36.929,110.219,37.806Z" transform="translate(-55.375 -7.483)"/>
        <g id="Group_38448" data-name="Group 38448" transform="translate(0 22.24)">
          <path id="Path_131934" data-name="Path 131934" class="cls-8" d="M51.515,49.2l4.868-1.357a2.587,2.587,0,0,0,1.756-3.192L53.989,30.129A2.587,2.587,0,0,0,50.8,28.374l-4.868,1.357a2.587,2.587,0,0,0-1.756,3.192l4.149,14.523A2.587,2.587,0,0,0,51.515,49.2Z" transform="translate(-44.071 -27.952)"/>
          <path id="Path_131935" data-name="Path 131935" class="cls-11" d="M52.715,48.8l4.868-1.357a2.587,2.587,0,0,0,1.756-3.192L55.189,29.729A2.587,2.587,0,0,0,52,27.974l-4.868,1.357a2.587,2.587,0,0,0-1.756,3.192l4.149,14.523A2.587,2.587,0,0,0,52.715,48.8Z" transform="translate(-44.313 -27.871)"/>
          <path id="Path_131936" data-name="Path 131936" class="cls-5" d="M52.739,45.813l3.671-1.037a2.587,2.587,0,0,0,1.756-3.192L55.292,31.529A2.587,2.587,0,0,0,52.1,29.774l-3.671.958a2.587,2.587,0,0,0-1.756,3.192l2.873,10.134A2.587,2.587,0,0,0,52.739,45.813Z" transform="translate(-44.576 -28.235)"/>
          <path id="Path_131937" data-name="Path 131937" class="cls-12" d="M56.287,51.214c.08.559.559.878.878.8.4-.08.559-.559.479-1.117s-.559-.878-.878-.8A.856.856,0,0,0,56.287,51.214Z" transform="translate(-46.529 -32.359)"/>
        </g>
        <path id="Path_131938" data-name="Path 131938" class="cls-12" d="M88.688,20.314c-.08.239-.08.559.16.638.16.08.4-.08.559-.319.08-.239.08-.559-.16-.638A.454.454,0,0,0,88.688,20.314Z" transform="translate(-53.075 -4.035)"/>
        <path id="Path_131939" data-name="Path 131939" class="cls-6" d="M105.716,45.963a4.945,4.945,0,0,1-4.868-3.99L98.774,31.6a4.961,4.961,0,0,1,9.735-1.915l2.075,10.374a4.923,4.923,0,0,1-3.91,5.825C106.355,45.883,106.035,45.963,105.716,45.963Z" transform="translate(-55.101 -5.186)"/>
        <circle id="Ellipse_277" data-name="Ellipse 277" class="cls-6" cx="15.082" cy="15.082" r="15.082" transform="translate(33.139 2.075)"/>
        <path id="Path_131940" data-name="Path 131940" class="cls-13" d="M117.81,15.72a2.587,2.587,0,0,0-1.117-2.234,1.757,1.757,0,0,0,.08-.638,2.855,2.855,0,0,0-1.676-2.633,2.986,2.986,0,0,0,.4-1.436,2.861,2.861,0,0,0-2.873-2.873,2.815,2.815,0,0,0-3.75-2.713,2.788,2.788,0,0,0-2.713-1.835,2.549,2.549,0,0,0-1.117.239A3.088,3.088,0,0,0,102.409,0a2.756,2.756,0,0,0-1.436.4A2.986,2.986,0,0,0,99.536,0,2.944,2.944,0,0,0,96.9,1.676a2.7,2.7,0,0,0-1.6-.479,2.834,2.834,0,0,0-1.995.8,3.394,3.394,0,0,0-.878-.16,2.911,2.911,0,0,0-2.873,2.314,1.757,1.757,0,0,0-.638-.08A2.861,2.861,0,0,0,86.05,6.942v.319a2.944,2.944,0,0,0-1.676,2.633,3.759,3.759,0,0,0,.319,1.357A2.916,2.916,0,0,0,82.3,14.124a3.012,3.012,0,0,0,.638,1.835,2.845,2.845,0,0,0-.638,1.835,2.923,2.923,0,0,0,2.474,2.873,2.8,2.8,0,0,0,1.915,1.357,5.111,5.111,0,0,0,3.431,1.357,4.822,4.822,0,0,0,1.915-.4,3.9,3.9,0,0,0,3.192,1.676,3.707,3.707,0,0,0,1.835-.479,2.9,2.9,0,0,0,5.027-.4,2.527,2.527,0,0,0,1.277.319,2.87,2.87,0,0,0,2.873-2.633h.4a3.012,3.012,0,0,0,1.835-.638,6.648,6.648,0,0,0,1.2.319v.4a3.274,3.274,0,0,0,.559,1.756,2.209,2.209,0,0,0-.08.718,2.873,2.873,0,1,0,5.745,0,3.274,3.274,0,0,0-.559-1.756c0-.16.08-.239.08-.4a2.9,2.9,0,0,0,1.756-4.548A2.1,2.1,0,0,0,117.81,15.72Z" transform="translate(-51.794 0)"/>
        <circle id="Ellipse_278" data-name="Ellipse 278" class="cls-6" cx="2.873" cy="2.873" r="2.873" transform="translate(53.727 19.63)"/>
        <path id="Path_131941" data-name="Path 131941" class="cls-6" d="M79.536,104.44a5.019,5.019,0,0,1-3.511-.559c-.479-.239-.878-.479-1.277-.718-3.99-2.314-8.538-4.868-7.581-10.374a9.681,9.681,0,0,1,2.155-4.628,4.906,4.906,0,0,1,8.219,5.187c.638.4,1.436.8,2.075,1.2.4.239.878.479,1.277.718a4.959,4.959,0,0,1,1.835,6.783A4.253,4.253,0,0,1,79.536,104.44Zm-2.713-9.815Zm0-.08Z" transform="translate(-48.711 -17.461)"/>
        <circle id="Ellipse_279" data-name="Ellipse 279" class="cls-14" cx="1.676" cy="1.676" r="1.676" transform="translate(54.924 20.827)"/>
        <path id="Path_131942" data-name="Path 131942" class="cls-8" d="M92.865,296.267c10.374-1.037,20.588-9.336,24.019-13.167h0c0,.638-.08,1.277-.08,1.835-.08,3.112-18.194,14.523-25.535,12.688-3.032-.8-3.99-2.873-3.591-5.666C87.6,292.277,87.6,296.825,92.865,296.267Z" transform="translate(-52.863 -57.192)"/>
        <path id="Path_131943" data-name="Path 131943" class="cls-8" d="M100.671,288.734a.7.7,0,0,1-.638-.479L98.6,280.914a.61.61,0,1,1,1.2-.239l1.436,7.341a.621.621,0,0,1-.479.718Z" transform="translate(-55.083 -56.603)"/>
        <path id="Path_131944" data-name="Path 131944" class="cls-8" d="M103.175,285.952h0l-8.219-.559a.6.6,0,0,1,.08-1.2l8.139.559a.565.565,0,0,1,.559.638A.545.545,0,0,1,103.175,285.952Z" transform="translate(-54.235 -57.412)"/>
      </g>
    </g>
  </g>
</svg>
