<svg xmlns="http://www.w3.org/2000/svg" viewBox="0 0 354 432">
  <defs>
    <style>
      .cls-1 {
        fill: rgba(255,255,255,0);
      }

      .cls-2 {
        fill: #261006;
      }

      .cls-3 {
        fill: #ffaa82;
      }

      .cls-4 {
        fill: #d0e7f4;
      }

      .cls-5 {
        fill: #424268;
      }

      .cls-26, .cls-6 {
        fill: #a8c4e5;
      }

      .cls-6 {
        opacity: 0.4;
      }

      .cls-7 {
        fill: #15253d;
      }

      .cls-8 {
        fill: #56547f;
      }

      .cls-9 {
        fill: #656593;
      }

      .cls-10 {
        fill: #513554;
      }

      .cls-11 {
        fill: #e1eaf4;
      }

      .cls-12 {
        fill: #644968;
      }

      .cls-13 {
        fill: #f1a32f;
      }

      .cls-14 {
        fill: #9e6d4c;
      }

      .cls-15 {
        fill: #fcfeff;
      }

      .cls-16 {
        fill: #ceab8b;
      }

      .cls-17 {
        fill: #894e4e;
      }

      .cls-18 {
        fill: #915350;
      }

      .cls-19 {
        fill: #e5c2a5;
      }

      .cls-20 {
        fill: #492817;
      }

      .cls-21 {
        fill: #704f3a;
      }

      .cls-22 {
        fill: #46466b;
      }

      .cls-23 {
        fill: #fff;
      }

      .cls-24 {
        fill: #ffe497;
      }

      .cls-25 {
        fill: #f9e6b7;
      }

      .cls-27 {
        fill: #45446c;
      }

      .cls-28 {
        fill: #5c5c9e;
      }

      .cls-29 {
        fill: #8080bf;
      }

      .cls-30 {
        fill: #ea8a6c;
      }

      .cls-31 {
        fill: #915151;
      }

      .cls-32 {
        fill: #633820;
      }

      .cls-33 {
        fill: #af8080;
      }
    </style>
  </defs>
  <g id="Group_40357" data-name="Group 40357" transform="translate(-7546 -3038)">
    <rect id="Rectangle_1233" data-name="Rectangle 1233" class="cls-1" width="354" height="432" transform="translate(7546 3038)"/>
    <g id="Group_40356" data-name="Group 40356" transform="translate(7629.085 3105.028)">
      <path id="Path_131822" data-name="Path 131822" class="cls-2" d="M171.2,38.354a4.8,4.8,0,0,0,5.908,2.048,3.8,3.8,0,0,0,2.757,1.812,3.287,3.287,0,0,0,3.308-1.733,3.424,3.424,0,0,0,1.575.551,3.541,3.541,0,0,0,3.781-2.836c.158,0,.315.079.473.079a3.941,3.941,0,0,0,2.284-.551,5.007,5.007,0,0,0,1.418.473,1.168,1.168,0,0,0-.079.551,3.561,3.561,0,0,0,.551,2.206,2.831,2.831,0,0,0-.158.866,3.559,3.559,0,1,0,6.538-1.575c.079-.158.079-.315.158-.473a3.6,3.6,0,0,0,3.072-3.151,3.285,3.285,0,0,0-.473-2.127,3.47,3.47,0,0,0,.866-1.969,3.425,3.425,0,0,0-1.1-2.836,2.33,2.33,0,0,0,.158-.788,3.459,3.459,0,0,0-1.812-3.387,4.157,4.157,0,0,0,.63-1.733,3.592,3.592,0,0,0-3.23-3.86,3.592,3.592,0,0,0-3.23-3.86,4.844,4.844,0,0,0-1.1.079,3.565,3.565,0,0,0-3.072-2.521,2.529,2.529,0,0,0-1.339.158,3.423,3.423,0,0,0-2.836-1.969,3.54,3.54,0,0,0-1.812.315,4.156,4.156,0,0,0-1.733-.63,3.469,3.469,0,0,0-3.387,1.733,3.283,3.283,0,0,0-1.89-.709,3.585,3.585,0,0,0-2.521.788,2.516,2.516,0,0,0-1.1-.236" transform="translate(-36.366 -2.442)"/>
      <g id="Group_38445" data-name="Group 38445" transform="translate(-0.085 12.912)">
        <g id="Group_38398" data-name="Group 38398" transform="translate(79.386 64.721)">
          <g id="Group_38397" data-name="Group 38397">
            <path id="Path_131823" data-name="Path 131823" class="cls-3" d="M111.1,100.877c-1.89,2.678-4.1,3.623-7.089,4.569-5.829,1.812-3.308,10.949,2.521,9.137a30.61,30.61,0,0,0,7.01-2.914,23.1,23.1,0,0,0,5.75-5.986c1.5-2.048.315-5.278-1.733-6.459-2.363-1.418-4.962-.394-6.459,1.654Z" transform="translate(-100.698 -98.565)"/>
          </g>
        </g>
        <path id="Path_131824" data-name="Path 131824" class="cls-4" d="M100.414,109.5,97.5,115.565l9.216,5.041,2.993-5.593Z" transform="translate(-20.633 -36.166)"/>
        <path id="Path_131825" data-name="Path 131825" class="cls-5" d="M92.241,105.462a48.282,48.282,0,0,0-1.969,5.671h0c.315-12.209-.945-23.788-6.223-34.973-3.23-6.774-14.336-2.757-11.106,4.175a56.877,56.877,0,0,1,5.435,19.929c.394,5.908.079,11.737.079,17.644a57.42,57.42,0,0,0,1.969,15.99c.945,3.466,2.678,7.168,6.617,7.877,7.877,1.418,9.846-9.374,11.343-14.73,1.024-3.938,2.048-7.956,3.151-11.894.473-1.733.866-2.914,1.5-4.647.079-.158.079-.236.158-.394a1.766,1.766,0,0,0-.945-2.284c-2.442-1.1-5.435-2.442-7.562-3.308A1.765,1.765,0,0,0,92.241,105.462Z" transform="translate(-15.296 -28.347)"/>
        <ellipse id="Ellipse_275" data-name="Ellipse 275" class="cls-6" cx="22.055" cy="38.124" rx="22.055" ry="38.124" transform="translate(13.37 272.873) rotate(-89.689)"/>
        <ellipse id="Ellipse_276" data-name="Ellipse 276" class="cls-6" cx="22.055" cy="38.124" rx="22.055" ry="38.124" transform="translate(111.032 259.3) rotate(-89.689)"/>
        <path id="Path_131826" data-name="Path 131826" class="cls-5" d="M36.039,88.9l25.6-11.185L58.488,67c-6.538-.158-18.274,6.459-23.788,10.24Z" transform="translate(-7.3 -27.142)"/>
        <path id="Path_131827" data-name="Path 131827" class="cls-7" d="M27.993,341.173a41.106,41.106,0,0,1-2.678-7.4c-.079-.473-.315-2.836-.315-3.623.079-1.733-.158-2.836,3.781-5.278,6.459-4.017,12.6,17.881,12.6,17.881l.394,5.356a2.93,2.93,0,0,1-1.418,2.521l-.473.158c-3.151.788-4.962,0-6.3-1.5C31.3,346.686,30.278,346.371,27.993,341.173Z" transform="translate(-5.241 -81.786)"/>
        <path id="Path_131828" data-name="Path 131828" class="cls-8" d="M28.139,339.428c-.158-.315-6.065-13.391-.315-15.754,5.12-2.048,7.641,2.993,9.767,8.35.63,1.575,2.048,4.962,2.678,6.144a20.1,20.1,0,0,1,1.1,4.411v4.175c.158.945-1.1.079-1.969.63l-.709-3.7c-1.654,1.024-2.993,5.671-4.411,4.175C32,345.178,30.5,344.784,28.139,339.428Z" transform="translate(-5.307 -81.539)"/>
        <path id="Path_131829" data-name="Path 131829" class="cls-9" d="M32.9,349.934c.63.63,2.048,2.127,2.757,2.914,1.418,1.575,3.466,1.575,5.514,1.1,1.024-.236,2.442-.709,2.284-2.284l-.473-3.938C41.565,347.02,37.075,347.729,32.9,349.934Z" transform="translate(-6.918 -86.688)"/>
        <g id="Group_38400" data-name="Group 38400" transform="translate(18.656 123.969)">
          <g id="Group_38399" data-name="Group 38399">
            <path id="Path_131830" data-name="Path 131830" class="cls-10" d="M25.1,182.461c6.223,19.22,4.962,40.487,3.308,60.337-.788,9.373-1.969,18.747-3.072,28.042-.709,6.065-1.733,12.288-1.733,18.432.079,9.137,14.257,9.137,14.178,0-.079-6.144.945-12.367,1.733-18.432,1.182-9.689,2.363-19.377,3.151-29.144,1.733-20.716,2.678-42.929-3.86-63.015-2.914-8.586-16.541-4.962-13.706,3.781Z" transform="translate(-23.6 -173.784)"/>
          </g>
        </g>
        <g id="Group_38402" data-name="Group 38402" transform="translate(50.756 120.666)">
          <g id="Group_38401" data-name="Group 38401">
            <path id="Path_131831" data-name="Path 131831" class="cls-10" d="M64.626,178.341c3.072,11.185,4.569,22.764,5.671,34.343.709,7.01,1.654,13.863.945,20.874C69.825,247.5,67.3,261.679,67.383,275.7c.079,9.137,14.178,9.137,14.178,0-.079-14.257,2.521-28.593,3.938-42.693.709-7.4-.473-14.809-1.26-22.213-1.26-12.13-2.757-24.34-5.986-36.155-2.363-8.822-15.99-5.12-13.627,3.7Z" transform="translate(-64.352 -169.59)"/>
          </g>
        </g>
        <g id="Group_38404" data-name="Group 38404" transform="translate(19.68 238.355)">
          <g id="Group_38403" data-name="Group 38403">
            <path id="Path_131832" data-name="Path 131832" class="cls-11" d="M36.479,320.182c-3.072,2.6-9.216,2.127-11.5-1.182-.079,1.812-.079,3.623-.079,5.514.079,7.4,11.658,7.641,11.579.158Z" transform="translate(-24.9 -319)"/>
          </g>
        </g>
        <g id="Group_38405" data-name="Group 38405" transform="translate(20.822 115.808)">
          <path id="Path_131833" data-name="Path 131833" class="cls-10" d="M63.8,197.433l-1.024-.158c-1.339,1.5,1.418-4.017-.236-2.993-3.466,2.127-17.881,12.367-21.977,12.445-4.962.079-6.774,2.914-10.4-.394-3.466-3.151-4.726-13.785-3.151-17.723.473-1.182,3.623-3.387,4.175-4.569.551-1.26-4.1-1.1-2.993-1.89,8.743-6.617,25.915-22.922,38.045-17.723C80.267,170.336,70.027,190.422,63.8,197.433Z" transform="translate(-26.349 -163.422)"/>
        </g>
        <path id="Path_131834" data-name="Path 131834" class="cls-4" d="M68.6,74.4c2.6,3.308,2.284,5.356,2.127,9.925a10.365,10.365,0,0,1-7.4,9.531L19.608,106.067s-2.521-16.857,6.144-21.9C30.4,81.412,37.646,77.08,43.239,73.614,51.588,68.573,62.616,66.682,68.6,74.4Z" transform="translate(-4.024 -27.613)"/>
        <path id="Path_131835" data-name="Path 131835" class="cls-4" d="M71.524,155.782c-1.26,1.654-2.914-45.528-.394-75.382L21.9,103.794c.236,22.528,6.853,39.621,4.1,67.032Z" transform="translate(-4.583 -29.988)"/>
        <path id="Path_131836" data-name="Path 131836" class="cls-4" d="M42.9,191.914c12.13-4.411,23.709-9.295,30.562-17.644,3.308-1.969,2.914-5.356-.945-7.562h0c-3.86-2.206-9.767-2.442-13.076-.551C59.358,166.156,39.508,193.883,42.9,191.914Z" transform="translate(-8.958 -47.924)"/>
        <path id="Path_131837" data-name="Path 131837" class="cls-12" d="M21.258,317.716l-.158,5.12a1.854,1.854,0,0,0,.158.63,9.226,9.226,0,0,0,9.137,4.017,21.5,21.5,0,0,0,8.586-2.678,1.123,1.123,0,0,0,.473-.945l-.236-5.2a1.1,1.1,0,0,0-1.575-.945c-2.521,1.339-8.113,3.23-14.887-.866C22.2,316.377,21.336,316.85,21.258,317.716Z" transform="translate(-4.413 -80.149)"/>
        <g id="Group_38406" data-name="Group 38406" transform="translate(53.827 229.573)">
          <path id="Path_131838" data-name="Path 131838" class="cls-7" d="M81.98,324.538c-.315-.158-3.387-2.6-3.7-2.757-.473-.158-4.884-2.363-5.593-2.757-1.5-.788-5.12-1.339-3.23-6.144,2.678-6.932,21.189,4.017,21.189,4.017l6.223,4.8a1.984,1.984,0,0,1,.709,2.363h0c-.551,1.654-2.836,2.914-4.884,2.678C89.148,326.428,87.337,326.822,81.98,324.538Z" transform="translate(-68.393 -308.431)"/>
          <path id="Path_131839" data-name="Path 131839" class="cls-8" d="M82.153,322.147c-.315-.158-3.387-2.6-3.7-2.757-.473-.158-5.829-2.363-6.538-2.757-1.5-.788-4.962-1.812-3.151-6.538,2.678-6.932,22.055,4.411,22.055,4.411l6.223,4.8a1.984,1.984,0,0,1,.709,2.363h0c-.551,1.654-2.836,2.914-4.884,2.678C89.321,324.037,87.43,324.431,82.153,322.147Z" transform="translate(-68.25 -307.852)"/>
          <path id="Path_131840" data-name="Path 131840" class="cls-9" d="M95,326.668c.945.079,2.678.079,3.781.236a4.46,4.46,0,0,0,4.647-2.678,2.059,2.059,0,0,0-.709-2.363L99.726,319.5C97.206,320.051,95.63,322.651,95,326.668Z" transform="translate(-73.93 -310.325)"/>
        </g>
        <g id="Group_38408" data-name="Group 38408" transform="translate(54.619 224.255)">
          <g id="Group_38407" data-name="Group 38407">
            <path id="Path_131841" data-name="Path 131841" class="cls-11" d="M80.87,302.045c-2.993,2.363-9.216,1.969-11.579-.945,0,1.654-.079,3.23,0,4.884.158,6.617,11.737,6.617,11.579,0A32.844,32.844,0,0,1,80.87,302.045Z" transform="translate(-69.256 -301.1)"/>
          </g>
        </g>
        <path id="Path_131842" data-name="Path 131842" class="cls-12" d="M65.4,299.407l.158,5.12a1.047,1.047,0,0,0,.236.63,9.309,9.309,0,0,0,9.374,3.545,21.526,21.526,0,0,0,8.507-3.072,1.123,1.123,0,0,0,.473-.945l-.473-5.2a1.072,1.072,0,0,0-1.575-.866c-2.442,1.5-7.956,3.623-14.887-.158A1.2,1.2,0,0,0,65.4,299.407Z" transform="translate(-13.818 -76.255)"/>
        <path id="Path_131843" data-name="Path 131843" class="cls-3" d="M55.921,75.011,60.883,56.5l-12.6,3.545-4.1,15.124C43.318,77.61,52.219,84.463,55.921,75.011Z" transform="translate(-9.301 -24.914)"/>
        <path id="Path_131844" data-name="Path 131844" class="cls-13" d="M51.2,177.55c-3.938,1.812-8.192,3.466-12.524,4.962-3.308,1.969-11.106-4.884-11.106-4.884,2.678-27.412-5.435-45.213-5.671-67.741l1.733-.788C24.5,135.251,28.753,176.526,51.2,177.55Z" transform="translate(-4.583 -36.081)"/>
        <g id="Group_38410" data-name="Group 38410" transform="translate(120.192 46.828)">
          <g id="Group_38409" data-name="Group 38409">
            <path id="Path_131845" data-name="Path 131845" class="cls-14" d="M158.408,80.222a374.2,374.2,0,0,1-2.757,43.008c-.473,3.781-1.5,8.113-.63,11.973.551,2.363.079-.158-.079-.788-.236-1.024.158-.866-.079.236-.709,2.914-1.418,5.908-2.206,8.822-1.418,5.671,7.326,8.113,8.743,2.442.945-3.86,3.072-8.743,2.442-12.918-.158-1.26-.709-1.339-.158-.315-.236-.315-.079,1.182.079,0,.236-2.678.394-5.356.709-8.034a417.935,417.935,0,0,0,2.993-44.426c.158-5.829-8.98-5.829-9.058,0Z" transform="translate(-152.503 -75.85)"/>
          </g>
        </g>
        <path id="Path_131846" data-name="Path 131846" class="cls-5" d="M161.048,67.071c-4.017,6.3-4.411,15.99-5.593,25.206a4.029,4.029,0,0,0,3.387,5.2l9.846,3.781c2.048.158,3.938-4.175,4.254-6.3l3.545-23.237a7.466,7.466,0,0,0-5.278-8.349h0C167.507,62.345,164.12,62.66,161.048,67.071Z" transform="translate(-32.903 -26.269)"/>
        <g id="Group_38412" data-name="Group 38412" transform="translate(121.965 59.4)">
          <g id="Group_38411" data-name="Group 38411">
            <path id="Path_131847" data-name="Path 131847" class="cls-15" d="M155.263,94.323c1.418,1.26,2.993,3.072,4.8,3.781,1.969.788,4.254.866,6.3,1.26,1.89.394,2.757-2.521.788-2.914a40.2,40.2,0,0,1-5.356-1.024c-1.733-.551-2.993-2.048-4.332-3.23-1.575-1.26-3.7.866-2.206,2.127Z" transform="translate(-154.754 -91.811)"/>
          </g>
        </g>
        <path id="Path_131848" data-name="Path 131848" class="cls-14" d="M148.889,166.7l4.569,2.914c2.206,1.418,4.884,1.339,5.829-.236l.709-1.1c1.024-1.575,0-4.017-2.284-5.435l-4.569-2.914c-2.206-1.418-4.884-1.339-5.829.236l-.709,1.1C145.66,162.843,146.684,165.285,148.889,166.7Z" transform="translate(-30.984 -46.659)"/>
        <g id="Group_38414" data-name="Group 38414" transform="translate(125.06 115.153)">
          <g id="Group_38413" data-name="Group 38413">
            <path id="Path_131849" data-name="Path 131849" class="cls-16" d="M166.1,167.561c-3.151,11.579-4.647,23.552-5.908,35.446-.788,7.562-2.048,15.281-1.26,22.922,1.418,14.1,4.017,28.514,3.938,42.693-.079,9.137,14.1,9.137,14.178,0,.079-14.021-2.442-28.2-3.86-42.141-.709-7.01.315-13.863.945-20.874,1.1-11.579,2.6-23.158,5.671-34.343,2.363-8.665-11.264-12.445-13.706-3.7Z" transform="translate(-158.683 -162.591)"/>
          </g>
        </g>
        <g id="Group_38415" data-name="Group 38415" transform="translate(129.756 108.561)">
          <path id="Path_131850" data-name="Path 131850" class="cls-16" d="M176.976,189.887h0c1.339,1.5-4.332-5.671-2.6-4.647,3.466,2.127,23.158,15.439,27.254,15.517,4.962.079,2.048-4.726,5.75-7.956,3.466-3.151,4.332-8.192,4.647-12.918a8.022,8.022,0,0,0-.394-3.86,8.79,8.79,0,0,0-2.836-3.072c-8.743-6.617-25.915-22.922-38.045-17.723C156.575,161.294,170.675,182.877,176.976,189.887Z" transform="translate(-164.645 -154.222)"/>
        </g>
        <path id="Path_131851" data-name="Path 131851" class="cls-8" d="M166.6,66.332c-3.938,1.575-2.284,5.356-2.127,9.925a10.365,10.365,0,0,0,7.4,9.531l43.717,12.288s3.545-21.819-7.4-27.963c-4.647-2.678-9.689-3.781-16.226-4.411C182.273,64.6,173.057,63.654,166.6,66.332Z" transform="translate(-34.751 -26.633)"/>
        <path id="Path_131852" data-name="Path 131852" class="cls-8" d="M164.3,146.782c1.26,1.654,2.914-45.528.394-75.382l49.231,23.394c-.236,22.528-3.072,40.251-.394,67.663Z" transform="translate(-34.816 -28.077)"/>
        <path id="Path_131853" data-name="Path 131853" class="cls-8" d="M197.159,186.014c-12.13-4.411-23.709-9.295-30.562-17.644-3.308-1.969-2.914-5.356.945-7.562h0c3.86-2.206,9.767-2.442,13.076-.551L211.18,177.9c3.308,1.969,2.914,5.356-.945,7.562h0C206.375,187.747,200.467,187.983,197.159,186.014Z" transform="translate(-34.828 -46.672)"/>
        <g id="Group_38416" data-name="Group 38416" transform="translate(113.753 224.06)">
          <path id="Path_131854" data-name="Path 131854" class="cls-7" d="M160.36,317.538c.315-.158,3.387-2.6,3.7-2.757.473-.158,4.884-2.363,5.593-2.757,1.5-.788,5.12-1.339,3.23-6.144-2.678-6.932-21.189,4.017-21.189,4.017l-6.223,4.8a1.984,1.984,0,0,0-.709,2.363h0c.551,1.654,2.836,2.914,4.884,2.678C153.271,319.428,155.082,319.822,160.36,317.538Z" transform="translate(-144.392 -301.431)"/>
          <path id="Path_131855" data-name="Path 131855" class="cls-17" d="M160.06,315.147c.315-.158,3.387-2.6,3.7-2.757.473-.158,5.829-2.363,6.538-2.757,1.5-.788,4.962-1.812,3.151-6.538-2.678-6.932-22.055,4.411-22.055,4.411l-6.223,4.8a1.984,1.984,0,0,0-.709,2.363h0c.551,1.654,2.836,2.914,4.884,2.678C152.892,317.037,154.7,317.431,160.06,315.147Z" transform="translate(-144.329 -300.852)"/>
          <path id="Path_131856" data-name="Path 131856" class="cls-18" d="M152.9,319.668c-.945.079-2.678.079-3.781.236a4.46,4.46,0,0,1-4.647-2.678,2.059,2.059,0,0,1,.709-2.363l2.993-2.363C150.69,313.051,152.265,315.651,152.9,319.668Z" transform="translate(-144.332 -303.325)"/>
        </g>
        <g id="Group_38418" data-name="Group 38418" transform="translate(130.979 218.741)">
          <g id="Group_38417" data-name="Group 38417">
            <path id="Path_131857" data-name="Path 131857" class="cls-11" d="M166.2,295.045c2.993,2.363,9.216,1.969,11.579-.945,0,1.654.079,3.23,0,4.884-.158,6.617-11.737,6.617-11.579,0Z" transform="translate(-166.198 -294.1)"/>
          </g>
        </g>
        <path id="Path_131858" data-name="Path 131858" class="cls-19" d="M179.647,292.407l-.158,5.12a1.047,1.047,0,0,1-.236.63,9.309,9.309,0,0,1-9.374,3.545,21.526,21.526,0,0,1-8.507-3.072,1.123,1.123,0,0,1-.473-.945l.473-5.2a1.072,1.072,0,0,1,1.575-.866c2.442,1.5,7.956,3.623,14.887-.158C178.781,291.068,179.726,291.541,179.647,292.407Z" transform="translate(-34.094 -74.769)"/>
        <g id="Group_38420" data-name="Group 38420" transform="translate(154.205 128.544)">
          <g id="Group_38419" data-name="Group 38419">
            <path id="Path_131859" data-name="Path 131859" class="cls-16" d="M203.1,184.561c-3.151,11.579-4.647,23.552-5.908,35.446-.788,7.562-2.048,15.281-1.26,22.922,1.418,14.1,4.017,28.514,3.938,42.693-.079,9.137,14.1,9.137,14.178,0,.079-14.021-2.442-28.2-3.86-42.141-.709-7.01.315-13.863.945-20.874,1.1-11.579,2.6-23.158,5.671-34.343,2.363-8.665-11.264-12.445-13.706-3.7Z" transform="translate(-195.683 -179.591)"/>
          </g>
        </g>
        <g id="Group_38421" data-name="Group 38421" transform="translate(142.898 237.45)">
          <path id="Path_131860" data-name="Path 131860" class="cls-7" d="M197.36,334.538c.315-.158,3.387-2.6,3.7-2.757.473-.158,4.884-2.363,5.593-2.757,1.5-.788,5.12-1.339,3.23-6.144-2.678-6.932-21.189,4.017-21.189,4.017l-6.223,4.8a1.984,1.984,0,0,0-.709,2.363h0c.551,1.654,2.836,2.914,4.884,2.678C190.271,336.428,192.082,336.822,197.36,334.538Z" transform="translate(-181.392 -318.431)"/>
          <path id="Path_131861" data-name="Path 131861" class="cls-17" d="M197.06,332.147c.315-.158,3.387-2.6,3.7-2.757.473-.158,5.829-2.363,6.538-2.757,1.5-.788,4.962-1.812,3.151-6.538-2.678-6.932-22.055,4.411-22.055,4.411l-6.223,4.8a1.984,1.984,0,0,0-.709,2.363h0c.551,1.654,2.836,2.914,4.884,2.678C189.892,334.037,191.7,334.431,197.06,332.147Z" transform="translate(-181.329 -317.852)"/>
          <path id="Path_131862" data-name="Path 131862" class="cls-18" d="M189.9,336.668c-.945.079-2.678.079-3.781.236a4.46,4.46,0,0,1-4.647-2.678,2.059,2.059,0,0,1,.709-2.363l2.993-2.363C187.69,330.051,189.265,332.651,189.9,336.668Z" transform="translate(-181.332 -320.325)"/>
        </g>
        <g id="Group_38423" data-name="Group 38423" transform="translate(160.124 232.132)">
          <g id="Group_38422" data-name="Group 38422">
            <path id="Path_131863" data-name="Path 131863" class="cls-11" d="M203.2,312.045c2.993,2.363,9.216,1.969,11.579-.945,0,1.654.079,3.23,0,4.884-.158,6.617-11.737,6.617-11.579,0Z" transform="translate(-203.198 -311.1)"/>
          </g>
        </g>
        <path id="Path_131864" data-name="Path 131864" class="cls-19" d="M216.647,309.407l-.158,5.12a1.047,1.047,0,0,1-.236.63,9.309,9.309,0,0,1-9.374,3.545,21.527,21.527,0,0,1-8.507-3.072,1.123,1.123,0,0,1-.473-.945l.473-5.2a1.072,1.072,0,0,1,1.575-.866c2.442,1.5,7.956,3.623,14.887-.158C215.781,308.068,216.726,308.541,216.647,309.407Z" transform="translate(-41.949 -78.378)"/>
        <path id="Path_131865" data-name="Path 131865" class="cls-14" d="M188.541,66.011,183.5,47.5l12.682,3.545,4.1,15.124C201.144,68.61,192.165,75.463,188.541,66.011Z" transform="translate(-38.892 -23.003)"/>
        <path id="Path_131866" data-name="Path 131866" class="cls-14" d="M185.25,55.917l-3.623.158a10.106,10.106,0,0,1-10.4-9.767l-.63-18.353a10.106,10.106,0,0,1,9.767-10.4l3.623-.158a10.106,10.106,0,0,1,10.4,9.767l.63,18.353A10.159,10.159,0,0,1,185.25,55.917Z" transform="translate(-36.152 -16.611)"/>
        <path id="Path_131867" data-name="Path 131867" class="cls-14" d="M202.935,51.526c-1.654,1.339-3.466.866-4.1-1.024a5.822,5.822,0,0,1,1.733-5.908c1.654-1.339,3.466-.866,4.1,1.024A5.668,5.668,0,0,1,202.935,51.526Z" transform="translate(-42.1 -22.224)"/>
        <path id="Path_131868" data-name="Path 131868" class="cls-20" d="M186.818,48.518c0,.788-.315,1.418-.709,1.418s-.709-.63-.709-1.418.315-1.418.709-1.418S186.818,47.73,186.818,48.518Z" transform="translate(-39.295 -22.918)"/>
        <path id="Path_131869" data-name="Path 131869" class="cls-20" d="M175.118,43.818c0,.788-.315,1.418-.709,1.418s-.709-.63-.709-1.418.315-1.418.709-1.418S175.118,43.03,175.118,43.818Z" transform="translate(-36.811 -21.92)"/>
        <g id="Group_38425" data-name="Group 38425" transform="translate(145.277 20.004)">
          <g id="Group_38424" data-name="Group 38424">
            <path id="Path_131870" data-name="Path 131870" class="cls-2" d="M184.941,42.981a6.419,6.419,0,0,1,4.175,1.89c.551.551,1.339-.315.866-.866a7.6,7.6,0,0,0-5.041-2.206c-.788-.079-.788,1.1,0,1.182Z" transform="translate(-184.35 -41.795)"/>
          </g>
        </g>
        <g id="Group_38427" data-name="Group 38427" transform="translate(135.097 16.063)">
          <g id="Group_38426" data-name="Group 38426">
            <path id="Path_131871" data-name="Path 131871" class="cls-2" d="M171.957,38.059a6.592,6.592,0,0,1,4.332,1.5c.551.473,1.418-.315.866-.866a7.831,7.831,0,0,0-5.2-1.89c-.709.079-.709,1.26,0,1.26Z" transform="translate(-171.425 -36.793)"/>
          </g>
        </g>
        <path id="Path_131872" data-name="Path 131872" class="cls-21" d="M188.4,65.678,193.6,63s-1.812,3.781-4.332,5.278Z" transform="translate(-39.932 -26.294)"/>
        <path id="Path_131873" data-name="Path 131873" class="cls-22" d="M190.1,168.571c3.938,1.812,8.192,3.466,12.524,4.962,3.308,1.969,9.216,1.654,13.076-.551h0c2.206-1.26,3.23-2.836,3.23-4.411l.158.079c-2.678-27.412.158-45.135.394-67.662l-1.733-.788C216.724,126.273,212.549,167.547,190.1,168.571Z" transform="translate(-40.293 -34.192)"/>
        <g id="Group_38429" data-name="Group 38429" transform="translate(150.855 55.444)">
          <g id="Group_38428" data-name="Group 38428">
            <path id="Path_131874" data-name="Path 131874" class="cls-14" d="M211.965,92.232c2.678,6.7,5.278,13.627,5.986,20.874.315,3.387.315,6.774.315,10.161,0,3.466.315,7.247-.551,10.713a12.343,12.343,0,0,1-.788,2.048c-.236-.236,1.418-.945,1.418-.551-.079.473-4.1-2.914-4.49-3.308-5.75-5.908-9.925-13.391-13.942-20.559-2.836-5.12-10.713-.551-7.877,4.569,4.647,8.428,9.846,17.644,17.172,24.1,4.49,3.938,11.421,6.617,15.439.551,1.89-2.757,2.363-6.144,2.6-9.452a131.283,131.283,0,0,0,.079-14.73c-.394-9.452-2.993-18.038-6.538-26.781-2.206-5.435-10.949-3.072-8.822,2.363Z" transform="translate(-191.43 -86.788)"/>
          </g>
        </g>
        <path id="Path_131875" data-name="Path 131875" class="cls-14" d="M197.322,120.354h0a5.165,5.165,0,0,1-5.908,4.254,22.544,22.544,0,0,0-8.9-1.733,5.023,5.023,0,0,1-5.2-3.23,4.56,4.56,0,0,1-.236-2.521h0c.473-2.757,2.521-3.7,5.908-4.254a22.622,22.622,0,0,1,10.082,1.575A5.18,5.18,0,0,1,197.322,120.354Z" transform="translate(-37.512 -36.859)"/>
        <path id="Path_131876" data-name="Path 131876" class="cls-14" d="M197.83,117.012h0a2.409,2.409,0,0,1-3.466-.394l-2.914-3.7a2.409,2.409,0,0,1,.394-3.466h0a2.409,2.409,0,0,1,3.466.394l2.914,3.7A2.494,2.494,0,0,1,197.83,117.012Z" transform="translate(-40.462 -36.038)"/>
        <path id="Path_131877" data-name="Path 131877" class="cls-8" d="M211.566,88.484l4.411,24.025c2.836,6.617,17.565,1.339,15.754-4.254l-6.223-22.764a7.659,7.659,0,0,0-8.428-5.12h0A6.82,6.82,0,0,0,211.566,88.484Z" transform="translate(-44.824 -29.959)"/>
        <g id="Group_38431" data-name="Group 38431" transform="translate(171.96 73.459)">
          <g id="Group_38430" data-name="Group 38430">
            <path id="Path_131878" data-name="Path 131878" class="cls-15" d="M219.7,116.938a17.4,17.4,0,0,0,11.973-4.726c1.418-1.339-.709-3.466-2.127-2.127a14.279,14.279,0,0,1-9.846,3.781,1.537,1.537,0,0,0,0,3.072Z" transform="translate(-218.225 -109.659)"/>
          </g>
        </g>
        <path id="Path_131879" data-name="Path 131879" class="cls-23" d="M175.564,53.281l6.223,2.678a.7.7,0,0,1,.394.63c-.158,1.024-.866,3.072-4.254,1.89a5.27,5.27,0,0,1-3.23-4.569A.609.609,0,0,1,175.564,53.281Z" transform="translate(-37.022 -24.215)"/>
        <g id="Group_38435" data-name="Group 38435" transform="translate(87.973)">
          <rect id="Rectangle_1190" data-name="Rectangle 1190" class="cls-4" width="9.374" height="9.374" transform="translate(6.853 22.134)"/>
          <path id="Path_131880" data-name="Path 131880" class="cls-4" d="M128.392,58.116a7.349,7.349,0,0,1-6.774,0c-1.89-1.1-1.89-2.836,0-3.938a7.349,7.349,0,0,1,6.774,0C130.282,55.28,130.282,57.013,128.392,58.116Z" transform="translate(-113.426 -24.245)"/>
          <path id="Path_131881" data-name="Path 131881" class="cls-4" d="M127.693,60.435a5.344,5.344,0,0,1-4.647,0,1.421,1.421,0,0,1,0-2.678,5.344,5.344,0,0,1,4.647,0C129.032,58.544,129.032,59.726,127.693,60.435Z" transform="translate(-113.829 -25.068)"/>
          <rect id="Rectangle_1191" data-name="Rectangle 1191" class="cls-4" width="12.761" height="2.363" transform="translate(5.199 24.103)"/>
          <path id="Path_131882" data-name="Path 131882" class="cls-4" d="M129.049,48.612a10.177,10.177,0,0,1-9.058,0c-2.521-1.418-2.521-3.781,0-5.2a10.177,10.177,0,0,1,9.058,0C131.57,44.831,131.57,47.194,129.049,48.612Z" transform="translate(-112.98 -21.909)"/>
          <path id="Path_131883" data-name="Path 131883" class="cls-4" d="M129.049,51.512a10.177,10.177,0,0,1-9.058,0c-2.521-1.418-2.521-3.781,0-5.2a10.177,10.177,0,0,1,9.058,0C131.57,47.731,131.57,50.016,129.049,51.512Z" transform="translate(-112.98 -22.525)"/>
          <g id="Group_38432" data-name="Group 38432">
            <path id="Path_131884" data-name="Path 131884" class="cls-24" d="M134.6,26.955c0-5.829-5.12-10.555-11.5-10.555s-11.5,4.726-11.5,10.555a10.314,10.314,0,0,0,3.938,7.956,9.376,9.376,0,0,1,2.206,4.569,3.557,3.557,0,0,0,2.363,2.678,7.837,7.837,0,0,0,5.671.079,3.748,3.748,0,0,0,2.284-2.678,9.836,9.836,0,0,1,2.206-4.49c0-.079.079-.079.079-.158A9.521,9.521,0,0,0,134.6,26.955Z" transform="translate(-111.6 -16.4)"/>
          </g>
          <g id="Group_38434" data-name="Group 38434" transform="translate(2.521 3.308)">
            <g id="Group_38433" data-name="Group 38433">
              <path id="Path_131885" data-name="Path 131885" class="cls-25" d="M132.917,28.95c0-4.647-4.1-8.35-9.058-8.35-5.041,0-9.058,3.7-9.058,8.35a7.871,7.871,0,0,0,3.151,6.3c1.89,2.048,1.969,6.144,1.969,6.144a8.128,8.128,0,0,0,7.719,0s.158-3.86,2.048-5.986l.079-.079A8.259,8.259,0,0,0,132.917,28.95Z" transform="translate(-114.8 -20.6)"/>
            </g>
          </g>
        </g>
        <g id="Group_38436" data-name="Group 38436" transform="translate(94.09 76.926)">
          <path id="Path_131886" data-name="Path 131886" class="cls-26" d="M182.8,156.731v-1.1l-1.418.551-.315-.709-35.84-20.716a1.77,1.77,0,0,0-1.654.079l-15.439,8.9V143.5l-2.836,1.182v1.182h0c0,.079.158.236.236.315l37.258,21.5a1.77,1.77,0,0,0,1.654-.079l17.881-10.319a.751.751,0,0,0,.473-.551Z" transform="translate(-120.626 -118.419)"/>
          <path id="Path_131887" data-name="Path 131887" class="cls-11" d="M162.783,166.2l-37.258-21.5c-.394-.236-.394-.709.158-.945l17.881-10.319a1.771,1.771,0,0,1,1.654-.079l37.258,21.5c.394.236.394.709-.158.945l-17.8,10.319A2.225,2.225,0,0,1,162.783,166.2Z" transform="translate(-120.614 -118.121)"/>
          <path id="Path_131888" data-name="Path 131888" class="cls-26" d="M173.742,155.34l-9.058-5.2a.148.148,0,0,1,0-.236l4.332-2.521a.352.352,0,0,1,.394,0l9.058,5.2a.148.148,0,0,1,0,.236l-4.332,2.521Z" transform="translate(-128.975 -121.123)"/>
          <path id="Path_131889" data-name="Path 131889" class="cls-23" d="M160.66,137.88a4.284,4.284,0,0,0-1.733-2.6l-37.021-21.031a1.074,1.074,0,0,0-.788-.158h0a.169.169,0,0,0-.158.158l-1.26,1.26,1.1-.079,3.545,22.764a4.283,4.283,0,0,0,1.733,2.6l34.973,19.85,1.1,1.26.158.315c.709.158,2.363-1.024,2.363-1.024Z" transform="translate(-119.437 -114.061)"/>
          <path id="Path_131890" data-name="Path 131890" class="cls-27" d="M161.692,163.626,124.67,142.6a4.072,4.072,0,0,1-1.733-2.6l-3.545-23c-.158-.945.394-1.418,1.182-.945L157.6,137.081a4.072,4.072,0,0,1,1.733,2.6l3.545,23C163.031,163.626,162.479,164.02,161.692,163.626Z" transform="translate(-119.366 -114.444)"/>
          <path id="Path_131891" data-name="Path 131891" class="cls-23" d="M146.589,147.042c.158,1.26-.945,1.5-2.442.63-1.575-.866-2.993-2.6-3.151-3.781-.158-1.26.945-1.5,2.442-.63C145.013,144.128,146.431,145.86,146.589,147.042Z" transform="translate(-123.955 -120.151)"/>
        </g>
        <path id="Path_131892" data-name="Path 131892" class="cls-28" d="M31.388,79.5S45.8,95.1,48.638,132.354A305.4,305.4,0,0,0,52.5,164.1a8.507,8.507,0,0,1-4.569,9.216,29.988,29.988,0,0,1-18.589,3.308c-2.836-.394-4.254-2.757-4.411-5.435a194.433,194.433,0,0,0-5.829-66.8l2.363-14.336a9.7,9.7,0,0,1,1.26-3.86Z" transform="translate(-3.988 -29.797)"/>
        <path id="Path_131893" data-name="Path 131893" class="cls-28" d="M63.724,71.174s9.767,25.049,4.726,88.458a2.743,2.743,0,0,0,4.017,2.6,63.286,63.286,0,0,0,6.144-3.623,5.361,5.361,0,0,0,2.442-4.647c-.551-12.761-1.024-63.8-1.024-63.8S81.92,67.787,64.355,68.5C43.481,69.283,63.724,71.174,63.724,71.174Z" transform="translate(-11.591 -27.457)"/>
        <path id="Path_131894" data-name="Path 131894" class="cls-29" d="M74.467,69.893c1.575,8.665,4.884,18.511,3.466,24.576l-4.175-.63,2.363,7.641-4.254,29.775S73.207,99.983,64.7,66.9C68.8,66.979,69.978,67.766,74.467,69.893Z" transform="translate(-13.67 -27.122)"/>
        <g id="Group_38441" data-name="Group 38441" transform="translate(27.241 4.154)">
          <path id="Path_131895" data-name="Path 131895" class="cls-30" d="M59.02,73.587,53.9,70.2s1.575,5.12,4.175,6.617Z" transform="translate(-38.617 -31.976)"/>
          <path id="Path_131896" data-name="Path 131896" class="cls-3" d="M59.5,63.553l3.545-.473a10.1,10.1,0,0,0,8.743-11.264l-2.363-18.2a10.1,10.1,0,0,0-11.264-8.743l-3.545.473a10.1,10.1,0,0,0-8.743,11.264l1.26,13.312C47.847,55.519,53.991,64.262,59.5,63.553Z" transform="translate(-36.896 -22.336)"/>
          <path id="Path_131897" data-name="Path 131897" class="cls-31" d="M53.4,38.315c4.017,1.182,6.223.63,10.082-1.575,4.175-2.442,4.017-8.35,0-11.028-2.206-1.5-2.442-2.442-6.774-3.466C44.5,19.41,33,27.366,34.657,40.52c0,0-1.1,17.644,9.767,18.589l1.5-5.514s-1.812-.945.236-3.7a16.762,16.762,0,0,1,2.678-2.757c1.339-1.182,1.339-3.308.866-5.435A2.9,2.9,0,0,1,53.4,38.315Z" transform="translate(-34.498 -21.674)"/>
          <path id="Path_131898" data-name="Path 131898" class="cls-3" d="M45.664,61.712A2.432,2.432,0,0,0,49.6,60.057a6.019,6.019,0,0,0-2.678-5.593,2.432,2.432,0,0,0-3.938,1.654A5.872,5.872,0,0,0,45.664,61.712Z" transform="translate(-36.289 -28.529)"/>
          <path id="Path_131899" data-name="Path 131899" class="cls-20" d="M63.487,55.295c.158.788.551,1.339.945,1.26s.551-.709.473-1.5c-.158-.788-.551-1.339-.945-1.26S63.329,54.507,63.487,55.295Z" transform="translate(-40.642 -28.492)"/>
          <path id="Path_131900" data-name="Path 131900" class="cls-20" d="M73.695,49.595c.158.788.551,1.339.945,1.26s.551-.709.473-1.5c-.158-.788-.551-1.339-.945-1.26S73.616,48.807,73.695,49.595Z" transform="translate(-42.816 -27.282)"/>
          <g id="Group_38438" data-name="Group 38438" transform="translate(18.618 21.434)">
            <g id="Group_38437" data-name="Group 38437">
              <path id="Path_131901" data-name="Path 131901" class="cls-32" d="M62.124,48.9a5.935,5.935,0,0,0-3.86,2.6c-.551.788.788,1.575,1.339.788a4.881,4.881,0,0,1,2.914-1.89c.945-.158.551-1.654-.394-1.5Z" transform="translate(-58.134 -48.885)"/>
            </g>
          </g>
          <g id="Group_38440" data-name="Group 38440" transform="translate(27.068 16.796)">
            <g id="Group_38439" data-name="Group 38439">
              <path id="Path_131902" data-name="Path 131902" class="cls-32" d="M73.7,43c-1.575.158-3.623.63-4.647,1.89-.63.709.473,1.812,1.1,1.1A5.288,5.288,0,0,1,73.7,44.575c.945-.158.945-1.654,0-1.575Z" transform="translate(-68.861 -42.996)"/>
            </g>
          </g>
          <path id="Path_131903" data-name="Path 131903" class="cls-33" d="M71.264,46.8a10.051,10.051,0,0,1-8.743,11.264l-3.545.473c-3.387.473-5.908-3.387-8.113-7.8h0a1.4,1.4,0,0,1-2.048-.158l-.315-.315,1.024,4.254c.709,5.514,5.278,12.445,10.791,11.737l3.545-.473A10.1,10.1,0,0,0,72.6,54.522L70.161,36.406A10.05,10.05,0,0,0,69.61,34.2Z" transform="translate(-37.471 -24.333)"/>
          <path id="Path_131904" data-name="Path 131904" class="cls-23" d="M72.978,58.875,67.228,62.5a.635.635,0,0,0-.236.709c.315.945,1.339,2.914,4.49,1.182a5.215,5.215,0,0,0,2.442-4.962A.619.619,0,0,0,72.978,58.875Z" transform="translate(-41.39 -29.553)"/>
        </g>
        <path id="Path_131905" data-name="Path 131905" class="cls-4" d="M17.4,183.4l6.459,4.017,5.356-7.247L22.284,176Z" transform="translate(-3.627 -50.285)"/>
        <g id="Group_38442" data-name="Group 38442" transform="translate(0 55.985)">
          <path id="Path_131906" data-name="Path 131906" class="cls-28" d="M19.674,159.883a2.918,2.918,0,0,0-.315-3.938c-4.569-4.254-7.089-10.082-7.562-17.408-1.024-15.833,7.089-29.381,15.2-42.3,4.017-6.459-6.223-12.445-10.24-5.986C6.914,106.005-2.066,122.7.3,141.924c.945,7.326,3.151,14.178,7.956,19.85a26.946,26.946,0,0,0,3.308,3.387,2.888,2.888,0,0,0,4.1-.394Z" transform="translate(0.085 -87.475)"/>
        </g>
        <path id="Path_131907" data-name="Path 131907" class="cls-3" d="M30.289,192.309c-.315.315-7.4-2.521-4.569-8.428s11.185-.158,11.185-.158S33.361,189.552,30.289,192.309Z" transform="translate(-5.252 -51.392)"/>
        <g id="Group_38444" data-name="Group 38444" transform="translate(21.637 124.781)">
          <g id="Group_38443" data-name="Group 38443">
            <path id="Path_131908" data-name="Path 131908" class="cls-5" d="M38.661,175.669c-.63,3.623-2.363,6.774-4.254,9.925-1.733,2.757-4.1,4.569-6.617,6.617-1.182.945.473,2.6,1.654,1.654,2.678-2.206,5.12-4.1,7.01-7.089,2.048-3.308,3.86-6.617,4.49-10.476.236-1.5-1.969-2.127-2.284-.63Z" transform="translate(-27.384 -174.814)"/>
          </g>
        </g>
        <path id="Path_131909" data-name="Path 131909" class="cls-5" d="M27,83.992l8.586,21.031,5.514-.866-1.5,8.665,11.028,25.915a339.609,339.609,0,0,0-6.7-38.282c-1.969-8.113-6.3-14.966-6.065-24.655C33.774,78.636,30.387,80.526,27,83.992Z" transform="translate(-5.665 -29.011)"/>
        <path id="Path_131910" data-name="Path 131910" class="cls-29" d="M29.2,81.977,37.471,102.3l5.514-.866-1.5,8.743,9.61,24.891a182.593,182.593,0,0,0-6.932-42.22C42.512,87.1,39.125,79.456,40.385,74.1A42.676,42.676,0,0,0,29.2,81.977Z" transform="translate(-6.133 -28.65)"/>
      </g>
      <path id="Path_131911" data-name="Path 131911" class="cls-2" d="M205.8,21.025a3.425,3.425,0,0,0-1.1-2.836,2.33,2.33,0,0,0,.158-.788,3.459,3.459,0,0,0-1.812-3.387,4.157,4.157,0,0,0,.63-1.733,3.592,3.592,0,0,0-3.23-3.86,3.592,3.592,0,0,0-3.23-3.86,4.844,4.844,0,0,0-1.1.079,3.565,3.565,0,0,0-3.072-2.521,2.529,2.529,0,0,0-1.339.158A3.423,3.423,0,0,0,188.863.309a3.54,3.54,0,0,0-1.812.315,4.156,4.156,0,0,0-1.733-.63,3.469,3.469,0,0,0-3.387,1.733,3.284,3.284,0,0,0-1.89-.709,3.585,3.585,0,0,0-2.521.788,2.516,2.516,0,0,0-1.1-.236,3.523,3.523,0,0,0-3.7,2.521,2.8,2.8,0,0,0-.788-.158,3.592,3.592,0,0,0-3.86,3.23v.315a3.53,3.53,0,0,0-2.284,2.993,3.67,3.67,0,0,0,.236,1.654,3.6,3.6,0,0,0-3.23,3.151,3.941,3.941,0,0,0,.551,2.284,3.327,3.327,0,0,0-.945,2.127,3.656,3.656,0,0,0,2.678,3.781,3.6,3.6,0,0,0,2.206,1.812,6.269,6.269,0,0,0,6.38,1.733,4.8,4.8,0,0,0,5.908,2.048,3.8,3.8,0,0,0,2.757,1.812,3.287,3.287,0,0,0,3.308-1.733,3.424,3.424,0,0,0,1.575.551,3.541,3.541,0,0,0,3.781-2.836c.158,0,.315.079.473.079a3.941,3.941,0,0,0,2.284-.551,5.007,5.007,0,0,0,1.418.473,1.168,1.168,0,0,0-.079.551,3.561,3.561,0,0,0,.551,2.206,2.831,2.831,0,0,0-.158.866,3.559,3.559,0,1,0,6.538-1.575c.079-.158.079-.315.158-.473a3.6,3.6,0,0,0,3.072-3.151,3.285,3.285,0,0,0-.473-2.127A3.588,3.588,0,0,0,205.8,21.025Z" transform="translate(-34.494 0)"/>
    </g>
  </g>
</svg>
