<svg xmlns="http://www.w3.org/2000/svg" viewBox="0 0 306 306">
  <defs>
    <style>
      .cls-1, .cls-21 {
        fill: none;
      }

      .cls-2 {
        fill: #a8c4e5;
        opacity: 0.4;
      }

      .cls-3 {
        fill: #c9457b;
      }

      .cls-4 {
        fill: #ff579c;
      }

      .cls-5 {
        fill: #fff;
      }

      .cls-6 {
        fill: #ffaa82;
      }

      .cls-7 {
        fill: #bbd6f2;
      }

      .cls-8 {
        fill: #0e2b4a;
      }

      .cls-9 {
        fill: #dbedff;
      }

      .cls-10 {
        fill: #8787cc;
      }

      .cls-11 {
        fill: #bc4073;
      }

      .cls-12 {
        fill: #423a66;
      }

      .cls-13 {
        fill: #7c1366;
      }

      .cls-14 {
        fill: #ef9a78;
      }

      .cls-15 {
        fill: #2d0f00;
      }

      .cls-16 {
        fill: #ccce6b;
      }

      .cls-17 {
        fill: #f6ff80;
      }

      .cls-18 {
        fill: #ea8a6c;
      }

      .cls-19 {
        fill: #46466b;
      }

      .cls-20 {
        fill: #492817;
      }

      .cls-21 {
        stroke: #45446c;
        stroke-linecap: round;
        stroke-linejoin: round;
        stroke-miterlimit: 10;
        stroke-width: 1.594px;
      }
    </style>
  </defs>
  <g id="Group_34604" data-name="Group 34604" transform="translate(-6625 -3489)">
    <rect id="Rectangle_1196" data-name="Rectangle 1196" class="cls-1" width="306" height="306" transform="translate(6625 3489)"/>
    <g id="Group_34599" data-name="Group 34599" transform="translate(6666.004 3509.756)">
      <g id="Group_10163" data-name="Group 10163" transform="translate(-0.004 146.322)">
        <path id="Path_36313" data-name="Path 36313" class="cls-2" d="M202.158,195.88c-34.708-20.771-91.537-21.76-126.875-2.068S39.316,246.234,74.025,267.1c34.708,20.771,90.907,21.76,126.875,2.518C240.553,248.393,236.867,216.741,202.158,195.88Z" transform="translate(-4.874 -164.434)"/>
        <path id="Path_36314" data-name="Path 36314" class="cls-3" d="M147.327,200.969c-33-19.782-86.951-20.681-120.49-1.978-33.629,18.7-34.079,49.815-1.169,69.6s86.321,20.681,120.58,2.428C183.833,250.783,180.327,220.661,147.327,200.969Z" transform="translate(-0.127 -165.026)"/>
        <path id="Path_36315" data-name="Path 36315" class="cls-4" d="M146.027,178.169c-33-19.782-86.951-20.681-120.49-1.978C-8.093,194.8-8.543,225.915,24.367,245.7c33,19.782,86.321,20.681,120.58,2.428C182.533,227.983,179.027,197.861,146.027,178.169Z" transform="translate(0.004 -162.728)"/>
        <path id="Path_36316" data-name="Path 36316" class="cls-5" d="M128.938,194.179h0c-.45-3.237-2.7-6.384-6.744-8.722-10.161-5.845-27.965-5.125-39.654,1.619-5.845,3.417-9.891,11.6,3.237,19.242-8.632-6.474-27.425-5.305-33.27-1.888-11.779,6.744-13.038,16.995-2.877,22.929,5.125,2.967,12.319,4.226,19.6,3.866h0c.719,0,31.022-.09,48.826-.18,6.744,0,12.678-3.6,12.409-7.373l-1.439-27.965a8.725,8.725,0,0,0-.09-1.529Z" transform="translate(-4.308 -164.621)"/>
      </g>
      <g id="Group_10193" data-name="Group 10193" transform="translate(20.771)">
        <g id="Group_10165" data-name="Group 10165" transform="translate(7.445 29.147)">
          <g id="Group_10164" data-name="Group 10164">
            <path id="Path_36317" data-name="Path 36317" class="cls-6" d="M32.3,38.966A44.7,44.7,0,0,0,47.044,51.1c4.766,2.338,9.8,3.777,14.747,5.845,4.5,1.888,6.474-5.485,1.978-7.283-4.226-1.8-8.722-3.057-12.858-5.035A39.757,39.757,0,0,1,37.692,33.75c-3.147-3.866-8.452,1.529-5.4,5.215Z" transform="translate(-31.38 -32.415)"/>
          </g>
        </g>
        <path id="Path_36318" data-name="Path 36318" class="cls-6" d="M34.871,21.2h0a4.362,4.362,0,0,1,4.856,3.777l.989,8.272A4.362,4.362,0,0,1,36.939,38.1h0a4.362,4.362,0,0,1-4.856-3.777l-.989-8.272A4.333,4.333,0,0,1,34.871,21.2Z" transform="translate(-23.901 -2.134)"/>
        <g id="Group_10167" data-name="Group 10167" transform="translate(0 12.461)">
          <g id="Group_10166" data-name="Group 10166">
            <path id="Path_36319" data-name="Path 36319" class="cls-7" d="M25.348,38.446l10.52-2.608a1.685,1.685,0,0,0,1.079-1.619L35.778,14.978A1.055,1.055,0,0,0,34.61,13.9L24.179,16.327A1.685,1.685,0,0,0,23.1,17.945L24.269,37.1c0,.45.18.629.54.9Z" transform="translate(-23.1 -13.861)"/>
            <path id="Path_36320" data-name="Path 36320" class="cls-7" d="M31.223,21.9s5.755,13.038,5.755,12.319l-.9-19.782-.809-.45a.955.955,0,0,0-.719-.09L24.119,16.324a1.4,1.4,0,0,0-.719.54Z" transform="translate(-23.13 -13.859)"/>
            <path id="Path_36321" data-name="Path 36321" class="cls-8" d="M26.247,38.756l10.431-2.518a1.506,1.506,0,0,0,.989-1.619L36.587,15.378A1.016,1.016,0,0,0,35.418,14.3L24.988,16.816A1.506,1.506,0,0,0,24,18.435l1.169,19.242A.988.988,0,0,0,26.247,38.756Z" transform="translate(-23.189 -13.902)"/>
            <path id="Path_36322" data-name="Path 36322" class="cls-8" d="M23.68,20.38l.09,1.079a.088.088,0,0,1-.09.09h0a.278.278,0,0,1-.09-.18L23.5,20.29c0-.09,0-.09.09-.09h0A.314.314,0,0,1,23.68,20.38Z" transform="translate(-23.14 -14.498)"/>
            <path id="Path_36323" data-name="Path 36323" class="cls-8" d="M23.78,22.58l.09,1.079a.088.088,0,0,1-.09.09h0a.278.278,0,0,1-.09-.18L23.6,22.49c0-.09,0-.09.09-.09h0C23.78,22.4,23.78,22.49,23.78,22.58Z" transform="translate(-23.15 -14.72)"/>
            <path id="Path_36324" data-name="Path 36324" class="cls-9" d="M26.3,35.822,36.55,33.395,35.561,16.4,25.4,18.828l1.169,16.635C26.569,35.553,26.119,35.822,26.3,35.822Z" transform="translate(-23.332 -14.115)"/>
            <path id="Path_36325" data-name="Path 36325" class="cls-10" d="M28.88,17.269l3.237-.719c.09,0,.18-.18.18-.27h0a.193.193,0,0,0-.18-.18l-3.237.719c-.09,0-.18.18-.18.27h0C28.7,17.269,28.79,17.359,28.88,17.269Z" transform="translate(-23.665 -14.085)"/>
          </g>
        </g>
        <ellipse id="Ellipse_108" data-name="Ellipse 108" class="cls-2" cx="18.343" cy="31.741" rx="18.343" ry="31.741" transform="translate(39.461 211.514) rotate(-89.689)"/>
        <g id="Group_10169" data-name="Group 10169" transform="translate(51.458 168.118)">
          <path id="Path_36326" data-name="Path 36326" class="cls-11" d="M98.047,203.927l-.719-.09a.7.7,0,0,1-.629-.809h0a.7.7,0,0,1,.809-.629l.719.09a.7.7,0,0,1,.629.809h0A.672.672,0,0,1,98.047,203.927Z" transform="translate(-81.976 -188.522)"/>
          <path id="Path_36327" data-name="Path 36327" class="cls-12" d="M96.663,203.03l-1.169-3.147a.8.8,0,0,1,.45-.989h0a.8.8,0,0,1,.989.45L98.1,202.49a.8.8,0,0,1-.45.989h0A.8.8,0,0,1,96.663,203.03Z" transform="translate(-81.85 -188.165)"/>
          <g id="Group_10168" data-name="Group 10168">
            <path id="Path_36328" data-name="Path 36328" class="cls-13" d="M93.431,188.92c-1.349-1.169-3.956-2.068-4.945-1.349l-1.169,5.665-.36.27c-.809,2.608-5.575,14.207-6.564,18.074-.54,1.978,2.428,1.978,2.428,1.978,5.845-1.079,10.341-5.575,10.341-5.575,1.708-2.518-.629-4.046.45-8.452.18-.719.9-1.708,1.259-1.169l1.169,3.777,1.169-.719s-1.259-5.575-1.888-9.441A3.983,3.983,0,0,0,93.431,188.92Z" transform="translate(-80.327 -187.003)"/>
            <path id="Path_36329" data-name="Path 36329" class="cls-14" d="M87.893,187.446l-1.619,2.877S83.847,202.1,83.4,204.441c-.54,2.7,8.9,3.507,9.441-11.51C94.278,184.569,87.893,187.446,87.893,187.446Z" transform="translate(-80.634 -186.968)"/>
          </g>
        </g>
        <g id="Group_10171" data-name="Group 10171" transform="translate(49.788 90.727)">
          <g id="Group_10170" data-name="Group 10170">
            <path id="Path_36330" data-name="Path 36330" class="cls-14" d="M78.587,105.756c-.27,16.815-.18,33.629,1.439,50.354C81.015,166,82.633,175.8,84.342,185.6c1.079,6.384,10.79,3.687,9.711-2.7-1.529-9.172-3.147-18.343-4.046-27.695-1.529-16.455-1.529-33-1.349-49.455.09-6.474-9.981-6.474-10.071,0Z" transform="translate(-78.47 -100.9)"/>
          </g>
        </g>
        <g id="Group_10173" data-name="Group 10173" transform="translate(48.367 87.816)">
          <g id="Group_10172" data-name="Group 10172">
            <path id="Path_36331" data-name="Path 36331" class="cls-13" d="M89.937,103.361c-1.169,16.635-1.888,33.36-.09,49.994.36,3.147-2.967,5.935-5.935,5.935-3.507,0-5.575-2.7-5.935-5.935-1.8-16.635-1.079-33.36.09-49.994.54-7.553,12.409-7.643,11.869,0Z" transform="translate(-76.89 -97.662)"/>
          </g>
        </g>
        <g id="Group_10174" data-name="Group 10174" transform="translate(50.011 6.802)">
          <path id="Path_36332" data-name="Path 36332" class="cls-15" d="M80.77,16.319c-1.8,3.057-2.877,6.924-1.259,10.071a15.641,15.641,0,0,0,.989,1.619,21.374,21.374,0,0,1,2.158,4.586,3.194,3.194,0,0,0,.36.809,1.614,1.614,0,0,0,1.888,0c.54-.36.9-.989,1.439-1.439,1.349-1.439,21.311,16.005,22.749,14.567,1.888-1.888,1.169-27.785,1.079-30.482-.09-3.417-17.354-2.248-19.6-4.856-.45-.54-.989-.989-1.349-1.529h0c-.54-.809-.9-2.338-2.158-2.068-.989.18-1.619,1.8-2.068,2.518C83.647,12.182,82.029,14.071,80.77,16.319Z" transform="translate(-78.718 -7.565)"/>
        </g>
        <g id="Group_10176" data-name="Group 10176" transform="translate(63.617 33.896)">
          <g id="Group_10175" data-name="Group 10175">
            <path id="Path_36333" data-name="Path 36333" class="cls-16" d="M111.429,43.275c-4.046-4.046-11.06-5.665-16.635-5.575a.99.99,0,0,0,0,1.978c5.035-.09,11.51,1.349,15.2,5.035.9.809,2.338-.54,1.439-1.439Z" transform="translate(-93.85 -37.696)"/>
          </g>
        </g>
        <g id="Group_10178" data-name="Group 10178" transform="translate(22.951 33.226)">
          <g id="Group_10177" data-name="Group 10177">
            <path id="Path_36334" data-name="Path 36334" class="cls-16" d="M79.534,38.614c-6.564,7.373-14.027,12.049-23.379,6.564-5.575-3.327-10.7,5.4-5.125,8.722,13.308,7.823,25.986,2.7,35.608-8.093,4.406-4.945-2.787-12.139-7.1-7.193Z" transform="translate(-48.625 -36.951)"/>
          </g>
        </g>
        <g id="Group_10180" data-name="Group 10180" transform="translate(70.331 92.751)">
          <g id="Group_10179" data-name="Group 10179">
            <path id="Path_36335" data-name="Path 36335" class="cls-6" d="M101.661,108.051c.629,10.97.54,22.03.36,33.09-.09,5.215-1.349,11.42-.27,16.545,1.169,5.665,3.866,11.33,5.845,16.725,2.787,7.823,5.575,15.826,9.262,23.289,2.877,5.845,11.6.719,8.722-5.125-5.935-12.049-9.172-25.177-14.117-37.586.54,1.439,0,1.439.18.18a24.035,24.035,0,0,0,.09-3.6c.09-3.866.18-7.733.27-11.689.18-10.61.27-21.311-.36-31.921-.27-6.384-10.341-6.474-9.981.09Z" transform="translate(-101.317 -103.15)"/>
          </g>
        </g>
        <path id="Path_36336" data-name="Path 36336" class="cls-13" d="M113.37,109.542c-.989,14.207-10.071,15.646-19.242,10.341C88.463,116.646,81,112.24,78.751,105.765c-1.439-4.046,1.169-9.711,1.169-13.757,0,0,5.125-15.736,14.3-10.431C103.3,86.793,114.539,93,113.37,109.542Z" transform="translate(-28.667 -8.114)"/>
        <path id="Path_36337" data-name="Path 36337" class="cls-17" d="M81.988,47.5s-6.114,9.531-5.4,15.286c.45,3.687,3.057,7.823,3.507,8.992,3.147,9.621,1.439,12.5,1.8,15.2,0,0,2.068,9.082,24.638.54l9.351-27.875Z" transform="translate(-28.487 -4.789)"/>
        <path id="Path_36338" data-name="Path 36338" class="cls-17" d="M114.494,64.8a3.058,3.058,0,0,0,.989-1.888c.54-4.945,3.327-7.193-2.068-15.646-.9-1.349-12.678-7.463-21.49-9.082a9.33,9.33,0,0,0-10.251,5.665A52.1,52.1,0,0,0,79.7,50.861c-.45,9.082,3.6-2.877,4.226,2.158,0-.09-.09-.27-.09-.36,0,0,1.079,8.452,1.888,15.016.54,4.136.9,7.1.9,7.463v.09L102,87.368,110.088,72.8h0Z" transform="translate(-28.802 -3.834)"/>
        <path id="Path_36339" data-name="Path 36339" class="cls-6" d="M93.484,38s-7.643,7.913-.989,13.578,17.984-6.924,17.984-6.924C104.544,40.877,98.789,38.36,93.484,38Z" transform="translate(-29.822 -3.831)"/>
        <path id="Path_36340" data-name="Path 36340" class="cls-6" d="M96.556,40.976,92.6,25.6l9.621,3.057,3.237,12.589C106.088,43.314,99.434,48.889,96.556,40.976Z" transform="translate(-30.107 -2.581)"/>
        <path id="Path_36341" data-name="Path 36341" class="cls-18" d="M95.9,39.048l4.316-2.248s-1.439,3.147-3.6,4.406Z" transform="translate(-30.44 -3.71)"/>
        <g id="Group_10182" data-name="Group 10182" transform="translate(86.232 176.154)">
          <path id="Path_36342" data-name="Path 36342" class="cls-11" d="M133.817,210.127l-.719.09a.783.783,0,0,1-.9-.629h0a.783.783,0,0,1,.629-.9l.719-.09a.783.783,0,0,1,.9.629h0A.741.741,0,0,1,133.817,210.127Z" transform="translate(-120.329 -197.183)"/>
          <path id="Path_36343" data-name="Path 36343" class="cls-12" d="M132.15,209.658l-2.068-2.7a.819.819,0,0,1,.09-1.079h0a.819.819,0,0,1,1.079.09l2.068,2.7a.819.819,0,0,1-.09,1.079h0A.734.734,0,0,1,132.15,209.658Z" transform="translate(-120.101 -196.894)"/>
          <g id="Group_10181" data-name="Group 10181">
            <path id="Path_36344" data-name="Path 36344" class="cls-13" d="M125.753,196.838c-1.619-.719-4.406-.809-5.125.18l.629,5.755-.27.36c0,2.7-1.169,15.2-.989,19.242.09,2.068,2.877,1.169,2.877,1.169,5.305-2.7,8.183-8.362,8.183-8.362.9-2.877-1.8-3.687-2.068-8.183-.09-.719.36-1.888.9-1.529l2.248,3.237.9-1.079s-2.787-4.945-4.586-8.452A4.208,4.208,0,0,0,125.753,196.838Z" transform="translate(-119.099 -195.943)"/>
            <path id="Path_36345" data-name="Path 36345" class="cls-6" d="M119.719,197.159,119,200.486s1.079,11.959,1.349,14.3c.36,2.7,9.531.719,5.665-13.847C124.935,192.573,119.719,197.159,119.719,197.159Z" transform="translate(-119 -195.905)"/>
          </g>
        </g>
        <path id="Path_36346" data-name="Path 36346" class="cls-16" d="M111.919,64.9a23.014,23.014,0,0,1-3.147,5.215A14.046,14.046,0,0,1,94.3,75.42,83.168,83.168,0,0,1,78.2,69.4s3.507,11.15,2.248,17.624c-.54,2.967-.18,2.428-.18,2.428.18,2.877,4.945,2.068,4.945,2.068,10.161,3.147,21.311-2.428,21.311-2.428l6.564-19.242Z" transform="translate(-28.655 -6.543)"/>
        <path id="Path_36347" data-name="Path 36347" class="cls-19" d="M79.3,91.215h0a1.744,1.744,0,0,0,.629,1.708c1.888,1.529,7.014,4.676,15.016,3.777A41.157,41.157,0,0,0,107.8,93.553a1.76,1.76,0,0,0,.9-2.248l-.18-.54a1.8,1.8,0,0,0-2.338-1.079c-3.6,1.529-12.319,4.676-18.343,2.877a19.768,19.768,0,0,1-5.755-2.518A1.773,1.773,0,0,0,79.3,91.215Z" transform="translate(-28.764 -9.03)"/>
        <path id="Path_36348" data-name="Path 36348" class="cls-5" d="M91.3,97.58l-3.866-.809A3.057,3.057,0,0,1,85.1,93.983h0a1.892,1.892,0,0,1,2.338-1.888L91.3,92.9a3.057,3.057,0,0,1,2.338,2.787h0A1.8,1.8,0,0,1,91.3,97.58Z" transform="translate(-29.351 -9.28)"/>
        <path id="Path_36349" data-name="Path 36349" class="cls-19" d="M90.6,96.543l-2.248-.45A1.816,1.816,0,0,1,87,94.475h0A1.08,1.08,0,0,1,88.349,93.4l2.248.45a1.816,1.816,0,0,1,1.349,1.619h0A1.018,1.018,0,0,1,90.6,96.543Z" transform="translate(-29.542 -9.413)"/>
        <g id="Group_10184" data-name="Group 10184" transform="translate(59.62 34.304)">
          <g id="Group_10183" data-name="Group 10183">
            <path id="Path_36350" data-name="Path 36350" class="cls-16" d="M90.929,39.094c-.45,5.305-4.316,10.79,2.338,13.488,6.564,2.7,13.128-3.057,17.534-7.283a.954.954,0,1,0-1.349-1.349c-3.687,3.6-10.61,9.8-16.185,6.474C89.4,48.086,92.638,42.6,93,39.094c0-1.259-1.978-1.259-2.068,0Z" transform="translate(-89.405 -38.15)"/>
          </g>
        </g>
        <path id="Path_36351" data-name="Path 36351" class="cls-6" d="M94.469,35.389,91.5,34.94a8.429,8.429,0,0,1-7.014-9.621l2.338-15.106a8.571,8.571,0,0,1,9.711-6.924l2.967.45a8.429,8.429,0,0,1,7.014,9.621l-2.428,15.106A8.394,8.394,0,0,1,94.469,35.389Z" transform="translate(-29.279 -0.321)"/>
        <path id="Path_36352" data-name="Path 36352" class="cls-15" d="M100.337,16.551C97.73,11.7,90.446,15.472,87.3,13.494c-3.417-2.158-1.439-5.755,1.708-8.272a14.894,14.894,0,0,1,7.373-3.057c10.341-1.8,19.153,4.136,17.444,15.106,0,0-1.978,15.016-11.06,15.556l-.18-2.248s6.025-4.5,1.349-8.722c-1.079-.989-1.169-.989-.719-2.787C103.664,17.091,101.236,18.26,100.337,16.551Z" transform="translate(-29.392 -0.186)"/>
        <path id="Path_36353" data-name="Path 36353" class="cls-5" d="M87.507,27.788l4.676,3.147a.516.516,0,0,1,.18.629c-.27.809-1.169,2.428-3.777.9A4.344,4.344,0,0,1,86.7,28.238.506.506,0,0,1,87.507,27.788Z" transform="translate(-29.51 -2.791)"/>
        <path id="Path_36354" data-name="Path 36354" class="cls-20" d="M96.365,26.159c-.09.629-.45,1.079-.809,1.079-.36-.09-.45-.629-.36-1.259s.45-1.079.809-1.079S96.545,25.529,96.365,26.159Z" transform="translate(-30.365 -2.51)"/>
        <path id="Path_36355" data-name="Path 36355" class="cls-20" d="M88.665,21.159c-.09.629-.45,1.079-.809,1.079-.36-.09-.45-.629-.36-1.259s.45-1.079.809-1.079C88.665,19.99,88.845,20.529,88.665,21.159Z" transform="translate(-29.589 -2.006)"/>
        <g id="Group_10185" data-name="Group 10185" transform="translate(64.882 18.596)">
          <path id="Path_36356" data-name="Path 36356" class="cls-15" d="M95.745,21.957A5.67,5.67,0,0,1,98.8,24.115c.45.719,1.529,0,1.079-.719a6.956,6.956,0,0,0-3.866-2.7.644.644,0,0,0-.27,1.259Z" transform="translate(-95.257 -20.681)"/>
        </g>
        <g id="Group_10186" data-name="Group 10186" transform="translate(57.149 13.843)">
          <path id="Path_36357" data-name="Path 36357" class="cls-15" d="M87.145,16.658a5.68,5.68,0,0,1,3.237,1.888c.45.629,1.529-.09,1.079-.719A6.8,6.8,0,0,0,87.415,15.4c-.809-.09-1.079,1.169-.27,1.259Z" transform="translate(-86.657 -15.395)"/>
        </g>
        <g id="Group_10188" data-name="Group 10188" transform="translate(70.186 97.303)">
          <g id="Group_10187" data-name="Group 10187">
            <path id="Path_36358" data-name="Path 36358" class="cls-13" d="M114.144,113.866c.27,15.016-3.147,30.123-.18,45.049,1.439,7.463-9.891,10.61-11.42,3.147-3.147-16.1.09-31.921-.27-48.106-.09-7.643,11.689-7.643,11.869-.09Z" transform="translate(-101.156 -108.212)"/>
          </g>
        </g>
        <path id="Path_36359" data-name="Path 36359" class="cls-15" d="M83.046,22.3s1.079-4.945,14.3-9.172.629-.18.629-.18L86.642,8S80.888,12.406,83.046,22.3Z" transform="translate(-29.095 -0.807)"/>
        <g id="Group_10190" data-name="Group 10190" transform="translate(76.335 40.698)">
          <g id="Group_10189" data-name="Group 10189">
            <path id="Path_36360" data-name="Path 36360" class="cls-17" d="M110.517,54.648c2.428,1.259,3.6,5.665,4.406,8.992,1.888,7.463,2.787,15.2,3.866,22.749.9,6.384,10.61,3.687,9.711-2.7-1.169-8.542-2.068-17.354-4.676-25.627-1.439-4.766-3.687-9.8-8.272-12.229-5.665-2.877-10.79,5.845-5.035,8.812Z" transform="translate(-107.994 -45.261)"/>
          </g>
        </g>
        <path id="Path_36361" data-name="Path 36361" class="cls-15" d="M100.6,16.935s7.193,14.387,4.766,22.48c-1.978,6.654-10.251,9.531-13.578,19.6a2.2,2.2,0,0,0,3.507,2.338,29.679,29.679,0,0,1,7.643-5.035c7.283-3.147,9.351-7.553,9.351-11.15s2.248-28.954,2.248-28.954L100.059,11.9Z" transform="translate(-30.012 -1.2)"/>
        <path id="Path_36362" data-name="Path 36362" class="cls-6" d="M110.013,62.835h0a4.937,4.937,0,0,1-5.845-3.866l-1.079-5.035a4.937,4.937,0,0,1,3.866-5.845h0a4.937,4.937,0,0,1,5.845,3.866l.989,5.035A4.992,4.992,0,0,1,110.013,62.835Z" transform="translate(-31.154 -4.838)"/>
        <path id="Path_36363" data-name="Path 36363" class="cls-6" d="M107.632,31.275a2.045,2.045,0,0,1-3.237-1.529,4.852,4.852,0,0,1,2.338-4.586,2.045,2.045,0,0,1,3.237,1.529A4.77,4.77,0,0,1,107.632,31.275Z" transform="translate(-31.292 -2.501)"/>
        <line id="Line_66" data-name="Line 66" class="cls-21" x1="6.834" y2="3.057" transform="translate(16.095 8.992)"/>
        <line id="Line_67" data-name="Line 67" class="cls-21" x1="3.417" y2="7.104" transform="translate(14.117 3.327)"/>
        <line id="Line_68" data-name="Line 68" class="cls-21" x2="0.36" y2="6.924" transform="translate(11.24 2.967)"/>
        <g id="Group_10192" data-name="Group 10192" transform="translate(73.426 53.31)">
          <g id="Group_10191" data-name="Group 10191">
            <path id="Path_36364" data-name="Path 36364" class="cls-6" d="M120.172,85.465c3.417-3.6,1.259,1.169,1.079-.45-.09-.36-1.169-1.259-1.439-1.529a31.207,31.207,0,0,1-3.057-5.305A50.537,50.537,0,0,1,112.349,62.9c-.54-4.766-8.183-4.856-7.553,0,.989,8.272,3.417,17.084,8.183,24.1,2.7,3.956,8.093,8.632,12.5,3.956,3.417-3.6-1.978-8.992-5.305-5.485Z" transform="translate(-104.759 -59.287)"/>
          </g>
        </g>
        <path id="Path_36365" data-name="Path 36365" class="cls-5" d="M49.1,0" transform="translate(-25.721)"/>
      </g>
    </g>
  </g>
</svg>
